G04 Layer_Color=16711935*
%FSLAX44Y44*%
%MOMM*%
G71*
G01*
G75*
%ADD60C,0.1000*%
D60*
X310000Y968000D02*
G03*
X330000Y948000I20000J0D01*
G01*
X310000Y988000D02*
G03*
X290000Y1008000I-20000J0D01*
G01*
X25000Y1007999D02*
G03*
X0Y988000I-2500J-22499D01*
G01*
X23000Y911000D02*
G03*
X-0Y929000I-20500J-2500D01*
G01*
Y865000D02*
G03*
X23000Y883000I2500J20500D01*
G01*
X23000Y464000D02*
G03*
X-0Y480000I-19500J-3500D01*
G01*
X0Y416000D02*
G03*
X23000Y436000I1500J21500D01*
G01*
X121000Y1008000D02*
G03*
X156000Y973000I35000J0D01*
G01*
D02*
G03*
X191000Y1008000I0J35000D01*
G01*
X-1Y36000D02*
G03*
X69600Y23000I36035J109D01*
G01*
X242399Y22999D02*
G03*
X312000Y36000I33587J12998D01*
G01*
X591213Y182213D02*
G03*
X600000Y203426I-21213J21213D01*
G01*
X438574Y42000D02*
G03*
X459787Y50787I0J30000D01*
G01*
X600000Y928000D02*
G03*
X580000Y948000I-20000J0D01*
G01*
X50000Y883000D02*
G03*
X50000Y911000I0J14000D01*
G01*
Y436000D02*
G03*
X50000Y464000I0J14000D01*
G01*
X310000Y968000D02*
Y988000D01*
X191000Y1008000D02*
X290000D01*
X0Y929000D02*
Y988000D01*
X25000Y1008000D02*
X121000D01*
X23000Y911000D02*
X50000D01*
X23000Y883000D02*
X50000D01*
X0Y480000D02*
Y865000D01*
X23000Y436000D02*
X50000D01*
X23000Y464000D02*
X50000D01*
X69600Y23000D02*
X242400D01*
X0Y36000D02*
Y416000D01*
X312000Y36000D02*
Y42000D01*
X600000Y203426D02*
Y928000D01*
X459787Y50787D02*
X591213Y182213D01*
X330000Y948000D02*
X580000D01*
X312000Y42000D02*
X438574D01*
X310000Y968000D02*
G03*
X330000Y948000I20000J0D01*
G01*
X310000Y988000D02*
G03*
X290000Y1008000I-20000J0D01*
G01*
X25000Y1007999D02*
G03*
X0Y988000I-2500J-22499D01*
G01*
X23000Y911000D02*
G03*
X-0Y929000I-20500J-2500D01*
G01*
Y865000D02*
G03*
X23000Y883000I2500J20500D01*
G01*
X23000Y464000D02*
G03*
X-0Y480000I-19500J-3500D01*
G01*
X0Y416000D02*
G03*
X23000Y436000I1500J21500D01*
G01*
X121000Y1008000D02*
G03*
X156000Y973000I35000J0D01*
G01*
D02*
G03*
X191000Y1008000I0J35000D01*
G01*
X-1Y36000D02*
G03*
X69600Y23000I36035J109D01*
G01*
X242399Y22999D02*
G03*
X312000Y36000I33587J12998D01*
G01*
X591213Y182213D02*
G03*
X600000Y203426I-21213J21213D01*
G01*
X438574Y42000D02*
G03*
X459787Y50787I0J30000D01*
G01*
X600000Y928000D02*
G03*
X580000Y948000I-20000J0D01*
G01*
X50000Y883000D02*
G03*
X50000Y911000I0J14000D01*
G01*
Y436000D02*
G03*
X50000Y464000I0J14000D01*
G01*
X310000Y968000D02*
Y988000D01*
X191000Y1008000D02*
X290000D01*
X0Y929000D02*
Y988000D01*
X25000Y1008000D02*
X121000D01*
X23000Y911000D02*
X50000D01*
X23000Y883000D02*
X50000D01*
X0Y480000D02*
Y865000D01*
X23000Y436000D02*
X50000D01*
X23000Y464000D02*
X50000D01*
X69600Y23000D02*
X242400D01*
X0Y36000D02*
Y416000D01*
X312000Y36000D02*
Y42000D01*
X600000Y203426D02*
Y928000D01*
X459787Y50787D02*
X591213Y182213D01*
X330000Y948000D02*
X580000D01*
X312000Y42000D02*
X438574D01*
M02*
