G04 Layer_Physical_Order=2*
G04 Layer_Color=36540*
%FSLAX44Y44*%
%MOMM*%
G71*
G01*
G75*
%ADD57C,0.2000*%
%ADD60C,0.1000*%
%ADD61O,1.9000X1.0500*%
%ADD62R,1.9000X1.9000*%
%ADD63C,1.9000*%
%ADD65C,1.6500*%
%ADD66C,6.0000*%
%ADD67C,5.5000*%
%ADD69C,4.2000*%
%ADD70R,1.9000X1.9000*%
%ADD71C,0.6000*%
%ADD72C,1.6000*%
G36*
X559000Y496000D02*
X537500D01*
Y641500D01*
X559000D01*
Y496000D01*
D02*
G37*
G36*
X522000Y805500D02*
X522000Y790000D01*
X543000Y769000D01*
X543000Y667550D01*
X529500Y654050D01*
X513000Y654050D01*
X503500Y663550D01*
X503500Y681050D01*
X511500Y689050D01*
X511500Y751000D01*
X473500Y789001D01*
X473500Y811000D01*
X484500Y822000D01*
X505500Y822000D01*
X522000Y805500D01*
D02*
G37*
G36*
X311149Y953046D02*
X311433Y952762D01*
X311656Y952428D01*
X314428Y949656D01*
X314762Y949433D01*
X315046Y949149D01*
X318306Y946971D01*
X318677Y946817D01*
X319011Y946594D01*
X322634Y945093D01*
X323027Y945015D01*
X323399Y944861D01*
X327244Y944096D01*
X327546D01*
X327840Y944023D01*
X329800Y943927D01*
X329900Y943942D01*
X330000Y943922D01*
X358233D01*
X358769Y941922D01*
X357756Y941244D01*
X356761Y939756D01*
X356412Y938000D01*
X356761Y936244D01*
X357756Y934756D01*
X359244Y933761D01*
X361000Y933412D01*
X362756Y933761D01*
X364244Y934756D01*
X365239Y936244D01*
X365588Y938000D01*
X365239Y939756D01*
X364244Y941244D01*
X363230Y941922D01*
X363767Y943922D01*
X411000D01*
Y636690D01*
X409000Y635740D01*
X408256Y636238D01*
X406500Y636587D01*
X404744Y636238D01*
X403256Y635243D01*
X402369Y633915D01*
X401500Y634088D01*
X399744Y633739D01*
X398256Y632744D01*
X397261Y631256D01*
X396912Y629500D01*
X397261Y627744D01*
X397800Y626937D01*
X397011Y625756D01*
X396662Y624000D01*
X397011Y622244D01*
X398006Y620756D01*
X399494Y619761D01*
X401250Y619412D01*
X403006Y619761D01*
X404494Y620756D01*
X405058Y621599D01*
X406000Y621412D01*
X407756Y621761D01*
X409000Y622592D01*
X410043Y622313D01*
X411000Y621783D01*
Y613613D01*
X410761Y613256D01*
X410412Y611500D01*
X410761Y609744D01*
X411000Y609387D01*
Y607479D01*
X409604Y606487D01*
X409000Y606290D01*
X407500Y606588D01*
X405744Y606239D01*
X404256Y605244D01*
X403261Y603756D01*
X402912Y602000D01*
X403261Y600244D01*
X404256Y598756D01*
X405744Y597761D01*
X407500Y597412D01*
X409256Y597761D01*
X410744Y598756D01*
X411739Y600244D01*
X411790Y600500D01*
X450057Y600500D01*
X450500Y600412D01*
X450943Y600500D01*
X488000D01*
X488000Y482500D01*
X590860Y482500D01*
X591057Y480500D01*
X589744Y480239D01*
X588256Y479244D01*
X587261Y477756D01*
X586912Y476000D01*
X587261Y474244D01*
X588256Y472756D01*
X589744Y471761D01*
X591500Y471412D01*
X593256Y471761D01*
X593922Y472206D01*
X595922Y471192D01*
Y439308D01*
X593922Y438294D01*
X593256Y438739D01*
X591500Y439088D01*
X589744Y438739D01*
X588256Y437744D01*
X587261Y436256D01*
X586912Y434500D01*
X587261Y432744D01*
X588256Y431256D01*
X589744Y430261D01*
X591500Y429912D01*
X593256Y430261D01*
X593922Y430706D01*
X595922Y429692D01*
Y398334D01*
X595138Y397825D01*
X593922Y397460D01*
X592756Y398239D01*
X591000Y398588D01*
X589244Y398239D01*
X587756Y397244D01*
X586761Y395756D01*
X586412Y394000D01*
X586761Y392244D01*
X587756Y390756D01*
X589244Y389761D01*
X591000Y389412D01*
X592756Y389761D01*
X593922Y390540D01*
X595138Y390175D01*
X595922Y389666D01*
Y203426D01*
Y202153D01*
X595672Y199618D01*
X595175Y197120D01*
X594436Y194683D01*
X593461Y192330D01*
X592261Y190083D01*
X590846Y187966D01*
X589230Y185997D01*
X588330Y185097D01*
X588330Y185097D01*
X588329Y185097D01*
X456903Y53671D01*
X456903Y53670D01*
X456003Y52770D01*
X454034Y51154D01*
X451917Y49739D01*
X449670Y48539D01*
X447318Y47564D01*
X444880Y46825D01*
X442382Y46328D01*
X439847Y46078D01*
X312382D01*
X312048Y47469D01*
X309819Y52850D01*
X306776Y57815D01*
X302994Y62244D01*
X298565Y66026D01*
X293600Y69069D01*
X288219Y71298D01*
X282556Y72657D01*
X276750Y73114D01*
X270944Y72657D01*
X265281Y71298D01*
X259900Y69069D01*
X254935Y66026D01*
X250506Y62244D01*
X246724Y57815D01*
X243681Y52850D01*
X241452Y47469D01*
X240093Y41806D01*
X239636Y36000D01*
X240093Y30194D01*
X240464Y28649D01*
X239225Y27078D01*
X106000Y27078D01*
Y159387D01*
X106239Y159744D01*
X106588Y161500D01*
X106239Y163256D01*
X106000Y163613D01*
Y186011D01*
X107256Y186261D01*
X108744Y187256D01*
X109739Y188744D01*
X110088Y190500D01*
X109739Y192256D01*
X108744Y193744D01*
X107256Y194739D01*
X106000Y194989D01*
Y344632D01*
X337632D01*
X378500Y385500D01*
X378500Y625011D01*
X379756Y625261D01*
X381244Y626256D01*
X382239Y627744D01*
X382588Y629500D01*
X382239Y631256D01*
X381244Y632744D01*
X379756Y633739D01*
X378500Y633989D01*
X378500Y685000D01*
X374130D01*
X372889Y687000D01*
X373088Y688000D01*
X372739Y689756D01*
X371908Y691000D01*
X372739Y692244D01*
X373088Y694000D01*
X372739Y695756D01*
X372433Y696214D01*
X373244Y696756D01*
X374239Y698244D01*
X374588Y700000D01*
X374239Y701756D01*
X373244Y703244D01*
X371756Y704239D01*
X370000Y704588D01*
X368244Y704239D01*
X367210Y703548D01*
X366744Y704244D01*
X365256Y705239D01*
X363500Y705588D01*
X361744Y705239D01*
X360256Y704244D01*
X359261Y702756D01*
X358912Y701000D01*
X359261Y699244D01*
X360256Y697756D01*
X361744Y696761D01*
X362545Y696602D01*
X363584Y696090D01*
X364006Y694473D01*
X363912Y694000D01*
X364261Y692244D01*
X365092Y691000D01*
X364261Y689756D01*
X363912Y688000D01*
X364111Y687000D01*
X362870Y685000D01*
X336000Y685000D01*
Y655000D01*
X346376D01*
Y649717D01*
X346466Y649501D01*
X346440Y649268D01*
X346695Y648948D01*
X346852Y648569D01*
X347000Y648507D01*
Y642493D01*
X346852Y642431D01*
X346695Y642052D01*
X346440Y641731D01*
X346466Y641499D01*
X346376Y641283D01*
X346376Y472876D01*
X324857Y451357D01*
X322999Y451707D01*
X322614Y451943D01*
X321744Y453244D01*
X320780Y453889D01*
X320673Y454270D01*
Y455730D01*
X320780Y456111D01*
X321744Y456756D01*
X322739Y458244D01*
X323088Y460000D01*
X322739Y461756D01*
X321744Y463244D01*
X320256Y464239D01*
X318500Y464588D01*
X316744Y464239D01*
X315256Y463244D01*
X314261Y461756D01*
X313912Y460000D01*
X314261Y458244D01*
X315256Y456756D01*
X316220Y456111D01*
X316327Y455730D01*
Y454270D01*
X316220Y453889D01*
X315256Y453244D01*
X314261Y451756D01*
X313912Y450000D01*
X314261Y448244D01*
X315256Y446756D01*
X314586Y444798D01*
X313781Y444000D01*
X221432D01*
X220446Y446000D01*
X220798Y446459D01*
X221755Y448770D01*
X222082Y451250D01*
X221755Y453730D01*
X220798Y456041D01*
X219275Y458025D01*
X217291Y459548D01*
X214980Y460505D01*
X212500Y460832D01*
X210020Y460505D01*
X207709Y459548D01*
X205725Y458025D01*
X204202Y456041D01*
X203244Y453730D01*
X202918Y451250D01*
X203244Y448770D01*
X204202Y446459D01*
X204554Y446000D01*
X203568Y444000D01*
X156000D01*
X66199Y533801D01*
X66244Y534256D01*
X67239Y535744D01*
X67588Y537500D01*
X67239Y539256D01*
X66244Y540744D01*
X64756Y541739D01*
X63000Y542088D01*
X61244Y541739D01*
X59756Y540744D01*
X59300Y540700D01*
X41500Y558500D01*
Y608057D01*
X41588Y608500D01*
X41500Y608943D01*
Y671092D01*
X41744Y671256D01*
X42739Y672744D01*
X43088Y674500D01*
X42739Y676256D01*
X41744Y677744D01*
X41500Y677908D01*
Y721592D01*
X41744Y721756D01*
X42739Y723244D01*
X43088Y725000D01*
X42739Y726756D01*
X41744Y728244D01*
X41500Y728408D01*
Y741283D01*
X42457Y741814D01*
X43500Y742092D01*
X44744Y741261D01*
X46500Y740912D01*
X48256Y741261D01*
X49744Y742256D01*
X50739Y743744D01*
X51088Y745500D01*
X50739Y747256D01*
X49744Y748744D01*
X48256Y749739D01*
X46500Y750088D01*
X44744Y749739D01*
X43500Y748908D01*
X42457Y749186D01*
X41500Y749717D01*
Y759532D01*
X43500Y760138D01*
X43756Y759756D01*
X45244Y758761D01*
X47000Y758412D01*
X48756Y758761D01*
X50244Y759756D01*
X51239Y761244D01*
X51588Y763000D01*
X51239Y764756D01*
X50244Y766244D01*
X48756Y767239D01*
X47000Y767588D01*
X45244Y767239D01*
X43756Y766244D01*
X43500Y765862D01*
X41500Y766468D01*
Y777500D01*
X68521D01*
X69513Y776104D01*
X69710Y775500D01*
X69412Y774000D01*
X69761Y772244D01*
X70756Y770756D01*
X72244Y769761D01*
X74000Y769412D01*
X75756Y769761D01*
X77244Y770756D01*
X78239Y772244D01*
X78588Y774000D01*
X78290Y775500D01*
X78487Y776104D01*
X79479Y777500D01*
X85120D01*
X86361Y775500D01*
X86162Y774500D01*
X86511Y772744D01*
X87506Y771256D01*
X88994Y770261D01*
X90750Y769912D01*
X92506Y770261D01*
X93994Y771256D01*
X94989Y772744D01*
X95338Y774500D01*
X95139Y775500D01*
X96380Y777500D01*
X138138D01*
X139244Y776761D01*
X141000Y776412D01*
X142756Y776761D01*
X143862Y777500D01*
X163000D01*
Y805000D01*
X173376D01*
X174362Y803000D01*
X174202Y802791D01*
X173244Y800480D01*
X172918Y798000D01*
X173244Y795520D01*
X174202Y793209D01*
X175725Y791225D01*
X177709Y789702D01*
X180020Y788745D01*
X182500Y788418D01*
X184980Y788745D01*
X187291Y789702D01*
X189275Y791225D01*
X190798Y793209D01*
X191755Y795520D01*
X192082Y798000D01*
X191755Y800480D01*
X190798Y802791D01*
X190638Y803000D01*
X191624Y805000D01*
X196021D01*
X197013Y803605D01*
X197210Y803000D01*
X196912Y801500D01*
X197261Y799744D01*
X198256Y798256D01*
X199744Y797261D01*
X201500Y796912D01*
X203256Y797261D01*
X204744Y798256D01*
X205739Y799744D01*
X206088Y801500D01*
X205790Y803000D01*
X205987Y803605D01*
X206979Y805000D01*
X304809Y805000D01*
X305758Y803000D01*
X305261Y802256D01*
X304912Y800500D01*
X305261Y798744D01*
X306256Y797256D01*
X307744Y796261D01*
X309500Y795912D01*
X311256Y796261D01*
X312744Y797256D01*
X313739Y798744D01*
X314088Y800500D01*
X313739Y802256D01*
X312744Y803744D01*
X311256Y804739D01*
X309500Y805088D01*
X308995Y804988D01*
X307007Y806459D01*
X307000Y806475D01*
Y808520D01*
X309000Y809506D01*
X310452Y808391D01*
X313128Y807283D01*
X316000Y806905D01*
X318872Y807283D01*
X321548Y808391D01*
X323845Y810155D01*
X325608Y812452D01*
X325792Y812894D01*
X326727Y813061D01*
X327971Y812930D01*
X328756Y811756D01*
X330244Y810761D01*
X332000Y810412D01*
X333756Y810761D01*
X335244Y811756D01*
X336239Y813244D01*
X336588Y815000D01*
X336239Y816756D01*
X335244Y818244D01*
X333756Y819239D01*
X332000Y819588D01*
X330244Y819239D01*
X329054Y818444D01*
X327770Y818729D01*
X326945Y819135D01*
X326717Y820872D01*
X325608Y823548D01*
X323845Y825845D01*
X321548Y827608D01*
X318872Y828717D01*
X316000Y829095D01*
X313128Y828717D01*
X310452Y827608D01*
X309000Y826494D01*
X307000Y827480D01*
Y833520D01*
X309000Y834506D01*
X310452Y833391D01*
X313128Y832283D01*
X316000Y831905D01*
X318872Y832283D01*
X321548Y833391D01*
X323845Y835155D01*
X325608Y837452D01*
X326717Y840128D01*
X327095Y843000D01*
X326717Y845872D01*
X325608Y848548D01*
X323845Y850845D01*
X321548Y852608D01*
X318872Y853717D01*
X316000Y854095D01*
X313128Y853717D01*
X310452Y852608D01*
X309000Y851494D01*
X307000Y852480D01*
Y858520D01*
X309000Y859506D01*
X310452Y858391D01*
X313128Y857283D01*
X316000Y856905D01*
X318872Y857283D01*
X321548Y858391D01*
X323845Y860155D01*
X325608Y862452D01*
X326717Y865128D01*
X327095Y868000D01*
X326717Y870872D01*
X325608Y873548D01*
X323845Y875845D01*
X321548Y877608D01*
X318872Y878717D01*
X316000Y879095D01*
X313128Y878717D01*
X310452Y877608D01*
X309000Y876494D01*
X307000Y877480D01*
Y882000D01*
X313500D01*
Y893000D01*
Y904000D01*
X307000D01*
Y951550D01*
X308494Y953988D01*
X310494Y954027D01*
X311149Y953046D01*
D02*
G37*
G36*
X253642Y1001922D02*
X250506Y999244D01*
X246724Y994815D01*
X243681Y989850D01*
X241452Y984469D01*
X240093Y978806D01*
X239636Y973000D01*
X240093Y967194D01*
X241452Y961531D01*
X243681Y956150D01*
X246724Y951185D01*
X250506Y946756D01*
X254935Y942974D01*
X259900Y939931D01*
X265281Y937702D01*
X270944Y936342D01*
X276750Y935886D01*
X282556Y936342D01*
X288219Y937702D01*
X293506Y939892D01*
X293684Y939886D01*
X295643Y938837D01*
X295761Y938244D01*
X296756Y936756D01*
X298244Y935761D01*
X300000Y935412D01*
X301756Y935761D01*
X303000Y936592D01*
X304043Y936313D01*
X305000Y935783D01*
X305000Y868721D01*
X304905Y868000D01*
X305000Y867279D01*
Y843721D01*
X304905Y843000D01*
X305000Y842279D01*
Y818721D01*
X304905Y818000D01*
X305000Y817279D01*
Y807000D01*
X185597Y807000D01*
X184980Y807255D01*
X182500Y807582D01*
X180020Y807255D01*
X179403Y807000D01*
X172000D01*
X161000D01*
Y784000D01*
Y779500D01*
X146819D01*
X145588Y781000D01*
X145239Y782756D01*
X144244Y784244D01*
X142756Y785239D01*
X141000Y785588D01*
X139244Y785239D01*
X137756Y784244D01*
X136761Y782756D01*
X136412Y781000D01*
X135181Y779500D01*
X54130Y779500D01*
X52889Y781500D01*
X53088Y782500D01*
X52739Y784256D01*
X51744Y785744D01*
X50256Y786739D01*
X48500Y787088D01*
X46744Y786739D01*
X45256Y785744D01*
X44261Y784256D01*
X43912Y782500D01*
X44111Y781500D01*
X42870Y779500D01*
X39500D01*
Y730409D01*
X38500Y729588D01*
X36744Y729239D01*
X35256Y728244D01*
X34261Y726756D01*
X33912Y725000D01*
X34261Y723244D01*
X35256Y721756D01*
X36744Y720761D01*
X38500Y720412D01*
X39500Y719591D01*
Y713943D01*
X39412Y713500D01*
X39500Y713057D01*
Y707443D01*
X39412Y707000D01*
X39500Y706557D01*
Y679909D01*
X38500Y679088D01*
X36744Y678739D01*
X35256Y677744D01*
X34261Y676256D01*
X33912Y674500D01*
X34261Y672744D01*
X35256Y671256D01*
X36744Y670261D01*
X38500Y669912D01*
X39500Y669091D01*
X39500Y614464D01*
X37500Y612989D01*
X37000Y613088D01*
X35244Y612739D01*
X33756Y611744D01*
X32761Y610256D01*
X32412Y608500D01*
X32761Y606744D01*
X33756Y605256D01*
X35244Y604261D01*
X37000Y603912D01*
X37500Y604011D01*
X39500Y602536D01*
Y557000D01*
X58509Y537990D01*
X58412Y537500D01*
X58761Y535744D01*
X59756Y534256D01*
X61244Y533261D01*
X63000Y532912D01*
X63490Y533009D01*
X155000Y441500D01*
X313091Y441500D01*
X313912Y440500D01*
X314261Y438744D01*
X315256Y437256D01*
X316744Y436261D01*
X318500Y435912D01*
X320256Y436261D01*
X321744Y437256D01*
X322739Y438744D01*
X323088Y440500D01*
X322739Y442256D01*
X321744Y443744D01*
X321610Y445110D01*
X348000Y471500D01*
X348000Y641283D01*
X348957Y641814D01*
X350000Y642092D01*
X351244Y641261D01*
X353000Y640912D01*
X354756Y641261D01*
X356244Y642256D01*
X357239Y643744D01*
X357588Y645500D01*
X357239Y647256D01*
X356244Y648744D01*
X354756Y649739D01*
X353000Y650088D01*
X351244Y649739D01*
X350000Y648908D01*
X348957Y649186D01*
X348000Y649717D01*
Y657000D01*
X338500D01*
Y683000D01*
X376500Y683000D01*
Y633790D01*
X376244Y633739D01*
X374756Y632744D01*
X373761Y631256D01*
X373412Y629500D01*
X373761Y627744D01*
X374756Y626256D01*
X376244Y625261D01*
X376500Y625210D01*
Y387000D01*
X337000Y347500D01*
X104000D01*
Y194790D01*
X103744Y194739D01*
X102256Y193744D01*
X101261Y192256D01*
X100912Y190500D01*
X101261Y188744D01*
X102256Y187256D01*
X103744Y186261D01*
X104000Y186210D01*
Y167729D01*
X102000Y166088D01*
X100244Y165739D01*
X98756Y164744D01*
X97761Y163256D01*
X97412Y161500D01*
X97761Y159744D01*
X98756Y158256D01*
X100244Y157261D01*
X102000Y156912D01*
X104000Y155271D01*
Y145191D01*
X102000Y144242D01*
X101256Y144739D01*
X99500Y145088D01*
X97744Y144739D01*
X96256Y143744D01*
X95261Y142256D01*
X94912Y140500D01*
X95261Y138744D01*
X96256Y137256D01*
X97744Y136261D01*
X99500Y135912D01*
X101256Y136261D01*
X102000Y136758D01*
X104000Y135809D01*
Y27078D01*
X74275D01*
X73036Y28649D01*
X73407Y30194D01*
X73864Y36000D01*
X73407Y41806D01*
X72048Y47469D01*
X69819Y52850D01*
X66776Y57815D01*
X62994Y62244D01*
X58565Y66026D01*
X53600Y69069D01*
X48219Y71298D01*
X42556Y72657D01*
X36750Y73114D01*
X30944Y72657D01*
X25281Y71298D01*
X19900Y69069D01*
X14935Y66026D01*
X10506Y62244D01*
X6724Y57815D01*
X6003Y56639D01*
X4078Y57182D01*
Y165065D01*
X4346Y165118D01*
X6078Y165136D01*
X8531Y161133D01*
X11803Y157303D01*
X15633Y154031D01*
X19927Y151400D01*
X24581Y149472D01*
X29479Y148296D01*
X34500Y147901D01*
X39521Y148296D01*
X44419Y149472D01*
X49073Y151400D01*
X53367Y154031D01*
X57197Y157303D01*
X60469Y161133D01*
X63100Y165427D01*
X65028Y170081D01*
X66204Y174979D01*
X66599Y180000D01*
X66204Y185021D01*
X65028Y189919D01*
X63100Y194573D01*
X60469Y198867D01*
X58561Y201101D01*
X59420Y203174D01*
X61556Y203342D01*
X67219Y204702D01*
X72600Y206931D01*
X77565Y209974D01*
X81994Y213756D01*
X85776Y218185D01*
X88819Y223150D01*
X91048Y228531D01*
X92407Y234194D01*
X92864Y240000D01*
X92407Y245806D01*
X91048Y251469D01*
X88819Y256850D01*
X85776Y261815D01*
X81994Y266244D01*
X77565Y270026D01*
X72600Y273069D01*
X67219Y275298D01*
X62399Y276455D01*
X61446Y278216D01*
X61414Y278675D01*
X63100Y281427D01*
X65028Y286081D01*
X66204Y290979D01*
X66599Y296000D01*
X66204Y301021D01*
X65028Y305919D01*
X63100Y310573D01*
X60469Y314867D01*
X57197Y318697D01*
X53367Y321969D01*
X49073Y324600D01*
X44419Y326528D01*
X39521Y327704D01*
X34500Y328099D01*
X29479Y327704D01*
X24581Y326528D01*
X19927Y324600D01*
X15633Y321969D01*
X11803Y318697D01*
X8531Y314867D01*
X6078Y310864D01*
X4346Y310882D01*
X4078Y310935D01*
Y412096D01*
X6821Y412445D01*
X7202Y412573D01*
X7600Y412623D01*
X11607Y413965D01*
X11955Y414164D01*
X12336Y414291D01*
X16004Y416389D01*
X16307Y416652D01*
X16656Y416851D01*
X19844Y419624D01*
X20090Y419941D01*
X20393Y420205D01*
X22979Y423546D01*
X23158Y423905D01*
X23404Y424223D01*
X25289Y428004D01*
X25394Y428392D01*
X25573Y428751D01*
X26437Y431922D01*
X50000D01*
X50133Y431948D01*
X50267Y431931D01*
X52094Y432050D01*
X52482Y432154D01*
X52883Y432180D01*
X56413Y433126D01*
X56891Y433362D01*
X57397Y433534D01*
X60562Y435361D01*
X60963Y435713D01*
X61406Y436009D01*
X63991Y438594D01*
X64287Y439037D01*
X64639Y439438D01*
X66466Y442603D01*
X66638Y443108D01*
X66874Y443587D01*
X67819Y447117D01*
X67854Y447649D01*
X67958Y448173D01*
Y451827D01*
X67854Y452351D01*
X67819Y452883D01*
X66874Y456413D01*
X66638Y456892D01*
X66466Y457397D01*
X64639Y460562D01*
X64287Y460963D01*
X63991Y461406D01*
X61406Y463991D01*
X60963Y464287D01*
X60562Y464639D01*
X57397Y466466D01*
X56892Y466637D01*
X56413Y466874D01*
X52883Y467820D01*
X52482Y467846D01*
X52094Y467950D01*
X50267Y468069D01*
X50133Y468052D01*
X50000Y468078D01*
X26088Y468078D01*
X24941Y471000D01*
X24724Y471338D01*
X24578Y471712D01*
X22481Y474981D01*
X22202Y475270D01*
X21985Y475608D01*
X19291Y478406D01*
X18961Y478635D01*
X18683Y478924D01*
X15494Y481142D01*
X15126Y481303D01*
X14796Y481532D01*
X11237Y483086D01*
X10844Y483171D01*
X10476Y483332D01*
X6682Y484161D01*
X6280Y484169D01*
X5888Y484254D01*
X4078Y484288D01*
X4078Y577803D01*
X6078Y578872D01*
X6244Y578761D01*
X8000Y578412D01*
X9756Y578761D01*
X11244Y579756D01*
X12239Y581244D01*
X12588Y583000D01*
X12239Y584756D01*
X11244Y586244D01*
X9756Y587239D01*
X8000Y587588D01*
X6244Y587239D01*
X6078Y587128D01*
X4078Y588197D01*
X4078Y860918D01*
X6364Y861090D01*
X6751Y861198D01*
X7152Y861228D01*
X11052Y862313D01*
X11410Y862494D01*
X11797Y862602D01*
X15411Y864427D01*
X15727Y864674D01*
X16086Y864855D01*
X18566Y866796D01*
X20741Y866659D01*
X20992Y866541D01*
X21141Y866427D01*
X21256Y866256D01*
X22744Y865261D01*
X24500Y864912D01*
X26256Y865261D01*
X27744Y866256D01*
X28739Y867744D01*
X29088Y869500D01*
X28739Y871256D01*
X27744Y872744D01*
X26256Y873739D01*
X26049Y873961D01*
X25634Y874627D01*
X25273Y875858D01*
X25294Y875969D01*
X26265Y878922D01*
X50000D01*
X50133Y878948D01*
X50267Y878931D01*
X52094Y879050D01*
X52482Y879154D01*
X52883Y879181D01*
X56413Y880126D01*
X56891Y880362D01*
X57397Y880534D01*
X60562Y882361D01*
X60963Y882713D01*
X61406Y883009D01*
X63991Y885594D01*
X64287Y886037D01*
X64639Y886438D01*
X66466Y889603D01*
X66638Y890108D01*
X66874Y890587D01*
X67819Y894117D01*
X67854Y894649D01*
X67958Y895173D01*
Y898827D01*
X67854Y899351D01*
X67819Y899883D01*
X66874Y903413D01*
X66638Y903892D01*
X66466Y904397D01*
X64639Y907562D01*
X64287Y907963D01*
X63991Y908406D01*
X61406Y910991D01*
X60963Y911287D01*
X60562Y911639D01*
X57397Y913466D01*
X56892Y913637D01*
X56413Y913874D01*
X52883Y914819D01*
X52482Y914846D01*
X52094Y914950D01*
X50267Y915070D01*
X50133Y915052D01*
X50000Y915078D01*
X26265Y915078D01*
X25266Y918117D01*
X25068Y918467D01*
X24943Y918848D01*
X22952Y922374D01*
X22690Y922678D01*
X22493Y923028D01*
X19852Y926097D01*
X19536Y926345D01*
X19274Y926649D01*
X16086Y929144D01*
X15727Y929325D01*
X15411Y929573D01*
X11797Y931398D01*
X11410Y931506D01*
X11052Y931687D01*
X7152Y932772D01*
X6751Y932802D01*
X6364Y932910D01*
X4078Y933082D01*
X4078Y951818D01*
X6003Y952360D01*
X6724Y951185D01*
X10506Y946756D01*
X14935Y942974D01*
X19900Y939931D01*
X25281Y937702D01*
X30944Y936342D01*
X36750Y935886D01*
X42556Y936342D01*
X48219Y937702D01*
X53600Y939931D01*
X58565Y942974D01*
X62994Y946756D01*
X66776Y951185D01*
X69819Y956150D01*
X72048Y961531D01*
X73407Y967194D01*
X73864Y973000D01*
X73407Y978806D01*
X72048Y984469D01*
X69819Y989850D01*
X66776Y994815D01*
X62994Y999244D01*
X59858Y1001922D01*
X60596Y1003922D01*
X117197D01*
X117629Y1000639D01*
X117716Y1000385D01*
X117733Y1000116D01*
X118918Y995694D01*
X119037Y995453D01*
X119090Y995189D01*
X120842Y990959D01*
X120991Y990735D01*
X121078Y990481D01*
X123367Y986516D01*
X123544Y986314D01*
X123663Y986072D01*
X126450Y982440D01*
X126652Y982263D01*
X126802Y982039D01*
X130039Y978802D01*
X130263Y978652D01*
X130440Y978450D01*
X134072Y975663D01*
X134314Y975544D01*
X134516Y975367D01*
X138481Y973078D01*
X138736Y972991D01*
X138959Y972842D01*
X143189Y971090D01*
X143453Y971037D01*
X143694Y970918D01*
X148116Y969733D01*
X148385Y969716D01*
X148639Y969629D01*
X153179Y969032D01*
X153380Y969045D01*
X153577Y968999D01*
X155867Y968924D01*
X156000Y968946D01*
X156133Y968924D01*
X158422Y968999D01*
X158620Y969045D01*
X158821Y969032D01*
X163361Y969629D01*
X163615Y969716D01*
X163884Y969733D01*
X168306Y970918D01*
X168547Y971037D01*
X168811Y971090D01*
X173041Y972842D01*
X173265Y972991D01*
X173519Y973078D01*
X177484Y975367D01*
X177686Y975544D01*
X177928Y975663D01*
X181560Y978450D01*
X181737Y978652D01*
X181961Y978802D01*
X185198Y982039D01*
X185348Y982263D01*
X185550Y982440D01*
X188337Y986072D01*
X188456Y986314D01*
X188633Y986516D01*
X190922Y990481D01*
X191009Y990735D01*
X191158Y990959D01*
X192910Y995189D01*
X192963Y995453D01*
X193082Y995694D01*
X194267Y1000116D01*
X194284Y1000385D01*
X194371Y1000639D01*
X194803Y1003922D01*
X252904D01*
X253642Y1001922D01*
D02*
G37*
%LPC*%
G36*
X562500Y380088D02*
X560744Y379739D01*
X559256Y378744D01*
X558261Y377256D01*
X557912Y375500D01*
X558261Y373744D01*
X559256Y372256D01*
X560744Y371261D01*
X562500Y370912D01*
X564256Y371261D01*
X565744Y372256D01*
X566739Y373744D01*
X567088Y375500D01*
X566739Y377256D01*
X565744Y378744D01*
X564256Y379739D01*
X562500Y380088D01*
D02*
G37*
G36*
X580500Y373088D02*
X578744Y372739D01*
X577256Y371744D01*
X576261Y370256D01*
X575912Y368500D01*
X576261Y366744D01*
X577256Y365256D01*
X578744Y364261D01*
X580500Y363912D01*
X582256Y364261D01*
X583744Y365256D01*
X584739Y366744D01*
X585088Y368500D01*
X584739Y370256D01*
X583744Y371744D01*
X582256Y372739D01*
X580500Y373088D01*
D02*
G37*
G36*
X480500Y392088D02*
X478744Y391739D01*
X477256Y390744D01*
X476261Y389256D01*
X475912Y387500D01*
X476261Y385744D01*
X477256Y384256D01*
X478744Y383261D01*
X480500Y382912D01*
X482256Y383261D01*
X483744Y384256D01*
X484739Y385744D01*
X485088Y387500D01*
X484739Y389256D01*
X483744Y390744D01*
X482256Y391739D01*
X480500Y392088D01*
D02*
G37*
G36*
X514000Y395588D02*
X512244Y395239D01*
X510756Y394244D01*
X509761Y392756D01*
X509412Y391000D01*
X509761Y389244D01*
X510756Y387756D01*
X512244Y386761D01*
X514000Y386412D01*
X515756Y386761D01*
X517244Y387756D01*
X518239Y389244D01*
X518588Y391000D01*
X518239Y392756D01*
X517244Y394244D01*
X515756Y395239D01*
X514000Y395588D01*
D02*
G37*
G36*
X466000Y382088D02*
X464244Y381739D01*
X462756Y380744D01*
X461761Y379256D01*
X461412Y377500D01*
X461761Y375744D01*
X462756Y374256D01*
X464244Y373261D01*
X466000Y372912D01*
X467756Y373261D01*
X469244Y374256D01*
X470239Y375744D01*
X470588Y377500D01*
X470239Y379256D01*
X469244Y380744D01*
X467756Y381739D01*
X466000Y382088D01*
D02*
G37*
G36*
X412000Y373088D02*
X410244Y372739D01*
X408756Y371744D01*
X407761Y370256D01*
X407412Y368500D01*
X407761Y366744D01*
X408756Y365256D01*
X410244Y364261D01*
X412000Y363912D01*
X413756Y364261D01*
X415244Y365256D01*
X416239Y366744D01*
X416588Y368500D01*
X416239Y370256D01*
X415244Y371744D01*
X413756Y372739D01*
X412000Y373088D01*
D02*
G37*
G36*
X507600Y356005D02*
Y349000D01*
X514605D01*
X514599Y349045D01*
X513617Y351417D01*
X512054Y353454D01*
X510017Y355017D01*
X507645Y355999D01*
X507600Y356005D01*
D02*
G37*
G36*
X496000Y364088D02*
X494244Y363739D01*
X492756Y362744D01*
X491761Y361256D01*
X491412Y359500D01*
X491761Y357744D01*
X492756Y356256D01*
X494244Y355261D01*
X496000Y354912D01*
X497027Y355116D01*
X497834Y353918D01*
X498007Y353272D01*
X496583Y351417D01*
X495601Y349045D01*
X495595Y349000D01*
X502600D01*
Y356005D01*
X502555Y355999D01*
X501066Y355382D01*
X499740Y356998D01*
X500239Y357744D01*
X500588Y359500D01*
X500239Y361256D01*
X499244Y362744D01*
X497756Y363739D01*
X496000Y364088D01*
D02*
G37*
G36*
X450500Y357588D02*
X448744Y357239D01*
X447256Y356244D01*
X446261Y354756D01*
X445912Y353000D01*
X446261Y351244D01*
X447256Y349756D01*
X448744Y348761D01*
X450500Y348412D01*
X452256Y348761D01*
X453744Y349756D01*
X454739Y351244D01*
X455088Y353000D01*
X454739Y354756D01*
X453744Y356244D01*
X452256Y357239D01*
X450500Y357588D01*
D02*
G37*
G36*
X502600Y344000D02*
X495595D01*
X495601Y343955D01*
X496583Y341583D01*
X498146Y339546D01*
X500183Y337983D01*
X502555Y337001D01*
X502600Y336995D01*
Y344000D01*
D02*
G37*
G36*
X581300Y356334D02*
X578755Y355999D01*
X576383Y355017D01*
X574346Y353454D01*
X572783Y351417D01*
X571801Y349045D01*
X571466Y346500D01*
X571801Y343955D01*
X572783Y341583D01*
X574346Y339546D01*
X576383Y337983D01*
X578755Y337001D01*
X581300Y336666D01*
X583845Y337001D01*
X586217Y337983D01*
X588254Y339546D01*
X589817Y341583D01*
X590799Y343955D01*
X591134Y346500D01*
X590799Y349045D01*
X589817Y351417D01*
X588254Y353454D01*
X586217Y355017D01*
X583845Y355999D01*
X581300Y356334D01*
D02*
G37*
G36*
X405500Y354088D02*
X403744Y353739D01*
X402256Y352744D01*
X401261Y351256D01*
X400912Y349500D01*
X401261Y347744D01*
X402256Y346256D01*
X403744Y345261D01*
X405500Y344912D01*
X407256Y345261D01*
X408744Y346256D01*
X409739Y347744D01*
X410088Y349500D01*
X409739Y351256D01*
X408744Y352744D01*
X407256Y353739D01*
X405500Y354088D01*
D02*
G37*
G36*
X514605Y344000D02*
X507600D01*
Y336995D01*
X507645Y337001D01*
X510017Y337983D01*
X512054Y339546D01*
X513617Y341583D01*
X514599Y343955D01*
X514605Y344000D01*
D02*
G37*
G36*
X471000Y360588D02*
X469244Y360239D01*
X467756Y359244D01*
X466761Y357756D01*
X466412Y356000D01*
X466761Y354244D01*
X467756Y352756D01*
X469244Y351761D01*
X471000Y351412D01*
X472756Y351761D01*
X474244Y352756D01*
X475239Y354244D01*
X475588Y356000D01*
X475239Y357756D01*
X474244Y359244D01*
X472756Y360239D01*
X471000Y360588D01*
D02*
G37*
G36*
X387000Y367588D02*
X385244Y367239D01*
X383756Y366244D01*
X382761Y364756D01*
X382412Y363000D01*
X382761Y361244D01*
X383756Y359756D01*
X385244Y358761D01*
X387000Y358412D01*
X388756Y358761D01*
X390244Y359756D01*
X391239Y361244D01*
X391588Y363000D01*
X391239Y364756D01*
X390244Y366244D01*
X388756Y367239D01*
X387000Y367588D01*
D02*
G37*
G36*
X366500D02*
X364744Y367239D01*
X363256Y366244D01*
X362261Y364756D01*
X361912Y363000D01*
X362261Y361244D01*
X363256Y359756D01*
X364744Y358761D01*
X366500Y358412D01*
X368256Y358761D01*
X369744Y359756D01*
X370739Y361244D01*
X371088Y363000D01*
X370739Y364756D01*
X369744Y366244D01*
X368256Y367239D01*
X366500Y367588D01*
D02*
G37*
G36*
X520500Y365588D02*
X518744Y365239D01*
X517256Y364244D01*
X516261Y362756D01*
X515912Y361000D01*
X516261Y359244D01*
X517256Y357756D01*
X518744Y356761D01*
X520500Y356412D01*
X522256Y356761D01*
X523744Y357756D01*
X524739Y359244D01*
X525088Y361000D01*
X524739Y362756D01*
X523744Y364244D01*
X522256Y365239D01*
X520500Y365588D01*
D02*
G37*
G36*
X432000Y364588D02*
X430244Y364239D01*
X428756Y363244D01*
X427761Y361756D01*
X427412Y360000D01*
X427761Y358244D01*
X428756Y356756D01*
X430244Y355761D01*
X432000Y355412D01*
X433756Y355761D01*
X435244Y356756D01*
X436239Y358244D01*
X436588Y360000D01*
X436239Y361756D01*
X435244Y363244D01*
X433756Y364239D01*
X432000Y364588D01*
D02*
G37*
G36*
X200500Y480088D02*
X198744Y479739D01*
X197256Y478744D01*
X196261Y477256D01*
X195912Y475500D01*
X196261Y473744D01*
X197256Y472256D01*
X198744Y471261D01*
X200500Y470912D01*
X202256Y471261D01*
X203744Y472256D01*
X204739Y473744D01*
X205088Y475500D01*
X204739Y477256D01*
X203744Y478744D01*
X202256Y479739D01*
X200500Y480088D01*
D02*
G37*
G36*
X328000Y479088D02*
X326244Y478739D01*
X324756Y477744D01*
X323761Y476256D01*
X323412Y474500D01*
X323761Y472744D01*
X324756Y471256D01*
X326244Y470261D01*
X328000Y469912D01*
X329756Y470261D01*
X331244Y471256D01*
X332239Y472744D01*
X332588Y474500D01*
X332239Y476256D01*
X331244Y477744D01*
X329756Y478739D01*
X328000Y479088D01*
D02*
G37*
G36*
X271500Y491588D02*
X269744Y491239D01*
X268256Y490244D01*
X267261Y488756D01*
X266912Y487000D01*
X267261Y485244D01*
X268256Y483756D01*
X269744Y482761D01*
X271500Y482412D01*
X273256Y482761D01*
X274744Y483756D01*
X274957Y484074D01*
X277080Y483652D01*
X277261Y482744D01*
X278256Y481256D01*
X279744Y480261D01*
X281500Y479912D01*
X283256Y480261D01*
X284744Y481256D01*
X285739Y482744D01*
X286088Y484500D01*
X285739Y486256D01*
X284744Y487744D01*
X283256Y488739D01*
X281500Y489088D01*
X279744Y488739D01*
X278256Y487744D01*
X278043Y487425D01*
X275919Y487848D01*
X275739Y488756D01*
X274744Y490244D01*
X273256Y491239D01*
X271500Y491588D01*
D02*
G37*
G36*
X546500Y477588D02*
X544744Y477239D01*
X543256Y476244D01*
X542261Y474756D01*
X541912Y473000D01*
X542261Y471244D01*
X543256Y469756D01*
X544744Y468761D01*
X546500Y468412D01*
X548256Y468761D01*
X549744Y469756D01*
X550739Y471244D01*
X551088Y473000D01*
X550739Y474756D01*
X549744Y476244D01*
X548256Y477239D01*
X546500Y477588D01*
D02*
G37*
G36*
X215500Y474088D02*
X213744Y473739D01*
X212256Y472744D01*
X211261Y471256D01*
X210912Y469500D01*
X211261Y467744D01*
X212256Y466256D01*
X213744Y465261D01*
X215500Y464912D01*
X217256Y465261D01*
X218744Y466256D01*
X219739Y467744D01*
X220088Y469500D01*
X219739Y471256D01*
X218744Y472744D01*
X217256Y473739D01*
X215500Y474088D01*
D02*
G37*
G36*
X254500Y473088D02*
X252744Y472739D01*
X251256Y471744D01*
X250261Y470256D01*
X249912Y468500D01*
X250261Y466744D01*
X251256Y465256D01*
X252744Y464261D01*
X254500Y463912D01*
X256256Y464261D01*
X257744Y465256D01*
X258739Y466744D01*
X259088Y468500D01*
X258739Y470256D01*
X257744Y471744D01*
X256256Y472739D01*
X254500Y473088D01*
D02*
G37*
G36*
X282500Y477088D02*
X280744Y476739D01*
X279256Y475744D01*
X278261Y474256D01*
X277912Y472500D01*
X278261Y470744D01*
X279256Y469256D01*
X280744Y468261D01*
X282500Y467912D01*
X284256Y468261D01*
X285744Y469256D01*
X286739Y470744D01*
X287088Y472500D01*
X286739Y474256D01*
X285744Y475744D01*
X284256Y476739D01*
X282500Y477088D01*
D02*
G37*
G36*
X188000Y475588D02*
X186244Y475239D01*
X184756Y474244D01*
X183761Y472756D01*
X183412Y471000D01*
X183761Y469244D01*
X184756Y467756D01*
X186244Y466761D01*
X188000Y466412D01*
X189756Y466761D01*
X191244Y467756D01*
X192239Y469244D01*
X192588Y471000D01*
X192239Y472756D01*
X191244Y474244D01*
X189756Y475239D01*
X188000Y475588D01*
D02*
G37*
G36*
X316100Y489088D02*
X314344Y488739D01*
X312856Y487744D01*
X311861Y486256D01*
X311512Y484500D01*
X311861Y482744D01*
X312856Y481256D01*
X314344Y480261D01*
X316100Y479912D01*
X317856Y480261D01*
X319344Y481256D01*
X320339Y482744D01*
X320688Y484500D01*
X320339Y486256D01*
X319344Y487744D01*
X317856Y488739D01*
X316100Y489088D01*
D02*
G37*
G36*
X281000Y502588D02*
X279244Y502239D01*
X277756Y501244D01*
X276761Y499756D01*
X276412Y498000D01*
X276761Y496244D01*
X277756Y494756D01*
X279244Y493761D01*
X281000Y493412D01*
X282756Y493761D01*
X284244Y494756D01*
X285239Y496244D01*
X285588Y498000D01*
X285239Y499756D01*
X284244Y501244D01*
X282756Y502239D01*
X281000Y502588D01*
D02*
G37*
G36*
X274000Y512588D02*
X272244Y512239D01*
X270756Y511244D01*
X269761Y509756D01*
X269412Y508000D01*
X269761Y506244D01*
X270756Y504756D01*
X272244Y503761D01*
X274000Y503412D01*
X275756Y503761D01*
X277244Y504756D01*
X278239Y506244D01*
X278588Y508000D01*
X278239Y509756D01*
X277244Y511244D01*
X275756Y512239D01*
X274000Y512588D01*
D02*
G37*
G36*
X309000Y512088D02*
X307244Y511739D01*
X305756Y510744D01*
X304761Y509256D01*
X304412Y507500D01*
X304761Y505744D01*
X305756Y504256D01*
X307244Y503261D01*
X309000Y502912D01*
X310756Y503261D01*
X312244Y504256D01*
X313239Y505744D01*
X313588Y507500D01*
X313239Y509256D01*
X312244Y510744D01*
X310756Y511739D01*
X309000Y512088D01*
D02*
G37*
G36*
X246000Y496088D02*
X244244Y495739D01*
X242756Y494744D01*
X241761Y493256D01*
X241412Y491500D01*
X241761Y489744D01*
X242756Y488256D01*
X244244Y487261D01*
X246000Y486912D01*
X247756Y487261D01*
X249244Y488256D01*
X250239Y489744D01*
X250588Y491500D01*
X250239Y493256D01*
X249244Y494744D01*
X247756Y495739D01*
X246000Y496088D01*
D02*
G37*
G36*
X159500Y486587D02*
X157744Y486238D01*
X156255Y485243D01*
X155261Y483755D01*
X155216Y483530D01*
X154824Y482003D01*
X153043Y482079D01*
X153000Y482087D01*
X152956Y482079D01*
X151176Y482003D01*
X150783Y483530D01*
X150739Y483755D01*
X149744Y485243D01*
X148256Y486238D01*
X146500Y486587D01*
X144744Y486238D01*
X143255Y485243D01*
X142261Y483755D01*
X141911Y481999D01*
X140200Y482088D01*
X138444Y481739D01*
X136956Y480744D01*
X135961Y479256D01*
X135612Y477500D01*
X135961Y475744D01*
X136956Y474256D01*
X138444Y473261D01*
X140200Y472912D01*
X141956Y473261D01*
X143444Y474256D01*
X144439Y475744D01*
X144788Y477500D01*
X146500Y477411D01*
X146543Y477420D01*
X148324Y477495D01*
X148716Y475968D01*
X148761Y475743D01*
X149755Y474255D01*
X151244Y473260D01*
X153000Y472911D01*
X154755Y473260D01*
X156244Y474255D01*
X157239Y475743D01*
X157283Y475968D01*
X157676Y477495D01*
X159456Y477420D01*
X159500Y477411D01*
X159543Y477420D01*
X161324Y477495D01*
X161716Y475968D01*
X161761Y475743D01*
X162755Y474255D01*
X164066Y473379D01*
X164244Y473260D01*
X165979Y472915D01*
X166004Y472906D01*
X167547Y471180D01*
X167412Y470500D01*
X167761Y468744D01*
X168756Y467256D01*
X170244Y466261D01*
X172000Y465912D01*
X173756Y466261D01*
X175244Y467256D01*
X176239Y468744D01*
X176588Y470500D01*
X176239Y472256D01*
X175244Y473744D01*
X173934Y474620D01*
X173756Y474739D01*
X172020Y475084D01*
X171995Y475093D01*
X170453Y476820D01*
X170588Y477499D01*
X170239Y479255D01*
X169244Y480743D01*
X167756Y481738D01*
X166000Y482087D01*
X165956Y482079D01*
X164176Y482003D01*
X163783Y483530D01*
X163739Y483755D01*
X162744Y485243D01*
X161255Y486238D01*
X159500Y486587D01*
D02*
G37*
G36*
X126450Y498588D02*
X124694Y498239D01*
X123206Y497244D01*
X122211Y495756D01*
X121862Y494000D01*
X122211Y492244D01*
X123206Y490756D01*
X124694Y489761D01*
X126450Y489412D01*
X128206Y489761D01*
X129694Y490756D01*
X130689Y492244D01*
X131038Y494000D01*
X130689Y495756D01*
X129694Y497244D01*
X128206Y498239D01*
X126450Y498588D01*
D02*
G37*
G36*
X335500Y496588D02*
X333744Y496239D01*
X332256Y495244D01*
X331261Y493756D01*
X330912Y492000D01*
X331261Y490244D01*
X332256Y488756D01*
X333744Y487761D01*
X335500Y487412D01*
X337256Y487761D01*
X338744Y488756D01*
X339739Y490244D01*
X340088Y492000D01*
X339739Y493756D01*
X338744Y495244D01*
X337256Y496239D01*
X335500Y496588D01*
D02*
G37*
G36*
X275000Y468588D02*
X273244Y468239D01*
X271756Y467244D01*
X270761Y465756D01*
X270412Y464000D01*
X270761Y462244D01*
X271756Y460756D01*
X273244Y459761D01*
X275000Y459412D01*
X276756Y459761D01*
X278244Y460756D01*
X279239Y462244D01*
X279588Y464000D01*
X279239Y465756D01*
X278244Y467244D01*
X276756Y468239D01*
X275000Y468588D01*
D02*
G37*
G36*
X550500Y399088D02*
X548744Y398739D01*
X547256Y397744D01*
X546261Y396256D01*
X545912Y394500D01*
X546261Y392744D01*
X547256Y391256D01*
X548744Y390261D01*
X550500Y389912D01*
X552256Y390261D01*
X553744Y391256D01*
X554739Y392744D01*
X555088Y394500D01*
X554739Y396256D01*
X553744Y397744D01*
X552256Y398739D01*
X550500Y399088D01*
D02*
G37*
G36*
X536500Y456088D02*
X534744Y455739D01*
X533256Y454744D01*
X532261Y453256D01*
X531912Y451500D01*
X532261Y449744D01*
X533256Y448256D01*
X534744Y447261D01*
X536500Y446912D01*
X538256Y447261D01*
X539744Y448256D01*
X540739Y449744D01*
X541088Y451500D01*
X540739Y453256D01*
X539744Y454744D01*
X538256Y455739D01*
X536500Y456088D01*
D02*
G37*
G36*
X427750Y481597D02*
X422807Y481208D01*
X417986Y480051D01*
X413405Y478153D01*
X409178Y475563D01*
X405407Y472343D01*
X402187Y468573D01*
X399596Y464345D01*
X397699Y459764D01*
X396542Y454943D01*
X396153Y450000D01*
X396542Y445057D01*
X397699Y440236D01*
X399596Y435655D01*
X402187Y431427D01*
X405407Y427657D01*
X409178Y424437D01*
X413405Y421847D01*
X417986Y419949D01*
X422807Y418792D01*
X427750Y418403D01*
X432693Y418792D01*
X437514Y419949D01*
X442095Y421847D01*
X446323Y424437D01*
X450093Y427657D01*
X453313Y431427D01*
X455904Y435655D01*
X457801Y440236D01*
X458958Y445057D01*
X459347Y450000D01*
X458958Y454943D01*
X457801Y459764D01*
X455904Y464345D01*
X453313Y468573D01*
X450093Y472343D01*
X446323Y475563D01*
X442095Y478153D01*
X437514Y480051D01*
X432693Y481208D01*
X427750Y481597D01*
D02*
G37*
G36*
X561500Y429588D02*
X559744Y429239D01*
X558256Y428244D01*
X557261Y426756D01*
X556912Y425000D01*
X557261Y423244D01*
X558256Y421756D01*
X559744Y420761D01*
X561500Y420412D01*
X563256Y420761D01*
X564744Y421756D01*
X565739Y423244D01*
X566088Y425000D01*
X565739Y426756D01*
X564744Y428244D01*
X563256Y429239D01*
X561500Y429588D01*
D02*
G37*
G36*
X555900Y356334D02*
X553355Y355999D01*
X550983Y355017D01*
X548946Y353454D01*
X547383Y351417D01*
X546401Y349045D01*
X546066Y346500D01*
X546401Y343955D01*
X547383Y341583D01*
X548946Y339546D01*
X550983Y337983D01*
X553355Y337001D01*
X555900Y336666D01*
X558445Y337001D01*
X560817Y337983D01*
X562854Y339546D01*
X564417Y341583D01*
X565399Y343955D01*
X565734Y346500D01*
X565399Y349045D01*
X564417Y351417D01*
X562854Y353454D01*
X560817Y355017D01*
X558445Y355999D01*
X555900Y356334D01*
D02*
G37*
G36*
X366000Y201088D02*
X364244Y200739D01*
X362756Y199744D01*
X361761Y198256D01*
X361412Y196500D01*
X361761Y194744D01*
X361912Y194518D01*
X361663Y192288D01*
X361360Y192019D01*
X359675Y190725D01*
X358152Y188741D01*
X357195Y186430D01*
X356868Y183950D01*
X357195Y181470D01*
X358152Y179159D01*
X359675Y177175D01*
X361659Y175652D01*
X363970Y174694D01*
X366450Y174368D01*
X368930Y174694D01*
X371241Y175652D01*
X373226Y177175D01*
X374748Y179159D01*
X375705Y181470D01*
X376032Y183950D01*
X375705Y186430D01*
X374748Y188741D01*
X373226Y190725D01*
X371241Y192248D01*
X371034Y192334D01*
X370239Y194744D01*
X370588Y196500D01*
X370239Y198256D01*
X369244Y199744D01*
X367756Y200739D01*
X366000Y201088D01*
D02*
G37*
G36*
X177000Y177588D02*
X175244Y177239D01*
X173756Y176244D01*
X172761Y174756D01*
X172412Y173000D01*
X172556Y172274D01*
X170756Y171072D01*
X170506Y171239D01*
X168750Y171588D01*
X166994Y171239D01*
X165506Y170244D01*
X164511Y168756D01*
X164162Y167000D01*
X164511Y165244D01*
X165506Y163756D01*
X166994Y162761D01*
X168750Y162412D01*
X170506Y162761D01*
X171994Y163756D01*
X172989Y165244D01*
X173338Y167000D01*
X173194Y167726D01*
X174994Y168928D01*
X175244Y168761D01*
X177000Y168412D01*
X178756Y168761D01*
X180244Y169756D01*
X181239Y171244D01*
X181588Y173000D01*
X181239Y174756D01*
X180244Y176244D01*
X178756Y177239D01*
X177000Y177588D01*
D02*
G37*
G36*
X430850Y180588D02*
X429094Y180239D01*
X427982Y179496D01*
X426675Y179349D01*
X425368Y179496D01*
X424256Y180239D01*
X422500Y180588D01*
X420744Y180239D01*
X419256Y179244D01*
X418261Y177756D01*
X417912Y176000D01*
X418261Y174244D01*
X419256Y172756D01*
X420744Y171761D01*
X422500Y171412D01*
X424256Y171761D01*
X425368Y172504D01*
X426675Y172651D01*
X427982Y172504D01*
X429094Y171761D01*
X430850Y171412D01*
X432606Y171761D01*
X434094Y172756D01*
X435089Y174244D01*
X435438Y176000D01*
X435089Y177756D01*
X434094Y179244D01*
X432606Y180239D01*
X430850Y180588D01*
D02*
G37*
G36*
X404050D02*
X402294Y180239D01*
X400806Y179244D01*
X400728Y179128D01*
X398322D01*
X398244Y179244D01*
X396756Y180239D01*
X395000Y180588D01*
X393244Y180239D01*
X391756Y179244D01*
X389494D01*
X388006Y180239D01*
X386250Y180588D01*
X384494Y180239D01*
X383006Y179244D01*
X382011Y177756D01*
X381662Y176000D01*
X382011Y174244D01*
X383006Y172756D01*
X384494Y171761D01*
X386250Y171412D01*
X388006Y171761D01*
X389494Y172756D01*
X391756D01*
X393244Y171761D01*
X395000Y171412D01*
X396756Y171761D01*
X398244Y172756D01*
X398322Y172872D01*
X400728D01*
X400806Y172756D01*
X402294Y171761D01*
X404050Y171412D01*
X405806Y171761D01*
X407294Y172756D01*
X408289Y174244D01*
X408638Y176000D01*
X408289Y177756D01*
X407294Y179244D01*
X405806Y180239D01*
X404050Y180588D01*
D02*
G37*
G36*
X126000Y174088D02*
X124244Y173739D01*
X122756Y172744D01*
X121761Y171256D01*
X121412Y169500D01*
X121761Y167744D01*
X122756Y166256D01*
X124244Y165261D01*
X126000Y164912D01*
X127756Y165261D01*
X129244Y166256D01*
X130239Y167744D01*
X130588Y169500D01*
X130239Y171256D01*
X129244Y172744D01*
X127756Y173739D01*
X126000Y174088D01*
D02*
G37*
G36*
X436500Y151088D02*
X434744Y150739D01*
X433256Y149744D01*
X432261Y148256D01*
X431912Y146500D01*
X432261Y144744D01*
X433256Y143256D01*
X434744Y142261D01*
X436500Y141912D01*
X438256Y142261D01*
X439744Y143256D01*
X440739Y144744D01*
X441088Y146500D01*
X440739Y148256D01*
X439744Y149744D01*
X438256Y150739D01*
X436500Y151088D01*
D02*
G37*
G36*
X388500Y150588D02*
X386744Y150239D01*
X385256Y149244D01*
X384261Y147756D01*
X383912Y146000D01*
X384261Y144244D01*
X385256Y142756D01*
X386744Y141761D01*
X388500Y141412D01*
X390256Y141761D01*
X391744Y142756D01*
X392739Y144244D01*
X393088Y146000D01*
X392739Y147756D01*
X391744Y149244D01*
X390256Y150239D01*
X388500Y150588D01*
D02*
G37*
G36*
X143250Y171588D02*
X141494Y171239D01*
X140006Y170244D01*
X139011Y168756D01*
X138662Y167000D01*
X139011Y165244D01*
X140006Y163756D01*
X141494Y162761D01*
X143250Y162412D01*
X145006Y162761D01*
X146494Y163756D01*
X147489Y165244D01*
X147838Y167000D01*
X147489Y168756D01*
X146494Y170244D01*
X145006Y171239D01*
X143250Y171588D01*
D02*
G37*
G36*
X306500Y190588D02*
X304744Y190239D01*
X303256Y189244D01*
X302261Y187756D01*
X301912Y186000D01*
X302261Y184244D01*
X303256Y182756D01*
X304744Y181761D01*
X306500Y181412D01*
X308256Y181761D01*
X309744Y182756D01*
X310739Y184244D01*
X311088Y186000D01*
X310739Y187756D01*
X309744Y189244D01*
X308256Y190239D01*
X306500Y190588D01*
D02*
G37*
G36*
X257750Y277114D02*
X251944Y276658D01*
X246281Y275298D01*
X240900Y273069D01*
X235935Y270026D01*
X231506Y266244D01*
X227724Y261815D01*
X224681Y256850D01*
X222452Y251469D01*
X221092Y245806D01*
X220636Y240000D01*
X221092Y234194D01*
X222452Y228531D01*
X224681Y223150D01*
X227724Y218185D01*
X231506Y213756D01*
X235935Y209974D01*
X240900Y206931D01*
X246281Y204702D01*
X251944Y203342D01*
X257750Y202886D01*
X263556Y203342D01*
X269219Y204702D01*
X274600Y206931D01*
X279565Y209974D01*
X283994Y213756D01*
X287776Y218185D01*
X290819Y223150D01*
X293048Y228531D01*
X294407Y234194D01*
X294864Y240000D01*
X294407Y245806D01*
X293048Y251469D01*
X290819Y256850D01*
X287776Y261815D01*
X283994Y266244D01*
X279565Y270026D01*
X274600Y273069D01*
X269219Y275298D01*
X263556Y276658D01*
X257750Y277114D01*
D02*
G37*
G36*
X173500Y211588D02*
X171744Y211239D01*
X170256Y210244D01*
X169261Y208756D01*
X168912Y207000D01*
X169261Y205244D01*
X170256Y203756D01*
X171744Y202761D01*
X173500Y202412D01*
X175256Y202761D01*
X176744Y203756D01*
X177739Y205244D01*
X178088Y207000D01*
X177739Y208756D01*
X176744Y210244D01*
X175256Y211239D01*
X173500Y211588D01*
D02*
G37*
G36*
X313500Y225138D02*
X311744Y224789D01*
X310256Y223794D01*
X309261Y222306D01*
X308912Y220550D01*
X309261Y218794D01*
X310256Y217306D01*
X311744Y216311D01*
X313500Y215962D01*
X315256Y216311D01*
X316744Y217306D01*
X317739Y218794D01*
X318088Y220550D01*
X317739Y222306D01*
X316744Y223794D01*
X315256Y224789D01*
X313500Y225138D01*
D02*
G37*
G36*
X584450Y226058D02*
X575950D01*
X574188Y225826D01*
X572546Y225146D01*
X571136Y224064D01*
X570054Y222654D01*
X569374Y221012D01*
X569142Y219250D01*
X569374Y217488D01*
X570054Y215846D01*
X571136Y214436D01*
X572546Y213354D01*
X574188Y212674D01*
X575950Y212442D01*
X584450D01*
X586212Y212674D01*
X587854Y213354D01*
X589264Y214436D01*
X590346Y215846D01*
X591026Y217488D01*
X591258Y219250D01*
X591026Y221012D01*
X590346Y222654D01*
X589264Y224064D01*
X587854Y225146D01*
X586212Y225826D01*
X584450Y226058D01*
D02*
G37*
G36*
X467000Y209088D02*
X465244Y208739D01*
X463756Y207744D01*
X462761Y206256D01*
X462412Y204500D01*
X462761Y202744D01*
X463756Y201256D01*
X465244Y200261D01*
X467000Y199912D01*
X468756Y200261D01*
X470244Y201256D01*
X471239Y202744D01*
X471588Y204500D01*
X471239Y206256D01*
X470244Y207744D01*
X468756Y208739D01*
X467000Y209088D01*
D02*
G37*
G36*
X570500Y195088D02*
X568744Y194739D01*
X567256Y193744D01*
X566261Y192256D01*
X565912Y190500D01*
X566261Y188744D01*
X567256Y187256D01*
X568744Y186261D01*
X570500Y185912D01*
X572256Y186261D01*
X573744Y187256D01*
X574739Y188744D01*
X575088Y190500D01*
X574739Y192256D01*
X573744Y193744D01*
X572256Y194739D01*
X570500Y195088D01*
D02*
G37*
G36*
X166500Y194588D02*
X164744Y194239D01*
X163256Y193244D01*
X162261Y191756D01*
X161912Y190000D01*
X162261Y188244D01*
X163256Y186756D01*
X164744Y185761D01*
X166500Y185412D01*
X168256Y185761D01*
X169744Y186756D01*
X170739Y188244D01*
X171088Y190000D01*
X170739Y191756D01*
X169744Y193244D01*
X168256Y194239D01*
X166500Y194588D01*
D02*
G37*
G36*
X560950Y202088D02*
X559194Y201739D01*
X557706Y200744D01*
X556711Y199256D01*
X556362Y197500D01*
X556711Y195744D01*
X557706Y194256D01*
X559194Y193261D01*
X560950Y192912D01*
X562706Y193261D01*
X564194Y194256D01*
X565189Y195744D01*
X565538Y197500D01*
X565189Y199256D01*
X564194Y200744D01*
X562706Y201739D01*
X560950Y202088D01*
D02*
G37*
G36*
X223500Y198088D02*
X221744Y197739D01*
X220256Y196744D01*
X219261Y195256D01*
X218912Y193500D01*
X219261Y191744D01*
X220256Y190256D01*
X221744Y189261D01*
X223500Y188912D01*
X225256Y189261D01*
X226744Y190256D01*
X227739Y191744D01*
X228088Y193500D01*
X227739Y195256D01*
X226744Y196744D01*
X225256Y197739D01*
X223500Y198088D01*
D02*
G37*
G36*
X252000Y149588D02*
X250244Y149239D01*
X248756Y148244D01*
X247761Y146756D01*
X247412Y145000D01*
X247761Y143244D01*
X248756Y141756D01*
X250244Y140761D01*
X252000Y140412D01*
X253756Y140761D01*
X255244Y141756D01*
X256239Y143244D01*
X256588Y145000D01*
X256239Y146756D01*
X255244Y148244D01*
X253756Y149239D01*
X252000Y149588D01*
D02*
G37*
G36*
X143400Y114838D02*
X141644Y114489D01*
X140156Y113494D01*
X139161Y112006D01*
X138812Y110250D01*
X139161Y108494D01*
X140156Y107006D01*
X141644Y106011D01*
X143400Y105662D01*
X145156Y106011D01*
X146644Y107006D01*
X147639Y108494D01*
X147988Y110250D01*
X147639Y112006D01*
X146644Y113494D01*
X145156Y114489D01*
X143400Y114838D01*
D02*
G37*
G36*
X194200D02*
X192444Y114489D01*
X190956Y113494D01*
X189961Y112006D01*
X189612Y110250D01*
X189961Y108494D01*
X190956Y107006D01*
X192444Y106011D01*
X194200Y105662D01*
X195956Y106011D01*
X197444Y107006D01*
X198439Y108494D01*
X198788Y110250D01*
X198439Y112006D01*
X197444Y113494D01*
X195956Y114489D01*
X194200Y114838D01*
D02*
G37*
G36*
X168800D02*
X167044Y114489D01*
X165556Y113494D01*
X164561Y112006D01*
X164212Y110250D01*
X164561Y108494D01*
X165556Y107006D01*
X167044Y106011D01*
X168800Y105662D01*
X170556Y106011D01*
X172044Y107006D01*
X173039Y108494D01*
X173388Y110250D01*
X173039Y112006D01*
X172044Y113494D01*
X170556Y114489D01*
X168800Y114838D01*
D02*
G37*
G36*
X433950Y82588D02*
X432194Y82239D01*
X430706Y81244D01*
X429711Y79756D01*
X429362Y78000D01*
X429711Y76244D01*
X430706Y74756D01*
X432194Y73761D01*
X433950Y73412D01*
X435706Y73761D01*
X437194Y74756D01*
X438189Y76244D01*
X438538Y78000D01*
X438189Y79756D01*
X437194Y81244D01*
X435706Y82239D01*
X433950Y82588D01*
D02*
G37*
G36*
X145000Y60588D02*
X143244Y60239D01*
X141756Y59244D01*
X140761Y57756D01*
X140412Y56000D01*
X140761Y54244D01*
X141756Y52756D01*
X143244Y51761D01*
X145000Y51412D01*
X146756Y51761D01*
X148244Y52756D01*
X149239Y54244D01*
X149588Y56000D01*
X149239Y57756D01*
X148244Y59244D01*
X146756Y60239D01*
X145000Y60588D01*
D02*
G37*
G36*
X214200Y56588D02*
X212444Y56239D01*
X210956Y55244D01*
X209961Y53756D01*
X209612Y52000D01*
X209961Y50244D01*
X210956Y48756D01*
X212444Y47761D01*
X214200Y47412D01*
X215956Y47761D01*
X217444Y48756D01*
X218439Y50244D01*
X218788Y52000D01*
X218439Y53756D01*
X217444Y55244D01*
X215956Y56239D01*
X214200Y56588D01*
D02*
G37*
G36*
X344500Y77588D02*
X342744Y77239D01*
X341256Y76244D01*
X340261Y74756D01*
X339912Y73000D01*
X340261Y71244D01*
X341256Y69756D01*
X342744Y68761D01*
X344500Y68412D01*
X346256Y68761D01*
X347744Y69756D01*
X348739Y71244D01*
X349088Y73000D01*
X348739Y74756D01*
X347744Y76244D01*
X346256Y77239D01*
X344500Y77588D01*
D02*
G37*
G36*
X266950Y116088D02*
X265194Y115739D01*
X263706Y114744D01*
X262711Y113256D01*
X262362Y111500D01*
X262711Y109744D01*
X263706Y108256D01*
X265194Y107261D01*
X266950Y106912D01*
X268706Y107261D01*
X270194Y108256D01*
X271189Y109744D01*
X271538Y111500D01*
X271189Y113256D01*
X270194Y114744D01*
X268706Y115739D01*
X266950Y116088D01*
D02*
G37*
G36*
X327000Y137088D02*
X325244Y136739D01*
X323756Y135744D01*
X322761Y134256D01*
X322412Y132500D01*
X322761Y130744D01*
X323756Y129256D01*
X325244Y128261D01*
X327000Y127912D01*
X328756Y128261D01*
X330244Y129256D01*
X331239Y130744D01*
X331588Y132500D01*
X331239Y134256D01*
X330244Y135744D01*
X328756Y136739D01*
X327000Y137088D01*
D02*
G37*
G36*
X199500Y131588D02*
X197744Y131239D01*
X196256Y130244D01*
X195261Y128756D01*
X194912Y127000D01*
X195261Y125244D01*
X196256Y123756D01*
X197744Y122761D01*
X199500Y122412D01*
X201256Y122761D01*
X202744Y123756D01*
X203739Y125244D01*
X204088Y127000D01*
X203739Y128756D01*
X202744Y130244D01*
X201256Y131239D01*
X199500Y131588D01*
D02*
G37*
G36*
X527000Y145088D02*
X525244Y144739D01*
X523756Y143744D01*
X522761Y142256D01*
X522412Y140500D01*
X522761Y138744D01*
X523756Y137256D01*
X525244Y136261D01*
X527000Y135912D01*
X528756Y136261D01*
X530244Y137256D01*
X531239Y138744D01*
X531588Y140500D01*
X531239Y142256D01*
X530244Y143744D01*
X528756Y144739D01*
X527000Y145088D01*
D02*
G37*
G36*
X479000Y138588D02*
X477244Y138239D01*
X475756Y137244D01*
X474761Y135756D01*
X474412Y134000D01*
X474761Y132244D01*
X475756Y130756D01*
X477244Y129761D01*
X479000Y129412D01*
X480756Y129761D01*
X482244Y130756D01*
X483239Y132244D01*
X483588Y134000D01*
X483239Y135756D01*
X482244Y137244D01*
X480756Y138239D01*
X479000Y138588D01*
D02*
G37*
G36*
X125500Y125088D02*
X123744Y124739D01*
X122256Y123744D01*
X121261Y122256D01*
X120912Y120500D01*
X121261Y118744D01*
X122256Y117256D01*
X123744Y116261D01*
X125500Y115912D01*
X127256Y116261D01*
X128744Y117256D01*
X129739Y118744D01*
X130088Y120500D01*
X129739Y122256D01*
X128744Y123744D01*
X127256Y124739D01*
X125500Y125088D01*
D02*
G37*
G36*
X217000Y122588D02*
X215244Y122239D01*
X213756Y121244D01*
X212761Y119756D01*
X212412Y118000D01*
X212761Y116244D01*
X213756Y114756D01*
X215244Y113761D01*
X217000Y113412D01*
X218756Y113761D01*
X220244Y114756D01*
X221239Y116244D01*
X221588Y118000D01*
X221239Y119756D01*
X220244Y121244D01*
X218756Y122239D01*
X217000Y122588D01*
D02*
G37*
G36*
X404000Y124588D02*
X402244Y124239D01*
X400756Y123244D01*
X399761Y121756D01*
X399412Y120000D01*
X399761Y118244D01*
X400756Y116756D01*
X402244Y115761D01*
X404000Y115412D01*
X405756Y115761D01*
X407244Y116756D01*
X408239Y118244D01*
X408588Y120000D01*
X408239Y121756D01*
X407244Y123244D01*
X405756Y124239D01*
X404000Y124588D01*
D02*
G37*
G36*
X236500Y124088D02*
X234744Y123739D01*
X233256Y122744D01*
X232261Y121256D01*
X231912Y119500D01*
X232261Y117744D01*
X233256Y116256D01*
X234744Y115261D01*
X236500Y114912D01*
X238256Y115261D01*
X239744Y116256D01*
X240739Y117744D01*
X241088Y119500D01*
X240739Y121256D01*
X239744Y122744D01*
X238256Y123739D01*
X236500Y124088D01*
D02*
G37*
G36*
X511450Y234088D02*
X509694Y233739D01*
X508206Y232744D01*
X507211Y231256D01*
X506862Y229500D01*
X507211Y227744D01*
X507733Y226963D01*
X507261Y226256D01*
X506912Y224500D01*
X507261Y222744D01*
X507733Y222037D01*
X507211Y221256D01*
X506862Y219500D01*
X507073Y218436D01*
X505800Y216530D01*
X504750Y216613D01*
X499404Y216192D01*
X498652Y217031D01*
X498227Y218028D01*
X498739Y218794D01*
X499088Y220550D01*
X498739Y222306D01*
X497744Y223794D01*
X496256Y224789D01*
X494500Y225138D01*
X492744Y224789D01*
X491676Y224075D01*
X491239Y224256D01*
X490244Y225744D01*
X488756Y226739D01*
X487000Y227088D01*
X485244Y226739D01*
X483756Y225744D01*
X482761Y224256D01*
X482412Y222500D01*
X482761Y220744D01*
X483756Y219256D01*
X485244Y218261D01*
X487000Y217912D01*
X488756Y218261D01*
X489824Y218975D01*
X490261Y218794D01*
X491256Y217306D01*
X492386Y216551D01*
X492506Y215184D01*
X492332Y214364D01*
X488128Y212622D01*
X483229Y209620D01*
X478861Y205889D01*
X475130Y201521D01*
X472128Y196622D01*
X469929Y191314D01*
X468938Y187186D01*
X466756Y186239D01*
X465000Y186588D01*
X463244Y186239D01*
X461756Y185244D01*
X460850Y183890D01*
X460831Y183860D01*
X460490Y183723D01*
X459817Y183642D01*
X458556Y184075D01*
X458306Y185980D01*
X457348Y188291D01*
X455826Y190275D01*
X453841Y191798D01*
X451530Y192755D01*
X449050Y193082D01*
X446570Y192755D01*
X446218Y192610D01*
X444892Y194225D01*
X445239Y194744D01*
X445588Y196500D01*
X445239Y198256D01*
X444244Y199744D01*
X442756Y200739D01*
X441000Y201088D01*
X439244Y200739D01*
X437756Y199744D01*
X436761Y198256D01*
X436412Y196500D01*
X436761Y194744D01*
X437756Y193256D01*
X439244Y192261D01*
X441000Y191912D01*
X441164Y191945D01*
X441975Y190726D01*
X442139Y190099D01*
X440752Y188291D01*
X439795Y185980D01*
X439468Y183500D01*
X439795Y181020D01*
X440752Y178709D01*
X442275Y176724D01*
X444259Y175202D01*
X446570Y174244D01*
X449050Y173918D01*
X451530Y174244D01*
X453841Y175202D01*
X455826Y176724D01*
X457348Y178709D01*
X458272Y180938D01*
X458306Y181020D01*
X458533Y181192D01*
X460739Y180353D01*
X460761Y180244D01*
X461756Y178756D01*
X463244Y177761D01*
X465000Y177412D01*
X466314Y177673D01*
X468402Y176639D01*
X468588Y174272D01*
X469929Y168686D01*
X472128Y163378D01*
X475130Y158479D01*
X478861Y154111D01*
X483229Y150380D01*
X488128Y147378D01*
X493436Y145179D01*
X499022Y143838D01*
X504750Y143387D01*
X510477Y143838D01*
X516064Y145179D01*
X521372Y147378D01*
X526270Y150380D01*
X530639Y154111D01*
X534370Y158479D01*
X537372Y163378D01*
X539571Y168686D01*
X540912Y174272D01*
X541363Y180000D01*
X540912Y185728D01*
X540689Y186657D01*
X540756Y186761D01*
X542244Y187756D01*
X543239Y189244D01*
X543588Y191000D01*
X543239Y192756D01*
X542244Y194244D01*
X541261Y194901D01*
X540745Y195432D01*
X540643Y197301D01*
X540939Y197744D01*
X541288Y199500D01*
X540939Y201256D01*
X539944Y202744D01*
X538456Y203739D01*
X536700Y204088D01*
X534944Y203739D01*
X533456Y202744D01*
X533331Y202737D01*
X530639Y205889D01*
X526270Y209620D01*
X521372Y212622D01*
X517155Y214369D01*
X516492Y216587D01*
X516534Y216763D01*
X517160Y217642D01*
X517756Y217761D01*
X519244Y218756D01*
X520239Y220244D01*
X520588Y222000D01*
X520239Y223756D01*
X519742Y224500D01*
X520239Y225244D01*
X520588Y227000D01*
X520239Y228756D01*
X519244Y230244D01*
X517756Y231239D01*
X516000Y231588D01*
X515529Y231495D01*
X514694Y232744D01*
X513206Y233739D01*
X511450Y234088D01*
D02*
G37*
G36*
X417000Y321038D02*
X415244Y320689D01*
X413756Y319694D01*
X412761Y318206D01*
X412412Y316450D01*
X412761Y314694D01*
X413756Y313206D01*
X414646Y312611D01*
X414712Y312410D01*
Y310590D01*
X414646Y310389D01*
X413756Y309794D01*
X412761Y308306D01*
X412412Y306550D01*
X412761Y304794D01*
X413756Y303306D01*
X415244Y302311D01*
X417000Y301962D01*
X418756Y302311D01*
X420244Y303306D01*
X421239Y304794D01*
X421588Y306550D01*
X421239Y308306D01*
X420244Y309794D01*
X419355Y310389D01*
X419288Y310590D01*
Y312410D01*
X419355Y312611D01*
X420244Y313206D01*
X421239Y314694D01*
X421588Y316450D01*
X421239Y318206D01*
X420244Y319694D01*
X418756Y320689D01*
X417000Y321038D01*
D02*
G37*
G36*
X328000Y305088D02*
X326244Y304739D01*
X324756Y303744D01*
X323761Y302256D01*
X323412Y300500D01*
X323761Y298744D01*
X324756Y297256D01*
X326244Y296261D01*
X328000Y295912D01*
X329756Y296261D01*
X331244Y297256D01*
X332239Y298744D01*
X332588Y300500D01*
X332239Y302256D01*
X331244Y303744D01*
X329756Y304739D01*
X328000Y305088D01*
D02*
G37*
G36*
X257500Y317588D02*
X255744Y317239D01*
X254256Y316244D01*
X253261Y314756D01*
X252912Y313000D01*
X253261Y311244D01*
X254256Y309756D01*
X255744Y308761D01*
X257500Y308412D01*
X259256Y308761D01*
X260744Y309756D01*
X261739Y311244D01*
X262088Y313000D01*
X261739Y314756D01*
X260744Y316244D01*
X259256Y317239D01*
X257500Y317588D01*
D02*
G37*
G36*
X560950Y317088D02*
X559194Y316739D01*
X557706Y315744D01*
X556711Y314256D01*
X556362Y312500D01*
X556711Y310744D01*
X557706Y309256D01*
X559194Y308261D01*
X560950Y307912D01*
X562706Y308261D01*
X564194Y309256D01*
X565189Y310744D01*
X565538Y312500D01*
X565189Y314256D01*
X564194Y315744D01*
X562706Y316739D01*
X560950Y317088D01*
D02*
G37*
G36*
X118000Y305088D02*
X116244Y304739D01*
X114756Y303744D01*
X113761Y302256D01*
X113412Y300500D01*
X113761Y298744D01*
X114756Y297256D01*
X116244Y296261D01*
X118000Y295912D01*
X119756Y296261D01*
X121244Y297256D01*
X122239Y298744D01*
X122588Y300500D01*
X122239Y302256D01*
X121244Y303744D01*
X119756Y304739D01*
X118000Y305088D01*
D02*
G37*
G36*
X584450Y297558D02*
X575950D01*
X574188Y297326D01*
X572546Y296646D01*
X571136Y295564D01*
X570054Y294154D01*
X569374Y292512D01*
X569142Y290750D01*
X569374Y288988D01*
X570054Y287346D01*
X571136Y285936D01*
X572546Y284854D01*
X574188Y284174D01*
X575950Y283942D01*
X584450D01*
X586212Y284174D01*
X587854Y284854D01*
X589264Y285936D01*
X590346Y287346D01*
X591026Y288988D01*
X591258Y290750D01*
X591026Y292512D01*
X590346Y294154D01*
X589264Y295564D01*
X587854Y296646D01*
X586212Y297326D01*
X584450Y297558D01*
D02*
G37*
G36*
X201500Y292088D02*
X199744Y291739D01*
X198256Y290744D01*
X197261Y289256D01*
X196912Y287500D01*
X197261Y285744D01*
X198256Y284256D01*
X199744Y283261D01*
X201500Y282912D01*
X203256Y283261D01*
X204744Y284256D01*
X205739Y285744D01*
X206088Y287500D01*
X205739Y289256D01*
X204744Y290744D01*
X203256Y291739D01*
X201500Y292088D01*
D02*
G37*
G36*
X171800Y301088D02*
X170044Y300739D01*
X168556Y299744D01*
X167561Y298256D01*
X167212Y296500D01*
X167561Y294744D01*
X168556Y293256D01*
X170044Y292261D01*
X171800Y291912D01*
X173556Y292261D01*
X175044Y293256D01*
X176039Y294744D01*
X176388Y296500D01*
X176039Y298256D01*
X175044Y299744D01*
X173556Y300739D01*
X171800Y301088D01*
D02*
G37*
G36*
X283000Y294088D02*
X281244Y293739D01*
X279756Y292744D01*
X278761Y291256D01*
X278412Y289500D01*
X278761Y287744D01*
X279756Y286256D01*
X281244Y285261D01*
X283000Y284912D01*
X284756Y285261D01*
X286244Y286256D01*
X287239Y287744D01*
X287588Y289500D01*
X287239Y291256D01*
X286244Y292744D01*
X284756Y293739D01*
X283000Y294088D01*
D02*
G37*
G36*
X296500Y321588D02*
X294744Y321239D01*
X293256Y320244D01*
X292261Y318756D01*
X291912Y317000D01*
X292261Y315244D01*
X293256Y313756D01*
X294744Y312761D01*
X296500Y312412D01*
X298256Y312761D01*
X299744Y313756D01*
X300739Y315244D01*
X301088Y317000D01*
X300739Y318756D01*
X299744Y320244D01*
X298256Y321239D01*
X296500Y321588D01*
D02*
G37*
G36*
X287500Y341088D02*
X285744Y340739D01*
X284256Y339744D01*
X283261Y338256D01*
X282912Y336500D01*
X283261Y334744D01*
X284256Y333256D01*
X285744Y332261D01*
X287500Y331912D01*
X289256Y332261D01*
X290744Y333256D01*
X291739Y334744D01*
X292088Y336500D01*
X291739Y338256D01*
X290744Y339744D01*
X289256Y340739D01*
X287500Y341088D01*
D02*
G37*
G36*
X184500Y338588D02*
X182744Y338239D01*
X181256Y337244D01*
X180261Y335756D01*
X179912Y334000D01*
X180261Y332244D01*
X181256Y330756D01*
X182744Y329761D01*
X184500Y329412D01*
X186256Y329761D01*
X187744Y330756D01*
X188739Y332244D01*
X189088Y334000D01*
X188739Y335756D01*
X187744Y337244D01*
X186256Y338239D01*
X184500Y338588D01*
D02*
G37*
G36*
X530500Y356334D02*
X527955Y355999D01*
X525583Y355017D01*
X523546Y353454D01*
X521983Y351417D01*
X521001Y349045D01*
X520666Y346500D01*
X521001Y343955D01*
X521983Y341583D01*
X523546Y339546D01*
X525583Y337983D01*
X527955Y337001D01*
X530500Y336666D01*
X533045Y337001D01*
X535417Y337983D01*
X537454Y339546D01*
X539017Y341583D01*
X539999Y343955D01*
X540334Y346500D01*
X539999Y349045D01*
X539017Y351417D01*
X537454Y353454D01*
X535417Y355017D01*
X533045Y355999D01*
X530500Y356334D01*
D02*
G37*
G36*
X120500Y337938D02*
X118744Y337589D01*
X117256Y336594D01*
X116261Y335106D01*
X115912Y333350D01*
X116261Y331594D01*
X117256Y330106D01*
X118744Y329111D01*
X120500Y328762D01*
X122256Y329111D01*
X123744Y330106D01*
X124739Y331594D01*
X125088Y333350D01*
X124739Y335106D01*
X123744Y336594D01*
X122256Y337589D01*
X120500Y337938D01*
D02*
G37*
G36*
X226000Y326588D02*
X224244Y326239D01*
X222756Y325244D01*
X221761Y323756D01*
X221412Y322000D01*
X221761Y320244D01*
X222756Y318756D01*
X224244Y317761D01*
X226000Y317412D01*
X227756Y317761D01*
X229244Y318756D01*
X230239Y320244D01*
X230588Y322000D01*
X230239Y323756D01*
X229244Y325244D01*
X227756Y326239D01*
X226000Y326588D01*
D02*
G37*
G36*
X570000Y324088D02*
X568244Y323739D01*
X566756Y322744D01*
X565761Y321256D01*
X565412Y319500D01*
X565761Y317744D01*
X566756Y316256D01*
X568244Y315261D01*
X570000Y314912D01*
X571756Y315261D01*
X573244Y316256D01*
X574239Y317744D01*
X574588Y319500D01*
X574239Y321256D01*
X573244Y322744D01*
X571756Y323739D01*
X570000Y324088D01*
D02*
G37*
G36*
X452500Y335088D02*
X450744Y334739D01*
X449256Y333744D01*
X448261Y332256D01*
X447912Y330500D01*
X448261Y328744D01*
X449256Y327256D01*
X450744Y326261D01*
X452500Y325912D01*
X454256Y326261D01*
X455744Y327256D01*
X456739Y328744D01*
X457088Y330500D01*
X456739Y332256D01*
X455744Y333744D01*
X454256Y334739D01*
X452500Y335088D01*
D02*
G37*
G36*
X198500Y248088D02*
X196744Y247739D01*
X195256Y246744D01*
X194261Y245256D01*
X193912Y243500D01*
X194261Y241744D01*
X195256Y240256D01*
X196744Y239261D01*
X198500Y238912D01*
X200256Y239261D01*
X201744Y240256D01*
X202739Y241744D01*
X203088Y243500D01*
X202739Y245256D01*
X201744Y246744D01*
X200256Y247739D01*
X198500Y248088D01*
D02*
G37*
G36*
X475000Y247088D02*
X473244Y246739D01*
X471756Y245744D01*
X470761Y244256D01*
X470412Y242500D01*
X470761Y240744D01*
X471756Y239256D01*
X473244Y238261D01*
X475000Y237912D01*
X476756Y238261D01*
X478244Y239256D01*
X479239Y240744D01*
X479588Y242500D01*
X479239Y244256D01*
X478244Y245744D01*
X476756Y246739D01*
X475000Y247088D01*
D02*
G37*
G36*
X445000Y257588D02*
X443244Y257239D01*
X441756Y256244D01*
X440761Y254756D01*
X440412Y253000D01*
X440761Y251244D01*
X441756Y249756D01*
X442211Y249452D01*
X443045Y248088D01*
X442695Y246906D01*
X442261Y246256D01*
X441912Y244500D01*
X442261Y242744D01*
X443256Y241256D01*
X444744Y240261D01*
X446500Y239912D01*
X448256Y240261D01*
X449744Y241256D01*
X450739Y242744D01*
X451088Y244500D01*
X450739Y246256D01*
X449744Y247744D01*
X449289Y248048D01*
X448455Y249412D01*
X448805Y250594D01*
X449239Y251244D01*
X449588Y253000D01*
X449239Y254756D01*
X448244Y256244D01*
X446756Y257239D01*
X445000Y257588D01*
D02*
G37*
G36*
X334750Y248088D02*
X332994Y247739D01*
X331506Y246744D01*
X330511Y245256D01*
X330162Y243500D01*
X330511Y241744D01*
X331506Y240256D01*
X332994Y239261D01*
X334750Y238912D01*
X336506Y239261D01*
X337994Y240256D01*
X338989Y241744D01*
X339338Y243500D01*
X338989Y245256D01*
X337994Y246744D01*
X336506Y247739D01*
X334750Y248088D01*
D02*
G37*
G36*
X496000Y239302D02*
X494244Y238953D01*
X492756Y237958D01*
X491761Y236470D01*
X491412Y234714D01*
X491761Y232958D01*
X492756Y231470D01*
X494244Y230475D01*
X496000Y230126D01*
X497756Y230475D01*
X499244Y231470D01*
X500239Y232958D01*
X500588Y234714D01*
X500239Y236470D01*
X499244Y237958D01*
X497756Y238953D01*
X496000Y239302D01*
D02*
G37*
G36*
X343000Y230588D02*
X341244Y230239D01*
X339756Y229244D01*
X338761Y227756D01*
X338412Y226000D01*
X338761Y224244D01*
X339756Y222756D01*
X341244Y221761D01*
X343000Y221412D01*
X344756Y221761D01*
X346244Y222756D01*
X347239Y224244D01*
X347588Y226000D01*
X347239Y227756D01*
X346244Y229244D01*
X344756Y230239D01*
X343000Y230588D01*
D02*
G37*
G36*
X412000Y226088D02*
X410244Y225739D01*
X408756Y224744D01*
X407761Y223256D01*
X407412Y221500D01*
X406628Y220885D01*
X405616Y220277D01*
X404050Y220588D01*
X402294Y220239D01*
X400806Y219244D01*
X399811Y217756D01*
X399462Y216000D01*
X399811Y214244D01*
X400806Y212756D01*
X402294Y211761D01*
X404050Y211412D01*
X405806Y211761D01*
X407294Y212756D01*
X408289Y214244D01*
X408638Y216000D01*
X409422Y216615D01*
X410434Y217223D01*
X412000Y216912D01*
X413756Y217261D01*
X415244Y218256D01*
X416239Y219744D01*
X416588Y221500D01*
X416239Y223256D01*
X415244Y224744D01*
X413756Y225739D01*
X412000Y226088D01*
D02*
G37*
G36*
X447500Y237588D02*
X445744Y237239D01*
X444256Y236244D01*
X443261Y234756D01*
X442912Y233000D01*
X443261Y231244D01*
X443817Y230412D01*
X443159Y229375D01*
X442495Y228791D01*
X441000Y229088D01*
X439244Y228739D01*
X437756Y227744D01*
X436761Y226256D01*
X436412Y224500D01*
X436761Y222744D01*
X437756Y221256D01*
X439244Y220261D01*
X441000Y219912D01*
X442756Y220261D01*
X444244Y221256D01*
X445239Y222744D01*
X445588Y224500D01*
X445239Y226256D01*
X444683Y227088D01*
X445341Y228125D01*
X446005Y228709D01*
X447500Y228412D01*
X449256Y228761D01*
X450744Y229756D01*
X451739Y231244D01*
X452088Y233000D01*
X451739Y234756D01*
X450744Y236244D01*
X449256Y237239D01*
X447500Y237588D01*
D02*
G37*
G36*
X115500Y232088D02*
X113744Y231739D01*
X112256Y230744D01*
X111261Y229256D01*
X110912Y227500D01*
X111261Y225744D01*
X112256Y224256D01*
X113744Y223261D01*
X115500Y222912D01*
X117256Y223261D01*
X118744Y224256D01*
X119739Y225744D01*
X120088Y227500D01*
X119739Y229256D01*
X118744Y230744D01*
X117256Y231739D01*
X115500Y232088D01*
D02*
G37*
G36*
X379000Y254588D02*
X377244Y254239D01*
X375756Y253244D01*
X374761Y251756D01*
X374412Y250000D01*
X374761Y248244D01*
X375756Y246756D01*
X377244Y245761D01*
X379000Y245412D01*
X380756Y245761D01*
X382244Y246756D01*
X383239Y248244D01*
X383588Y250000D01*
X383239Y251756D01*
X382244Y253244D01*
X380756Y254239D01*
X379000Y254588D01*
D02*
G37*
G36*
X435500Y286088D02*
X433744Y285739D01*
X432256Y284744D01*
X431261Y283256D01*
X430912Y281500D01*
X431261Y279744D01*
X432256Y278256D01*
X433744Y277261D01*
X435500Y276912D01*
X437256Y277261D01*
X438744Y278256D01*
X439739Y279744D01*
X440088Y281500D01*
X439739Y283256D01*
X438744Y284744D01*
X437256Y285739D01*
X435500Y286088D01*
D02*
G37*
G36*
X386500Y288088D02*
X384744Y287739D01*
X383256Y286744D01*
X382261Y285256D01*
X381912Y283500D01*
X382261Y281744D01*
X383256Y280256D01*
X384330Y279538D01*
X384095Y278148D01*
X383842Y277557D01*
X382244Y277239D01*
X380756Y276244D01*
X379761Y274756D01*
X379574Y273814D01*
X378000Y272088D01*
X376244Y271739D01*
X374756Y270744D01*
X373761Y269256D01*
X373412Y267500D01*
X373761Y265744D01*
X374756Y264256D01*
X376244Y263261D01*
X378000Y262912D01*
X379756Y263261D01*
X381244Y264256D01*
X382239Y265744D01*
X382588Y267500D01*
X383583Y268495D01*
X384000Y268412D01*
X385756Y268761D01*
X387244Y269756D01*
X388239Y271244D01*
X388588Y273000D01*
X388239Y274756D01*
X387244Y276244D01*
X386170Y276962D01*
X386405Y278353D01*
X386658Y278943D01*
X388256Y279261D01*
X389744Y280256D01*
X390739Y281744D01*
X391088Y283500D01*
X390739Y285256D01*
X389744Y286744D01*
X388256Y287739D01*
X386500Y288088D01*
D02*
G37*
G36*
X406000Y288588D02*
X404244Y288239D01*
X402756Y287244D01*
X401761Y285756D01*
X401412Y284000D01*
X401761Y282244D01*
X402756Y280756D01*
X404244Y279761D01*
X406000Y279412D01*
X407756Y279761D01*
X409244Y280756D01*
X410239Y282244D01*
X410588Y284000D01*
X410239Y285756D01*
X409244Y287244D01*
X407756Y288239D01*
X406000Y288588D01*
D02*
G37*
G36*
X337500D02*
X335744Y288239D01*
X334256Y287244D01*
X333261Y285756D01*
X332912Y284000D01*
X333261Y282244D01*
X334256Y280756D01*
X335744Y279761D01*
X337500Y279412D01*
X339256Y279761D01*
X340744Y280756D01*
X341739Y282244D01*
X342088Y284000D01*
X341739Y285756D01*
X340744Y287244D01*
X339256Y288239D01*
X337500Y288588D01*
D02*
G37*
G36*
X351500Y275088D02*
X349744Y274739D01*
X348256Y273744D01*
X347261Y272256D01*
X346912Y270500D01*
X347261Y268744D01*
X348256Y267256D01*
X349744Y266261D01*
X351500Y265912D01*
X353256Y266261D01*
X354744Y267256D01*
X355739Y268744D01*
X356088Y270500D01*
X355739Y272256D01*
X354744Y273744D01*
X353256Y274739D01*
X351500Y275088D01*
D02*
G37*
G36*
X118000Y265088D02*
X116244Y264739D01*
X114756Y263744D01*
X113761Y262256D01*
X113412Y260500D01*
X113761Y258744D01*
X114756Y257256D01*
X116244Y256261D01*
X118000Y255912D01*
X119756Y256261D01*
X121244Y257256D01*
X122239Y258744D01*
X122588Y260500D01*
X122239Y262256D01*
X121244Y263744D01*
X119756Y264739D01*
X118000Y265088D01*
D02*
G37*
G36*
X314500Y260088D02*
X312744Y259739D01*
X311256Y258744D01*
X310261Y257256D01*
X309912Y255500D01*
X310261Y253744D01*
X311256Y252256D01*
X312744Y251261D01*
X314500Y250912D01*
X316256Y251261D01*
X317744Y252256D01*
X318739Y253744D01*
X319088Y255500D01*
X318739Y257256D01*
X317744Y258744D01*
X316256Y259739D01*
X314500Y260088D01*
D02*
G37*
G36*
X444000Y271588D02*
X442244Y271239D01*
X440756Y270244D01*
X439761Y268756D01*
X439412Y267000D01*
X439761Y265244D01*
X440756Y263756D01*
X442244Y262761D01*
X444000Y262412D01*
X445756Y262761D01*
X447244Y263756D01*
X448239Y265244D01*
X448588Y267000D01*
X448239Y268756D01*
X447244Y270244D01*
X445756Y271239D01*
X444000Y271588D01*
D02*
G37*
G36*
X504750Y332613D02*
X499022Y332162D01*
X493436Y330821D01*
X488128Y328622D01*
X483229Y325620D01*
X478861Y321889D01*
X475130Y317521D01*
X472128Y312622D01*
X469929Y307314D01*
X468588Y301728D01*
X468137Y296000D01*
X468588Y290273D01*
X469929Y284686D01*
X471695Y280423D01*
X471412Y279000D01*
X471761Y277244D01*
X472756Y275756D01*
X474244Y274761D01*
X475056Y274600D01*
X475130Y274480D01*
X478861Y270111D01*
X483229Y266380D01*
X488128Y263378D01*
X490230Y262507D01*
X490761Y260756D01*
X490412Y259000D01*
X490761Y257244D01*
X491756Y255756D01*
X493244Y254761D01*
X495000Y254412D01*
X496756Y254761D01*
X498244Y255756D01*
X499239Y257244D01*
X499588Y259000D01*
X500247Y259741D01*
X504750Y259387D01*
X509580Y259767D01*
X510256Y258756D01*
X511744Y257761D01*
X513500Y257412D01*
X515256Y257761D01*
X516744Y258756D01*
X517739Y260244D01*
X518088Y262000D01*
X518085Y262016D01*
X521372Y263378D01*
X522552Y264101D01*
X524761Y263244D01*
X525756Y261756D01*
X527244Y260761D01*
X529000Y260412D01*
X530756Y260761D01*
X532061Y261633D01*
X532244Y261511D01*
X534000Y261162D01*
X534171Y261196D01*
X534261Y260744D01*
X535256Y259256D01*
X536744Y258261D01*
X538500Y257912D01*
X540256Y258261D01*
X541744Y259256D01*
X542739Y260744D01*
X543088Y262500D01*
X542739Y264256D01*
X542492Y264626D01*
X543239Y265744D01*
X543588Y267500D01*
X543239Y269256D01*
X542244Y270744D01*
X540756Y271739D01*
X539000Y272088D01*
X537244Y271739D01*
X535756Y270744D01*
X535310Y270077D01*
X534000Y270338D01*
X533354Y270210D01*
X532283Y272036D01*
X534370Y274480D01*
X537372Y279378D01*
X539571Y284686D01*
X540912Y290273D01*
X541363Y296000D01*
X540912Y301728D01*
X539571Y307314D01*
X537372Y312622D01*
X534849Y316740D01*
X534784Y318153D01*
X535510Y319265D01*
X536244Y319756D01*
X537239Y321244D01*
X537588Y323000D01*
X537239Y324756D01*
X536244Y326244D01*
X534756Y327239D01*
X533000Y327588D01*
X531244Y327239D01*
X529756Y326244D01*
X529343Y325626D01*
X526936Y325052D01*
X526270Y325620D01*
X521372Y328622D01*
X516064Y330821D01*
X510477Y332162D01*
X504750Y332613D01*
D02*
G37*
G36*
X261950Y799588D02*
X260194Y799239D01*
X258706Y798244D01*
X257711Y796756D01*
X257362Y795000D01*
X257711Y793244D01*
X258706Y791756D01*
X260194Y790761D01*
X261950Y790412D01*
X263706Y790761D01*
X265194Y791756D01*
X266189Y793244D01*
X266538Y795000D01*
X266189Y796756D01*
X265194Y798244D01*
X263706Y799239D01*
X261950Y799588D01*
D02*
G37*
G36*
X367000D02*
X365244Y799239D01*
X363756Y798244D01*
X362761Y796756D01*
X362412Y795000D01*
X362761Y793244D01*
X363756Y791756D01*
X365244Y790761D01*
X367000Y790412D01*
X368756Y790761D01*
X370244Y791756D01*
X371239Y793244D01*
X371588Y795000D01*
X371239Y796756D01*
X370244Y798244D01*
X368756Y799239D01*
X367000Y799588D01*
D02*
G37*
G36*
X263500Y785588D02*
X261744Y785239D01*
X260256Y784244D01*
X259261Y782756D01*
X258912Y781000D01*
X259261Y779244D01*
X260256Y777756D01*
X261744Y776761D01*
X263500Y776412D01*
X265256Y776761D01*
X266744Y777756D01*
X267739Y779244D01*
X268088Y781000D01*
X267739Y782756D01*
X266744Y784244D01*
X265256Y785239D01*
X263500Y785588D01*
D02*
G37*
G36*
X333500Y779088D02*
X331744Y778739D01*
X330256Y777744D01*
X329261Y776256D01*
X328912Y774500D01*
X329261Y772744D01*
X330256Y771256D01*
X331744Y770261D01*
X333500Y769912D01*
X335256Y770261D01*
X336744Y771256D01*
X337739Y772744D01*
X338088Y774500D01*
X337739Y776256D01*
X336744Y777744D01*
X335256Y778739D01*
X333500Y779088D01*
D02*
G37*
G36*
X175000Y787588D02*
X173244Y787239D01*
X171756Y786244D01*
X170761Y784756D01*
X170412Y783000D01*
X170761Y781244D01*
X171756Y779756D01*
X173244Y778761D01*
X175000Y778412D01*
X176756Y778761D01*
X178244Y779756D01*
X179239Y781244D01*
X179588Y783000D01*
X179239Y784756D01*
X178244Y786244D01*
X176756Y787239D01*
X175000Y787588D01*
D02*
G37*
G36*
X346500Y816488D02*
X344744Y816139D01*
X343256Y815144D01*
X342261Y813656D01*
X341912Y811900D01*
X342261Y810144D01*
X343256Y808656D01*
X344744Y807661D01*
X346500Y807312D01*
X348256Y807661D01*
X349744Y808656D01*
X350739Y810144D01*
X351088Y811900D01*
X350739Y813656D01*
X349744Y815144D01*
X348256Y816139D01*
X346500Y816488D01*
D02*
G37*
G36*
X399000Y810088D02*
X397244Y809739D01*
X395756Y808744D01*
X394761Y807256D01*
X394412Y805500D01*
X394761Y803744D01*
X395756Y802256D01*
X397244Y801261D01*
X399000Y800912D01*
X400756Y801261D01*
X402244Y802256D01*
X403239Y803744D01*
X403588Y805500D01*
X403239Y807256D01*
X402244Y808744D01*
X400756Y809739D01*
X399000Y810088D01*
D02*
G37*
G36*
X287000Y741588D02*
X285244Y741239D01*
X283756Y740244D01*
X282761Y738756D01*
X282412Y737000D01*
X282761Y735244D01*
X283756Y733756D01*
X285244Y732761D01*
X287000Y732412D01*
X288756Y732761D01*
X290244Y733756D01*
X291239Y735244D01*
X291588Y737000D01*
X291239Y738756D01*
X290244Y740244D01*
X288756Y741239D01*
X287000Y741588D01*
D02*
G37*
G36*
X231000Y737088D02*
X229244Y736739D01*
X227756Y735744D01*
X226761Y734256D01*
X226412Y732500D01*
X226761Y730744D01*
X227756Y729256D01*
X229244Y728261D01*
X231000Y727912D01*
X232756Y728261D01*
X234244Y729256D01*
X235239Y730744D01*
X235588Y732500D01*
X235239Y734256D01*
X234244Y735744D01*
X232756Y736739D01*
X231000Y737088D01*
D02*
G37*
G36*
X101500Y749588D02*
X99744Y749239D01*
X98256Y748244D01*
X97261Y746756D01*
X96912Y745000D01*
X97261Y743244D01*
X98256Y741756D01*
X99744Y740761D01*
X101500Y740412D01*
X103256Y740761D01*
X104744Y741756D01*
X105739Y743244D01*
X106088Y745000D01*
X105739Y746756D01*
X104744Y748244D01*
X103256Y749239D01*
X101500Y749588D01*
D02*
G37*
G36*
X253500Y748588D02*
X251744Y748239D01*
X250256Y747244D01*
X249261Y745756D01*
X248912Y744000D01*
X249261Y742244D01*
X250256Y740756D01*
X251744Y739761D01*
X253500Y739412D01*
X255256Y739761D01*
X256744Y740756D01*
X257739Y742244D01*
X258088Y744000D01*
X257739Y745756D01*
X256744Y747244D01*
X255256Y748239D01*
X253500Y748588D01*
D02*
G37*
G36*
X333500Y735589D02*
X331744Y735239D01*
X330256Y734245D01*
X329261Y732756D01*
X328912Y731000D01*
X329261Y729245D01*
X330256Y727756D01*
X331744Y726761D01*
X333500Y726412D01*
X335256Y726761D01*
X336744Y727756D01*
X337739Y729245D01*
X338088Y731000D01*
X337739Y732756D01*
X336744Y734245D01*
X335256Y735239D01*
X333500Y735589D01*
D02*
G37*
G36*
X199500Y727588D02*
X197744Y727239D01*
X196256Y726244D01*
X195261Y724756D01*
X194912Y723000D01*
X195261Y721244D01*
X196256Y719756D01*
X197744Y718761D01*
X199500Y718412D01*
X201256Y718761D01*
X202744Y719756D01*
X203739Y721244D01*
X204088Y723000D01*
X203739Y724756D01*
X202744Y726244D01*
X201256Y727239D01*
X199500Y727588D01*
D02*
G37*
G36*
X104000Y723338D02*
X102244Y722989D01*
X100756Y721994D01*
X99761Y720506D01*
X99412Y718750D01*
X99761Y716994D01*
X100756Y715506D01*
X102244Y714511D01*
X104000Y714162D01*
X105756Y714511D01*
X107244Y715506D01*
X108239Y716994D01*
X108588Y718750D01*
X108239Y720506D01*
X107244Y721994D01*
X105756Y722989D01*
X104000Y723338D01*
D02*
G37*
G36*
X253500Y729088D02*
X251744Y728739D01*
X250256Y727744D01*
X249261Y726256D01*
X248912Y724500D01*
X249261Y722744D01*
X250256Y721256D01*
X251744Y720261D01*
X253500Y719912D01*
X255256Y720261D01*
X256744Y721256D01*
X257739Y722744D01*
X258088Y724500D01*
X257739Y726256D01*
X256744Y727744D01*
X255256Y728739D01*
X253500Y729088D01*
D02*
G37*
G36*
X73500Y728588D02*
X71744Y728239D01*
X70256Y727244D01*
X69261Y725756D01*
X68912Y724000D01*
X69261Y722244D01*
X70256Y720756D01*
X71744Y719761D01*
X73500Y719412D01*
X75256Y719761D01*
X76744Y720756D01*
X77739Y722244D01*
X78088Y724000D01*
X77739Y725756D01*
X76744Y727244D01*
X75256Y728239D01*
X73500Y728588D01*
D02*
G37*
G36*
X195750Y756588D02*
X193994Y756239D01*
X192506Y755244D01*
X191511Y753756D01*
X191162Y752000D01*
X191511Y750244D01*
X192506Y748756D01*
X193994Y747761D01*
X195750Y747412D01*
X197506Y747761D01*
X197722Y747905D01*
X199522Y746703D01*
X199412Y746150D01*
X199761Y744394D01*
X200756Y742906D01*
X202244Y741911D01*
X204000Y741562D01*
X205756Y741911D01*
X207244Y742906D01*
X208239Y744394D01*
X208588Y746150D01*
X208239Y747906D01*
X207244Y749394D01*
X205756Y750389D01*
X204000Y750738D01*
X202244Y750389D01*
X202028Y750245D01*
X200228Y751447D01*
X200338Y752000D01*
X199989Y753756D01*
X198994Y755244D01*
X197506Y756239D01*
X195750Y756588D01*
D02*
G37*
G36*
X104000Y773138D02*
X102244Y772789D01*
X100756Y771794D01*
X99761Y770306D01*
X99412Y768550D01*
X99761Y766794D01*
X100756Y765306D01*
X102244Y764311D01*
X104000Y763962D01*
X105756Y764311D01*
X107244Y765306D01*
X108239Y766794D01*
X108588Y768550D01*
X108239Y770306D01*
X107244Y771794D01*
X105756Y772789D01*
X104000Y773138D01*
D02*
G37*
G36*
X257500Y769588D02*
X255744Y769239D01*
X254256Y768244D01*
X253261Y766756D01*
X252912Y765000D01*
X253261Y763244D01*
X254256Y761756D01*
X255744Y760761D01*
X257500Y760412D01*
X259256Y760761D01*
X260744Y761756D01*
X261739Y763244D01*
X262088Y765000D01*
X261739Y766756D01*
X260744Y768244D01*
X259256Y769239D01*
X257500Y769588D01*
D02*
G37*
G36*
X281000Y787082D02*
X278520Y786755D01*
X276209Y785798D01*
X274224Y784275D01*
X272702Y782291D01*
X271744Y779980D01*
X271418Y777500D01*
X271744Y775020D01*
X272702Y772709D01*
X274224Y770724D01*
X276209Y769202D01*
X278520Y768244D01*
X281000Y767918D01*
X283480Y768244D01*
X285791Y769202D01*
X287775Y770724D01*
X289298Y772709D01*
X290256Y775020D01*
X290582Y777500D01*
X290256Y779980D01*
X289298Y782291D01*
X287775Y784275D01*
X285791Y785798D01*
X283480Y786755D01*
X281000Y787082D01*
D02*
G37*
G36*
X246500D02*
X244020Y786755D01*
X241709Y785798D01*
X239725Y784275D01*
X238202Y782291D01*
X237244Y779980D01*
X236918Y777500D01*
X237244Y775020D01*
X238202Y772709D01*
X239725Y770724D01*
X241709Y769202D01*
X244020Y768244D01*
X246500Y767918D01*
X248980Y768244D01*
X251291Y769202D01*
X253275Y770724D01*
X254798Y772709D01*
X255755Y775020D01*
X256082Y777500D01*
X255755Y779980D01*
X254798Y782291D01*
X253275Y784275D01*
X251291Y785798D01*
X248980Y786755D01*
X246500Y787082D01*
D02*
G37*
G36*
X231500Y769088D02*
X229744Y768739D01*
X228256Y767744D01*
X227261Y766256D01*
X226912Y764500D01*
X227261Y762744D01*
X228256Y761256D01*
X229744Y760261D01*
X231500Y759912D01*
X233256Y760261D01*
X234744Y761256D01*
X235739Y762744D01*
X236088Y764500D01*
X235739Y766256D01*
X234744Y767744D01*
X233256Y768739D01*
X231500Y769088D01*
D02*
G37*
G36*
X75000Y753588D02*
X73244Y753239D01*
X71756Y752244D01*
X70761Y750756D01*
X70412Y749000D01*
X70761Y747244D01*
X71756Y745756D01*
X73244Y744761D01*
X75000Y744412D01*
X76756Y744761D01*
X78244Y745756D01*
X79239Y747244D01*
X79588Y749000D01*
X79239Y750756D01*
X78244Y752244D01*
X76756Y753239D01*
X75000Y753588D01*
D02*
G37*
G36*
X315000Y761588D02*
X313244Y761239D01*
X311756Y760244D01*
X310761Y758756D01*
X310412Y757000D01*
X310761Y755244D01*
X311756Y753756D01*
X313244Y752761D01*
X315000Y752412D01*
X316756Y752761D01*
X318244Y753756D01*
X319239Y755244D01*
X319588Y757000D01*
X319239Y758756D01*
X318244Y760244D01*
X316756Y761239D01*
X315000Y761588D01*
D02*
G37*
G36*
X341000Y911588D02*
X339244Y911239D01*
X337756Y910244D01*
X336761Y908756D01*
X336412Y907000D01*
X336761Y905244D01*
X337756Y903756D01*
X339244Y902761D01*
X341000Y902412D01*
X342756Y902761D01*
X344244Y903756D01*
X345239Y905244D01*
X345588Y907000D01*
X345239Y908756D01*
X344244Y910244D01*
X342756Y911239D01*
X341000Y911588D01*
D02*
G37*
G36*
X327000Y904000D02*
X318500D01*
Y895500D01*
X327000D01*
Y904000D01*
D02*
G37*
G36*
X375000Y838588D02*
X373244Y838239D01*
X371756Y837244D01*
X370761Y835756D01*
X370412Y834000D01*
X370761Y832244D01*
X371756Y830756D01*
X373244Y829761D01*
X375000Y829412D01*
X376756Y829761D01*
X378244Y830756D01*
X379239Y832244D01*
X379588Y834000D01*
X379239Y835756D01*
X378244Y837244D01*
X376756Y838239D01*
X375000Y838588D01*
D02*
G37*
G36*
X327000Y890500D02*
X318500D01*
Y882000D01*
X327000D01*
Y890500D01*
D02*
G37*
G36*
X291500Y576088D02*
X289744Y575739D01*
X288256Y574744D01*
X287261Y573256D01*
X286912Y571500D01*
X287261Y569744D01*
X288256Y568256D01*
X289744Y567261D01*
X291500Y566912D01*
X293256Y567261D01*
X294744Y568256D01*
X295739Y569744D01*
X296088Y571500D01*
X295739Y573256D01*
X294744Y574744D01*
X293256Y575739D01*
X291500Y576088D01*
D02*
G37*
G36*
X324500Y573588D02*
X322744Y573239D01*
X321256Y572244D01*
X320261Y570756D01*
X319912Y569000D01*
X320261Y567244D01*
X321256Y565756D01*
X322744Y564761D01*
X324500Y564412D01*
X326256Y564761D01*
X327744Y565756D01*
X328739Y567244D01*
X329088Y569000D01*
X328739Y570756D01*
X327744Y572244D01*
X326256Y573239D01*
X324500Y573588D01*
D02*
G37*
G36*
X254000Y582088D02*
X252244Y581739D01*
X250756Y580744D01*
X249761Y579256D01*
X249412Y577500D01*
X249761Y575744D01*
X250756Y574256D01*
X252244Y573261D01*
X254000Y572912D01*
X255756Y573261D01*
X257244Y574256D01*
X258239Y575744D01*
X258588Y577500D01*
X258239Y579256D01*
X257244Y580744D01*
X255756Y581739D01*
X254000Y582088D01*
D02*
G37*
G36*
X113000Y581588D02*
X111244Y581239D01*
X109756Y580244D01*
X108761Y578756D01*
X108412Y577000D01*
X108761Y575244D01*
X109756Y573756D01*
X111244Y572761D01*
X113000Y572412D01*
X114756Y572761D01*
X116244Y573756D01*
X117239Y575244D01*
X117588Y577000D01*
X117239Y578756D01*
X116244Y580244D01*
X114756Y581239D01*
X113000Y581588D01*
D02*
G37*
G36*
X462000Y579082D02*
X459520Y578755D01*
X457209Y577798D01*
X455224Y576275D01*
X453702Y574291D01*
X452744Y571980D01*
X452418Y569500D01*
X452744Y567020D01*
X453702Y564709D01*
X455224Y562725D01*
X457209Y561202D01*
X459520Y560244D01*
X462000Y559918D01*
X464480Y560244D01*
X466791Y561202D01*
X468775Y562725D01*
X470298Y564709D01*
X471255Y567020D01*
X471582Y569500D01*
X471255Y571980D01*
X470298Y574291D01*
X468775Y576275D01*
X466791Y577798D01*
X464480Y578755D01*
X462000Y579082D01*
D02*
G37*
G36*
X243500Y562588D02*
X241744Y562239D01*
X240256Y561244D01*
X239261Y559756D01*
X238912Y558000D01*
X239261Y556244D01*
X240256Y554756D01*
X241744Y553761D01*
X243500Y553412D01*
X245256Y553761D01*
X246744Y554756D01*
X247739Y556244D01*
X248088Y558000D01*
X247739Y559756D01*
X246744Y561244D01*
X245256Y562239D01*
X243500Y562588D01*
D02*
G37*
G36*
X446500Y559588D02*
X444744Y559239D01*
X443256Y558244D01*
X442261Y556756D01*
X441912Y555000D01*
X442261Y553244D01*
X443256Y551756D01*
X444744Y550761D01*
X446500Y550412D01*
X448256Y550761D01*
X449744Y551756D01*
X450739Y553244D01*
X451088Y555000D01*
X450739Y556756D01*
X449744Y558244D01*
X448256Y559239D01*
X446500Y559588D01*
D02*
G37*
G36*
X67000Y564588D02*
X65244Y564239D01*
X63756Y563244D01*
X62761Y561756D01*
X62412Y560000D01*
X62761Y558244D01*
X63756Y556756D01*
X65244Y555761D01*
X67000Y555412D01*
X68756Y555761D01*
X70244Y556756D01*
X71239Y558244D01*
X71588Y560000D01*
X71239Y561756D01*
X70244Y563244D01*
X68756Y564239D01*
X67000Y564588D01*
D02*
G37*
G36*
X273500Y563088D02*
X271744Y562739D01*
X270256Y561744D01*
X269261Y560256D01*
X268912Y558500D01*
X269261Y556744D01*
X270256Y555256D01*
X271744Y554261D01*
X273500Y553912D01*
X275256Y554261D01*
X276744Y555256D01*
X277739Y556744D01*
X278088Y558500D01*
X277739Y560256D01*
X276744Y561744D01*
X275256Y562739D01*
X273500Y563088D01*
D02*
G37*
G36*
X163500Y601088D02*
X161744Y600739D01*
X160256Y599744D01*
X159261Y598256D01*
X158912Y596500D01*
X159261Y594744D01*
X159766Y593988D01*
X160242Y593151D01*
X159957Y591050D01*
X159761Y590756D01*
X159412Y589000D01*
X159761Y587244D01*
X160756Y585756D01*
X162244Y584761D01*
X164000Y584412D01*
X164569Y584525D01*
X165350Y582641D01*
X164756Y582244D01*
X163761Y580756D01*
X163412Y579000D01*
X163761Y577244D01*
X162743Y575169D01*
X162106Y574743D01*
X161111Y573255D01*
X160762Y571499D01*
X161111Y569743D01*
X162106Y568255D01*
X163594Y567260D01*
X163809Y567217D01*
X164589Y566381D01*
X164789Y565434D01*
X163594Y563739D01*
X162106Y562744D01*
X161111Y561256D01*
X160762Y559500D01*
X161111Y557744D01*
X162106Y556256D01*
X163594Y555261D01*
X165350Y554912D01*
X165474Y554936D01*
X166411Y553999D01*
X166761Y552243D01*
X167755Y550755D01*
X169244Y549760D01*
X171000Y549411D01*
X172756Y549760D01*
X174244Y550755D01*
X175239Y552243D01*
X175588Y553999D01*
X175239Y555755D01*
X174244Y557243D01*
X172756Y558238D01*
X171705Y558447D01*
X171293Y559419D01*
X171756Y561260D01*
X173244Y562255D01*
X174239Y563743D01*
X174588Y565499D01*
X174239Y567255D01*
X173244Y568743D01*
X171756Y569738D01*
X170000Y570087D01*
X169898Y571295D01*
X169938Y571499D01*
X169621Y573092D01*
X170789Y574784D01*
X172256Y574756D01*
X173744Y573761D01*
X175500Y573412D01*
X177256Y573761D01*
X178744Y574756D01*
X179739Y576244D01*
X180088Y578000D01*
X179739Y579756D01*
X178744Y581244D01*
X177256Y582239D01*
X175500Y582588D01*
X173744Y582239D01*
X173681Y582197D01*
X171244Y582244D01*
X169756Y583239D01*
X168000Y583588D01*
X167431Y583475D01*
X166651Y585359D01*
X167244Y585756D01*
X168239Y587244D01*
X168588Y589000D01*
X168239Y590756D01*
X167734Y591511D01*
X167258Y592349D01*
X167543Y594450D01*
X167739Y594744D01*
X168088Y596500D01*
X167739Y598256D01*
X166744Y599744D01*
X165256Y600739D01*
X163500Y601088D01*
D02*
G37*
G36*
X464500Y596638D02*
X462744Y596289D01*
X461256Y595294D01*
X460261Y593806D01*
X459912Y592050D01*
X460261Y590294D01*
X461256Y588806D01*
X462744Y587811D01*
X464500Y587462D01*
X466256Y587811D01*
X467744Y588806D01*
X468739Y590294D01*
X469088Y592050D01*
X468739Y593806D01*
X467744Y595294D01*
X466256Y596289D01*
X464500Y596638D01*
D02*
G37*
G36*
X75000Y600088D02*
X73244Y599739D01*
X71756Y598744D01*
X70761Y597256D01*
X70412Y595500D01*
X70761Y593744D01*
X71756Y592256D01*
X73244Y591261D01*
X75000Y590912D01*
X76756Y591261D01*
X78244Y592256D01*
X79239Y593744D01*
X79588Y595500D01*
X79239Y597256D01*
X78244Y598744D01*
X76756Y599739D01*
X75000Y600088D01*
D02*
G37*
G36*
X175500Y598588D02*
X173744Y598239D01*
X172255Y597244D01*
X171261Y595756D01*
X170912Y594000D01*
X171261Y592244D01*
X172255Y590756D01*
X173744Y589761D01*
X175500Y589412D01*
X177255Y589761D01*
X178744Y590756D01*
X179739Y592244D01*
X180088Y594000D01*
X179739Y595756D01*
X178744Y597244D01*
X177255Y598239D01*
X175500Y598588D01*
D02*
G37*
G36*
X275500Y590588D02*
X273744Y590239D01*
X272256Y589244D01*
X271261Y587756D01*
X270912Y586000D01*
X271261Y584244D01*
X272256Y582756D01*
X273744Y581761D01*
X275500Y581412D01*
X277256Y581761D01*
X278744Y582756D01*
X279739Y584244D01*
X280088Y586000D01*
X279739Y587756D01*
X278744Y589244D01*
X277256Y590239D01*
X275500Y590588D01*
D02*
G37*
G36*
X445000Y587588D02*
X443244Y587239D01*
X441756Y586244D01*
X440761Y584756D01*
X440412Y583000D01*
X440761Y581244D01*
X441756Y579756D01*
X443244Y578761D01*
X445000Y578412D01*
X446756Y578761D01*
X448244Y579756D01*
X449239Y581244D01*
X449588Y583000D01*
X449239Y584756D01*
X448244Y586244D01*
X446756Y587239D01*
X445000Y587588D01*
D02*
G37*
G36*
X390000Y591088D02*
X388244Y590739D01*
X386756Y589744D01*
X385761Y588256D01*
X385412Y586500D01*
X385761Y584744D01*
X386112Y584219D01*
X386590Y582749D01*
X386112Y581281D01*
X385760Y580755D01*
X385411Y578999D01*
X385760Y577243D01*
X386755Y575755D01*
X388243Y574760D01*
X389999Y574411D01*
X391755Y574760D01*
X393243Y575755D01*
X394238Y577243D01*
X394587Y578999D01*
X394238Y580755D01*
X393887Y581280D01*
X393409Y582750D01*
X393887Y584218D01*
X394239Y584744D01*
X394588Y586500D01*
X394239Y588256D01*
X393244Y589744D01*
X391756Y590739D01*
X390000Y591088D01*
D02*
G37*
G36*
X139000Y597588D02*
X137244Y597239D01*
X135756Y596244D01*
X134761Y594756D01*
X134412Y593000D01*
X134761Y591244D01*
X135756Y589756D01*
X136085Y589536D01*
X136256Y587245D01*
X136235Y587213D01*
X135261Y585756D01*
X134912Y584000D01*
X134923Y583944D01*
X134000Y582088D01*
X132244Y581739D01*
X130953Y580876D01*
X129889Y581046D01*
X128805Y581424D01*
X128739Y581756D01*
X127744Y583244D01*
X126256Y584239D01*
X124500Y584588D01*
X122744Y584239D01*
X121256Y583244D01*
X120261Y581756D01*
X119912Y580000D01*
X120261Y578244D01*
X121256Y576756D01*
X122744Y575761D01*
X124500Y575412D01*
X126256Y575761D01*
X127547Y576624D01*
X128611Y576454D01*
X129695Y576076D01*
X129761Y575744D01*
X130756Y574256D01*
X132244Y573261D01*
X134000Y572912D01*
X135756Y573261D01*
X137244Y574256D01*
X138239Y575744D01*
X138588Y577500D01*
X138577Y577556D01*
X139500Y579412D01*
X141256Y579761D01*
X142744Y580756D01*
X143739Y582244D01*
X144088Y584000D01*
X143739Y585756D01*
X142744Y587244D01*
X142415Y587464D01*
X142244Y589755D01*
X142265Y589787D01*
X143239Y591244D01*
X143588Y593000D01*
X143239Y594756D01*
X142244Y596244D01*
X140756Y597239D01*
X139000Y597588D01*
D02*
G37*
G36*
X203500Y588588D02*
X201744Y588239D01*
X200256Y587244D01*
X199261Y585756D01*
X198912Y584000D01*
X199261Y582244D01*
X200256Y580756D01*
X201744Y579761D01*
X203500Y579412D01*
X205256Y579761D01*
X206744Y580756D01*
X207739Y582244D01*
X208088Y584000D01*
X207739Y585756D01*
X206744Y587244D01*
X205256Y588239D01*
X203500Y588588D01*
D02*
G37*
G36*
X111500Y539088D02*
X109744Y538739D01*
X108256Y537744D01*
X107261Y536256D01*
X106912Y534500D01*
X107261Y532744D01*
X108256Y531256D01*
X109744Y530261D01*
X111500Y529912D01*
X113256Y530261D01*
X114744Y531256D01*
X115739Y532744D01*
X116088Y534500D01*
X115739Y536256D01*
X114744Y537744D01*
X113256Y538739D01*
X111500Y539088D01*
D02*
G37*
G36*
X150000Y536088D02*
X148244Y535739D01*
X146756Y534744D01*
X145761Y533256D01*
X145412Y531500D01*
X145761Y529744D01*
X146756Y528256D01*
X148244Y527261D01*
X150000Y526912D01*
X151756Y527261D01*
X153244Y528256D01*
X154239Y529744D01*
X154588Y531500D01*
X154239Y533256D01*
X153244Y534744D01*
X151756Y535739D01*
X150000Y536088D01*
D02*
G37*
G36*
X333000Y542588D02*
X331244Y542239D01*
X329756Y541244D01*
X328761Y539756D01*
X328412Y538000D01*
X328761Y536244D01*
X329756Y534756D01*
X331244Y533761D01*
X333000Y533412D01*
X334756Y533761D01*
X336244Y534756D01*
X337239Y536244D01*
X337588Y538000D01*
X337239Y539756D01*
X336244Y541244D01*
X334756Y542239D01*
X333000Y542588D01*
D02*
G37*
G36*
X309500Y540088D02*
X307744Y539739D01*
X306256Y538744D01*
X305261Y537256D01*
X304912Y535500D01*
X305261Y533744D01*
X306256Y532256D01*
X307744Y531261D01*
X309500Y530912D01*
X311256Y531261D01*
X312744Y532256D01*
X313739Y533744D01*
X314088Y535500D01*
X313739Y537256D01*
X312744Y538744D01*
X311256Y539739D01*
X309500Y540088D01*
D02*
G37*
G36*
X462000Y545082D02*
X459520Y544756D01*
X457209Y543798D01*
X455224Y542275D01*
X453702Y540291D01*
X452744Y537980D01*
X452418Y535500D01*
X452744Y533020D01*
X453702Y530709D01*
X455224Y528725D01*
X457209Y527202D01*
X459520Y526245D01*
X462000Y525918D01*
X464480Y526245D01*
X466791Y527202D01*
X468775Y528725D01*
X470298Y530709D01*
X471255Y533020D01*
X471582Y535500D01*
X471255Y537980D01*
X470298Y540291D01*
X468775Y542275D01*
X466791Y543798D01*
X464480Y544756D01*
X462000Y545082D01*
D02*
G37*
G36*
X435500Y516588D02*
X433744Y516239D01*
X432256Y515244D01*
X431261Y513756D01*
X430912Y512000D01*
X431261Y510244D01*
X432256Y508756D01*
X433744Y507761D01*
X435500Y507412D01*
X437256Y507761D01*
X438744Y508756D01*
X439739Y510244D01*
X440088Y512000D01*
X439739Y513756D01*
X438744Y515244D01*
X437256Y516239D01*
X435500Y516588D01*
D02*
G37*
G36*
X334750Y531338D02*
X332994Y530989D01*
X331506Y529994D01*
X330511Y528506D01*
X330162Y526750D01*
X330511Y524994D01*
X331506Y523506D01*
X332994Y522511D01*
X334750Y522162D01*
X336506Y522511D01*
X337994Y523506D01*
X338989Y524994D01*
X339338Y526750D01*
X338989Y528506D01*
X337994Y529994D01*
X336506Y530989D01*
X334750Y531338D01*
D02*
G37*
G36*
X393500Y523588D02*
X391744Y523239D01*
X390256Y522244D01*
X389261Y520756D01*
X388912Y519000D01*
X389261Y517244D01*
X390256Y515756D01*
X391744Y514761D01*
X393500Y514412D01*
X395256Y514761D01*
X396744Y515756D01*
X397739Y517244D01*
X398088Y519000D01*
X397739Y520756D01*
X396744Y522244D01*
X395256Y523239D01*
X393500Y523588D01*
D02*
G37*
G36*
X284000Y544088D02*
X282244Y543739D01*
X280756Y542744D01*
X279761Y541256D01*
X279412Y539500D01*
X279761Y537744D01*
X280756Y536256D01*
X282244Y535261D01*
X284000Y534912D01*
X285756Y535261D01*
X287244Y536256D01*
X288239Y537744D01*
X288588Y539500D01*
X288239Y541256D01*
X287244Y542744D01*
X285756Y543739D01*
X284000Y544088D01*
D02*
G37*
G36*
X223000Y552088D02*
X221244Y551739D01*
X219756Y550744D01*
X218761Y549256D01*
X218412Y547500D01*
X218761Y545744D01*
X219756Y544256D01*
X221244Y543261D01*
X223000Y542912D01*
X224756Y543261D01*
X226244Y544256D01*
X227239Y545744D01*
X227588Y547500D01*
X227239Y549256D01*
X226244Y550744D01*
X224756Y551739D01*
X223000Y552088D01*
D02*
G37*
G36*
X90750D02*
X88994Y551739D01*
X87506Y550744D01*
X86511Y549256D01*
X86162Y547500D01*
X86511Y545744D01*
X87506Y544256D01*
X88994Y543261D01*
X90750Y542912D01*
X92506Y543261D01*
X93994Y544256D01*
X94989Y545744D01*
X95338Y547500D01*
X94989Y549256D01*
X93994Y550744D01*
X92506Y551739D01*
X90750Y552088D01*
D02*
G37*
G36*
X269500Y551588D02*
X267744Y551239D01*
X266256Y550244D01*
X265261Y548756D01*
X264912Y547000D01*
X265017Y546471D01*
X264999Y546430D01*
X263284Y544932D01*
X262500Y545088D01*
X260744Y544739D01*
X259256Y543744D01*
X258261Y542256D01*
X257912Y540500D01*
X258261Y538744D01*
X259256Y537256D01*
X260744Y536261D01*
X262500Y535912D01*
X264256Y536261D01*
X265744Y537256D01*
X266739Y538744D01*
X267088Y540500D01*
X266983Y541029D01*
X267001Y541070D01*
X268716Y542568D01*
X269500Y542412D01*
X271256Y542761D01*
X272744Y543756D01*
X273739Y545244D01*
X274088Y547000D01*
X273739Y548756D01*
X272744Y550244D01*
X271256Y551239D01*
X269500Y551588D01*
D02*
G37*
G36*
X412000Y548588D02*
X410244Y548239D01*
X408756Y547244D01*
X407761Y545756D01*
X407412Y544000D01*
X407761Y542244D01*
X408756Y540756D01*
X410244Y539761D01*
X412000Y539412D01*
X413756Y539761D01*
X415244Y540756D01*
X416239Y542244D01*
X416588Y544000D01*
X416239Y545756D01*
X415244Y547244D01*
X413756Y548239D01*
X412000Y548588D01*
D02*
G37*
G36*
X136000D02*
X134244Y548239D01*
X132756Y547244D01*
X131761Y545756D01*
X131412Y544000D01*
X131761Y542244D01*
X132756Y540756D01*
X134244Y539761D01*
X136000Y539412D01*
X137756Y539761D01*
X139244Y540756D01*
X140239Y542244D01*
X140588Y544000D01*
X140239Y545756D01*
X139244Y547244D01*
X137756Y548239D01*
X136000Y548588D01*
D02*
G37*
G36*
X167500Y547088D02*
X165744Y546739D01*
X164256Y545744D01*
X163261Y544256D01*
X162912Y542500D01*
X163261Y540744D01*
X164256Y539256D01*
X165744Y538261D01*
X167500Y537912D01*
X169256Y538261D01*
X170744Y539256D01*
X171739Y540744D01*
X172088Y542500D01*
X171739Y544256D01*
X170744Y545744D01*
X169256Y546739D01*
X167500Y547088D01*
D02*
G37*
G36*
X320500Y548588D02*
X318744Y548239D01*
X317256Y547244D01*
X316261Y545756D01*
X315912Y544000D01*
X316261Y542244D01*
X317256Y540756D01*
X318744Y539761D01*
X320500Y539412D01*
X322256Y539761D01*
X323744Y540756D01*
X324739Y542244D01*
X325088Y544000D01*
X324739Y545756D01*
X323744Y547244D01*
X322256Y548239D01*
X320500Y548588D01*
D02*
G37*
G36*
X202500D02*
X200744Y548239D01*
X199256Y547244D01*
X198261Y545756D01*
X197912Y544000D01*
X198261Y542244D01*
X199256Y540756D01*
X200744Y539761D01*
X202500Y539412D01*
X204256Y539761D01*
X205744Y540756D01*
X206739Y542244D01*
X207088Y544000D01*
X206739Y545756D01*
X205744Y547244D01*
X204256Y548239D01*
X202500Y548588D01*
D02*
G37*
G36*
X216500Y603588D02*
X214744Y603239D01*
X213256Y602244D01*
X212261Y600756D01*
X211912Y599000D01*
X212261Y597244D01*
X213256Y595756D01*
X214744Y594761D01*
X216500Y594412D01*
X218256Y594761D01*
X219744Y595756D01*
X220739Y597244D01*
X221088Y599000D01*
X220739Y600756D01*
X219744Y602244D01*
X218256Y603239D01*
X216500Y603588D01*
D02*
G37*
G36*
X201500Y673588D02*
X199744Y673239D01*
X198256Y672244D01*
X197611Y671280D01*
X197230Y671173D01*
X195770D01*
X195389Y671280D01*
X194744Y672244D01*
X193256Y673239D01*
X191500Y673588D01*
X189744Y673239D01*
X188256Y672244D01*
X187261Y670756D01*
X186912Y669000D01*
X187261Y667244D01*
X188256Y665756D01*
X189744Y664761D01*
X191500Y664412D01*
X193256Y664761D01*
X194744Y665756D01*
X195389Y666720D01*
X195770Y666827D01*
X197230D01*
X197611Y666720D01*
X198256Y665756D01*
X199744Y664761D01*
X201500Y664412D01*
X203256Y664761D01*
X204744Y665756D01*
X205739Y667244D01*
X206088Y669000D01*
X205739Y670756D01*
X204744Y672244D01*
X203256Y673239D01*
X201500Y673588D01*
D02*
G37*
G36*
X91500Y677088D02*
X89744Y676739D01*
X88256Y675744D01*
X87261Y674256D01*
X86912Y672500D01*
X87261Y670744D01*
X88256Y669256D01*
X89744Y668261D01*
X91500Y667912D01*
X93256Y668261D01*
X94744Y669256D01*
X95739Y670744D01*
X96088Y672500D01*
X95739Y674256D01*
X94744Y675744D01*
X93256Y676739D01*
X91500Y677088D01*
D02*
G37*
G36*
X118000Y697088D02*
X116244Y696739D01*
X114756Y695744D01*
X113761Y694256D01*
X113412Y692500D01*
X113761Y690744D01*
X114756Y689256D01*
X116244Y688261D01*
X118000Y687912D01*
X119756Y688261D01*
X121244Y689256D01*
X122239Y690744D01*
X122588Y692500D01*
X122239Y694256D01*
X121244Y695744D01*
X119756Y696739D01*
X118000Y697088D01*
D02*
G37*
G36*
X298000Y688588D02*
X296244Y688239D01*
X294756Y687244D01*
X293761Y685756D01*
X293412Y684000D01*
X293761Y682244D01*
X294756Y680756D01*
X296244Y679761D01*
X298000Y679412D01*
X299756Y679761D01*
X301244Y680756D01*
X302239Y682244D01*
X302588Y684000D01*
X302239Y685756D01*
X301244Y687244D01*
X299756Y688239D01*
X298000Y688588D01*
D02*
G37*
G36*
X301500Y676588D02*
X299744Y676239D01*
X298256Y675244D01*
X297261Y673756D01*
X296912Y672000D01*
X297261Y670244D01*
X298256Y668756D01*
X299744Y667761D01*
X301500Y667412D01*
X303256Y667761D01*
X304744Y668756D01*
X305739Y670244D01*
X306088Y672000D01*
X305739Y673756D01*
X304744Y675244D01*
X303256Y676239D01*
X301500Y676588D01*
D02*
G37*
G36*
X118000Y663088D02*
X116244Y662739D01*
X114756Y661744D01*
X113761Y660256D01*
X113412Y658500D01*
X113761Y656744D01*
X114756Y655256D01*
X116244Y654261D01*
X118000Y653912D01*
X119756Y654261D01*
X121244Y655256D01*
X122239Y656744D01*
X122588Y658500D01*
X122239Y660256D01*
X121244Y661744D01*
X119756Y662739D01*
X118000Y663088D01*
D02*
G37*
G36*
X274500Y667588D02*
X272744Y667239D01*
X271256Y666244D01*
X270261Y664756D01*
X269912Y663000D01*
X270261Y661244D01*
X271256Y659756D01*
X270612Y657780D01*
X270261Y657254D01*
X269911Y655499D01*
X270261Y653743D01*
X271255Y652254D01*
X272744Y651260D01*
X274499Y650910D01*
X276255Y651260D01*
X277744Y652254D01*
X278738Y653743D01*
X279088Y655499D01*
X278738Y657254D01*
X277744Y658743D01*
X278388Y660718D01*
X278739Y661244D01*
X279088Y663000D01*
X278739Y664756D01*
X277744Y666244D01*
X276256Y667239D01*
X274500Y667588D01*
D02*
G37*
G36*
X239000Y671588D02*
X237244Y671239D01*
X235756Y670244D01*
X234761Y668756D01*
X234412Y667000D01*
X234761Y665244D01*
X235756Y663756D01*
X237244Y662761D01*
X239000Y662412D01*
X240756Y662761D01*
X242244Y663756D01*
X243239Y665244D01*
X243588Y667000D01*
X243239Y668756D01*
X242244Y670244D01*
X240756Y671239D01*
X239000Y671588D01*
D02*
G37*
G36*
X286000Y664588D02*
X284244Y664239D01*
X282756Y663244D01*
X281761Y661756D01*
X281412Y660000D01*
X281761Y658244D01*
X282756Y656756D01*
X284244Y655761D01*
X286000Y655412D01*
X287756Y655761D01*
X289244Y656756D01*
X290239Y658244D01*
X290588Y660000D01*
X290239Y661756D01*
X289244Y663244D01*
X287756Y664239D01*
X286000Y664588D01*
D02*
G37*
G36*
X49000Y699088D02*
X47244Y698739D01*
X45756Y697744D01*
X44761Y696256D01*
X44412Y694500D01*
X44761Y692744D01*
X45756Y691256D01*
X47244Y690261D01*
X49000Y689912D01*
X50756Y690261D01*
X52244Y691256D01*
X53239Y692744D01*
X53588Y694500D01*
X53239Y696256D01*
X52244Y697744D01*
X50756Y698739D01*
X49000Y699088D01*
D02*
G37*
G36*
X296950Y713088D02*
X295194Y712739D01*
X293706Y711744D01*
X292711Y710256D01*
X292362Y708500D01*
X292711Y706744D01*
X293706Y705256D01*
X295194Y704261D01*
X296950Y703912D01*
X298706Y704261D01*
X300194Y705256D01*
X301189Y706744D01*
X301538Y708500D01*
X301189Y710256D01*
X300194Y711744D01*
X298706Y712739D01*
X296950Y713088D01*
D02*
G37*
G36*
X267000Y711588D02*
X265244Y711239D01*
X263756Y710244D01*
X262761Y708756D01*
X262412Y707000D01*
X262761Y705244D01*
X263756Y703756D01*
X265244Y702761D01*
X267000Y702412D01*
X268756Y702761D01*
X270244Y703756D01*
X271239Y705244D01*
X271588Y707000D01*
X271239Y708756D01*
X270244Y710244D01*
X268756Y711239D01*
X267000Y711588D01*
D02*
G37*
G36*
X193000Y717088D02*
X191244Y716739D01*
X189756Y715744D01*
X188761Y714256D01*
X188412Y712500D01*
X188761Y710744D01*
X189756Y709256D01*
X191244Y708261D01*
X193000Y707912D01*
X194756Y708261D01*
X196244Y709256D01*
X197239Y710744D01*
X197588Y712500D01*
X197239Y714256D01*
X196244Y715744D01*
X194756Y716739D01*
X193000Y717088D01*
D02*
G37*
G36*
X137500Y713588D02*
X135744Y713239D01*
X134256Y712244D01*
X133261Y710756D01*
X132912Y709000D01*
X133261Y707244D01*
X134256Y705756D01*
X135744Y704761D01*
X137500Y704412D01*
X139256Y704761D01*
X140744Y705756D01*
X141739Y707244D01*
X142088Y709000D01*
X141739Y710756D01*
X140744Y712244D01*
X139256Y713239D01*
X137500Y713588D01*
D02*
G37*
G36*
X173000Y730088D02*
X171244Y729739D01*
X169756Y728744D01*
X168761Y727256D01*
X168412Y725500D01*
X168761Y723744D01*
X169756Y722256D01*
X171244Y721261D01*
X172522Y721007D01*
X172943Y719017D01*
X171209Y718298D01*
X169225Y716776D01*
X167702Y714791D01*
X166744Y712480D01*
X166418Y710000D01*
X166744Y707520D01*
X167702Y705209D01*
X169225Y703225D01*
X171209Y701702D01*
X173520Y700744D01*
X176000Y700418D01*
X178480Y700744D01*
X180791Y701702D01*
X182775Y703225D01*
X184298Y705209D01*
X185256Y707520D01*
X185582Y710000D01*
X185256Y712480D01*
X184298Y714791D01*
X182775Y716776D01*
X180791Y718298D01*
X178480Y719256D01*
X176000Y719582D01*
X175463Y719511D01*
X175309Y719892D01*
X175081Y721478D01*
X176244Y722256D01*
X177239Y723744D01*
X177588Y725500D01*
X177239Y727256D01*
X176244Y728744D01*
X174756Y729739D01*
X173000Y730088D01*
D02*
G37*
G36*
X333500Y703588D02*
X331744Y703239D01*
X330256Y702244D01*
X329261Y700756D01*
X328912Y699000D01*
X329261Y697244D01*
X330256Y695756D01*
X331744Y694761D01*
X333500Y694412D01*
X335256Y694761D01*
X336744Y695756D01*
X337739Y697244D01*
X338088Y699000D01*
X337739Y700756D01*
X336744Y702244D01*
X335256Y703239D01*
X333500Y703588D01*
D02*
G37*
G36*
X73000Y702138D02*
X71244Y701789D01*
X69756Y700794D01*
X68761Y699306D01*
X68412Y697550D01*
X68761Y695794D01*
X69756Y694306D01*
X71244Y693311D01*
X73000Y692962D01*
X74756Y693311D01*
X76244Y694306D01*
X77239Y695794D01*
X77588Y697550D01*
X77239Y699306D01*
X76244Y700794D01*
X74756Y701789D01*
X73000Y702138D01*
D02*
G37*
G36*
X223500Y705088D02*
X221744Y704739D01*
X220256Y703744D01*
X219261Y702256D01*
X218912Y700500D01*
X219261Y698744D01*
X220256Y697256D01*
X221744Y696261D01*
X223500Y695912D01*
X225256Y696261D01*
X226744Y697256D01*
X227739Y698744D01*
X228088Y700500D01*
X227739Y702256D01*
X226744Y703744D01*
X225256Y704739D01*
X223500Y705088D01*
D02*
G37*
G36*
X149500Y704588D02*
X147744Y704239D01*
X146256Y703244D01*
X145261Y701756D01*
X144912Y700000D01*
X145261Y698244D01*
X146256Y696756D01*
X147744Y695761D01*
X149500Y695412D01*
X151256Y695761D01*
X152744Y696756D01*
X153739Y698244D01*
X154088Y700000D01*
X153739Y701756D01*
X152744Y703244D01*
X151256Y704239D01*
X149500Y704588D01*
D02*
G37*
G36*
X323000Y657588D02*
X321244Y657239D01*
X319756Y656244D01*
X318761Y654756D01*
X318412Y653000D01*
X318761Y651244D01*
X319756Y649756D01*
X321244Y648761D01*
X323000Y648412D01*
X324756Y648761D01*
X326244Y649756D01*
X327239Y651244D01*
X327588Y653000D01*
X327239Y654756D01*
X326244Y656244D01*
X324756Y657239D01*
X323000Y657588D01*
D02*
G37*
G36*
X202000Y619088D02*
X200244Y618739D01*
X198756Y617744D01*
X197761Y616256D01*
X197412Y614500D01*
X197761Y612744D01*
X198756Y611256D01*
X200244Y610261D01*
X202000Y609912D01*
X203756Y610261D01*
X205244Y611256D01*
X206239Y612744D01*
X206588Y614500D01*
X206239Y616256D01*
X205244Y617744D01*
X203756Y618739D01*
X202000Y619088D01*
D02*
G37*
G36*
X321000Y634088D02*
X319244Y633739D01*
X317756Y632744D01*
X316761Y631256D01*
X316412Y629500D01*
X316761Y627744D01*
X317756Y626256D01*
X319244Y625261D01*
X321000Y624912D01*
X322756Y625261D01*
X324244Y626256D01*
X325239Y627744D01*
X325588Y629500D01*
X325239Y631256D01*
X324244Y632744D01*
X322756Y633739D01*
X321000Y634088D01*
D02*
G37*
G36*
X334750Y628088D02*
X332994Y627739D01*
X331506Y626744D01*
X330511Y625256D01*
X330162Y623500D01*
X330511Y621744D01*
X331506Y620256D01*
X332994Y619261D01*
X334750Y618912D01*
X336506Y619261D01*
X337994Y620256D01*
X338989Y621744D01*
X339338Y623500D01*
X338989Y625256D01*
X337994Y626744D01*
X336506Y627739D01*
X334750Y628088D01*
D02*
G37*
G36*
X321000Y618588D02*
X319244Y618239D01*
X317756Y617244D01*
X316761Y615756D01*
X316412Y614000D01*
X316761Y612244D01*
X317756Y610756D01*
X319244Y609761D01*
X321000Y609412D01*
X322756Y609761D01*
X324244Y610756D01*
X325239Y612244D01*
X325588Y614000D01*
X325239Y615756D01*
X324244Y617244D01*
X322756Y618239D01*
X321000Y618588D01*
D02*
G37*
G36*
X277500Y611088D02*
X275744Y610739D01*
X274256Y609744D01*
X273261Y608256D01*
X272912Y606500D01*
X273261Y604744D01*
X274256Y603256D01*
X275744Y602261D01*
X277500Y601912D01*
X279256Y602261D01*
X280744Y603256D01*
X281739Y604744D01*
X282088Y606500D01*
X281739Y608256D01*
X280744Y609744D01*
X279256Y610739D01*
X277500Y611088D01*
D02*
G37*
G36*
X95000Y617588D02*
X93244Y617239D01*
X91756Y616244D01*
X90761Y614756D01*
X90412Y613000D01*
X90761Y611244D01*
X91343Y610374D01*
X91609Y609000D01*
X91343Y607626D01*
X90761Y606756D01*
X90412Y605000D01*
X90761Y603244D01*
X91756Y601756D01*
X93244Y600761D01*
X95000Y600412D01*
X96756Y600761D01*
X98244Y601756D01*
X99239Y603244D01*
X99588Y605000D01*
X99239Y606756D01*
X98657Y607626D01*
X98391Y609000D01*
X98657Y610374D01*
X99239Y611244D01*
X99588Y613000D01*
X99239Y614756D01*
X98244Y616244D01*
X96756Y617239D01*
X95000Y617588D01*
D02*
G37*
G36*
X230500Y616588D02*
X228744Y616239D01*
X227256Y615244D01*
X226261Y613756D01*
X225912Y612000D01*
X226261Y610244D01*
X227256Y608756D01*
X228744Y607761D01*
X230500Y607412D01*
X232256Y607761D01*
X233744Y608756D01*
X234739Y610244D01*
X235088Y612000D01*
X234739Y613756D01*
X233744Y615244D01*
X232256Y616239D01*
X230500Y616588D01*
D02*
G37*
G36*
X286499Y617587D02*
X284744Y617238D01*
X283255Y616243D01*
X282260Y614755D01*
X281911Y612999D01*
X282260Y611243D01*
X283255Y609754D01*
X284744Y608760D01*
X285975Y608515D01*
X287912Y608000D01*
X288261Y606244D01*
X289256Y604756D01*
X290744Y603761D01*
X292500Y603412D01*
X294256Y603761D01*
X295744Y604756D01*
X296739Y606244D01*
X297088Y608000D01*
X296739Y609756D01*
X295744Y611244D01*
X294256Y612239D01*
X293024Y612484D01*
X291088Y612999D01*
X290738Y614755D01*
X289744Y616243D01*
X288255Y617238D01*
X286499Y617587D01*
D02*
G37*
G36*
X250000Y634588D02*
X248244Y634239D01*
X246756Y633244D01*
X245761Y631756D01*
X245412Y630000D01*
X245761Y628244D01*
X246756Y626756D01*
X248244Y625761D01*
X250000Y625412D01*
X251756Y625761D01*
X253244Y626756D01*
X254239Y628244D01*
X254588Y630000D01*
X254239Y631756D01*
X253244Y633244D01*
X251756Y634239D01*
X250000Y634588D01*
D02*
G37*
G36*
X190500Y653588D02*
X188744Y653239D01*
X187256Y652244D01*
X186261Y650756D01*
X185912Y649000D01*
X186261Y647244D01*
X187256Y645756D01*
X188744Y644761D01*
X190500Y644412D01*
X192256Y644761D01*
X193744Y645756D01*
X194739Y647244D01*
X195088Y649000D01*
X194739Y650756D01*
X193744Y652244D01*
X192256Y653239D01*
X190500Y653588D01*
D02*
G37*
G36*
X113000Y649088D02*
X111244Y648739D01*
X109756Y647744D01*
X108761Y646256D01*
X108412Y644500D01*
X108761Y642744D01*
X109756Y641256D01*
X111244Y640261D01*
X113000Y639912D01*
X114756Y640261D01*
X116244Y641256D01*
X117239Y642744D01*
X117588Y644500D01*
X117239Y646256D01*
X116244Y647744D01*
X114756Y648739D01*
X113000Y649088D01*
D02*
G37*
G36*
X243950Y654088D02*
X242194Y653739D01*
X240706Y652744D01*
X239711Y651256D01*
X239362Y649500D01*
X239711Y647744D01*
X240706Y646256D01*
X242194Y645261D01*
X243950Y644912D01*
X245706Y645261D01*
X247194Y646256D01*
X248189Y647744D01*
X248538Y649500D01*
X248189Y651256D01*
X247194Y652744D01*
X245706Y653739D01*
X243950Y654088D01*
D02*
G37*
G36*
X224500Y653588D02*
X222744Y653239D01*
X221256Y652244D01*
X220261Y650756D01*
X219912Y649000D01*
X220261Y647244D01*
X221256Y645756D01*
X222744Y644761D01*
X224500Y644412D01*
X226256Y644761D01*
X227744Y645756D01*
X228739Y647244D01*
X229088Y649000D01*
X228739Y650756D01*
X227744Y652244D01*
X226256Y653239D01*
X224500Y653588D01*
D02*
G37*
G36*
X207000Y647088D02*
X205244Y646739D01*
X203756Y645744D01*
X202761Y644256D01*
X202412Y642500D01*
X202761Y640744D01*
X203756Y639256D01*
X205244Y638261D01*
X207000Y637912D01*
X208756Y638261D01*
X210244Y639256D01*
X211239Y640744D01*
X211588Y642500D01*
X211239Y644256D01*
X210244Y645744D01*
X208756Y646739D01*
X207000Y647088D01*
D02*
G37*
G36*
X48500Y644088D02*
X46744Y643739D01*
X45256Y642744D01*
X44261Y641256D01*
X43912Y639500D01*
X44261Y637744D01*
X45256Y636256D01*
X46744Y635261D01*
X48500Y634912D01*
X50256Y635261D01*
X51912Y634000D01*
X52261Y632244D01*
X53256Y630756D01*
X54744Y629761D01*
X56500Y629412D01*
X58256Y629761D01*
X59744Y630756D01*
X60739Y632244D01*
X61088Y634000D01*
X60739Y635756D01*
X59744Y637244D01*
X58256Y638239D01*
X56500Y638588D01*
X54744Y638239D01*
X53088Y639500D01*
X52739Y641256D01*
X51744Y642744D01*
X50256Y643739D01*
X48500Y644088D01*
D02*
G37*
G36*
X217000Y636038D02*
X215244Y635689D01*
X213756Y634694D01*
X212761Y633206D01*
X212412Y631450D01*
X212761Y629694D01*
X213756Y628206D01*
X215244Y627211D01*
X217000Y626862D01*
X218756Y627211D01*
X220244Y628206D01*
X221239Y629694D01*
X221588Y631450D01*
X221239Y633206D01*
X220244Y634694D01*
X218756Y635689D01*
X217000Y636038D01*
D02*
G37*
G36*
X130450Y645588D02*
X128694Y645239D01*
X127206Y644244D01*
X126211Y642756D01*
X125862Y641000D01*
X126211Y639244D01*
X127206Y637756D01*
X128694Y636761D01*
X130450Y636412D01*
X132206Y636761D01*
X133694Y637756D01*
X134689Y639244D01*
X135038Y641000D01*
X134689Y642756D01*
X133694Y644244D01*
X132206Y645239D01*
X130450Y645588D01*
D02*
G37*
G36*
X181000Y636587D02*
X179244Y636238D01*
X177756Y635243D01*
X176761Y633755D01*
X176593Y632909D01*
X176472Y632706D01*
X174528Y632706D01*
X174407Y632909D01*
X174239Y633755D01*
X173244Y635243D01*
X171756Y636238D01*
X170000Y636587D01*
X168244Y636238D01*
X166755Y635243D01*
X165761Y633755D01*
X165574Y632813D01*
X164000Y631087D01*
X162244Y630738D01*
X160755Y629743D01*
X159761Y628255D01*
X159411Y626499D01*
X159761Y624743D01*
X160755Y623254D01*
X162244Y622260D01*
X164000Y621911D01*
X165756Y622260D01*
X167244Y623254D01*
X168239Y624743D01*
X168426Y625684D01*
X168871Y626173D01*
X170861Y625974D01*
X171092Y625589D01*
X171261Y624743D01*
X172255Y623254D01*
X173744Y622260D01*
X175500Y621911D01*
X177255Y622260D01*
X178744Y623254D01*
X179739Y624743D01*
X179907Y625589D01*
X180129Y625959D01*
X182020D01*
X182261Y624744D01*
X183256Y623256D01*
X184744Y622261D01*
X186500Y621912D01*
X188256Y622261D01*
X189744Y623256D01*
X190739Y624744D01*
X191088Y626500D01*
X190739Y628256D01*
X189744Y629744D01*
X188256Y630739D01*
X187410Y630907D01*
X185588Y631999D01*
X185239Y633755D01*
X184244Y635243D01*
X182756Y636238D01*
X181000Y636587D01*
D02*
G37*
G36*
X132000Y387000D02*
X110000D01*
Y365000D01*
X132000D01*
Y387000D01*
D02*
G37*
G36*
X241000Y387095D02*
X238128Y386717D01*
X235452Y385608D01*
X233155Y383845D01*
X231392Y381548D01*
X230283Y378872D01*
X229905Y376000D01*
X230283Y373128D01*
X231392Y370452D01*
X233155Y368155D01*
X235452Y366391D01*
X238128Y365283D01*
X241000Y364905D01*
X243872Y365283D01*
X246548Y366391D01*
X248845Y368155D01*
X250609Y370452D01*
X251717Y373128D01*
X252095Y376000D01*
X251717Y378872D01*
X250609Y381548D01*
X248845Y383845D01*
X246548Y385608D01*
X243872Y386717D01*
X241000Y387095D01*
D02*
G37*
G36*
X277000Y387000D02*
X255000D01*
Y365000D01*
X277000D01*
Y387000D01*
D02*
G37*
G36*
X71000Y387095D02*
X68128Y386717D01*
X65453Y385608D01*
X63155Y383845D01*
X61392Y381548D01*
X60283Y378872D01*
X59905Y376000D01*
X60283Y373128D01*
X61392Y370452D01*
X63155Y368155D01*
X65453Y366391D01*
X68128Y365283D01*
X71000Y364905D01*
X73872Y365283D01*
X76547Y366391D01*
X78845Y368155D01*
X80609Y370452D01*
X81717Y373128D01*
X82095Y376000D01*
X81717Y378872D01*
X80609Y381548D01*
X78845Y383845D01*
X76547Y385608D01*
X73872Y386717D01*
X71000Y387095D01*
D02*
G37*
G36*
X96000D02*
X93128Y386717D01*
X90453Y385608D01*
X88155Y383845D01*
X86391Y381548D01*
X85283Y378872D01*
X84905Y376000D01*
X85283Y373128D01*
X86391Y370452D01*
X88155Y368155D01*
X90453Y366391D01*
X93128Y365283D01*
X96000Y364905D01*
X98872Y365283D01*
X101547Y366391D01*
X103845Y368155D01*
X105609Y370452D01*
X106717Y373128D01*
X107095Y376000D01*
X106717Y378872D01*
X105609Y381548D01*
X103845Y383845D01*
X101547Y385608D01*
X98872Y386717D01*
X96000Y387095D01*
D02*
G37*
G36*
X216000D02*
X213128Y386717D01*
X210452Y385608D01*
X208155Y383845D01*
X206392Y381548D01*
X205283Y378872D01*
X204905Y376000D01*
X205283Y373128D01*
X206392Y370452D01*
X208155Y368155D01*
X210452Y366391D01*
X213128Y365283D01*
X216000Y364905D01*
X218872Y365283D01*
X221548Y366391D01*
X223845Y368155D01*
X225609Y370452D01*
X226717Y373128D01*
X227095Y376000D01*
X226717Y378872D01*
X225609Y381548D01*
X223845Y383845D01*
X221548Y385608D01*
X218872Y386717D01*
X216000Y387095D01*
D02*
G37*
G36*
X171500Y389088D02*
X169744Y388739D01*
X168256Y387744D01*
X167261Y386256D01*
X166912Y384500D01*
X167261Y382744D01*
X168256Y381256D01*
X169744Y380261D01*
X171500Y379912D01*
X173256Y380261D01*
X174744Y381256D01*
X175739Y382744D01*
X176088Y384500D01*
X175739Y386256D01*
X174744Y387744D01*
X173256Y388739D01*
X171500Y389088D01*
D02*
G37*
G36*
X326500Y394088D02*
X324744Y393739D01*
X323256Y392744D01*
X322261Y391256D01*
X321912Y389500D01*
X322261Y387744D01*
X323256Y386256D01*
X324744Y385261D01*
X326500Y384912D01*
X328256Y385261D01*
X329744Y386256D01*
X330739Y387744D01*
X331088Y389500D01*
X330739Y391256D01*
X329744Y392744D01*
X328256Y393739D01*
X326500Y394088D01*
D02*
G37*
G36*
X45500Y397588D02*
X43744Y397239D01*
X42256Y396244D01*
X41261Y394756D01*
X40912Y393000D01*
X41261Y391244D01*
X42256Y389756D01*
X43677Y388806D01*
X43704Y388630D01*
X43295Y386739D01*
X43128Y386717D01*
X40453Y385608D01*
X39859Y385153D01*
X38045Y386282D01*
X38088Y386500D01*
X37739Y388256D01*
X36744Y389744D01*
X35256Y390739D01*
X33500Y391088D01*
X31744Y390739D01*
X30256Y389744D01*
X29261Y388256D01*
X28912Y386500D01*
X29261Y384744D01*
X30256Y383256D01*
X31744Y382261D01*
X33500Y381912D01*
X34457Y382102D01*
X35962Y380511D01*
X35283Y378872D01*
X35110Y377553D01*
X34142Y377134D01*
X33007Y376903D01*
X31756Y377739D01*
X30000Y378088D01*
X28244Y377739D01*
X26756Y376744D01*
X25761Y375256D01*
X25412Y373500D01*
X25761Y371744D01*
X26756Y370256D01*
X28244Y369261D01*
X30000Y368912D01*
X31756Y369261D01*
X33244Y370256D01*
X33901Y371239D01*
X35712Y371299D01*
X36088Y371186D01*
X36391Y370452D01*
X38155Y368155D01*
X40453Y366391D01*
X43128Y365283D01*
X46000Y364905D01*
X48872Y365283D01*
X51547Y366391D01*
X53845Y368155D01*
X55609Y370452D01*
X56717Y373128D01*
X57095Y376000D01*
X56717Y378872D01*
X55609Y381548D01*
X53845Y383845D01*
X51547Y385608D01*
X48872Y386717D01*
X47744Y386865D01*
X47454Y387991D01*
X47488Y388916D01*
X48744Y389756D01*
X49739Y391244D01*
X50088Y393000D01*
X49739Y394756D01*
X48744Y396244D01*
X47256Y397239D01*
X45500Y397588D01*
D02*
G37*
G36*
X11500Y383588D02*
X9744Y383239D01*
X8256Y382244D01*
X7261Y380756D01*
X6912Y379000D01*
X7261Y377244D01*
X8256Y375756D01*
X9744Y374761D01*
X11500Y374412D01*
X13256Y374761D01*
X14744Y375756D01*
X15739Y377244D01*
X16088Y379000D01*
X15739Y380756D01*
X14744Y382244D01*
X13256Y383239D01*
X11500Y383588D01*
D02*
G37*
G36*
X191000Y387095D02*
X188128Y386717D01*
X185452Y385608D01*
X183155Y383845D01*
X181392Y381548D01*
X180283Y378872D01*
X179917Y376092D01*
X179739Y375969D01*
X177887Y375530D01*
X177744Y375744D01*
X176256Y376739D01*
X174500Y377088D01*
X172744Y376739D01*
X171256Y375744D01*
X170261Y374256D01*
X169912Y372500D01*
X170261Y370744D01*
X171256Y369256D01*
X172744Y368261D01*
X174500Y367912D01*
X176256Y368261D01*
X177744Y369256D01*
X178739Y370744D01*
X178858Y371343D01*
X180938Y371548D01*
X181392Y370452D01*
X183155Y368155D01*
X185452Y366391D01*
X188128Y365283D01*
X189673Y365080D01*
X189902Y364344D01*
X189930Y363029D01*
X188756Y362244D01*
X187761Y360756D01*
X187412Y359000D01*
X187761Y357244D01*
X188756Y355756D01*
X190244Y354761D01*
X192000Y354412D01*
X193756Y354761D01*
X195244Y355756D01*
X196239Y357244D01*
X196588Y359000D01*
X196239Y360756D01*
X195244Y362244D01*
X193756Y363239D01*
X193720Y363246D01*
X193787Y365272D01*
X193872Y365283D01*
X196548Y366391D01*
X197086Y366805D01*
X198243Y366080D01*
X198717Y365536D01*
X198412Y364000D01*
X198761Y362244D01*
X199756Y360756D01*
X201244Y359761D01*
X203000Y359412D01*
X204756Y359761D01*
X206244Y360756D01*
X207239Y362244D01*
X207588Y364000D01*
X207239Y365756D01*
X206244Y367244D01*
X204756Y368239D01*
X203000Y368588D01*
X201464Y368283D01*
X200920Y368757D01*
X200195Y369914D01*
X200609Y370452D01*
X201717Y373128D01*
X202095Y376000D01*
X201717Y378872D01*
X200609Y381548D01*
X198845Y383845D01*
X196548Y385608D01*
X193872Y386717D01*
X191000Y387095D01*
D02*
G37*
G36*
X296950Y386088D02*
X295194Y385739D01*
X293706Y384744D01*
X292711Y383256D01*
X292362Y381500D01*
X292711Y379744D01*
X293706Y378256D01*
X295194Y377261D01*
X296950Y376912D01*
X298706Y377261D01*
X300194Y378256D01*
X301189Y379744D01*
X301538Y381500D01*
X301189Y383256D01*
X300194Y384744D01*
X298706Y385739D01*
X296950Y386088D01*
D02*
G37*
G36*
X337000Y386088D02*
X335244Y385739D01*
X333756Y384744D01*
X332761Y383256D01*
X332412Y381500D01*
X332761Y379744D01*
X333756Y378256D01*
X335244Y377261D01*
X337000Y376912D01*
X338756Y377261D01*
X340244Y378256D01*
X341239Y379744D01*
X341588Y381500D01*
X341239Y383256D01*
X340244Y384744D01*
X338756Y385739D01*
X337000Y386088D01*
D02*
G37*
G36*
X147000Y365088D02*
X145244Y364739D01*
X143756Y363744D01*
X142761Y362256D01*
X142593Y361409D01*
X141842Y360158D01*
X140590Y359407D01*
X139744Y359238D01*
X138255Y358244D01*
X137261Y356755D01*
X136912Y354999D01*
X137261Y353243D01*
X138255Y351755D01*
X139744Y350760D01*
X141500Y350411D01*
X143256Y350760D01*
X144744Y351755D01*
X145739Y353243D01*
X145907Y354090D01*
X146028Y354292D01*
X147971Y354292D01*
X148092Y354090D01*
X148261Y353243D01*
X149255Y351755D01*
X150744Y350760D01*
X152500Y350411D01*
X154256Y350760D01*
X155744Y351755D01*
X156739Y353243D01*
X156793Y353516D01*
X158501Y354776D01*
X159810Y354419D01*
X160062Y354244D01*
X160261Y353244D01*
X161255Y351756D01*
X162744Y350761D01*
X164500Y350412D01*
X166255Y350761D01*
X167744Y351756D01*
X168739Y353244D01*
X169088Y355000D01*
X168739Y356756D01*
X167744Y358244D01*
X166255Y359239D01*
X165024Y359484D01*
X163087Y359999D01*
X162738Y361755D01*
X161744Y363244D01*
X160255Y364238D01*
X158499Y364587D01*
X156743Y364238D01*
X155255Y363244D01*
X154260Y361755D01*
X154169Y361295D01*
X153644Y360758D01*
X151658Y360992D01*
X151407Y361409D01*
X151239Y362256D01*
X150244Y363744D01*
X148756Y364739D01*
X147000Y365088D01*
D02*
G37*
G36*
X104000Y359587D02*
X102244Y359238D01*
X100756Y358244D01*
X99761Y356755D01*
X99412Y354999D01*
X99761Y353243D01*
X100756Y351755D01*
X102244Y350760D01*
X104000Y350411D01*
X105756Y350760D01*
X107244Y351755D01*
X108239Y353243D01*
X108588Y354999D01*
X108239Y356755D01*
X107244Y358244D01*
X105756Y359238D01*
X104000Y359587D01*
D02*
G37*
G36*
X324000Y366588D02*
X322244Y366239D01*
X320756Y365244D01*
X319761Y363756D01*
X319412Y362000D01*
X319761Y360244D01*
X320756Y358756D01*
X322244Y357761D01*
X324000Y357412D01*
X325756Y357761D01*
X327244Y358756D01*
X328239Y360244D01*
X328588Y362000D01*
X328239Y363756D01*
X327244Y365244D01*
X325756Y366239D01*
X324000Y366588D01*
D02*
G37*
G36*
X299000D02*
X297244Y366239D01*
X295756Y365244D01*
X294761Y363756D01*
X294412Y362000D01*
X294761Y360244D01*
X295756Y358756D01*
X297244Y357761D01*
X299000Y357412D01*
X300756Y357761D01*
X302244Y358756D01*
X303239Y360244D01*
X303588Y362000D01*
X303239Y363756D01*
X302244Y365244D01*
X300756Y366239D01*
X299000Y366588D01*
D02*
G37*
G36*
X37500Y364588D02*
X35744Y364239D01*
X34256Y363244D01*
X33261Y361756D01*
X32912Y360000D01*
X33261Y358244D01*
X34256Y356756D01*
X35744Y355761D01*
X37500Y355412D01*
X39256Y355761D01*
X40744Y356756D01*
X41739Y358244D01*
X42088Y360000D01*
X41739Y361756D01*
X40744Y363244D01*
X39256Y364239D01*
X37500Y364588D01*
D02*
G37*
G36*
X60500Y362588D02*
X58744Y362239D01*
X57256Y361244D01*
X56261Y359756D01*
X55912Y358000D01*
X56261Y356244D01*
X57256Y354756D01*
X58744Y353761D01*
X60500Y353412D01*
X62256Y353761D01*
X63744Y354756D01*
X64739Y356244D01*
X65088Y358000D01*
X64739Y359756D01*
X63744Y361244D01*
X62256Y362239D01*
X60500Y362588D01*
D02*
G37*
G36*
X180500Y365588D02*
X178744Y365239D01*
X177256Y364244D01*
X176261Y362756D01*
X175912Y361000D01*
X176261Y359244D01*
X177256Y357756D01*
X178744Y356761D01*
X180500Y356412D01*
X182256Y356761D01*
X183744Y357756D01*
X184739Y359244D01*
X185088Y361000D01*
X184739Y362756D01*
X183744Y364244D01*
X182256Y365239D01*
X180500Y365588D01*
D02*
G37*
G36*
X104000Y480588D02*
X102244Y480239D01*
X100756Y479244D01*
X99761Y477756D01*
X99412Y476000D01*
X99761Y474244D01*
X100756Y472756D01*
X102244Y471761D01*
X104000Y471412D01*
X105756Y471761D01*
X107244Y472756D01*
X108239Y474244D01*
X108588Y476000D01*
X108239Y477756D01*
X107244Y479244D01*
X105756Y480239D01*
X104000Y480588D01*
D02*
G37*
G36*
X21000Y506588D02*
X19244Y506239D01*
X17756Y505244D01*
X16761Y503756D01*
X16412Y502000D01*
X16761Y500244D01*
X17756Y498756D01*
X19244Y497761D01*
X21000Y497412D01*
X22756Y497761D01*
X24244Y498756D01*
X25239Y500244D01*
X25588Y502000D01*
X25239Y503756D01*
X24244Y505244D01*
X22756Y506239D01*
X21000Y506588D01*
D02*
G37*
G36*
X76000Y499088D02*
X74244Y498739D01*
X72756Y497744D01*
X71761Y496256D01*
X71412Y494500D01*
X71761Y492744D01*
X72756Y491256D01*
X74244Y490261D01*
X76000Y489912D01*
X77756Y490261D01*
X79244Y491256D01*
X80239Y492744D01*
X80588Y494500D01*
X80239Y496256D01*
X79244Y497744D01*
X77756Y498739D01*
X76000Y499088D01*
D02*
G37*
G36*
X35000Y418588D02*
X33244Y418239D01*
X31756Y417244D01*
X30761Y415756D01*
X30412Y414000D01*
X30761Y412244D01*
X31756Y410756D01*
X33244Y409761D01*
X35000Y409412D01*
X36756Y409761D01*
X38244Y410756D01*
X39239Y412244D01*
X39588Y414000D01*
X39239Y415756D01*
X38244Y417244D01*
X36756Y418239D01*
X35000Y418588D01*
D02*
G37*
G36*
X183500Y405088D02*
X181744Y404739D01*
X180256Y403744D01*
X179261Y402256D01*
X178912Y400500D01*
X179261Y398744D01*
X180256Y397256D01*
X181744Y396261D01*
X183500Y395912D01*
X185256Y396261D01*
X186744Y397256D01*
X187739Y398744D01*
X188088Y400500D01*
X187739Y402256D01*
X186744Y403744D01*
X185256Y404739D01*
X183500Y405088D01*
D02*
G37*
G36*
X180500Y423588D02*
X178744Y423239D01*
X177256Y422244D01*
X176261Y420756D01*
X175912Y419000D01*
X176261Y417244D01*
X177256Y415756D01*
X178744Y414761D01*
X180500Y414412D01*
X182256Y414761D01*
X183744Y415756D01*
X184739Y417244D01*
X185088Y419000D01*
X184739Y420756D01*
X183744Y422244D01*
X182256Y423239D01*
X180500Y423588D01*
D02*
G37*
G36*
X328500Y418588D02*
X326744Y418239D01*
X325256Y417244D01*
X324261Y415756D01*
X323912Y414000D01*
X324261Y412244D01*
X325256Y410756D01*
X326744Y409761D01*
X328500Y409412D01*
X330256Y409761D01*
X331744Y410756D01*
X332739Y412244D01*
X333088Y414000D01*
X332739Y415756D01*
X331744Y417244D01*
X330256Y418239D01*
X328500Y418588D01*
D02*
G37*
G36*
X58500Y403588D02*
X56744Y403239D01*
X55256Y402244D01*
X54261Y400756D01*
X53912Y399000D01*
X54261Y397244D01*
X55256Y395756D01*
X56744Y394761D01*
X58500Y394412D01*
X60256Y394761D01*
X61744Y395756D01*
X62739Y397244D01*
X63088Y399000D01*
X62739Y400756D01*
X61744Y402244D01*
X60256Y403239D01*
X58500Y403588D01*
D02*
G37*
G36*
X233000Y398588D02*
X231244Y398239D01*
X229756Y397244D01*
X228761Y395756D01*
X228412Y394000D01*
X228761Y392244D01*
X229756Y390756D01*
X231244Y389761D01*
X233000Y389412D01*
X234756Y389761D01*
X236244Y390756D01*
X237239Y392244D01*
X237588Y394000D01*
X237239Y395756D01*
X236244Y397244D01*
X234756Y398239D01*
X233000Y398588D01*
D02*
G37*
G36*
X199500Y397588D02*
X197744Y397239D01*
X196256Y396244D01*
X195261Y394756D01*
X194912Y393000D01*
X195261Y391244D01*
X196256Y389756D01*
X197744Y388761D01*
X199500Y388412D01*
X201256Y388761D01*
X202744Y389756D01*
X203739Y391244D01*
X204088Y393000D01*
X203739Y394756D01*
X202744Y396244D01*
X201256Y397239D01*
X199500Y397588D01*
D02*
G37*
G36*
X103000Y401588D02*
X101244Y401239D01*
X99756Y400244D01*
X98761Y398756D01*
X98412Y397000D01*
X98761Y395244D01*
X99756Y393756D01*
X101244Y392761D01*
X103000Y392412D01*
X104756Y392761D01*
X106244Y393756D01*
X107239Y395244D01*
X107588Y397000D01*
X107239Y398756D01*
X106244Y400244D01*
X104756Y401239D01*
X103000Y401588D01*
D02*
G37*
G36*
X59000Y424088D02*
X57244Y423739D01*
X55756Y422744D01*
X54761Y421256D01*
X54412Y419500D01*
X54761Y417744D01*
X55756Y416256D01*
X57244Y415261D01*
X59000Y414912D01*
X60756Y415261D01*
X62244Y416256D01*
X63239Y417744D01*
X63588Y419500D01*
X63239Y421256D01*
X62244Y422744D01*
X60756Y423739D01*
X59000Y424088D01*
D02*
G37*
G36*
X170500Y437588D02*
X168744Y437239D01*
X167256Y436244D01*
X166261Y434756D01*
X165912Y433000D01*
X166261Y431244D01*
X167256Y429756D01*
X168744Y428761D01*
X170500Y428412D01*
X172256Y428761D01*
X173744Y429756D01*
X174739Y431244D01*
X175088Y433000D01*
X174739Y434756D01*
X173744Y436244D01*
X172256Y437239D01*
X170500Y437588D01*
D02*
G37*
G36*
X182000Y437088D02*
X180244Y436739D01*
X178756Y435744D01*
X177761Y434256D01*
X177412Y432500D01*
X177761Y430744D01*
X178756Y429256D01*
X180244Y428261D01*
X182000Y427912D01*
X183756Y428261D01*
X185244Y429256D01*
X186239Y430744D01*
X186588Y432500D01*
X186239Y434256D01*
X185244Y435744D01*
X183756Y436739D01*
X182000Y437088D01*
D02*
G37*
G36*
X89500Y462332D02*
X87020Y462006D01*
X84709Y461048D01*
X82725Y459525D01*
X81202Y457541D01*
X80245Y455230D01*
X79918Y452750D01*
X80245Y450270D01*
X81202Y447959D01*
X82725Y445975D01*
X84709Y444452D01*
X87020Y443494D01*
X89500Y443168D01*
X91980Y443494D01*
X94291Y444452D01*
X96275Y445975D01*
X97798Y447959D01*
X98756Y450270D01*
X99082Y452750D01*
X98756Y455230D01*
X97798Y457541D01*
X96275Y459525D01*
X94291Y461048D01*
X91980Y462006D01*
X89500Y462332D01*
D02*
G37*
G36*
X247000Y434588D02*
X245244Y434239D01*
X243756Y433244D01*
X242761Y431756D01*
X242412Y430000D01*
X242761Y428244D01*
X243756Y426756D01*
X245244Y425761D01*
X247000Y425412D01*
X248756Y425761D01*
X250244Y426756D01*
X251239Y428244D01*
X251588Y430000D01*
X251239Y431756D01*
X250244Y433244D01*
X248756Y434239D01*
X247000Y434588D01*
D02*
G37*
G36*
X165500Y427588D02*
X163744Y427239D01*
X162256Y426244D01*
X161261Y424756D01*
X160912Y423000D01*
X161261Y421244D01*
X162256Y419756D01*
X163744Y418761D01*
X165500Y418412D01*
X167256Y418761D01*
X168744Y419756D01*
X169739Y421244D01*
X170088Y423000D01*
X169739Y424756D01*
X168744Y426244D01*
X167256Y427239D01*
X165500Y427588D01*
D02*
G37*
G36*
X288000Y438588D02*
X286244Y438239D01*
X284756Y437244D01*
X283761Y435756D01*
X283412Y434000D01*
X283761Y432244D01*
X284756Y430756D01*
X285419Y430313D01*
X285312Y429050D01*
X285083Y428131D01*
X283756Y427244D01*
X282761Y425756D01*
X282412Y424000D01*
X282761Y422244D01*
X283756Y420756D01*
X285244Y419761D01*
X287000Y419412D01*
X288756Y419761D01*
X290244Y420756D01*
X291239Y422244D01*
X291588Y424000D01*
X291239Y425756D01*
X290244Y427244D01*
X289582Y427687D01*
X289688Y428950D01*
X289917Y429869D01*
X291244Y430756D01*
X292239Y432244D01*
X292588Y434000D01*
X292239Y435756D01*
X291244Y437244D01*
X289756Y438239D01*
X288000Y438588D01*
D02*
G37*
G36*
X71000Y168588D02*
X69244Y168239D01*
X67756Y167244D01*
X66761Y165756D01*
X66412Y164000D01*
X66761Y162244D01*
X67756Y160756D01*
X69244Y159761D01*
X71000Y159412D01*
X72756Y159761D01*
X74244Y160756D01*
X75239Y162244D01*
X75588Y164000D01*
X75239Y165756D01*
X74244Y167244D01*
X72756Y168239D01*
X71000Y168588D01*
D02*
G37*
G36*
Y109588D02*
X69244Y109239D01*
X67756Y108244D01*
X66761Y106756D01*
X66412Y105000D01*
X66761Y103244D01*
X67756Y101756D01*
X69244Y100761D01*
X71000Y100412D01*
X72756Y100761D01*
X74244Y101756D01*
X75239Y103244D01*
X75588Y105000D01*
X75239Y106756D01*
X74244Y108244D01*
X72756Y109239D01*
X71000Y109588D01*
D02*
G37*
G36*
X81500Y70588D02*
X79744Y70239D01*
X78256Y69244D01*
X77261Y67756D01*
X76912Y66000D01*
X77261Y64244D01*
X78256Y62756D01*
X79744Y61761D01*
X81500Y61412D01*
X83256Y61761D01*
X84744Y62756D01*
X85739Y64244D01*
X86088Y66000D01*
X85739Y67756D01*
X84744Y69244D01*
X83256Y70239D01*
X81500Y70588D01*
D02*
G37*
G36*
X25000Y117588D02*
X23244Y117239D01*
X21756Y116244D01*
X20761Y114756D01*
X20412Y113000D01*
X20761Y111244D01*
X21756Y109756D01*
X23244Y108761D01*
X25000Y108412D01*
X26756Y108761D01*
X28244Y109756D01*
X29239Y111244D01*
X29588Y113000D01*
X29239Y114756D01*
X28244Y116244D01*
X26756Y117239D01*
X25000Y117588D01*
D02*
G37*
G36*
X26500Y341588D02*
X24744Y341239D01*
X23256Y340244D01*
X22261Y338756D01*
X21912Y337000D01*
X22261Y335244D01*
X23256Y333756D01*
X24744Y332761D01*
X26500Y332412D01*
X28256Y332761D01*
X29744Y333756D01*
X30739Y335244D01*
X31088Y337000D01*
X30739Y338756D01*
X29744Y340244D01*
X28256Y341239D01*
X26500Y341588D01*
D02*
G37*
G36*
X65000Y328588D02*
X63244Y328239D01*
X61756Y327244D01*
X60761Y325756D01*
X60412Y324000D01*
X60761Y322244D01*
X61756Y320756D01*
X63244Y319761D01*
X65000Y319412D01*
X66756Y319761D01*
X68244Y320756D01*
X69239Y322244D01*
X69588Y324000D01*
X69239Y325756D01*
X68244Y327244D01*
X66756Y328239D01*
X65000Y328588D01*
D02*
G37*
G36*
X83500Y289588D02*
X81744Y289239D01*
X80256Y288244D01*
X79261Y286756D01*
X78912Y285000D01*
X79261Y283244D01*
X80256Y281756D01*
X81744Y280761D01*
X83500Y280412D01*
X85256Y280761D01*
X86744Y281756D01*
X87739Y283244D01*
X88088Y285000D01*
X87739Y286756D01*
X86744Y288244D01*
X85256Y289239D01*
X83500Y289588D01*
D02*
G37*
G36*
X49000Y798588D02*
X47244Y798239D01*
X45756Y797244D01*
X44761Y795756D01*
X44412Y794000D01*
X44761Y792244D01*
X45756Y790756D01*
X47244Y789761D01*
X49000Y789412D01*
X50756Y789761D01*
X52244Y790756D01*
X53239Y792244D01*
X53588Y794000D01*
X53239Y795756D01*
X52244Y797244D01*
X50756Y798239D01*
X49000Y798588D01*
D02*
G37*
G36*
X14000Y803588D02*
X12244Y803239D01*
X10756Y802244D01*
X9761Y800756D01*
X9412Y799000D01*
X9761Y797244D01*
X10756Y795756D01*
X12244Y794761D01*
X14000Y794412D01*
X15756Y794761D01*
X17244Y795756D01*
X18239Y797244D01*
X18588Y799000D01*
X18239Y800756D01*
X17244Y802244D01*
X15756Y803239D01*
X14000Y803588D01*
D02*
G37*
G36*
X114500Y796588D02*
X112744Y796239D01*
X111256Y795244D01*
X110261Y793756D01*
X109912Y792000D01*
X110261Y790244D01*
X111256Y788756D01*
X112744Y787761D01*
X114500Y787412D01*
X116256Y787761D01*
X117744Y788756D01*
X118739Y790244D01*
X119088Y792000D01*
X118739Y793756D01*
X117744Y795244D01*
X116256Y796239D01*
X114500Y796588D01*
D02*
G37*
G36*
X94500Y792088D02*
X92744Y791739D01*
X91256Y790744D01*
X90261Y789256D01*
X89912Y787500D01*
X90261Y785744D01*
X91256Y784256D01*
X92744Y783261D01*
X94500Y782912D01*
X96256Y783261D01*
X97744Y784256D01*
X98739Y785744D01*
X99088Y787500D01*
X98739Y789256D01*
X97744Y790744D01*
X96256Y791739D01*
X94500Y792088D01*
D02*
G37*
G36*
X83000Y803588D02*
X81244Y803239D01*
X79756Y802244D01*
X78761Y800756D01*
X78412Y799000D01*
X78761Y797244D01*
X79756Y795756D01*
X81244Y794761D01*
X83000Y794412D01*
X84756Y794761D01*
X86244Y795756D01*
X87239Y797244D01*
X87588Y799000D01*
X87239Y800756D01*
X86244Y802244D01*
X84756Y803239D01*
X83000Y803588D01*
D02*
G37*
G36*
X125000Y829095D02*
X122128Y828717D01*
X119452Y827608D01*
X117155Y825845D01*
X115392Y823547D01*
X114283Y820872D01*
X113905Y818000D01*
X114283Y815128D01*
X115392Y812453D01*
X117155Y810155D01*
X119452Y808391D01*
X122128Y807283D01*
X125000Y806905D01*
X127872Y807283D01*
X130548Y808391D01*
X132845Y810155D01*
X134608Y812453D01*
X135717Y815128D01*
X136095Y818000D01*
X135717Y820872D01*
X134608Y823547D01*
X132845Y825845D01*
X130548Y827608D01*
X127872Y828717D01*
X125000Y829095D01*
D02*
G37*
G36*
X188000Y820088D02*
X186244Y819739D01*
X184756Y818744D01*
X183761Y817256D01*
X183412Y815500D01*
X183761Y813744D01*
X184756Y812256D01*
X186244Y811261D01*
X188000Y810912D01*
X189756Y811261D01*
X191244Y812256D01*
X192239Y813744D01*
X192588Y815500D01*
X192239Y817256D01*
X191244Y818744D01*
X189756Y819739D01*
X188000Y820088D01*
D02*
G37*
G36*
X48500Y824588D02*
X46744Y824239D01*
X45256Y823244D01*
X44261Y821756D01*
X43912Y820000D01*
X44261Y818244D01*
X44688Y817605D01*
X44749Y815487D01*
X44497Y814857D01*
X43761Y813756D01*
X43412Y812000D01*
X43761Y810244D01*
X44756Y808756D01*
X46244Y807761D01*
X48000Y807412D01*
X49756Y807761D01*
X51244Y808756D01*
X52239Y810244D01*
X52588Y812000D01*
X52239Y813756D01*
X51812Y814395D01*
X51751Y816513D01*
X52003Y817143D01*
X52739Y818244D01*
X53088Y820000D01*
X52739Y821756D01*
X51744Y823244D01*
X50256Y824239D01*
X48500Y824588D01*
D02*
G37*
G36*
X101500Y814088D02*
X99744Y813739D01*
X98256Y812744D01*
X97261Y811256D01*
X96912Y809500D01*
X97261Y807744D01*
X98256Y806256D01*
X99744Y805261D01*
X101500Y804912D01*
X103256Y805261D01*
X104744Y806256D01*
X105739Y807744D01*
X106088Y809500D01*
X105739Y811256D01*
X104744Y812744D01*
X103256Y813739D01*
X101500Y814088D01*
D02*
G37*
G36*
X69500Y804088D02*
X67744Y803739D01*
X66256Y802744D01*
X65261Y801256D01*
X64912Y799500D01*
X65261Y797744D01*
X66256Y796256D01*
X67744Y795261D01*
X69500Y794912D01*
X71256Y795261D01*
X72744Y796256D01*
X73739Y797744D01*
X74088Y799500D01*
X73739Y801256D01*
X72744Y802744D01*
X71256Y803739D01*
X69500Y804088D01*
D02*
G37*
G36*
X35500D02*
X33744Y803739D01*
X32256Y802744D01*
X31261Y801256D01*
X30912Y799500D01*
X31261Y797744D01*
X32256Y796256D01*
X33744Y795261D01*
X35500Y794912D01*
X37256Y795261D01*
X38744Y796256D01*
X39739Y797744D01*
X40088Y799500D01*
X39739Y801256D01*
X38744Y802744D01*
X37256Y803739D01*
X35500Y804088D01*
D02*
G37*
G36*
X136500Y806088D02*
X134744Y805739D01*
X133256Y804744D01*
X132261Y803256D01*
X131912Y801500D01*
X132261Y799744D01*
X133256Y798256D01*
X134744Y797261D01*
X136500Y796912D01*
X138256Y797261D01*
X139744Y798256D01*
X140739Y799744D01*
X141088Y801500D01*
X140739Y803256D01*
X139744Y804744D01*
X138256Y805739D01*
X136500Y806088D01*
D02*
G37*
G36*
X19000Y778588D02*
X17244Y778239D01*
X15756Y777244D01*
X14761Y775756D01*
X14412Y774000D01*
X14761Y772244D01*
X15756Y770756D01*
X17244Y769761D01*
X19000Y769412D01*
X20756Y769761D01*
X22244Y770756D01*
X23239Y772244D01*
X23588Y774000D01*
X23239Y775756D01*
X22244Y777244D01*
X20756Y778239D01*
X19000Y778588D01*
D02*
G37*
G36*
X30500Y753588D02*
X28744Y753239D01*
X27256Y752244D01*
X26261Y750756D01*
X25912Y749000D01*
X26261Y747244D01*
X27256Y745756D01*
X28744Y744761D01*
X30500Y744412D01*
X32256Y744761D01*
X33744Y745756D01*
X34739Y747244D01*
X35088Y749000D01*
X34739Y750756D01*
X33744Y752244D01*
X32256Y753239D01*
X30500Y753588D01*
D02*
G37*
G36*
X18500Y754088D02*
X16744Y753739D01*
X15256Y752744D01*
X14261Y751256D01*
X13912Y749500D01*
X14261Y747744D01*
X15256Y746256D01*
X16744Y745261D01*
X18500Y744912D01*
X20256Y745261D01*
X21744Y746256D01*
X22739Y747744D01*
X23088Y749500D01*
X22739Y751256D01*
X21744Y752744D01*
X20256Y753739D01*
X18500Y754088D01*
D02*
G37*
G36*
X16000Y829088D02*
X14244Y828739D01*
X12756Y827744D01*
X11761Y826256D01*
X11412Y824500D01*
X11761Y822744D01*
X12756Y821256D01*
X14244Y820261D01*
X16000Y819912D01*
X17756Y820261D01*
X19244Y821256D01*
X20239Y822744D01*
X20588Y824500D01*
X20239Y826256D01*
X19244Y827744D01*
X17756Y828739D01*
X16000Y829088D01*
D02*
G37*
G36*
X259500Y925088D02*
X257744Y924739D01*
X256256Y923744D01*
X255261Y922256D01*
X254912Y920500D01*
X255261Y918744D01*
X256256Y917256D01*
X257744Y916261D01*
X259500Y915912D01*
X261256Y916261D01*
X262744Y917256D01*
X263739Y918744D01*
X264088Y920500D01*
X263739Y922256D01*
X262744Y923744D01*
X261256Y924739D01*
X259500Y925088D01*
D02*
G37*
G36*
X94500Y921088D02*
X92744Y920739D01*
X91256Y919744D01*
X90261Y918256D01*
X89912Y916500D01*
X90261Y914744D01*
X91256Y913256D01*
X92744Y912261D01*
X94500Y911912D01*
X96256Y912261D01*
X97744Y913256D01*
X98739Y914744D01*
X99088Y916500D01*
X98739Y918256D01*
X97744Y919744D01*
X96256Y920739D01*
X94500Y921088D01*
D02*
G37*
G36*
X149500Y926588D02*
X147744Y926239D01*
X146256Y925244D01*
X145261Y923756D01*
X144912Y922000D01*
X145261Y920244D01*
X146256Y918756D01*
X147744Y917761D01*
X149500Y917412D01*
X151256Y917761D01*
X152744Y918756D01*
X153739Y920244D01*
X154088Y922000D01*
X153739Y923756D01*
X152744Y925244D01*
X151256Y926239D01*
X149500Y926588D01*
D02*
G37*
G36*
X183500Y925588D02*
X181744Y925239D01*
X180256Y924244D01*
X179261Y922756D01*
X178912Y921000D01*
X179261Y919244D01*
X180256Y917756D01*
X181744Y916761D01*
X183500Y916412D01*
X185256Y916761D01*
X186744Y917756D01*
X187739Y919244D01*
X188088Y921000D01*
X187739Y922756D01*
X186744Y924244D01*
X185256Y925239D01*
X183500Y925588D01*
D02*
G37*
G36*
X201000Y915588D02*
X199244Y915239D01*
X197756Y914244D01*
X196761Y912756D01*
X196412Y911000D01*
X196761Y909244D01*
X197756Y907756D01*
X199244Y906761D01*
X201000Y906412D01*
X202756Y906761D01*
X204244Y907756D01*
X205239Y909244D01*
X205588Y911000D01*
X205239Y912756D01*
X204244Y914244D01*
X202756Y915239D01*
X201000Y915588D01*
D02*
G37*
G36*
X228250Y901088D02*
X226494Y900739D01*
X225006Y899744D01*
X224011Y898256D01*
X223662Y896500D01*
X224011Y894744D01*
X225006Y893256D01*
X226494Y892261D01*
X228250Y891912D01*
X230006Y892261D01*
X231494Y893256D01*
X232489Y894744D01*
X232838Y896500D01*
X232489Y898256D01*
X231494Y899744D01*
X230006Y900739D01*
X228250Y901088D01*
D02*
G37*
G36*
X201500D02*
X199744Y900739D01*
X198256Y899744D01*
X197261Y898256D01*
X196912Y896500D01*
X197261Y894744D01*
X198256Y893256D01*
X199744Y892261D01*
X201500Y891912D01*
X203256Y892261D01*
X204744Y893256D01*
X205739Y894744D01*
X206088Y896500D01*
X205739Y898256D01*
X204744Y899744D01*
X203256Y900739D01*
X201500Y901088D01*
D02*
G37*
G36*
X196500Y926588D02*
X194744Y926239D01*
X193256Y925244D01*
X192261Y923756D01*
X191912Y922000D01*
X192261Y920244D01*
X193256Y918756D01*
X194744Y917761D01*
X196500Y917412D01*
X198256Y917761D01*
X199744Y918756D01*
X200739Y920244D01*
X201088Y922000D01*
X200739Y923756D01*
X199744Y925244D01*
X198256Y926239D01*
X196500Y926588D01*
D02*
G37*
G36*
X110000Y984088D02*
X108244Y983739D01*
X106756Y982744D01*
X105761Y981256D01*
X105412Y979500D01*
X105761Y977744D01*
X106756Y976256D01*
X108244Y975261D01*
X110000Y974912D01*
X111756Y975261D01*
X113244Y976256D01*
X114239Y977744D01*
X114588Y979500D01*
X114239Y981256D01*
X113244Y982744D01*
X111756Y983739D01*
X110000Y984088D01*
D02*
G37*
G36*
X190000Y962588D02*
X188244Y962239D01*
X186756Y961244D01*
X185761Y959756D01*
X185412Y958000D01*
X185761Y956244D01*
X186756Y954756D01*
X188244Y953761D01*
X190000Y953412D01*
X191756Y953761D01*
X193244Y954756D01*
X194239Y956244D01*
X194588Y958000D01*
X194239Y959756D01*
X193244Y961244D01*
X191756Y962239D01*
X190000Y962588D01*
D02*
G37*
G36*
X219500Y1001588D02*
X217744Y1001239D01*
X216256Y1000244D01*
X215261Y998756D01*
X214912Y997000D01*
X215261Y995244D01*
X216256Y993756D01*
X217744Y992761D01*
X219500Y992412D01*
X221256Y992761D01*
X222744Y993756D01*
X223739Y995244D01*
X224088Y997000D01*
X223739Y998756D01*
X222744Y1000244D01*
X221256Y1001239D01*
X219500Y1001588D01*
D02*
G37*
G36*
X82000Y999088D02*
X80244Y998739D01*
X78756Y997744D01*
X77761Y996256D01*
X77412Y994500D01*
X77761Y992744D01*
X78756Y991256D01*
X80244Y990261D01*
X82000Y989912D01*
X83756Y990261D01*
X85244Y991256D01*
X86239Y992744D01*
X86588Y994500D01*
X86239Y996256D01*
X85244Y997744D01*
X83756Y998739D01*
X82000Y999088D01*
D02*
G37*
G36*
X137500Y954088D02*
X135744Y953739D01*
X134256Y952744D01*
X133261Y951256D01*
X132912Y949500D01*
X133261Y947744D01*
X134256Y946256D01*
X135744Y945261D01*
X137500Y944912D01*
X139256Y945261D01*
X140744Y946256D01*
X141739Y947744D01*
X142088Y949500D01*
X141739Y951256D01*
X140744Y952744D01*
X139256Y953739D01*
X137500Y954088D01*
D02*
G37*
G36*
X59000Y935088D02*
X57244Y934739D01*
X55756Y933744D01*
X54761Y932256D01*
X54412Y930500D01*
X54761Y928744D01*
X55756Y927256D01*
X57244Y926261D01*
X59000Y925912D01*
X60756Y926261D01*
X62244Y927256D01*
X63239Y928744D01*
X63588Y930500D01*
X63239Y932256D01*
X62244Y933744D01*
X60756Y934739D01*
X59000Y935088D01*
D02*
G37*
G36*
X287000Y932088D02*
X285244Y931739D01*
X283756Y930744D01*
X282761Y929256D01*
X282412Y927500D01*
X282761Y925744D01*
X283756Y924256D01*
X285244Y923261D01*
X287000Y922912D01*
X288756Y923261D01*
X290244Y924256D01*
X291239Y925744D01*
X291588Y927500D01*
X291239Y929256D01*
X290244Y930744D01*
X288756Y931739D01*
X287000Y932088D01*
D02*
G37*
G36*
X85000Y950088D02*
X83244Y949739D01*
X81756Y948744D01*
X80761Y947256D01*
X80412Y945500D01*
X80761Y943744D01*
X81756Y942256D01*
X83244Y941261D01*
X85000Y940912D01*
X86756Y941261D01*
X88244Y942256D01*
X89239Y943744D01*
X89588Y945500D01*
X89239Y947256D01*
X88244Y948744D01*
X86756Y949739D01*
X85000Y950088D01*
D02*
G37*
G36*
X227500Y942088D02*
X225744Y941739D01*
X224256Y940744D01*
X223261Y939256D01*
X222912Y937500D01*
X223261Y935744D01*
X224256Y934256D01*
X225744Y933261D01*
X227500Y932912D01*
X229256Y933261D01*
X230744Y934256D01*
X231739Y935744D01*
X232088Y937500D01*
X231739Y939256D01*
X230744Y940744D01*
X229256Y941739D01*
X227500Y942088D01*
D02*
G37*
G36*
X285000Y899588D02*
X283244Y899239D01*
X281756Y898244D01*
X280761Y896756D01*
X280412Y895000D01*
X280761Y893244D01*
X281756Y891756D01*
X283244Y890761D01*
X285000Y890412D01*
X286756Y890761D01*
X288244Y891756D01*
X289239Y893244D01*
X289588Y895000D01*
X289239Y896756D01*
X288244Y898244D01*
X286756Y899239D01*
X285000Y899588D01*
D02*
G37*
G36*
X39000Y841588D02*
X37244Y841239D01*
X35756Y840244D01*
X34761Y838756D01*
X34412Y837000D01*
X34761Y835244D01*
X35756Y833756D01*
X37244Y832761D01*
X39000Y832412D01*
X40756Y832761D01*
X42244Y833756D01*
X43239Y835244D01*
X43588Y837000D01*
X43239Y838756D01*
X42244Y840244D01*
X40756Y841239D01*
X39000Y841588D01*
D02*
G37*
G36*
X255000Y854095D02*
X252128Y853717D01*
X249452Y852608D01*
X247155Y850845D01*
X245392Y848547D01*
X244283Y845872D01*
X243905Y843000D01*
X244283Y840128D01*
X245392Y837453D01*
X247155Y835155D01*
X249452Y833391D01*
X252128Y832283D01*
X255000Y831905D01*
X257872Y832283D01*
X260548Y833391D01*
X262845Y835155D01*
X264608Y837453D01*
X265717Y840128D01*
X266095Y843000D01*
X265717Y845872D01*
X264608Y848547D01*
X262845Y850845D01*
X260548Y852608D01*
X257872Y853717D01*
X255000Y854095D01*
D02*
G37*
G36*
X13500Y855088D02*
X11744Y854739D01*
X10256Y853744D01*
X9261Y852256D01*
X8912Y850500D01*
X9261Y848744D01*
X10256Y847256D01*
X11744Y846261D01*
X13500Y845912D01*
X15256Y846261D01*
X16744Y847256D01*
X17739Y848744D01*
X18088Y850500D01*
X17739Y852256D01*
X16744Y853744D01*
X15256Y854739D01*
X13500Y855088D01*
D02*
G37*
G36*
X40500Y854888D02*
X38744Y854539D01*
X37256Y853544D01*
X36261Y852056D01*
X35912Y850300D01*
X36261Y848544D01*
X37256Y847056D01*
X38744Y846061D01*
X40500Y845712D01*
X42256Y846061D01*
X43744Y847056D01*
X44739Y848544D01*
X45088Y850300D01*
X44739Y852056D01*
X43744Y853544D01*
X42256Y854539D01*
X40500Y854888D01*
D02*
G37*
G36*
X125000Y854095D02*
X122128Y853717D01*
X119452Y852608D01*
X117155Y850845D01*
X115392Y848547D01*
X114283Y845872D01*
X113905Y843000D01*
X114283Y840128D01*
X115392Y837453D01*
X117155Y835155D01*
X119452Y833391D01*
X122128Y832283D01*
X125000Y831905D01*
X127872Y832283D01*
X130548Y833391D01*
X132845Y835155D01*
X134608Y837453D01*
X135717Y840128D01*
X136095Y843000D01*
X135717Y845872D01*
X134608Y848547D01*
X132845Y850845D01*
X130548Y852608D01*
X127872Y853717D01*
X125000Y854095D01*
D02*
G37*
G36*
X165000Y833088D02*
X163244Y832739D01*
X161756Y831744D01*
X160761Y830256D01*
X160412Y828500D01*
X160761Y826744D01*
X161756Y825256D01*
X163244Y824261D01*
X165000Y823912D01*
X166756Y824261D01*
X168244Y825256D01*
X169239Y826744D01*
X169588Y828500D01*
X169239Y830256D01*
X168244Y831744D01*
X166756Y832739D01*
X165000Y833088D01*
D02*
G37*
G36*
X33500Y829088D02*
X31744Y828739D01*
X30256Y827744D01*
X29261Y826256D01*
X28912Y824500D01*
X29261Y822744D01*
X30256Y821256D01*
X31744Y820261D01*
X33500Y819912D01*
X35256Y820261D01*
X36744Y821256D01*
X37739Y822744D01*
X38088Y824500D01*
X37739Y826256D01*
X36744Y827744D01*
X35256Y828739D01*
X33500Y829088D01*
D02*
G37*
G36*
X103000Y840588D02*
X101244Y840239D01*
X99756Y839244D01*
X98761Y837756D01*
X98412Y836000D01*
X98761Y834244D01*
X99756Y832756D01*
X101244Y831761D01*
X103000Y831412D01*
X104756Y831761D01*
X106244Y832756D01*
X107239Y834244D01*
X107588Y836000D01*
X107239Y837756D01*
X106244Y839244D01*
X104756Y840239D01*
X103000Y840588D01*
D02*
G37*
G36*
X68000Y857588D02*
X66244Y857239D01*
X64756Y856244D01*
X63761Y854756D01*
X63412Y853000D01*
X63761Y851244D01*
X64756Y849756D01*
X66244Y848761D01*
X68000Y848412D01*
X69756Y848761D01*
X71244Y849756D01*
X72239Y851244D01*
X72588Y853000D01*
X72239Y854756D01*
X71244Y856244D01*
X69756Y857239D01*
X68000Y857588D01*
D02*
G37*
G36*
X136000Y904000D02*
X114000D01*
Y882000D01*
X136000D01*
Y904000D01*
D02*
G37*
G36*
X67000Y881588D02*
X65244Y881239D01*
X63756Y880244D01*
X62761Y878756D01*
X62412Y877000D01*
X62761Y875244D01*
X63756Y873756D01*
X65244Y872761D01*
X67000Y872412D01*
X68756Y872761D01*
X70244Y873756D01*
X71239Y875244D01*
X71588Y877000D01*
X71239Y878756D01*
X70244Y880244D01*
X68756Y881239D01*
X67000Y881588D01*
D02*
G37*
G36*
X266000Y904000D02*
X244000D01*
Y882000D01*
X266000D01*
Y904000D01*
D02*
G37*
G36*
X206500Y875588D02*
X204744Y875239D01*
X203256Y874244D01*
X202261Y872756D01*
X201912Y871000D01*
X202261Y869244D01*
X203256Y867756D01*
X204744Y866761D01*
X206500Y866412D01*
X208256Y866761D01*
X209744Y867756D01*
X210739Y869244D01*
X211088Y871000D01*
X210739Y872756D01*
X209744Y874244D01*
X208256Y875239D01*
X206500Y875588D01*
D02*
G37*
G36*
X281500Y865588D02*
X279744Y865239D01*
X278256Y864244D01*
X277261Y862756D01*
X276912Y861000D01*
X277261Y859244D01*
X278256Y857756D01*
X279744Y856761D01*
X281500Y856412D01*
X283256Y856761D01*
X284744Y857756D01*
X285739Y859244D01*
X286088Y861000D01*
X285739Y862756D01*
X284744Y864244D01*
X283256Y865239D01*
X281500Y865588D01*
D02*
G37*
G36*
X220500Y861088D02*
X218744Y860739D01*
X217256Y859744D01*
X216261Y858256D01*
X215912Y856500D01*
X216261Y854744D01*
X217256Y853256D01*
X218744Y852261D01*
X220500Y851912D01*
X222256Y852261D01*
X223744Y853256D01*
X224739Y854744D01*
X225088Y856500D01*
X224739Y858256D01*
X223744Y859744D01*
X222256Y860739D01*
X220500Y861088D01*
D02*
G37*
G36*
X255000Y879095D02*
X252128Y878717D01*
X249452Y877608D01*
X247155Y875845D01*
X245392Y873547D01*
X244283Y870872D01*
X243905Y868000D01*
X244283Y865128D01*
X245392Y862453D01*
X247155Y860155D01*
X249452Y858391D01*
X252128Y857283D01*
X255000Y856905D01*
X257872Y857283D01*
X260548Y858391D01*
X262845Y860155D01*
X264608Y862453D01*
X265290Y864098D01*
X266065Y864357D01*
X267565Y864549D01*
X268744Y863761D01*
X270500Y863412D01*
X272256Y863761D01*
X273744Y864756D01*
X274739Y866244D01*
X275088Y868000D01*
X274739Y869756D01*
X273744Y871244D01*
X272256Y872239D01*
X270500Y872588D01*
X268744Y872239D01*
X267565Y871451D01*
X266065Y871643D01*
X265290Y871902D01*
X264608Y873547D01*
X262845Y875845D01*
X260548Y877608D01*
X257872Y878717D01*
X255000Y879095D01*
D02*
G37*
G36*
X125000D02*
X122128Y878717D01*
X119452Y877608D01*
X117155Y875845D01*
X115392Y873547D01*
X114283Y870872D01*
X113905Y868000D01*
X114283Y865128D01*
X115392Y862453D01*
X117155Y860155D01*
X119452Y858391D01*
X122128Y857283D01*
X125000Y856905D01*
X127872Y857283D01*
X130548Y858391D01*
X132845Y860155D01*
X134608Y862453D01*
X135717Y865128D01*
X136095Y868000D01*
X135717Y870872D01*
X134608Y873547D01*
X132845Y875845D01*
X130548Y877608D01*
X127872Y878717D01*
X125000Y879095D01*
D02*
G37*
G36*
X365500Y592588D02*
X363744Y592239D01*
X362256Y591244D01*
X361261Y589756D01*
X360912Y588000D01*
X361261Y586244D01*
X362256Y584756D01*
X363744Y583761D01*
X365500Y583412D01*
X367256Y583761D01*
X368744Y584756D01*
X369739Y586244D01*
X370088Y588000D01*
X369739Y589756D01*
X368744Y591244D01*
X367256Y592239D01*
X365500Y592588D01*
D02*
G37*
G36*
X20500Y557088D02*
X18744Y556739D01*
X17256Y555744D01*
X16261Y554256D01*
X15912Y552500D01*
X16261Y550744D01*
X17256Y549256D01*
X18744Y548261D01*
X20500Y547912D01*
X22256Y548261D01*
X23744Y549256D01*
X24739Y550744D01*
X25088Y552500D01*
X24739Y554256D01*
X23744Y555744D01*
X22256Y556739D01*
X20500Y557088D01*
D02*
G37*
G36*
X360000Y516088D02*
X358244Y515739D01*
X356756Y514744D01*
X355761Y513256D01*
X355412Y511500D01*
X355761Y509744D01*
X356756Y508256D01*
X358244Y507261D01*
X360000Y506912D01*
X361756Y507261D01*
X363244Y508256D01*
X364239Y509744D01*
X364588Y511500D01*
X364239Y513256D01*
X363244Y514744D01*
X361756Y515739D01*
X360000Y516088D01*
D02*
G37*
G36*
X359500Y552588D02*
X357744Y552239D01*
X356256Y551244D01*
X355261Y549756D01*
X354912Y548000D01*
X355261Y546244D01*
X356256Y544756D01*
X357744Y543761D01*
X359500Y543412D01*
X361256Y543761D01*
X362744Y544756D01*
X363739Y546244D01*
X364088Y548000D01*
X363739Y549756D01*
X362744Y551244D01*
X361256Y552239D01*
X359500Y552588D01*
D02*
G37*
G36*
X19000Y626088D02*
X17244Y625739D01*
X15756Y624744D01*
X14761Y623256D01*
X14412Y621500D01*
X14761Y619744D01*
X15756Y618256D01*
X17244Y617261D01*
X19000Y616912D01*
X20756Y617261D01*
X22244Y618256D01*
X23239Y619744D01*
X23588Y621500D01*
X23239Y623256D01*
X22244Y624744D01*
X20756Y625739D01*
X19000Y626088D01*
D02*
G37*
%LPD*%
D57*
X186000Y740500D02*
X186500D01*
X164500Y354500D02*
Y355000D01*
D60*
X310000Y968000D02*
G03*
X330000Y948000I20000J0D01*
G01*
X310000Y988000D02*
G03*
X290000Y1008000I-20000J0D01*
G01*
X25000Y1007999D02*
G03*
X0Y988000I-2500J-22499D01*
G01*
X23000Y911000D02*
G03*
X-0Y929000I-20500J-2500D01*
G01*
Y865000D02*
G03*
X23000Y883000I2500J20500D01*
G01*
X23000Y464000D02*
G03*
X-0Y480000I-19500J-3500D01*
G01*
X0Y416000D02*
G03*
X23000Y436000I1500J21500D01*
G01*
X121000Y1008000D02*
G03*
X156000Y973000I35000J0D01*
G01*
D02*
G03*
X191000Y1008000I0J35000D01*
G01*
X-1Y36000D02*
G03*
X69600Y23000I36035J109D01*
G01*
X242399Y22999D02*
G03*
X312000Y36000I33587J12998D01*
G01*
X591213Y182213D02*
G03*
X600000Y203426I-21213J21213D01*
G01*
X438574Y42000D02*
G03*
X459787Y50787I0J30000D01*
G01*
X600000Y928000D02*
G03*
X580000Y948000I-20000J0D01*
G01*
X50000Y883000D02*
G03*
X50000Y911000I0J14000D01*
G01*
Y436000D02*
G03*
X50000Y464000I0J14000D01*
G01*
X310000Y968000D02*
Y988000D01*
X191000Y1008000D02*
X290000D01*
X0Y929000D02*
Y988000D01*
X25000Y1008000D02*
X121000D01*
X23000Y911000D02*
X50000D01*
X23000Y883000D02*
X50000D01*
X0Y480000D02*
Y865000D01*
X23000Y436000D02*
X50000D01*
X23000Y464000D02*
X50000D01*
X69600Y23000D02*
X242400D01*
X0Y36000D02*
Y416000D01*
X312000Y36000D02*
Y42000D01*
X600000Y203426D02*
Y928000D01*
X459787Y50787D02*
X591213Y182213D01*
X330000Y948000D02*
X580000D01*
X312000Y42000D02*
X438574D01*
D61*
X580200Y290750D02*
D03*
Y219250D02*
D03*
D62*
X573400Y631000D02*
D03*
Y507000D02*
D03*
Y535000D02*
D03*
X121000Y376000D02*
D03*
X266000D02*
D03*
D63*
X548000Y631000D02*
D03*
X522600D02*
D03*
Y507000D02*
D03*
X548000D02*
D03*
X522600Y535000D02*
D03*
X548000D02*
D03*
X255000Y868000D02*
D03*
Y843000D02*
D03*
X125000Y818000D02*
D03*
Y843000D02*
D03*
Y868000D02*
D03*
X46000Y376000D02*
D03*
X71000D02*
D03*
X96000D02*
D03*
X191000D02*
D03*
X216000D02*
D03*
X241000D02*
D03*
X316000Y818000D02*
D03*
Y843000D02*
D03*
Y868000D02*
D03*
D65*
X505100Y346500D02*
D03*
X530500D02*
D03*
X581300D02*
D03*
X555900D02*
D03*
D66*
X55750Y240000D02*
D03*
X257750D02*
D03*
X36750Y973000D02*
D03*
X276750D02*
D03*
X446750Y895000D02*
D03*
X427750Y450000D02*
D03*
D67*
X504750Y296000D02*
D03*
Y180000D02*
D03*
X276750Y36000D02*
D03*
X36750D02*
D03*
X33750Y180000D02*
D03*
Y296000D02*
D03*
D69*
X495000Y800000D02*
D03*
X545000D02*
D03*
X522000Y672000D02*
D03*
X572000D02*
D03*
D70*
X255000Y893000D02*
D03*
X125000D02*
D03*
X316000D02*
D03*
D71*
X417000Y754000D02*
D03*
X450500Y605000D02*
D03*
X126000Y169500D02*
D03*
X99500Y140500D02*
D03*
X102000Y161500D02*
D03*
X37500Y360000D02*
D03*
X30000Y373500D02*
D03*
X33500Y386500D02*
D03*
X45500Y393000D02*
D03*
X174500Y372500D02*
D03*
X180500Y361000D02*
D03*
X192000Y359000D02*
D03*
X203000Y364000D02*
D03*
X137500Y709000D02*
D03*
X414500Y328500D02*
D03*
X495000Y259000D02*
D03*
X318500Y440500D02*
D03*
Y460000D02*
D03*
X476000Y279000D02*
D03*
X471000Y356000D02*
D03*
X593500Y506500D02*
D03*
Y535500D02*
D03*
X577500Y598000D02*
D03*
X592500Y629500D02*
D03*
X589000Y648000D02*
D03*
X593000Y756000D02*
D03*
X571000Y756500D02*
D03*
X332000Y815000D02*
D03*
X270500Y868000D02*
D03*
X301500Y672000D02*
D03*
X298000Y684000D02*
D03*
X214500Y785000D02*
D03*
X49000Y694500D02*
D03*
X389999Y578999D02*
D03*
X253000Y496000D02*
D03*
X412950Y177000D02*
D03*
X399950Y325000D02*
D03*
X95000Y605000D02*
D03*
X333500Y699000D02*
D03*
X323000Y653000D02*
D03*
X527000Y140500D02*
D03*
X234300Y482500D02*
D03*
Y487550D02*
D03*
X135500Y512000D02*
D03*
X172000Y470500D02*
D03*
X199500Y723000D02*
D03*
X186000Y740500D02*
D03*
X309500Y800500D02*
D03*
X300000Y940000D02*
D03*
X287000Y927500D02*
D03*
X386500Y283500D02*
D03*
X533000Y323000D02*
D03*
X190500Y649000D02*
D03*
X173000Y725500D02*
D03*
X223500Y700500D02*
D03*
X231000Y732500D02*
D03*
X231500Y764500D02*
D03*
X350000Y772000D02*
D03*
X355500D02*
D03*
X350000Y777000D02*
D03*
X355500D02*
D03*
X48500Y639500D02*
D03*
X38500Y674500D02*
D03*
Y725000D02*
D03*
X46500Y745500D02*
D03*
X90750Y774500D02*
D03*
X69500Y799500D02*
D03*
X83000Y799000D02*
D03*
X47000Y763000D02*
D03*
X94500Y787500D02*
D03*
X150000Y531500D02*
D03*
X141000Y781000D02*
D03*
X308000Y699500D02*
D03*
X314000D02*
D03*
X112500Y586000D02*
D03*
X105500D02*
D03*
X95000Y613000D02*
D03*
X333000Y538000D02*
D03*
X309000Y507500D02*
D03*
X309500Y535500D02*
D03*
X175500Y578000D02*
D03*
X175500Y594000D02*
D03*
X324000Y362000D02*
D03*
X337500Y284000D02*
D03*
X328000Y300500D02*
D03*
X283000Y289500D02*
D03*
X118000Y300500D02*
D03*
X104000Y354999D02*
D03*
X60500Y358000D02*
D03*
X58500Y399000D02*
D03*
X103000Y397000D02*
D03*
X171500Y384500D02*
D03*
X188000Y471000D02*
D03*
X200500Y475500D02*
D03*
X215500Y469500D02*
D03*
X246000Y491500D02*
D03*
X254500Y468500D02*
D03*
X271500Y487000D02*
D03*
X275000Y464000D02*
D03*
X282500Y472500D02*
D03*
X328000Y474500D02*
D03*
X328500Y414000D02*
D03*
X318500Y450000D02*
D03*
X287000Y424000D02*
D03*
X288000Y434000D02*
D03*
X399000Y805500D02*
D03*
X341000Y907000D02*
D03*
X361000Y938000D02*
D03*
X285000Y895000D02*
D03*
X259500Y920500D02*
D03*
X206500Y871000D02*
D03*
X188000Y815500D02*
D03*
X165000Y828500D02*
D03*
X175000Y783000D02*
D03*
X201500Y801500D02*
D03*
X59000Y930500D02*
D03*
X82000Y994500D02*
D03*
X137500Y949500D02*
D03*
X296950Y708500D02*
D03*
X267000Y707000D02*
D03*
X287000Y737000D02*
D03*
X333500Y731000D02*
D03*
X315000Y757000D02*
D03*
X333500Y774500D02*
D03*
X167500Y542500D02*
D03*
X223000Y547500D02*
D03*
X243500Y558000D02*
D03*
X254000Y577500D02*
D03*
X273500Y558500D02*
D03*
X275500Y586000D02*
D03*
X291500Y571500D02*
D03*
X277500Y606500D02*
D03*
X203500Y584000D02*
D03*
X216500Y599000D02*
D03*
X202000Y614500D02*
D03*
X250000Y630000D02*
D03*
X230500Y612000D02*
D03*
X217000Y631450D02*
D03*
X224500Y649000D02*
D03*
X243950Y649500D02*
D03*
X239000Y667000D02*
D03*
X435500Y512000D02*
D03*
X360000Y511500D02*
D03*
X335500Y492000D02*
D03*
X393500Y519000D02*
D03*
X412000Y544000D02*
D03*
X446500Y555000D02*
D03*
X445000Y583000D02*
D03*
X464500Y592050D02*
D03*
X359500Y548000D02*
D03*
X324500Y569000D02*
D03*
X353000Y645500D02*
D03*
X334750Y623500D02*
D03*
X321000Y614000D02*
D03*
Y629500D02*
D03*
X365500Y588000D02*
D03*
X407500Y602000D02*
D03*
X550500Y394500D02*
D03*
X580500Y368500D02*
D03*
X562500Y375500D02*
D03*
X561500Y425000D02*
D03*
X514000Y391000D02*
D03*
X343000Y226000D02*
D03*
X379000Y250000D02*
D03*
X404050Y216000D02*
D03*
X406000Y284000D02*
D03*
X435500Y281500D02*
D03*
X71000Y164000D02*
D03*
X115500Y227500D02*
D03*
X105500Y190500D02*
D03*
X198500Y243500D02*
D03*
X223500Y193500D02*
D03*
X306500Y186000D02*
D03*
X314500Y255500D02*
D03*
X257500Y313000D02*
D03*
X201500Y287500D02*
D03*
X287500Y336500D02*
D03*
X226000Y322000D02*
D03*
X184500Y334000D02*
D03*
X118000Y260500D02*
D03*
X83500Y285000D02*
D03*
X120500Y333350D02*
D03*
X65000Y324000D02*
D03*
X11500Y379000D02*
D03*
X26500Y337000D02*
D03*
X104000Y476000D02*
D03*
X126450Y494000D02*
D03*
X111500Y534500D02*
D03*
X76000Y494500D02*
D03*
X21000Y502000D02*
D03*
X63000Y537500D02*
D03*
X20500Y552500D02*
D03*
X8000Y583000D02*
D03*
X124500Y580000D02*
D03*
X130450Y641000D02*
D03*
X118000Y658500D02*
D03*
X91500Y672500D02*
D03*
X118000Y692500D02*
D03*
X104000Y718750D02*
D03*
X101500Y745000D02*
D03*
X104000Y768550D02*
D03*
X114500Y792000D02*
D03*
X136500Y801500D02*
D03*
X459500Y631450D02*
D03*
Y622000D02*
D03*
Y640550D02*
D03*
X334750Y526750D02*
D03*
X390000Y586500D02*
D03*
X75000Y749000D02*
D03*
X542000Y521000D02*
D03*
X541000Y558000D02*
D03*
X545500Y564500D02*
D03*
X546500Y551000D02*
D03*
Y577000D02*
D03*
X555000Y521000D02*
D03*
X554500Y580500D02*
D03*
X547000Y585000D02*
D03*
X554000Y595000D02*
D03*
X286000Y660000D02*
D03*
X505600Y707000D02*
D03*
Y713250D02*
D03*
X516500Y611500D02*
D03*
X109750Y409250D02*
D03*
X104500D02*
D03*
X228250Y408250D02*
D03*
X233500Y408300D02*
D03*
X238750Y417800D02*
D03*
Y412500D02*
D03*
X53000Y834000D02*
D03*
Y840500D02*
D03*
X360000Y669000D02*
D03*
X365000D02*
D03*
X360000Y674000D02*
D03*
X365000D02*
D03*
X370000Y669000D02*
D03*
Y674000D02*
D03*
X360000Y679000D02*
D03*
X365000D02*
D03*
X370000D02*
D03*
X330000Y928000D02*
D03*
X491000Y700500D02*
D03*
Y690000D02*
D03*
Y695000D02*
D03*
X71000Y105000D02*
D03*
X25000Y113000D02*
D03*
X81500Y66000D02*
D03*
X125500Y120500D02*
D03*
X145000Y56000D02*
D03*
X35000Y414000D02*
D03*
X59000Y419500D02*
D03*
X165500Y423000D02*
D03*
X183500Y400500D02*
D03*
X180500Y419000D02*
D03*
X170500Y433000D02*
D03*
X182000Y432500D02*
D03*
X214200Y52000D02*
D03*
X252000Y145000D02*
D03*
X266950Y111500D02*
D03*
X344500Y73000D02*
D03*
X327000Y132500D02*
D03*
X199500Y393000D02*
D03*
X233000Y394000D02*
D03*
X247000Y430000D02*
D03*
X103000Y836000D02*
D03*
X24500Y869500D02*
D03*
X68000Y853000D02*
D03*
X67000Y877000D02*
D03*
X94500Y916500D02*
D03*
X85000Y945500D02*
D03*
X101500Y809500D02*
D03*
X110000Y979500D02*
D03*
X149500Y922000D02*
D03*
X346500Y811900D02*
D03*
X370000Y700000D02*
D03*
X201000Y911000D02*
D03*
X220500Y856500D02*
D03*
X201500Y896500D02*
D03*
X183500Y921000D02*
D03*
X190000Y958000D02*
D03*
X196500Y922000D02*
D03*
X219500Y997000D02*
D03*
X227500Y937500D02*
D03*
X228250Y896500D02*
D03*
X281500Y861000D02*
D03*
X388500Y146000D02*
D03*
X433950Y78000D02*
D03*
X404000Y120000D02*
D03*
X436500Y146500D02*
D03*
X479000Y134000D02*
D03*
X415000Y611500D02*
D03*
X430000Y607500D02*
D03*
X433000Y623000D02*
D03*
X513500Y262000D02*
D03*
X536500Y451500D02*
D03*
X570500Y190500D02*
D03*
X539000Y267500D02*
D03*
X570000Y319500D02*
D03*
X591000Y394000D02*
D03*
X591500Y434500D02*
D03*
X546500Y473000D02*
D03*
X500500Y515000D02*
D03*
X496500Y576500D02*
D03*
X502500Y573000D02*
D03*
X591500Y476000D02*
D03*
X590500Y558000D02*
D03*
X569500Y564500D02*
D03*
X568500Y608000D02*
D03*
X588500Y605000D02*
D03*
X406000Y626000D02*
D03*
X401250Y624000D02*
D03*
X401500Y629500D02*
D03*
X368500Y694000D02*
D03*
X433000Y644000D02*
D03*
Y634100D02*
D03*
Y654000D02*
D03*
X440450Y700500D02*
D03*
X417500Y719000D02*
D03*
X421000Y709000D02*
D03*
X425500Y754000D02*
D03*
X426500Y725000D02*
D03*
X367000Y795000D02*
D03*
X375000Y834000D02*
D03*
X416500Y763850D02*
D03*
X417000Y775500D02*
D03*
X418150Y826500D02*
D03*
X429000Y715000D02*
D03*
X435450Y708500D02*
D03*
X437500Y719500D02*
D03*
X433000Y754000D02*
D03*
X444500Y710500D02*
D03*
X470000Y641500D02*
D03*
X556500Y700850D02*
D03*
X574000Y700500D02*
D03*
X590500Y700000D02*
D03*
X554500Y736500D02*
D03*
X555000Y717000D02*
D03*
X573000Y716500D02*
D03*
X587000Y717500D02*
D03*
X495000Y742550D02*
D03*
X472000Y760000D02*
D03*
X481500Y769500D02*
D03*
X444000Y773000D02*
D03*
X454139Y779500D02*
D03*
X462000Y774500D02*
D03*
X459000Y821000D02*
D03*
X470500Y780000D02*
D03*
X560000Y762500D02*
D03*
X561500Y751000D02*
D03*
X579450Y750450D02*
D03*
X580500Y763450D02*
D03*
X526000Y838000D02*
D03*
X559500Y923500D02*
D03*
X563500Y847000D02*
D03*
X568000Y882000D02*
D03*
X515000Y768500D02*
D03*
X525700Y720000D02*
D03*
X537000D02*
D03*
X515000Y749000D02*
D03*
X526000Y768500D02*
D03*
X526150Y749000D02*
D03*
X538500Y768500D02*
D03*
X539000Y749000D02*
D03*
X44000Y707000D02*
D03*
Y713500D02*
D03*
X140000Y726000D02*
D03*
X166000Y766000D02*
D03*
X143400Y110250D02*
D03*
X139500Y584000D02*
D03*
X18500Y749500D02*
D03*
X191500Y669000D02*
D03*
X201500D02*
D03*
X284000Y539500D02*
D03*
X262500Y540500D02*
D03*
X281500Y484500D02*
D03*
X281000Y498000D02*
D03*
X149500Y700000D02*
D03*
X211000Y811500D02*
D03*
X217500Y816500D02*
D03*
X211000D02*
D03*
X217500Y811500D02*
D03*
X292500Y608000D02*
D03*
X286499Y612999D02*
D03*
X193000Y712500D02*
D03*
X269500Y547000D02*
D03*
X274000Y508000D02*
D03*
X99250Y413500D02*
D03*
Y418750D02*
D03*
X320500Y544000D02*
D03*
X316100Y484500D02*
D03*
X274500Y663000D02*
D03*
X195750Y752000D02*
D03*
X204000Y746150D02*
D03*
X274499Y655499D02*
D03*
X56500Y634000D02*
D03*
X75000Y595500D02*
D03*
X19000Y621500D02*
D03*
X37000Y608500D02*
D03*
X165350Y571499D02*
D03*
X170000Y565499D02*
D03*
X165350Y559500D02*
D03*
X171000Y553999D02*
D03*
X207000Y642500D02*
D03*
X168000Y579000D02*
D03*
X139000Y593000D02*
D03*
X164000Y589000D02*
D03*
X163500Y596500D02*
D03*
X164000Y626499D02*
D03*
X170000Y631999D02*
D03*
X175500Y626499D02*
D03*
X181000Y631999D02*
D03*
X186500Y626500D02*
D03*
X136000Y544000D02*
D03*
X153000Y477499D02*
D03*
X159500Y481999D02*
D03*
X166000Y477499D02*
D03*
X146500Y481999D02*
D03*
X140200Y477500D02*
D03*
X152500Y354999D02*
D03*
X141500D02*
D03*
X147000Y360500D02*
D03*
X158499Y359999D02*
D03*
X164500Y355000D02*
D03*
X168800Y110250D02*
D03*
X496000Y547000D02*
D03*
X195750Y775500D02*
D03*
X361000Y777000D02*
D03*
X366450D02*
D03*
X361000Y772000D02*
D03*
X366400D02*
D03*
X361000Y767000D02*
D03*
X366450D02*
D03*
X361000Y762000D02*
D03*
X366450D02*
D03*
X261950Y795000D02*
D03*
X263500Y781000D02*
D03*
X257500Y765000D02*
D03*
X253500Y744000D02*
D03*
Y724500D02*
D03*
X130500Y767500D02*
D03*
X130450Y772500D02*
D03*
X347500Y312500D02*
D03*
X50500Y713500D02*
D03*
Y707000D02*
D03*
X342500Y578000D02*
D03*
X289500Y810000D02*
D03*
X295500D02*
D03*
X301500D02*
D03*
Y816000D02*
D03*
X295500D02*
D03*
X289500D02*
D03*
X276000Y802000D02*
D03*
X249500D02*
D03*
X236500Y119500D02*
D03*
X378000Y629500D02*
D03*
X72000Y92150D02*
D03*
X217000Y118000D02*
D03*
X143250Y167000D02*
D03*
X168750D02*
D03*
X177000Y173000D02*
D03*
X199500Y127000D02*
D03*
X194200Y110250D02*
D03*
X240000Y148000D02*
D03*
X39000Y837000D02*
D03*
X59000Y840500D02*
D03*
Y834000D02*
D03*
X48000Y812000D02*
D03*
X49000Y794000D02*
D03*
X406500Y631999D02*
D03*
X67000Y560000D02*
D03*
X538500Y262500D02*
D03*
X529000Y265000D02*
D03*
X441000Y224500D02*
D03*
X560950Y197500D02*
D03*
X446500Y244500D02*
D03*
X412000Y221500D02*
D03*
X465000Y182000D02*
D03*
X441000Y196500D02*
D03*
X467000Y204500D02*
D03*
X560950Y312500D02*
D03*
X447500Y233000D02*
D03*
X384000Y273000D02*
D03*
X378000Y267500D02*
D03*
X395000Y176000D02*
D03*
X386250D02*
D03*
X422500D02*
D03*
X430850D02*
D03*
X417000Y306550D02*
D03*
X417000Y316450D02*
D03*
X337000Y381500D02*
D03*
X296950Y381500D02*
D03*
X445000Y329500D02*
D03*
X464500Y346500D02*
D03*
X444000Y267000D02*
D03*
X496000Y359500D02*
D03*
X520500Y361000D02*
D03*
X466000Y377500D02*
D03*
X450500Y353000D02*
D03*
X452500Y330500D02*
D03*
X412000Y368500D02*
D03*
X387000Y363000D02*
D03*
X366500D02*
D03*
X405500Y349500D02*
D03*
X432000Y360000D02*
D03*
X404050Y176000D02*
D03*
X366000Y196500D02*
D03*
X313500Y220550D02*
D03*
X113000Y644500D02*
D03*
X73000Y697550D02*
D03*
X73500Y724000D02*
D03*
X48500Y782500D02*
D03*
X74000Y774000D02*
D03*
X30500Y749000D02*
D03*
X19000Y774000D02*
D03*
X48500Y820000D02*
D03*
X90750Y547500D02*
D03*
X134000Y577500D02*
D03*
X113000Y577000D02*
D03*
X202500Y544000D02*
D03*
X296500Y317000D02*
D03*
X334750Y243500D02*
D03*
X351500Y270500D02*
D03*
X171800Y296500D02*
D03*
X173500Y207000D02*
D03*
X166500Y190000D02*
D03*
X373000Y325000D02*
D03*
X536700Y199500D02*
D03*
X539000Y191000D02*
D03*
X33500Y824500D02*
D03*
X16000D02*
D03*
X14000Y799000D02*
D03*
X35500Y799500D02*
D03*
X13500Y850500D02*
D03*
X40500Y850300D02*
D03*
X299000Y362000D02*
D03*
X326500Y389500D02*
D03*
X445000Y253000D02*
D03*
X475000Y242500D02*
D03*
X494500Y220550D02*
D03*
X487000Y222500D02*
D03*
X496000Y234714D02*
D03*
X511450Y229500D02*
D03*
X511500Y224500D02*
D03*
X511450Y219500D02*
D03*
X516000Y227000D02*
D03*
Y222000D02*
D03*
X534000Y265750D02*
D03*
X480500Y387500D02*
D03*
X363500Y701000D02*
D03*
X368500Y688000D02*
D03*
X525850Y776000D02*
D03*
X513000D02*
D03*
X501850D02*
D03*
X515500Y703000D02*
D03*
X537000Y702500D02*
D03*
X525500Y703000D02*
D03*
D72*
X462000Y535500D02*
D03*
Y569500D02*
D03*
X246500Y777500D02*
D03*
X281000D02*
D03*
X182500Y798000D02*
D03*
X89500Y452750D02*
D03*
X212500Y451250D02*
D03*
X346500Y674000D02*
D03*
X381500Y771000D02*
D03*
X176000Y710000D02*
D03*
X366450Y183950D02*
D03*
X449050Y183500D02*
D03*
M02*
