G04 Layer_Color=33789*
%FSLAX44Y44*%
%MOMM*%
G71*
G01*
G75*
%ADD57C,0.2000*%
%ADD60C,0.1000*%
D57*
X575000Y527000D02*
X582000Y534000D01*
X570000D02*
X582000D01*
X568000D02*
X570000D01*
X568000D02*
X575000Y527000D01*
Y555000D02*
X582000Y562000D01*
X570000D02*
X582000D01*
X568000D02*
X570000D01*
X568000D02*
X575000Y555000D01*
X604750Y657750D02*
Y686250D01*
X587000Y640000D02*
X604750Y657750D01*
X489000Y640000D02*
X587000D01*
X489000Y704000D02*
X587000D01*
X604750Y686250D01*
X489000Y640000D02*
Y704000D01*
D60*
X539000Y589500D02*
Y616500D01*
X505500D02*
X539000D01*
X505500Y589500D02*
X539000D01*
X505500D02*
Y616500D01*
X549000Y598000D02*
Y618000D01*
X541100D02*
X549000D01*
X541100Y598000D02*
X549000D01*
X541100D02*
Y618000D01*
X559500Y598000D02*
Y618000D01*
X551500D02*
X559500D01*
X551500Y598000D02*
X559500D01*
X551500D02*
Y618000D01*
X548000Y507000D02*
X551000D01*
X545000D02*
X548000D01*
X545000D02*
X548000D01*
Y504000D02*
Y507000D01*
Y504000D02*
Y510000D01*
Y507000D02*
Y510000D01*
X506000Y490000D02*
X590000D01*
X506000D02*
Y524000D01*
X590000D01*
Y490000D02*
Y524000D01*
X548000Y535000D02*
X551000D01*
X545000D02*
X548000D01*
X545000D02*
X548000D01*
Y532000D02*
Y535000D01*
Y532000D02*
Y538000D01*
Y535000D02*
Y538000D01*
X506000Y518000D02*
X590000D01*
X506000D02*
Y552000D01*
X590000D01*
Y518000D02*
Y552000D01*
X310000Y968000D02*
G03*
X330000Y948000I20000J0D01*
G01*
X310000Y988000D02*
G03*
X290000Y1008000I-20000J0D01*
G01*
X25000Y1007999D02*
G03*
X0Y988000I-2500J-22499D01*
G01*
X23000Y911000D02*
G03*
X-0Y929000I-20500J-2500D01*
G01*
Y865000D02*
G03*
X23000Y883000I2500J20500D01*
G01*
X23000Y464000D02*
G03*
X-0Y480000I-19500J-3500D01*
G01*
X0Y416000D02*
G03*
X23000Y436000I1500J21500D01*
G01*
X121000Y1008000D02*
G03*
X156000Y973000I35000J0D01*
G01*
D02*
G03*
X191000Y1008000I0J35000D01*
G01*
X-1Y36000D02*
G03*
X69600Y23000I36035J109D01*
G01*
X242399Y22999D02*
G03*
X312000Y36000I33587J12998D01*
G01*
X591213Y182213D02*
G03*
X600000Y203426I-21213J21213D01*
G01*
X438574Y42000D02*
G03*
X459787Y50787I0J30000D01*
G01*
X600000Y928000D02*
G03*
X580000Y948000I-20000J0D01*
G01*
X50000Y883000D02*
G03*
X50000Y911000I0J14000D01*
G01*
Y436000D02*
G03*
X50000Y464000I0J14000D01*
G01*
X310000Y968000D02*
Y988000D01*
X191000Y1008000D02*
X290000D01*
X0Y929000D02*
Y988000D01*
X25000Y1008000D02*
X121000D01*
X23000Y911000D02*
X50000D01*
X23000Y883000D02*
X50000D01*
X0Y480000D02*
Y865000D01*
X23000Y436000D02*
X50000D01*
X23000Y464000D02*
X50000D01*
X69600Y23000D02*
X242400D01*
X0Y36000D02*
Y416000D01*
X312000Y36000D02*
Y42000D01*
X600000Y203426D02*
Y928000D01*
X459787Y50787D02*
X591213Y182213D01*
X330000Y948000D02*
X580000D01*
X312000Y42000D02*
X438574D01*
M02*
