G04 Layer_Color=32896*
%FSLAX44Y44*%
%MOMM*%
G71*
G01*
G75*
%ADD57C,0.2000*%
%ADD60C,0.1000*%
%ADD78C,0.1700*%
D57*
X595000Y652000D02*
X595000D01*
X586000Y643000D02*
X595000Y652000D01*
X492000Y643000D02*
X586000D01*
X492000D02*
Y701000D01*
X586000D01*
X595000Y692000D01*
D60*
X310000Y968000D02*
G03*
X330000Y948000I20000J0D01*
G01*
X310000Y988000D02*
G03*
X290000Y1008000I-20000J0D01*
G01*
X25000Y1007999D02*
G03*
X0Y988000I-2500J-22499D01*
G01*
X23000Y911000D02*
G03*
X-0Y929000I-20500J-2500D01*
G01*
Y865000D02*
G03*
X23000Y883000I2500J20500D01*
G01*
X23000Y464000D02*
G03*
X-0Y480000I-19500J-3500D01*
G01*
X0Y416000D02*
G03*
X23000Y436000I1500J21500D01*
G01*
X121000Y1008000D02*
G03*
X156000Y973000I35000J0D01*
G01*
D02*
G03*
X191000Y1008000I0J35000D01*
G01*
X-1Y36000D02*
G03*
X69600Y23000I36035J109D01*
G01*
X242399Y22999D02*
G03*
X312000Y36000I33587J12998D01*
G01*
X591213Y182213D02*
G03*
X600000Y203426I-21213J21213D01*
G01*
X438574Y42000D02*
G03*
X459787Y50787I0J30000D01*
G01*
X600000Y928000D02*
G03*
X580000Y948000I-20000J0D01*
G01*
X50000Y883000D02*
G03*
X50000Y911000I0J14000D01*
G01*
Y436000D02*
G03*
X50000Y464000I0J14000D01*
G01*
X310000Y968000D02*
Y988000D01*
X191000Y1008000D02*
X290000D01*
X0Y929000D02*
Y988000D01*
X25000Y1008000D02*
X121000D01*
X23000Y911000D02*
X50000D01*
X23000Y883000D02*
X50000D01*
X0Y480000D02*
Y865000D01*
X23000Y436000D02*
X50000D01*
X23000Y464000D02*
X50000D01*
X69600Y23000D02*
X242400D01*
X0Y36000D02*
Y416000D01*
X312000Y36000D02*
Y42000D01*
X600000Y203426D02*
Y928000D01*
X459787Y50787D02*
X591213Y182213D01*
X330000Y948000D02*
X580000D01*
X312000Y42000D02*
X438574D01*
D78*
X553835Y486331D02*
X555502Y487997D01*
X558834D01*
X560500Y486331D01*
Y479666D01*
X558834Y478000D01*
X555502D01*
X553835Y479666D01*
X545505Y487997D02*
X548837D01*
X550503Y486331D01*
Y479666D01*
X548837Y478000D01*
X545505D01*
X543839Y479666D01*
Y486331D01*
X545505Y487997D01*
X535508Y478000D02*
Y487997D01*
X540506Y482998D01*
X533842D01*
X553335Y562331D02*
X555002Y563997D01*
X558334D01*
X560000Y562331D01*
Y555666D01*
X558334Y554000D01*
X555002D01*
X553335Y555666D01*
X545005Y563997D02*
X548337D01*
X550003Y562331D01*
Y555666D01*
X548337Y554000D01*
X545005D01*
X543339Y555666D01*
Y562331D01*
X545005Y563997D01*
X540006Y562331D02*
X538340Y563997D01*
X535008D01*
X533342Y562331D01*
Y560664D01*
X535008Y558998D01*
X536674D01*
X535008D01*
X533342Y557332D01*
Y555666D01*
X535008Y554000D01*
X538340D01*
X540006Y555666D01*
X558335Y714331D02*
X560002Y715997D01*
X563334D01*
X565000Y714331D01*
Y707666D01*
X563334Y706000D01*
X560002D01*
X558335Y707666D01*
X550005Y715997D02*
X553337D01*
X555003Y714331D01*
Y707666D01*
X553337Y706000D01*
X550005D01*
X548339Y707666D01*
Y714331D01*
X550005Y715997D01*
X545006Y706000D02*
X541674D01*
X543340D01*
Y715997D01*
X545006Y714331D01*
X531677Y706000D02*
Y715997D01*
X536676Y710998D01*
X530011D01*
M02*
