G04 Layer_Color=16711935*
%FSLAX44Y44*%
%MOMM*%
G71*
G01*
G75*
%ADD12R,0.6000X0.5900*%
%ADD60C,0.1000*%
%ADD61O,1.9000X1.0500*%
%ADD62R,1.9000X1.9000*%
%ADD63C,1.9000*%
%ADD64R,1.6500X1.6500*%
%ADD65C,1.6500*%
%ADD66C,6.0000*%
%ADD67C,5.5000*%
%ADD69C,4.2000*%
%ADD70R,1.9000X1.9000*%
%ADD72C,1.6000*%
%ADD73R,1.2100X0.6000*%
D12*
X545000Y612550D02*
D03*
Y603450D02*
D03*
X554000Y612550D02*
D03*
Y603450D02*
D03*
D60*
X310000Y968000D02*
G03*
X330000Y948000I20000J0D01*
G01*
X310000Y988000D02*
G03*
X290000Y1008000I-20000J0D01*
G01*
X25000Y1007999D02*
G03*
X0Y988000I-2500J-22499D01*
G01*
X23000Y911000D02*
G03*
X-0Y929000I-20500J-2500D01*
G01*
Y865000D02*
G03*
X23000Y883000I2500J20500D01*
G01*
X23000Y464000D02*
G03*
X-0Y480000I-19500J-3500D01*
G01*
X0Y416000D02*
G03*
X23000Y436000I1500J21500D01*
G01*
X121000Y1008000D02*
G03*
X156000Y973000I35000J0D01*
G01*
D02*
G03*
X191000Y1008000I0J35000D01*
G01*
X-1Y36000D02*
G03*
X69600Y23000I36035J109D01*
G01*
X242399Y22999D02*
G03*
X312000Y36000I33587J12998D01*
G01*
X591213Y182213D02*
G03*
X600000Y203426I-21213J21213D01*
G01*
X438574Y42000D02*
G03*
X459787Y50787I0J30000D01*
G01*
X600000Y928000D02*
G03*
X580000Y948000I-20000J0D01*
G01*
X50000Y883000D02*
G03*
X50000Y911000I0J14000D01*
G01*
Y436000D02*
G03*
X50000Y464000I0J14000D01*
G01*
X310000Y968000D02*
Y988000D01*
X191000Y1008000D02*
X290000D01*
X0Y929000D02*
Y988000D01*
X25000Y1008000D02*
X121000D01*
X23000Y911000D02*
X50000D01*
X23000Y883000D02*
X50000D01*
X0Y480000D02*
Y865000D01*
X23000Y436000D02*
X50000D01*
X23000Y464000D02*
X50000D01*
X69600Y23000D02*
X242400D01*
X0Y36000D02*
Y416000D01*
X312000Y36000D02*
Y42000D01*
X600000Y203426D02*
Y928000D01*
X459787Y50787D02*
X591213Y182213D01*
X330000Y948000D02*
X580000D01*
X312000Y42000D02*
X438574D01*
D61*
X580200Y290750D02*
D03*
Y219250D02*
D03*
D62*
X573400Y631000D02*
D03*
Y507000D02*
D03*
Y535000D02*
D03*
X121000Y376000D02*
D03*
X266000D02*
D03*
D63*
X548000Y631000D02*
D03*
X522600D02*
D03*
Y507000D02*
D03*
X548000D02*
D03*
X522600Y535000D02*
D03*
X548000D02*
D03*
X255000Y868000D02*
D03*
Y843000D02*
D03*
X125000Y818000D02*
D03*
Y843000D02*
D03*
Y868000D02*
D03*
X46000Y376000D02*
D03*
X71000D02*
D03*
X96000D02*
D03*
X191000D02*
D03*
X216000D02*
D03*
X241000D02*
D03*
X316000Y818000D02*
D03*
Y843000D02*
D03*
Y868000D02*
D03*
D64*
X505100Y346500D02*
D03*
D65*
X530500D02*
D03*
X581300D02*
D03*
X555900D02*
D03*
D66*
X55750Y240000D02*
D03*
X257750D02*
D03*
X36750Y973000D02*
D03*
X276750D02*
D03*
D67*
X504750Y296000D02*
D03*
Y180000D02*
D03*
X276750Y36000D02*
D03*
X36750D02*
D03*
X33750Y180000D02*
D03*
Y296000D02*
D03*
D69*
X495000Y800000D02*
D03*
X545000D02*
D03*
X522000Y672000D02*
D03*
X572000D02*
D03*
D70*
X255000Y893000D02*
D03*
X125000D02*
D03*
X316000D02*
D03*
D72*
X462000Y535500D02*
D03*
Y569500D02*
D03*
X246500Y777500D02*
D03*
X281000D02*
D03*
X182500Y798000D02*
D03*
X89500Y452750D02*
D03*
X212500Y451250D02*
D03*
X346500Y674000D02*
D03*
X381500Y771000D02*
D03*
X176000Y710000D02*
D03*
X366450Y183950D02*
D03*
X449050Y183500D02*
D03*
D73*
X532550Y612500D02*
D03*
Y593500D02*
D03*
X507450Y603000D02*
D03*
M02*
