G04 Layer_Physical_Order=4*
G04 Layer_Color=16711680*
%FSLAX44Y44*%
%MOMM*%
G71*
G01*
G75*
%ADD11R,0.6000X0.5900*%
%ADD57C,0.5000*%
%ADD59C,0.3000*%
%ADD61C,0.1000*%
%ADD62O,1.9000X1.0500*%
%ADD63R,1.9000X1.9000*%
%ADD64C,1.9000*%
%ADD65R,1.6500X1.6500*%
%ADD66C,1.6500*%
%ADD67C,5.5000*%
%ADD68C,5.0000*%
%ADD69O,18.0000X8.5000*%
%ADD70C,4.2000*%
%ADD71R,1.8000X1.8000*%
%ADD72C,1.8000*%
%ADD73R,1.8000X1.8000*%
%ADD74C,0.6000*%
%ADD75C,1.6000*%
%ADD77R,1.2100X0.6000*%
G36*
X24550Y1003947D02*
X24777Y1003966D01*
X25000Y1003922D01*
X117197D01*
X117629Y1000639D01*
X117716Y1000385D01*
X117733Y1000116D01*
X118918Y995694D01*
X119037Y995453D01*
X119090Y995189D01*
X120842Y990959D01*
X120991Y990735D01*
X121078Y990481D01*
X123367Y986516D01*
X123544Y986314D01*
X123663Y986072D01*
X126450Y982440D01*
X126652Y982263D01*
X126802Y982039D01*
X130039Y978802D01*
X130263Y978652D01*
X130440Y978450D01*
X134072Y975663D01*
X134314Y975544D01*
X134516Y975367D01*
X138481Y973078D01*
X138736Y972991D01*
X138959Y972842D01*
X143189Y971090D01*
X143453Y971037D01*
X143694Y970918D01*
X148116Y969733D01*
X148385Y969716D01*
X148639Y969629D01*
X153179Y969032D01*
X153380Y969045D01*
X153577Y968999D01*
X155867Y968924D01*
X156000Y968946D01*
X156133Y968924D01*
X158422Y968999D01*
X158620Y969045D01*
X158821Y969032D01*
X163361Y969629D01*
X163615Y969716D01*
X163884Y969733D01*
X168306Y970918D01*
X168547Y971037D01*
X168811Y971090D01*
X173041Y972842D01*
X173265Y972991D01*
X173519Y973078D01*
X177484Y975367D01*
X177686Y975544D01*
X177928Y975663D01*
X181560Y978450D01*
X181737Y978652D01*
X181961Y978802D01*
X185198Y982039D01*
X185348Y982263D01*
X185550Y982440D01*
X188337Y986072D01*
X188456Y986314D01*
X188633Y986516D01*
X190922Y990481D01*
X191009Y990735D01*
X191158Y990959D01*
X192910Y995189D01*
X192963Y995453D01*
X193082Y995694D01*
X194267Y1000116D01*
X194284Y1000385D01*
X194371Y1000639D01*
X194803Y1003922D01*
X291568D01*
X294644Y1003310D01*
X297542Y1002110D01*
X300149Y1000367D01*
X302367Y998149D01*
X304110Y995542D01*
X305310Y992644D01*
X305922Y989568D01*
X305922Y988000D01*
Y988000D01*
Y988000D01*
Y968000D01*
X305942Y967900D01*
X305927Y967800D01*
X306023Y965840D01*
X306096Y965546D01*
Y965244D01*
X306861Y961399D01*
X307015Y961028D01*
X307093Y960634D01*
X308594Y957011D01*
X308817Y956677D01*
X308971Y956306D01*
X311149Y953046D01*
X311433Y952762D01*
X311656Y952428D01*
X314428Y949656D01*
X314762Y949433D01*
X315046Y949149D01*
X318306Y946971D01*
X318677Y946817D01*
X319011Y946594D01*
X322634Y945093D01*
X323027Y945015D01*
X323399Y944861D01*
X327244Y944096D01*
X327546D01*
X327840Y944023D01*
X329800Y943927D01*
X329900Y943942D01*
X330000Y943922D01*
X580000D01*
X580000D01*
X580000D01*
X581568Y943922D01*
X584644Y943310D01*
X587542Y942110D01*
X590149Y940367D01*
X592367Y938150D01*
X594110Y935542D01*
X595310Y932644D01*
X595922Y929568D01*
X595922Y928000D01*
Y928000D01*
Y928000D01*
Y203426D01*
Y202153D01*
X595672Y199618D01*
X595175Y197120D01*
X594436Y194683D01*
X593461Y192330D01*
X592261Y190083D01*
X590846Y187966D01*
X589230Y185997D01*
X588330Y185097D01*
X588330Y185097D01*
X588329Y185097D01*
X456903Y53671D01*
X456903Y53670D01*
X456003Y52770D01*
X454034Y51154D01*
X451917Y49739D01*
X449670Y48539D01*
X447318Y47564D01*
X444880Y46825D01*
X442382Y46328D01*
X439847Y46078D01*
X312000D01*
X310439Y45768D01*
X309116Y44884D01*
X308232Y43561D01*
X307922Y42000D01*
X307922Y36000D01*
X307922Y35999D01*
X307922Y35999D01*
X307922Y33782D01*
X307310Y29391D01*
X306096Y25126D01*
X304305Y21070D01*
X301971Y17300D01*
X299138Y13888D01*
X295861Y10901D01*
X292203Y8396D01*
X288233Y6420D01*
X284029Y5011D01*
X279670Y4197D01*
X275241Y3993D01*
X270826Y4403D01*
X266510Y5419D01*
X262375Y7022D01*
X258502Y9180D01*
X254965Y11853D01*
X251830Y14990D01*
X249159Y18529D01*
X247003Y22403D01*
X246204Y24470D01*
X246178Y24512D01*
X246168Y24561D01*
X245752Y25183D01*
X245352Y25814D01*
X245311Y25842D01*
X245284Y25884D01*
X244662Y26299D01*
X244050Y26730D01*
X244002Y26740D01*
X243961Y26768D01*
X243227Y26914D01*
X242497Y27077D01*
X242448Y27069D01*
X242400Y27078D01*
X69600Y27078D01*
X69559Y27070D01*
X69517Y27077D01*
X68779Y26915D01*
X68039Y26768D01*
X68004Y26744D01*
X67963Y26735D01*
X67344Y26303D01*
X66716Y25884D01*
X66693Y25849D01*
X66658Y25824D01*
X66252Y25188D01*
X65832Y24561D01*
X65824Y24519D01*
X65801Y24483D01*
X64996Y22422D01*
X62832Y18559D01*
X60157Y15032D01*
X57021Y11908D01*
X53484Y9245D01*
X49613Y7096D01*
X45483Y5501D01*
X41173Y4491D01*
X36765Y4084D01*
X32342Y4289D01*
X27991Y5102D01*
X23792Y6507D01*
X19828Y8477D01*
X16173Y10976D01*
X12898Y13954D01*
X10064Y17355D01*
X7727Y21115D01*
X5930Y25161D01*
X4708Y29416D01*
X4084Y33798D01*
X4078Y36001D01*
Y412096D01*
X6821Y412445D01*
X7202Y412573D01*
X7600Y412623D01*
X11607Y413965D01*
X11955Y414164D01*
X12336Y414291D01*
X16004Y416389D01*
X16307Y416652D01*
X16656Y416851D01*
X19844Y419624D01*
X20090Y419941D01*
X20393Y420205D01*
X22979Y423546D01*
X23158Y423905D01*
X23404Y424223D01*
X25289Y428004D01*
X25394Y428392D01*
X25573Y428751D01*
X26437Y431922D01*
X50000D01*
X50133Y431948D01*
X50267Y431931D01*
X52094Y432050D01*
X52482Y432154D01*
X52883Y432180D01*
X56413Y433126D01*
X56891Y433362D01*
X57397Y433534D01*
X60562Y435361D01*
X60963Y435713D01*
X61406Y436009D01*
X63991Y438594D01*
X64287Y439037D01*
X64639Y439438D01*
X66466Y442603D01*
X66638Y443108D01*
X66874Y443587D01*
X67819Y447117D01*
X67854Y447649D01*
X67958Y448173D01*
Y451827D01*
X67854Y452351D01*
X67819Y452883D01*
X66874Y456413D01*
X66638Y456892D01*
X66466Y457397D01*
X64639Y460562D01*
X64287Y460963D01*
X63991Y461406D01*
X61406Y463991D01*
X60963Y464287D01*
X60562Y464639D01*
X57397Y466466D01*
X56892Y466637D01*
X56413Y466874D01*
X52883Y467820D01*
X52482Y467846D01*
X52094Y467950D01*
X50267Y468069D01*
X50133Y468052D01*
X50000Y468078D01*
X26088Y468078D01*
X24941Y471000D01*
X24724Y471338D01*
X24578Y471712D01*
X22481Y474981D01*
X22202Y475270D01*
X21985Y475608D01*
X19291Y478406D01*
X18961Y478635D01*
X18683Y478924D01*
X15494Y481142D01*
X15126Y481303D01*
X14796Y481532D01*
X11237Y483086D01*
X10844Y483171D01*
X10476Y483332D01*
X6682Y484161D01*
X6280Y484169D01*
X5888Y484254D01*
X4078Y484288D01*
X4078Y860918D01*
X6364Y861090D01*
X6751Y861198D01*
X7152Y861228D01*
X11052Y862313D01*
X11410Y862494D01*
X11797Y862602D01*
X15411Y864427D01*
X15727Y864674D01*
X16086Y864855D01*
X19274Y867351D01*
X19536Y867655D01*
X19852Y867903D01*
X22493Y870972D01*
X22690Y871322D01*
X22952Y871626D01*
X24943Y875151D01*
X25068Y875533D01*
X25266Y875883D01*
X26265Y878922D01*
X50000D01*
X50133Y878948D01*
X50267Y878931D01*
X52094Y879050D01*
X52482Y879154D01*
X52883Y879181D01*
X56413Y880126D01*
X56891Y880362D01*
X57397Y880534D01*
X60562Y882361D01*
X60963Y882713D01*
X61406Y883009D01*
X63991Y885594D01*
X64287Y886037D01*
X64639Y886438D01*
X66466Y889603D01*
X66638Y890108D01*
X66874Y890587D01*
X67819Y894117D01*
X67854Y894649D01*
X67958Y895173D01*
Y898827D01*
X67854Y899351D01*
X67819Y899883D01*
X66874Y903413D01*
X66638Y903892D01*
X66466Y904397D01*
X64639Y907562D01*
X64287Y907963D01*
X63991Y908406D01*
X61406Y910991D01*
X60963Y911287D01*
X60562Y911639D01*
X57397Y913466D01*
X56892Y913637D01*
X56413Y913874D01*
X52883Y914819D01*
X52482Y914846D01*
X52094Y914950D01*
X50267Y915070D01*
X50133Y915052D01*
X50000Y915078D01*
X26265Y915078D01*
X25266Y918117D01*
X25068Y918467D01*
X24943Y918848D01*
X22952Y922374D01*
X22690Y922678D01*
X22493Y923028D01*
X19852Y926097D01*
X19536Y926345D01*
X19274Y926649D01*
X16086Y929144D01*
X15727Y929325D01*
X15411Y929573D01*
X11797Y931398D01*
X11410Y931506D01*
X11052Y931687D01*
X7152Y932772D01*
X6751Y932802D01*
X6364Y932910D01*
X4078Y933082D01*
X4079Y987774D01*
X4256Y989366D01*
X5361Y992851D01*
X7124Y996054D01*
X9478Y998851D01*
X12333Y1001135D01*
X15579Y1002818D01*
X19090Y1003835D01*
X22733Y1004148D01*
X24550Y1003947D01*
D02*
G37*
%LPC*%
G36*
X568400Y502000D02*
X562400D01*
Y496000D01*
X568400D01*
Y502000D01*
D02*
G37*
G36*
X584400D02*
X578400D01*
Y496000D01*
X584400D01*
Y502000D01*
D02*
G37*
G36*
X517600D02*
X512765D01*
X512991Y501452D01*
X514755Y499155D01*
X517052Y497392D01*
X517600Y497165D01*
Y502000D01*
D02*
G37*
G36*
X159500Y486587D02*
X157744Y486238D01*
X156255Y485243D01*
X155261Y483755D01*
X154911Y481999D01*
X154995Y481578D01*
X154755Y481738D01*
X153000Y482087D01*
X151244Y481738D01*
X151004Y481578D01*
X151088Y481999D01*
X150739Y483755D01*
X149744Y485243D01*
X148256Y486238D01*
X146500Y486587D01*
X144744Y486238D01*
X143255Y485243D01*
X142261Y483755D01*
X141912Y481999D01*
X141964Y481733D01*
X141956Y481739D01*
X140200Y482088D01*
X138444Y481739D01*
X136956Y480744D01*
X135961Y479256D01*
X135612Y477500D01*
X135961Y475744D01*
X136956Y474256D01*
X138444Y473261D01*
X140200Y472912D01*
X141956Y473261D01*
X143444Y474256D01*
X144439Y475744D01*
X144788Y477500D01*
X144735Y477766D01*
X144744Y477760D01*
X146500Y477411D01*
X148256Y477760D01*
X148495Y477920D01*
X148412Y477499D01*
X148761Y475743D01*
X149755Y474255D01*
X151244Y473260D01*
X153000Y472911D01*
X154755Y473260D01*
X156244Y474255D01*
X157239Y475743D01*
X157588Y477499D01*
X157504Y477920D01*
X157744Y477760D01*
X159500Y477411D01*
X161255Y477760D01*
X161495Y477920D01*
X161411Y477499D01*
X161761Y475743D01*
X162755Y474255D01*
X164244Y473260D01*
X166000Y472911D01*
X167756Y473260D01*
X169244Y474255D01*
X170239Y475743D01*
X170588Y477499D01*
X170239Y479255D01*
X169244Y480743D01*
X167756Y481738D01*
X166000Y482087D01*
X164244Y481738D01*
X164004Y481578D01*
X164088Y481999D01*
X163739Y483755D01*
X162744Y485243D01*
X161255Y486238D01*
X159500Y486587D01*
D02*
G37*
G36*
X253000Y500588D02*
X251244Y500239D01*
X249756Y499244D01*
X248761Y497756D01*
X248412Y496000D01*
X248761Y494244D01*
X249756Y492756D01*
X251244Y491761D01*
X253000Y491412D01*
X254756Y491761D01*
X256244Y492756D01*
X257239Y494244D01*
X257588Y496000D01*
X257239Y497756D01*
X256244Y499244D01*
X254756Y500239D01*
X253000Y500588D01*
D02*
G37*
G36*
X281000Y502588D02*
X279244Y502239D01*
X277756Y501244D01*
X276761Y499756D01*
X276412Y498000D01*
X276761Y496244D01*
X277756Y494756D01*
X279244Y493761D01*
X281000Y493412D01*
X282756Y493761D01*
X284244Y494756D01*
X285239Y496244D01*
X285588Y498000D01*
X285239Y499756D01*
X284244Y501244D01*
X282756Y502239D01*
X281000Y502588D01*
D02*
G37*
G36*
X135500Y516588D02*
X133744Y516239D01*
X132256Y515244D01*
X131261Y513756D01*
X130912Y512000D01*
X131261Y510244D01*
X132256Y508756D01*
X133744Y507761D01*
X135500Y507412D01*
X137256Y507761D01*
X138744Y508756D01*
X139739Y510244D01*
X140088Y512000D01*
X139739Y513756D01*
X138744Y515244D01*
X137256Y516239D01*
X135500Y516588D01*
D02*
G37*
G36*
X568400Y518000D02*
X562400D01*
Y512000D01*
X568400D01*
Y518000D01*
D02*
G37*
G36*
X517600Y516835D02*
X517052Y516609D01*
X514755Y514845D01*
X512991Y512547D01*
X512765Y512000D01*
X517600D01*
Y516835D01*
D02*
G37*
G36*
X527600Y516835D02*
Y512000D01*
X532435D01*
X532209Y512547D01*
X530445Y514845D01*
X528148Y516609D01*
X527600Y516835D01*
D02*
G37*
G36*
X532435Y502000D02*
X527600D01*
Y497165D01*
X528148Y497392D01*
X530445Y499155D01*
X532209Y501452D01*
X532435Y502000D01*
D02*
G37*
G36*
X274000Y512588D02*
X272244Y512239D01*
X270756Y511244D01*
X269761Y509756D01*
X269412Y508000D01*
X269761Y506244D01*
X270756Y504756D01*
X272244Y503761D01*
X274000Y503412D01*
X275756Y503761D01*
X277244Y504756D01*
X278239Y506244D01*
X278588Y508000D01*
X278239Y509756D01*
X277244Y511244D01*
X275756Y512239D01*
X274000Y512588D01*
D02*
G37*
G36*
X337000Y395588D02*
X335244Y395239D01*
X333756Y394244D01*
X332761Y392756D01*
X332412Y391000D01*
X332761Y389244D01*
X333756Y387756D01*
X335244Y386761D01*
X337000Y386412D01*
X338756Y386761D01*
X340244Y387756D01*
X341239Y389244D01*
X341588Y391000D01*
X341239Y392756D01*
X340244Y394244D01*
X338756Y395239D01*
X337000Y395588D01*
D02*
G37*
G36*
X99250Y423338D02*
X97494Y422989D01*
X96006Y421994D01*
X95011Y420506D01*
X94662Y418750D01*
X95011Y416994D01*
X95592Y416125D01*
X95011Y415256D01*
X94662Y413500D01*
X95011Y411744D01*
X96006Y410256D01*
X97494Y409261D01*
X99250Y408912D01*
X99951Y409051D01*
X100261Y407494D01*
X101256Y406006D01*
X102744Y405011D01*
X104500Y404662D01*
X106256Y405011D01*
X107125Y405592D01*
X107994Y405011D01*
X109750Y404662D01*
X111506Y405011D01*
X112994Y406006D01*
X113989Y407494D01*
X114338Y409250D01*
X113989Y411006D01*
X112994Y412494D01*
X111506Y413489D01*
X109750Y413838D01*
X107994Y413489D01*
X107125Y412908D01*
X106256Y413489D01*
X104500Y413838D01*
X103799Y413699D01*
X103489Y415256D01*
X102908Y416125D01*
X103489Y416994D01*
X103838Y418750D01*
X103489Y420506D01*
X102494Y421994D01*
X101006Y422989D01*
X99250Y423338D01*
D02*
G37*
G36*
X475250Y494094D02*
X380250D01*
X374495Y493717D01*
X368838Y492592D01*
X363376Y490738D01*
X358203Y488187D01*
X353407Y484982D01*
X349071Y481179D01*
X345268Y476843D01*
X342063Y472047D01*
X339512Y466874D01*
X337658Y461413D01*
X336533Y455756D01*
X336156Y450000D01*
X336533Y444244D01*
X337658Y438587D01*
X339512Y433126D01*
X342063Y427953D01*
X345268Y423157D01*
X349071Y418820D01*
X353407Y415018D01*
X358203Y411813D01*
X363376Y409262D01*
X368838Y407408D01*
X374495Y406283D01*
X380250Y405906D01*
X475250D01*
X481006Y406283D01*
X486662Y407408D01*
X492124Y409262D01*
X497297Y411813D01*
X502093Y415018D01*
X506429Y418820D01*
X510232Y423157D01*
X513437Y427953D01*
X515988Y433126D01*
X517842Y438587D01*
X518967Y444244D01*
X519344Y450000D01*
X518967Y455756D01*
X517842Y461413D01*
X515988Y466874D01*
X513437Y472047D01*
X510232Y476843D01*
X506429Y481179D01*
X502093Y484982D01*
X497297Y488187D01*
X492124Y490738D01*
X486662Y492592D01*
X481006Y493717D01*
X475250Y494094D01*
D02*
G37*
G36*
X51000Y385294D02*
Y381000D01*
X55294D01*
X55172Y381295D01*
X53489Y383489D01*
X51295Y385172D01*
X51000Y385294D01*
D02*
G37*
G36*
X196000Y385294D02*
Y381000D01*
X200294D01*
X200172Y381295D01*
X198489Y383489D01*
X196295Y385172D01*
X196000Y385294D01*
D02*
G37*
G36*
X297000Y395588D02*
X295244Y395239D01*
X293756Y394244D01*
X292761Y392756D01*
X292412Y391000D01*
X292761Y389244D01*
X293756Y387756D01*
X295244Y386761D01*
X297000Y386412D01*
X298756Y386761D01*
X300244Y387756D01*
X301239Y389244D01*
X301588Y391000D01*
X301239Y392756D01*
X300244Y394244D01*
X298756Y395239D01*
X297000Y395588D01*
D02*
G37*
G36*
X234300Y492138D02*
X232544Y491789D01*
X231056Y490794D01*
X230061Y489306D01*
X229712Y487550D01*
X230061Y485794D01*
X230575Y485025D01*
X230061Y484256D01*
X229712Y482500D01*
X230061Y480744D01*
X231056Y479256D01*
X232544Y478261D01*
X234300Y477912D01*
X236056Y478261D01*
X237544Y479256D01*
X238539Y480744D01*
X238888Y482500D01*
X238539Y484256D01*
X238025Y485025D01*
X238539Y485794D01*
X238888Y487550D01*
X238539Y489306D01*
X237544Y490794D01*
X236056Y491789D01*
X234300Y492138D01*
D02*
G37*
G36*
X281500Y489088D02*
X279744Y488739D01*
X278256Y487744D01*
X277261Y486256D01*
X276912Y484500D01*
X277261Y482744D01*
X278256Y481256D01*
X279744Y480261D01*
X281500Y479912D01*
X283256Y480261D01*
X284744Y481256D01*
X285739Y482744D01*
X286088Y484500D01*
X285739Y486256D01*
X284744Y487744D01*
X283256Y488739D01*
X281500Y489088D01*
D02*
G37*
G36*
X316100D02*
X314344Y488739D01*
X312856Y487744D01*
X311861Y486256D01*
X311512Y484500D01*
X311861Y482744D01*
X312856Y481256D01*
X314344Y480261D01*
X316100Y479912D01*
X317856Y480261D01*
X319344Y481256D01*
X320339Y482744D01*
X320688Y484500D01*
X320339Y486256D01*
X319344Y487744D01*
X317856Y488739D01*
X316100Y489088D01*
D02*
G37*
G36*
X238750Y422388D02*
X236994Y422039D01*
X235506Y421044D01*
X234511Y419556D01*
X234162Y417800D01*
X234511Y416044D01*
X235109Y415150D01*
X234511Y414256D01*
X234211Y412747D01*
X233500Y412888D01*
X231744Y412539D01*
X230838Y411933D01*
X230006Y412489D01*
X228250Y412838D01*
X226494Y412489D01*
X225006Y411494D01*
X224011Y410006D01*
X223662Y408250D01*
X224011Y406494D01*
X225006Y405006D01*
X226494Y404011D01*
X228250Y403662D01*
X230006Y404011D01*
X230912Y404617D01*
X231744Y404061D01*
X233500Y403712D01*
X235256Y404061D01*
X236744Y405056D01*
X237739Y406544D01*
X238039Y408053D01*
X238750Y407912D01*
X240506Y408261D01*
X241994Y409256D01*
X242989Y410744D01*
X243338Y412500D01*
X242989Y414256D01*
X242391Y415150D01*
X242989Y416044D01*
X243338Y417800D01*
X242989Y419556D01*
X241994Y421044D01*
X240506Y422039D01*
X238750Y422388D01*
D02*
G37*
G36*
X212500Y460832D02*
X210020Y460505D01*
X207709Y459548D01*
X205725Y458025D01*
X204202Y456041D01*
X203244Y453730D01*
X202918Y451250D01*
X203244Y448770D01*
X204202Y446459D01*
X205725Y444474D01*
X207709Y442952D01*
X210020Y441995D01*
X212500Y441668D01*
X214980Y441995D01*
X217291Y442952D01*
X219275Y444474D01*
X220798Y446459D01*
X221755Y448770D01*
X222082Y451250D01*
X221755Y453730D01*
X220798Y456041D01*
X219275Y458025D01*
X217291Y459548D01*
X214980Y460505D01*
X212500Y460832D01*
D02*
G37*
G36*
X89500Y462332D02*
X87020Y462006D01*
X84709Y461048D01*
X82725Y459525D01*
X81202Y457541D01*
X80245Y455230D01*
X79918Y452750D01*
X80245Y450270D01*
X81202Y447959D01*
X82725Y445975D01*
X84709Y444452D01*
X87020Y443494D01*
X89500Y443168D01*
X91980Y443494D01*
X94291Y444452D01*
X96275Y445975D01*
X97798Y447959D01*
X98756Y450270D01*
X99082Y452750D01*
X98756Y455230D01*
X97798Y457541D01*
X96275Y459525D01*
X94291Y461048D01*
X91980Y462006D01*
X89500Y462332D01*
D02*
G37*
G36*
X584400Y518000D02*
X578400D01*
Y512000D01*
X584400D01*
Y518000D01*
D02*
G37*
G36*
X545500Y569088D02*
X543744Y568739D01*
X542256Y567744D01*
X541261Y566256D01*
X540912Y564500D01*
X541261Y562744D01*
X541421Y562504D01*
X541000Y562588D01*
X539244Y562239D01*
X537756Y561244D01*
X536761Y559756D01*
X536412Y558000D01*
X536761Y556244D01*
X537756Y554756D01*
X539244Y553761D01*
X541000Y553412D01*
X542756Y553761D01*
X543076Y553975D01*
X542261Y552756D01*
X541912Y551000D01*
X542261Y549244D01*
X543256Y547756D01*
X544744Y546761D01*
X546500Y546412D01*
X548256Y546761D01*
X549744Y547756D01*
X550739Y549244D01*
X551088Y551000D01*
X550739Y552756D01*
X549744Y554244D01*
X548256Y555239D01*
X546500Y555588D01*
X544744Y555239D01*
X544424Y555025D01*
X545239Y556244D01*
X545588Y558000D01*
X545239Y559756D01*
X545079Y559996D01*
X545500Y559912D01*
X547256Y560261D01*
X548744Y561256D01*
X549739Y562744D01*
X550088Y564500D01*
X549739Y566256D01*
X548744Y567744D01*
X547256Y568739D01*
X545500Y569088D01*
D02*
G37*
G36*
X168000Y583588D02*
X166244Y583239D01*
X164756Y582244D01*
X163761Y580756D01*
X163412Y579000D01*
X163761Y577244D01*
X164630Y575944D01*
X163594Y575738D01*
X162106Y574743D01*
X161111Y573255D01*
X160762Y571499D01*
X161111Y569743D01*
X162106Y568255D01*
X163594Y567260D01*
X165350Y566911D01*
X165707Y566982D01*
X165411Y565499D01*
X165706Y564017D01*
X165350Y564088D01*
X163594Y563739D01*
X162106Y562744D01*
X161111Y561256D01*
X160762Y559500D01*
X161111Y557744D01*
X162106Y556256D01*
X163594Y555261D01*
X165350Y554912D01*
X166644Y555169D01*
X166411Y553999D01*
X166761Y552243D01*
X167755Y550755D01*
X169244Y549760D01*
X171000Y549411D01*
X172756Y549760D01*
X174244Y550755D01*
X175239Y552243D01*
X175588Y553999D01*
X175239Y555755D01*
X174244Y557243D01*
X172756Y558238D01*
X171000Y558587D01*
X169705Y558330D01*
X169938Y559500D01*
X169643Y560982D01*
X170000Y560911D01*
X171756Y561260D01*
X173244Y562255D01*
X174239Y563743D01*
X174588Y565499D01*
X174239Y567255D01*
X173244Y568743D01*
X171756Y569738D01*
X170000Y570087D01*
X169643Y570016D01*
X169938Y571499D01*
X169589Y573255D01*
X168720Y574555D01*
X169756Y574761D01*
X171244Y575756D01*
X172239Y577244D01*
X172588Y579000D01*
X172239Y580756D01*
X171244Y582244D01*
X169756Y583239D01*
X168000Y583588D01*
D02*
G37*
G36*
X342500Y582588D02*
X340744Y582239D01*
X339256Y581244D01*
X338261Y579756D01*
X337912Y578000D01*
X338261Y576244D01*
X339256Y574756D01*
X340744Y573761D01*
X342500Y573412D01*
X344256Y573761D01*
X345744Y574756D01*
X346739Y576244D01*
X347088Y578000D01*
X346739Y579756D01*
X345744Y581244D01*
X344256Y582239D01*
X342500Y582588D01*
D02*
G37*
G36*
X584400Y546000D02*
X578400D01*
Y540000D01*
X584400D01*
Y546000D01*
D02*
G37*
G36*
X269500Y551588D02*
X267744Y551239D01*
X266256Y550244D01*
X265261Y548756D01*
X264912Y547000D01*
X265261Y545244D01*
X266256Y543756D01*
X267744Y542761D01*
X269500Y542412D01*
X271256Y542761D01*
X272744Y543756D01*
X273739Y545244D01*
X274088Y547000D01*
X273739Y548756D01*
X272744Y550244D01*
X271256Y551239D01*
X269500Y551588D01*
D02*
G37*
G36*
X462000Y579082D02*
X459520Y578755D01*
X457209Y577798D01*
X455224Y576275D01*
X453702Y574291D01*
X452744Y571980D01*
X452418Y569500D01*
X452744Y567020D01*
X453702Y564709D01*
X455224Y562725D01*
X457209Y561202D01*
X459520Y560244D01*
X462000Y559918D01*
X464480Y560244D01*
X466791Y561202D01*
X468775Y562725D01*
X470298Y564709D01*
X471255Y567020D01*
X471582Y569500D01*
X471255Y571980D01*
X470298Y574291D01*
X468775Y576275D01*
X466791Y577798D01*
X464480Y578755D01*
X462000Y579082D01*
D02*
G37*
G36*
X390000Y591088D02*
X388244Y590739D01*
X386756Y589744D01*
X385761Y588256D01*
X385412Y586500D01*
X385659Y585257D01*
X383999Y585587D01*
X382243Y585238D01*
X380755Y584243D01*
X379760Y582755D01*
X379411Y580999D01*
X379760Y579243D01*
X380755Y577755D01*
X382243Y576760D01*
X383999Y576411D01*
X385755Y576760D01*
X387243Y577755D01*
X388238Y579243D01*
X388587Y580999D01*
X388340Y582242D01*
X390000Y581912D01*
X391756Y582261D01*
X393244Y583256D01*
X394239Y584744D01*
X394588Y586500D01*
X394239Y588256D01*
X393244Y589744D01*
X391756Y590739D01*
X390000Y591088D01*
D02*
G37*
G36*
X112500Y590588D02*
X110744Y590239D01*
X109256Y589244D01*
X109000Y588862D01*
X108744Y589244D01*
X107256Y590239D01*
X105500Y590588D01*
X103744Y590239D01*
X102256Y589244D01*
X101261Y587756D01*
X100912Y586000D01*
X101261Y584244D01*
X102256Y582756D01*
X103744Y581761D01*
X105500Y581412D01*
X107256Y581761D01*
X108744Y582756D01*
X109000Y583138D01*
X109256Y582756D01*
X110744Y581761D01*
X112500Y581412D01*
X114256Y581761D01*
X115744Y582756D01*
X116739Y584244D01*
X117088Y586000D01*
X116739Y587756D01*
X115744Y589244D01*
X114256Y590239D01*
X112500Y590588D01*
D02*
G37*
G36*
X534150Y592500D02*
X527600D01*
Y589000D01*
X534150D01*
Y592500D01*
D02*
G37*
G36*
X547000Y589588D02*
X545244Y589239D01*
X543756Y588244D01*
X542761Y586756D01*
X542412Y585000D01*
X542761Y583244D01*
X543756Y581756D01*
X544637Y581167D01*
X543256Y580244D01*
X542261Y578756D01*
X541912Y577000D01*
X542261Y575244D01*
X543256Y573756D01*
X544744Y572761D01*
X546500Y572412D01*
X548256Y572761D01*
X549744Y573756D01*
X550739Y575244D01*
X551088Y577000D01*
X550945Y577721D01*
X551256Y577256D01*
X552744Y576261D01*
X554500Y575912D01*
X556256Y576261D01*
X557744Y577256D01*
X558739Y578744D01*
X559088Y580500D01*
X558739Y582256D01*
X557744Y583744D01*
X556256Y584739D01*
X554500Y585088D01*
X552744Y584739D01*
X551351Y583808D01*
X551588Y585000D01*
X551239Y586756D01*
X550244Y588244D01*
X548756Y589239D01*
X547000Y589588D01*
D02*
G37*
G36*
X139000Y597588D02*
X137244Y597239D01*
X135756Y596244D01*
X134761Y594756D01*
X134412Y593000D01*
X134761Y591244D01*
X135756Y589756D01*
X137244Y588761D01*
X138807Y588450D01*
X137744Y588239D01*
X136256Y587244D01*
X135261Y585756D01*
X134912Y584000D01*
X135261Y582244D01*
X136256Y580756D01*
X137744Y579761D01*
X139500Y579412D01*
X141256Y579761D01*
X142744Y580756D01*
X143739Y582244D01*
X144088Y584000D01*
X143739Y585756D01*
X142744Y587244D01*
X141256Y588239D01*
X139693Y588550D01*
X140756Y588761D01*
X142244Y589756D01*
X143239Y591244D01*
X143588Y593000D01*
X143239Y594756D01*
X142244Y596244D01*
X140756Y597239D01*
X139000Y597588D01*
D02*
G37*
G36*
X163500Y601088D02*
X161744Y600739D01*
X160256Y599744D01*
X159261Y598256D01*
X158912Y596500D01*
X159261Y594744D01*
X160256Y593256D01*
X161262Y592583D01*
X160756Y592244D01*
X159761Y590756D01*
X159412Y589000D01*
X159761Y587244D01*
X160756Y585756D01*
X162244Y584761D01*
X164000Y584412D01*
X165756Y584761D01*
X167244Y585756D01*
X168239Y587244D01*
X168588Y589000D01*
X168239Y590756D01*
X167244Y592244D01*
X166238Y592917D01*
X166744Y593256D01*
X167739Y594744D01*
X168088Y596500D01*
X167739Y598256D01*
X166744Y599744D01*
X165256Y600739D01*
X163500Y601088D01*
D02*
G37*
G36*
X568400Y530000D02*
X562400D01*
Y524000D01*
X568400D01*
Y530000D01*
D02*
G37*
G36*
X584400D02*
X578400D01*
Y524000D01*
X584400D01*
Y530000D01*
D02*
G37*
G36*
X548000Y546095D02*
X545128Y545717D01*
X542453Y544608D01*
X540155Y542845D01*
X538391Y540547D01*
X537283Y537872D01*
X536905Y535000D01*
X537283Y532128D01*
X538391Y529453D01*
X540155Y527155D01*
X542265Y525535D01*
X542000Y525588D01*
X540244Y525239D01*
X538756Y524244D01*
X537761Y522756D01*
X537412Y521000D01*
X537761Y519244D01*
X538756Y517756D01*
X540244Y516761D01*
X542000Y516412D01*
X542265Y516465D01*
X540155Y514845D01*
X538391Y512547D01*
X537283Y509872D01*
X536905Y507000D01*
X537283Y504128D01*
X538391Y501452D01*
X540155Y499155D01*
X542453Y497392D01*
X545128Y496283D01*
X548000Y495905D01*
X550872Y496283D01*
X553548Y497392D01*
X555845Y499155D01*
X557608Y501452D01*
X558717Y504128D01*
X559095Y507000D01*
X558717Y509872D01*
X557608Y512547D01*
X555845Y514845D01*
X553548Y516609D01*
X550872Y517717D01*
X548000Y518095D01*
X545200Y517726D01*
X545244Y517756D01*
X546239Y519244D01*
X546588Y521000D01*
X546239Y522756D01*
X545244Y524244D01*
X545200Y524274D01*
X548000Y523905D01*
X550872Y524283D01*
X553548Y525392D01*
X555845Y527155D01*
X557608Y529453D01*
X558717Y532128D01*
X559095Y535000D01*
X558717Y537872D01*
X557608Y540547D01*
X555845Y542845D01*
X553548Y544608D01*
X550872Y545717D01*
X548000Y546095D01*
D02*
G37*
G36*
X555000Y525588D02*
X553244Y525239D01*
X551756Y524244D01*
X550761Y522756D01*
X550412Y521000D01*
X550761Y519244D01*
X551756Y517756D01*
X553244Y516761D01*
X555000Y516412D01*
X556756Y516761D01*
X558244Y517756D01*
X559239Y519244D01*
X559588Y521000D01*
X559239Y522756D01*
X558244Y524244D01*
X556756Y525239D01*
X555000Y525588D01*
D02*
G37*
G36*
X334750Y531338D02*
X332994Y530989D01*
X331506Y529994D01*
X330511Y528506D01*
X330162Y526750D01*
X330511Y524994D01*
X331506Y523506D01*
X332994Y522511D01*
X334750Y522162D01*
X336506Y522511D01*
X337994Y523506D01*
X338989Y524994D01*
X339338Y526750D01*
X338989Y528506D01*
X337994Y529994D01*
X336506Y530989D01*
X334750Y531338D01*
D02*
G37*
G36*
X522600Y546095D02*
X519728Y545717D01*
X517052Y544608D01*
X514755Y542845D01*
X512991Y540547D01*
X511883Y537872D01*
X511505Y535000D01*
X511883Y532128D01*
X512991Y529453D01*
X514755Y527155D01*
X517052Y525392D01*
X519728Y524283D01*
X522600Y523905D01*
X525472Y524283D01*
X528148Y525392D01*
X530445Y527155D01*
X532209Y529453D01*
X533317Y532128D01*
X533695Y535000D01*
X533317Y537872D01*
X532209Y540547D01*
X530445Y542845D01*
X528148Y544608D01*
X525472Y545717D01*
X522600Y546095D01*
D02*
G37*
G36*
X136000Y548588D02*
X134244Y548239D01*
X132756Y547244D01*
X131761Y545756D01*
X131412Y544000D01*
X131761Y542244D01*
X132756Y540756D01*
X134244Y539761D01*
X136000Y539412D01*
X137756Y539761D01*
X139244Y540756D01*
X140239Y542244D01*
X140588Y544000D01*
X140239Y545756D01*
X139244Y547244D01*
X137756Y548239D01*
X136000Y548588D01*
D02*
G37*
G36*
X320500D02*
X318744Y548239D01*
X317256Y547244D01*
X316261Y545756D01*
X315912Y544000D01*
X316261Y542244D01*
X317256Y540756D01*
X318744Y539761D01*
X320500Y539412D01*
X322256Y539761D01*
X323744Y540756D01*
X324739Y542244D01*
X325088Y544000D01*
X324739Y545756D01*
X323744Y547244D01*
X322256Y548239D01*
X320500Y548588D01*
D02*
G37*
G36*
X568400Y546000D02*
X562400D01*
Y540000D01*
X568400D01*
Y546000D01*
D02*
G37*
G36*
X462000Y545082D02*
X459520Y544756D01*
X457209Y543798D01*
X455224Y542275D01*
X453702Y540291D01*
X452744Y537980D01*
X452418Y535500D01*
X452744Y533020D01*
X453702Y530709D01*
X455224Y528725D01*
X457209Y527202D01*
X459520Y526245D01*
X462000Y525918D01*
X464480Y526245D01*
X466791Y527202D01*
X468775Y528725D01*
X470298Y530709D01*
X471255Y533020D01*
X471582Y535500D01*
X471255Y537980D01*
X470298Y540291D01*
X468775Y542275D01*
X466791Y543798D01*
X464480Y544756D01*
X462000Y545082D01*
D02*
G37*
G36*
X284000Y544088D02*
X282244Y543739D01*
X280756Y542744D01*
X279761Y541256D01*
X279412Y539500D01*
X279761Y537744D01*
X280756Y536256D01*
X282244Y535261D01*
X284000Y534912D01*
X285756Y535261D01*
X287244Y536256D01*
X288239Y537744D01*
X288588Y539500D01*
X288239Y541256D01*
X287244Y542744D01*
X285756Y543739D01*
X284000Y544088D01*
D02*
G37*
G36*
X262500Y545088D02*
X260744Y544739D01*
X259256Y543744D01*
X258261Y542256D01*
X257912Y540500D01*
X258261Y538744D01*
X259256Y537256D01*
X260744Y536261D01*
X262500Y535912D01*
X264256Y536261D01*
X265744Y537256D01*
X266739Y538744D01*
X267088Y540500D01*
X266739Y542256D01*
X265744Y543744D01*
X264256Y544739D01*
X262500Y545088D01*
D02*
G37*
G36*
X590000Y300624D02*
X570500D01*
X569352Y300148D01*
X568876Y299000D01*
Y216500D01*
X569352Y215352D01*
X570500Y214876D01*
X570798D01*
X571136Y214436D01*
X572546Y213354D01*
X574188Y212674D01*
X575950Y212442D01*
X584450D01*
X586212Y212674D01*
X587854Y213354D01*
X589264Y214436D01*
X589602Y214876D01*
X590000D01*
X591148Y215352D01*
X591624Y216500D01*
Y296500D01*
Y299000D01*
X591148Y300148D01*
X590000Y300624D01*
D02*
G37*
G36*
X510500Y239588D02*
X508744Y239239D01*
X507256Y238244D01*
X506261Y236756D01*
X505912Y235000D01*
X506261Y233244D01*
X506876Y232325D01*
X506756Y232244D01*
X505761Y230756D01*
X505412Y229000D01*
X505761Y227244D01*
X506425Y226250D01*
X505761Y225256D01*
X505412Y223500D01*
X505761Y221744D01*
X506756Y220256D01*
X508244Y219261D01*
X510000Y218912D01*
X511756Y219261D01*
X513244Y220256D01*
X514239Y221744D01*
X514281Y221955D01*
X514500Y221912D01*
X516256Y222261D01*
X517744Y223256D01*
X518739Y224744D01*
X519088Y226500D01*
X518739Y228256D01*
X518242Y229000D01*
X518739Y229744D01*
X519088Y231500D01*
X518739Y233256D01*
X517744Y234744D01*
X516256Y235739D01*
X514887Y236011D01*
X514739Y236756D01*
X513744Y238244D01*
X512256Y239239D01*
X510500Y239588D01*
D02*
G37*
G36*
X504750Y325090D02*
X500199Y324731D01*
X495761Y323666D01*
X491544Y321919D01*
X487651Y319534D01*
X484180Y316569D01*
X481216Y313099D01*
X478831Y309206D01*
X477084Y304989D01*
X476018Y300551D01*
X475660Y296000D01*
X476018Y291449D01*
X477084Y287011D01*
X478831Y282794D01*
X481216Y278902D01*
X484180Y275431D01*
X487651Y272466D01*
X491544Y270081D01*
X495761Y268334D01*
X500199Y267269D01*
X504750Y266910D01*
X509301Y267269D01*
X513739Y268334D01*
X517956Y270081D01*
X521848Y272466D01*
X525320Y275431D01*
X528284Y278902D01*
X530669Y282794D01*
X532416Y287011D01*
X533481Y291449D01*
X533840Y296000D01*
X533481Y300551D01*
X532416Y304989D01*
X530669Y309206D01*
X528284Y313099D01*
X525320Y316569D01*
X521848Y319534D01*
X517956Y321919D01*
X513739Y323666D01*
X509301Y324731D01*
X504750Y325090D01*
D02*
G37*
G36*
X414750Y190588D02*
X412994Y190239D01*
X411506Y189244D01*
X410511Y187756D01*
X410375Y187072D01*
X410239Y187756D01*
X409244Y189244D01*
X407756Y190239D01*
X406000Y190588D01*
X404244Y190239D01*
X402756Y189244D01*
X401761Y187756D01*
X401412Y186000D01*
X401761Y184244D01*
X402756Y182756D01*
X404244Y181761D01*
X406000Y181412D01*
X407756Y181761D01*
X409244Y182756D01*
X410239Y184244D01*
X410375Y184928D01*
X410511Y184244D01*
X411506Y182756D01*
X412994Y181761D01*
X414750Y181412D01*
X416506Y181761D01*
X417994Y182756D01*
X418989Y184244D01*
X419338Y186000D01*
X418989Y187756D01*
X417994Y189244D01*
X416506Y190239D01*
X414750Y190588D01*
D02*
G37*
G36*
X378000D02*
X376244Y190239D01*
X374756Y189244D01*
X373761Y187756D01*
X373750Y187700D01*
X373739Y187756D01*
X372744Y189244D01*
X371256Y190239D01*
X369500Y190588D01*
X367744Y190239D01*
X366256Y189244D01*
X365261Y187756D01*
X364912Y186000D01*
X365261Y184244D01*
X366256Y182756D01*
X367744Y181761D01*
X369500Y181412D01*
X371256Y181761D01*
X372744Y182756D01*
X373739Y184244D01*
X373750Y184300D01*
X373761Y184244D01*
X374756Y182756D01*
X376244Y181761D01*
X378000Y181412D01*
X379756Y181761D01*
X381244Y182756D01*
X382239Y184244D01*
X382588Y186000D01*
X382239Y187756D01*
X381244Y189244D01*
X379756Y190239D01*
X378000Y190588D01*
D02*
G37*
G36*
X552500Y209588D02*
X550744Y209239D01*
X549256Y208244D01*
X548261Y206756D01*
X547912Y205000D01*
X548261Y203244D01*
X549256Y201756D01*
X550744Y200761D01*
X552500Y200412D01*
X554256Y200761D01*
X555744Y201756D01*
X556739Y203244D01*
X557088Y205000D01*
X556739Y206756D01*
X555744Y208244D01*
X554256Y209239D01*
X552500Y209588D01*
D02*
G37*
G36*
Y309588D02*
X550744Y309239D01*
X549256Y308244D01*
X548261Y306756D01*
X547912Y305000D01*
X548261Y303244D01*
X549256Y301756D01*
X550744Y300761D01*
X552500Y300412D01*
X554256Y300761D01*
X555744Y301756D01*
X556739Y303244D01*
X557088Y305000D01*
X556739Y306756D01*
X555744Y308244D01*
X554256Y309239D01*
X552500Y309588D01*
D02*
G37*
G36*
X442500Y314588D02*
X440744Y314239D01*
X439256Y313244D01*
X438261Y311756D01*
X437912Y310000D01*
X438261Y308244D01*
X439256Y306756D01*
X440744Y305761D01*
X442500Y305412D01*
X444256Y305761D01*
X445744Y306756D01*
X446739Y308244D01*
X447088Y310000D01*
X446739Y311756D01*
X445744Y313244D01*
X444256Y314239D01*
X442500Y314588D01*
D02*
G37*
G36*
X433450Y338588D02*
X431694Y338239D01*
X430206Y337244D01*
X429211Y335756D01*
X428862Y334000D01*
X429211Y332244D01*
X430206Y330756D01*
X431694Y329761D01*
X433450Y329412D01*
X435206Y329761D01*
X436694Y330756D01*
X437689Y332244D01*
X438038Y334000D01*
X437689Y335756D01*
X436694Y337244D01*
X435206Y338239D01*
X433450Y338588D01*
D02*
G37*
G36*
X429500Y277838D02*
X427744Y277489D01*
X426256Y276494D01*
X425261Y275006D01*
X424912Y273250D01*
X425261Y271494D01*
X426256Y270006D01*
X427744Y269011D01*
X429500Y268662D01*
X431256Y269011D01*
X432744Y270006D01*
X433739Y271494D01*
X434088Y273250D01*
X433739Y275006D01*
X432744Y276494D01*
X431256Y277489D01*
X429500Y277838D01*
D02*
G37*
G36*
X33750Y322582D02*
X29592Y322255D01*
X25536Y321281D01*
X21682Y319685D01*
X18125Y317505D01*
X14954Y314796D01*
X12245Y311625D01*
X10065Y308068D01*
X8469Y304214D01*
X7495Y300158D01*
X7168Y296000D01*
X7495Y291842D01*
X8469Y287786D01*
X10065Y283932D01*
X12245Y280375D01*
X14954Y277204D01*
X18125Y274495D01*
X21682Y272315D01*
X25536Y270719D01*
X29592Y269745D01*
X33750Y269418D01*
X37908Y269745D01*
X41964Y270719D01*
X45818Y272315D01*
X49374Y274495D01*
X52546Y277204D01*
X55255Y280375D01*
X57435Y283932D01*
X59031Y287786D01*
X60005Y291842D01*
X60332Y296000D01*
X60005Y300158D01*
X59031Y304214D01*
X57435Y308068D01*
X55255Y311625D01*
X52546Y314796D01*
X49374Y317505D01*
X45818Y319685D01*
X41964Y321281D01*
X37908Y322255D01*
X33750Y322582D01*
D02*
G37*
G36*
X360000Y287888D02*
X358244Y287539D01*
X356756Y286544D01*
X355761Y285056D01*
X355412Y283300D01*
X355761Y281544D01*
X356756Y280056D01*
X357487Y279567D01*
X356256Y278744D01*
X355261Y277256D01*
X354912Y275500D01*
X355261Y273744D01*
X356256Y272256D01*
X357744Y271261D01*
X359500Y270912D01*
X361256Y271261D01*
X362744Y272256D01*
X363739Y273744D01*
X364088Y275500D01*
X363739Y277256D01*
X362744Y278744D01*
X362013Y279233D01*
X363244Y280056D01*
X364239Y281544D01*
X364588Y283300D01*
X364239Y285056D01*
X363244Y286544D01*
X361756Y287539D01*
X360000Y287888D01*
D02*
G37*
G36*
X143400Y114838D02*
X141644Y114489D01*
X140156Y113494D01*
X139161Y112006D01*
X138812Y110250D01*
X139161Y108494D01*
X140156Y107006D01*
X141644Y106011D01*
X143400Y105662D01*
X145156Y106011D01*
X146644Y107006D01*
X147639Y108494D01*
X147988Y110250D01*
X147639Y112006D01*
X146644Y113494D01*
X145156Y114489D01*
X143400Y114838D01*
D02*
G37*
G36*
X168800D02*
X167044Y114489D01*
X165556Y113494D01*
X164561Y112006D01*
X164212Y110250D01*
X164561Y108494D01*
X165556Y107006D01*
X167044Y106011D01*
X168800Y105662D01*
X170556Y106011D01*
X172044Y107006D01*
X173039Y108494D01*
X173388Y110250D01*
X173039Y112006D01*
X172044Y113494D01*
X170556Y114489D01*
X168800Y114838D01*
D02*
G37*
G36*
X81500Y152588D02*
X79744Y152239D01*
X78256Y151244D01*
X77261Y149756D01*
X76912Y148000D01*
X77261Y146244D01*
X78256Y144756D01*
X79744Y143761D01*
X81500Y143412D01*
X83256Y143761D01*
X84744Y144756D01*
X85739Y146244D01*
X86088Y148000D01*
X85739Y149756D01*
X84744Y151244D01*
X83256Y152239D01*
X81500Y152588D01*
D02*
G37*
G36*
X36750Y62582D02*
X32592Y62255D01*
X28536Y61281D01*
X24682Y59685D01*
X21126Y57505D01*
X17954Y54796D01*
X15245Y51624D01*
X13065Y48068D01*
X11469Y44214D01*
X10495Y40158D01*
X10168Y36000D01*
X10495Y31842D01*
X11469Y27786D01*
X13065Y23932D01*
X15245Y20375D01*
X17954Y17204D01*
X21126Y14495D01*
X24682Y12315D01*
X28536Y10719D01*
X32592Y9745D01*
X36750Y9418D01*
X40908Y9745D01*
X44964Y10719D01*
X48818Y12315D01*
X52375Y14495D01*
X55546Y17204D01*
X58255Y20375D01*
X60435Y23932D01*
X62031Y27786D01*
X63005Y31842D01*
X63332Y36000D01*
X63005Y40158D01*
X62031Y44214D01*
X60435Y48068D01*
X58255Y51624D01*
X55546Y54796D01*
X52375Y57505D01*
X48818Y59685D01*
X44964Y61281D01*
X40908Y62255D01*
X36750Y62582D01*
D02*
G37*
G36*
X276750D02*
X272592Y62255D01*
X268536Y61281D01*
X264682Y59685D01*
X261126Y57505D01*
X257954Y54796D01*
X255245Y51624D01*
X253065Y48068D01*
X251469Y44214D01*
X250495Y40158D01*
X250168Y36000D01*
X250495Y31842D01*
X251469Y27786D01*
X253065Y23932D01*
X255245Y20375D01*
X257954Y17204D01*
X261126Y14495D01*
X264682Y12315D01*
X268536Y10719D01*
X272592Y9745D01*
X276750Y9418D01*
X280908Y9745D01*
X284964Y10719D01*
X288818Y12315D01*
X292374Y14495D01*
X295546Y17204D01*
X298255Y20375D01*
X300435Y23932D01*
X302031Y27786D01*
X303005Y31842D01*
X303332Y36000D01*
X303005Y40158D01*
X302031Y44214D01*
X300435Y48068D01*
X298255Y51624D01*
X295546Y54796D01*
X292374Y57505D01*
X288818Y59685D01*
X284964Y61281D01*
X280908Y62255D01*
X276750Y62582D01*
D02*
G37*
G36*
X242500Y96588D02*
X240744Y96239D01*
X239256Y95244D01*
X238261Y93756D01*
X237912Y92000D01*
X238261Y90244D01*
X239256Y88756D01*
X240744Y87761D01*
X242500Y87412D01*
X244256Y87761D01*
X245744Y88756D01*
X246739Y90244D01*
X247088Y92000D01*
X246739Y93756D01*
X245744Y95244D01*
X244256Y96239D01*
X242500Y96588D01*
D02*
G37*
G36*
X168750Y171588D02*
X166994Y171239D01*
X165506Y170244D01*
X164511Y168756D01*
X164162Y167000D01*
X164511Y165244D01*
X165506Y163756D01*
X166994Y162761D01*
X168750Y162412D01*
X170506Y162761D01*
X171994Y163756D01*
X172989Y165244D01*
X173338Y167000D01*
X172989Y168756D01*
X171994Y170244D01*
X170506Y171239D01*
X168750Y171588D01*
D02*
G37*
G36*
X194200D02*
X192444Y171239D01*
X190956Y170244D01*
X189961Y168756D01*
X189612Y167000D01*
X189961Y165244D01*
X190956Y163756D01*
X192444Y162761D01*
X194200Y162412D01*
X195956Y162761D01*
X197444Y163756D01*
X198439Y165244D01*
X198788Y167000D01*
X198439Y168756D01*
X197444Y170244D01*
X195956Y171239D01*
X194200Y171588D01*
D02*
G37*
G36*
X396000Y184088D02*
X394244Y183739D01*
X392756Y182744D01*
X391761Y181256D01*
X391412Y179500D01*
X391761Y177744D01*
X392756Y176256D01*
X394244Y175261D01*
X396000Y174912D01*
X397756Y175261D01*
X399244Y176256D01*
X400239Y177744D01*
X400588Y179500D01*
X400239Y181256D01*
X399244Y182744D01*
X397756Y183739D01*
X396000Y184088D01*
D02*
G37*
G36*
X504750Y209090D02*
X500199Y208731D01*
X495761Y207666D01*
X491544Y205919D01*
X487651Y203534D01*
X484180Y200569D01*
X481216Y197099D01*
X478831Y193206D01*
X477084Y188989D01*
X476018Y184551D01*
X475660Y180000D01*
X476018Y175449D01*
X477084Y171011D01*
X478831Y166794D01*
X481216Y162901D01*
X484180Y159431D01*
X487651Y156466D01*
X491544Y154081D01*
X495761Y152334D01*
X500199Y151269D01*
X504750Y150910D01*
X509301Y151269D01*
X513739Y152334D01*
X517956Y154081D01*
X521848Y156466D01*
X525320Y159431D01*
X528284Y162901D01*
X530669Y166794D01*
X532416Y171011D01*
X533481Y175449D01*
X533840Y180000D01*
X533481Y184551D01*
X532416Y188989D01*
X530669Y193206D01*
X528284Y197099D01*
X525320Y200569D01*
X521848Y203534D01*
X517956Y205919D01*
X513739Y207666D01*
X509301Y208731D01*
X504750Y209090D01*
D02*
G37*
G36*
X33750Y206582D02*
X29592Y206255D01*
X25536Y205281D01*
X21682Y203685D01*
X18125Y201505D01*
X14954Y198796D01*
X12245Y195625D01*
X10065Y192068D01*
X8469Y188214D01*
X7495Y184158D01*
X7168Y180000D01*
X7495Y175842D01*
X8469Y171786D01*
X10065Y167932D01*
X12245Y164375D01*
X14954Y161204D01*
X18125Y158495D01*
X21682Y156315D01*
X25536Y154719D01*
X29592Y153745D01*
X33750Y153418D01*
X37908Y153745D01*
X41964Y154719D01*
X45818Y156315D01*
X49374Y158495D01*
X52546Y161204D01*
X55255Y164375D01*
X57435Y167932D01*
X59031Y171786D01*
X60005Y175842D01*
X60332Y180000D01*
X60005Y184158D01*
X59031Y188214D01*
X57435Y192068D01*
X55255Y195625D01*
X52546Y198796D01*
X49374Y201505D01*
X45818Y203685D01*
X41964Y205281D01*
X37908Y206255D01*
X33750Y206582D01*
D02*
G37*
G36*
X143250Y171588D02*
X141494Y171239D01*
X140006Y170244D01*
X139011Y168756D01*
X138662Y167000D01*
X139011Y165244D01*
X140006Y163756D01*
X141494Y162761D01*
X143250Y162412D01*
X145006Y162761D01*
X146494Y163756D01*
X147489Y165244D01*
X147838Y167000D01*
X147489Y168756D01*
X146494Y170244D01*
X145006Y171239D01*
X143250Y171588D01*
D02*
G37*
G36*
X357500Y339588D02*
X355744Y339239D01*
X354256Y338244D01*
X353261Y336756D01*
X352912Y335000D01*
X353261Y333244D01*
X354256Y331756D01*
X355744Y330761D01*
X357500Y330412D01*
X359256Y330761D01*
X360744Y331756D01*
X361739Y333244D01*
X362088Y335000D01*
X361739Y336756D01*
X360744Y338244D01*
X359256Y339239D01*
X357500Y339588D01*
D02*
G37*
G36*
X241000Y386591D02*
X238259Y386230D01*
X235705Y385172D01*
X233511Y383489D01*
X231828Y381295D01*
X230770Y378741D01*
X230409Y376000D01*
X230770Y373259D01*
X231828Y370705D01*
X233511Y368511D01*
X235705Y366828D01*
X238259Y365770D01*
X241000Y365409D01*
X243741Y365770D01*
X246295Y366828D01*
X248489Y368511D01*
X250172Y370705D01*
X251230Y373259D01*
X251591Y376000D01*
X251230Y378741D01*
X250172Y381295D01*
X248489Y383489D01*
X246295Y385172D01*
X243741Y386230D01*
X241000Y386591D01*
D02*
G37*
G36*
X131500Y386500D02*
X110500D01*
Y365500D01*
X131500D01*
Y386500D01*
D02*
G37*
G36*
X276500D02*
X255500D01*
Y365500D01*
X276500D01*
Y386500D01*
D02*
G37*
G36*
X71000Y386591D02*
X68259Y386230D01*
X65705Y385172D01*
X63511Y383489D01*
X61828Y381295D01*
X60770Y378741D01*
X60409Y376000D01*
X60770Y373259D01*
X61828Y370705D01*
X63511Y368511D01*
X65705Y366828D01*
X68259Y365770D01*
X71000Y365409D01*
X73741Y365770D01*
X76295Y366828D01*
X78489Y368511D01*
X80172Y370705D01*
X81230Y373259D01*
X81591Y376000D01*
X81230Y378741D01*
X80172Y381295D01*
X78489Y383489D01*
X76295Y385172D01*
X73741Y386230D01*
X71000Y386591D01*
D02*
G37*
G36*
X96000D02*
X93259Y386230D01*
X90705Y385172D01*
X88511Y383489D01*
X86828Y381295D01*
X85770Y378741D01*
X85409Y376000D01*
X85770Y373259D01*
X86828Y370705D01*
X88511Y368511D01*
X90705Y366828D01*
X93259Y365770D01*
X96000Y365409D01*
X98741Y365770D01*
X101295Y366828D01*
X103489Y368511D01*
X105172Y370705D01*
X106230Y373259D01*
X106591Y376000D01*
X106230Y378741D01*
X105172Y381295D01*
X103489Y383489D01*
X101295Y385172D01*
X98741Y386230D01*
X96000Y386591D01*
D02*
G37*
G36*
X216000D02*
X213259Y386230D01*
X210705Y385172D01*
X208511Y383489D01*
X206828Y381295D01*
X205770Y378741D01*
X205409Y376000D01*
X205770Y373259D01*
X206828Y370705D01*
X208511Y368511D01*
X210705Y366828D01*
X213259Y365770D01*
X216000Y365409D01*
X218741Y365770D01*
X221295Y366828D01*
X223489Y368511D01*
X225172Y370705D01*
X226230Y373259D01*
X226591Y376000D01*
X226230Y378741D01*
X225172Y381295D01*
X223489Y383489D01*
X221295Y385172D01*
X218741Y386230D01*
X216000Y386591D01*
D02*
G37*
G36*
X200294Y371000D02*
X196000D01*
Y366706D01*
X196295Y366828D01*
X198489Y368511D01*
X200172Y370705D01*
X200294Y371000D01*
D02*
G37*
G36*
X186000Y385294D02*
X185705Y385172D01*
X183511Y383489D01*
X181828Y381295D01*
X181706Y381000D01*
X186000D01*
Y385294D01*
D02*
G37*
G36*
X41000Y385294D02*
X40705Y385172D01*
X38511Y383489D01*
X36828Y381295D01*
X36706Y381000D01*
X41000D01*
Y385294D01*
D02*
G37*
G36*
X186000Y371000D02*
X181706D01*
X181828Y370705D01*
X183511Y368511D01*
X185705Y366828D01*
X186000Y366706D01*
Y371000D01*
D02*
G37*
G36*
X55294D02*
X51000D01*
Y366706D01*
X51295Y366828D01*
X53489Y368511D01*
X55172Y370705D01*
X55294Y371000D01*
D02*
G37*
G36*
X41000D02*
X36706D01*
X36828Y370705D01*
X38511Y368511D01*
X40705Y366828D01*
X41000Y366706D01*
Y371000D01*
D02*
G37*
G36*
X529500Y369334D02*
X526955Y368999D01*
X524583Y368017D01*
X522546Y366454D01*
X520983Y364417D01*
X520001Y362045D01*
X519666Y359500D01*
X520001Y356955D01*
X520983Y354583D01*
X522546Y352546D01*
X524583Y350983D01*
X526955Y350001D01*
X529500Y349666D01*
X532045Y350001D01*
X534417Y350983D01*
X536454Y352546D01*
X538017Y354583D01*
X538999Y356955D01*
X539334Y359500D01*
X538999Y362045D01*
X538017Y364417D01*
X536454Y366454D01*
X534417Y368017D01*
X532045Y368999D01*
X529500Y369334D01*
D02*
G37*
G36*
X554900D02*
X552355Y368999D01*
X549983Y368017D01*
X547946Y366454D01*
X546383Y364417D01*
X545401Y362045D01*
X545066Y359500D01*
X545401Y356955D01*
X546383Y354583D01*
X547946Y352546D01*
X549983Y350983D01*
X552355Y350001D01*
X554900Y349666D01*
X557445Y350001D01*
X559817Y350983D01*
X561854Y352546D01*
X563417Y354583D01*
X564399Y356955D01*
X564734Y359500D01*
X564399Y362045D01*
X563417Y364417D01*
X561854Y366454D01*
X559817Y368017D01*
X557445Y368999D01*
X554900Y369334D01*
D02*
G37*
G36*
X590050Y369250D02*
X570550D01*
Y349750D01*
X590050D01*
Y369250D01*
D02*
G37*
G36*
X379000Y339588D02*
X377244Y339239D01*
X375756Y338244D01*
X374761Y336756D01*
X374412Y335000D01*
X374761Y333244D01*
X375756Y331756D01*
X377244Y330761D01*
X379000Y330412D01*
X380756Y330761D01*
X382244Y331756D01*
X383239Y333244D01*
X383588Y335000D01*
X383239Y336756D01*
X382244Y338244D01*
X380756Y339239D01*
X379000Y339588D01*
D02*
G37*
G36*
X408000D02*
X406244Y339239D01*
X404756Y338244D01*
X403761Y336756D01*
X403412Y335000D01*
X403761Y333244D01*
X404756Y331756D01*
X406244Y330761D01*
X408000Y330412D01*
X409756Y330761D01*
X411244Y331756D01*
X412239Y333244D01*
X412588Y335000D01*
X412239Y336756D01*
X411244Y338244D01*
X409756Y339239D01*
X408000Y339588D01*
D02*
G37*
G36*
X330500Y350088D02*
X328744Y349739D01*
X327256Y348744D01*
X326261Y347256D01*
X325912Y345500D01*
X326261Y343744D01*
X327256Y342256D01*
X328744Y341261D01*
X330500Y340912D01*
X332256Y341261D01*
X333744Y342256D01*
X334739Y343744D01*
X335088Y345500D01*
X334739Y347256D01*
X333744Y348744D01*
X332256Y349739D01*
X330500Y350088D01*
D02*
G37*
G36*
X503100Y369202D02*
X501555Y368999D01*
X499183Y368017D01*
X497146Y366454D01*
X495583Y364417D01*
X494601Y362045D01*
X494398Y360500D01*
X503100D01*
Y369202D01*
D02*
G37*
G36*
X505100Y369202D02*
Y360500D01*
X513802D01*
X513599Y362045D01*
X512617Y364417D01*
X511054Y366454D01*
X509017Y368017D01*
X506645Y368999D01*
X505100Y369202D01*
D02*
G37*
G36*
X479500Y373088D02*
X477744Y372739D01*
X476256Y371744D01*
X475261Y370256D01*
X474912Y368500D01*
X475261Y366744D01*
X476256Y365256D01*
X477744Y364261D01*
X479500Y363912D01*
X481256Y364261D01*
X482744Y365256D01*
X483739Y366744D01*
X484088Y368500D01*
X483739Y370256D01*
X482744Y371744D01*
X481256Y372739D01*
X479500Y373088D01*
D02*
G37*
G36*
X513802Y358500D02*
X505100D01*
Y349798D01*
X506645Y350001D01*
X509017Y350983D01*
X511054Y352546D01*
X512617Y354583D01*
X513599Y356955D01*
X513802Y358500D01*
D02*
G37*
G36*
X503100D02*
X494398D01*
X494601Y356955D01*
X495583Y354583D01*
X497146Y352546D01*
X499183Y350983D01*
X501555Y350001D01*
X503100Y349798D01*
Y358500D01*
D02*
G37*
G36*
X147000Y365088D02*
X145244Y364739D01*
X143756Y363744D01*
X142761Y362256D01*
X142412Y360500D01*
X142638Y359361D01*
X141500Y359587D01*
X139744Y359238D01*
X138255Y358244D01*
X137261Y356755D01*
X136912Y354999D01*
X137261Y353243D01*
X138255Y351755D01*
X139744Y350760D01*
X141500Y350411D01*
X143256Y350760D01*
X144744Y351755D01*
X145739Y353243D01*
X146088Y354999D01*
X145861Y356138D01*
X147000Y355912D01*
X148138Y356138D01*
X147912Y354999D01*
X148261Y353243D01*
X149255Y351755D01*
X150744Y350760D01*
X152500Y350411D01*
X154256Y350760D01*
X155744Y351755D01*
X156739Y353243D01*
X157088Y354999D01*
X156944Y355720D01*
X158499Y355411D01*
X160055Y355720D01*
X159911Y355000D01*
X160261Y353244D01*
X161255Y351756D01*
X162744Y350761D01*
X164500Y350412D01*
X166255Y350761D01*
X167744Y351756D01*
X168739Y353244D01*
X169088Y355000D01*
X168739Y356756D01*
X167744Y358244D01*
X166255Y359239D01*
X164500Y359588D01*
X162944Y359279D01*
X163087Y359999D01*
X162738Y361755D01*
X161744Y363244D01*
X160255Y364238D01*
X158499Y364587D01*
X156743Y364238D01*
X155255Y363244D01*
X154260Y361755D01*
X153911Y359999D01*
X154055Y359278D01*
X152500Y359587D01*
X151362Y359361D01*
X151588Y360500D01*
X151239Y362256D01*
X150244Y363744D01*
X148756Y364739D01*
X147000Y365088D01*
D02*
G37*
G36*
X542700Y592500D02*
X536150D01*
Y589000D01*
X542700D01*
Y592500D01*
D02*
G37*
G36*
X366450Y781588D02*
X364694Y781239D01*
X363725Y780591D01*
X362756Y781239D01*
X361000Y781588D01*
X359244Y781239D01*
X358250Y780575D01*
X357256Y781239D01*
X355500Y781588D01*
X353744Y781239D01*
X352750Y780575D01*
X351756Y781239D01*
X350000Y781588D01*
X348244Y781239D01*
X346756Y780244D01*
X345761Y778756D01*
X345412Y777000D01*
X345761Y775244D01*
X346258Y774500D01*
X345761Y773756D01*
X345412Y772000D01*
X345761Y770244D01*
X346756Y768756D01*
X348244Y767761D01*
X350000Y767412D01*
X351756Y767761D01*
X352750Y768425D01*
X353744Y767761D01*
X355500Y767412D01*
X356535Y767618D01*
X356412Y767000D01*
X356761Y765244D01*
X357258Y764500D01*
X356761Y763756D01*
X356412Y762000D01*
X356761Y760244D01*
X357756Y758756D01*
X359244Y757761D01*
X361000Y757412D01*
X362756Y757761D01*
X363725Y758409D01*
X364694Y757761D01*
X366450Y757412D01*
X368206Y757761D01*
X369694Y758756D01*
X370689Y760244D01*
X371038Y762000D01*
X370689Y763756D01*
X370192Y764500D01*
X370689Y765244D01*
X371038Y767000D01*
X370689Y768756D01*
X370167Y769537D01*
X370639Y770244D01*
X370988Y772000D01*
X370639Y773756D01*
X370167Y774463D01*
X370689Y775244D01*
X371038Y777000D01*
X370689Y778756D01*
X369694Y780244D01*
X368206Y781239D01*
X366450Y781588D01*
D02*
G37*
G36*
X182500Y807582D02*
X180020Y807255D01*
X177709Y806298D01*
X175725Y804775D01*
X174202Y802791D01*
X173244Y800480D01*
X172918Y798000D01*
X173244Y795520D01*
X174202Y793209D01*
X175725Y791225D01*
X177709Y789702D01*
X180020Y788745D01*
X182500Y788418D01*
X184980Y788745D01*
X187291Y789702D01*
X189275Y791225D01*
X190798Y793209D01*
X191755Y795520D01*
X192082Y798000D01*
X191755Y800480D01*
X190798Y802791D01*
X189275Y804775D01*
X187291Y806298D01*
X184980Y807255D01*
X182500Y807582D01*
D02*
G37*
G36*
X18500Y805588D02*
X16744Y805239D01*
X15256Y804244D01*
X14261Y802756D01*
X13912Y801000D01*
X14261Y799244D01*
X15256Y797756D01*
X16744Y796761D01*
X18500Y796412D01*
X20256Y796761D01*
X21744Y797756D01*
X22739Y799244D01*
X23088Y801000D01*
X22739Y802756D01*
X21744Y804244D01*
X20256Y805239D01*
X18500Y805588D01*
D02*
G37*
G36*
X522000Y819609D02*
X517589Y819174D01*
X513348Y817888D01*
X509439Y815799D01*
X506013Y812987D01*
X503201Y809561D01*
X501112Y805652D01*
X499826Y801411D01*
X499391Y797000D01*
X499826Y792589D01*
X501112Y788348D01*
X503201Y784439D01*
X506013Y781013D01*
X509439Y778201D01*
X513348Y776112D01*
X517589Y774826D01*
X522000Y774391D01*
X526411Y774826D01*
X530652Y776112D01*
X534561Y778201D01*
X537987Y781013D01*
X540799Y784439D01*
X542888Y788348D01*
X544174Y792589D01*
X544609Y797000D01*
X544174Y801411D01*
X542888Y805652D01*
X540799Y809561D01*
X537987Y812987D01*
X534561Y815799D01*
X530652Y817888D01*
X526411Y819174D01*
X522000Y819609D01*
D02*
G37*
G36*
X562000Y787000D02*
X551833D01*
X553201Y784439D01*
X556013Y781013D01*
X559439Y778201D01*
X562000Y776833D01*
Y787000D01*
D02*
G37*
G36*
X592167D02*
X582000D01*
Y776833D01*
X584561Y778201D01*
X587987Y781013D01*
X590799Y784439D01*
X592167Y787000D01*
D02*
G37*
G36*
X562000Y817167D02*
X559439Y815799D01*
X556013Y812987D01*
X553201Y809561D01*
X551833Y807000D01*
X562000D01*
Y817167D01*
D02*
G37*
G36*
X582000D02*
Y807000D01*
X592167D01*
X590799Y809561D01*
X587987Y812987D01*
X584561Y815799D01*
X582000Y817167D01*
D02*
G37*
G36*
X325294Y813000D02*
X321000D01*
Y808706D01*
X321295Y808828D01*
X323489Y810511D01*
X325172Y812705D01*
X325294Y813000D01*
D02*
G37*
G36*
X73000Y805588D02*
X71244Y805239D01*
X69756Y804244D01*
X68761Y802756D01*
X68412Y801000D01*
X68761Y799244D01*
X69756Y797756D01*
X71244Y796761D01*
X73000Y796412D01*
X74756Y796761D01*
X76244Y797756D01*
X77239Y799244D01*
X77588Y801000D01*
X77239Y802756D01*
X76244Y804244D01*
X74756Y805239D01*
X73000Y805588D01*
D02*
G37*
G36*
X249500Y806588D02*
X247744Y806239D01*
X246256Y805244D01*
X245261Y803756D01*
X244912Y802000D01*
X245261Y800244D01*
X246256Y798756D01*
X247744Y797761D01*
X249500Y797412D01*
X251256Y797761D01*
X252744Y798756D01*
X253739Y800244D01*
X254088Y802000D01*
X253739Y803756D01*
X252744Y805244D01*
X251256Y806239D01*
X249500Y806588D01*
D02*
G37*
G36*
X276000D02*
X274244Y806239D01*
X272756Y805244D01*
X271761Y803756D01*
X271412Y802000D01*
X271761Y800244D01*
X272756Y798756D01*
X274244Y797761D01*
X276000Y797412D01*
X277756Y797761D01*
X279244Y798756D01*
X280239Y800244D01*
X280588Y802000D01*
X280239Y803756D01*
X279244Y805244D01*
X277756Y806239D01*
X276000Y806588D01*
D02*
G37*
G36*
X166000Y770588D02*
X164244Y770239D01*
X162756Y769244D01*
X161761Y767756D01*
X161412Y766000D01*
X161761Y764244D01*
X162756Y762756D01*
X164244Y761761D01*
X166000Y761412D01*
X167756Y761761D01*
X169244Y762756D01*
X170239Y764244D01*
X170588Y766000D01*
X170239Y767756D01*
X169244Y769244D01*
X167756Y770239D01*
X166000Y770588D01*
D02*
G37*
G36*
X381500Y780582D02*
X379020Y780256D01*
X376709Y779298D01*
X374725Y777775D01*
X373202Y775791D01*
X372244Y773480D01*
X371918Y771000D01*
X372244Y768520D01*
X373202Y766209D01*
X374725Y764225D01*
X376709Y762702D01*
X379020Y761745D01*
X381500Y761418D01*
X383980Y761745D01*
X386291Y762702D01*
X388275Y764225D01*
X389798Y766209D01*
X390756Y768520D01*
X391082Y771000D01*
X390756Y773480D01*
X389798Y775791D01*
X388275Y777775D01*
X386291Y779298D01*
X383980Y780256D01*
X381500Y780582D01*
D02*
G37*
G36*
X130450Y777088D02*
X128694Y776739D01*
X127206Y775744D01*
X126211Y774256D01*
X125862Y772500D01*
X126211Y770744D01*
X126733Y769963D01*
X126261Y769256D01*
X125912Y767500D01*
X126261Y765744D01*
X127256Y764256D01*
X128744Y763261D01*
X130500Y762912D01*
X132256Y763261D01*
X133744Y764256D01*
X134739Y765744D01*
X135088Y767500D01*
X134739Y769256D01*
X134217Y770037D01*
X134689Y770744D01*
X135038Y772500D01*
X134689Y774256D01*
X133694Y775744D01*
X132206Y776739D01*
X130450Y777088D01*
D02*
G37*
G36*
X528500Y757088D02*
X526744Y756739D01*
X525256Y755744D01*
X524261Y754256D01*
X523912Y752500D01*
X524261Y750744D01*
X525256Y749256D01*
X526744Y748261D01*
X528500Y747912D01*
X530256Y748261D01*
X531744Y749256D01*
X532739Y750744D01*
X533088Y752500D01*
X532739Y754256D01*
X531744Y755744D01*
X530256Y756739D01*
X528500Y757088D01*
D02*
G37*
G36*
X515500Y757588D02*
X513744Y757239D01*
X512256Y756244D01*
X511261Y754756D01*
X510912Y753000D01*
X511261Y751244D01*
X512256Y749756D01*
X513744Y748761D01*
X515500Y748412D01*
X517256Y748761D01*
X518744Y749756D01*
X519739Y751244D01*
X520088Y753000D01*
X519739Y754756D01*
X518744Y756244D01*
X517256Y757239D01*
X515500Y757588D01*
D02*
G37*
G36*
X539000Y758088D02*
X537244Y757739D01*
X535756Y756744D01*
X534761Y755256D01*
X534412Y753500D01*
X534761Y751744D01*
X535756Y750256D01*
X537244Y749261D01*
X539000Y748912D01*
X540756Y749261D01*
X542244Y750256D01*
X543239Y751744D01*
X543588Y753500D01*
X543239Y755256D01*
X542244Y756744D01*
X540756Y757739D01*
X539000Y758088D01*
D02*
G37*
G36*
X246500Y787082D02*
X244020Y786755D01*
X241709Y785798D01*
X239725Y784275D01*
X238202Y782291D01*
X237244Y779980D01*
X236918Y777500D01*
X237244Y775020D01*
X238202Y772709D01*
X239725Y770724D01*
X241709Y769202D01*
X244020Y768244D01*
X246500Y767918D01*
X248980Y768244D01*
X251291Y769202D01*
X253275Y770724D01*
X254798Y772709D01*
X255755Y775020D01*
X256082Y777500D01*
X255755Y779980D01*
X254798Y782291D01*
X253275Y784275D01*
X251291Y785798D01*
X248980Y786755D01*
X246500Y787082D01*
D02*
G37*
G36*
X281000D02*
X278520Y786755D01*
X276209Y785798D01*
X274224Y784275D01*
X272702Y782291D01*
X271744Y779980D01*
X271418Y777500D01*
X271744Y775020D01*
X272702Y772709D01*
X274224Y770724D01*
X276209Y769202D01*
X278520Y768244D01*
X281000Y767918D01*
X283480Y768244D01*
X285791Y769202D01*
X287775Y770724D01*
X289298Y772709D01*
X290256Y775020D01*
X290582Y777500D01*
X290256Y779980D01*
X289298Y782291D01*
X287775Y784275D01*
X285791Y785798D01*
X283480Y786755D01*
X281000Y787082D01*
D02*
G37*
G36*
X195750Y780088D02*
X193994Y779739D01*
X192506Y778744D01*
X191511Y777256D01*
X191162Y775500D01*
X191511Y773744D01*
X192506Y772256D01*
X193994Y771261D01*
X195750Y770912D01*
X197506Y771261D01*
X198994Y772256D01*
X199989Y773744D01*
X200338Y775500D01*
X199989Y777256D01*
X198994Y778744D01*
X197506Y779739D01*
X195750Y780088D01*
D02*
G37*
G36*
X513000Y773088D02*
X511244Y772739D01*
X509756Y771744D01*
X508761Y770256D01*
X508412Y768500D01*
X508761Y766744D01*
X509756Y765256D01*
X511244Y764261D01*
X513000Y763912D01*
X514756Y764261D01*
X516244Y765256D01*
X517239Y766744D01*
X517588Y768500D01*
X517239Y770256D01*
X516244Y771744D01*
X514756Y772739D01*
X513000Y773088D01*
D02*
G37*
G36*
X526000D02*
X524244Y772739D01*
X522756Y771744D01*
X521761Y770256D01*
X521412Y768500D01*
X521761Y766744D01*
X522756Y765256D01*
X524244Y764261D01*
X526000Y763912D01*
X527756Y764261D01*
X529244Y765256D01*
X530239Y766744D01*
X530588Y768500D01*
X530239Y770256D01*
X529244Y771744D01*
X527756Y772739D01*
X526000Y773088D01*
D02*
G37*
G36*
X538500D02*
X536744Y772739D01*
X535256Y771744D01*
X534261Y770256D01*
X533912Y768500D01*
X534261Y766744D01*
X535256Y765256D01*
X536744Y764261D01*
X538500Y763912D01*
X540256Y764261D01*
X541744Y765256D01*
X542739Y766744D01*
X543088Y768500D01*
X542739Y770256D01*
X541744Y771744D01*
X540256Y772739D01*
X538500Y773088D01*
D02*
G37*
G36*
X134294Y813000D02*
X130000D01*
Y808706D01*
X130295Y808828D01*
X132489Y810511D01*
X134172Y812705D01*
X134294Y813000D01*
D02*
G37*
G36*
X264294Y863000D02*
X260000D01*
Y858706D01*
X260295Y858828D01*
X262489Y860511D01*
X264172Y862705D01*
X264294Y863000D01*
D02*
G37*
G36*
X250000Y877294D02*
X249705Y877172D01*
X247511Y875489D01*
X245828Y873295D01*
X245706Y873000D01*
X250000D01*
Y877294D01*
D02*
G37*
G36*
X260000Y877294D02*
Y873000D01*
X264294D01*
X264172Y873295D01*
X262489Y875489D01*
X260295Y877172D01*
X260000Y877294D01*
D02*
G37*
G36*
X125000Y878591D02*
X122259Y878230D01*
X119705Y877172D01*
X117511Y875489D01*
X115828Y873295D01*
X114770Y870741D01*
X114409Y868000D01*
X114770Y865259D01*
X115828Y862705D01*
X117511Y860511D01*
X119705Y858828D01*
X122259Y857770D01*
X125000Y857409D01*
X127741Y857770D01*
X130295Y858828D01*
X132489Y860511D01*
X134172Y862705D01*
X135230Y865259D01*
X135591Y868000D01*
X135230Y870741D01*
X134172Y873295D01*
X132489Y875489D01*
X130295Y877172D01*
X127741Y878230D01*
X125000Y878591D01*
D02*
G37*
G36*
X316000D02*
X313259Y878230D01*
X310705Y877172D01*
X308511Y875489D01*
X306828Y873295D01*
X305770Y870741D01*
X305409Y868000D01*
X305770Y865259D01*
X306828Y862705D01*
X308511Y860511D01*
X310705Y858828D01*
X313259Y857770D01*
X316000Y857409D01*
X318741Y857770D01*
X321295Y858828D01*
X323489Y860511D01*
X325172Y862705D01*
X326230Y865259D01*
X326591Y868000D01*
X326230Y870741D01*
X325172Y873295D01*
X323489Y875489D01*
X321295Y877172D01*
X318741Y878230D01*
X316000Y878591D01*
D02*
G37*
G36*
X250000Y863000D02*
X245706D01*
X245828Y862705D01*
X247511Y860511D01*
X249705Y858828D01*
X250000Y858706D01*
Y863000D01*
D02*
G37*
G36*
X330000Y932588D02*
X328244Y932239D01*
X326756Y931244D01*
X325761Y929756D01*
X325412Y928000D01*
X325761Y926244D01*
X326756Y924756D01*
X328244Y923761D01*
X330000Y923412D01*
X331756Y923761D01*
X333244Y924756D01*
X334239Y926244D01*
X334588Y928000D01*
X334239Y929756D01*
X333244Y931244D01*
X331756Y932239D01*
X330000Y932588D01*
D02*
G37*
G36*
X36750Y1002090D02*
X32199Y1001731D01*
X27761Y1000666D01*
X23544Y998919D01*
X19651Y996534D01*
X16180Y993569D01*
X13216Y990098D01*
X10831Y986206D01*
X9084Y981989D01*
X8019Y977551D01*
X7660Y973000D01*
X8019Y968449D01*
X9084Y964011D01*
X10831Y959794D01*
X13216Y955901D01*
X16180Y952430D01*
X19651Y949466D01*
X23544Y947081D01*
X27761Y945334D01*
X32199Y944268D01*
X36750Y943910D01*
X41301Y944268D01*
X45739Y945334D01*
X49956Y947081D01*
X53849Y949466D01*
X57319Y952430D01*
X60284Y955901D01*
X62669Y959794D01*
X64416Y964011D01*
X65482Y968449D01*
X65840Y973000D01*
X65482Y977551D01*
X64416Y981989D01*
X62669Y986206D01*
X60284Y990098D01*
X57319Y993569D01*
X53849Y996534D01*
X49956Y998919D01*
X45739Y1000666D01*
X41301Y1001731D01*
X36750Y1002090D01*
D02*
G37*
G36*
X276750D02*
X272199Y1001731D01*
X267761Y1000666D01*
X263544Y998919D01*
X259652Y996534D01*
X256180Y993569D01*
X253216Y990098D01*
X250831Y986206D01*
X249084Y981989D01*
X248018Y977551D01*
X247660Y973000D01*
X248018Y968449D01*
X249084Y964011D01*
X250831Y959794D01*
X253216Y955901D01*
X256180Y952430D01*
X259652Y949466D01*
X263544Y947081D01*
X267761Y945334D01*
X272199Y944268D01*
X276750Y943910D01*
X281301Y944268D01*
X285739Y945334D01*
X289956Y947081D01*
X293848Y949466D01*
X297320Y952430D01*
X300284Y955901D01*
X302669Y959794D01*
X304416Y964011D01*
X305481Y968449D01*
X305840Y973000D01*
X305481Y977551D01*
X304416Y981989D01*
X302669Y986206D01*
X300284Y990098D01*
X297320Y993569D01*
X293848Y996534D01*
X289956Y998919D01*
X285739Y1000666D01*
X281301Y1001731D01*
X276750Y1002090D01*
D02*
G37*
G36*
X135500Y903500D02*
X114500D01*
Y882500D01*
X135500D01*
Y903500D01*
D02*
G37*
G36*
X265500D02*
X244500D01*
Y882500D01*
X265500D01*
Y903500D01*
D02*
G37*
G36*
X326500D02*
X305500D01*
Y882500D01*
X326500D01*
Y903500D01*
D02*
G37*
G36*
X321000Y827294D02*
Y823000D01*
X325294D01*
X325172Y823295D01*
X323489Y825489D01*
X321295Y827172D01*
X321000Y827294D01*
D02*
G37*
G36*
X120000Y827294D02*
X119705Y827172D01*
X117511Y825489D01*
X115828Y823295D01*
X115706Y823000D01*
X120000D01*
Y827294D01*
D02*
G37*
G36*
X130000Y827294D02*
Y823000D01*
X134294D01*
X134172Y823295D01*
X132489Y825489D01*
X130295Y827172D01*
X130000Y827294D01*
D02*
G37*
G36*
X120000Y813000D02*
X115706D01*
X115828Y812705D01*
X117511Y810511D01*
X119705Y808828D01*
X120000Y808706D01*
Y813000D01*
D02*
G37*
G36*
X311000Y827294D02*
X310705Y827172D01*
X308511Y825489D01*
X306828Y823295D01*
X305770Y820741D01*
X305437Y818208D01*
X304744Y819244D01*
X303256Y820239D01*
X301500Y820588D01*
X299744Y820239D01*
X298500Y819408D01*
X297256Y820239D01*
X295500Y820588D01*
X293744Y820239D01*
X292500Y819408D01*
X291256Y820239D01*
X289500Y820588D01*
X287744Y820239D01*
X286256Y819244D01*
X285261Y817756D01*
X284912Y816000D01*
X285261Y814244D01*
X286092Y813000D01*
X285261Y811756D01*
X284912Y810000D01*
X285261Y808244D01*
X286256Y806756D01*
X287744Y805761D01*
X289500Y805412D01*
X291256Y805761D01*
X292500Y806592D01*
X293744Y805761D01*
X295500Y805412D01*
X297256Y805761D01*
X298500Y806592D01*
X299744Y805761D01*
X301500Y805412D01*
X303256Y805761D01*
X304744Y806756D01*
X305739Y808244D01*
X306088Y810000D01*
X305739Y811756D01*
X304908Y813000D01*
X305739Y814244D01*
X305885Y814981D01*
X306828Y812705D01*
X308511Y810511D01*
X310705Y808828D01*
X311000Y808706D01*
Y818000D01*
Y827294D01*
D02*
G37*
G36*
X217500Y821088D02*
X215744Y820739D01*
X214256Y819744D01*
X214250Y819736D01*
X214244Y819744D01*
X212756Y820739D01*
X211000Y821088D01*
X209244Y820739D01*
X207756Y819744D01*
X206761Y818256D01*
X206412Y816500D01*
X206761Y814744D01*
X207258Y814000D01*
X206761Y813256D01*
X206412Y811500D01*
X206761Y809744D01*
X207756Y808256D01*
X209244Y807261D01*
X211000Y806912D01*
X212756Y807261D01*
X214244Y808256D01*
X214250Y808264D01*
X214256Y808256D01*
X215744Y807261D01*
X217500Y806912D01*
X219256Y807261D01*
X220744Y808256D01*
X221739Y809744D01*
X222088Y811500D01*
X221739Y813256D01*
X221242Y814000D01*
X221739Y814744D01*
X222088Y816500D01*
X221739Y818256D01*
X220744Y819744D01*
X219256Y820739D01*
X217500Y821088D01*
D02*
G37*
G36*
X58000Y841588D02*
X56244Y841239D01*
X54756Y840244D01*
X53761Y838756D01*
X53412Y837000D01*
X53761Y835244D01*
X54756Y833756D01*
X56244Y832761D01*
X58000Y832412D01*
X59756Y832761D01*
X61244Y833756D01*
X62239Y835244D01*
X62588Y837000D01*
X62239Y838756D01*
X61244Y840244D01*
X59756Y841239D01*
X58000Y841588D01*
D02*
G37*
G36*
X41000Y845088D02*
X39244Y844739D01*
X38000Y843908D01*
X36756Y844739D01*
X35000Y845088D01*
X33244Y844739D01*
X31756Y843744D01*
X30761Y842256D01*
X30412Y840500D01*
X30761Y838744D01*
X31756Y837256D01*
X31764Y837250D01*
X31756Y837244D01*
X30761Y835756D01*
X30412Y834000D01*
X30761Y832244D01*
X31756Y830756D01*
X33244Y829761D01*
X35000Y829412D01*
X36756Y829761D01*
X38000Y830592D01*
X39244Y829761D01*
X41000Y829412D01*
X42756Y829761D01*
X44244Y830756D01*
X45239Y832244D01*
X45588Y834000D01*
X45239Y835756D01*
X44244Y837244D01*
X44236Y837250D01*
X44244Y837256D01*
X45239Y838744D01*
X45588Y840500D01*
X45239Y842256D01*
X44244Y843744D01*
X42756Y844739D01*
X41000Y845088D01*
D02*
G37*
G36*
X494250Y939094D02*
X399250D01*
X393494Y938717D01*
X387837Y937592D01*
X382376Y935738D01*
X377203Y933187D01*
X372407Y929982D01*
X368070Y926179D01*
X364268Y921843D01*
X361063Y917047D01*
X358512Y911874D01*
X356658Y906413D01*
X355533Y900755D01*
X355156Y895000D01*
X355533Y889245D01*
X356658Y883587D01*
X358512Y878126D01*
X361063Y872953D01*
X364268Y868157D01*
X368070Y863820D01*
X372407Y860018D01*
X377203Y856813D01*
X382376Y854262D01*
X387837Y852408D01*
X393494Y851283D01*
X399250Y850906D01*
X494250D01*
X500005Y851283D01*
X505662Y852408D01*
X511124Y854262D01*
X516297Y856813D01*
X521093Y860018D01*
X525429Y863820D01*
X529232Y868157D01*
X532437Y872953D01*
X534988Y878126D01*
X536842Y883587D01*
X537967Y889245D01*
X538344Y895000D01*
X537967Y900755D01*
X536842Y906413D01*
X534988Y911874D01*
X532437Y917047D01*
X529232Y921843D01*
X525429Y926179D01*
X521093Y929982D01*
X516297Y933187D01*
X511124Y935738D01*
X505662Y937592D01*
X500005Y938717D01*
X494250Y939094D01*
D02*
G37*
G36*
X125000Y853591D02*
X122259Y853230D01*
X119705Y852172D01*
X117511Y850489D01*
X115828Y848295D01*
X114770Y845741D01*
X114409Y843000D01*
X114770Y840259D01*
X115828Y837705D01*
X117511Y835511D01*
X119705Y833828D01*
X122259Y832770D01*
X125000Y832409D01*
X127741Y832770D01*
X130295Y833828D01*
X132489Y835511D01*
X134172Y837705D01*
X135230Y840259D01*
X135591Y843000D01*
X135230Y845741D01*
X134172Y848295D01*
X132489Y850489D01*
X130295Y852172D01*
X127741Y853230D01*
X125000Y853591D01*
D02*
G37*
G36*
X255000D02*
X252259Y853230D01*
X249705Y852172D01*
X247511Y850489D01*
X245828Y848295D01*
X244770Y845741D01*
X244409Y843000D01*
X244770Y840259D01*
X245828Y837705D01*
X247511Y835511D01*
X249705Y833828D01*
X252259Y832770D01*
X255000Y832409D01*
X257741Y832770D01*
X260295Y833828D01*
X262489Y835511D01*
X264172Y837705D01*
X265230Y840259D01*
X265591Y843000D01*
X265230Y845741D01*
X264172Y848295D01*
X262489Y850489D01*
X260295Y852172D01*
X257741Y853230D01*
X255000Y853591D01*
D02*
G37*
G36*
X316000D02*
X313259Y853230D01*
X310705Y852172D01*
X308511Y850489D01*
X306828Y848295D01*
X305770Y845741D01*
X305409Y843000D01*
X305770Y840259D01*
X306828Y837705D01*
X308511Y835511D01*
X310705Y833828D01*
X313259Y832770D01*
X316000Y832409D01*
X318741Y832770D01*
X321295Y833828D01*
X323489Y835511D01*
X325172Y837705D01*
X326230Y840259D01*
X326591Y843000D01*
X326230Y845741D01*
X325172Y848295D01*
X323489Y850489D01*
X321295Y852172D01*
X318741Y853230D01*
X316000Y853591D01*
D02*
G37*
G36*
X584400Y626000D02*
X578400D01*
Y620000D01*
X584400D01*
Y626000D01*
D02*
G37*
G36*
X56500Y638588D02*
X54744Y638239D01*
X53256Y637244D01*
X52261Y635756D01*
X51912Y634000D01*
X52261Y632244D01*
X53256Y630756D01*
X54744Y629761D01*
X56500Y629412D01*
X58256Y629761D01*
X59744Y630756D01*
X60739Y632244D01*
X61088Y634000D01*
X60739Y635756D01*
X59744Y637244D01*
X58256Y638239D01*
X56500Y638588D01*
D02*
G37*
G36*
X181000Y636587D02*
X179244Y636238D01*
X177756Y635243D01*
X176761Y633755D01*
X176412Y631999D01*
X176638Y630860D01*
X175500Y631087D01*
X174361Y630860D01*
X174588Y631999D01*
X174239Y633755D01*
X173244Y635243D01*
X171756Y636238D01*
X170000Y636587D01*
X168244Y636238D01*
X166755Y635243D01*
X165761Y633755D01*
X165411Y631999D01*
X165658Y630757D01*
X164000Y631087D01*
X162244Y630738D01*
X160755Y629743D01*
X159761Y628255D01*
X159411Y626499D01*
X159761Y624743D01*
X160755Y623254D01*
X162244Y622260D01*
X164000Y621911D01*
X165756Y622260D01*
X167244Y623254D01*
X168239Y624743D01*
X168588Y626499D01*
X168341Y627741D01*
X170000Y627411D01*
X171138Y627637D01*
X170912Y626499D01*
X171261Y624743D01*
X172255Y623254D01*
X173744Y622260D01*
X175500Y621911D01*
X177255Y622260D01*
X178744Y623254D01*
X179739Y624743D01*
X180088Y626499D01*
X179861Y627637D01*
X181000Y627411D01*
X182138Y627637D01*
X181912Y626500D01*
X182261Y624744D01*
X183256Y623256D01*
X184744Y622261D01*
X186500Y621912D01*
X188256Y622261D01*
X189744Y623256D01*
X190739Y624744D01*
X191088Y626500D01*
X190739Y628256D01*
X189744Y629744D01*
X188256Y630739D01*
X186500Y631088D01*
X185362Y630862D01*
X185588Y631999D01*
X185239Y633755D01*
X184244Y635243D01*
X182756Y636238D01*
X181000Y636587D01*
D02*
G37*
G36*
X522600Y642095D02*
X519728Y641717D01*
X517052Y640608D01*
X514755Y638845D01*
X512991Y636547D01*
X511883Y633872D01*
X511505Y631000D01*
X511883Y628128D01*
X512991Y625452D01*
X514755Y623155D01*
X517052Y621391D01*
X519728Y620283D01*
X522600Y619905D01*
X525472Y620283D01*
X528148Y621391D01*
X530445Y623155D01*
X532209Y625452D01*
X533317Y628128D01*
X533695Y631000D01*
X533317Y633872D01*
X532209Y636547D01*
X530445Y638845D01*
X528148Y640608D01*
X525472Y641717D01*
X522600Y642095D01*
D02*
G37*
G36*
X548000D02*
X545128Y641717D01*
X542453Y640608D01*
X540155Y638845D01*
X538391Y636547D01*
X537283Y633872D01*
X536905Y631000D01*
X537283Y628128D01*
X538391Y625452D01*
X540155Y623155D01*
X542453Y621391D01*
X545128Y620283D01*
X548000Y619905D01*
X550872Y620283D01*
X553548Y621391D01*
X555845Y623155D01*
X557608Y625452D01*
X558717Y628128D01*
X559095Y631000D01*
X558717Y633872D01*
X557608Y636547D01*
X555845Y638845D01*
X553548Y640608D01*
X550872Y641717D01*
X548000Y642095D01*
D02*
G37*
G36*
X568400Y626000D02*
X562400D01*
Y620000D01*
X568400D01*
Y626000D01*
D02*
G37*
G36*
X522000Y694609D02*
X517589Y694174D01*
X513348Y692888D01*
X509439Y690799D01*
X506013Y687987D01*
X503201Y684561D01*
X501112Y680652D01*
X499826Y676411D01*
X499391Y672000D01*
X499826Y667589D01*
X501112Y663348D01*
X503201Y659439D01*
X506013Y656013D01*
X509439Y653201D01*
X513348Y651112D01*
X517589Y649826D01*
X522000Y649391D01*
X526411Y649826D01*
X530652Y651112D01*
X534561Y653201D01*
X537987Y656013D01*
X540799Y659439D01*
X542888Y663348D01*
X544174Y667589D01*
X544609Y672000D01*
X544174Y676411D01*
X542888Y680652D01*
X540799Y684561D01*
X537987Y687987D01*
X534561Y690799D01*
X530652Y692888D01*
X526411Y694174D01*
X522000Y694609D01*
D02*
G37*
G36*
X274500Y667588D02*
X272744Y667239D01*
X271256Y666244D01*
X270261Y664756D01*
X269912Y663000D01*
X270261Y661244D01*
X271256Y659756D01*
X272013Y659249D01*
X271255Y658743D01*
X270261Y657254D01*
X269911Y655499D01*
X270261Y653743D01*
X271255Y652254D01*
X272744Y651260D01*
X274499Y650910D01*
X276255Y651260D01*
X277744Y652254D01*
X278738Y653743D01*
X279088Y655499D01*
X278738Y657254D01*
X277744Y658743D01*
X276986Y659249D01*
X277744Y659756D01*
X278739Y661244D01*
X279088Y663000D01*
X278739Y664756D01*
X277744Y666244D01*
X276256Y667239D01*
X274500Y667588D01*
D02*
G37*
G36*
X562000Y662000D02*
X551833D01*
X553201Y659439D01*
X556013Y656013D01*
X559439Y653201D01*
X562000Y651833D01*
Y662000D01*
D02*
G37*
G36*
X568400Y642000D02*
X562400D01*
Y636000D01*
X568400D01*
Y642000D01*
D02*
G37*
G36*
X584400D02*
X578400D01*
Y636000D01*
X584400D01*
Y642000D01*
D02*
G37*
G36*
X207000Y647088D02*
X205244Y646739D01*
X203756Y645744D01*
X202761Y644256D01*
X202412Y642500D01*
X202761Y640744D01*
X203756Y639256D01*
X205244Y638261D01*
X207000Y637912D01*
X208756Y638261D01*
X210244Y639256D01*
X211239Y640744D01*
X211588Y642500D01*
X211239Y644256D01*
X210244Y645744D01*
X208756Y646739D01*
X207000Y647088D01*
D02*
G37*
G36*
X542700Y598000D02*
X536150D01*
Y594500D01*
X542700D01*
Y598000D01*
D02*
G37*
G36*
X516500Y616088D02*
X514744Y615739D01*
X513256Y614744D01*
X512999Y614360D01*
X512830Y614326D01*
X511837Y613663D01*
X511837Y613663D01*
X507887Y609713D01*
X507224Y608721D01*
X506991Y607550D01*
X506991Y607550D01*
Y607500D01*
X502500D01*
Y598500D01*
X517600D01*
Y607131D01*
X518256Y607261D01*
X519744Y608256D01*
X520739Y609744D01*
X521088Y611500D01*
X520739Y613256D01*
X519744Y614744D01*
X518256Y615739D01*
X516500Y616088D01*
D02*
G37*
G36*
X545000Y602450D02*
X541500D01*
Y599000D01*
X545000D01*
Y602450D01*
D02*
G37*
G36*
X558500Y607900D02*
X547000D01*
Y603450D01*
Y599000D01*
X549922D01*
Y596996D01*
X549761Y596756D01*
X549412Y595000D01*
X549761Y593244D01*
X550756Y591756D01*
X552244Y590761D01*
X554000Y590412D01*
X555756Y590761D01*
X557244Y591756D01*
X558239Y593244D01*
X558588Y595000D01*
X558239Y596756D01*
X558078Y596996D01*
Y599000D01*
X558500D01*
Y607900D01*
D02*
G37*
G36*
X75000Y600088D02*
X73244Y599739D01*
X71756Y598744D01*
X70761Y597256D01*
X70412Y595500D01*
X70761Y593744D01*
X71756Y592256D01*
X73244Y591261D01*
X75000Y590912D01*
X76756Y591261D01*
X78244Y592256D01*
X79239Y593744D01*
X79588Y595500D01*
X79239Y597256D01*
X78244Y598744D01*
X76756Y599739D01*
X75000Y600088D01*
D02*
G37*
G36*
X534150Y598000D02*
X527600D01*
Y594500D01*
X534150D01*
Y598000D01*
D02*
G37*
G36*
X545000Y607900D02*
X541500D01*
Y604450D01*
X545000D01*
Y607900D01*
D02*
G37*
G36*
X558500Y617000D02*
X527600D01*
Y608000D01*
X542700D01*
Y608100D01*
X558500D01*
Y617000D01*
D02*
G37*
G36*
X19000Y626088D02*
X17244Y625739D01*
X15756Y624744D01*
X14761Y623256D01*
X14412Y621500D01*
X14761Y619744D01*
X15756Y618256D01*
X17244Y617261D01*
X19000Y616912D01*
X20756Y617261D01*
X22244Y618256D01*
X23239Y619744D01*
X23588Y621500D01*
X23239Y623256D01*
X22244Y624744D01*
X20756Y625739D01*
X19000Y626088D01*
D02*
G37*
G36*
X452000Y611088D02*
X450244Y610739D01*
X448756Y609744D01*
X447761Y608256D01*
X447412Y606500D01*
X447761Y604744D01*
X448756Y603256D01*
X450244Y602261D01*
X452000Y601912D01*
X453756Y602261D01*
X455244Y603256D01*
X456239Y604744D01*
X456588Y606500D01*
X456239Y608256D01*
X455244Y609744D01*
X453756Y610739D01*
X452000Y611088D01*
D02*
G37*
G36*
X286499Y617587D02*
X284744Y617238D01*
X283255Y616243D01*
X282260Y614755D01*
X281911Y612999D01*
X282260Y611243D01*
X283255Y609754D01*
X284744Y608760D01*
X286499Y608411D01*
X288055Y608720D01*
X287912Y608000D01*
X288261Y606244D01*
X289256Y604756D01*
X290744Y603761D01*
X292500Y603412D01*
X294256Y603761D01*
X295744Y604756D01*
X296739Y606244D01*
X297088Y608000D01*
X296739Y609756D01*
X295744Y611244D01*
X294256Y612239D01*
X292500Y612588D01*
X290944Y612279D01*
X291088Y612999D01*
X290738Y614755D01*
X289744Y616243D01*
X288255Y617238D01*
X286499Y617587D01*
D02*
G37*
G36*
X37000Y613088D02*
X35244Y612739D01*
X33756Y611744D01*
X32761Y610256D01*
X32412Y608500D01*
X32761Y606744D01*
X33756Y605256D01*
X35244Y604261D01*
X37000Y603912D01*
X38756Y604261D01*
X40244Y605256D01*
X41239Y606744D01*
X41588Y608500D01*
X41239Y610256D01*
X40244Y611744D01*
X38756Y612739D01*
X37000Y613088D01*
D02*
G37*
G36*
X592167Y662000D02*
X582000D01*
Y651833D01*
X584561Y653201D01*
X587987Y656013D01*
X590799Y659439D01*
X592167Y662000D01*
D02*
G37*
G36*
X526700Y722088D02*
X524944Y721739D01*
X523456Y720744D01*
X522461Y719256D01*
X522112Y717500D01*
X522461Y715744D01*
X523456Y714256D01*
X524944Y713261D01*
X526700Y712912D01*
X528456Y713261D01*
X529944Y714256D01*
X530939Y715744D01*
X531288Y717500D01*
X530939Y719256D01*
X529944Y720744D01*
X528456Y721739D01*
X526700Y722088D01*
D02*
G37*
G36*
X538000D02*
X536244Y721739D01*
X534756Y720744D01*
X533761Y719256D01*
X533412Y717500D01*
X533761Y715744D01*
X534756Y714256D01*
X536244Y713261D01*
X538000Y712912D01*
X539756Y713261D01*
X541244Y714256D01*
X542239Y715744D01*
X542588Y717500D01*
X542239Y719256D01*
X541244Y720744D01*
X539756Y721739D01*
X538000Y722088D01*
D02*
G37*
G36*
X50500Y718088D02*
X48744Y717739D01*
X47256Y716744D01*
X47250Y716736D01*
X47244Y716744D01*
X45756Y717739D01*
X44000Y718088D01*
X42244Y717739D01*
X40756Y716744D01*
X39761Y715256D01*
X39412Y713500D01*
X39761Y711744D01*
X40756Y710256D01*
X40764Y710250D01*
X40756Y710244D01*
X39761Y708756D01*
X39412Y707000D01*
X39761Y705244D01*
X40756Y703756D01*
X42244Y702761D01*
X44000Y702412D01*
X45756Y702761D01*
X47244Y703756D01*
X47250Y703764D01*
X47256Y703756D01*
X48744Y702761D01*
X50500Y702412D01*
X52256Y702761D01*
X53744Y703756D01*
X54739Y705244D01*
X55088Y707000D01*
X54739Y708756D01*
X53744Y710244D01*
X53736Y710250D01*
X53744Y710256D01*
X54739Y711744D01*
X55088Y713500D01*
X54739Y715256D01*
X53744Y716744D01*
X52256Y717739D01*
X50500Y718088D01*
D02*
G37*
G36*
X528000Y712088D02*
X526244Y711739D01*
X524756Y710744D01*
X523761Y709256D01*
X523412Y707500D01*
X523761Y705744D01*
X524756Y704256D01*
X526244Y703261D01*
X528000Y702912D01*
X529756Y703261D01*
X531244Y704256D01*
X532239Y705744D01*
X532588Y707500D01*
X532239Y709256D01*
X531244Y710744D01*
X529756Y711739D01*
X528000Y712088D01*
D02*
G37*
G36*
X517000Y713088D02*
X515244Y712739D01*
X513756Y711744D01*
X512761Y710256D01*
X512412Y708500D01*
X512761Y706744D01*
X513756Y705256D01*
X515244Y704261D01*
X517000Y703912D01*
X518756Y704261D01*
X520244Y705256D01*
X521239Y706744D01*
X521588Y708500D01*
X521239Y710256D01*
X520244Y711744D01*
X518756Y712739D01*
X517000Y713088D01*
D02*
G37*
G36*
X193000Y717088D02*
X191244Y716739D01*
X189756Y715744D01*
X188761Y714256D01*
X188412Y712500D01*
X188761Y710744D01*
X189756Y709256D01*
X191244Y708261D01*
X193000Y707912D01*
X194756Y708261D01*
X196244Y709256D01*
X197239Y710744D01*
X197588Y712500D01*
X197239Y714256D01*
X196244Y715744D01*
X194756Y716739D01*
X193000Y717088D01*
D02*
G37*
G36*
X75000Y753588D02*
X73244Y753239D01*
X71756Y752244D01*
X70761Y750756D01*
X70412Y749000D01*
X70761Y747244D01*
X71756Y745756D01*
X73244Y744761D01*
X75000Y744412D01*
X76756Y744761D01*
X78244Y745756D01*
X79239Y747244D01*
X79588Y749000D01*
X79239Y750756D01*
X78244Y752244D01*
X76756Y753239D01*
X75000Y753588D01*
D02*
G37*
G36*
X18500Y754088D02*
X16744Y753739D01*
X15256Y752744D01*
X14261Y751256D01*
X13912Y749500D01*
X14261Y747744D01*
X15256Y746256D01*
X16744Y745261D01*
X18500Y744912D01*
X20256Y745261D01*
X21744Y746256D01*
X22739Y747744D01*
X23088Y749500D01*
X22739Y751256D01*
X21744Y752744D01*
X20256Y753739D01*
X18500Y754088D01*
D02*
G37*
G36*
X195750Y756588D02*
X193994Y756239D01*
X192506Y755244D01*
X191511Y753756D01*
X191162Y752000D01*
X191511Y750244D01*
X192506Y748756D01*
X193994Y747761D01*
X195750Y747412D01*
X197506Y747761D01*
X198994Y748756D01*
X199989Y750244D01*
X200338Y752000D01*
X199989Y753756D01*
X198994Y755244D01*
X197506Y756239D01*
X195750Y756588D01*
D02*
G37*
G36*
X140000Y730588D02*
X138244Y730239D01*
X136756Y729244D01*
X135761Y727756D01*
X135412Y726000D01*
X135761Y724244D01*
X136756Y722756D01*
X138244Y721761D01*
X140000Y721412D01*
X141756Y721761D01*
X143244Y722756D01*
X144239Y724244D01*
X144588Y726000D01*
X144239Y727756D01*
X143244Y729244D01*
X141756Y730239D01*
X140000Y730588D01*
D02*
G37*
G36*
X186000Y745088D02*
X184244Y744739D01*
X182756Y743744D01*
X181761Y742256D01*
X181412Y740500D01*
X181761Y738744D01*
X182756Y737256D01*
X184244Y736261D01*
X186000Y735912D01*
X187756Y736261D01*
X189244Y737256D01*
X190239Y738744D01*
X190588Y740500D01*
X190239Y742256D01*
X189244Y743744D01*
X187756Y744739D01*
X186000Y745088D01*
D02*
G37*
G36*
X204000Y750738D02*
X202244Y750389D01*
X200756Y749394D01*
X199761Y747906D01*
X199412Y746150D01*
X199761Y744394D01*
X200756Y742906D01*
X202244Y741911D01*
X204000Y741562D01*
X205756Y741911D01*
X207244Y742906D01*
X208239Y744394D01*
X208588Y746150D01*
X208239Y747906D01*
X207244Y749394D01*
X205756Y750389D01*
X204000Y750738D01*
D02*
G37*
G36*
X314000Y704088D02*
X312244Y703739D01*
X311000Y702908D01*
X309756Y703739D01*
X308000Y704088D01*
X306244Y703739D01*
X304756Y702744D01*
X303761Y701256D01*
X303412Y699500D01*
X303761Y697744D01*
X304756Y696256D01*
X306244Y695261D01*
X308000Y694912D01*
X309756Y695261D01*
X311000Y696092D01*
X312244Y695261D01*
X314000Y694912D01*
X315756Y695261D01*
X317244Y696256D01*
X318239Y697744D01*
X318588Y699500D01*
X318239Y701256D01*
X317244Y702744D01*
X315756Y703739D01*
X314000Y704088D01*
D02*
G37*
G36*
X562000Y692167D02*
X559439Y690799D01*
X556013Y687987D01*
X553201Y684561D01*
X551833Y682000D01*
X562000D01*
Y692167D01*
D02*
G37*
G36*
X582000D02*
Y682000D01*
X592167D01*
X590799Y684561D01*
X587987Y687987D01*
X584561Y690799D01*
X582000Y692167D01*
D02*
G37*
G36*
X370000Y683588D02*
X368244Y683239D01*
X367500Y682742D01*
X366756Y683239D01*
X365000Y683588D01*
X363244Y683239D01*
X362500Y682742D01*
X361756Y683239D01*
X360000Y683588D01*
X358244Y683239D01*
X356756Y682244D01*
X355761Y680756D01*
X355412Y679000D01*
X355761Y677244D01*
X356258Y676500D01*
X355836Y675868D01*
X355755Y676480D01*
X354798Y678791D01*
X353275Y680775D01*
X351291Y682298D01*
X348980Y683255D01*
X346500Y683582D01*
X344020Y683255D01*
X341709Y682298D01*
X339725Y680775D01*
X338202Y678791D01*
X337244Y676480D01*
X336918Y674000D01*
X337244Y671520D01*
X338202Y669209D01*
X339725Y667225D01*
X341709Y665702D01*
X344020Y664744D01*
X346500Y664418D01*
X348980Y664744D01*
X351291Y665702D01*
X353275Y667225D01*
X354798Y669209D01*
X355755Y671520D01*
X355836Y672132D01*
X356258Y671500D01*
X355761Y670756D01*
X355412Y669000D01*
X355761Y667244D01*
X356756Y665756D01*
X358244Y664761D01*
X360000Y664412D01*
X361756Y664761D01*
X362500Y665258D01*
X363244Y664761D01*
X365000Y664412D01*
X366756Y664761D01*
X367500Y665258D01*
X368244Y664761D01*
X370000Y664412D01*
X371756Y664761D01*
X373244Y665756D01*
X374239Y667244D01*
X374588Y669000D01*
X374239Y670756D01*
X373742Y671500D01*
X374239Y672244D01*
X374588Y674000D01*
X374239Y675756D01*
X373742Y676500D01*
X374239Y677244D01*
X374588Y679000D01*
X374239Y680756D01*
X373244Y682244D01*
X371756Y683239D01*
X370000Y683588D01*
D02*
G37*
G36*
X286000Y664588D02*
X284244Y664239D01*
X282756Y663244D01*
X281761Y661756D01*
X281412Y660000D01*
X281761Y658244D01*
X282756Y656756D01*
X284244Y655761D01*
X286000Y655412D01*
X287756Y655761D01*
X289244Y656756D01*
X290239Y658244D01*
X290588Y660000D01*
X290239Y661756D01*
X289244Y663244D01*
X287756Y664239D01*
X286000Y664588D01*
D02*
G37*
G36*
X191500Y673588D02*
X189744Y673239D01*
X188256Y672244D01*
X187261Y670756D01*
X186912Y669000D01*
X187261Y667244D01*
X188256Y665756D01*
X189744Y664761D01*
X191500Y664412D01*
X193256Y664761D01*
X194744Y665756D01*
X195739Y667244D01*
X196088Y669000D01*
X195739Y670756D01*
X194744Y672244D01*
X193256Y673239D01*
X191500Y673588D01*
D02*
G37*
G36*
X201500D02*
X199744Y673239D01*
X198256Y672244D01*
X197261Y670756D01*
X196912Y669000D01*
X197261Y667244D01*
X198256Y665756D01*
X199744Y664761D01*
X201500Y664412D01*
X203256Y664761D01*
X204744Y665756D01*
X205739Y667244D01*
X206088Y669000D01*
X205739Y670756D01*
X204744Y672244D01*
X203256Y673239D01*
X201500Y673588D01*
D02*
G37*
G36*
X149500Y704588D02*
X147744Y704239D01*
X146256Y703244D01*
X145261Y701756D01*
X144912Y700000D01*
X145261Y698244D01*
X146256Y696756D01*
X147744Y695761D01*
X149500Y695412D01*
X151256Y695761D01*
X152744Y696756D01*
X153739Y698244D01*
X154088Y700000D01*
X153739Y701756D01*
X152744Y703244D01*
X151256Y704239D01*
X149500Y704588D01*
D02*
G37*
G36*
X176000Y719582D02*
X173520Y719256D01*
X171209Y718298D01*
X169225Y716776D01*
X167702Y714791D01*
X166744Y712480D01*
X166418Y710000D01*
X166744Y707520D01*
X167702Y705209D01*
X169225Y703225D01*
X171209Y701702D01*
X173520Y700744D01*
X176000Y700418D01*
X178480Y700744D01*
X180791Y701702D01*
X182775Y703225D01*
X184298Y705209D01*
X185256Y707520D01*
X185582Y710000D01*
X185256Y712480D01*
X184298Y714791D01*
X182775Y716776D01*
X180791Y718298D01*
X178480Y719256D01*
X176000Y719582D01*
D02*
G37*
G36*
X505600Y717838D02*
X503844Y717489D01*
X502356Y716494D01*
X501361Y715006D01*
X501012Y713250D01*
X501361Y711494D01*
X502276Y710125D01*
X501361Y708756D01*
X501012Y707000D01*
X501361Y705244D01*
X502356Y703756D01*
X503844Y702761D01*
X505600Y702412D01*
X507356Y702761D01*
X508844Y703756D01*
X509839Y705244D01*
X510188Y707000D01*
X509839Y708756D01*
X508924Y710125D01*
X509839Y711494D01*
X510188Y713250D01*
X509839Y715006D01*
X508844Y716494D01*
X507356Y717489D01*
X505600Y717838D01*
D02*
G37*
G36*
X491000Y705088D02*
X489244Y704739D01*
X487756Y703744D01*
X486761Y702256D01*
X486412Y700500D01*
X486761Y698744D01*
X487425Y697750D01*
X486761Y696756D01*
X486412Y695000D01*
X486761Y693244D01*
X487258Y692500D01*
X486761Y691756D01*
X486412Y690000D01*
X486761Y688244D01*
X487756Y686756D01*
X489244Y685761D01*
X491000Y685412D01*
X492756Y685761D01*
X494244Y686756D01*
X495239Y688244D01*
X495588Y690000D01*
X495239Y691756D01*
X494742Y692500D01*
X495239Y693244D01*
X495588Y695000D01*
X495239Y696756D01*
X494575Y697750D01*
X495239Y698744D01*
X495588Y700500D01*
X495239Y702256D01*
X494244Y703744D01*
X492756Y704739D01*
X491000Y705088D01*
D02*
G37*
G36*
X536700Y702588D02*
X534944Y702239D01*
X533456Y701244D01*
X532461Y699756D01*
X532112Y698000D01*
X532461Y696244D01*
X533456Y694756D01*
X534944Y693761D01*
X536700Y693412D01*
X538456Y693761D01*
X539944Y694756D01*
X540939Y696244D01*
X541288Y698000D01*
X540939Y699756D01*
X539944Y701244D01*
X538456Y702239D01*
X536700Y702588D01*
D02*
G37*
%LPD*%
G36*
X590000Y296500D02*
Y216500D01*
X570500D01*
Y299000D01*
X590000D01*
Y296500D01*
D02*
G37*
D11*
X546000Y612550D02*
D03*
Y603450D02*
D03*
X554000Y612550D02*
D03*
Y603450D02*
D03*
D57*
X535000Y612500D02*
X535050Y612550D01*
X546000D01*
X554000D01*
Y595000D02*
Y603450D01*
D59*
X510050Y603000D02*
Y607550D01*
X514000Y611500D01*
X516500D01*
D61*
X310000Y968000D02*
G03*
X330000Y948000I20000J0D01*
G01*
X310000Y988000D02*
G03*
X290000Y1008000I-20000J0D01*
G01*
X25000Y1007999D02*
G03*
X0Y988000I-2500J-22499D01*
G01*
X23000Y911000D02*
G03*
X-0Y929000I-20500J-2500D01*
G01*
Y865000D02*
G03*
X23000Y883000I2500J20500D01*
G01*
X23000Y464000D02*
G03*
X-0Y480000I-19500J-3500D01*
G01*
X0Y416000D02*
G03*
X23000Y436000I1500J21500D01*
G01*
X121000Y1008000D02*
G03*
X156000Y973000I35000J0D01*
G01*
D02*
G03*
X191000Y1008000I0J35000D01*
G01*
X-1Y36000D02*
G03*
X69600Y23000I36035J109D01*
G01*
X242399Y22999D02*
G03*
X312000Y36000I33587J12998D01*
G01*
X591213Y182213D02*
G03*
X600000Y203426I-21213J21213D01*
G01*
X438574Y42000D02*
G03*
X459787Y50787I0J30000D01*
G01*
X600000Y928000D02*
G03*
X580000Y948000I-20000J0D01*
G01*
X50000Y883000D02*
G03*
X50000Y911000I0J14000D01*
G01*
Y436000D02*
G03*
X50000Y464000I0J14000D01*
G01*
X310000Y968000D02*
Y988000D01*
X191000Y1008000D02*
X290000D01*
X0Y929000D02*
Y988000D01*
X25000Y1008000D02*
X121000D01*
X23000Y911000D02*
X50000D01*
X23000Y883000D02*
X50000D01*
X0Y480000D02*
Y865000D01*
X23000Y436000D02*
X50000D01*
X23000Y464000D02*
X50000D01*
X69600Y23000D02*
X242400D01*
X0Y36000D02*
Y416000D01*
X312000Y36000D02*
Y42000D01*
X600000Y203426D02*
Y928000D01*
X459787Y50787D02*
X591213Y182213D01*
X330000Y948000D02*
X580000D01*
X312000Y42000D02*
X438574D01*
D62*
X580200Y290750D02*
D03*
Y219250D02*
D03*
D63*
X573400Y631000D02*
D03*
Y507000D02*
D03*
Y535000D02*
D03*
D64*
X548000Y631000D02*
D03*
X522600D02*
D03*
Y507000D02*
D03*
X548000D02*
D03*
X522600Y535000D02*
D03*
X548000D02*
D03*
D65*
X580300Y359500D02*
D03*
D66*
X554900D02*
D03*
X504100D02*
D03*
X529500D02*
D03*
D67*
X55750Y240000D02*
D03*
X257750D02*
D03*
X36750Y973000D02*
D03*
X276750D02*
D03*
X504750Y296000D02*
D03*
Y180000D02*
D03*
D68*
X276750Y36000D02*
D03*
X36750D02*
D03*
X33750Y180000D02*
D03*
Y296000D02*
D03*
D69*
X446750Y895000D02*
D03*
X427750Y450000D02*
D03*
D70*
X522000Y797000D02*
D03*
X572000D02*
D03*
X522000Y672000D02*
D03*
X572000D02*
D03*
D71*
X125000Y893000D02*
D03*
X316000D02*
D03*
X255000D02*
D03*
D72*
X125000Y868000D02*
D03*
Y843000D02*
D03*
Y818000D02*
D03*
X316000Y868000D02*
D03*
Y843000D02*
D03*
Y818000D02*
D03*
X255000Y868000D02*
D03*
Y843000D02*
D03*
X96000Y376000D02*
D03*
X71000D02*
D03*
X46000D02*
D03*
X241000D02*
D03*
X216000D02*
D03*
X191000D02*
D03*
D73*
X121000D02*
D03*
X266000D02*
D03*
D74*
X253000Y496000D02*
D03*
X485000Y270000D02*
D03*
X478500Y250500D02*
D03*
X451500Y301500D02*
D03*
X396000Y179500D02*
D03*
X379000Y335000D02*
D03*
X357500D02*
D03*
X95000Y605000D02*
D03*
X333500Y699000D02*
D03*
X323000Y653000D02*
D03*
X527000Y140500D02*
D03*
X234300Y482500D02*
D03*
Y487550D02*
D03*
X455000Y344500D02*
D03*
X449000Y289500D02*
D03*
X457500Y254500D02*
D03*
X465000Y224000D02*
D03*
X135500Y512000D02*
D03*
X172000Y470500D02*
D03*
X199500Y723000D02*
D03*
X186000Y740500D02*
D03*
X309500Y800500D02*
D03*
X300000Y940000D02*
D03*
X287000Y927500D02*
D03*
X388500Y351000D02*
D03*
X406500Y317500D02*
D03*
X361500Y295000D02*
D03*
X528000Y330000D02*
D03*
X190500Y649000D02*
D03*
X173000Y725500D02*
D03*
X223500Y700500D02*
D03*
X231000Y732500D02*
D03*
X231500Y764500D02*
D03*
X350000Y772000D02*
D03*
X355500D02*
D03*
X350000Y777000D02*
D03*
X355500D02*
D03*
X48000Y639500D02*
D03*
X38500Y674500D02*
D03*
Y725000D02*
D03*
X39500Y745000D02*
D03*
X35000Y776000D02*
D03*
X35500Y789000D02*
D03*
Y799000D02*
D03*
X47000Y763000D02*
D03*
X46500Y787000D02*
D03*
X45500Y818000D02*
D03*
X471500Y204000D02*
D03*
X150000Y531500D02*
D03*
X141000Y781000D02*
D03*
X308000Y699500D02*
D03*
X314000D02*
D03*
X112500Y586000D02*
D03*
X105500D02*
D03*
X95000Y613000D02*
D03*
X333000Y538000D02*
D03*
X309000Y507500D02*
D03*
X309500Y535500D02*
D03*
X175500Y578000D02*
D03*
X175500Y594000D02*
D03*
X324000Y362000D02*
D03*
X337500Y284000D02*
D03*
X328000Y300500D02*
D03*
X283000Y289500D02*
D03*
X349500Y372500D02*
D03*
X391000Y371500D02*
D03*
X431000D02*
D03*
X459500Y388500D02*
D03*
X118000Y300500D02*
D03*
X104000Y354000D02*
D03*
X29000Y395000D02*
D03*
X60500Y358000D02*
D03*
X58500Y399000D02*
D03*
X103000Y397000D02*
D03*
X171500Y384500D02*
D03*
X188000Y471000D02*
D03*
X200500Y475500D02*
D03*
X215500Y469500D02*
D03*
X246000Y491500D02*
D03*
X254500Y468500D02*
D03*
X271500Y487000D02*
D03*
X275000Y464000D02*
D03*
X282500Y472500D02*
D03*
X328000Y474500D02*
D03*
X328500Y414000D02*
D03*
X322500Y447000D02*
D03*
X287000Y424000D02*
D03*
X288000Y434000D02*
D03*
X399000Y805500D02*
D03*
X341000Y907000D02*
D03*
X361000Y938000D02*
D03*
X285000Y895000D02*
D03*
X259500Y920500D02*
D03*
X206500Y871000D02*
D03*
X188000Y815500D02*
D03*
X165000Y828500D02*
D03*
X175000Y783000D02*
D03*
X211500Y799500D02*
D03*
X59000Y930500D02*
D03*
X82000Y994500D02*
D03*
X137500Y949500D02*
D03*
X296950Y708500D02*
D03*
X267000Y707000D02*
D03*
X287000Y737000D02*
D03*
X333500Y731000D02*
D03*
X315000Y757000D02*
D03*
X333500Y774500D02*
D03*
X167500Y542500D02*
D03*
X223000Y547500D02*
D03*
X243500Y558000D02*
D03*
X254000Y577500D02*
D03*
X273500Y558500D02*
D03*
X275500Y586000D02*
D03*
X291500Y571500D02*
D03*
X277500Y606500D02*
D03*
X203500Y584000D02*
D03*
X216500Y599000D02*
D03*
X202000Y614500D02*
D03*
X250000Y630000D02*
D03*
X230500Y612000D02*
D03*
X217000Y631450D02*
D03*
X224500Y649000D02*
D03*
X243950Y649500D02*
D03*
X239000Y667000D02*
D03*
X435500Y512000D02*
D03*
X360000Y511500D02*
D03*
X335500Y492000D02*
D03*
X393500Y519000D02*
D03*
X412000Y544000D02*
D03*
X446500Y555000D02*
D03*
X445000Y583000D02*
D03*
X464500Y592050D02*
D03*
X359500Y548000D02*
D03*
X324500Y569000D02*
D03*
X353000Y645500D02*
D03*
X334750Y623500D02*
D03*
X321000Y614000D02*
D03*
Y629500D02*
D03*
X365500Y588000D02*
D03*
X407500Y602000D02*
D03*
X552500Y390500D02*
D03*
X591000Y340500D02*
D03*
X564000Y341000D02*
D03*
X561500Y425000D02*
D03*
X514000Y391000D02*
D03*
X451500Y192000D02*
D03*
X358000Y225500D02*
D03*
X363500Y258000D02*
D03*
X393500Y229000D02*
D03*
X424450Y234500D02*
D03*
X424550Y259000D02*
D03*
X383000Y291500D02*
D03*
X410500D02*
D03*
X71000Y164000D02*
D03*
X115500Y227500D02*
D03*
X105500Y190500D02*
D03*
X198500Y243500D02*
D03*
X223500Y193500D02*
D03*
X306500Y186000D02*
D03*
X314500Y255500D02*
D03*
X257500Y313000D02*
D03*
X201500Y287500D02*
D03*
X287500Y336500D02*
D03*
X226000Y334500D02*
D03*
X184500Y334000D02*
D03*
X118000Y260500D02*
D03*
X83500Y285000D02*
D03*
X120500Y333350D02*
D03*
X75000Y335500D02*
D03*
X11500Y379000D02*
D03*
X26500Y337000D02*
D03*
X104000Y476000D02*
D03*
X126450Y494000D02*
D03*
X111500Y534500D02*
D03*
X76000Y494500D02*
D03*
X21000Y502000D02*
D03*
X63000Y537500D02*
D03*
X20500Y552500D02*
D03*
X28000Y584000D02*
D03*
X124500Y580000D02*
D03*
X130450Y641000D02*
D03*
X115000Y657000D02*
D03*
X91500Y672500D02*
D03*
X118000Y692500D02*
D03*
X104000Y718750D02*
D03*
X101500Y745000D02*
D03*
X104000Y768550D02*
D03*
X114500Y792000D02*
D03*
X136500Y801500D02*
D03*
X452000Y606500D02*
D03*
X460450Y631500D02*
D03*
X460500Y622000D02*
D03*
Y640650D02*
D03*
X334750Y526750D02*
D03*
X383999Y580999D02*
D03*
X390000Y586500D02*
D03*
X73000Y801000D02*
D03*
X75000Y749000D02*
D03*
X542000Y521000D02*
D03*
X541000Y558000D02*
D03*
X545500Y564500D02*
D03*
X546500Y551000D02*
D03*
Y577000D02*
D03*
X555000Y521000D02*
D03*
X554500Y580500D02*
D03*
X547000Y585000D02*
D03*
X554000Y595000D02*
D03*
X286000Y660000D02*
D03*
X505600Y707000D02*
D03*
Y713250D02*
D03*
X516500Y611500D02*
D03*
X81500Y148000D02*
D03*
X109750Y409250D02*
D03*
X104500D02*
D03*
X228250Y408250D02*
D03*
X233500Y408300D02*
D03*
X238750Y417800D02*
D03*
Y412500D02*
D03*
X35000Y834000D02*
D03*
Y840500D02*
D03*
X360000Y669000D02*
D03*
X365000D02*
D03*
X360000Y674000D02*
D03*
X365000D02*
D03*
X370000Y669000D02*
D03*
Y674000D02*
D03*
X360000Y679000D02*
D03*
X365000D02*
D03*
X370000D02*
D03*
X330000Y928000D02*
D03*
X491000Y700500D02*
D03*
Y690000D02*
D03*
Y695000D02*
D03*
X510000Y223500D02*
D03*
X514500Y226500D02*
D03*
X510000Y229000D02*
D03*
X510500Y235000D02*
D03*
X514500Y231500D02*
D03*
X73000Y99000D02*
D03*
X25000Y113000D02*
D03*
X81500Y66000D02*
D03*
X125500Y120500D02*
D03*
X145000Y56000D02*
D03*
X177000Y173000D02*
D03*
X191000Y121500D02*
D03*
X35000Y414000D02*
D03*
X59000Y419500D02*
D03*
X165500Y423000D02*
D03*
X183500Y400500D02*
D03*
X180500Y419000D02*
D03*
X170500Y433000D02*
D03*
X182000Y432500D02*
D03*
X214200Y52000D02*
D03*
X247000Y150500D02*
D03*
X266950Y111500D02*
D03*
X344500Y73000D02*
D03*
X327000Y132500D02*
D03*
X199500Y393000D02*
D03*
X233000Y394000D02*
D03*
X247000Y430000D02*
D03*
X103000Y836000D02*
D03*
X33000Y863000D02*
D03*
X75500Y857500D02*
D03*
X57500Y867500D02*
D03*
X94500Y916500D02*
D03*
X85000Y945500D02*
D03*
X101500Y809500D02*
D03*
X110000Y979500D02*
D03*
X149500Y922000D02*
D03*
X346500Y811900D02*
D03*
X364500Y700850D02*
D03*
X201000Y911000D02*
D03*
X220500Y856500D02*
D03*
X201500Y896500D02*
D03*
X183500Y921000D02*
D03*
X190000Y958000D02*
D03*
X196500Y922000D02*
D03*
X219500Y997000D02*
D03*
X227500Y937500D02*
D03*
X228250Y896500D02*
D03*
X281500Y861000D02*
D03*
X380000Y160000D02*
D03*
X442000Y94412D02*
D03*
X400500Y109000D02*
D03*
X424500Y152000D02*
D03*
X477259Y121500D02*
D03*
X415000Y611500D02*
D03*
X430000Y607500D02*
D03*
X433000Y623000D02*
D03*
X538500Y201000D02*
D03*
X513500Y262000D02*
D03*
X529000Y265000D02*
D03*
X538500Y262500D02*
D03*
X534000Y265750D02*
D03*
X536500Y451500D02*
D03*
X570500Y190500D02*
D03*
X539000Y267500D02*
D03*
X570000Y319500D02*
D03*
X591000Y394000D02*
D03*
X591500Y434500D02*
D03*
X546500Y473000D02*
D03*
X500500Y515000D02*
D03*
X496500Y576500D02*
D03*
X502500Y573000D02*
D03*
X591500Y476000D02*
D03*
X590500Y558000D02*
D03*
X569500Y564500D02*
D03*
X568500Y608000D02*
D03*
X588500Y605000D02*
D03*
X399500Y625500D02*
D03*
X402000Y614500D02*
D03*
X404000Y633500D02*
D03*
X393500D02*
D03*
X369000Y694000D02*
D03*
X433000Y645500D02*
D03*
X433500Y635000D02*
D03*
X433000Y654000D02*
D03*
X440450Y700500D02*
D03*
X417500Y719000D02*
D03*
X421000Y709000D02*
D03*
X421500Y752500D02*
D03*
X426500Y725000D02*
D03*
X367000Y795000D02*
D03*
X375000Y834000D02*
D03*
X416500Y763850D02*
D03*
X417000Y775500D02*
D03*
X418150Y826500D02*
D03*
X429000Y715000D02*
D03*
X435450Y708500D02*
D03*
X437500Y719500D02*
D03*
X433000Y754000D02*
D03*
X444500Y710500D02*
D03*
X470000Y641500D02*
D03*
X556500Y700850D02*
D03*
X574000Y700500D02*
D03*
X590500Y700000D02*
D03*
X554500Y736500D02*
D03*
X555000Y717000D02*
D03*
X573000Y716500D02*
D03*
X587000Y717500D02*
D03*
X495000Y742550D02*
D03*
X472000Y758500D02*
D03*
X481500Y769500D02*
D03*
X444000Y773000D02*
D03*
X454139Y779500D02*
D03*
X461500Y774500D02*
D03*
X459000Y821000D02*
D03*
X468500Y779500D02*
D03*
X560000Y762500D02*
D03*
X561500Y751000D02*
D03*
X579450Y750450D02*
D03*
X580500Y763450D02*
D03*
X526000Y838000D02*
D03*
X559500Y923500D02*
D03*
X563500Y847000D02*
D03*
X568000Y882000D02*
D03*
X513000Y768500D02*
D03*
X517000Y708500D02*
D03*
X526700Y717500D02*
D03*
X536700Y698000D02*
D03*
X528000Y707500D02*
D03*
X538000Y717500D02*
D03*
X515500Y753000D02*
D03*
X526000Y768500D02*
D03*
X528500Y752500D02*
D03*
X538500Y768500D02*
D03*
X539000Y753500D02*
D03*
X44000Y707000D02*
D03*
Y713500D02*
D03*
X140000Y726000D02*
D03*
X166000Y766000D02*
D03*
X552500Y205000D02*
D03*
Y305000D02*
D03*
X143250Y167000D02*
D03*
X143400Y110250D02*
D03*
X168750Y167000D02*
D03*
X139500Y584000D02*
D03*
X18500Y749500D02*
D03*
Y801000D02*
D03*
X58000Y837000D02*
D03*
X41000Y840500D02*
D03*
Y834000D02*
D03*
X191500Y669000D02*
D03*
X201500D02*
D03*
X359500Y275500D02*
D03*
X360000Y283300D02*
D03*
X429500Y273250D02*
D03*
X479500Y368500D02*
D03*
X442500Y310000D02*
D03*
X369500Y186000D02*
D03*
X406000D02*
D03*
X414750D02*
D03*
X337000Y391000D02*
D03*
X297000D02*
D03*
X284000Y539500D02*
D03*
X378000Y186000D02*
D03*
X262500Y540500D02*
D03*
X281500Y484500D02*
D03*
X281000Y498000D02*
D03*
X149500Y700000D02*
D03*
X211000Y811500D02*
D03*
X217500Y816500D02*
D03*
X211000D02*
D03*
X217500Y811500D02*
D03*
X292500Y608000D02*
D03*
X286499Y612999D02*
D03*
X193000Y712500D02*
D03*
X269500Y547000D02*
D03*
X274000Y508000D02*
D03*
X99250Y413500D02*
D03*
Y418750D02*
D03*
X320500Y544000D02*
D03*
X316100Y484500D02*
D03*
X274500Y663000D02*
D03*
X195750Y752000D02*
D03*
X204000Y746150D02*
D03*
X274499Y655499D02*
D03*
X56500Y634000D02*
D03*
X75000Y595500D02*
D03*
X19000Y621500D02*
D03*
X37000Y608500D02*
D03*
X165350Y571499D02*
D03*
X170000Y565499D02*
D03*
X165350Y559500D02*
D03*
X171000Y553999D02*
D03*
X207000Y642500D02*
D03*
X168000Y579000D02*
D03*
X139000Y593000D02*
D03*
X164000Y589000D02*
D03*
X163500Y596500D02*
D03*
X164000Y626499D02*
D03*
X170000Y631999D02*
D03*
X175500Y626499D02*
D03*
X181000Y631999D02*
D03*
X186500Y626500D02*
D03*
X136000Y544000D02*
D03*
X153000Y477499D02*
D03*
X159500Y481999D02*
D03*
X166000Y477499D02*
D03*
X146500Y481999D02*
D03*
X140200Y477500D02*
D03*
X152500Y354999D02*
D03*
X141500D02*
D03*
X147000Y360500D02*
D03*
X158499Y359999D02*
D03*
X164500Y355000D02*
D03*
X168800Y110250D02*
D03*
X194200Y167000D02*
D03*
X495500Y547000D02*
D03*
X195750Y775500D02*
D03*
X433450Y334000D02*
D03*
X408000Y335000D02*
D03*
X361000Y777000D02*
D03*
X366450D02*
D03*
X361000Y772000D02*
D03*
X366400D02*
D03*
X361000Y767000D02*
D03*
X366450D02*
D03*
X361000Y762000D02*
D03*
X366450D02*
D03*
X261950Y795000D02*
D03*
X263500Y781000D02*
D03*
X253500Y761100D02*
D03*
Y744000D02*
D03*
Y724500D02*
D03*
X130500Y767500D02*
D03*
X130450Y772500D02*
D03*
X330500Y345500D02*
D03*
X50500Y713500D02*
D03*
Y707000D02*
D03*
X342500Y578000D02*
D03*
X289500Y810000D02*
D03*
X295500D02*
D03*
X301500D02*
D03*
Y816000D02*
D03*
X295500D02*
D03*
X289500D02*
D03*
X276000Y802000D02*
D03*
X249500D02*
D03*
X216500Y127000D02*
D03*
X236500Y119500D02*
D03*
X242500Y92000D02*
D03*
D75*
X462000Y535500D02*
D03*
Y569500D02*
D03*
X246500Y777500D02*
D03*
X281000D02*
D03*
X182500Y798000D02*
D03*
X89500Y452750D02*
D03*
X212500Y451250D02*
D03*
X346500Y674000D02*
D03*
X381500Y771000D02*
D03*
X176000Y710000D02*
D03*
D77*
X535150Y612500D02*
D03*
Y593500D02*
D03*
X510050Y603000D02*
D03*
M02*
