G04 Layer_Color=127485*
%FSLAX44Y44*%
%MOMM*%
G71*
G01*
G75*
%ADD58C,0.2000*%
%ADD61C,0.1000*%
%ADD78C,0.4000*%
%ADD79C,0.1700*%
G36*
X499430Y122769D02*
X501490D01*
Y122426D01*
X502177D01*
Y122083D01*
X502521D01*
Y121739D01*
X502864D01*
Y121396D01*
X503208D01*
Y121052D01*
Y120709D01*
Y120365D01*
Y120022D01*
Y119678D01*
Y119335D01*
Y118991D01*
Y118648D01*
Y118304D01*
X502864D01*
Y117961D01*
X502521D01*
Y117617D01*
Y117274D01*
X501834D01*
Y116930D01*
X501490D01*
Y116587D01*
X501147D01*
Y116243D01*
X500460D01*
Y115900D01*
X499773D01*
Y115556D01*
X499086D01*
Y115213D01*
Y114869D01*
X499773D01*
Y114526D01*
X500117D01*
Y114183D01*
X500460D01*
Y113839D01*
X501147D01*
Y113496D01*
X501490D01*
Y113152D01*
X501834D01*
Y112809D01*
X502177D01*
Y112465D01*
X502864D01*
Y112122D01*
X503208D01*
Y111778D01*
X503895D01*
Y111435D01*
X504238D01*
Y111091D01*
X504582D01*
Y110748D01*
Y110404D01*
Y110061D01*
X504238D01*
Y109717D01*
X503551D01*
Y110061D01*
X502864D01*
Y110404D01*
X502177D01*
Y110748D01*
X501834D01*
Y111091D01*
X501147D01*
Y111435D01*
Y111778D01*
X500460D01*
Y112122D01*
X500117D01*
Y112465D01*
X499773D01*
Y112809D01*
X499430D01*
Y113152D01*
X498743D01*
Y113496D01*
X498399D01*
Y113839D01*
X498056D01*
Y114183D01*
X497712D01*
Y114526D01*
X497025D01*
Y114869D01*
X496338D01*
Y115213D01*
X495995D01*
Y115556D01*
Y115900D01*
X496338D01*
Y116243D01*
X498399D01*
Y116587D01*
X499086D01*
Y116930D01*
X499773D01*
Y117274D01*
X500117D01*
Y117617D01*
X500803D01*
Y117961D01*
X501147D01*
Y118304D01*
X501490D01*
Y118648D01*
Y118991D01*
X501834D01*
Y119335D01*
Y119678D01*
Y120022D01*
Y120365D01*
Y120709D01*
X501490D01*
Y121052D01*
X500803D01*
Y121396D01*
X500117D01*
Y121739D01*
X497025D01*
Y121396D01*
X495995D01*
Y121052D01*
Y120709D01*
X495651D01*
Y120365D01*
Y120022D01*
Y119678D01*
Y119335D01*
Y118991D01*
Y118648D01*
X495308D01*
Y118304D01*
Y117961D01*
Y117617D01*
Y117274D01*
Y116930D01*
X494964D01*
Y116587D01*
Y116243D01*
Y115900D01*
Y115556D01*
Y115213D01*
Y114869D01*
Y114526D01*
X494621D01*
Y114183D01*
Y113839D01*
Y113496D01*
Y113152D01*
Y112809D01*
Y112465D01*
Y112122D01*
Y111778D01*
Y111435D01*
Y111091D01*
Y110748D01*
X494964D01*
Y110404D01*
Y110061D01*
X494621D01*
Y109717D01*
X493247D01*
Y110061D01*
X492904D01*
Y110404D01*
Y110748D01*
Y111091D01*
Y111435D01*
Y111778D01*
Y112122D01*
Y112465D01*
Y112809D01*
Y113152D01*
Y113496D01*
X493247D01*
Y113839D01*
Y114183D01*
Y114526D01*
Y114869D01*
Y115213D01*
Y115556D01*
Y115900D01*
X493591D01*
Y116243D01*
Y116587D01*
X493247D01*
Y116930D01*
X493591D01*
Y117274D01*
Y117617D01*
Y117961D01*
Y118304D01*
Y118648D01*
X493934D01*
Y118991D01*
Y119335D01*
Y119678D01*
Y120022D01*
X494277D01*
Y120365D01*
Y120709D01*
Y121052D01*
Y121396D01*
X493934D01*
Y121739D01*
Y122083D01*
Y122426D01*
X494621D01*
Y122769D01*
X495308D01*
Y122426D01*
X495651D01*
Y122769D01*
X499086D01*
Y123113D01*
X499430D01*
Y122769D01*
D02*
G37*
G36*
X419400Y117617D02*
X419743D01*
Y117274D01*
Y116930D01*
Y116587D01*
Y116243D01*
X419400D01*
Y115900D01*
X418713D01*
Y115556D01*
X418369D01*
Y115213D01*
X418026D01*
Y114869D01*
X417682D01*
Y114526D01*
X417339D01*
Y114183D01*
X416996D01*
Y113839D01*
Y113496D01*
X416652D01*
Y113152D01*
X416309D01*
Y112809D01*
X415965D01*
Y112465D01*
X415622D01*
Y112122D01*
X415278D01*
Y111778D01*
X414935D01*
Y111435D01*
X414591D01*
Y111091D01*
Y110748D01*
X414248D01*
Y110404D01*
X413904D01*
Y110061D01*
X413561D01*
Y109717D01*
X413217D01*
Y109374D01*
X412874D01*
Y109030D01*
X412530D01*
Y108687D01*
X412187D01*
Y108343D01*
X411843D01*
Y108000D01*
X411500D01*
Y107656D01*
X411157D01*
Y107313D01*
X410813D01*
Y106970D01*
X410470D01*
Y106626D01*
X410126D01*
Y106283D01*
X409783D01*
Y105939D01*
X409439D01*
Y105596D01*
X409096D01*
Y105252D01*
X408752D01*
Y104909D01*
X408409D01*
Y104565D01*
X408065D01*
Y104222D01*
X407722D01*
Y103878D01*
X407378D01*
Y103535D01*
X407035D01*
Y103191D01*
X406691D01*
Y102848D01*
X406348D01*
Y102504D01*
X406004D01*
Y102161D01*
X405661D01*
Y101817D01*
Y101474D01*
X406004D01*
Y101817D01*
X409783D01*
Y102161D01*
X413904D01*
Y102504D01*
X415278D01*
Y102161D01*
X417682D01*
Y101817D01*
X418369D01*
Y101474D01*
Y101131D01*
X418713D01*
Y100787D01*
Y100444D01*
Y100100D01*
X418369D01*
Y99757D01*
X418026D01*
Y99413D01*
X416309D01*
Y99757D01*
X407035D01*
Y99413D01*
X403943D01*
Y99070D01*
X402570D01*
Y98726D01*
X400509D01*
Y99070D01*
X400165D01*
Y99413D01*
Y99757D01*
Y100100D01*
Y100444D01*
X400509D01*
Y100787D01*
Y101131D01*
X401196D01*
Y101474D01*
X401539D01*
Y101817D01*
X401883D01*
Y102161D01*
X402226D01*
Y102504D01*
X402913D01*
Y102848D01*
X403257D01*
Y103191D01*
X403600D01*
Y103535D01*
X403943D01*
Y103878D01*
X404287D01*
Y104222D01*
X404631D01*
Y104565D01*
X404974D01*
Y104909D01*
X405661D01*
Y105252D01*
X406004D01*
Y105596D01*
X406348D01*
Y105939D01*
X406691D01*
Y106283D01*
X407035D01*
Y106626D01*
X407378D01*
Y106970D01*
X407722D01*
Y107313D01*
Y107656D01*
X408409D01*
Y108000D01*
X408752D01*
Y108343D01*
Y108687D01*
X409439D01*
Y109030D01*
X409783D01*
Y109374D01*
Y109717D01*
X410470D01*
Y110061D01*
Y110404D01*
X410813D01*
Y110748D01*
X411500D01*
Y111091D01*
Y111435D01*
X411843D01*
Y111778D01*
X412187D01*
Y112122D01*
X412530D01*
Y112465D01*
X412874D01*
Y112809D01*
X413217D01*
Y113152D01*
X413904D01*
Y113496D01*
Y113839D01*
X414248D01*
Y114183D01*
X414591D01*
Y114526D01*
X414935D01*
Y114869D01*
X415278D01*
Y115213D01*
Y115556D01*
X413904D01*
Y115213D01*
X411157D01*
Y114869D01*
X406004D01*
Y114526D01*
X405317D01*
Y114869D01*
X403600D01*
Y115213D01*
X402913D01*
Y115556D01*
X402570D01*
Y115900D01*
Y116243D01*
Y116587D01*
X402913D01*
Y116930D01*
X403257D01*
Y117274D01*
X404974D01*
Y116930D01*
X409096D01*
Y117274D01*
X414591D01*
Y117617D01*
X416652D01*
Y117961D01*
X419400D01*
Y117617D01*
D02*
G37*
G36*
X433139Y149904D02*
X440352D01*
Y149560D01*
X443443D01*
Y149217D01*
X446191D01*
Y148874D01*
X448252D01*
Y148530D01*
X449969D01*
Y148187D01*
X450656D01*
Y147843D01*
X452030D01*
Y147500D01*
X452717D01*
Y147156D01*
X453747D01*
Y146813D01*
X454434D01*
Y146469D01*
X455121D01*
Y146126D01*
X455808D01*
Y145782D01*
X456839D01*
Y145439D01*
X457526D01*
Y145095D01*
X458213D01*
Y144752D01*
X458899D01*
Y144408D01*
X459586D01*
Y144065D01*
X459930D01*
Y143721D01*
X460617D01*
Y143378D01*
X461304D01*
Y143034D01*
X461991D01*
Y142691D01*
X462678D01*
Y142347D01*
X463021D01*
Y142004D01*
X463708D01*
Y141660D01*
X464395D01*
Y141317D01*
X465082D01*
Y140974D01*
X465769D01*
Y140630D01*
X466113D01*
Y140287D01*
X466799D01*
Y139943D01*
X467143D01*
Y139600D01*
X467830D01*
Y139256D01*
X468517D01*
Y138913D01*
X468860D01*
Y138569D01*
X469547D01*
Y138226D01*
X469891D01*
Y137882D01*
X470578D01*
Y137539D01*
X471265D01*
Y137195D01*
X471608D01*
Y136852D01*
X472295D01*
Y136508D01*
X472639D01*
Y136165D01*
X473326D01*
Y135822D01*
X473669D01*
Y135478D01*
X474356D01*
Y135134D01*
X475043D01*
Y134791D01*
X475386D01*
Y134448D01*
X476073D01*
Y134104D01*
X476417D01*
Y133761D01*
X485004D01*
Y133417D01*
X491530D01*
Y133074D01*
X496682D01*
Y132730D01*
X500117D01*
Y132387D01*
X501147D01*
Y132043D01*
X501834D01*
Y131700D01*
X502177D01*
Y131356D01*
X502521D01*
Y131013D01*
X502864D01*
Y130669D01*
X503208D01*
Y130326D01*
X503551D01*
Y129982D01*
Y129639D01*
X503895D01*
Y129295D01*
X504238D01*
Y128952D01*
X504582D01*
Y128609D01*
Y128265D01*
X504925D01*
Y127921D01*
Y127578D01*
X505269D01*
Y127235D01*
Y126891D01*
X503551D01*
Y127235D01*
Y127578D01*
X503208D01*
Y127921D01*
X502864D01*
Y128265D01*
Y128609D01*
X502521D01*
Y128952D01*
X502177D01*
Y129295D01*
Y129639D01*
X501834D01*
Y129982D01*
X501490D01*
Y130326D01*
X501147D01*
Y130669D01*
X500460D01*
Y131013D01*
X499430D01*
Y131356D01*
X497369D01*
Y131700D01*
X491186D01*
Y132043D01*
X484660D01*
Y132387D01*
X479165D01*
Y132043D01*
Y131700D01*
X480195D01*
Y131356D01*
X480538D01*
Y131013D01*
X481225D01*
Y130669D01*
X479851D01*
Y131013D01*
X479165D01*
Y131356D01*
X478134D01*
Y131700D01*
X477447D01*
Y132043D01*
X476417D01*
Y132387D01*
X475730D01*
Y132730D01*
X475043D01*
Y133074D01*
X474699D01*
Y133417D01*
X474012D01*
Y133761D01*
X473669D01*
Y134104D01*
X472982D01*
Y134448D01*
X472639D01*
Y134791D01*
X471952D01*
Y135134D01*
X471608D01*
Y135478D01*
X470921D01*
Y135822D01*
X470578D01*
Y136165D01*
X469891D01*
Y136508D01*
X469204D01*
Y136852D01*
X468860D01*
Y137195D01*
X468173D01*
Y137539D01*
X467830D01*
Y137882D01*
X467143D01*
Y138226D01*
X466456D01*
Y138569D01*
X466113D01*
Y138913D01*
X465425D01*
Y139256D01*
X465082D01*
Y139600D01*
X464395D01*
Y139943D01*
X463708D01*
Y140287D01*
X463021D01*
Y140630D01*
X462334D01*
Y140974D01*
X461991D01*
Y141317D01*
X461304D01*
Y141660D01*
X460617D01*
Y142004D01*
X459930D01*
Y142347D01*
X459243D01*
Y142691D01*
X458899D01*
Y143034D01*
X458213D01*
Y143378D01*
X457526D01*
Y143721D01*
X456839D01*
Y144065D01*
X456152D01*
Y144408D01*
X455465D01*
Y144752D01*
X454434D01*
Y145095D01*
X453747D01*
Y145439D01*
X453060D01*
Y145782D01*
X452030D01*
Y146126D01*
X451343D01*
Y146469D01*
X450313D01*
Y146813D01*
X449282D01*
Y147156D01*
X447908D01*
Y147500D01*
X446191D01*
Y147843D01*
X443100D01*
Y148187D01*
X439665D01*
Y148530D01*
X435200D01*
Y148874D01*
X413904D01*
Y148530D01*
X410126D01*
Y148187D01*
X407722D01*
Y147843D01*
X405317D01*
Y147500D01*
X403600D01*
Y147156D01*
X402226D01*
Y146813D01*
X400852D01*
Y146469D01*
X399822D01*
Y146126D01*
X398791D01*
Y145782D01*
X398105D01*
Y145439D01*
X397417D01*
Y145095D01*
X396387D01*
Y144752D01*
X395357D01*
Y144408D01*
X394670D01*
Y144065D01*
X393983D01*
Y143721D01*
X393296D01*
Y143378D01*
X392265D01*
Y143034D01*
X391578D01*
Y142691D01*
X390891D01*
Y142347D01*
X390205D01*
Y142004D01*
X389518D01*
Y141660D01*
X388831D01*
Y141317D01*
X388144D01*
Y140974D01*
X387457D01*
Y140630D01*
X386770D01*
Y140287D01*
X386083D01*
Y139943D01*
X385396D01*
Y139600D01*
X384709D01*
Y139256D01*
X384022D01*
Y138913D01*
X383335D01*
Y138569D01*
X382992D01*
Y138226D01*
X382305D01*
Y137882D01*
X381618D01*
Y137539D01*
X380931D01*
Y137195D01*
X380244D01*
Y136852D01*
X379557D01*
Y136508D01*
X378870D01*
Y136165D01*
X378526D01*
Y135822D01*
X377840D01*
Y135478D01*
X377152D01*
Y135134D01*
X376465D01*
Y134791D01*
X375779D01*
Y134448D01*
X375092D01*
Y134104D01*
X374748D01*
Y133761D01*
X374061D01*
Y133417D01*
X373374D01*
Y133074D01*
X372687D01*
Y132730D01*
X372344D01*
Y132387D01*
X371657D01*
Y132043D01*
X370970D01*
Y131700D01*
X370626D01*
Y131356D01*
X369939D01*
Y131013D01*
X369253D01*
Y130669D01*
X368566D01*
Y130326D01*
X368222D01*
Y129982D01*
X367535D01*
Y129639D01*
Y129295D01*
X367879D01*
Y128952D01*
X368222D01*
Y128609D01*
Y128265D01*
X368566D01*
Y127921D01*
Y127578D01*
X368909D01*
Y127235D01*
Y126891D01*
X369253D01*
Y126548D01*
Y126204D01*
X369596D01*
Y125861D01*
X368909D01*
Y126204D01*
X368566D01*
Y126548D01*
X368222D01*
Y126891D01*
X367879D01*
Y127235D01*
Y127578D01*
X367535D01*
Y127921D01*
X367192D01*
Y128265D01*
X366848D01*
Y128609D01*
X366505D01*
Y128952D01*
X366161D01*
Y129295D01*
X365818D01*
Y129639D01*
X363414D01*
Y129982D01*
X356200D01*
Y129639D01*
X348301D01*
Y129295D01*
X344522D01*
Y128952D01*
X340744D01*
Y128609D01*
X338340D01*
Y128265D01*
X336279D01*
Y127921D01*
X333875D01*
Y127578D01*
X332157D01*
Y127235D01*
X330783D01*
Y126891D01*
X329409D01*
Y126548D01*
X328379D01*
Y126204D01*
X327692D01*
Y125861D01*
X326662D01*
Y125517D01*
X326318D01*
Y125174D01*
X325631D01*
Y124830D01*
Y124487D01*
Y124143D01*
Y123800D01*
X324944D01*
Y123456D01*
X323914D01*
Y123113D01*
X322883D01*
Y122769D01*
X322197D01*
Y122426D01*
X320823D01*
Y122083D01*
X319792D01*
Y121739D01*
X318762D01*
Y121396D01*
X317388D01*
Y121052D01*
X316701D01*
Y120709D01*
X315327D01*
Y120365D01*
X314640D01*
Y120022D01*
X313610D01*
Y119678D01*
X312579D01*
Y119335D01*
X311892D01*
Y118991D01*
X311205D01*
Y118648D01*
X310862D01*
Y118304D01*
X310175D01*
Y117961D01*
X309831D01*
Y117617D01*
X309144D01*
Y117274D01*
X308801D01*
Y116930D01*
X308458D01*
Y116587D01*
Y116243D01*
X308114D01*
Y115900D01*
X307771D01*
Y115556D01*
X307427D01*
Y115213D01*
Y114869D01*
X307084D01*
Y114526D01*
Y114183D01*
Y113839D01*
Y113496D01*
Y113152D01*
X306740D01*
Y112809D01*
Y112465D01*
Y112122D01*
Y111778D01*
X307084D01*
Y111435D01*
X304336D01*
Y111091D01*
X303649D01*
Y110748D01*
X303305D01*
Y110404D01*
X302618D01*
Y110061D01*
Y109717D01*
X302275D01*
Y109374D01*
Y109030D01*
X301931D01*
Y108687D01*
Y108343D01*
X302275D01*
Y108000D01*
X301931D01*
Y107656D01*
Y107313D01*
Y106970D01*
X302275D01*
Y106626D01*
X301931D01*
Y106283D01*
Y105939D01*
Y105596D01*
X302275D01*
Y105252D01*
Y104909D01*
Y104565D01*
X302618D01*
Y104222D01*
Y103878D01*
Y103535D01*
X302962D01*
Y103191D01*
Y102848D01*
Y102504D01*
Y102161D01*
X303305D01*
Y101817D01*
Y101474D01*
Y101131D01*
X303649D01*
Y100787D01*
Y100444D01*
Y100100D01*
Y99757D01*
X303992D01*
Y99413D01*
Y99070D01*
Y98726D01*
Y98383D01*
Y98039D01*
X304336D01*
Y97696D01*
Y97352D01*
X304679D01*
Y97009D01*
X302962D01*
Y97352D01*
Y97696D01*
Y98039D01*
Y98383D01*
X302618D01*
Y98726D01*
Y99070D01*
Y99413D01*
X302275D01*
Y99757D01*
Y100100D01*
Y100444D01*
X301931D01*
Y100787D01*
Y101131D01*
Y101474D01*
Y101817D01*
Y102161D01*
X301588D01*
Y102504D01*
Y102848D01*
Y103191D01*
X301245D01*
Y103535D01*
Y103878D01*
Y104222D01*
X300901D01*
Y104565D01*
Y104909D01*
Y105252D01*
Y105596D01*
Y105939D01*
Y106283D01*
Y106626D01*
X300558D01*
Y106970D01*
Y107313D01*
Y107656D01*
Y108000D01*
X300901D01*
Y108343D01*
Y108687D01*
Y109030D01*
Y109374D01*
Y109717D01*
Y110061D01*
Y110404D01*
X301245D01*
Y110748D01*
Y111091D01*
X301588D01*
Y111435D01*
X301931D01*
Y111778D01*
X302275D01*
Y112122D01*
X302618D01*
Y112465D01*
X303649D01*
Y112809D01*
X305710D01*
Y113152D01*
Y113496D01*
Y113839D01*
Y114183D01*
Y114526D01*
Y114869D01*
X306053D01*
Y115213D01*
Y115556D01*
Y115900D01*
X306397D01*
Y116243D01*
Y116587D01*
X306740D01*
Y116930D01*
Y117274D01*
X307084D01*
Y117617D01*
X307427D01*
Y117961D01*
X307771D01*
Y118304D01*
X308114D01*
Y118648D01*
X308458D01*
Y118991D01*
X309144D01*
Y119335D01*
X309488D01*
Y119678D01*
X310175D01*
Y120022D01*
X310518D01*
Y120365D01*
X311205D01*
Y120709D01*
X312236D01*
Y121052D01*
X312923D01*
Y121396D01*
X313953D01*
Y121739D01*
X314640D01*
Y122083D01*
X316014D01*
Y122426D01*
X317044D01*
Y122769D01*
X318075D01*
Y123113D01*
X319449D01*
Y123456D01*
X320479D01*
Y123800D01*
X321510D01*
Y124143D01*
X322540D01*
Y124487D01*
X323570D01*
Y124830D01*
X324257D01*
Y125174D01*
Y125517D01*
Y125861D01*
X324601D01*
Y126204D01*
X324944D01*
Y126548D01*
X325631D01*
Y126891D01*
X325975D01*
Y127235D01*
X327005D01*
Y127578D01*
X327692D01*
Y127921D01*
X329066D01*
Y128265D01*
X330440D01*
Y128609D01*
X331814D01*
Y128952D01*
X333875D01*
Y129295D01*
X335936D01*
Y129639D01*
X337996D01*
Y129982D01*
X341088D01*
Y130326D01*
X344179D01*
Y130669D01*
X347957D01*
Y131013D01*
X355857D01*
Y131356D01*
X363757D01*
Y131013D01*
X366848D01*
Y131356D01*
X367535D01*
Y131700D01*
X367879D01*
Y132043D01*
X368566D01*
Y132387D01*
X369253D01*
Y132730D01*
X369596D01*
Y133074D01*
X370283D01*
Y133417D01*
X370970D01*
Y133761D01*
X371657D01*
Y134104D01*
X372000D01*
Y134448D01*
X372687D01*
Y134791D01*
X373374D01*
Y135134D01*
X374061D01*
Y135478D01*
X374405D01*
Y135822D01*
X375092D01*
Y136165D01*
X375779D01*
Y136508D01*
X376465D01*
Y136852D01*
X377152D01*
Y137195D01*
X377840D01*
Y137539D01*
X378183D01*
Y137882D01*
X378870D01*
Y138226D01*
X379557D01*
Y138569D01*
X380244D01*
Y138913D01*
X380931D01*
Y139256D01*
X381618D01*
Y139600D01*
X381961D01*
Y139943D01*
X382648D01*
Y140287D01*
X383335D01*
Y140630D01*
X384022D01*
Y140974D01*
X384709D01*
Y141317D01*
X385396D01*
Y141660D01*
X386083D01*
Y142004D01*
X386770D01*
Y142347D01*
X387457D01*
Y142691D01*
X388144D01*
Y143034D01*
X388831D01*
Y143378D01*
X389518D01*
Y143721D01*
X390205D01*
Y144065D01*
X390891D01*
Y144408D01*
X391578D01*
Y144752D01*
X392265D01*
Y145095D01*
X393296D01*
Y145439D01*
X393983D01*
Y145782D01*
X395013D01*
Y146126D01*
X396044D01*
Y146469D01*
X396731D01*
Y146813D01*
X397417D01*
Y147156D01*
X398448D01*
Y147500D01*
X399135D01*
Y147843D01*
X400509D01*
Y148187D01*
X401539D01*
Y148530D01*
X402913D01*
Y148874D01*
X405317D01*
Y149217D01*
X407035D01*
Y149560D01*
X409783D01*
Y149904D01*
X415278D01*
Y150247D01*
X433139D01*
Y149904D01*
D02*
G37*
G36*
X348524Y183347D02*
Y182578D01*
Y181808D01*
Y181039D01*
Y180269D01*
Y179500D01*
Y178731D01*
Y177961D01*
Y177192D01*
Y176422D01*
Y175653D01*
Y174883D01*
Y174114D01*
Y173345D01*
Y172575D01*
Y171806D01*
Y171036D01*
Y170267D01*
Y169498D01*
Y168728D01*
Y167959D01*
Y167189D01*
X347755D01*
Y166420D01*
Y165650D01*
X346985D01*
Y164881D01*
X345446D01*
Y164112D01*
X343908D01*
Y164881D01*
Y165650D01*
X345446D01*
Y166420D01*
X346216D01*
Y167189D01*
Y167959D01*
X346985D01*
Y168728D01*
Y169498D01*
Y170267D01*
Y171036D01*
Y171806D01*
Y172575D01*
Y173345D01*
Y174114D01*
Y174883D01*
Y175653D01*
Y176422D01*
Y177192D01*
Y177961D01*
Y178731D01*
Y179500D01*
Y180269D01*
Y181039D01*
Y181808D01*
Y182578D01*
Y183347D01*
X346216D01*
Y184116D01*
X348524D01*
Y183347D01*
D02*
G37*
G36*
X336983D02*
Y182578D01*
Y181808D01*
Y181039D01*
Y180269D01*
Y179500D01*
Y178731D01*
Y177961D01*
Y177192D01*
Y176422D01*
Y175653D01*
Y174883D01*
Y174114D01*
Y173345D01*
Y172575D01*
Y171806D01*
Y171036D01*
Y170267D01*
Y169498D01*
Y168728D01*
Y167959D01*
Y167189D01*
Y166420D01*
Y165650D01*
Y164881D01*
Y164112D01*
Y163342D01*
Y162573D01*
Y161803D01*
Y161034D01*
Y160264D01*
Y159495D01*
Y158726D01*
Y157956D01*
Y157187D01*
Y156417D01*
Y155648D01*
Y154879D01*
Y154109D01*
Y153340D01*
Y152570D01*
X334674D01*
Y153340D01*
Y154109D01*
Y154879D01*
Y155648D01*
Y156417D01*
Y157187D01*
Y157956D01*
Y158726D01*
Y159495D01*
Y160264D01*
Y161034D01*
Y161803D01*
Y162573D01*
Y163342D01*
Y164112D01*
Y164881D01*
Y165650D01*
Y166420D01*
Y167189D01*
Y167959D01*
Y168728D01*
Y169498D01*
Y170267D01*
Y171036D01*
Y171806D01*
Y172575D01*
Y173345D01*
Y174114D01*
Y174883D01*
Y175653D01*
Y176422D01*
Y177192D01*
Y177961D01*
Y178731D01*
Y179500D01*
Y180269D01*
Y181039D01*
Y181808D01*
Y182578D01*
Y183347D01*
Y184116D01*
X336983D01*
Y183347D01*
D02*
G37*
G36*
X344866Y123800D02*
X346240D01*
Y123456D01*
X347270D01*
Y123113D01*
X347957D01*
Y122769D01*
X348644D01*
Y122426D01*
X349331D01*
Y122083D01*
X350018D01*
Y121739D01*
X350362D01*
Y121396D01*
X350705D01*
Y121052D01*
X351392D01*
Y120709D01*
X351735D01*
Y120365D01*
X352079D01*
Y120022D01*
X352422D01*
Y119678D01*
Y119335D01*
X352766D01*
Y118991D01*
X353109D01*
Y118648D01*
X353453D01*
Y118304D01*
X353796D01*
Y117961D01*
Y117617D01*
Y117274D01*
X354140D01*
Y116930D01*
Y116587D01*
X354483D01*
Y116243D01*
Y115900D01*
Y115556D01*
Y115213D01*
Y114869D01*
Y114526D01*
Y114183D01*
Y113839D01*
Y113496D01*
X354140D01*
Y113152D01*
Y112809D01*
X353796D01*
Y112465D01*
X353109D01*
Y112122D01*
X351048D01*
Y112465D01*
X350362D01*
Y112809D01*
X350018D01*
Y113152D01*
Y113496D01*
X349674D01*
Y113839D01*
X349331D01*
Y114183D01*
Y114526D01*
Y114869D01*
X348988D01*
Y115213D01*
X348644D01*
Y115556D01*
X348301D01*
Y115900D01*
Y116243D01*
X347957D01*
Y116587D01*
X347614D01*
Y116930D01*
Y117274D01*
X347270D01*
Y117617D01*
X346927D01*
Y117961D01*
X346240D01*
Y118304D01*
X345896D01*
Y118648D01*
X345209D01*
Y118991D01*
X344522D01*
Y119335D01*
X343148D01*
Y119678D01*
X339714D01*
Y119335D01*
X338683D01*
Y118991D01*
X337653D01*
Y118648D01*
X337309D01*
Y118304D01*
X336623D01*
Y117961D01*
X336279D01*
Y117617D01*
X335936D01*
Y117274D01*
X335592D01*
Y116930D01*
X335249D01*
Y116587D01*
X334905D01*
Y116243D01*
X334562D01*
Y115900D01*
X334218D01*
Y115556D01*
Y115213D01*
X333875D01*
Y114869D01*
Y114526D01*
X333531D01*
Y114183D01*
Y113839D01*
X333188D01*
Y113496D01*
Y113152D01*
Y112809D01*
X332844D01*
Y112465D01*
Y112122D01*
Y111778D01*
Y111435D01*
X332501D01*
Y111091D01*
Y110748D01*
Y110404D01*
Y110061D01*
Y109717D01*
Y109374D01*
Y109030D01*
Y108687D01*
Y108343D01*
Y108000D01*
Y107656D01*
Y107313D01*
Y106970D01*
Y106626D01*
Y106283D01*
Y105939D01*
Y105596D01*
Y105252D01*
Y104909D01*
Y104565D01*
Y104222D01*
Y103878D01*
Y103535D01*
X332844D01*
Y103191D01*
Y102848D01*
Y102504D01*
Y102161D01*
X333188D01*
Y101817D01*
Y101474D01*
Y101131D01*
X333531D01*
Y100787D01*
Y100444D01*
Y100100D01*
X333875D01*
Y99757D01*
X334218D01*
Y99413D01*
Y99070D01*
X334562D01*
Y98726D01*
X334905D01*
Y98383D01*
X335249D01*
Y98039D01*
X335592D01*
Y97696D01*
X335936D01*
Y97352D01*
X336279D01*
Y97009D01*
X336966D01*
Y96665D01*
X337653D01*
Y96322D01*
X338683D01*
Y95978D01*
X344179D01*
Y96322D01*
X345209D01*
Y96665D01*
X345553D01*
Y97009D01*
X346240D01*
Y97352D01*
X346583D01*
Y97696D01*
X346927D01*
Y98039D01*
X347270D01*
Y98383D01*
X347957D01*
Y98726D01*
Y99070D01*
X348301D01*
Y99413D01*
Y99757D01*
X348644D01*
Y100100D01*
X348988D01*
Y100444D01*
Y100787D01*
Y101131D01*
X349331D01*
Y101474D01*
Y101817D01*
X349674D01*
Y102161D01*
Y102504D01*
X350018D01*
Y102848D01*
Y103191D01*
X350362D01*
Y103535D01*
X350705D01*
Y103878D01*
X351048D01*
Y104222D01*
X353109D01*
Y103878D01*
X353796D01*
Y103535D01*
X354140D01*
Y103191D01*
X354483D01*
Y102848D01*
Y102504D01*
Y102161D01*
X354827D01*
Y101817D01*
Y101474D01*
Y101131D01*
X354483D01*
Y100787D01*
Y100444D01*
Y100100D01*
Y99757D01*
Y99413D01*
X354140D01*
Y99070D01*
Y98726D01*
X353796D01*
Y98383D01*
Y98039D01*
Y97696D01*
X353453D01*
Y97352D01*
Y97009D01*
X353109D01*
Y96665D01*
X352766D01*
Y96322D01*
Y95978D01*
X352422D01*
Y95635D01*
X352079D01*
Y95291D01*
X351735D01*
Y94948D01*
X351392D01*
Y94605D01*
X351048D01*
Y94261D01*
X350705D01*
Y93918D01*
X350362D01*
Y93574D01*
X349674D01*
Y93231D01*
X349331D01*
Y92887D01*
X348644D01*
Y92544D01*
X347957D01*
Y92200D01*
X347270D01*
Y91857D01*
X346240D01*
Y91513D01*
X344866D01*
Y91170D01*
X337996D01*
Y91513D01*
X336623D01*
Y91857D01*
X335592D01*
Y92200D01*
X334562D01*
Y92544D01*
X333875D01*
Y92887D01*
X333188D01*
Y93231D01*
X332844D01*
Y93574D01*
X332157D01*
Y93918D01*
X331814D01*
Y94261D01*
X331470D01*
Y94605D01*
X331127D01*
Y94948D01*
X330783D01*
Y95291D01*
X330440D01*
Y95635D01*
X330096D01*
Y95978D01*
X329753D01*
Y96322D01*
Y96665D01*
X329409D01*
Y97009D01*
X329066D01*
Y97352D01*
Y97696D01*
X328722D01*
Y98039D01*
Y98383D01*
X328379D01*
Y98726D01*
X328036D01*
Y99070D01*
Y99413D01*
Y99757D01*
X327692D01*
Y100100D01*
Y100444D01*
X327349D01*
Y100787D01*
Y101131D01*
X327005D01*
Y101474D01*
Y101817D01*
Y102161D01*
Y102504D01*
Y102848D01*
X326662D01*
Y103191D01*
Y103535D01*
Y103878D01*
Y104222D01*
X326318D01*
Y104565D01*
Y104909D01*
Y105252D01*
Y105596D01*
Y105939D01*
Y106283D01*
Y106626D01*
Y106970D01*
Y107313D01*
Y107656D01*
Y108000D01*
Y108343D01*
Y108687D01*
Y109030D01*
Y109374D01*
Y109717D01*
Y110061D01*
Y110404D01*
Y110748D01*
Y111091D01*
X326662D01*
Y111435D01*
Y111778D01*
Y112122D01*
Y112465D01*
Y112809D01*
X327005D01*
Y113152D01*
Y113496D01*
Y113839D01*
Y114183D01*
X327349D01*
Y114526D01*
Y114869D01*
X327692D01*
Y115213D01*
Y115556D01*
Y115900D01*
X328036D01*
Y116243D01*
Y116587D01*
X328379D01*
Y116930D01*
Y117274D01*
X328722D01*
Y117617D01*
X329066D01*
Y117961D01*
Y118304D01*
X329409D01*
Y118648D01*
X329753D01*
Y118991D01*
Y119335D01*
X330096D01*
Y119678D01*
X330440D01*
Y120022D01*
X330783D01*
Y120365D01*
X331127D01*
Y120709D01*
X331470D01*
Y121052D01*
X332157D01*
Y121396D01*
X332501D01*
Y121739D01*
X333188D01*
Y122083D01*
X333531D01*
Y122426D01*
X334218D01*
Y122769D01*
X334905D01*
Y123113D01*
X335592D01*
Y123456D01*
X336623D01*
Y123800D01*
X338340D01*
Y124143D01*
X344866D01*
Y123800D01*
D02*
G37*
G36*
X369253Y117961D02*
X372000D01*
Y117617D01*
X372687D01*
Y117274D01*
X373374D01*
Y116930D01*
X373718D01*
Y116587D01*
X374061D01*
Y116243D01*
X374405D01*
Y115900D01*
Y115556D01*
X374748D01*
Y115213D01*
X375092D01*
Y114869D01*
Y114526D01*
Y114183D01*
Y113839D01*
Y113496D01*
Y113152D01*
Y112809D01*
Y112465D01*
Y112122D01*
Y111778D01*
X374748D01*
Y111435D01*
Y111091D01*
X374405D01*
Y110748D01*
X374061D01*
Y110404D01*
Y110061D01*
X373718D01*
Y109717D01*
X373374D01*
Y109374D01*
X372687D01*
Y109030D01*
X372344D01*
Y108687D01*
X372000D01*
Y108343D01*
X371657D01*
Y108000D01*
X370970D01*
Y107656D01*
X370283D01*
Y107313D01*
X369596D01*
Y106970D01*
X369253D01*
Y106626D01*
Y106283D01*
X369596D01*
Y105939D01*
X369939D01*
Y105596D01*
X370626D01*
Y105252D01*
X370970D01*
Y104909D01*
X371313D01*
Y104565D01*
X371657D01*
Y104222D01*
X372344D01*
Y103878D01*
X372687D01*
Y103535D01*
X373031D01*
Y103191D01*
X373374D01*
Y102848D01*
X374061D01*
Y102504D01*
X374405D01*
Y102161D01*
X375092D01*
Y101817D01*
X375435D01*
Y101474D01*
X376122D01*
Y101131D01*
X376465D01*
Y100787D01*
X376809D01*
Y100444D01*
Y100100D01*
Y99757D01*
Y99413D01*
Y99070D01*
X376122D01*
Y98726D01*
X374748D01*
Y99070D01*
X374061D01*
Y99413D01*
X373718D01*
Y99757D01*
X373374D01*
Y100100D01*
X372687D01*
Y100444D01*
X372344D01*
Y100787D01*
X372000D01*
Y101131D01*
X371313D01*
Y101474D01*
X370970D01*
Y101817D01*
X370626D01*
Y102161D01*
X370283D01*
Y102504D01*
X369939D01*
Y102848D01*
X369253D01*
Y103191D01*
X368909D01*
Y103535D01*
X368566D01*
Y103878D01*
X368222D01*
Y104222D01*
X367879D01*
Y104565D01*
X367535D01*
Y104909D01*
X366848D01*
Y105252D01*
X366505D01*
Y105596D01*
X366161D01*
Y105939D01*
X365474D01*
Y106283D01*
X364444D01*
Y106626D01*
Y106970D01*
Y107313D01*
Y107656D01*
Y108000D01*
X364787D01*
Y108343D01*
X367535D01*
Y108687D01*
X368566D01*
Y109030D01*
X369253D01*
Y109374D01*
X369596D01*
Y109717D01*
X370283D01*
Y110061D01*
X370626D01*
Y110404D01*
X370970D01*
Y110748D01*
X371313D01*
Y111091D01*
X372000D01*
Y111435D01*
Y111778D01*
X372344D01*
Y112122D01*
Y112465D01*
X372687D01*
Y112809D01*
Y113152D01*
Y113496D01*
Y113839D01*
Y114183D01*
Y114526D01*
X372344D01*
Y114869D01*
X372000D01*
Y115213D01*
X371657D01*
Y115556D01*
X370970D01*
Y115900D01*
X365131D01*
Y115556D01*
X364444D01*
Y115213D01*
Y114869D01*
Y114526D01*
X364100D01*
Y114183D01*
Y113839D01*
Y113496D01*
Y113152D01*
Y112809D01*
X363757D01*
Y112465D01*
Y112122D01*
Y111778D01*
Y111435D01*
X363414D01*
Y111091D01*
Y110748D01*
Y110404D01*
Y110061D01*
Y109717D01*
Y109374D01*
Y109030D01*
Y108687D01*
Y108343D01*
X363070D01*
Y108000D01*
Y107656D01*
Y107313D01*
Y106970D01*
Y106626D01*
Y106283D01*
X362727D01*
Y105939D01*
Y105596D01*
Y105252D01*
Y104909D01*
Y104565D01*
Y104222D01*
Y103878D01*
Y103535D01*
Y103191D01*
Y102848D01*
Y102504D01*
Y102161D01*
Y101817D01*
Y101474D01*
Y101131D01*
Y100787D01*
Y100444D01*
Y100100D01*
Y99757D01*
Y99413D01*
Y99070D01*
X362383D01*
Y98726D01*
X362040D01*
Y98383D01*
X360322D01*
Y98726D01*
X359979D01*
Y99070D01*
Y99413D01*
Y99757D01*
X359635D01*
Y100100D01*
Y100444D01*
Y100787D01*
Y101131D01*
Y101474D01*
Y101817D01*
Y102161D01*
Y102504D01*
Y102848D01*
Y103191D01*
X359979D01*
Y103535D01*
Y103878D01*
Y104222D01*
Y104565D01*
Y104909D01*
Y105252D01*
Y105596D01*
Y105939D01*
Y106283D01*
X360322D01*
Y106626D01*
Y106970D01*
X359979D01*
Y107313D01*
X360322D01*
Y107656D01*
Y108000D01*
Y108343D01*
Y108687D01*
Y109030D01*
Y109374D01*
X360666D01*
Y109717D01*
Y110061D01*
Y110404D01*
Y110748D01*
Y111091D01*
X361009D01*
Y111435D01*
Y111778D01*
Y112122D01*
Y112465D01*
X361353D01*
Y112809D01*
X361009D01*
Y113152D01*
X361353D01*
Y113496D01*
Y113839D01*
Y114183D01*
Y114526D01*
Y114869D01*
Y115213D01*
Y115556D01*
X361009D01*
Y115900D01*
Y116243D01*
Y116587D01*
Y116930D01*
X361353D01*
Y117274D01*
X362040D01*
Y117617D01*
X365131D01*
Y117961D01*
X368909D01*
Y118304D01*
X369253D01*
Y117961D01*
D02*
G37*
G36*
X390205D02*
X390548D01*
Y117617D01*
X390891D01*
Y117274D01*
Y116930D01*
Y116587D01*
X390548D01*
Y116243D01*
Y115900D01*
X390891D01*
Y115556D01*
Y115213D01*
Y114869D01*
X391235D01*
Y114526D01*
Y114183D01*
X391578D01*
Y113839D01*
Y113496D01*
Y113152D01*
Y112809D01*
X391922D01*
Y112465D01*
Y112122D01*
X392265D01*
Y111778D01*
Y111435D01*
Y111091D01*
X392609D01*
Y110748D01*
Y110404D01*
Y110061D01*
X392952D01*
Y109717D01*
Y109374D01*
Y109030D01*
X393296D01*
Y108687D01*
Y108343D01*
X393639D01*
Y108000D01*
Y107656D01*
Y107313D01*
Y106970D01*
X393983D01*
Y106626D01*
Y106283D01*
X394326D01*
Y105939D01*
Y105596D01*
X394670D01*
Y105252D01*
Y104909D01*
X395013D01*
Y104565D01*
Y104222D01*
X395357D01*
Y103878D01*
Y103535D01*
X395700D01*
Y103191D01*
Y102848D01*
X396044D01*
Y102504D01*
X396387D01*
Y102161D01*
X396731D01*
Y101817D01*
Y101474D01*
X397074D01*
Y101131D01*
X397417D01*
Y100787D01*
X397761D01*
Y100444D01*
X398105D01*
Y100100D01*
X398448D01*
Y99757D01*
Y99413D01*
Y99070D01*
X398105D01*
Y98726D01*
X397761D01*
Y98383D01*
X397417D01*
Y98039D01*
X396387D01*
Y98383D01*
X395700D01*
Y98726D01*
X395357D01*
Y99070D01*
X395013D01*
Y99413D01*
X394670D01*
Y99757D01*
X394326D01*
Y100100D01*
X393983D01*
Y100444D01*
Y100787D01*
X393639D01*
Y101131D01*
Y101474D01*
X393296D01*
Y101817D01*
Y102161D01*
X392952D01*
Y102504D01*
Y102848D01*
X392609D01*
Y103191D01*
Y103535D01*
X392265D01*
Y103878D01*
Y104222D01*
Y104565D01*
Y104909D01*
X389861D01*
Y104565D01*
X388487D01*
Y104222D01*
X387113D01*
Y103878D01*
X385396D01*
Y103535D01*
X384366D01*
Y103191D01*
X383335D01*
Y103535D01*
X382648D01*
Y103191D01*
Y102848D01*
X382305D01*
Y102504D01*
Y102161D01*
X381961D01*
Y101817D01*
X381618D01*
Y101474D01*
Y101131D01*
X381274D01*
Y100787D01*
Y100444D01*
X380931D01*
Y100100D01*
X380587D01*
Y99757D01*
Y99413D01*
X380244D01*
Y99070D01*
X379900D01*
Y98726D01*
X378526D01*
Y99070D01*
X377840D01*
Y99413D01*
Y99757D01*
Y100100D01*
Y100444D01*
Y100787D01*
X378183D01*
Y101131D01*
Y101474D01*
X378526D01*
Y101817D01*
Y102161D01*
X378870D01*
Y102504D01*
X379213D01*
Y102848D01*
Y103191D01*
X379557D01*
Y103535D01*
X379900D01*
Y103878D01*
Y104222D01*
X380244D01*
Y104565D01*
Y104909D01*
X380587D01*
Y105252D01*
X380931D01*
Y105596D01*
X381274D01*
Y105939D01*
Y106283D01*
X381618D01*
Y106626D01*
Y106970D01*
X381961D01*
Y107313D01*
X382305D01*
Y107656D01*
Y108000D01*
X382648D01*
Y108343D01*
X382992D01*
Y108687D01*
Y109030D01*
X383335D01*
Y109374D01*
Y109717D01*
X383679D01*
Y110061D01*
Y110404D01*
X384022D01*
Y110748D01*
X384366D01*
Y111091D01*
Y111435D01*
X384709D01*
Y111778D01*
Y112122D01*
X385052D01*
Y112465D01*
Y112809D01*
X385396D01*
Y113152D01*
X385739D01*
Y113496D01*
Y113839D01*
X386083D01*
Y114183D01*
Y114526D01*
X386426D01*
Y114869D01*
Y115213D01*
X386770D01*
Y115556D01*
X387113D01*
Y115900D01*
Y116243D01*
X387457D01*
Y116587D01*
Y116930D01*
X387800D01*
Y117274D01*
Y117617D01*
X388144D01*
Y117961D01*
X388831D01*
Y118304D01*
X390205D01*
Y117961D01*
D02*
G37*
G36*
X485691Y122426D02*
Y122083D01*
Y121739D01*
Y121396D01*
Y121052D01*
X486034D01*
Y120709D01*
Y120365D01*
Y120022D01*
Y119678D01*
X486377D01*
Y119335D01*
Y118991D01*
X486721D01*
Y118648D01*
Y118304D01*
Y117961D01*
X487065D01*
Y117617D01*
Y117274D01*
Y116930D01*
X487408D01*
Y116587D01*
Y116243D01*
Y115900D01*
X487751D01*
Y115556D01*
Y115213D01*
X488095D01*
Y114869D01*
Y114526D01*
X488438D01*
Y114183D01*
Y113839D01*
X488782D01*
Y113496D01*
Y113152D01*
X489125D01*
Y112809D01*
Y112465D01*
X489469D01*
Y112122D01*
X489812D01*
Y111778D01*
Y111435D01*
X490156D01*
Y111091D01*
X490499D01*
Y110748D01*
X490843D01*
Y110404D01*
Y110061D01*
Y109717D01*
X490499D01*
Y109374D01*
X489469D01*
Y109717D01*
X489125D01*
Y110061D01*
X488782D01*
Y110404D01*
X488438D01*
Y110748D01*
X488095D01*
Y111091D01*
Y111435D01*
X487751D01*
Y111778D01*
X487408D01*
Y112122D01*
Y112465D01*
Y112809D01*
X487065D01*
Y113152D01*
Y113496D01*
X486721D01*
Y113839D01*
Y114183D01*
X486034D01*
Y113839D01*
X483630D01*
Y113496D01*
X482599D01*
Y113152D01*
X481225D01*
Y112809D01*
X480882D01*
Y113152D01*
X480195D01*
Y112809D01*
X479851D01*
Y112465D01*
Y112122D01*
X479508D01*
Y111778D01*
Y111435D01*
X479165D01*
Y111091D01*
Y110748D01*
X478821D01*
Y110404D01*
X478478D01*
Y110061D01*
X478134D01*
Y109717D01*
X477791D01*
Y110061D01*
X477104D01*
Y110404D01*
X476760D01*
Y110748D01*
X477104D01*
Y111091D01*
Y111435D01*
X477447D01*
Y111778D01*
X477791D01*
Y112122D01*
Y112465D01*
X478134D01*
Y112809D01*
Y113152D01*
X478478D01*
Y113496D01*
X478821D01*
Y113839D01*
Y114183D01*
X479165D01*
Y114526D01*
X479508D01*
Y114869D01*
Y115213D01*
X479851D01*
Y115556D01*
X480195D01*
Y115900D01*
Y116243D01*
X480538D01*
Y116587D01*
Y116930D01*
X480882D01*
Y117274D01*
X481225D01*
Y117617D01*
Y117961D01*
X481569D01*
Y118304D01*
Y118648D01*
X481912D01*
Y118991D01*
Y119335D01*
X482256D01*
Y119678D01*
Y120022D01*
X482599D01*
Y120365D01*
X482943D01*
Y120709D01*
Y121052D01*
X483286D01*
Y121396D01*
Y121739D01*
X483630D01*
Y122083D01*
Y122426D01*
X483973D01*
Y122769D01*
X485691D01*
Y122426D01*
D02*
G37*
G36*
X463708Y123800D02*
X465769D01*
Y123456D01*
X466799D01*
Y123113D01*
X467486D01*
Y122769D01*
X468173D01*
Y122426D01*
X468860D01*
Y122083D01*
X469547D01*
Y121739D01*
X469891D01*
Y121396D01*
X470578D01*
Y121052D01*
X470921D01*
Y120709D01*
X471265D01*
Y120365D01*
X471608D01*
Y120022D01*
X471952D01*
Y119678D01*
X472295D01*
Y119335D01*
X472639D01*
Y118991D01*
X472982D01*
Y118648D01*
Y118304D01*
X473326D01*
Y117961D01*
X473669D01*
Y117617D01*
Y117274D01*
X474012D01*
Y116930D01*
Y116587D01*
Y116243D01*
X474356D01*
Y115900D01*
Y115556D01*
Y115213D01*
Y114869D01*
Y114526D01*
Y114183D01*
Y113839D01*
Y113496D01*
X474012D01*
Y113152D01*
Y112809D01*
X473669D01*
Y112465D01*
X472982D01*
Y112122D01*
X472295D01*
Y111778D01*
X471608D01*
Y112122D01*
X470578D01*
Y112465D01*
X470234D01*
Y112809D01*
X469891D01*
Y113152D01*
X469547D01*
Y113496D01*
Y113839D01*
X469204D01*
Y114183D01*
Y114526D01*
X468860D01*
Y114869D01*
X468517D01*
Y115213D01*
Y115556D01*
X468173D01*
Y115900D01*
X467830D01*
Y116243D01*
Y116587D01*
X467486D01*
Y116930D01*
X467143D01*
Y117274D01*
X466799D01*
Y117617D01*
X466456D01*
Y117961D01*
X466113D01*
Y118304D01*
X465425D01*
Y118648D01*
X464739D01*
Y118991D01*
X463708D01*
Y119335D01*
X458899D01*
Y118991D01*
X457869D01*
Y118648D01*
X457182D01*
Y118304D01*
X456495D01*
Y117961D01*
X456152D01*
Y117617D01*
X455808D01*
Y117274D01*
X455465D01*
Y116930D01*
X455121D01*
Y116587D01*
X454778D01*
Y116243D01*
X454434D01*
Y115900D01*
X454091D01*
Y115556D01*
Y115213D01*
X453747D01*
Y114869D01*
Y114526D01*
X453404D01*
Y114183D01*
Y113839D01*
X453060D01*
Y113496D01*
Y113152D01*
Y112809D01*
X452717D01*
Y112465D01*
Y112122D01*
Y111778D01*
Y111435D01*
Y111091D01*
X452374D01*
Y110748D01*
Y110404D01*
Y110061D01*
Y109717D01*
Y109374D01*
Y109030D01*
Y108687D01*
Y108343D01*
Y108000D01*
Y107656D01*
Y107313D01*
Y106970D01*
Y106626D01*
Y106283D01*
Y105939D01*
Y105596D01*
Y105252D01*
Y104909D01*
Y104565D01*
Y104222D01*
Y103878D01*
Y103535D01*
X452717D01*
Y103191D01*
Y102848D01*
Y102504D01*
Y102161D01*
Y101817D01*
X453060D01*
Y101474D01*
Y101131D01*
Y100787D01*
X453404D01*
Y100444D01*
Y100100D01*
X453747D01*
Y99757D01*
X454091D01*
Y99413D01*
Y99070D01*
X454434D01*
Y98726D01*
Y98383D01*
X454778D01*
Y98039D01*
X455121D01*
Y97696D01*
X455465D01*
Y97352D01*
X456152D01*
Y97009D01*
X456495D01*
Y96665D01*
X457182D01*
Y96322D01*
X457869D01*
Y95978D01*
X459243D01*
Y95635D01*
X463021D01*
Y95978D01*
X464395D01*
Y96322D01*
X465082D01*
Y96665D01*
X465769D01*
Y97009D01*
X466113D01*
Y97352D01*
X466799D01*
Y97696D01*
X467143D01*
Y98039D01*
X467486D01*
Y98383D01*
X467830D01*
Y98726D01*
Y99070D01*
X468173D01*
Y99413D01*
X468517D01*
Y99757D01*
Y100100D01*
X468860D01*
Y100444D01*
Y100787D01*
X469204D01*
Y101131D01*
Y101474D01*
Y101817D01*
X469547D01*
Y102161D01*
Y102504D01*
X469891D01*
Y102848D01*
Y103191D01*
X470234D01*
Y103535D01*
X470578D01*
Y103878D01*
X471608D01*
Y104222D01*
X472295D01*
Y103878D01*
X473326D01*
Y103535D01*
X473669D01*
Y103191D01*
X474012D01*
Y102848D01*
X474356D01*
Y102504D01*
Y102161D01*
Y101817D01*
X474699D01*
Y101474D01*
Y101131D01*
X474356D01*
Y100787D01*
Y100444D01*
Y100100D01*
Y99757D01*
Y99413D01*
Y99070D01*
X474012D01*
Y98726D01*
Y98383D01*
X473669D01*
Y98039D01*
Y97696D01*
Y97352D01*
X473326D01*
Y97009D01*
X472982D01*
Y96665D01*
Y96322D01*
X472639D01*
Y95978D01*
X472295D01*
Y95635D01*
Y95291D01*
X471952D01*
Y94948D01*
X471608D01*
Y94605D01*
X471265D01*
Y94261D01*
X470921D01*
Y93918D01*
X470234D01*
Y93574D01*
X469891D01*
Y93231D01*
X469547D01*
Y92887D01*
X468860D01*
Y92544D01*
X468173D01*
Y92200D01*
X467486D01*
Y91857D01*
X466456D01*
Y91513D01*
X465425D01*
Y91170D01*
X463708D01*
Y90826D01*
X459243D01*
Y91170D01*
X457182D01*
Y91513D01*
X455808D01*
Y91857D01*
X454778D01*
Y92200D01*
X454091D01*
Y92544D01*
X453404D01*
Y92887D01*
X453060D01*
Y93231D01*
X452374D01*
Y93574D01*
X452030D01*
Y93918D01*
X451343D01*
Y94261D01*
X451000D01*
Y94605D01*
X450656D01*
Y94948D01*
X450313D01*
Y95291D01*
X449969D01*
Y95635D01*
Y95978D01*
X449626D01*
Y96322D01*
X449282D01*
Y96665D01*
Y97009D01*
X448939D01*
Y97352D01*
X448595D01*
Y97696D01*
Y98039D01*
X448252D01*
Y98383D01*
X447908D01*
Y98726D01*
Y99070D01*
X447565D01*
Y99413D01*
Y99757D01*
Y100100D01*
X447221D01*
Y100444D01*
Y100787D01*
Y101131D01*
X446878D01*
Y101474D01*
Y101817D01*
Y102161D01*
Y102504D01*
X446534D01*
Y102848D01*
Y103191D01*
Y103535D01*
Y103878D01*
X446191D01*
Y104222D01*
Y104565D01*
Y104909D01*
Y105252D01*
Y105596D01*
Y105939D01*
Y106283D01*
Y106626D01*
Y106970D01*
Y107313D01*
Y107656D01*
Y108000D01*
Y108343D01*
Y108687D01*
Y109030D01*
Y109374D01*
Y109717D01*
Y110061D01*
Y110404D01*
Y110748D01*
Y111091D01*
X446534D01*
Y111435D01*
Y111778D01*
Y112122D01*
Y112465D01*
Y112809D01*
X446878D01*
Y113152D01*
Y113496D01*
Y113839D01*
X447221D01*
Y114183D01*
Y114526D01*
Y114869D01*
X447565D01*
Y115213D01*
Y115556D01*
Y115900D01*
X447908D01*
Y116243D01*
Y116587D01*
X448252D01*
Y116930D01*
X448595D01*
Y117274D01*
Y117617D01*
X448939D01*
Y117961D01*
X449282D01*
Y118304D01*
Y118648D01*
X449626D01*
Y118991D01*
X449969D01*
Y119335D01*
X450313D01*
Y119678D01*
X450656D01*
Y120022D01*
X451000D01*
Y120365D01*
X451343D01*
Y120709D01*
X451687D01*
Y121052D01*
X452030D01*
Y121396D01*
X452717D01*
Y121739D01*
X453060D01*
Y122083D01*
X453747D01*
Y122426D01*
X454434D01*
Y122769D01*
X455121D01*
Y123113D01*
X456152D01*
Y123456D01*
X457182D01*
Y123800D01*
X458899D01*
Y124143D01*
X463708D01*
Y123800D01*
D02*
G37*
G36*
X440695Y118648D02*
Y118304D01*
X441039D01*
Y117961D01*
Y117617D01*
X440695D01*
Y117274D01*
X440352D01*
Y116930D01*
Y116587D01*
X440008D01*
Y116243D01*
X439665D01*
Y115900D01*
X439321D01*
Y115556D01*
X438978D01*
Y115213D01*
X438634D01*
Y114869D01*
X438291D01*
Y114526D01*
Y114183D01*
X437604D01*
Y113839D01*
Y113496D01*
X437261D01*
Y113152D01*
X436917D01*
Y112809D01*
X436574D01*
Y112465D01*
X436230D01*
Y112122D01*
X435887D01*
Y111778D01*
X435543D01*
Y111435D01*
X435200D01*
Y111091D01*
X434856D01*
Y110748D01*
X434513D01*
Y110404D01*
X434169D01*
Y110061D01*
X433826D01*
Y109717D01*
X433482D01*
Y109374D01*
Y109030D01*
X433139D01*
Y108687D01*
X432795D01*
Y108343D01*
X432452D01*
Y108000D01*
Y107656D01*
Y107313D01*
X432108D01*
Y106970D01*
Y106626D01*
Y106283D01*
Y105939D01*
Y105596D01*
Y105252D01*
X431765D01*
Y104909D01*
Y104565D01*
Y104222D01*
Y103878D01*
Y103535D01*
Y103191D01*
Y102848D01*
Y102504D01*
X431422D01*
Y102161D01*
Y101817D01*
Y101474D01*
Y101131D01*
Y100787D01*
Y100444D01*
Y100100D01*
Y99757D01*
Y99413D01*
Y99070D01*
X431078D01*
Y98726D01*
X430048D01*
Y98383D01*
X429361D01*
Y98726D01*
X428674D01*
Y99070D01*
Y99413D01*
Y99757D01*
Y100100D01*
Y100444D01*
Y100787D01*
Y101131D01*
Y101474D01*
Y101817D01*
Y102161D01*
Y102504D01*
X429017D01*
Y102848D01*
Y103191D01*
Y103535D01*
Y103878D01*
Y104222D01*
X429361D01*
Y104565D01*
Y104909D01*
X429017D01*
Y105252D01*
X429361D01*
Y105596D01*
Y105939D01*
Y106283D01*
Y106626D01*
Y106970D01*
Y107313D01*
Y107656D01*
Y108000D01*
Y108343D01*
X429017D01*
Y108687D01*
X428674D01*
Y109030D01*
Y109374D01*
X427987D01*
Y109717D01*
Y110061D01*
X427643D01*
Y110404D01*
X427300D01*
Y110748D01*
X426956D01*
Y111091D01*
Y111435D01*
X426613D01*
Y111778D01*
X426269D01*
Y112122D01*
X425926D01*
Y112465D01*
Y112809D01*
X425583D01*
Y113152D01*
X425239D01*
Y113496D01*
X424896D01*
Y113839D01*
Y114183D01*
X424552D01*
Y114526D01*
X424208D01*
Y114869D01*
X423522D01*
Y115213D01*
X423178D01*
Y115556D01*
X422835D01*
Y115900D01*
X422491D01*
Y116243D01*
X422148D01*
Y116587D01*
X421804D01*
Y116930D01*
X421461D01*
Y117274D01*
Y117617D01*
X421804D01*
Y117961D01*
X422148D01*
Y118304D01*
X423865D01*
Y117961D01*
X424552D01*
Y117617D01*
X424896D01*
Y117274D01*
X425239D01*
Y116930D01*
X425583D01*
Y116587D01*
X425926D01*
Y116243D01*
X426269D01*
Y115900D01*
X426613D01*
Y115556D01*
X426956D01*
Y115213D01*
X427300D01*
Y114869D01*
X427643D01*
Y114526D01*
Y114183D01*
X427987D01*
Y113839D01*
X428330D01*
Y113496D01*
X428674D01*
Y113152D01*
Y112809D01*
X429017D01*
Y112465D01*
X429361D01*
Y112122D01*
X429704D01*
Y111778D01*
Y111435D01*
X430048D01*
Y111091D01*
X430391D01*
Y110748D01*
X430735D01*
Y110404D01*
X431422D01*
Y110748D01*
X431765D01*
Y111091D01*
X432108D01*
Y111435D01*
X432452D01*
Y111778D01*
X432795D01*
Y112122D01*
X433139D01*
Y112465D01*
X433482D01*
Y112809D01*
Y113152D01*
X433826D01*
Y113496D01*
X434169D01*
Y113839D01*
X434513D01*
Y114183D01*
X434856D01*
Y114526D01*
X435200D01*
Y114869D01*
X435543D01*
Y115213D01*
X435887D01*
Y115556D01*
X436230D01*
Y115900D01*
X436574D01*
Y116243D01*
Y116587D01*
X436917D01*
Y116930D01*
X437261D01*
Y117274D01*
X437604D01*
Y117617D01*
X437948D01*
Y117961D01*
Y118304D01*
X438291D01*
Y118648D01*
X438978D01*
Y118991D01*
X440695D01*
Y118648D01*
D02*
G37*
G36*
X400075Y183347D02*
Y182578D01*
Y181808D01*
Y181039D01*
Y180269D01*
Y179500D01*
Y178731D01*
Y177961D01*
Y177192D01*
Y176422D01*
Y175653D01*
Y174883D01*
Y174114D01*
Y173345D01*
Y172575D01*
Y171806D01*
Y171036D01*
Y170267D01*
Y169498D01*
Y168728D01*
Y167959D01*
Y167189D01*
Y166420D01*
X396997D01*
Y167189D01*
X396228D01*
Y167959D01*
Y168728D01*
X395459D01*
Y169498D01*
Y170267D01*
X394689D01*
Y171036D01*
Y171806D01*
X393920D01*
Y172575D01*
Y173345D01*
X393150D01*
Y174114D01*
Y174883D01*
Y175653D01*
X392381D01*
Y176422D01*
X391612D01*
Y177192D01*
Y177961D01*
X390842D01*
Y178731D01*
Y179500D01*
Y180269D01*
X390073D01*
Y181039D01*
Y181808D01*
X389303D01*
Y181039D01*
X388534D01*
Y180269D01*
X389303D01*
Y179500D01*
Y178731D01*
Y177961D01*
Y177192D01*
Y176422D01*
Y175653D01*
Y174883D01*
Y174114D01*
Y173345D01*
Y172575D01*
Y171806D01*
Y171036D01*
Y170267D01*
Y169498D01*
Y168728D01*
Y167959D01*
Y167189D01*
Y166420D01*
X386995D01*
Y167189D01*
Y167959D01*
Y168728D01*
Y169498D01*
Y170267D01*
Y171036D01*
Y171806D01*
Y172575D01*
Y173345D01*
Y174114D01*
Y174883D01*
Y175653D01*
Y176422D01*
Y177192D01*
Y177961D01*
Y178731D01*
Y179500D01*
Y180269D01*
Y181039D01*
Y181808D01*
Y182578D01*
Y183347D01*
Y184116D01*
X390842D01*
Y183347D01*
Y182578D01*
X391612D01*
Y181808D01*
Y181039D01*
X392381D01*
Y180269D01*
Y179500D01*
X393150D01*
Y178731D01*
Y177961D01*
X393920D01*
Y177192D01*
Y176422D01*
X394689D01*
Y175653D01*
Y174883D01*
X395459D01*
Y174114D01*
Y173345D01*
Y172575D01*
X396228D01*
Y171806D01*
Y171036D01*
X396997D01*
Y170267D01*
Y169498D01*
Y168728D01*
X398536D01*
Y169498D01*
Y170267D01*
Y171036D01*
Y171806D01*
X397767D01*
Y172575D01*
Y173345D01*
Y174114D01*
Y174883D01*
Y175653D01*
Y176422D01*
Y177192D01*
Y177961D01*
Y178731D01*
Y179500D01*
Y180269D01*
Y181039D01*
Y181808D01*
Y182578D01*
Y183347D01*
Y184116D01*
X400075D01*
Y183347D01*
D02*
G37*
G36*
X450088D02*
X449318D01*
Y182578D01*
Y181808D01*
Y181039D01*
Y180269D01*
Y179500D01*
Y178731D01*
Y177961D01*
Y177192D01*
Y176422D01*
Y175653D01*
Y174883D01*
Y174114D01*
Y173345D01*
Y172575D01*
Y171806D01*
Y171036D01*
Y170267D01*
Y169498D01*
Y168728D01*
Y167959D01*
Y167189D01*
X450088D01*
Y166420D01*
X448549D01*
Y167189D01*
X445471D01*
Y166420D01*
X443163D01*
Y165650D01*
X441624D01*
Y166420D01*
X439316D01*
Y167189D01*
X438546D01*
Y167959D01*
X437777D01*
Y168728D01*
Y169498D01*
Y170267D01*
Y171036D01*
Y171806D01*
Y172575D01*
Y173345D01*
Y174114D01*
Y174883D01*
Y175653D01*
Y176422D01*
Y177192D01*
Y177961D01*
Y178731D01*
Y179500D01*
Y180269D01*
Y181039D01*
Y181808D01*
Y182578D01*
Y183347D01*
Y184116D01*
X439316D01*
Y183347D01*
Y182578D01*
Y181808D01*
Y181039D01*
Y180269D01*
Y179500D01*
Y178731D01*
Y177961D01*
Y177192D01*
Y176422D01*
Y175653D01*
Y174883D01*
Y174114D01*
Y173345D01*
Y172575D01*
Y171806D01*
Y171036D01*
Y170267D01*
Y169498D01*
X440085D01*
Y168728D01*
Y167959D01*
X446241D01*
Y168728D01*
X447779D01*
Y169498D01*
Y170267D01*
Y171036D01*
Y171806D01*
Y172575D01*
Y173345D01*
Y174114D01*
Y174883D01*
Y175653D01*
Y176422D01*
Y177192D01*
Y177961D01*
Y178731D01*
Y179500D01*
Y180269D01*
Y181039D01*
Y181808D01*
Y182578D01*
Y183347D01*
Y184116D01*
X450088D01*
Y183347D01*
D02*
G37*
G36*
X471631D02*
Y182578D01*
Y181808D01*
Y181039D01*
X472401D01*
Y180269D01*
Y179500D01*
Y178731D01*
Y177961D01*
Y177192D01*
Y176422D01*
Y175653D01*
Y174883D01*
Y174114D01*
Y173345D01*
Y172575D01*
X473170D01*
Y171806D01*
Y171036D01*
Y170267D01*
Y169498D01*
Y168728D01*
Y167959D01*
Y167189D01*
Y166420D01*
X470862D01*
Y167189D01*
Y167959D01*
Y168728D01*
Y169498D01*
Y170267D01*
Y171036D01*
Y171806D01*
Y172575D01*
Y173345D01*
Y174114D01*
Y174883D01*
Y175653D01*
Y176422D01*
Y177192D01*
X470093D01*
Y177961D01*
Y178731D01*
Y179500D01*
Y180269D01*
Y181039D01*
Y181808D01*
X469323D01*
Y181039D01*
X468554D01*
Y180269D01*
Y179500D01*
Y178731D01*
Y177961D01*
Y177192D01*
X467784D01*
Y176422D01*
Y175653D01*
Y174883D01*
Y174114D01*
X467015D01*
Y173345D01*
Y172575D01*
Y171806D01*
X466245D01*
Y171036D01*
Y170267D01*
Y169498D01*
Y168728D01*
X465476D01*
Y167959D01*
Y167189D01*
Y166420D01*
X462398D01*
Y167189D01*
Y167959D01*
Y168728D01*
Y169498D01*
X461629D01*
Y170267D01*
Y171036D01*
Y171806D01*
X460859D01*
Y172575D01*
Y173345D01*
Y174114D01*
X460090D01*
Y174883D01*
Y175653D01*
Y176422D01*
Y177192D01*
X459321D01*
Y177961D01*
Y178731D01*
Y179500D01*
Y180269D01*
Y181039D01*
X457782D01*
Y180269D01*
Y179500D01*
Y178731D01*
Y177961D01*
Y177192D01*
Y176422D01*
X457012D01*
Y175653D01*
Y174883D01*
Y174114D01*
Y173345D01*
Y172575D01*
Y171806D01*
Y171036D01*
Y170267D01*
Y169498D01*
Y168728D01*
Y167959D01*
Y167189D01*
Y166420D01*
X454704D01*
Y167189D01*
Y167959D01*
Y168728D01*
Y169498D01*
Y170267D01*
Y171036D01*
Y171806D01*
X455474D01*
Y172575D01*
Y173345D01*
Y174114D01*
Y174883D01*
Y175653D01*
Y176422D01*
Y177192D01*
Y177961D01*
Y178731D01*
Y179500D01*
Y180269D01*
Y181039D01*
X456243D01*
Y181808D01*
Y182578D01*
Y183347D01*
Y184116D01*
X459321D01*
Y183347D01*
X460090D01*
Y182578D01*
Y181808D01*
Y181039D01*
Y180269D01*
X460859D01*
Y179500D01*
Y178731D01*
Y177961D01*
X461629D01*
Y177192D01*
Y176422D01*
Y175653D01*
Y174883D01*
X462398D01*
Y174114D01*
Y173345D01*
Y172575D01*
Y171806D01*
X463168D01*
Y171036D01*
Y170267D01*
Y169498D01*
Y168728D01*
X464707D01*
Y169498D01*
Y170267D01*
Y171036D01*
X465476D01*
Y171806D01*
Y172575D01*
Y173345D01*
Y174114D01*
Y174883D01*
X466245D01*
Y175653D01*
Y176422D01*
Y177192D01*
X467015D01*
Y177961D01*
Y178731D01*
Y179500D01*
X467784D01*
Y180269D01*
Y181039D01*
Y181808D01*
Y182578D01*
X468554D01*
Y183347D01*
Y184116D01*
X471631D01*
Y183347D01*
D02*
G37*
G36*
X324672D02*
Y182578D01*
Y181808D01*
Y181039D01*
Y180269D01*
Y179500D01*
Y178731D01*
Y177961D01*
Y177192D01*
Y176422D01*
Y175653D01*
Y174883D01*
Y174114D01*
Y173345D01*
Y172575D01*
Y171806D01*
Y171036D01*
Y170267D01*
Y169498D01*
Y168728D01*
Y167959D01*
Y167189D01*
Y166420D01*
X323133D01*
Y167189D01*
Y167959D01*
Y168728D01*
Y169498D01*
Y170267D01*
Y171036D01*
Y171806D01*
Y172575D01*
Y173345D01*
Y174114D01*
Y174883D01*
X315439D01*
Y174114D01*
Y173345D01*
Y172575D01*
Y171806D01*
Y171036D01*
Y170267D01*
Y169498D01*
Y168728D01*
Y167959D01*
Y167189D01*
Y166420D01*
X313131D01*
Y167189D01*
Y167959D01*
Y168728D01*
Y169498D01*
Y170267D01*
Y171036D01*
Y171806D01*
Y172575D01*
Y173345D01*
Y174114D01*
Y174883D01*
Y175653D01*
Y176422D01*
Y177192D01*
Y177961D01*
Y178731D01*
Y179500D01*
Y180269D01*
Y181039D01*
Y181808D01*
Y182578D01*
Y183347D01*
Y184116D01*
X315439D01*
Y183347D01*
Y182578D01*
Y181808D01*
Y181039D01*
Y180269D01*
Y179500D01*
Y178731D01*
Y177961D01*
Y177192D01*
Y176422D01*
X323133D01*
Y177192D01*
Y177961D01*
Y178731D01*
Y179500D01*
Y180269D01*
Y181039D01*
Y181808D01*
Y182578D01*
Y183347D01*
Y184116D01*
X324672D01*
Y183347D01*
D02*
G37*
G36*
X417772D02*
Y182578D01*
Y181808D01*
Y181039D01*
Y180269D01*
Y179500D01*
Y178731D01*
Y177961D01*
Y177192D01*
Y176422D01*
Y175653D01*
Y174883D01*
Y174114D01*
Y173345D01*
Y172575D01*
Y171806D01*
Y171036D01*
Y170267D01*
Y169498D01*
Y168728D01*
Y167959D01*
Y167189D01*
Y166420D01*
X414694D01*
Y167189D01*
Y167959D01*
X413925D01*
Y168728D01*
Y169498D01*
X413155D01*
Y170267D01*
Y171036D01*
X412386D01*
Y171806D01*
Y172575D01*
X411617D01*
Y173345D01*
Y174114D01*
X410847D01*
Y174883D01*
Y175653D01*
X410078D01*
Y176422D01*
Y177192D01*
X409308D01*
Y177961D01*
Y178731D01*
Y179500D01*
X408539D01*
Y180269D01*
Y181039D01*
X407769D01*
Y181808D01*
X407000D01*
Y181039D01*
Y180269D01*
Y179500D01*
Y178731D01*
Y177961D01*
Y177192D01*
Y176422D01*
Y175653D01*
Y174883D01*
Y174114D01*
Y173345D01*
Y172575D01*
Y171806D01*
Y171036D01*
Y170267D01*
Y169498D01*
Y168728D01*
Y167959D01*
Y167189D01*
Y166420D01*
X405461D01*
Y167189D01*
Y167959D01*
Y168728D01*
Y169498D01*
Y170267D01*
Y171036D01*
Y171806D01*
Y172575D01*
Y173345D01*
Y174114D01*
Y174883D01*
Y175653D01*
Y176422D01*
Y177192D01*
Y177961D01*
Y178731D01*
Y179500D01*
Y180269D01*
Y181039D01*
Y181808D01*
Y182578D01*
Y183347D01*
Y184116D01*
X408539D01*
Y183347D01*
X409308D01*
Y182578D01*
Y181808D01*
X410078D01*
Y181039D01*
Y180269D01*
X410847D01*
Y179500D01*
Y178731D01*
X411617D01*
Y177961D01*
Y177192D01*
X412386D01*
Y176422D01*
Y175653D01*
Y174883D01*
X413155D01*
Y174114D01*
Y173345D01*
X413925D01*
Y172575D01*
Y171806D01*
X414694D01*
Y171036D01*
Y170267D01*
Y169498D01*
X416233D01*
Y170267D01*
Y171036D01*
Y171806D01*
Y172575D01*
Y173345D01*
Y174114D01*
Y174883D01*
Y175653D01*
Y176422D01*
Y177192D01*
Y177961D01*
Y178731D01*
Y179500D01*
Y180269D01*
Y181039D01*
Y181808D01*
Y182578D01*
Y183347D01*
Y184116D01*
X417772D01*
Y183347D01*
D02*
G37*
G36*
X378531D02*
Y182578D01*
Y181808D01*
Y181039D01*
X379301D01*
Y180269D01*
Y179500D01*
Y178731D01*
X380070D01*
Y177961D01*
Y177192D01*
Y176422D01*
X380840D01*
Y175653D01*
Y174883D01*
Y174114D01*
X381609D01*
Y173345D01*
Y172575D01*
Y171806D01*
X382379D01*
Y171036D01*
Y170267D01*
Y169498D01*
X383148D01*
Y168728D01*
Y167959D01*
Y167189D01*
X383917D01*
Y166420D01*
X381609D01*
Y167189D01*
Y167959D01*
X380840D01*
Y168728D01*
Y169498D01*
Y170267D01*
X380070D01*
Y171036D01*
X373145D01*
Y170267D01*
X372376D01*
Y169498D01*
Y168728D01*
Y167959D01*
Y167189D01*
X371607D01*
Y166420D01*
X370068D01*
Y167189D01*
Y167959D01*
X370837D01*
Y168728D01*
Y169498D01*
Y170267D01*
X371607D01*
Y171036D01*
Y171806D01*
Y172575D01*
X372376D01*
Y173345D01*
Y174114D01*
Y174883D01*
Y175653D01*
X373145D01*
Y176422D01*
Y177192D01*
Y177961D01*
X373915D01*
Y178731D01*
Y179500D01*
Y180269D01*
X374684D01*
Y181039D01*
Y181808D01*
X375454D01*
Y182578D01*
Y183347D01*
Y184116D01*
X378531D01*
Y183347D01*
D02*
G37*
G36*
X308514D02*
Y182578D01*
X301589D01*
Y181808D01*
Y181039D01*
Y180269D01*
Y179500D01*
Y178731D01*
Y177961D01*
Y177192D01*
Y176422D01*
Y175653D01*
X307745D01*
Y174883D01*
Y174114D01*
X301589D01*
Y173345D01*
Y172575D01*
Y171806D01*
Y171036D01*
Y170267D01*
Y169498D01*
Y168728D01*
Y167959D01*
Y167189D01*
Y166420D01*
X299281D01*
Y167189D01*
Y167959D01*
Y168728D01*
Y169498D01*
Y170267D01*
Y171036D01*
Y171806D01*
Y172575D01*
Y173345D01*
Y174114D01*
Y174883D01*
Y175653D01*
Y176422D01*
Y177192D01*
Y177961D01*
Y178731D01*
Y179500D01*
Y180269D01*
Y181039D01*
Y181808D01*
Y182578D01*
Y183347D01*
Y184116D01*
X308514D01*
Y183347D01*
D02*
G37*
G36*
X363912D02*
X364682D01*
Y182578D01*
X365451D01*
Y181808D01*
X366221D01*
Y181039D01*
Y180269D01*
X366990D01*
Y179500D01*
Y178731D01*
Y177961D01*
Y177192D01*
Y176422D01*
Y175653D01*
Y174883D01*
Y174114D01*
Y173345D01*
Y172575D01*
Y171806D01*
Y171036D01*
Y170267D01*
X366221D01*
Y169498D01*
Y168728D01*
Y167959D01*
X365451D01*
Y167189D01*
X363912D01*
Y166420D01*
X361604D01*
Y165650D01*
X360065D01*
Y166420D01*
X356988D01*
Y167189D01*
X355449D01*
Y167959D01*
X354679D01*
Y168728D01*
Y169498D01*
Y170267D01*
X353910D01*
Y171036D01*
Y171806D01*
Y172575D01*
Y173345D01*
Y174114D01*
Y174883D01*
Y175653D01*
Y176422D01*
Y177192D01*
Y177961D01*
Y178731D01*
Y179500D01*
Y180269D01*
X354679D01*
Y181039D01*
Y181808D01*
X355449D01*
Y182578D01*
X356218D01*
Y183347D01*
X356988D01*
Y184116D01*
X363912D01*
Y183347D01*
D02*
G37*
G36*
X433160D02*
Y182578D01*
X425466D01*
Y181808D01*
Y181039D01*
Y180269D01*
Y179500D01*
Y178731D01*
Y177961D01*
Y177192D01*
Y176422D01*
X432391D01*
Y175653D01*
Y174883D01*
X425466D01*
Y174114D01*
Y173345D01*
Y172575D01*
Y171806D01*
Y171036D01*
Y170267D01*
Y169498D01*
Y168728D01*
Y167959D01*
X433160D01*
Y167189D01*
Y166420D01*
X423158D01*
Y167189D01*
Y167959D01*
Y168728D01*
Y169498D01*
Y170267D01*
Y171036D01*
Y171806D01*
Y172575D01*
Y173345D01*
Y174114D01*
Y174883D01*
Y175653D01*
Y176422D01*
Y177192D01*
Y177961D01*
Y178731D01*
Y179500D01*
Y180269D01*
Y181039D01*
Y181808D01*
Y182578D01*
Y183347D01*
Y184116D01*
X433160D01*
Y183347D01*
D02*
G37*
%LPC*%
G36*
X389174Y113496D02*
X388144D01*
Y113152D01*
Y112809D01*
X387800D01*
Y112465D01*
Y112122D01*
X387457D01*
Y111778D01*
Y111435D01*
X387113D01*
Y111091D01*
X386770D01*
Y110748D01*
Y110404D01*
X386426D01*
Y110061D01*
Y109717D01*
X386083D01*
Y109374D01*
Y109030D01*
X385739D01*
Y108687D01*
Y108343D01*
X385396D01*
Y108000D01*
Y107656D01*
X385052D01*
Y107313D01*
Y106970D01*
X384709D01*
Y106626D01*
Y106283D01*
Y105939D01*
X386083D01*
Y106283D01*
X388144D01*
Y106626D01*
X389518D01*
Y106970D01*
X390891D01*
Y107313D01*
Y107656D01*
Y108000D01*
Y108343D01*
X390548D01*
Y108687D01*
Y109030D01*
X390205D01*
Y109374D01*
Y109717D01*
Y110061D01*
Y110404D01*
X389861D01*
Y110748D01*
Y111091D01*
Y111435D01*
X389518D01*
Y111778D01*
Y112122D01*
X389174D01*
Y112465D01*
Y112809D01*
Y113152D01*
Y113496D01*
D02*
G37*
G36*
X484660Y120022D02*
X483973D01*
Y119678D01*
X483630D01*
Y119335D01*
Y118991D01*
X483286D01*
Y118648D01*
Y118304D01*
X482943D01*
Y117961D01*
Y117617D01*
X482599D01*
Y117274D01*
Y116930D01*
X482256D01*
Y116587D01*
Y116243D01*
X481912D01*
Y115900D01*
Y115556D01*
X481569D01*
Y115213D01*
Y114869D01*
Y114526D01*
X482256D01*
Y114869D01*
X484660D01*
Y115213D01*
X486034D01*
Y115556D01*
Y115900D01*
Y116243D01*
X485691D01*
Y116587D01*
Y116930D01*
Y117274D01*
Y117617D01*
X485347D01*
Y117961D01*
Y118304D01*
X485004D01*
Y118648D01*
Y118991D01*
Y119335D01*
X484660D01*
Y119678D01*
Y120022D01*
D02*
G37*
G36*
X376993Y181808D02*
X376223D01*
Y181039D01*
Y180269D01*
Y179500D01*
X375454D01*
Y178731D01*
Y177961D01*
Y177192D01*
X374684D01*
Y176422D01*
Y175653D01*
Y174883D01*
X373915D01*
Y174114D01*
Y173345D01*
Y172575D01*
X379301D01*
Y173345D01*
Y174114D01*
Y174883D01*
X378531D01*
Y175653D01*
Y176422D01*
Y177192D01*
Y177961D01*
X377762D01*
Y178731D01*
Y179500D01*
Y180269D01*
Y181039D01*
X376993D01*
Y181808D01*
D02*
G37*
G36*
X360835Y183347D02*
X360065D01*
Y182578D01*
X357757D01*
Y181808D01*
X356988D01*
Y181039D01*
Y180269D01*
X356218D01*
Y179500D01*
Y178731D01*
Y177961D01*
Y177192D01*
Y176422D01*
Y175653D01*
Y174883D01*
Y174114D01*
Y173345D01*
Y172575D01*
Y171806D01*
Y171036D01*
Y170267D01*
Y169498D01*
X356988D01*
Y168728D01*
X357757D01*
Y167959D01*
X359296D01*
Y167189D01*
X361604D01*
Y167959D01*
X363143D01*
Y168728D01*
X363912D01*
Y169498D01*
X364682D01*
Y170267D01*
Y171036D01*
Y171806D01*
X365451D01*
Y172575D01*
Y173345D01*
Y174114D01*
Y174883D01*
Y175653D01*
Y176422D01*
Y177192D01*
Y177961D01*
X364682D01*
Y178731D01*
Y179500D01*
Y180269D01*
Y181039D01*
X363912D01*
Y181808D01*
X363143D01*
Y182578D01*
X360835D01*
Y183347D01*
D02*
G37*
%LPD*%
D58*
X440100Y302000D02*
Y306756D01*
Y214400D02*
Y219250D01*
X435000Y214400D02*
X440100D01*
X347400D02*
X353000D01*
X347400D02*
Y220000D01*
Y302000D02*
Y307100D01*
X353000D01*
X112000Y176000D02*
X124000D01*
X118000Y168000D02*
X124000Y176000D01*
X112000D02*
X118000Y168000D01*
X103000Y76000D02*
X209000D01*
X103000D02*
Y164000D01*
X209000D01*
Y76000D02*
Y164000D01*
X19500Y412000D02*
X147500D01*
Y350500D02*
Y412000D01*
X19500Y350500D02*
Y412000D01*
X113500Y338500D02*
X121000Y346000D01*
X128500Y338500D01*
X113500D02*
X128500D01*
X266000Y346000D02*
X273500Y338500D01*
X258500D02*
X273500D01*
X258500D02*
X266000Y346000D01*
X164500Y412000D02*
X292500D01*
Y350500D02*
Y412000D01*
X267000Y350500D02*
X292500D01*
X217000D02*
X242500D01*
X164500D02*
X190000D01*
X164500D02*
Y412000D01*
X122000Y350500D02*
X147500D01*
X72000D02*
X97500D01*
X19500D02*
X45000D01*
X586000Y826000D02*
X595000Y817000D01*
X492000Y826000D02*
X586000D01*
X492000Y768000D02*
Y826000D01*
X280000Y919500D02*
X341500D01*
Y894000D02*
Y919500D01*
Y844000D02*
Y869500D01*
Y791500D02*
Y817000D01*
X280000Y791500D02*
X341500D01*
X280000D02*
Y919500D01*
X346000Y893000D02*
X353500Y900500D01*
Y885500D02*
Y900500D01*
X346000Y893000D02*
X353500Y885500D01*
X219000Y919500D02*
X280000D01*
X280500Y894000D01*
Y844000D02*
Y869500D01*
Y816500D02*
Y834000D01*
X219000Y816500D02*
X280500D01*
X219000D02*
Y919500D01*
X254500Y922500D02*
X262000Y930000D01*
X247000D02*
X262000D01*
X247000D02*
X254500Y922500D01*
X91500Y919500D02*
X150500D01*
Y791500D02*
Y797500D01*
X91500Y791500D02*
Y919500D01*
X150500D01*
X91500Y791500D02*
X150500D01*
Y844000D02*
Y869500D01*
Y894000D02*
Y919500D01*
X129500Y923000D02*
X137000Y930500D01*
X122000D02*
X137000D01*
X122000D02*
X129500Y923000D01*
X492000Y768000D02*
X586000D01*
X595000Y777000D01*
X90750Y593750D02*
Y852300D01*
X5000D02*
X90750D01*
X5000Y593750D02*
Y852300D01*
Y593750D02*
X90750D01*
X72000Y863500D02*
X79500Y856000D01*
X72000Y863500D02*
X87000D01*
X79500Y856000D02*
X87000Y863500D01*
X137800Y760000D02*
X141000D01*
X137800Y756800D02*
Y760000D01*
X138000Y723900D02*
Y727100D01*
X174000Y724000D02*
Y727200D01*
X215750Y714250D02*
Y744250D01*
X185750Y714250D02*
Y744250D01*
X163000Y670000D02*
X295000D01*
Y538000D02*
Y670000D01*
X163000Y538000D02*
X295000D01*
X163000D02*
Y670000D01*
X138000Y723900D02*
X141200D01*
X170800Y724000D02*
X174000D01*
X197000Y905000D02*
X219050D01*
Y850550D02*
Y905000D01*
X205500Y837000D02*
X219050Y850550D01*
X164500Y837000D02*
X173000D01*
X150950Y850550D02*
X164500Y837000D01*
X150950Y850550D02*
Y905000D01*
X173000D01*
X236450Y460000D02*
Y468450D01*
X250050Y482050D01*
X304450D01*
Y460000D02*
Y482050D01*
Y413950D02*
Y436000D01*
X250050Y413950D02*
X304450D01*
X236500Y427500D02*
X250050Y413950D01*
X236500Y427500D02*
Y435950D01*
X236450Y436000D02*
X236500Y435950D01*
X114000Y460000D02*
Y468500D01*
X127550Y482050D01*
X182000D01*
Y460000D02*
Y482050D01*
Y413950D02*
Y436000D01*
X127600Y413950D02*
X182000D01*
X114050Y427500D02*
X127600Y413950D01*
X114050Y427500D02*
Y435950D01*
X114000Y436000D02*
X114050Y435950D01*
D61*
X310000Y968000D02*
G03*
X330000Y948000I20000J0D01*
G01*
X310000Y988000D02*
G03*
X290000Y1008000I-20000J0D01*
G01*
X25000Y1007999D02*
G03*
X0Y988000I-2500J-22499D01*
G01*
X23000Y911000D02*
G03*
X-0Y929000I-20500J-2500D01*
G01*
Y865000D02*
G03*
X23000Y883000I2500J20500D01*
G01*
X23000Y464000D02*
G03*
X-0Y480000I-19500J-3500D01*
G01*
X0Y416000D02*
G03*
X23000Y436000I1500J21500D01*
G01*
X121000Y1008000D02*
G03*
X156000Y973000I35000J0D01*
G01*
D02*
G03*
X191000Y1008000I0J35000D01*
G01*
X-1Y36000D02*
G03*
X69600Y23000I36035J109D01*
G01*
X242399Y22999D02*
G03*
X312000Y36000I33587J12998D01*
G01*
X591213Y182213D02*
G03*
X600000Y203426I-21213J21213D01*
G01*
X438574Y42000D02*
G03*
X459787Y50787I0J30000D01*
G01*
X600000Y928000D02*
G03*
X580000Y948000I-20000J0D01*
G01*
X50000Y883000D02*
G03*
X50000Y911000I0J14000D01*
G01*
Y436000D02*
G03*
X50000Y464000I0J14000D01*
G01*
X310000Y968000D02*
Y988000D01*
X191000Y1008000D02*
X290000D01*
X0Y929000D02*
Y988000D01*
X25000Y1008000D02*
X121000D01*
X23000Y911000D02*
X50000D01*
X23000Y883000D02*
X50000D01*
X0Y480000D02*
Y865000D01*
X23000Y436000D02*
X50000D01*
X23000Y464000D02*
X50000D01*
X69600Y23000D02*
X242400D01*
X0Y36000D02*
Y416000D01*
X312000Y36000D02*
Y42000D01*
X600000Y203426D02*
Y928000D01*
X459787Y50787D02*
X591213Y182213D01*
X330000Y948000D02*
X580000D01*
X312000Y42000D02*
X438574D01*
D78*
X440000Y305000D02*
G03*
X440000Y305000I-2000J0D01*
G01*
X308500Y535500D02*
G03*
X308500Y535500I-2000J0D01*
G01*
X175000Y759000D02*
G03*
X175000Y759000I-2000J0D01*
G01*
X218000Y763850D02*
G03*
X218000Y763850I-2000J0D01*
G01*
X435500Y722500D02*
G03*
X435500Y722500I-2000J0D01*
G01*
D79*
X38165Y869331D02*
X36498Y870997D01*
X33166D01*
X31500Y869331D01*
Y862666D01*
X33166Y861000D01*
X36498D01*
X38165Y862666D01*
X46495Y870997D02*
X43163D01*
X41497Y869331D01*
Y862666D01*
X43163Y861000D01*
X46495D01*
X48161Y862666D01*
Y869331D01*
X46495Y870997D01*
X51494Y861000D02*
X54826D01*
X53160D01*
Y870997D01*
X51494Y869331D01*
X59824Y861000D02*
X63156D01*
X61490D01*
Y870997D01*
X59824Y869331D01*
X305165Y405331D02*
X303498Y406997D01*
X300166D01*
X298500Y405331D01*
Y398666D01*
X300166Y397000D01*
X303498D01*
X305165Y398666D01*
X313495Y406997D02*
X310163D01*
X308497Y405331D01*
Y398666D01*
X310163Y397000D01*
X313495D01*
X315161Y398666D01*
Y405331D01*
X313495Y406997D01*
X318494Y405331D02*
X320160Y406997D01*
X323492D01*
X325158Y405331D01*
Y403665D01*
X323492Y401998D01*
X325158Y400332D01*
Y398666D01*
X323492Y397000D01*
X320160D01*
X318494Y398666D01*
Y400332D01*
X320160Y401998D01*
X318494Y403665D01*
Y405331D01*
X320160Y401998D02*
X323492D01*
X32164Y425831D02*
X30498Y427497D01*
X27166D01*
X25500Y425831D01*
Y419166D01*
X27166Y417500D01*
X30498D01*
X32164Y419166D01*
X40495Y427497D02*
X37163D01*
X35497Y425831D01*
Y419166D01*
X37163Y417500D01*
X40495D01*
X42161Y419166D01*
Y425831D01*
X40495Y427497D01*
X45494D02*
X52158D01*
Y425831D01*
X45494Y419166D01*
Y417500D01*
X251164Y808331D02*
X249498Y809997D01*
X246166D01*
X244500Y808331D01*
Y801666D01*
X246166Y800000D01*
X249498D01*
X251164Y801666D01*
X259495Y809997D02*
X256163D01*
X254497Y808331D01*
Y801666D01*
X256163Y800000D01*
X259495D01*
X261161Y801666D01*
Y808331D01*
X259495Y809997D01*
X264494Y800000D02*
X267826D01*
X266160D01*
Y809997D01*
X264494Y808331D01*
X143250Y775497D02*
Y767166D01*
X144916Y765500D01*
X148248D01*
X149915Y767166D01*
Y775497D01*
X159911D02*
X156579Y773831D01*
X153247Y770498D01*
Y767166D01*
X154913Y765500D01*
X158245D01*
X159911Y767166D01*
Y768832D01*
X158245Y770498D01*
X153247D01*
X429500Y239497D02*
Y231166D01*
X431166Y229500D01*
X434498D01*
X436165Y231166D01*
Y239497D01*
X444495Y229500D02*
Y239497D01*
X439497Y234498D01*
X446161D01*
X442000Y784997D02*
Y776666D01*
X443666Y775000D01*
X446998D01*
X448665Y776666D01*
Y784997D01*
X458661Y775000D02*
X451997D01*
X458661Y781665D01*
Y783331D01*
X456995Y784997D01*
X453663D01*
X451997Y783331D01*
X430000Y712497D02*
Y704166D01*
X431666Y702500D01*
X434998D01*
X436665Y704166D01*
Y712497D01*
X439997Y702500D02*
X443329D01*
X441663D01*
Y712497D01*
X439997Y710831D01*
X334000Y362500D02*
X324003D01*
X327336Y365832D01*
X324003Y369165D01*
X334000D01*
Y372497D02*
X324003D01*
Y377495D01*
X325669Y379161D01*
X329002D01*
X330668Y377495D01*
Y372497D01*
X334000Y382494D02*
Y385826D01*
Y384160D01*
X324003D01*
X325669Y382494D01*
X220665Y127831D02*
X218998Y129497D01*
X215666D01*
X214000Y127831D01*
Y121166D01*
X215666Y119500D01*
X218998D01*
X220665Y121166D01*
X228995Y129497D02*
X225663D01*
X223997Y127831D01*
Y121166D01*
X225663Y119500D01*
X228995D01*
X230661Y121166D01*
Y127831D01*
X228995Y129497D01*
X233994Y119500D02*
X237326D01*
X235660D01*
Y129497D01*
X233994Y127831D01*
X242324D02*
X243990Y129497D01*
X247323D01*
X248989Y127831D01*
Y121166D01*
X247323Y119500D01*
X243990D01*
X242324Y121166D01*
Y127831D01*
X321665Y931831D02*
X319998Y933497D01*
X316666D01*
X315000Y931831D01*
Y925166D01*
X316666Y923500D01*
X319998D01*
X321665Y925166D01*
X329995Y933497D02*
X326663D01*
X324997Y931831D01*
Y925166D01*
X326663Y923500D01*
X329995D01*
X331661Y925166D01*
Y931831D01*
X329995Y933497D01*
X334994Y925166D02*
X336660Y923500D01*
X339992D01*
X341658Y925166D01*
Y931831D01*
X339992Y933497D01*
X336660D01*
X334994Y931831D01*
Y930164D01*
X336660Y928498D01*
X341658D01*
X110164Y785831D02*
X108498Y787497D01*
X105166D01*
X103500Y785831D01*
Y779166D01*
X105166Y777500D01*
X108498D01*
X110164Y779166D01*
X118495Y787497D02*
X115163D01*
X113497Y785831D01*
Y779166D01*
X115163Y777500D01*
X118495D01*
X120161Y779166D01*
Y785831D01*
X118495Y787497D01*
X130158D02*
X126826Y785831D01*
X123494Y782498D01*
Y779166D01*
X125160Y777500D01*
X128492D01*
X130158Y779166D01*
Y780832D01*
X128492Y782498D01*
X123494D01*
X523164Y839331D02*
X521498Y840997D01*
X518166D01*
X516500Y839331D01*
Y832666D01*
X518166Y831000D01*
X521498D01*
X523164Y832666D01*
X531495Y840997D02*
X528163D01*
X526497Y839331D01*
Y832666D01*
X528163Y831000D01*
X531495D01*
X533161Y832666D01*
Y839331D01*
X531495Y840997D01*
X536494Y831000D02*
X539826D01*
X538160D01*
Y840997D01*
X536494Y839331D01*
X544824D02*
X546490Y840997D01*
X549823D01*
X551489Y839331D01*
Y837664D01*
X549823Y835998D01*
X548157D01*
X549823D01*
X551489Y834332D01*
Y832666D01*
X549823Y831000D01*
X546490D01*
X544824Y832666D01*
X142000Y683497D02*
Y675166D01*
X143666Y673500D01*
X146998D01*
X148665Y675166D01*
Y683497D01*
X151997Y681831D02*
X153663Y683497D01*
X156995D01*
X158661Y681831D01*
Y680164D01*
X156995Y678498D01*
X155329D01*
X156995D01*
X158661Y676832D01*
Y675166D01*
X156995Y673500D01*
X153663D01*
X151997Y675166D01*
X353164Y157997D02*
X346500D01*
Y148000D01*
X353164D01*
X346500Y152998D02*
X349832D01*
X363161Y156331D02*
X361495Y157997D01*
X358163D01*
X356497Y156331D01*
Y149666D01*
X358163Y148000D01*
X361495D01*
X363161Y149666D01*
X373158Y157997D02*
X366494D01*
Y148000D01*
X373158D01*
X366494Y152998D02*
X369826D01*
X548500Y159000D02*
X538503D01*
Y163998D01*
X540169Y165665D01*
X543502D01*
X545168Y163998D01*
Y159000D01*
X548500Y170663D02*
Y173995D01*
X546834Y175661D01*
X543502D01*
X541836Y173995D01*
Y170663D01*
X543502Y168997D01*
X546834D01*
X548500Y170663D01*
X541836Y178994D02*
X546834D01*
X548500Y180660D01*
X546834Y182326D01*
X548500Y183992D01*
X546834Y185658D01*
X541836D01*
X548500Y193989D02*
Y190657D01*
X546834Y188990D01*
X543502D01*
X541836Y190657D01*
Y193989D01*
X543502Y195655D01*
X545168D01*
Y188990D01*
X541836Y198987D02*
X548500D01*
X545168D01*
X543502Y200653D01*
X541836Y202319D01*
Y203986D01*
X548000Y302000D02*
X538003D01*
X541335Y305332D01*
X538003Y308664D01*
X548000D01*
Y313663D02*
Y316995D01*
X546334Y318661D01*
X543002D01*
X541335Y316995D01*
Y313663D01*
X543002Y311997D01*
X546334D01*
X548000Y313663D01*
X538003Y328658D02*
X548000D01*
Y323660D01*
X546334Y321994D01*
X543002D01*
X541335Y323660D01*
Y328658D01*
X548000Y336989D02*
Y333657D01*
X546334Y331990D01*
X543002D01*
X541335Y333657D01*
Y336989D01*
X543002Y338655D01*
X544668D01*
Y331990D01*
X357164Y57997D02*
X350500D01*
Y52998D01*
X353832D01*
X350500D01*
Y48000D01*
X360497Y57997D02*
Y48000D01*
Y52998D01*
X367161D01*
Y57997D01*
Y48000D01*
X377158Y57997D02*
X373826D01*
X375492D01*
Y49666D01*
X373826Y48000D01*
X372160D01*
X370494Y49666D01*
X397152Y57997D02*
X390487D01*
Y52998D01*
X393819Y54665D01*
X395485D01*
X397152Y52998D01*
Y49666D01*
X395485Y48000D01*
X392153D01*
X390487Y49666D01*
X400484Y48000D02*
Y49666D01*
X402150D01*
Y48000D01*
X400484D01*
X408815Y56331D02*
X410481Y57997D01*
X413813D01*
X415479Y56331D01*
Y49666D01*
X413813Y48000D01*
X410481D01*
X408815Y49666D01*
Y56331D01*
X233000Y759497D02*
Y749500D01*
X237998D01*
X239664Y751166D01*
Y757831D01*
X237998Y759497D01*
X233000D01*
X242997D02*
X246329D01*
X244663D01*
Y749500D01*
X242997D01*
X246329D01*
X251327D02*
Y759497D01*
X256326D01*
X257992Y757831D01*
Y754498D01*
X256326Y752832D01*
X251327D01*
X254660D02*
X257992Y749500D01*
X269500Y749000D02*
Y758997D01*
X274498D01*
X276164Y757331D01*
Y753998D01*
X274498Y752332D01*
X269500D01*
X272832D02*
X276164Y749000D01*
X279497D02*
Y758997D01*
X284495D01*
X286161Y757331D01*
Y753998D01*
X284495Y752332D01*
X279497D01*
X289494Y749000D02*
Y758997D01*
X292826Y755665D01*
X296158Y758997D01*
Y749000D01*
X474000Y583497D02*
X480664D01*
X477332D01*
Y573500D01*
X483997Y583497D02*
Y573500D01*
Y578498D01*
X490661D01*
Y583497D01*
Y573500D01*
X483665Y538331D02*
X481998Y539997D01*
X478666D01*
X477000Y538331D01*
Y536665D01*
X478666Y534998D01*
X481998D01*
X483665Y533332D01*
Y531666D01*
X481998Y530000D01*
X478666D01*
X477000Y531666D01*
X486997Y539997D02*
X493661D01*
X490329D01*
Y530000D01*
X477000Y510997D02*
X483665D01*
X480332D01*
Y501000D01*
X486997D02*
Y510997D01*
X491995D01*
X493661Y509331D01*
Y505998D01*
X491995Y504332D01*
X486997D01*
X29500Y587995D02*
Y573000D01*
X39497D01*
X54492Y585496D02*
X51993Y587995D01*
X46994D01*
X44495Y585496D01*
Y575499D01*
X46994Y573000D01*
X51993D01*
X54492Y575499D01*
X59490Y587995D02*
Y573000D01*
X66988D01*
X69487Y575499D01*
Y585496D01*
X66988Y587995D01*
X59490D01*
X194000Y343495D02*
Y328500D01*
X203997D01*
X216493D02*
X211494D01*
X208995Y330999D01*
Y335998D01*
X211494Y338497D01*
X216493D01*
X218992Y335998D01*
Y333498D01*
X208995D01*
X226490Y328500D02*
Y340996D01*
Y335998D01*
X223990D01*
X228989D01*
X226490D01*
Y340996D01*
X228989Y343495D01*
X238985Y340996D02*
Y338497D01*
X236486D01*
X241485D01*
X238985D01*
Y330999D01*
X241485Y328500D01*
X40000Y329000D02*
Y343995D01*
X47498D01*
X49997Y341496D01*
Y336498D01*
X47498Y333998D01*
X40000D01*
X44998D02*
X49997Y329000D01*
X54995D02*
X59994D01*
X57494D01*
Y338997D01*
X54995D01*
X72490Y324002D02*
X74989D01*
X77488Y326501D01*
Y338997D01*
X69990D01*
X67491Y336498D01*
Y331499D01*
X69990Y329000D01*
X77488D01*
X82486Y343995D02*
Y329000D01*
Y336498D01*
X84985Y338997D01*
X89984D01*
X92483Y336498D01*
Y329000D01*
X99981Y341496D02*
Y338997D01*
X97481D01*
X102480D01*
X99981D01*
Y331499D01*
X102480Y329000D01*
X440000Y375000D02*
Y384997D01*
X444998D01*
X446665Y383331D01*
Y379998D01*
X444998Y378332D01*
X440000D01*
X443332D02*
X446665Y375000D01*
X454995D02*
X451663D01*
X449997Y376666D01*
Y379998D01*
X451663Y381665D01*
X454995D01*
X456661Y379998D01*
Y378332D01*
X449997D01*
X459994Y375000D02*
X464992D01*
X466658Y376666D01*
X464992Y378332D01*
X461660D01*
X459994Y379998D01*
X461660Y381665D01*
X466658D01*
X474989Y375000D02*
X471656D01*
X469990Y376666D01*
Y379998D01*
X471656Y381665D01*
X474989D01*
X476655Y379998D01*
Y378332D01*
X469990D01*
X481653Y383331D02*
Y381665D01*
X479987D01*
X483319D01*
X481653D01*
Y376666D01*
X483319Y375000D01*
M02*
