G04 Layer_Physical_Order=1*
G04 Layer_Color=255*
%FSLAX44Y44*%
%MOMM*%
G71*
G01*
G75*
%ADD10R,0.8000X0.6000*%
%ADD11R,0.6000X0.5900*%
%ADD12R,0.5900X0.6000*%
%ADD13R,0.3000X0.6600*%
%ADD14R,3.2200X1.6300*%
%ADD15R,1.0500X1.0200*%
%ADD16R,1.4700X1.1500*%
%ADD17R,0.6400X0.6300*%
%ADD18R,1.3500X1.8200*%
%ADD19R,1.4700X1.1100*%
%ADD20R,1.1500X1.4700*%
%ADD21R,1.9000X1.7500*%
%ADD22R,1.8000X1.1500*%
%ADD23R,1.4000X0.4000*%
%ADD24R,1.2600X0.6100*%
%ADD25R,0.5000X0.4000*%
%ADD26R,1.1000X1.6000*%
%ADD27R,0.6000X0.8000*%
%ADD28R,0.6000X0.5000*%
%ADD29R,0.5000X0.6000*%
%ADD30R,0.9800X3.4000*%
%ADD31C,0.7200*%
%ADD32R,0.9720X0.8020*%
%ADD33R,0.6300X0.6400*%
%ADD34R,0.4000X0.6000*%
%ADD35R,0.6000X1.2100*%
G04:AMPARAMS|DCode=36|XSize=0.59mm|YSize=0.6mm|CornerRadius=0.1475mm|HoleSize=0mm|Usage=FLASHONLY|Rotation=90.000|XOffset=0mm|YOffset=0mm|HoleType=Round|Shape=RoundedRectangle|*
%AMROUNDEDRECTD36*
21,1,0.5900,0.3050,0,0,90.0*
21,1,0.2950,0.6000,0,0,90.0*
1,1,0.2950,0.1525,0.1475*
1,1,0.2950,0.1525,-0.1475*
1,1,0.2950,-0.1525,-0.1475*
1,1,0.2950,-0.1525,0.1475*
%
%ADD36ROUNDEDRECTD36*%
%ADD37R,1.4000X1.2000*%
%ADD38R,1.6300X3.2200*%
%ADD39R,1.0200X1.0500*%
%ADD40R,0.9300X0.7900*%
%ADD41R,2.5000X1.3000*%
%ADD42R,2.6000X0.4000*%
%ADD43R,1.7000X2.1500*%
%ADD44R,0.6000X0.3500*%
%ADD45R,0.5000X0.2800*%
%ADD46R,0.7000X1.3000*%
%ADD47R,1.3000X2.5000*%
%ADD48R,2.8000X1.2000*%
%ADD49R,0.5000X0.5000*%
%ADD50R,0.7000X0.2200*%
%ADD51R,0.2200X0.7000*%
%ADD52R,0.3000X1.4500*%
%ADD53R,1.4500X0.3000*%
%ADD54R,1.7000X1.7000*%
%ADD55R,0.8500X0.2800*%
%ADD56R,0.2800X0.8500*%
%ADD57C,0.5000*%
%ADD58C,0.2000*%
%ADD59C,0.3000*%
%ADD60C,1.0000*%
%ADD61C,0.1000*%
%ADD62O,1.9000X1.0500*%
%ADD63R,1.9000X1.9000*%
%ADD64C,1.9000*%
%ADD65R,1.6500X1.6500*%
%ADD66C,1.6500*%
%ADD67C,5.5000*%
%ADD68C,5.0000*%
%ADD69O,18.0000X8.5000*%
%ADD70C,4.2000*%
%ADD71R,1.8000X1.8000*%
%ADD72C,1.8000*%
%ADD73R,1.8000X1.8000*%
%ADD74C,0.6000*%
%ADD75C,1.6000*%
G36*
X410000Y761000D02*
Y760750D01*
X406750D01*
Y754948D01*
X407000Y754344D01*
Y753350D01*
X407000D01*
Y740350D01*
X406750D01*
Y740000D01*
X358000D01*
Y760000D01*
Y769000D01*
X347000D01*
Y780000D01*
X410000D01*
Y761000D01*
D02*
G37*
G36*
X210000Y755000D02*
X211451Y753675D01*
Y690000D01*
X207086D01*
X205500Y691000D01*
Y698100D01*
X205500Y699900D01*
X205500Y701900D01*
Y709000D01*
X198479D01*
X197487Y710396D01*
X197290Y711000D01*
X197588Y712500D01*
X197239Y714256D01*
X196244Y715744D01*
X194756Y716739D01*
X193000Y717088D01*
X191244Y716739D01*
X189756Y715744D01*
X188761Y714256D01*
X188412Y712500D01*
X188710Y711000D01*
X188500Y709000D01*
X188500D01*
Y701900D01*
X188500Y700100D01*
X188500Y698100D01*
Y696218D01*
X186652Y695452D01*
X184302Y697802D01*
X183475Y698355D01*
X182500Y698549D01*
X181472D01*
X180635Y699544D01*
X180718Y700699D01*
X181073Y701918D01*
X182775Y703225D01*
X184298Y705209D01*
X185256Y707520D01*
X185582Y710000D01*
X185256Y712480D01*
X184298Y714791D01*
X182775Y716776D01*
X180791Y718298D01*
X178480Y719256D01*
X176000Y719582D01*
X173520Y719256D01*
X171209Y718298D01*
X169225Y716776D01*
X167702Y714791D01*
X166744Y712480D01*
X166418Y710000D01*
X166744Y707520D01*
X167702Y705209D01*
X168647Y703978D01*
X167671Y702626D01*
X167352Y702380D01*
X166500Y702549D01*
X153209D01*
X152744Y703244D01*
X151256Y704239D01*
X149500Y704588D01*
X147744Y704239D01*
X146256Y703244D01*
X145261Y701756D01*
X144912Y700000D01*
X145047Y699321D01*
X143204Y698336D01*
X132999Y708541D01*
Y712099D01*
X134852Y712852D01*
X136000Y712376D01*
X142100D01*
Y712350D01*
X154700D01*
Y717000D01*
X155700D01*
Y718000D01*
X160400D01*
Y721200D01*
X165000D01*
Y726200D01*
X166000D01*
Y727200D01*
X168600D01*
Y729400D01*
X176800D01*
Y735000D01*
X171800D01*
Y737000D01*
X176800D01*
Y741451D01*
X179562D01*
X181412Y740500D01*
X181761Y738744D01*
X182756Y737256D01*
X184244Y736261D01*
X186000Y735912D01*
X187756Y736261D01*
X189244Y737256D01*
X190239Y738744D01*
X190588Y740500D01*
X190399Y741451D01*
X191500Y743194D01*
X191846Y743451D01*
X200391D01*
X200756Y742906D01*
X202244Y741911D01*
X204000Y741562D01*
X205756Y741911D01*
X207244Y742906D01*
X208239Y744394D01*
X208588Y746150D01*
X208239Y747906D01*
X207244Y749394D01*
X206549Y749859D01*
Y755000D01*
X210000D01*
D02*
G37*
G36*
X134000Y750500D02*
X135500Y749000D01*
X143500D01*
Y747000D01*
X129000D01*
X127000Y749000D01*
Y775500D01*
X134000D01*
Y750500D01*
D02*
G37*
G36*
X595922Y203426D02*
Y202153D01*
X595672Y199618D01*
X595175Y197120D01*
X594436Y194683D01*
X593461Y192330D01*
X592261Y190083D01*
X590846Y187966D01*
X589230Y185997D01*
X588330Y185097D01*
X588330Y185097D01*
X588329Y185097D01*
X545348Y142115D01*
X543500Y142880D01*
X543500Y236254D01*
X545622Y238376D01*
X556950D01*
X557248Y238500D01*
X558700D01*
Y245000D01*
Y251500D01*
Y258000D01*
Y264500D01*
Y271500D01*
X543500D01*
Y277000D01*
X532500Y277000D01*
X532500Y275000D01*
X522500Y265000D01*
X522500Y250199D01*
X519220D01*
X519000Y250419D01*
X519000Y270720D01*
X521848Y272466D01*
X525320Y275431D01*
X528284Y278902D01*
X530669Y282794D01*
X532416Y287011D01*
X533481Y291449D01*
X533840Y296000D01*
X543500D01*
X543500Y333000D01*
X595922D01*
Y203426D01*
D02*
G37*
G36*
X474000Y273000D02*
X469000D01*
Y275000D01*
X453000D01*
Y273000D01*
X448000D01*
Y281000D01*
X453000D01*
Y279000D01*
X469000D01*
Y281000D01*
X474000D01*
Y273000D01*
D02*
G37*
G36*
X164750Y746950D02*
Y735550D01*
Y735252D01*
X164522Y734700D01*
X164100Y734278D01*
X163548Y734050D01*
X148452D01*
X147900Y734278D01*
X147478Y734700D01*
X147250Y735252D01*
Y735550D01*
Y748450D01*
Y748748D01*
X147478Y749300D01*
X147900Y749722D01*
X148452Y749950D01*
X161750D01*
X164750Y746950D01*
D02*
G37*
G36*
X143000Y667000D02*
Y656000D01*
Y646000D01*
Y635775D01*
X142349Y635246D01*
X141000Y634530D01*
X140400Y634649D01*
X109956D01*
X98302Y646302D01*
X98302Y646302D01*
X93802Y650802D01*
X92976Y651355D01*
X92000Y651549D01*
X88750D01*
Y656951D01*
X92500D01*
X93476Y657145D01*
X94302Y657698D01*
X104406Y667801D01*
X141332D01*
X143000Y667000D01*
D02*
G37*
G36*
X556950Y244000D02*
Y240000D01*
X544950D01*
X540950Y236000D01*
Y224000D01*
X528000D01*
X528000Y241395D01*
X530605Y244000D01*
X556950Y244000D01*
D02*
G37*
G36*
X517700Y238250D02*
Y233950D01*
X523700D01*
X524950Y232468D01*
Y213500D01*
X494200Y213500D01*
X494200Y229850D01*
X507100D01*
Y236333D01*
X507104Y236369D01*
X509100Y238250D01*
X517700Y238250D01*
D02*
G37*
G36*
X417750Y660750D02*
X417750Y654750D01*
X426500Y654750D01*
X426500Y621000D01*
X411750Y621000D01*
X411750Y669750D01*
X417750D01*
Y660750D01*
D02*
G37*
G36*
X288749Y769995D02*
X289376Y769526D01*
X289376Y748000D01*
X289852Y746852D01*
X336876Y699827D01*
Y697528D01*
X334876Y695850D01*
X329850D01*
Y687000D01*
X328850D01*
Y686000D01*
X321600D01*
Y682102D01*
X319634Y681226D01*
X318624Y682029D01*
X318624Y702500D01*
X318148Y703648D01*
X317000Y704124D01*
X305000D01*
X303852Y703648D01*
X303376Y702500D01*
X303376Y680000D01*
X303852Y678852D01*
X303900Y678804D01*
Y678150D01*
X304554D01*
X312876Y669827D01*
Y667000D01*
X297500D01*
Y661549D01*
X290280D01*
X290239Y661756D01*
X289244Y663244D01*
X287756Y664239D01*
X286000Y664588D01*
X284244Y664239D01*
X282756Y663244D01*
X282411Y662729D01*
X280171Y662253D01*
X279213Y662914D01*
X279082Y663029D01*
X278739Y664756D01*
X277744Y666244D01*
X276256Y667239D01*
X274500Y667588D01*
X272744Y667239D01*
X271256Y666244D01*
X270791Y665549D01*
X266950D01*
X265975Y665355D01*
X265148Y664802D01*
X261894Y661549D01*
X222267D01*
X221502Y663397D01*
X225802Y667698D01*
X226355Y668525D01*
X226549Y669500D01*
Y672500D01*
X273000D01*
Y681250D01*
Y690000D01*
X236549D01*
Y695444D01*
X262302Y721198D01*
X262855Y722025D01*
X263049Y723000D01*
Y755944D01*
X276278Y769173D01*
X278520Y768244D01*
X281000Y767918D01*
X283480Y768244D01*
X285791Y769202D01*
X287376Y770418D01*
X288749Y769995D01*
D02*
G37*
G36*
X541876Y271500D02*
X542352Y270352D01*
X543500Y269876D01*
X557076D01*
Y265000D01*
X541700D01*
Y257549D01*
X538806D01*
X535302Y261052D01*
X534476Y261605D01*
X533500Y261799D01*
X526950D01*
X526215Y261653D01*
X524529Y262792D01*
X524397Y264601D01*
X533648Y273852D01*
X533879Y274409D01*
X534123Y275000D01*
X534123Y275376D01*
X541876Y275376D01*
Y271500D01*
D02*
G37*
G36*
X474000Y243000D02*
X469000D01*
Y245000D01*
X453000D01*
Y243000D01*
X448000D01*
Y251000D01*
X453000D01*
Y249000D01*
X469000D01*
Y251000D01*
X474000D01*
Y243000D01*
D02*
G37*
G36*
X263891Y802565D02*
X263891Y802565D01*
X264124Y801394D01*
X264787Y800402D01*
X271352Y793837D01*
X271352Y793837D01*
X272344Y793174D01*
X272539Y793135D01*
X277311Y788363D01*
X276996Y786124D01*
X276209Y785798D01*
X274224Y784275D01*
X272702Y782291D01*
X271744Y779980D01*
X271418Y777500D01*
X271744Y775020D01*
X272673Y772778D01*
X258698Y758802D01*
X258145Y757975D01*
X257951Y757000D01*
Y724056D01*
X233549Y699654D01*
X231549Y700482D01*
Y706444D01*
X248302Y723198D01*
X248855Y724025D01*
X249049Y725000D01*
Y768273D01*
X251291Y769202D01*
X253275Y770724D01*
X254798Y772709D01*
X255755Y775020D01*
X256082Y777500D01*
X255755Y779980D01*
X254798Y782291D01*
X253275Y784275D01*
X251291Y785798D01*
X249559Y786516D01*
Y788733D01*
X260713Y799887D01*
X261376Y800880D01*
X261609Y802050D01*
Y808500D01*
X263891D01*
Y802565D01*
D02*
G37*
G36*
X408817Y704626D02*
X409709Y704626D01*
X410210Y702901D01*
X409185Y701050D01*
X408350D01*
X402000D01*
Y694000D01*
Y686950D01*
X408789Y686950D01*
X409149Y685954D01*
X409045Y685663D01*
X407765Y684124D01*
X376371D01*
X375792Y684957D01*
X376843Y686950D01*
X381000D01*
Y693000D01*
X373150D01*
Y689609D01*
X371302Y688844D01*
X369446Y690699D01*
X369009Y690881D01*
X368615Y691144D01*
X367878Y691291D01*
X366926Y691926D01*
X366291Y692878D01*
X366144Y693615D01*
X365881Y694009D01*
X365700Y694446D01*
X357367Y702779D01*
X357670Y703663D01*
X358348Y704626D01*
X408817D01*
D02*
G37*
G36*
X53451Y716500D02*
Y704000D01*
X6500Y704000D01*
Y716500D01*
X53451Y716500D01*
D02*
G37*
G36*
X101398Y672048D02*
X101402Y672006D01*
X91444Y662049D01*
X88750D01*
Y667500D01*
X62049D01*
Y676900D01*
X88750D01*
Y682451D01*
X90994D01*
X101398Y672048D01*
D02*
G37*
G36*
X317000Y681000D02*
X322000Y676000D01*
Y660500D01*
X315500Y660550D01*
X315000Y661050D01*
Y663000D01*
X306250D01*
Y665000D01*
X315000D01*
Y667000D01*
X314500D01*
Y667500D01*
Y670500D01*
X305000Y680000D01*
X305000Y702500D01*
X317000D01*
X317000Y681000D01*
D02*
G37*
G36*
X305000Y800943D02*
X304912Y800500D01*
X305000Y800057D01*
X305000Y752850D01*
X364551Y693298D01*
X364761Y692244D01*
X365756Y690756D01*
X367244Y689761D01*
X368298Y689551D01*
X373000Y684850D01*
X373000Y682500D01*
X408500D01*
Y679750D01*
X417750D01*
Y671374D01*
X411750D01*
X411452Y671250D01*
X408750D01*
Y657250D01*
X373500D01*
Y659550D01*
X369000D01*
X364500D01*
Y657250D01*
X338500D01*
X338500Y700500D01*
X291000Y748000D01*
X291000Y781500D01*
X286500Y786000D01*
X286500Y819293D01*
X287000Y819500D01*
X305000D01*
X305000Y800943D01*
D02*
G37*
G36*
X417500Y734500D02*
X410750D01*
Y706250D01*
X358000D01*
Y737500D01*
X417500D01*
Y734500D01*
D02*
G37*
G36*
X53451Y702376D02*
Y652355D01*
X53348Y652252D01*
X52795Y651425D01*
X52601Y650450D01*
Y647550D01*
X52795Y646575D01*
X53348Y645748D01*
X55398Y643698D01*
X56225Y643145D01*
X57200Y642951D01*
X59103D01*
X60750Y642100D01*
X60750Y640951D01*
Y638078D01*
X58496D01*
X58256Y638239D01*
X56500Y638588D01*
X54744Y638239D01*
X53256Y637244D01*
X52261Y635756D01*
X51912Y634000D01*
X52261Y632244D01*
X53256Y630756D01*
X54744Y629761D01*
X56500Y629412D01*
X58256Y629761D01*
X58496Y629922D01*
X59336D01*
X60750Y628507D01*
X60750Y626100D01*
X58978Y625549D01*
X49005D01*
X43049Y631506D01*
Y662500D01*
X42855Y663475D01*
X42302Y664302D01*
X32302Y674302D01*
X31476Y674855D01*
X31249Y674900D01*
X31446Y676900D01*
X32750D01*
Y692900D01*
X6078D01*
X4750Y692900D01*
X4078Y694622D01*
Y700578D01*
X6078Y702300D01*
X32750D01*
Y702376D01*
X53451Y702376D01*
D02*
G37*
G36*
X382500Y302500D02*
X380000D01*
Y310000D01*
X379500Y310500D01*
X379150Y310850D01*
Y311250D01*
X378750D01*
X375500Y314500D01*
Y338000D01*
X382500D01*
Y302500D01*
D02*
G37*
G36*
X360500Y314500D02*
X362500Y312500D01*
X362500Y302500D01*
X360000D01*
X360000Y310500D01*
X354500Y316000D01*
X354500Y338000D01*
X360500Y338000D01*
X360500Y314500D01*
D02*
G37*
G36*
X143400Y727200D02*
X146000D01*
Y725200D01*
X143400D01*
Y721650D01*
X142100D01*
Y718000D01*
X146800D01*
Y716000D01*
X142100D01*
Y714000D01*
X136000D01*
Y728395D01*
X137005Y729400D01*
X143400D01*
Y727200D01*
D02*
G37*
G36*
X437019Y312679D02*
X438101Y311068D01*
X438101Y310950D01*
X437912Y310000D01*
X438261Y308244D01*
X439256Y306756D01*
X440744Y305761D01*
X442500Y305412D01*
X444256Y305761D01*
X445744Y306756D01*
X446739Y308244D01*
X447088Y310000D01*
X447038Y310250D01*
X448631Y312250D01*
X455210D01*
X456262Y311198D01*
X456350Y311139D01*
Y306350D01*
X460632D01*
X461398Y304502D01*
X455444Y298549D01*
X448278D01*
X446774Y300052D01*
X445947Y300605D01*
X444972Y300799D01*
X444250D01*
Y301150D01*
X434150D01*
Y311250D01*
X434150D01*
X434719Y312585D01*
X436722Y312900D01*
X437019Y312679D01*
D02*
G37*
G36*
X53451Y723444D02*
Y718123D01*
X32750Y718123D01*
Y718300D01*
X6078D01*
X4750Y718300D01*
X4078Y720022D01*
Y725978D01*
X6078Y727700D01*
X32750D01*
Y733151D01*
X43744D01*
X53451Y723444D01*
D02*
G37*
G36*
X44000Y843500D02*
Y831000D01*
X6500Y831000D01*
Y843500D01*
X44000Y843500D01*
D02*
G37*
G36*
X392500Y212500D02*
X393350Y211650D01*
Y210250D01*
X394750D01*
X399000Y206000D01*
X399000Y176500D01*
X392500D01*
X392500Y207500D01*
X390000Y210000D01*
X390000Y219000D01*
X392500D01*
X392500Y212500D01*
D02*
G37*
G36*
X141848Y612198D02*
X142675Y611645D01*
X143000Y611581D01*
Y605000D01*
X151750D01*
Y603000D01*
X143000D01*
Y602124D01*
X138673D01*
X138148Y602648D01*
X137150Y603061D01*
Y607450D01*
X132500D01*
Y608450D01*
X131500D01*
Y613150D01*
X127850D01*
Y613150D01*
X127650D01*
Y613150D01*
X124000D01*
Y608450D01*
X122000D01*
Y613150D01*
X118350D01*
X117350Y614736D01*
Y619051D01*
X134995D01*
X141848Y612198D01*
D02*
G37*
G36*
X138000Y600500D02*
X159000D01*
Y597550D01*
X139193Y597550D01*
X139000Y597588D01*
X138807Y597550D01*
X137050Y597550D01*
X129500Y590000D01*
X116000Y590000D01*
Y582950D01*
X102500D01*
Y590000D01*
X102500Y601500D01*
X137000Y601500D01*
X138000Y600500D01*
D02*
G37*
G36*
X24550Y1003947D02*
X24777Y1003966D01*
X25000Y1003922D01*
X34538D01*
X34617Y1001922D01*
X32199Y1001731D01*
X27761Y1000666D01*
X23544Y998919D01*
X19651Y996534D01*
X16180Y993569D01*
X13216Y990098D01*
X10831Y986206D01*
X9084Y981989D01*
X8019Y977551D01*
X7660Y973000D01*
X8019Y968449D01*
X9084Y964011D01*
X10831Y959794D01*
X13216Y955901D01*
X16180Y952430D01*
X19651Y949466D01*
X23544Y947081D01*
X27761Y945334D01*
X32199Y944268D01*
X36750Y943910D01*
X41301Y944268D01*
X45739Y945334D01*
X49956Y947081D01*
X53849Y949466D01*
X57319Y952430D01*
X60284Y955901D01*
X62669Y959794D01*
X64416Y964011D01*
X65482Y968449D01*
X65840Y973000D01*
X65482Y977551D01*
X64416Y981989D01*
X62669Y986206D01*
X60284Y990098D01*
X57319Y993569D01*
X53849Y996534D01*
X49956Y998919D01*
X45739Y1000666D01*
X41301Y1001731D01*
X38883Y1001922D01*
X38962Y1003922D01*
X117197D01*
X117629Y1000639D01*
X117716Y1000385D01*
X117733Y1000116D01*
X118918Y995694D01*
X119037Y995453D01*
X119090Y995189D01*
X120842Y990959D01*
X120991Y990735D01*
X121078Y990481D01*
X123367Y986516D01*
X123544Y986314D01*
X123663Y986072D01*
X126450Y982440D01*
X126652Y982263D01*
X126802Y982039D01*
X130039Y978802D01*
X130263Y978652D01*
X130440Y978450D01*
X134072Y975663D01*
X134314Y975544D01*
X134516Y975367D01*
X138481Y973078D01*
X138736Y972991D01*
X138959Y972842D01*
X143189Y971090D01*
X143453Y971037D01*
X143694Y970918D01*
X148116Y969733D01*
X148385Y969716D01*
X148639Y969629D01*
X153179Y969032D01*
X153380Y969045D01*
X153577Y968999D01*
X155867Y968924D01*
X156000Y968946D01*
X156133Y968924D01*
X158422Y968999D01*
X158620Y969045D01*
X158821Y969032D01*
X163361Y969629D01*
X163615Y969716D01*
X163884Y969733D01*
X168306Y970918D01*
X168547Y971037D01*
X168811Y971090D01*
X173041Y972842D01*
X173265Y972991D01*
X173519Y973078D01*
X177484Y975367D01*
X177686Y975544D01*
X177928Y975663D01*
X181560Y978450D01*
X181737Y978652D01*
X181961Y978802D01*
X185198Y982039D01*
X185348Y982263D01*
X185550Y982440D01*
X188337Y986072D01*
X188456Y986314D01*
X188633Y986516D01*
X190922Y990481D01*
X191009Y990735D01*
X191158Y990959D01*
X192910Y995189D01*
X192963Y995453D01*
X193082Y995694D01*
X194267Y1000116D01*
X194284Y1000385D01*
X194371Y1000639D01*
X194803Y1003922D01*
X274538D01*
X274617Y1001922D01*
X272199Y1001731D01*
X267761Y1000666D01*
X263544Y998919D01*
X259652Y996534D01*
X256180Y993569D01*
X253216Y990098D01*
X250831Y986206D01*
X249084Y981989D01*
X248018Y977551D01*
X247660Y973000D01*
X248018Y968449D01*
X249084Y964011D01*
X250831Y959794D01*
X253216Y955901D01*
X256180Y952430D01*
X259652Y949466D01*
X263544Y947081D01*
X267761Y945334D01*
X272199Y944268D01*
X276750Y943910D01*
X281301Y944268D01*
X285739Y945334D01*
X289956Y947081D01*
X293848Y949466D01*
X297320Y952430D01*
X300284Y955901D01*
X302669Y959794D01*
X303650Y962163D01*
X306187Y963177D01*
X306538Y963024D01*
X306861Y961399D01*
X307015Y961028D01*
X307093Y960634D01*
X308594Y957011D01*
X308817Y956677D01*
X308971Y956306D01*
X311149Y953046D01*
X311433Y952762D01*
X311656Y952428D01*
X314428Y949656D01*
X314762Y949433D01*
X315046Y949149D01*
X318306Y946971D01*
X318677Y946817D01*
X319011Y946594D01*
X322634Y945093D01*
X323027Y945015D01*
X323399Y944861D01*
X327244Y944096D01*
X327546D01*
X327840Y944023D01*
X329800Y943927D01*
X329900Y943942D01*
X330000Y943922D01*
X580000D01*
X581568Y943922D01*
X584644Y943310D01*
X587542Y942110D01*
X590149Y940367D01*
X592367Y938150D01*
X594110Y935542D01*
X595310Y932644D01*
X595922Y929568D01*
X595922Y928000D01*
Y802540D01*
X593922Y802244D01*
X592888Y805652D01*
X590799Y809561D01*
X587987Y812987D01*
X584561Y815799D01*
X582000Y817167D01*
Y797000D01*
Y776833D01*
X584561Y778201D01*
X587987Y781013D01*
X590799Y784439D01*
X592888Y788348D01*
X593922Y791756D01*
X595922Y791460D01*
Y744650D01*
X584500D01*
Y735000D01*
Y725350D01*
X595922D01*
Y677540D01*
X593922Y677244D01*
X592888Y680652D01*
X590799Y684561D01*
X587987Y687987D01*
X584561Y690799D01*
X582000Y692167D01*
Y672000D01*
Y651833D01*
X584561Y653201D01*
X587987Y656013D01*
X590799Y659439D01*
X592888Y663348D01*
X593922Y666756D01*
X595922Y666460D01*
Y591650D01*
X583500D01*
Y582000D01*
Y572350D01*
X595922D01*
Y334624D01*
X543500D01*
X542352Y334148D01*
X541876Y333000D01*
X541876Y297624D01*
X533840D01*
X533705Y297706D01*
X533481Y300551D01*
X532416Y304989D01*
X530669Y309206D01*
X528284Y313099D01*
X525320Y316569D01*
X521848Y319534D01*
X517956Y321919D01*
X513739Y323666D01*
X509301Y324731D01*
X504750Y325090D01*
X500199Y324731D01*
X495761Y323666D01*
X491544Y321919D01*
X487651Y319534D01*
X484180Y316569D01*
X481216Y313099D01*
X478831Y309206D01*
X477084Y304989D01*
X476018Y300551D01*
X475660Y296000D01*
X476018Y291449D01*
X477084Y287011D01*
X478831Y282794D01*
X481216Y278902D01*
X484180Y275431D01*
X487651Y272466D01*
X491544Y270081D01*
X495761Y268334D01*
X500199Y267269D01*
X504750Y266910D01*
X509301Y267269D01*
X513739Y268334D01*
X515713Y269152D01*
X517376Y268041D01*
X517376Y256763D01*
X516200Y255250D01*
X509700D01*
Y258000D01*
X505000D01*
Y259000D01*
X504000D01*
Y263650D01*
X491400D01*
Y254350D01*
X489835Y253299D01*
X487750D01*
X486775Y253105D01*
X485948Y252552D01*
X477624Y244228D01*
X475624Y245057D01*
Y251000D01*
X475148Y252148D01*
X474000Y252624D01*
X469000D01*
X467852Y252148D01*
X467376Y251000D01*
Y250624D01*
X454624D01*
Y251000D01*
X454148Y252148D01*
X453000Y252624D01*
X451231D01*
X448049Y255806D01*
Y258000D01*
X448000D01*
Y265500D01*
X447433D01*
X446605Y267500D01*
X450481Y271376D01*
X453000D01*
X454148Y271852D01*
X454624Y273000D01*
Y273376D01*
X467376D01*
Y273000D01*
X467852Y271852D01*
X469000Y271376D01*
X474000D01*
X475148Y271852D01*
X475624Y273000D01*
Y281000D01*
X475148Y282148D01*
X474000Y282624D01*
X469000D01*
X467852Y282148D01*
X467376Y281000D01*
Y280624D01*
X454624D01*
Y281000D01*
X454148Y282148D01*
X453000Y282624D01*
X448000D01*
X446852Y282148D01*
X446376Y281000D01*
Y276252D01*
X446250Y276168D01*
X444250Y277236D01*
Y292622D01*
X446246Y293645D01*
X447222Y293451D01*
X456500D01*
X457476Y293645D01*
X458302Y294198D01*
X471802Y307698D01*
X472355Y308525D01*
X472549Y309500D01*
Y313059D01*
X496441Y336951D01*
X535500D01*
X536475Y337145D01*
X537302Y337698D01*
X550411Y350806D01*
X552355Y350001D01*
X554900Y349666D01*
X557445Y350001D01*
X559817Y350983D01*
X561854Y352546D01*
X563417Y354583D01*
X564399Y356955D01*
X564734Y359500D01*
X564399Y362045D01*
X563417Y364417D01*
X561854Y366454D01*
X559817Y368017D01*
X557445Y368999D01*
X554900Y369334D01*
X552355Y368999D01*
X549983Y368017D01*
X547946Y366454D01*
X546383Y364417D01*
X545401Y362045D01*
X545066Y359500D01*
X545401Y356955D01*
X546383Y354583D01*
X546642Y354246D01*
X534444Y342049D01*
X518917D01*
X518152Y343897D01*
X525046Y350792D01*
X526955Y350001D01*
X529500Y349666D01*
X532045Y350001D01*
X534417Y350983D01*
X536454Y352546D01*
X538017Y354583D01*
X538999Y356955D01*
X539334Y359500D01*
X538999Y362045D01*
X538017Y364417D01*
X536454Y366454D01*
X534417Y368017D01*
X532045Y368999D01*
X529500Y369334D01*
X526955Y368999D01*
X524583Y368017D01*
X522546Y366454D01*
X520983Y364417D01*
X520001Y362045D01*
X519666Y359500D01*
X520001Y356955D01*
X520983Y354583D01*
X521263Y354218D01*
X512594Y345549D01*
X493936D01*
X492960Y345355D01*
X492133Y344802D01*
X467498Y320167D01*
X465650Y320932D01*
Y324650D01*
X460455D01*
X459000Y326105D01*
Y338000D01*
X450000D01*
Y329049D01*
X447000D01*
Y331000D01*
X439263D01*
X438873Y331309D01*
X437844Y332840D01*
X437839Y333000D01*
X438038Y334000D01*
X437689Y335756D01*
X436694Y337244D01*
X435206Y338239D01*
X433450Y338588D01*
X431694Y338239D01*
X431000Y337775D01*
X429000Y338766D01*
Y339500D01*
X420100D01*
Y339500D01*
X419900D01*
Y339500D01*
X411000D01*
X411000Y339500D01*
X409000Y339389D01*
X408000Y339588D01*
X406244Y339239D01*
X404756Y338244D01*
X403761Y336756D01*
X403412Y335000D01*
X403761Y333244D01*
X404756Y331756D01*
X406244Y330761D01*
X408000Y330412D01*
X409000Y330611D01*
X409072Y330607D01*
X410706Y329558D01*
X411000Y329187D01*
Y327500D01*
X415450D01*
Y325500D01*
X411000D01*
Y322650D01*
X410850D01*
Y319000D01*
X415550D01*
Y318000D01*
X416550D01*
Y313350D01*
X423701D01*
Y311250D01*
X399765D01*
X398696Y313250D01*
X398763Y313350D01*
X401150D01*
Y322250D01*
Y325950D01*
X396500D01*
Y326950D01*
X395500D01*
Y331650D01*
X391850D01*
Y331650D01*
X388450D01*
Y327000D01*
X386450D01*
Y331650D01*
X384124D01*
Y338000D01*
X383648Y339148D01*
X382500Y339624D01*
X375500D01*
X374352Y339148D01*
X373876Y338000D01*
Y331650D01*
X373850D01*
Y322350D01*
Y313350D01*
X373850D01*
X373852Y313246D01*
X371912Y311250D01*
X367099D01*
X366572Y311926D01*
X366568Y311937D01*
X367662Y313350D01*
X371100D01*
Y317000D01*
X366400D01*
Y319000D01*
X371100D01*
Y322350D01*
X371150D01*
Y326000D01*
X366450D01*
Y327000D01*
X365450D01*
Y331650D01*
X362124D01*
X362123Y338000D01*
X361648Y339148D01*
X360500Y339624D01*
X354500Y339624D01*
X353352Y339148D01*
X352876Y338000D01*
X352876Y333142D01*
X350876Y331650D01*
X348000D01*
Y326950D01*
X347000D01*
Y325950D01*
X342350D01*
Y322250D01*
Y313350D01*
X346451D01*
Y301150D01*
X343250D01*
Y290350D01*
Y280350D01*
Y270350D01*
Y260350D01*
Y250350D01*
Y240350D01*
Y230350D01*
Y220350D01*
X353350D01*
Y210250D01*
X366862D01*
X367931Y208250D01*
X367764Y208000D01*
X365000D01*
Y199100D01*
X365000D01*
Y198900D01*
X365000D01*
Y190000D01*
X365000D01*
X365424Y188000D01*
X365261Y187756D01*
X364912Y186000D01*
X365261Y184244D01*
X366256Y182756D01*
X367744Y181761D01*
X369500Y181412D01*
X371256Y181761D01*
X372598Y182658D01*
X372744Y182756D01*
X374756Y182756D01*
X374902Y182658D01*
X376244Y181761D01*
X378000Y181412D01*
X379756Y181761D01*
X381244Y182756D01*
X382239Y184244D01*
X382588Y186000D01*
X382239Y187756D01*
X382155Y187881D01*
X383278Y189800D01*
X386050D01*
Y194450D01*
X388050D01*
Y189800D01*
X390876D01*
X390877Y176500D01*
X391352Y175352D01*
X392500Y174876D01*
X399000D01*
X400148Y175352D01*
X400624Y176500D01*
X400624Y182347D01*
X402624Y182953D01*
X402756Y182756D01*
X404244Y181761D01*
X406000Y181412D01*
X407756Y181761D01*
X409244Y182756D01*
X411506D01*
X412994Y181761D01*
X414750Y181412D01*
X416506Y181761D01*
X417994Y182756D01*
X418989Y184244D01*
X419338Y186000D01*
X418989Y187756D01*
X418826Y188000D01*
X419250Y190000D01*
X419250Y190000D01*
Y197100D01*
X419250Y198900D01*
X419250Y200900D01*
Y208000D01*
X416916D01*
X416749Y208250D01*
X417818Y210250D01*
X434150D01*
Y220350D01*
X437500D01*
Y222250D01*
X432750D01*
Y221750D01*
X387250D01*
Y216000D01*
X385250D01*
Y221750D01*
X354750D01*
Y230350D01*
Y240350D01*
Y250350D01*
Y260350D01*
Y271040D01*
X355079Y271305D01*
X356750Y271925D01*
X357744Y271261D01*
X359500Y270912D01*
X361256Y271261D01*
X362744Y272256D01*
X363739Y273744D01*
X364088Y275500D01*
X363739Y277256D01*
X362744Y278744D01*
X363595Y280581D01*
X364239Y281544D01*
X364588Y283300D01*
X364239Y285056D01*
X363244Y286544D01*
X361756Y287539D01*
X360000Y287888D01*
X358244Y287539D01*
X356756Y286544D01*
X356750Y286536D01*
X354750Y287143D01*
Y299750D01*
X355250D01*
Y305500D01*
X357250D01*
Y299750D01*
X365250D01*
Y305500D01*
X367250D01*
Y299750D01*
X432750D01*
Y290350D01*
Y278896D01*
X432268Y278442D01*
X430750Y277589D01*
X429500Y277838D01*
X427744Y277489D01*
X426256Y276494D01*
X425261Y275006D01*
X424912Y273250D01*
X425261Y271494D01*
X426256Y270006D01*
X427744Y269011D01*
X429500Y268662D01*
X430750Y268911D01*
X432268Y268058D01*
X432750Y267604D01*
Y260350D01*
Y259250D01*
X438500D01*
Y257250D01*
X432750D01*
Y250350D01*
Y240350D01*
Y230350D01*
Y224250D01*
X438500D01*
Y223250D01*
X439500D01*
Y220350D01*
X444250D01*
Y222920D01*
X445951Y224148D01*
X446627Y223943D01*
X447500Y223296D01*
X447500Y220600D01*
X447500Y218600D01*
Y216950D01*
X452000D01*
X456500D01*
Y218600D01*
X456500Y220400D01*
X456500Y222400D01*
Y225945D01*
X459555Y229000D01*
X462500D01*
Y230951D01*
X474160D01*
X475600Y229600D01*
X475600Y228951D01*
Y221750D01*
X481850D01*
Y229600D01*
X479463D01*
X478856Y231600D01*
X479002Y231698D01*
X487044Y239740D01*
X488800Y238667D01*
Y235500D01*
X493500D01*
Y233500D01*
X488800D01*
Y231600D01*
X488800Y229850D01*
X486904Y229600D01*
X483850D01*
Y221750D01*
X490100D01*
Y227478D01*
X490889Y228081D01*
X492100Y228435D01*
X492576Y228051D01*
X492576Y213600D01*
X492576Y213500D01*
X492577Y213498D01*
X493052Y212352D01*
X493127Y212283D01*
X493300Y211900D01*
X493542Y211900D01*
X494200Y211876D01*
X495407Y211876D01*
X524950Y211876D01*
X526098Y212352D01*
X526408Y213100D01*
X528650D01*
Y217750D01*
X529650D01*
Y218750D01*
X534350D01*
Y222376D01*
X539876D01*
X541876Y220760D01*
X541876Y142880D01*
X542000Y142582D01*
Y142259D01*
X542228Y142031D01*
X542352Y141732D01*
X542994Y139761D01*
X456903Y53671D01*
X456903Y53670D01*
X456003Y52770D01*
X454034Y51154D01*
X451917Y49739D01*
X449670Y48539D01*
X447318Y47564D01*
X444880Y46825D01*
X442382Y46328D01*
X439847Y46078D01*
X312000D01*
X310439Y45768D01*
X309116Y44884D01*
X308232Y43561D01*
X307922Y42000D01*
X307922Y36000D01*
X307922Y35999D01*
X307922Y35999D01*
X307922Y33782D01*
X307310Y29391D01*
X306096Y25126D01*
X304305Y21070D01*
X301971Y17300D01*
X299138Y13888D01*
X295861Y10901D01*
X292203Y8396D01*
X288233Y6420D01*
X284029Y5011D01*
X279670Y4197D01*
X275241Y3993D01*
X270826Y4403D01*
X266510Y5419D01*
X262375Y7022D01*
X258502Y9180D01*
X254965Y11853D01*
X251830Y14990D01*
X249159Y18529D01*
X247003Y22403D01*
X246204Y24470D01*
X246178Y24512D01*
X246168Y24561D01*
X245752Y25183D01*
X245352Y25814D01*
X245311Y25842D01*
X245284Y25884D01*
X244662Y26299D01*
X244050Y26730D01*
X244002Y26740D01*
X243961Y26768D01*
X243227Y26914D01*
X242497Y27077D01*
X242448Y27069D01*
X242400Y27078D01*
X69600Y27078D01*
X69559Y27070D01*
X69517Y27077D01*
X68779Y26915D01*
X68039Y26768D01*
X68004Y26744D01*
X67963Y26735D01*
X67344Y26303D01*
X66716Y25884D01*
X66693Y25849D01*
X66658Y25824D01*
X66252Y25188D01*
X65832Y24561D01*
X65824Y24519D01*
X65801Y24483D01*
X64996Y22422D01*
X62832Y18559D01*
X60157Y15032D01*
X57021Y11908D01*
X53484Y9245D01*
X49613Y7096D01*
X45483Y5501D01*
X41173Y4491D01*
X36765Y4084D01*
X32342Y4289D01*
X27991Y5102D01*
X23792Y6507D01*
X19828Y8477D01*
X16173Y10976D01*
X12898Y13954D01*
X10064Y17355D01*
X7727Y21115D01*
X5930Y25161D01*
X4708Y29416D01*
X4084Y33798D01*
X4078Y36001D01*
Y412096D01*
X6821Y412445D01*
X7202Y412573D01*
X7600Y412623D01*
X11607Y413965D01*
X11955Y414164D01*
X12336Y414291D01*
X16004Y416389D01*
X16307Y416652D01*
X16656Y416851D01*
X19844Y419624D01*
X20090Y419941D01*
X20393Y420205D01*
X22979Y423546D01*
X23158Y423905D01*
X23404Y424223D01*
X25289Y428004D01*
X25394Y428392D01*
X25573Y428751D01*
X26437Y431922D01*
X50000D01*
X50133Y431948D01*
X50267Y431931D01*
X52094Y432050D01*
X52482Y432154D01*
X52883Y432180D01*
X56413Y433126D01*
X56891Y433362D01*
X57397Y433534D01*
X60562Y435361D01*
X60963Y435713D01*
X61406Y436009D01*
X63991Y438594D01*
X64287Y439037D01*
X64639Y439438D01*
X65900Y441623D01*
X67796Y441115D01*
X67900Y440547D01*
X67900Y440034D01*
X67900Y440034D01*
X67900Y440000D01*
Y436250D01*
X73650D01*
Y441850D01*
X69663D01*
X68263Y441850D01*
X67580Y442379D01*
X66773Y443383D01*
X66874Y443587D01*
X67819Y447117D01*
X67854Y447649D01*
X67958Y448173D01*
Y451827D01*
X67854Y452351D01*
X67819Y452883D01*
X66874Y456413D01*
X66638Y456892D01*
X66466Y457397D01*
X64639Y460562D01*
X64287Y460963D01*
X63991Y461406D01*
X61406Y463991D01*
X60963Y464287D01*
X60562Y464639D01*
X57397Y466466D01*
X56892Y466637D01*
X56413Y466874D01*
X52883Y467820D01*
X52482Y467846D01*
X52094Y467950D01*
X50267Y468069D01*
X50133Y468052D01*
X50000Y468078D01*
X26088Y468078D01*
X24941Y471000D01*
X24724Y471338D01*
X24578Y471712D01*
X22481Y474981D01*
X22202Y475270D01*
X21985Y475608D01*
X19291Y478406D01*
X18961Y478635D01*
X18683Y478924D01*
X15494Y481142D01*
X15126Y481303D01*
X14796Y481532D01*
X11237Y483086D01*
X10844Y483171D01*
X10476Y483332D01*
X6682Y484161D01*
X6280Y484169D01*
X5888Y484254D01*
X4078Y484288D01*
X4078Y598978D01*
X6078Y600700D01*
X32750D01*
Y604422D01*
X35004D01*
X35244Y604261D01*
X37000Y603912D01*
X38756Y604261D01*
X40244Y605256D01*
X41239Y606744D01*
X41588Y608500D01*
X41239Y610256D01*
X40244Y611744D01*
X38756Y612739D01*
X37000Y613088D01*
X35244Y612739D01*
X35004Y612578D01*
X32750D01*
Y616700D01*
X23427D01*
X23084Y617152D01*
X22541Y618700D01*
X23239Y619744D01*
X23588Y621500D01*
X23239Y623256D01*
X23078Y623496D01*
Y626100D01*
X32750D01*
Y626632D01*
X33069Y626847D01*
X35198Y627198D01*
X44698Y617698D01*
X45525Y617145D01*
X46500Y616951D01*
X58854D01*
X60750Y616700D01*
X60750Y614951D01*
Y600700D01*
X70922D01*
Y597496D01*
X70761Y597256D01*
X70412Y595500D01*
X70761Y593744D01*
X71756Y592256D01*
X73244Y591261D01*
X75000Y590912D01*
X76756Y591261D01*
X78244Y592256D01*
X79239Y593744D01*
X79588Y595500D01*
X79239Y597256D01*
X79078Y597496D01*
Y600700D01*
X88750D01*
X88750Y616700D01*
X90646Y616951D01*
X91450D01*
X92425Y617145D01*
X93252Y617698D01*
X94606Y619051D01*
X99650D01*
Y614350D01*
X108500D01*
Y613350D01*
X109500D01*
Y606100D01*
X116323D01*
X117570Y604191D01*
X117116Y603124D01*
X102500Y603124D01*
X101960Y602900D01*
X99650D01*
Y588400D01*
X100876D01*
Y582950D01*
X101352Y581802D01*
X102500Y581326D01*
X116000D01*
X117148Y581802D01*
X117624Y582950D01*
Y588376D01*
X129500Y588376D01*
X130648Y588852D01*
X132904Y591108D01*
X135205Y590580D01*
X135756Y589756D01*
X136085Y589536D01*
X136256Y587245D01*
X136235Y587213D01*
X135261Y585756D01*
X134912Y584000D01*
X135261Y582244D01*
X136256Y580756D01*
X137744Y579761D01*
X139500Y579412D01*
X141000Y579710D01*
X141604Y579513D01*
X143000Y578521D01*
Y566000D01*
Y556000D01*
Y546549D01*
X139709D01*
X139244Y547244D01*
X137756Y548239D01*
X136000Y548588D01*
X134244Y548239D01*
X132756Y547244D01*
X131761Y545756D01*
X131412Y544000D01*
X131761Y542244D01*
X132756Y540756D01*
X134244Y539761D01*
X136000Y539412D01*
X137756Y539761D01*
X139244Y540756D01*
X139709Y541451D01*
X143000D01*
Y541000D01*
X160500D01*
Y546000D01*
Y555106D01*
X161087Y555526D01*
X162500Y555992D01*
X163594Y555261D01*
X165350Y554912D01*
X165474Y554936D01*
X166411Y553999D01*
X166761Y552243D01*
X167755Y550755D01*
X169244Y549760D01*
X171000Y549411D01*
X172756Y549760D01*
X174244Y550755D01*
X174709Y551450D01*
X208999D01*
X209974Y551644D01*
X210801Y552197D01*
X213302Y554698D01*
X213302Y554698D01*
X290056Y631451D01*
X292018D01*
X292846Y629451D01*
X284697Y621302D01*
X284144Y620475D01*
X283951Y619499D01*
Y616708D01*
X283255Y616243D01*
X282260Y614755D01*
X281911Y612999D01*
X282260Y611243D01*
X283255Y609754D01*
X284744Y608760D01*
X285975Y608515D01*
X287912Y608000D01*
X288261Y606244D01*
X289256Y604756D01*
X290744Y603761D01*
X292500Y603412D01*
X294256Y603761D01*
X295500Y604592D01*
X296543Y604314D01*
X297500Y603783D01*
Y600000D01*
X306250D01*
X315000D01*
Y606000D01*
Y613000D01*
X306250D01*
Y615000D01*
X315000D01*
Y616000D01*
Y626000D01*
Y636000D01*
Y646000D01*
Y657126D01*
X317000Y658915D01*
X321987Y658876D01*
X321994Y658879D01*
X322000Y658876D01*
X322570Y659112D01*
X323139Y659343D01*
X323142Y659349D01*
X323143Y659350D01*
X326450D01*
Y664000D01*
X327450D01*
Y665000D01*
X332150D01*
Y668350D01*
Y672000D01*
X327450D01*
Y674000D01*
X332150D01*
Y677650D01*
X333943Y678150D01*
X336100D01*
X336876Y676472D01*
X336876Y657250D01*
X337352Y656102D01*
X338500Y655626D01*
X364500D01*
Y647500D01*
X362500D01*
Y638500D01*
X373150D01*
Y637950D01*
X381000D01*
Y645000D01*
Y652050D01*
X373500D01*
Y655626D01*
X408126D01*
X409755Y654462D01*
X410126Y654032D01*
Y653935D01*
X409850Y652050D01*
X408126Y652050D01*
X402000D01*
Y645000D01*
Y637950D01*
X408126D01*
X410126Y636064D01*
Y621000D01*
X410602Y619852D01*
X411750Y619376D01*
X426451Y619376D01*
X426500Y619376D01*
X428400Y619500D01*
X428400Y619618D01*
X428400Y619618D01*
Y656500D01*
X419374D01*
X419374Y660750D01*
Y665750D01*
X420750D01*
Y667250D01*
X419500D01*
Y688750D01*
X420750D01*
Y690250D01*
X419250D01*
Y691250D01*
X417299D01*
Y695350D01*
X420750D01*
Y695750D01*
X422950D01*
Y700000D01*
Y704650D01*
X413876D01*
X412374Y706250D01*
Y728100D01*
X418950D01*
Y728708D01*
X419450Y730500D01*
X420950Y730500D01*
X423450D01*
Y738501D01*
Y746500D01*
X419450Y746500D01*
X418950Y748293D01*
Y748900D01*
X415950D01*
Y746000D01*
X413950D01*
Y748900D01*
X412499D01*
Y758050D01*
X412305Y759025D01*
X411752Y759852D01*
X411549Y760056D01*
Y760570D01*
X411624Y760750D01*
Y780000D01*
X411400Y780540D01*
Y781500D01*
X411400Y781600D01*
X411641Y783500D01*
X417000D01*
X417000Y782500D01*
X420973D01*
X422600Y781600D01*
X422600Y780500D01*
Y772000D01*
X439100D01*
X439100Y781080D01*
X440500Y782500D01*
X440500Y783020D01*
Y787000D01*
X436000D01*
X431500D01*
Y783600D01*
X431500Y782500D01*
X429873Y781600D01*
X427627D01*
X426000Y782500D01*
X426000Y783600D01*
Y793500D01*
X417000D01*
X417000Y792500D01*
X409900D01*
X408100Y792500D01*
X406100Y792500D01*
X399000D01*
Y783500D01*
X399000D01*
X398702Y781624D01*
X347000D01*
X345852Y781148D01*
X345376Y780000D01*
Y769000D01*
X345852Y767852D01*
X347000Y767376D01*
X356376D01*
Y760000D01*
Y740000D01*
X356852Y738852D01*
X356852Y738648D01*
X356376Y737500D01*
Y706598D01*
X355413Y705920D01*
X354529Y705617D01*
X306623Y753522D01*
X306623Y800057D01*
X306560Y800211D01*
X306592Y800374D01*
X306567Y800500D01*
X306592Y800626D01*
X306560Y800789D01*
X306623Y800943D01*
X306624Y809686D01*
X308118Y810339D01*
X308624Y810425D01*
X310705Y808828D01*
X311000Y808706D01*
Y818000D01*
X316000D01*
Y823000D01*
X325294D01*
X325172Y823295D01*
X323489Y825489D01*
X323375Y825576D01*
X323653Y827553D01*
X323807Y827765D01*
X324663Y828337D01*
X333017Y836691D01*
X340750D01*
Y835250D01*
X351750D01*
Y844250D01*
X340750D01*
Y842809D01*
X334559D01*
Y852500D01*
X334559Y852500D01*
X334326Y853671D01*
X333663Y854663D01*
X325303Y863022D01*
X326230Y865259D01*
X326591Y868000D01*
X326230Y870741D01*
X325172Y873295D01*
X323489Y875489D01*
X321295Y877172D01*
X318741Y878230D01*
X316000Y878591D01*
X313259Y878230D01*
X310705Y877172D01*
X308511Y875489D01*
X306828Y873295D01*
X305770Y870741D01*
X305409Y868000D01*
X305770Y865259D01*
X306828Y862705D01*
X308511Y860511D01*
X310705Y858828D01*
X313259Y857770D01*
X316000Y857409D01*
X318741Y857770D01*
X320978Y858697D01*
X328441Y851233D01*
Y844266D01*
X326441Y844135D01*
X326230Y845741D01*
X325172Y848295D01*
X323489Y850489D01*
X321295Y852172D01*
X318741Y853230D01*
X316000Y853591D01*
X313259Y853230D01*
X310705Y852172D01*
X308511Y850489D01*
X306828Y848295D01*
X305902Y846059D01*
X280550D01*
X279379Y845826D01*
X278387Y845163D01*
X278387Y845163D01*
X256387Y823163D01*
X255724Y822170D01*
X255491Y821000D01*
X255491Y821000D01*
Y818487D01*
X253900Y817500D01*
X245000D01*
Y808500D01*
X246391D01*
Y805335D01*
X246256Y805244D01*
X245261Y803756D01*
X244912Y802000D01*
X245261Y800244D01*
X246256Y798756D01*
X247362Y798016D01*
X247826Y796424D01*
X247871Y795697D01*
X244337Y792163D01*
X243674Y791171D01*
X243441Y790000D01*
X243441Y790000D01*
Y786516D01*
X241709Y785798D01*
X239725Y784275D01*
X238202Y782291D01*
X237244Y779980D01*
X236918Y777500D01*
X237244Y775020D01*
X238202Y772709D01*
X239725Y770724D01*
X241709Y769202D01*
X243951Y768273D01*
Y726056D01*
X227198Y709302D01*
X226645Y708475D01*
X226451Y707500D01*
Y690000D01*
X221549D01*
Y693000D01*
X221355Y693975D01*
X220802Y694802D01*
X220049Y695556D01*
Y780994D01*
X237302Y798248D01*
X237855Y799075D01*
X238049Y800050D01*
Y822944D01*
X249268Y834163D01*
X249705Y833828D01*
X252259Y832770D01*
X255000Y832409D01*
X257741Y832770D01*
X260295Y833828D01*
X262489Y835511D01*
X264172Y837705D01*
X265230Y840259D01*
X265591Y843000D01*
X265230Y845741D01*
X264172Y848295D01*
X262489Y850489D01*
X260295Y852172D01*
X257741Y853230D01*
X255000Y853591D01*
X252259Y853230D01*
X249705Y852172D01*
X247511Y850489D01*
X245828Y848295D01*
X244770Y845741D01*
X244409Y843000D01*
X244770Y840259D01*
X245761Y837866D01*
X236397Y828502D01*
X234549Y829267D01*
Y883444D01*
X241056Y889951D01*
X244500D01*
Y882500D01*
X265500D01*
Y903500D01*
X244500D01*
Y895049D01*
X240000D01*
X239025Y894855D01*
X238198Y894302D01*
X230198Y886302D01*
X229645Y885475D01*
X229451Y884500D01*
Y802556D01*
X212198Y785302D01*
X211645Y784475D01*
X211451Y783500D01*
Y774325D01*
X210000Y773000D01*
X209451Y773000D01*
X201725D01*
X201707Y773008D01*
X200241Y774580D01*
X200239Y775000D01*
X200338Y775500D01*
X199989Y777256D01*
X198994Y778744D01*
X197506Y779739D01*
X195750Y780088D01*
X193994Y779739D01*
X192506Y778744D01*
X191511Y777256D01*
X191162Y775500D01*
X191261Y775000D01*
X191250Y773000D01*
X191250Y773000D01*
X191250Y773000D01*
Y765900D01*
X191250Y764100D01*
X191250Y762100D01*
Y755000D01*
X189437Y754549D01*
X176800D01*
Y754600D01*
X168600D01*
Y762325D01*
X169244Y762756D01*
X170239Y764244D01*
X170588Y766000D01*
X170239Y767756D01*
X169244Y769244D01*
X167756Y770239D01*
X166000Y770588D01*
X164244Y770239D01*
X162756Y769244D01*
X161761Y767756D01*
X161412Y766000D01*
X161651Y764800D01*
X160504Y762800D01*
X143400D01*
Y754600D01*
X135624D01*
Y775500D01*
X135148Y776648D01*
X134000Y777124D01*
X127000D01*
X125852Y776648D01*
X125376Y775500D01*
Y765650D01*
X122550D01*
Y761000D01*
X121550D01*
Y760000D01*
X116850D01*
Y756350D01*
Y753000D01*
X121550D01*
Y752000D01*
X122550D01*
Y747350D01*
X126354D01*
X127852Y745852D01*
X129000Y745376D01*
X135200D01*
Y745000D01*
X140200D01*
Y743000D01*
X135200D01*
Y742549D01*
X122150D01*
Y743150D01*
X112850D01*
Y733750D01*
Y730550D01*
X117500D01*
X122150D01*
Y737451D01*
X135200D01*
Y737000D01*
X140200D01*
Y735000D01*
X135200D01*
Y734390D01*
X135025Y734355D01*
X134198Y733802D01*
X128648Y728252D01*
X128095Y727425D01*
X127901Y726450D01*
Y707485D01*
X128095Y706509D01*
X128648Y705683D01*
X156083Y678247D01*
X155318Y676399D01*
X104256D01*
X93852Y686802D01*
X93025Y687355D01*
X92050Y687549D01*
X88750D01*
Y692900D01*
X62049D01*
Y702300D01*
X88750D01*
Y718300D01*
X62049D01*
Y725444D01*
X64305Y727700D01*
X88750D01*
Y743700D01*
X78768D01*
X78161Y745700D01*
X78244Y745756D01*
X79239Y747244D01*
X79588Y749000D01*
X79239Y750756D01*
X79078Y750996D01*
Y753100D01*
X88750D01*
Y769100D01*
X60750D01*
Y753100D01*
X70922D01*
Y750996D01*
X70761Y750756D01*
X70412Y749000D01*
X70761Y747244D01*
X71756Y745756D01*
X71839Y745700D01*
X71232Y743700D01*
X60750D01*
Y731355D01*
X57698Y728302D01*
X55497Y728608D01*
X46602Y737502D01*
X45775Y738055D01*
X44800Y738249D01*
X32750D01*
Y743700D01*
X21519D01*
X20913Y745700D01*
X21744Y746256D01*
X22739Y747744D01*
X23088Y749500D01*
X22770Y751100D01*
X22794Y751389D01*
X23504Y753100D01*
X32750D01*
Y769100D01*
X6078D01*
X4750Y769100D01*
X4078Y770822D01*
X4078Y776778D01*
X6078Y778500D01*
X17750D01*
Y786500D01*
X18750D01*
Y787500D01*
X32750D01*
Y794500D01*
X19140D01*
X18943Y796500D01*
X20256Y796761D01*
X21744Y797756D01*
X22739Y799244D01*
X23088Y801000D01*
X22909Y801900D01*
X24048Y803668D01*
X24380Y803900D01*
X32750D01*
Y819900D01*
X6078D01*
X4750Y819900D01*
X4078Y821622D01*
Y827578D01*
X6078Y829300D01*
X32750D01*
Y829376D01*
X44000D01*
X45148Y829852D01*
X45624Y831000D01*
Y843500D01*
X45148Y844648D01*
X44000Y845124D01*
X32750D01*
Y845300D01*
X6078D01*
X4750Y845300D01*
X4078Y847022D01*
Y860918D01*
X6364Y861090D01*
X6751Y861198D01*
X7152Y861228D01*
X11052Y862313D01*
X11410Y862494D01*
X11797Y862602D01*
X15411Y864427D01*
X15727Y864674D01*
X16086Y864855D01*
X19274Y867351D01*
X19536Y867655D01*
X19852Y867903D01*
X22493Y870972D01*
X22690Y871322D01*
X22952Y871626D01*
X24943Y875151D01*
X25068Y875533D01*
X25266Y875883D01*
X26265Y878922D01*
X50000D01*
X50133Y878948D01*
X50267Y878931D01*
X52094Y879050D01*
X52482Y879154D01*
X52883Y879181D01*
X56413Y880126D01*
X56891Y880362D01*
X57397Y880534D01*
X60562Y882361D01*
X60963Y882713D01*
X61406Y883009D01*
X63991Y885594D01*
X64287Y886037D01*
X64639Y886438D01*
X66466Y889603D01*
X66638Y890108D01*
X66874Y890587D01*
X67819Y894117D01*
X67854Y894649D01*
X67958Y895173D01*
Y898827D01*
X67854Y899351D01*
X67819Y899883D01*
X66874Y903413D01*
X66638Y903892D01*
X66466Y904397D01*
X64639Y907562D01*
X64287Y907963D01*
X63991Y908406D01*
X61406Y910991D01*
X60963Y911287D01*
X60562Y911639D01*
X57397Y913466D01*
X56892Y913637D01*
X56413Y913874D01*
X52883Y914819D01*
X52482Y914846D01*
X52094Y914950D01*
X50267Y915070D01*
X50133Y915052D01*
X50000Y915078D01*
X26265Y915078D01*
X25266Y918117D01*
X25068Y918467D01*
X24943Y918848D01*
X22952Y922374D01*
X22690Y922678D01*
X22493Y923028D01*
X19852Y926097D01*
X19536Y926345D01*
X19274Y926649D01*
X16086Y929144D01*
X15727Y929325D01*
X15411Y929573D01*
X11797Y931398D01*
X11410Y931506D01*
X11052Y931687D01*
X7152Y932772D01*
X6751Y932802D01*
X6364Y932910D01*
X4078Y933082D01*
X4079Y987774D01*
X4256Y989366D01*
X5361Y992851D01*
X7124Y996054D01*
X9478Y998851D01*
X12333Y1001135D01*
X15579Y1002818D01*
X19090Y1003835D01*
X22733Y1004148D01*
X24550Y1003947D01*
D02*
G37*
G36*
X271255Y652254D02*
X272744Y651260D01*
X274499Y650910D01*
X276255Y651260D01*
X277744Y652254D01*
X280074Y652596D01*
X280429Y652312D01*
X280414Y650019D01*
X204443Y574048D01*
X172288D01*
X171771Y574894D01*
X171439Y576048D01*
X172239Y577244D01*
X172588Y579000D01*
X172239Y580756D01*
X171244Y582244D01*
X169756Y583239D01*
X168000Y583588D01*
X167431Y583475D01*
X166651Y585359D01*
X167244Y585756D01*
X168239Y587244D01*
X168588Y589000D01*
X168239Y590756D01*
X167734Y591511D01*
X166744Y593256D01*
X167739Y594744D01*
X168088Y596500D01*
X167739Y598256D01*
X166744Y599744D01*
X166049Y600209D01*
Y606000D01*
X165855Y606976D01*
X165302Y607802D01*
X162302Y610802D01*
X161476Y611355D01*
X160500Y611549D01*
Y616451D01*
X196500D01*
X197475Y616645D01*
X198302Y617198D01*
X208802Y627698D01*
X209355Y628525D01*
X209549Y629500D01*
Y638791D01*
X210244Y639256D01*
X211239Y640744D01*
X211588Y642500D01*
X211239Y644256D01*
X210244Y645744D01*
X208756Y646739D01*
X207000Y647088D01*
X205244Y646739D01*
X203756Y645744D01*
X202761Y644256D01*
X202412Y642500D01*
X202761Y640744D01*
X203756Y639256D01*
X204451Y638791D01*
Y630556D01*
X195444Y621549D01*
X190790D01*
X190273Y622393D01*
X189940Y623549D01*
X190739Y624744D01*
X191088Y626500D01*
X190739Y628256D01*
X189744Y629744D01*
X189049Y630209D01*
Y634277D01*
X188855Y635252D01*
X188302Y636079D01*
X173431Y650951D01*
X174259Y652951D01*
X270790D01*
X271255Y652254D01*
D02*
G37*
%LPC*%
G36*
X168600Y725200D02*
X167000D01*
Y721200D01*
X168600D01*
Y725200D01*
D02*
G37*
G36*
X160400Y716000D02*
X156700D01*
Y712350D01*
X160400D01*
Y716000D01*
D02*
G37*
G36*
X552500Y209588D02*
X550744Y209239D01*
X549256Y208244D01*
X548261Y206756D01*
X547912Y205000D01*
X548261Y203244D01*
X549256Y201756D01*
X550744Y200761D01*
X552500Y200412D01*
X554256Y200761D01*
X554500Y200924D01*
X556500Y200500D01*
X556500Y200500D01*
X563600D01*
X565400Y200500D01*
X567400Y200500D01*
X574500D01*
Y200500D01*
X574950D01*
Y200500D01*
X585950D01*
Y209500D01*
X574950D01*
Y209500D01*
X574500D01*
Y209500D01*
X567400D01*
X565600Y209500D01*
X563600Y209500D01*
X556500D01*
Y209500D01*
X554500Y209076D01*
X554256Y209239D01*
X552500Y209588D01*
D02*
G37*
G36*
X570500Y195088D02*
X568744Y194739D01*
X567256Y193744D01*
X566261Y192256D01*
X565912Y190500D01*
X566261Y188744D01*
X567256Y187256D01*
X568744Y186261D01*
X570500Y185912D01*
X572256Y186261D01*
X572496Y186422D01*
X574950D01*
Y186000D01*
X585950D01*
Y195000D01*
X574950D01*
Y194578D01*
X572496D01*
X572256Y194739D01*
X570500Y195088D01*
D02*
G37*
G36*
X570000Y324088D02*
X568244Y323739D01*
X566756Y322744D01*
X565761Y321256D01*
X565412Y319500D01*
X565761Y317744D01*
X566756Y316256D01*
X568244Y315261D01*
X570000Y314912D01*
X571756Y315261D01*
X571996Y315422D01*
X574700D01*
Y315000D01*
X585700D01*
Y324000D01*
X574700D01*
Y323578D01*
X571996D01*
X571756Y323739D01*
X570000Y324088D01*
D02*
G37*
G36*
X552500Y309588D02*
X550744Y309239D01*
X549256Y308244D01*
X548261Y306756D01*
X547912Y305000D01*
X548261Y303244D01*
X549256Y301756D01*
X550744Y300761D01*
X552500Y300412D01*
X554256Y300761D01*
X554500Y300924D01*
X556500Y300500D01*
X556500Y300500D01*
X563600D01*
X565400Y300500D01*
X567400Y300500D01*
X574500D01*
Y300500D01*
X574700D01*
Y300500D01*
X585700D01*
Y309500D01*
X574700D01*
Y309500D01*
X574500D01*
Y309500D01*
X567400D01*
X565600Y309500D01*
X563600Y309500D01*
X556500D01*
Y309500D01*
X554500Y309076D01*
X554256Y309239D01*
X552500Y309588D01*
D02*
G37*
%LPD*%
G36*
X571939Y193146D02*
X571972Y193153D01*
X572058Y193136D01*
X572496Y192955D01*
X574950D01*
Y191500D01*
X580450D01*
Y189500D01*
X574950D01*
Y188045D01*
X572496D01*
X572058Y187864D01*
X571972Y187847D01*
X571939Y187854D01*
X570500Y187567D01*
X569378Y187791D01*
X568426Y188426D01*
X567790Y189378D01*
X567567Y190500D01*
X567790Y191622D01*
X568426Y192574D01*
X569378Y193209D01*
X570500Y193433D01*
X571939Y193146D01*
D02*
G37*
G36*
X571439Y322146D02*
X571472Y322153D01*
X571558Y322136D01*
X571996Y321955D01*
X574700D01*
Y320500D01*
X580200D01*
Y318500D01*
X574700D01*
Y317045D01*
X571996D01*
X571558Y316864D01*
X571472Y316847D01*
X571439Y316854D01*
X570000Y316567D01*
X568878Y316791D01*
X567926Y317426D01*
X567290Y318378D01*
X567067Y319500D01*
X567290Y320622D01*
X567926Y321574D01*
X568878Y322210D01*
X570000Y322433D01*
X571439Y322146D01*
D02*
G37*
%LPC*%
G36*
X298150Y693500D02*
X294450D01*
Y689850D01*
X298150D01*
Y693500D01*
D02*
G37*
G36*
X327850Y695850D02*
X321600D01*
Y688000D01*
X327850D01*
Y695850D01*
D02*
G37*
G36*
X298150Y699150D02*
X294450D01*
Y695500D01*
X298150D01*
Y699150D01*
D02*
G37*
G36*
X292000Y680250D02*
X290000D01*
Y672500D01*
X292000D01*
Y680250D01*
D02*
G37*
G36*
X292450Y699150D02*
X279850D01*
Y690000D01*
X275000D01*
Y681250D01*
Y672500D01*
X288000D01*
Y681250D01*
X289000D01*
Y682250D01*
X292000D01*
Y689850D01*
X292450D01*
Y694500D01*
Y699150D01*
D02*
G37*
G36*
X390850Y701050D02*
X390150Y701050D01*
X383000D01*
Y694000D01*
Y686950D01*
X390150D01*
X392150Y686950D01*
X392850Y686950D01*
X400000D01*
Y694000D01*
Y701050D01*
X392850D01*
X390850Y701050D01*
D02*
G37*
G36*
X381000Y701050D02*
X373150D01*
Y695000D01*
X381000D01*
Y701050D01*
D02*
G37*
G36*
X368000Y665000D02*
X364500D01*
Y661550D01*
X368000D01*
Y665000D01*
D02*
G37*
G36*
X373500D02*
X370000D01*
Y661550D01*
X373500D01*
Y665000D01*
D02*
G37*
G36*
X137150Y613150D02*
X133500D01*
Y609450D01*
X137150D01*
Y613150D01*
D02*
G37*
G36*
X96000Y386591D02*
X93259Y386230D01*
X90705Y385172D01*
X88511Y383489D01*
X86828Y381295D01*
X85770Y378741D01*
X85409Y376000D01*
X85770Y373259D01*
X86828Y370705D01*
X88511Y368511D01*
X90705Y366828D01*
X93259Y365770D01*
X96000Y365409D01*
X98741Y365770D01*
X101295Y366828D01*
X103489Y368511D01*
X105172Y370705D01*
X106230Y373259D01*
X106591Y376000D01*
X106230Y378741D01*
X105172Y381295D01*
X103489Y383489D01*
X101295Y385172D01*
X98741Y386230D01*
X96000Y386591D01*
D02*
G37*
G36*
X532435Y502000D02*
X527600D01*
Y497165D01*
X528148Y497392D01*
X530445Y499155D01*
X532209Y501452D01*
X532435Y502000D01*
D02*
G37*
G36*
X212500Y460832D02*
X210020Y460505D01*
X207709Y459548D01*
X205725Y458025D01*
X204202Y456041D01*
X203244Y453730D01*
X202918Y451250D01*
X203244Y448770D01*
X204202Y446459D01*
X205725Y444474D01*
X206844Y443615D01*
X207197Y441352D01*
X207098Y441040D01*
X206857Y440800D01*
X204400Y440800D01*
X203600Y440800D01*
X198650D01*
Y434200D01*
X197650D01*
Y433200D01*
X190900D01*
X190900Y427600D01*
X188941Y427500D01*
X188750D01*
Y424000D01*
X193200D01*
Y423000D01*
X194200D01*
Y418500D01*
X195850D01*
X197650Y418500D01*
X199650Y418500D01*
X204916D01*
X205500Y418500D01*
X205500Y417418D01*
Y410000D01*
X205922D01*
Y401000D01*
X205922Y401000D01*
X206232Y399439D01*
X207116Y398116D01*
X212172Y393061D01*
Y385779D01*
X210705Y385172D01*
X208511Y383489D01*
X206828Y381295D01*
X205770Y378741D01*
X205409Y376000D01*
X205770Y373259D01*
X206828Y370705D01*
X208511Y368511D01*
X210705Y366828D01*
X213259Y365770D01*
X216000Y365409D01*
X218741Y365770D01*
X221295Y366828D01*
X223489Y368511D01*
X225172Y370705D01*
X226230Y373259D01*
X226591Y376000D01*
X226230Y378741D01*
X225172Y381295D01*
X223489Y383489D01*
X221295Y385172D01*
X220328Y385572D01*
Y394750D01*
X220328Y394750D01*
X220018Y396311D01*
X219134Y397634D01*
X219134Y397634D01*
X214078Y402689D01*
Y410000D01*
X214500D01*
Y418900D01*
X214500D01*
Y419100D01*
X214500D01*
Y427600D01*
X219100D01*
Y440800D01*
X217322D01*
X216924Y442800D01*
X217291Y442952D01*
X219275Y444474D01*
X220798Y446459D01*
X221376Y447855D01*
X223376Y447457D01*
Y429500D01*
X223751Y428596D01*
Y427750D01*
X235520D01*
X235520Y427750D01*
X236051D01*
X236124Y429500D01*
X236124Y429720D01*
X236124Y436462D01*
X237538Y437876D01*
X255376Y437876D01*
X255376Y367000D01*
X255500Y366702D01*
Y365500D01*
X256702D01*
X257000Y365376D01*
X275000D01*
X275299Y365500D01*
X276500D01*
Y366702D01*
X276624Y367000D01*
Y391250D01*
Y456250D01*
X276148Y457398D01*
X275000Y457874D01*
X225000D01*
X223852Y457398D01*
X223376Y456250D01*
Y455043D01*
X221376Y454645D01*
X220798Y456041D01*
X219275Y458025D01*
X217291Y459548D01*
X214980Y460505D01*
X212500Y460832D01*
D02*
G37*
G36*
X517600Y502000D02*
X512765D01*
X512991Y501452D01*
X514755Y499155D01*
X517052Y497392D01*
X517600Y497165D01*
Y502000D01*
D02*
G37*
G36*
X186000Y371000D02*
X181706D01*
X181828Y370705D01*
X183511Y368511D01*
X185705Y366828D01*
X186000Y366706D01*
Y371000D01*
D02*
G37*
G36*
X163850Y501400D02*
X156000D01*
Y495150D01*
X163850D01*
Y501400D01*
D02*
G37*
G36*
X55294Y371000D02*
X51000D01*
Y366706D01*
X51295Y366828D01*
X53489Y368511D01*
X55172Y370705D01*
X55294Y371000D01*
D02*
G37*
G36*
X584400Y502000D02*
X578400D01*
Y496000D01*
X584400D01*
Y502000D01*
D02*
G37*
G36*
X241000Y386591D02*
X238259Y386230D01*
X235705Y385172D01*
X233511Y383489D01*
X231828Y381295D01*
X230770Y378741D01*
X230409Y376000D01*
X230770Y373259D01*
X231828Y370705D01*
X233511Y368511D01*
X235705Y366828D01*
X238259Y365770D01*
X241000Y365409D01*
X243741Y365770D01*
X246295Y366828D01*
X248489Y368511D01*
X250172Y370705D01*
X251230Y373259D01*
X251591Y376000D01*
X251230Y378741D01*
X250172Y381295D01*
X248489Y383489D01*
X246295Y385172D01*
X243741Y386230D01*
X241000Y386591D01*
D02*
G37*
G36*
X568400Y502000D02*
X562400D01*
Y496000D01*
X568400D01*
Y502000D01*
D02*
G37*
G36*
X374000Y358500D02*
X359500D01*
Y352000D01*
X374000D01*
Y358500D01*
D02*
G37*
G36*
X584400Y518000D02*
X578400D01*
Y512000D01*
X584400D01*
Y518000D01*
D02*
G37*
G36*
X438000Y358500D02*
X423500D01*
Y352000D01*
X438000D01*
Y358500D01*
D02*
G37*
G36*
X503100Y358500D02*
X494398D01*
X494601Y356955D01*
X495583Y354583D01*
X497146Y352546D01*
X499183Y350983D01*
X501555Y350001D01*
X503100Y349798D01*
Y358500D01*
D02*
G37*
G36*
X421500Y358500D02*
X407000D01*
Y352000D01*
X421500D01*
Y358500D01*
D02*
G37*
G36*
X357500D02*
X343000D01*
Y352000D01*
X357500D01*
Y358500D01*
D02*
G37*
G36*
X444000Y363100D02*
X440500D01*
Y356550D01*
X444000D01*
Y363100D01*
D02*
G37*
G36*
X505100Y369202D02*
Y360500D01*
X513802D01*
X513599Y362045D01*
X512617Y364417D01*
X511054Y366454D01*
X509017Y368017D01*
X506645Y368999D01*
X505100Y369202D01*
D02*
G37*
G36*
X453450Y367500D02*
X450000D01*
Y365662D01*
X450000Y365149D01*
X449953Y364723D01*
X449706Y363837D01*
X448473Y363155D01*
X447953Y363100D01*
X447673Y363100D01*
X446000D01*
Y356550D01*
X449500D01*
Y361438D01*
X449500Y361951D01*
X449547Y362377D01*
X449795Y363263D01*
X451027Y363945D01*
X451547Y364000D01*
X451827Y364000D01*
X453450D01*
Y367500D01*
D02*
G37*
G36*
X568400Y518000D02*
X562400D01*
Y512000D01*
X568400D01*
Y518000D01*
D02*
G37*
G36*
X527600Y516835D02*
Y512000D01*
X532435D01*
X532209Y512547D01*
X530445Y514845D01*
X528148Y516609D01*
X527600Y516835D01*
D02*
G37*
G36*
X503100Y369202D02*
X501555Y368999D01*
X499183Y368017D01*
X497146Y366454D01*
X495583Y364417D01*
X494601Y362045D01*
X494398Y360500D01*
X503100D01*
Y369202D01*
D02*
G37*
G36*
X517600Y516835D02*
X517052Y516609D01*
X514755Y514845D01*
X512991Y512547D01*
X512765Y512000D01*
X517600D01*
Y516835D01*
D02*
G37*
G36*
X154000Y501400D02*
X146150D01*
Y495150D01*
X154000D01*
Y501400D01*
D02*
G37*
G36*
X89500Y462332D02*
X87020Y462006D01*
X84709Y461048D01*
X82725Y459525D01*
X81202Y457541D01*
X80245Y455230D01*
X79918Y452750D01*
X80245Y450270D01*
X81202Y447959D01*
X82725Y445975D01*
X84709Y444452D01*
X85422Y444157D01*
Y441850D01*
X82600D01*
Y441850D01*
X81400D01*
Y441850D01*
X75650D01*
Y435250D01*
X74650D01*
Y434250D01*
X67900D01*
Y428650D01*
X72500D01*
X72500Y420100D01*
X72500Y418100D01*
Y416450D01*
X77000D01*
Y415450D01*
X78000D01*
Y411000D01*
X80922D01*
Y407189D01*
X67866Y394134D01*
X66982Y392811D01*
X66672Y391250D01*
X66672Y391250D01*
Y385572D01*
X65705Y385172D01*
X63511Y383489D01*
X61828Y381295D01*
X60770Y378741D01*
X60409Y376000D01*
X60770Y373259D01*
X61828Y370705D01*
X63511Y368511D01*
X65705Y366828D01*
X68259Y365770D01*
X71000Y365409D01*
X73741Y365770D01*
X76295Y366828D01*
X78489Y368511D01*
X80172Y370705D01*
X81230Y373259D01*
X81591Y376000D01*
X81230Y378741D01*
X80172Y381295D01*
X78489Y383489D01*
X76295Y385172D01*
X74828Y385779D01*
Y389561D01*
X87884Y402616D01*
X87884Y402616D01*
X88768Y403939D01*
X89078Y405500D01*
X89078Y405500D01*
Y411000D01*
X89500D01*
Y418100D01*
X89500Y419900D01*
X89500Y421900D01*
Y424674D01*
X90163Y425337D01*
X90163Y425337D01*
X90826Y426329D01*
X91059Y427500D01*
X92513Y428650D01*
X96100D01*
Y441850D01*
X93578D01*
Y444157D01*
X94291Y444452D01*
X96275Y445975D01*
X97798Y447959D01*
X98756Y450270D01*
X99082Y452750D01*
X98756Y455230D01*
X97798Y457541D01*
X96275Y459525D01*
X94291Y461048D01*
X91980Y462006D01*
X89500Y462332D01*
D02*
G37*
G36*
X314550Y447000D02*
X297950D01*
Y438350D01*
X314550D01*
Y447000D01*
D02*
G37*
G36*
X295950D02*
X279350D01*
Y438350D01*
X295950D01*
Y447000D01*
D02*
G37*
G36*
X41000Y385294D02*
X40705Y385172D01*
X38511Y383489D01*
X36828Y381295D01*
X36706Y381000D01*
X41000D01*
Y385294D01*
D02*
G37*
G36*
X51000Y385294D02*
Y381000D01*
X55294D01*
X55172Y381295D01*
X53489Y383489D01*
X51295Y385172D01*
X51000Y385294D01*
D02*
G37*
G36*
X196000Y385294D02*
Y381000D01*
X200294D01*
X200172Y381295D01*
X198489Y383489D01*
X196295Y385172D01*
X196000Y385294D01*
D02*
G37*
G36*
X76000Y414450D02*
X72500D01*
Y411000D01*
X76000D01*
Y414450D01*
D02*
G37*
G36*
X192200Y422000D02*
X188750D01*
Y418500D01*
X192200D01*
Y422000D01*
D02*
G37*
G36*
X192100Y447000D02*
X175500D01*
Y438350D01*
X190900D01*
Y435200D01*
X196650D01*
Y440800D01*
X192100D01*
Y447000D01*
D02*
G37*
G36*
X438000Y398500D02*
X407000D01*
Y395078D01*
X374000D01*
Y398500D01*
X343000D01*
Y395078D01*
X338996D01*
X338756Y395239D01*
X337000Y395588D01*
X335244Y395239D01*
X333756Y394244D01*
X333291Y393549D01*
X300709D01*
X300244Y394244D01*
X298756Y395239D01*
X297000Y395588D01*
X295244Y395239D01*
X293756Y394244D01*
X292761Y392756D01*
X292412Y391000D01*
X292761Y389244D01*
X293756Y387756D01*
X295244Y386761D01*
X297000Y386412D01*
X298756Y386761D01*
X300244Y387756D01*
X300709Y388451D01*
X333291D01*
X333756Y387756D01*
X335244Y386761D01*
X337000Y386412D01*
X338756Y386761D01*
X338996Y386922D01*
X343000D01*
Y383500D01*
X374000D01*
Y386922D01*
X407000D01*
Y383500D01*
X438000D01*
Y398500D01*
D02*
G37*
G36*
X238750Y422388D02*
X238677Y422374D01*
X225250D01*
X224952Y422250D01*
X223751D01*
Y421051D01*
X223626Y420750D01*
Y405250D01*
X224102Y404102D01*
X225250Y403626D01*
X241750D01*
X242898Y404102D01*
X243374Y405250D01*
Y420750D01*
X242898Y421898D01*
X241750Y422374D01*
X238823D01*
X238750Y422388D01*
D02*
G37*
G36*
X475250Y494094D02*
X380250D01*
X374495Y493717D01*
X368838Y492592D01*
X363376Y490738D01*
X358203Y488187D01*
X353407Y484982D01*
X349071Y481179D01*
X345268Y476843D01*
X342063Y472047D01*
X339512Y466874D01*
X337658Y461413D01*
X336533Y455756D01*
X336156Y450000D01*
X336533Y444244D01*
X337658Y438587D01*
X339512Y433126D01*
X342063Y427953D01*
X345268Y423157D01*
X349071Y418820D01*
X353407Y415018D01*
X358203Y411813D01*
X363376Y409262D01*
X368838Y407408D01*
X374495Y406283D01*
X380250Y405906D01*
X475250D01*
X481006Y406283D01*
X486662Y407408D01*
X492124Y409262D01*
X497297Y411813D01*
X502093Y415018D01*
X506429Y418820D01*
X510232Y423157D01*
X513437Y427953D01*
X515988Y433126D01*
X517842Y438587D01*
X518967Y444244D01*
X519344Y450000D01*
X518967Y455756D01*
X517842Y461413D01*
X515988Y466874D01*
X513437Y472047D01*
X510232Y476843D01*
X506429Y481179D01*
X502093Y484982D01*
X497297Y488187D01*
X492124Y490738D01*
X486662Y492592D01*
X481006Y493717D01*
X475250Y494094D01*
D02*
G37*
G36*
X163850Y493150D02*
X155000D01*
X146150D01*
Y488541D01*
X146150Y487521D01*
X144744Y486238D01*
X144494Y486071D01*
X143255Y485243D01*
X142261Y483755D01*
X141911Y481999D01*
X140200Y482088D01*
X138444Y481739D01*
X136956Y480744D01*
X135961Y479256D01*
X135612Y477500D01*
X135961Y475744D01*
X136956Y474256D01*
X137651Y473791D01*
Y471800D01*
X137845Y470825D01*
X138398Y469998D01*
X138951Y469445D01*
Y459352D01*
X137500Y457874D01*
X103500D01*
X102352Y457398D01*
X101876Y456250D01*
Y439650D01*
X101850D01*
Y428750D01*
X114150D01*
Y435878D01*
X114391Y435978D01*
X116383Y434636D01*
X116321Y424125D01*
X114315Y423127D01*
X114150Y423250D01*
Y423250D01*
X112750Y423374D01*
X96250D01*
X95102Y422898D01*
X94626Y421750D01*
Y406250D01*
X95102Y405102D01*
X96250Y404626D01*
X112750D01*
X113898Y405102D01*
X114213Y405862D01*
X116210Y405458D01*
X116136Y392874D01*
X111250D01*
X110102Y392398D01*
X109626Y391250D01*
Y366250D01*
X110102Y365102D01*
X111250Y364626D01*
X137500D01*
X138951Y363063D01*
Y358708D01*
X138255Y358244D01*
X137261Y356755D01*
X136912Y354999D01*
X137261Y353243D01*
X138255Y351755D01*
X139744Y350760D01*
X141500Y350411D01*
X143256Y350760D01*
X144744Y351755D01*
X145739Y353243D01*
X145907Y354090D01*
X146028Y354292D01*
X147971Y354292D01*
X148092Y354090D01*
X148261Y353243D01*
X149255Y351755D01*
X150744Y350760D01*
X152500Y350411D01*
X154256Y350760D01*
X155744Y351755D01*
X156739Y353243D01*
X156793Y353516D01*
X158501Y354776D01*
X159810Y354419D01*
X160062Y354244D01*
X160261Y353244D01*
X161255Y351756D01*
X162744Y350761D01*
X164500Y350412D01*
X166255Y350761D01*
X167744Y351756D01*
X168739Y353244D01*
X169088Y355000D01*
X168739Y356756D01*
X167744Y358244D01*
X167049Y358709D01*
Y370000D01*
X166855Y370976D01*
X166302Y371803D01*
X158249Y379856D01*
Y438350D01*
X173500D01*
Y448000D01*
Y457650D01*
X158249D01*
Y466144D01*
X165179Y473074D01*
X166000Y472911D01*
X167756Y473260D01*
X169244Y474255D01*
X170239Y475743D01*
X170588Y477499D01*
X170239Y479255D01*
X169244Y480743D01*
X167756Y481738D01*
X166000Y482087D01*
X165956Y482079D01*
X164176Y482003D01*
X163783Y483530D01*
X163739Y483755D01*
X162973Y484900D01*
X163065Y485198D01*
X163850Y486900D01*
X163850Y486900D01*
X163850Y486900D01*
Y493150D01*
D02*
G37*
G36*
X226650Y483550D02*
X223000D01*
Y479850D01*
X226650D01*
Y483550D01*
D02*
G37*
G36*
X314550Y457650D02*
X297950D01*
Y449000D01*
X314550D01*
Y457650D01*
D02*
G37*
G36*
X316100Y489088D02*
X314344Y488739D01*
X312856Y487744D01*
X312391Y487049D01*
X285209D01*
X284744Y487744D01*
X283256Y488739D01*
X281500Y489088D01*
X279744Y488739D01*
X278256Y487744D01*
X277261Y486256D01*
X276912Y484500D01*
X277261Y482744D01*
X278256Y481256D01*
X279744Y480261D01*
X281500Y479912D01*
X283256Y480261D01*
X284744Y481256D01*
X285209Y481951D01*
X312391D01*
X312856Y481256D01*
X314344Y480261D01*
X316100Y479912D01*
X317856Y480261D01*
X319344Y481256D01*
X320339Y482744D01*
X320688Y484500D01*
X320339Y486256D01*
X319344Y487744D01*
X317856Y488739D01*
X316100Y489088D01*
D02*
G37*
G36*
X41000Y371000D02*
X36706D01*
X36828Y370705D01*
X38511Y368511D01*
X40705Y366828D01*
X41000Y366706D01*
Y371000D01*
D02*
G37*
G36*
X209000Y489500D02*
X201500D01*
Y483000D01*
X209000D01*
Y489500D01*
D02*
G37*
G36*
X192100Y457650D02*
X175500D01*
Y449000D01*
X192100D01*
Y457650D01*
D02*
G37*
G36*
X479500Y373088D02*
X477744Y372739D01*
X476256Y371744D01*
X475791Y371049D01*
X468000D01*
Y373000D01*
X460900D01*
X459100Y373000D01*
X457100Y373000D01*
X455450D01*
Y368500D01*
Y364000D01*
X457873Y364000D01*
X459140Y363299D01*
X459500Y362249D01*
Y348000D01*
X468500D01*
Y363100D01*
X468500D01*
X468000Y364000D01*
Y365951D01*
X475791D01*
X476256Y365256D01*
X477744Y364261D01*
X479500Y363912D01*
X481256Y364261D01*
X482744Y365256D01*
X483739Y366744D01*
X484088Y368500D01*
X483739Y370256D01*
X482744Y371744D01*
X481256Y372739D01*
X479500Y373088D01*
D02*
G37*
G36*
X186000Y385294D02*
X185705Y385172D01*
X183511Y383489D01*
X181828Y381295D01*
X181706Y381000D01*
X186000D01*
Y385294D01*
D02*
G37*
G36*
X200294Y371000D02*
X196000D01*
Y366706D01*
X196295Y366828D01*
X198489Y368511D01*
X200172Y370705D01*
X200294Y371000D01*
D02*
G37*
G36*
X295950Y457650D02*
X279350D01*
Y449000D01*
X295950D01*
Y457650D01*
D02*
G37*
G36*
X453450Y373000D02*
X450000D01*
Y369500D01*
X453450D01*
Y373000D01*
D02*
G37*
G36*
X168750Y171588D02*
X166994Y171239D01*
X165506Y170244D01*
X164511Y168756D01*
X164162Y167000D01*
X164511Y165244D01*
X164672Y165004D01*
Y162000D01*
X160800D01*
Y134000D01*
X176800D01*
Y162000D01*
X172828D01*
Y165004D01*
X172989Y165244D01*
X173338Y167000D01*
X172989Y168756D01*
X171994Y170244D01*
X170506Y171239D01*
X168750Y171588D01*
D02*
G37*
G36*
X194200D02*
X192444Y171239D01*
X190956Y170244D01*
X189961Y168756D01*
X189612Y167000D01*
X189961Y165244D01*
X190122Y165004D01*
Y162000D01*
X186200D01*
Y134000D01*
X202200D01*
Y162000D01*
X198278D01*
Y165004D01*
X198439Y165244D01*
X198788Y167000D01*
X198439Y168756D01*
X197444Y170244D01*
X195956Y171239D01*
X194200Y171588D01*
D02*
G37*
G36*
X504750Y209090D02*
X500199Y208731D01*
X495761Y207666D01*
X491544Y205919D01*
X487651Y203534D01*
X484180Y200569D01*
X481216Y197099D01*
X478831Y193206D01*
X477084Y188989D01*
X476018Y184551D01*
X475660Y180000D01*
X476018Y175449D01*
X477084Y171011D01*
X478831Y166794D01*
X481216Y162901D01*
X484180Y159431D01*
X487651Y156466D01*
X491544Y154081D01*
X495761Y152334D01*
X500199Y151269D01*
X504750Y150910D01*
X509301Y151269D01*
X513739Y152334D01*
X517956Y154081D01*
X521848Y156466D01*
X525320Y159431D01*
X528284Y162901D01*
X530669Y166794D01*
X532416Y171011D01*
X533481Y175449D01*
X533840Y180000D01*
X533481Y184551D01*
X532416Y188989D01*
X530669Y193206D01*
X528284Y197099D01*
X525320Y200569D01*
X521848Y203534D01*
X517956Y205919D01*
X513739Y207666D01*
X509301Y208731D01*
X504750Y209090D01*
D02*
G37*
G36*
X143250Y171588D02*
X141494Y171239D01*
X140006Y170244D01*
X139011Y168756D01*
X138662Y167000D01*
X139011Y165244D01*
X139172Y165004D01*
Y162000D01*
X135400D01*
Y134000D01*
X151400D01*
Y162000D01*
X147328D01*
Y165004D01*
X147489Y165244D01*
X147838Y167000D01*
X147489Y168756D01*
X146494Y170244D01*
X145006Y171239D01*
X143250Y171588D01*
D02*
G37*
G36*
X104850Y129150D02*
X97000D01*
Y122900D01*
X104850D01*
Y129150D01*
D02*
G37*
G36*
X95000Y137400D02*
X87150D01*
Y131150D01*
X95000D01*
Y137400D01*
D02*
G37*
G36*
X104850D02*
X97000D01*
Y131150D01*
X104850D01*
Y137400D01*
D02*
G37*
G36*
X451000Y214950D02*
X447500D01*
Y211500D01*
X451000D01*
Y214950D01*
D02*
G37*
G36*
X456500D02*
X453000D01*
Y211500D01*
X456500D01*
Y214950D01*
D02*
G37*
G36*
X481850Y219750D02*
X475600D01*
Y211900D01*
X481850D01*
Y219750D01*
D02*
G37*
G36*
X33750Y206582D02*
X29592Y206255D01*
X25536Y205281D01*
X21682Y203685D01*
X18125Y201505D01*
X14954Y198796D01*
X12245Y195625D01*
X10065Y192068D01*
X8469Y188214D01*
X7495Y184158D01*
X7168Y180000D01*
X7495Y175842D01*
X8469Y171786D01*
X10065Y167932D01*
X12245Y164375D01*
X14954Y161204D01*
X18125Y158495D01*
X21682Y156315D01*
X25536Y154719D01*
X29592Y153745D01*
X33750Y153418D01*
X37908Y153745D01*
X41964Y154719D01*
X45818Y156315D01*
X49374Y158495D01*
X52546Y161204D01*
X55255Y164375D01*
X57435Y167932D01*
X59031Y171786D01*
X60005Y175842D01*
X60332Y180000D01*
X60005Y184158D01*
X59031Y188214D01*
X57435Y192068D01*
X55255Y195625D01*
X52546Y198796D01*
X49374Y201505D01*
X45818Y203685D01*
X41964Y205281D01*
X37908Y206255D01*
X33750Y206582D01*
D02*
G37*
G36*
X126000Y162000D02*
X110000D01*
Y154406D01*
X104850D01*
Y155100D01*
X87150D01*
Y154406D01*
X82639D01*
X81500Y154556D01*
X79803Y154333D01*
X78222Y153678D01*
X76864Y152636D01*
X75822Y151278D01*
X75167Y149697D01*
X74944Y148000D01*
Y147850D01*
X75167Y146153D01*
X75822Y144572D01*
X76864Y143214D01*
X78222Y142172D01*
X79803Y141517D01*
X81500Y141294D01*
X87150D01*
Y140600D01*
X104850D01*
Y141294D01*
X110000D01*
Y134000D01*
X126000D01*
Y162000D01*
D02*
G37*
G36*
X143400Y114838D02*
X141644Y114489D01*
X140156Y113494D01*
X139161Y112006D01*
X138812Y110250D01*
X139161Y108494D01*
X139172Y108478D01*
Y106000D01*
X135400D01*
Y78000D01*
X151400D01*
Y106000D01*
X147328D01*
Y108029D01*
X147639Y108494D01*
X147988Y110250D01*
X147639Y112006D01*
X146644Y113494D01*
X145156Y114489D01*
X143400Y114838D01*
D02*
G37*
G36*
X168800D02*
X167044Y114489D01*
X165556Y113494D01*
X164561Y112006D01*
X164212Y110250D01*
X164561Y108494D01*
X164722Y108254D01*
Y106000D01*
X160800D01*
Y78000D01*
X176800D01*
Y106000D01*
X172878D01*
Y108254D01*
X173039Y108494D01*
X173388Y110250D01*
X173039Y112006D01*
X172044Y113494D01*
X170556Y114489D01*
X168800Y114838D01*
D02*
G37*
G36*
X202200Y106000D02*
X186200D01*
Y78000D01*
X202200D01*
Y87922D01*
X212150D01*
Y84900D01*
X229850D01*
Y88072D01*
X240279D01*
X240744Y87761D01*
X242500Y87412D01*
X244256Y87761D01*
X245744Y88756D01*
X246739Y90244D01*
X247088Y92000D01*
X246739Y93756D01*
X245744Y95244D01*
X244256Y96239D01*
X242500Y96588D01*
X240744Y96239D01*
X240728Y96228D01*
X229850D01*
Y99400D01*
X212150D01*
Y96078D01*
X202200D01*
Y106000D01*
D02*
G37*
G36*
X126000Y89500D02*
X120500D01*
Y78000D01*
X126000D01*
Y89500D01*
D02*
G37*
G36*
X36750Y62582D02*
X32592Y62255D01*
X28536Y61281D01*
X24682Y59685D01*
X21126Y57505D01*
X17954Y54796D01*
X15245Y51624D01*
X13065Y48068D01*
X11469Y44214D01*
X10495Y40158D01*
X10168Y36000D01*
X10495Y31842D01*
X11469Y27786D01*
X13065Y23932D01*
X15245Y20375D01*
X17954Y17204D01*
X21126Y14495D01*
X24682Y12315D01*
X28536Y10719D01*
X32592Y9745D01*
X36750Y9418D01*
X40908Y9745D01*
X44964Y10719D01*
X48818Y12315D01*
X52375Y14495D01*
X55546Y17204D01*
X58255Y20375D01*
X60435Y23932D01*
X62031Y27786D01*
X63005Y31842D01*
X63332Y36000D01*
X63005Y40158D01*
X62031Y44214D01*
X60435Y48068D01*
X58255Y51624D01*
X55546Y54796D01*
X52375Y57505D01*
X48818Y59685D01*
X44964Y61281D01*
X40908Y62255D01*
X36750Y62582D01*
D02*
G37*
G36*
X276750D02*
X272592Y62255D01*
X268536Y61281D01*
X264682Y59685D01*
X261126Y57505D01*
X257954Y54796D01*
X255245Y51624D01*
X253065Y48068D01*
X251469Y44214D01*
X250495Y40158D01*
X250168Y36000D01*
X250495Y31842D01*
X251469Y27786D01*
X253065Y23932D01*
X255245Y20375D01*
X257954Y17204D01*
X261126Y14495D01*
X264682Y12315D01*
X268536Y10719D01*
X272592Y9745D01*
X276750Y9418D01*
X280908Y9745D01*
X284964Y10719D01*
X288818Y12315D01*
X292374Y14495D01*
X295546Y17204D01*
X298255Y20375D01*
X300435Y23932D01*
X302031Y27786D01*
X303005Y31842D01*
X303332Y36000D01*
X303005Y40158D01*
X302031Y44214D01*
X300435Y48068D01*
X298255Y51624D01*
X295546Y54796D01*
X292374Y57505D01*
X288818Y59685D01*
X284964Y61281D01*
X280908Y62255D01*
X276750Y62582D01*
D02*
G37*
G36*
X115500Y89500D02*
X110000D01*
Y78000D01*
X115500D01*
Y89500D01*
D02*
G37*
G36*
X220000Y117100D02*
X212150D01*
Y110850D01*
X220000D01*
Y117100D01*
D02*
G37*
G36*
X229850D02*
X222000D01*
Y110850D01*
X229850D01*
Y117100D01*
D02*
G37*
G36*
X95000Y129150D02*
X87150D01*
Y122900D01*
X95000D01*
Y129150D01*
D02*
G37*
G36*
X229850Y108850D02*
X222000D01*
Y102600D01*
X229850D01*
Y108850D01*
D02*
G37*
G36*
X115500Y106000D02*
X110000D01*
Y94500D01*
X115500D01*
Y106000D01*
D02*
G37*
G36*
X126000D02*
X120500D01*
Y94500D01*
X126000D01*
Y106000D01*
D02*
G37*
G36*
X220000Y108850D02*
X212150D01*
Y102600D01*
X220000D01*
Y108850D01*
D02*
G37*
G36*
X490100Y219750D02*
X483850D01*
Y211900D01*
X490100D01*
Y219750D01*
D02*
G37*
G36*
X346000Y331650D02*
X342350D01*
Y327950D01*
X346000D01*
Y331650D01*
D02*
G37*
G36*
X371150Y331650D02*
X367450D01*
Y328000D01*
X371150D01*
Y331650D01*
D02*
G37*
G36*
X357500Y350000D02*
X343000D01*
Y343500D01*
X357500D01*
Y350000D01*
D02*
G37*
G36*
X401150Y331650D02*
X397500D01*
Y327950D01*
X401150D01*
Y331650D01*
D02*
G37*
G36*
X329500Y322900D02*
X321650D01*
Y316650D01*
X329500D01*
Y322900D01*
D02*
G37*
G36*
X339350D02*
X331500D01*
Y316650D01*
X339350D01*
Y322900D01*
D02*
G37*
G36*
X330500Y350088D02*
X328744Y349739D01*
X327256Y348744D01*
X326261Y347256D01*
X325912Y345500D01*
X326261Y343744D01*
X326422Y343504D01*
Y340600D01*
X321650D01*
Y326100D01*
X339350D01*
Y340600D01*
X334578D01*
Y343504D01*
X334739Y343744D01*
X335088Y345500D01*
X334739Y347256D01*
X333744Y348744D01*
X332256Y349739D01*
X330500Y350088D01*
D02*
G37*
G36*
X449500Y354550D02*
X446000D01*
Y348000D01*
X449500D01*
Y354550D01*
D02*
G37*
G36*
X590050Y369250D02*
X570550D01*
Y349750D01*
X590050D01*
Y369250D01*
D02*
G37*
G36*
X513802Y358500D02*
X505100D01*
Y349798D01*
X506645Y350001D01*
X509017Y350983D01*
X511054Y352546D01*
X512617Y354583D01*
X513599Y356955D01*
X513802Y358500D01*
D02*
G37*
G36*
X444000Y354550D02*
X440500D01*
Y348000D01*
X444000D01*
Y354550D01*
D02*
G37*
G36*
X374000Y350000D02*
X359500D01*
Y343500D01*
X374000D01*
Y350000D01*
D02*
G37*
G36*
X421500D02*
X407000D01*
Y343500D01*
X421500D01*
Y350000D01*
D02*
G37*
G36*
X438000D02*
X423500D01*
Y343500D01*
X438000D01*
Y350000D01*
D02*
G37*
G36*
X509700Y263650D02*
X506000D01*
Y260000D01*
X509700D01*
Y263650D01*
D02*
G37*
G36*
X475500Y265500D02*
X474000D01*
Y263000D01*
X475500D01*
Y265500D01*
D02*
G37*
G36*
X460000D02*
X453000D01*
Y264000D01*
X460000D01*
Y265500D01*
D02*
G37*
G36*
X475500Y261000D02*
X474000D01*
Y258500D01*
X475500D01*
Y261000D01*
D02*
G37*
G36*
X534350Y216750D02*
X530650D01*
Y213100D01*
X534350D01*
Y216750D01*
D02*
G37*
G36*
X460000Y260000D02*
X453000D01*
Y258500D01*
X460000D01*
Y260000D01*
D02*
G37*
G36*
X469000D02*
X462000D01*
Y258500D01*
X469000D01*
Y260000D01*
D02*
G37*
G36*
X339350Y314650D02*
X331500D01*
Y308400D01*
X339350D01*
Y314650D01*
D02*
G37*
G36*
X414550Y317000D02*
X410850D01*
Y313350D01*
X414550D01*
Y317000D01*
D02*
G37*
G36*
X329500Y314650D02*
X321650D01*
Y308400D01*
X329500D01*
Y314650D01*
D02*
G37*
G36*
X469000Y265500D02*
X462000D01*
Y264000D01*
X469000D01*
Y265500D01*
D02*
G37*
G36*
X33750Y322582D02*
X29592Y322255D01*
X25536Y321281D01*
X21682Y319685D01*
X18125Y317505D01*
X14954Y314796D01*
X12245Y311625D01*
X10065Y308068D01*
X8469Y304214D01*
X7495Y300158D01*
X7168Y296000D01*
X7495Y291842D01*
X8469Y287786D01*
X10065Y283932D01*
X12245Y280375D01*
X14954Y277204D01*
X18125Y274495D01*
X21682Y272315D01*
X25536Y270719D01*
X29592Y269745D01*
X33750Y269418D01*
X37908Y269745D01*
X41964Y270719D01*
X45818Y272315D01*
X49374Y274495D01*
X52546Y277204D01*
X55255Y280375D01*
X57435Y283932D01*
X59031Y287786D01*
X60005Y291842D01*
X60332Y296000D01*
X60005Y300158D01*
X59031Y304214D01*
X57435Y308068D01*
X55255Y311625D01*
X52546Y314796D01*
X49374Y317505D01*
X45818Y319685D01*
X41964Y321281D01*
X37908Y322255D01*
X33750Y322582D01*
D02*
G37*
G36*
X568400Y530000D02*
X562400D01*
Y524000D01*
X568400D01*
Y530000D01*
D02*
G37*
G36*
X522000Y819609D02*
X517589Y819174D01*
X513348Y817888D01*
X509439Y815799D01*
X506013Y812987D01*
X503201Y809561D01*
X502038Y807384D01*
X501352Y806698D01*
X500877Y805550D01*
Y804875D01*
X499826Y801411D01*
X499391Y797000D01*
X499826Y792589D01*
X501112Y788348D01*
X503201Y784439D01*
X504626Y782703D01*
X504626Y759374D01*
X495500D01*
X494352Y758898D01*
X493876Y757750D01*
Y748000D01*
X494352Y746852D01*
X495500Y746376D01*
X508240Y746376D01*
X508900Y744650D01*
X508900D01*
Y739758D01*
X507210Y739010D01*
X494490D01*
Y733169D01*
X492642Y732404D01*
X490374Y734673D01*
X490374Y747500D01*
X489898Y748648D01*
X488750Y749124D01*
X478000D01*
X476852Y748648D01*
X476795Y748510D01*
X476790D01*
Y748499D01*
X476376Y747500D01*
Y734783D01*
X474529Y734017D01*
X466998Y741548D01*
X465850Y742023D01*
Y753400D01*
X449641D01*
X448738Y755000D01*
X449641Y756600D01*
X456000D01*
Y763850D01*
Y771100D01*
X448150D01*
Y764000D01*
X445000D01*
Y759550D01*
X443000D01*
Y764000D01*
X439500Y764000D01*
X439100Y765834D01*
Y770000D01*
X431850D01*
Y760400D01*
X437500D01*
X439100Y760400D01*
X439500Y758566D01*
X439500Y755100D01*
X439500Y753100D01*
Y749987D01*
X437950Y748900D01*
X434950D01*
Y746000D01*
X432950D01*
Y748900D01*
X429950D01*
Y748293D01*
X429450Y746500D01*
X427950Y746500D01*
X425450D01*
Y738501D01*
Y730500D01*
X429450Y730500D01*
X429950Y728708D01*
Y728100D01*
X432950D01*
Y731000D01*
X434950D01*
Y728100D01*
X436376D01*
Y727250D01*
X436852Y726102D01*
X438000Y725626D01*
X448150D01*
Y725600D01*
X464626D01*
X464626Y722400D01*
X458000D01*
Y715150D01*
X457000D01*
Y714150D01*
X448150D01*
Y707900D01*
X454150D01*
Y701751D01*
X453550Y700000D01*
X450050D01*
Y695550D01*
X449050D01*
Y694550D01*
X444550D01*
X444550Y691250D01*
X443812Y691250D01*
X436750D01*
Y690250D01*
X435250D01*
Y688750D01*
X436500D01*
Y667250D01*
X435250D01*
Y665750D01*
X436626D01*
Y620000D01*
X437102Y618852D01*
X438250Y618376D01*
X452500D01*
X453648Y618852D01*
X454124Y620000D01*
Y662500D01*
X454375Y662876D01*
X492500D01*
X493040Y663100D01*
X493850D01*
Y663839D01*
X494124Y664500D01*
Y675713D01*
X494124Y676250D01*
X494114Y676298D01*
X494122Y676321D01*
X493850Y677600D01*
X493430D01*
X488624Y682006D01*
Y684876D01*
X494000D01*
X495148Y685352D01*
X495624Y686500D01*
X495624Y707508D01*
X495624Y708000D01*
X495623Y708001D01*
X495148Y709148D01*
X495026Y709199D01*
X495000Y709250D01*
X494902Y709250D01*
X494000Y709624D01*
X488624D01*
Y712771D01*
X488624Y715126D01*
X495250Y715126D01*
X496398Y715602D01*
X496398Y715602D01*
X496874Y716750D01*
X496874Y727500D01*
X496877Y727501D01*
X498721Y727990D01*
X499742D01*
X501235Y726498D01*
X501041Y724498D01*
X501000D01*
Y723298D01*
X500876Y723000D01*
Y704000D01*
X501352Y702852D01*
X502500Y702376D01*
X508750D01*
X509876Y701624D01*
X509876Y691032D01*
X509439Y690799D01*
X506013Y687987D01*
X503201Y684561D01*
X501112Y680652D01*
X499826Y676411D01*
X499391Y672000D01*
X499826Y667589D01*
X501112Y663348D01*
X503201Y659439D01*
X503639Y658906D01*
X502116Y657384D01*
X501232Y656061D01*
X500922Y654500D01*
X500922Y654500D01*
Y645100D01*
X500500D01*
Y645000D01*
X498000D01*
Y640550D01*
X497000D01*
Y639550D01*
X492500D01*
Y638150D01*
X480400D01*
X478400Y638150D01*
X477600Y638150D01*
X472650D01*
Y631550D01*
Y624950D01*
X477600D01*
X479600Y624950D01*
X480400Y624950D01*
X483291D01*
Y619050D01*
X479400D01*
Y617049D01*
X460000D01*
X459025Y616855D01*
X458198Y616302D01*
X452820Y610925D01*
X452000Y611088D01*
X450244Y610739D01*
X448756Y609744D01*
X447761Y608256D01*
X447412Y606500D01*
X447761Y604744D01*
X448756Y603256D01*
X450244Y602261D01*
X452000Y601912D01*
X453756Y602261D01*
X455244Y603256D01*
X456239Y604744D01*
X456588Y606500D01*
X456540Y606742D01*
X457530Y607639D01*
X459500Y606802D01*
Y600450D01*
X475100D01*
Y609550D01*
X463455D01*
X462385Y611550D01*
X462654Y611951D01*
X479400D01*
Y609950D01*
X495000D01*
Y619050D01*
X489409D01*
Y624950D01*
X493100D01*
Y627000D01*
X501500D01*
Y627100D01*
X509500D01*
Y636000D01*
X509500Y636000D01*
Y636200D01*
X509500D01*
X509500Y638000D01*
Y645100D01*
X509078D01*
Y651126D01*
X511078Y652325D01*
X513348Y651112D01*
X517589Y649826D01*
X522000Y649391D01*
X526411Y649826D01*
X530652Y651112D01*
X534561Y653201D01*
X537987Y656013D01*
X540799Y659439D01*
X542888Y663348D01*
X543647Y665851D01*
X544148Y666352D01*
X544623Y667500D01*
Y725350D01*
X544148Y726498D01*
X544100Y726518D01*
Y743482D01*
X544148Y743502D01*
X544623Y744650D01*
Y798000D01*
X544475Y798359D01*
X544174Y801411D01*
X542888Y805652D01*
X540799Y809561D01*
X537987Y812987D01*
X534561Y815799D01*
X530652Y817888D01*
X526411Y819174D01*
X522000Y819609D01*
D02*
G37*
G36*
X574500Y744650D02*
X561900D01*
Y740000D01*
X574500D01*
Y744650D01*
D02*
G37*
G36*
X120550Y751000D02*
X116850D01*
Y747350D01*
X120550D01*
Y751000D01*
D02*
G37*
G36*
X116500Y728550D02*
X112850D01*
Y724850D01*
X116500D01*
Y728550D01*
D02*
G37*
G36*
X122150D02*
X118500D01*
Y724850D01*
X122150D01*
Y728550D01*
D02*
G37*
G36*
X574500Y730000D02*
X561900D01*
Y725350D01*
X574500D01*
Y730000D01*
D02*
G37*
G36*
X465850Y762850D02*
X458000D01*
Y756600D01*
X465850D01*
Y762850D01*
D02*
G37*
G36*
X562000Y787000D02*
X551833D01*
X553201Y784439D01*
X556013Y781013D01*
X559439Y778201D01*
X562000Y776833D01*
Y787000D01*
D02*
G37*
G36*
X32750Y785500D02*
X19750D01*
Y778500D01*
X32750D01*
Y785500D01*
D02*
G37*
G36*
X88750Y819900D02*
X60750D01*
Y803900D01*
X67120D01*
X67453Y803668D01*
X68591Y801900D01*
X68412Y801000D01*
X68761Y799244D01*
X69756Y797756D01*
X71244Y796761D01*
X72557Y796500D01*
X72360Y794500D01*
X60750D01*
Y778500D01*
X88750D01*
Y794500D01*
X73640D01*
X73443Y796500D01*
X74756Y796761D01*
X76244Y797756D01*
X77239Y799244D01*
X77588Y801000D01*
X77409Y801900D01*
X78548Y803668D01*
X78880Y803900D01*
X88750D01*
Y819900D01*
D02*
G37*
G36*
X429850Y770000D02*
X422600D01*
Y760400D01*
X429850D01*
Y770000D01*
D02*
G37*
G36*
X120550Y765650D02*
X116850D01*
Y762000D01*
X120550D01*
Y765650D01*
D02*
G37*
G36*
X465850Y771100D02*
X458000D01*
Y764850D01*
X465850D01*
Y771100D01*
D02*
G37*
G36*
X424750Y690250D02*
X423250D01*
Y688750D01*
X424750D01*
Y690250D01*
D02*
G37*
G36*
X432750D02*
X431250D01*
Y688750D01*
X432750D01*
Y690250D01*
D02*
G37*
G36*
X562000Y692167D02*
X559439Y690799D01*
X556013Y687987D01*
X553201Y684561D01*
X551833Y682000D01*
X562000D01*
Y692167D01*
D02*
G37*
G36*
X428650Y704650D02*
X424950D01*
Y701000D01*
X428650D01*
Y704650D01*
D02*
G37*
G36*
X456000Y722400D02*
X448150D01*
Y716150D01*
X456000D01*
Y722400D01*
D02*
G37*
G36*
X428650Y699000D02*
X424950D01*
Y695750D01*
X427250D01*
Y695350D01*
X428650D01*
Y699000D01*
D02*
G37*
G36*
X448050Y700000D02*
X444550D01*
Y696550D01*
X448050D01*
Y700000D01*
D02*
G37*
G36*
X125000Y853591D02*
X122259Y853230D01*
X119705Y852172D01*
X117511Y850489D01*
X115828Y848295D01*
X114770Y845741D01*
X114409Y843000D01*
X114770Y840259D01*
X115828Y837705D01*
X117511Y835511D01*
X119705Y833828D01*
X122259Y832770D01*
X125000Y832409D01*
X127741Y832770D01*
X130295Y833828D01*
X132489Y835511D01*
X132618Y835680D01*
X134614Y835810D01*
X143087Y827337D01*
X144080Y826674D01*
X145250Y826441D01*
X145250Y826441D01*
X148392D01*
X149500Y824900D01*
X149500Y823100D01*
Y816000D01*
Y808100D01*
X149500D01*
Y807900D01*
X149500D01*
Y804450D01*
X154000D01*
Y803450D01*
X155000D01*
Y799000D01*
X158400D01*
Y798650D01*
X165000D01*
Y797650D01*
X166000D01*
Y790900D01*
X171600D01*
Y794264D01*
X173600Y794662D01*
X174202Y793209D01*
X175725Y791225D01*
X177709Y789702D01*
X180020Y788745D01*
X182500Y788418D01*
X184980Y788745D01*
X187291Y789702D01*
X189275Y791225D01*
X190798Y793209D01*
X191755Y795520D01*
X192082Y798000D01*
X191755Y800480D01*
X190798Y802791D01*
X189275Y804775D01*
X187291Y806298D01*
X184980Y807255D01*
X182500Y807582D01*
X182222Y807545D01*
X174534Y815234D01*
X173211Y816118D01*
X171650Y816428D01*
X171600Y818322D01*
Y819100D01*
X158500D01*
X158500Y824900D01*
X158500Y826900D01*
Y834000D01*
X149500D01*
Y832559D01*
X146517D01*
X135517Y843559D01*
X135230Y845741D01*
X134172Y848295D01*
X132489Y850489D01*
X130295Y852172D01*
X127741Y853230D01*
X125000Y853591D01*
D02*
G37*
G36*
X260000Y877294D02*
Y873000D01*
X264294D01*
X264172Y873295D01*
X262489Y875489D01*
X260295Y877172D01*
X260000Y877294D01*
D02*
G37*
G36*
X184000Y896500D02*
X175350D01*
Y879900D01*
X184000D01*
Y896500D01*
D02*
G37*
G36*
X194650D02*
X186000D01*
Y879900D01*
X194650D01*
Y896500D01*
D02*
G37*
G36*
X250000Y863000D02*
X245706D01*
X245828Y862705D01*
X247511Y860511D01*
X249705Y858828D01*
X250000Y858706D01*
Y863000D01*
D02*
G37*
G36*
X264294D02*
X260000D01*
Y858706D01*
X260295Y858828D01*
X262489Y860511D01*
X264172Y862705D01*
X264294Y863000D01*
D02*
G37*
G36*
X250000Y877294D02*
X249705Y877172D01*
X247511Y875489D01*
X245828Y873295D01*
X245706Y873000D01*
X250000D01*
Y877294D01*
D02*
G37*
G36*
X184000Y915100D02*
X175350D01*
Y898500D01*
X184000D01*
Y915100D01*
D02*
G37*
G36*
X323350Y936850D02*
X308850D01*
Y919150D01*
X312072D01*
Y903500D01*
X305500D01*
Y882500D01*
X322174D01*
X334287Y870387D01*
X334287Y870387D01*
X335280Y869724D01*
X336450Y869491D01*
X336450Y869491D01*
X339513D01*
X340500Y867900D01*
X340500Y866100D01*
Y859000D01*
X340500D01*
X340750Y858750D01*
Y849750D01*
X351750D01*
Y858750D01*
X351396D01*
X349500Y859000D01*
Y866100D01*
X349500Y867900D01*
X349500Y869900D01*
Y877000D01*
X340500D01*
Y875609D01*
X337717D01*
X326500Y886826D01*
Y903500D01*
X320228D01*
Y919150D01*
X323350D01*
Y923922D01*
X328004D01*
X328244Y923761D01*
X330000Y923412D01*
X331756Y923761D01*
X333244Y924756D01*
X334239Y926244D01*
X334588Y928000D01*
X334239Y929756D01*
X333244Y931244D01*
X331756Y932239D01*
X330000Y932588D01*
X328244Y932239D01*
X328004Y932078D01*
X323350D01*
Y936850D01*
D02*
G37*
G36*
X297400D02*
X291150D01*
Y929000D01*
X297400D01*
Y936850D01*
D02*
G37*
G36*
X305650D02*
X299400D01*
Y929000D01*
X305650D01*
Y936850D01*
D02*
G37*
G36*
X194650Y915100D02*
X186000D01*
Y898500D01*
X194650D01*
Y915100D01*
D02*
G37*
G36*
X297400Y927000D02*
X291150D01*
Y919150D01*
X297400D01*
Y927000D01*
D02*
G37*
G36*
X305650D02*
X299400D01*
Y919150D01*
X305650D01*
Y927000D01*
D02*
G37*
G36*
X494250Y939094D02*
X399250D01*
X393494Y938717D01*
X387837Y937592D01*
X382376Y935738D01*
X377203Y933187D01*
X372407Y929982D01*
X368070Y926179D01*
X364268Y921843D01*
X361063Y917047D01*
X358512Y911874D01*
X356658Y906413D01*
X355533Y900755D01*
X355156Y895000D01*
X355533Y889245D01*
X356658Y883587D01*
X358512Y878126D01*
X361063Y872953D01*
X364268Y868157D01*
X368070Y863820D01*
X372407Y860018D01*
X377203Y856813D01*
X382376Y854262D01*
X387837Y852408D01*
X393494Y851283D01*
X399250Y850906D01*
X494250D01*
X500005Y851283D01*
X505662Y852408D01*
X511124Y854262D01*
X516297Y856813D01*
X521093Y860018D01*
X525429Y863820D01*
X529232Y868157D01*
X532437Y872953D01*
X534988Y878126D01*
X536842Y883587D01*
X537967Y889245D01*
X538344Y895000D01*
X537967Y900755D01*
X536842Y906413D01*
X534988Y911874D01*
X532437Y917047D01*
X529232Y921843D01*
X525429Y926179D01*
X521093Y929982D01*
X516297Y933187D01*
X511124Y935738D01*
X505662Y937592D01*
X500005Y938717D01*
X494250Y939094D01*
D02*
G37*
G36*
X153000Y802450D02*
X149500D01*
Y799000D01*
X153000D01*
Y802450D01*
D02*
G37*
G36*
X198000Y821124D02*
X196852Y820648D01*
X196376Y819500D01*
Y808500D01*
X196852Y807352D01*
X198000Y806876D01*
X220500Y806876D01*
X221648Y807352D01*
X222124Y808500D01*
X222124Y819500D01*
X221648Y820648D01*
X220500Y821124D01*
X198000Y821124D01*
D02*
G37*
G36*
X562000Y817167D02*
X559439Y815799D01*
X556013Y812987D01*
X553201Y809561D01*
X551833Y807000D01*
X562000D01*
Y817167D01*
D02*
G37*
G36*
X435000Y793500D02*
X431500D01*
Y789000D01*
X435000D01*
Y793500D01*
D02*
G37*
G36*
X440500D02*
X437000D01*
Y789000D01*
X440500D01*
Y793500D01*
D02*
G37*
G36*
X164000Y796650D02*
X158400D01*
Y790900D01*
X164000D01*
Y796650D01*
D02*
G37*
G36*
X325294Y813000D02*
X321000D01*
Y808706D01*
X321295Y808828D01*
X323489Y810511D01*
X325172Y812705D01*
X325294Y813000D01*
D02*
G37*
G36*
X130000Y827294D02*
Y823000D01*
X134294D01*
X134172Y823295D01*
X132489Y825489D01*
X130295Y827172D01*
X130000Y827294D01*
D02*
G37*
G36*
X170000Y908874D02*
X110750D01*
X109602Y908398D01*
X109126Y907250D01*
Y879750D01*
X109602Y878602D01*
X110750Y878126D01*
X117663D01*
X118342Y876126D01*
X117511Y875489D01*
X115828Y873295D01*
X114770Y870741D01*
X114409Y868000D01*
X114770Y865259D01*
X115828Y862705D01*
X117511Y860511D01*
X119705Y858828D01*
X122259Y857770D01*
X125000Y857409D01*
X127741Y857770D01*
X130295Y858828D01*
X132489Y860511D01*
X134172Y862705D01*
X135230Y865259D01*
X135591Y868000D01*
X135230Y870741D01*
X134172Y873295D01*
X132489Y875489D01*
X131658Y876126D01*
X132337Y878126D01*
X147626D01*
Y846250D01*
X148102Y845102D01*
X149250Y844626D01*
X174626D01*
Y825000D01*
X175102Y823852D01*
X176250Y823376D01*
X208750D01*
X209898Y823852D01*
X210374Y825000D01*
Y842250D01*
X209898Y843398D01*
X208750Y843874D01*
X195374D01*
X195374Y870500D01*
X194898Y871648D01*
X193750Y872124D01*
X173038Y872124D01*
X171624Y873538D01*
X171624Y907250D01*
X171148Y908398D01*
X170000Y908874D01*
D02*
G37*
G36*
X88750Y845300D02*
X60750D01*
Y842925D01*
X60624Y842711D01*
X58750Y841439D01*
X58000Y841588D01*
X56244Y841239D01*
X54756Y840244D01*
X53761Y838756D01*
X53412Y837000D01*
X53761Y835244D01*
X54756Y833756D01*
X56244Y832761D01*
X58000Y832412D01*
X58750Y832561D01*
X60624Y831289D01*
X60750Y831075D01*
Y829300D01*
X88750D01*
Y845300D01*
D02*
G37*
G36*
X134294Y813000D02*
X130000D01*
Y808706D01*
X130295Y808828D01*
X132489Y810511D01*
X134172Y812705D01*
X134294Y813000D01*
D02*
G37*
G36*
X120000D02*
X115706D01*
X115828Y812705D01*
X117511Y810511D01*
X119705Y808828D01*
X120000Y808706D01*
Y813000D01*
D02*
G37*
G36*
Y827294D02*
X119705Y827172D01*
X117511Y825489D01*
X115828Y823295D01*
X115706Y823000D01*
X120000D01*
Y827294D01*
D02*
G37*
G36*
X470650Y630550D02*
X464900D01*
Y624950D01*
X470650D01*
Y630550D01*
D02*
G37*
G36*
X367000Y633000D02*
X362500D01*
Y629500D01*
X367000D01*
Y633000D01*
D02*
G37*
G36*
X373500Y627500D02*
X369000D01*
Y624000D01*
X373500D01*
Y627500D01*
D02*
G37*
G36*
X493150Y569600D02*
Y561750D01*
X499400D01*
Y569600D01*
X493150D01*
D02*
G37*
G36*
X367000Y627500D02*
X362500D01*
Y624000D01*
X367000D01*
Y627500D01*
D02*
G37*
G36*
X373500Y633000D02*
X369000D01*
Y629500D01*
X373500D01*
Y633000D01*
D02*
G37*
G36*
X499400Y559750D02*
X493150D01*
Y551900D01*
X499400D01*
Y559750D01*
D02*
G37*
G36*
X584400Y642000D02*
X578400D01*
Y636000D01*
X584400D01*
Y642000D01*
D02*
G37*
G36*
X568400D02*
X562400D01*
Y636000D01*
X568400D01*
Y642000D01*
D02*
G37*
G36*
X470650Y638150D02*
X464900D01*
Y632550D01*
X470650D01*
Y638150D01*
D02*
G37*
G36*
X558750Y642874D02*
X537000D01*
X535852Y642398D01*
X535376Y641250D01*
Y633500D01*
X533376Y633419D01*
X533317Y633872D01*
X532209Y636547D01*
X530445Y638845D01*
X528148Y640608D01*
X525472Y641717D01*
X522600Y642095D01*
X519728Y641717D01*
X517052Y640608D01*
X514755Y638845D01*
X512991Y636547D01*
X511883Y633872D01*
X511505Y631000D01*
X511883Y628128D01*
X512741Y626058D01*
X505682Y619000D01*
X502500D01*
Y611900D01*
X502500Y610100D01*
X502500Y608100D01*
Y601000D01*
X504451D01*
Y598556D01*
X497000Y591105D01*
X495000Y591933D01*
X495000Y592543D01*
Y594500D01*
X488200D01*
Y590950D01*
X493370D01*
X494017Y590950D01*
X494845Y588950D01*
X478444Y572549D01*
X471020D01*
X470298Y574291D01*
X468775Y576275D01*
X466791Y577798D01*
X464480Y578755D01*
X462000Y579082D01*
X459520Y578755D01*
X457209Y577798D01*
X455224Y576275D01*
X453702Y574291D01*
X452773Y572049D01*
X422006D01*
X405752Y588302D01*
X404925Y588855D01*
X403950Y589049D01*
X393709D01*
X393244Y589744D01*
X391756Y590739D01*
X390000Y591088D01*
X388244Y590739D01*
X386756Y589744D01*
X385761Y588256D01*
X385574Y587313D01*
X383999Y585587D01*
X382243Y585238D01*
X380755Y584243D01*
X379760Y582755D01*
X379411Y580999D01*
X379760Y579243D01*
X380755Y577755D01*
X382243Y576760D01*
X383999Y576411D01*
X385755Y576760D01*
X387243Y577755D01*
X387708Y578450D01*
X399945D01*
X445198Y533198D01*
X446025Y532645D01*
X447000Y532451D01*
X452980D01*
X453702Y530709D01*
X455224Y528725D01*
X457209Y527202D01*
X459520Y526245D01*
X462000Y525918D01*
X464480Y526245D01*
X466791Y527202D01*
X468775Y528725D01*
X470298Y530709D01*
X471020Y532451D01*
X492500D01*
Y530500D01*
X499600D01*
X501400Y530500D01*
X503400Y530500D01*
X510500D01*
Y530922D01*
X512383D01*
X512991Y529453D01*
X514755Y527155D01*
X517052Y525392D01*
X519728Y524283D01*
X522600Y523905D01*
X525472Y524283D01*
X528148Y525392D01*
X530445Y527155D01*
X532209Y529453D01*
X533317Y532128D01*
X533695Y535000D01*
X533317Y537872D01*
X532209Y540547D01*
X530445Y542845D01*
X528148Y544608D01*
X525472Y545717D01*
X522600Y546095D01*
X519728Y545717D01*
X517052Y544608D01*
X514755Y542845D01*
X512991Y540547D01*
X512383Y539078D01*
X510500D01*
Y539500D01*
X503400D01*
X501600Y539500D01*
X499600Y539500D01*
X492500D01*
Y537549D01*
X471312D01*
X471255Y537980D01*
X470298Y540291D01*
X468775Y542275D01*
X466791Y543798D01*
X464480Y544756D01*
X462000Y545082D01*
X459520Y544756D01*
X457209Y543798D01*
X455224Y542275D01*
X453702Y540291D01*
X452744Y537980D01*
X452688Y537549D01*
X448056D01*
X420606Y564999D01*
X420718Y565632D01*
X421482Y566951D01*
X452773D01*
X453702Y564709D01*
X455224Y562725D01*
X457209Y561202D01*
X459520Y560244D01*
X462000Y559918D01*
X464480Y560244D01*
X466791Y561202D01*
X468775Y562725D01*
X470298Y564709D01*
X471255Y567020D01*
X471312Y567451D01*
X479500D01*
X480476Y567645D01*
X481302Y568198D01*
X483038Y569933D01*
X483132Y569884D01*
X483132Y569884D01*
X484900Y568967D01*
X484900Y567862D01*
Y561750D01*
X491150D01*
Y569600D01*
X486782D01*
X485533Y569600D01*
X484567Y571462D01*
X508802Y595698D01*
X509355Y596525D01*
X509549Y597500D01*
Y601000D01*
X511500D01*
Y607283D01*
X512457Y607813D01*
X513500Y608092D01*
X514744Y607261D01*
X516500Y606912D01*
X518256Y607261D01*
X519744Y608256D01*
X520739Y609744D01*
X521088Y611500D01*
X520739Y613256D01*
X519744Y614744D01*
X518256Y615739D01*
X517029Y615983D01*
X516315Y617473D01*
X516241Y618024D01*
X518860Y620643D01*
X519728Y620283D01*
X522600Y619905D01*
X525472Y620283D01*
X528148Y621391D01*
X530445Y623155D01*
X532209Y625452D01*
X533317Y628128D01*
X533376Y628581D01*
X535376Y628450D01*
X535376Y615173D01*
X513002Y592798D01*
X512526Y591650D01*
X507900D01*
Y573684D01*
X507452Y573498D01*
X504702Y570748D01*
X504226Y569600D01*
X502600D01*
Y551900D01*
X516439D01*
X517100Y551626D01*
X526577Y551626D01*
X535876Y542327D01*
X535876Y496250D01*
X536352Y495102D01*
X537500Y494626D01*
X558750D01*
X559898Y495102D01*
X560374Y496250D01*
Y570568D01*
X560900Y572350D01*
X562374Y572350D01*
X573500D01*
Y582000D01*
Y591650D01*
X562374D01*
X560900Y591650D01*
X560374Y593432D01*
Y641250D01*
X559898Y642398D01*
X558750Y642874D01*
D02*
G37*
G36*
X345850Y605850D02*
X338000D01*
Y599600D01*
X345850D01*
Y605850D01*
D02*
G37*
G36*
X486200Y594500D02*
X479400D01*
Y590950D01*
X486200D01*
Y594500D01*
D02*
G37*
G36*
Y600050D02*
X479400D01*
Y596500D01*
X486200D01*
Y600050D01*
D02*
G37*
G36*
X495000D02*
X488200D01*
Y596500D01*
X495000D01*
Y600050D01*
D02*
G37*
G36*
X336000Y614100D02*
X328150D01*
Y607443D01*
X327650Y605650D01*
X326150Y605650D01*
X324000D01*
Y600950D01*
X323000D01*
Y599950D01*
X318350D01*
Y597124D01*
X315000D01*
Y598000D01*
X306250D01*
X297500D01*
Y595798D01*
X297376Y595500D01*
Y592500D01*
X297500Y592202D01*
Y581000D01*
Y571000D01*
Y561000D01*
Y551000D01*
Y541000D01*
X315000D01*
Y541000D01*
X317000Y541138D01*
X317256Y540756D01*
X318744Y539761D01*
X320500Y539412D01*
X322256Y539761D01*
X323744Y540756D01*
X324739Y542244D01*
X325088Y544000D01*
X324739Y545756D01*
X323744Y547244D01*
X322256Y548239D01*
X320500Y548588D01*
X318744Y548239D01*
X317256Y547244D01*
X317000Y546862D01*
X315000Y547016D01*
Y556000D01*
Y566000D01*
Y576000D01*
Y588376D01*
X317000Y589204D01*
X317111Y589093D01*
X318350Y587721D01*
Y587721D01*
X318350Y587721D01*
Y587350D01*
X320000Y586876D01*
X320000Y586876D01*
X320154Y586876D01*
X323327D01*
X327852Y582352D01*
X328150Y582229D01*
Y581900D01*
X328943D01*
X329000Y581876D01*
X337273D01*
X338342Y579876D01*
X338261Y579756D01*
X337912Y578000D01*
X338261Y576244D01*
X339256Y574756D01*
X340744Y573761D01*
X342500Y573412D01*
X344256Y573761D01*
X344496Y573922D01*
X347050D01*
X347050Y573922D01*
X348611Y574232D01*
X349934Y575116D01*
X353259Y578442D01*
X353525D01*
X354686Y578673D01*
X355670Y579330D01*
X356327Y580314D01*
X356558Y581475D01*
Y584425D01*
X356352Y585464D01*
X356648Y587352D01*
X357124Y588500D01*
X357124Y589161D01*
Y595500D01*
X356648Y596648D01*
X355500Y597124D01*
X329462D01*
X329118Y597600D01*
X329376Y598569D01*
X330140Y599600D01*
X336000D01*
Y606850D01*
Y614100D01*
D02*
G37*
G36*
X322000Y605650D02*
X318350D01*
Y601950D01*
X322000D01*
Y605650D01*
D02*
G37*
G36*
X568400Y626000D02*
X562400D01*
Y620000D01*
X568400D01*
Y626000D01*
D02*
G37*
G36*
X584400D02*
X578400D01*
Y620000D01*
X584400D01*
Y626000D01*
D02*
G37*
G36*
X107500Y612350D02*
X99650D01*
Y606100D01*
X107500D01*
Y612350D01*
D02*
G37*
G36*
X345850Y614100D02*
X338000D01*
Y607850D01*
X345850D01*
Y614100D01*
D02*
G37*
G36*
X269500Y551588D02*
X267744Y551239D01*
X266256Y550244D01*
X265791Y549549D01*
X254500D01*
X253525Y549355D01*
X252698Y548802D01*
X242198Y538302D01*
X241645Y537476D01*
X241451Y536500D01*
Y535500D01*
X240000D01*
Y526750D01*
X238000D01*
Y535500D01*
X236549D01*
Y536000D01*
X236355Y536975D01*
X235802Y537802D01*
X234302Y539302D01*
X233475Y539855D01*
X232500Y540049D01*
X225500D01*
X224525Y539855D01*
X223698Y539302D01*
X222198Y537802D01*
X221645Y536976D01*
X221451Y536000D01*
Y535500D01*
X205000D01*
Y526750D01*
X203000D01*
Y535500D01*
X170000D01*
Y526750D01*
X169000D01*
Y525750D01*
X166000D01*
Y520111D01*
X164000Y518933D01*
X163850Y519016D01*
Y519100D01*
X146150D01*
Y515928D01*
X137720D01*
X137256Y516239D01*
X135500Y516588D01*
X133744Y516239D01*
X132256Y515244D01*
X131261Y513756D01*
X130912Y512000D01*
X131261Y510244D01*
X132256Y508756D01*
X133744Y507761D01*
X135500Y507412D01*
X137256Y507761D01*
X137272Y507772D01*
X146150D01*
Y504600D01*
X163850D01*
Y510891D01*
X171350D01*
Y506050D01*
X176000D01*
Y504050D01*
X171350D01*
Y500350D01*
X171350D01*
Y497450D01*
X176000D01*
Y495450D01*
X171350D01*
Y491750D01*
Y482850D01*
X180650D01*
Y483000D01*
X196500D01*
Y494395D01*
X199500Y497395D01*
X201500Y496567D01*
X201500Y496542D01*
X201500D01*
X201500Y496514D01*
Y491500D01*
X209000D01*
Y498000D01*
X204928D01*
X203617Y499979D01*
X203647Y500000D01*
X211481D01*
X211639Y499764D01*
X211000Y498568D01*
Y490500D01*
Y483000D01*
X217350D01*
Y479850D01*
X221000D01*
Y484550D01*
X222000D01*
Y485550D01*
X226650D01*
Y488750D01*
Y497527D01*
X227681Y497993D01*
X229426Y496618D01*
Y479500D01*
X229902Y478352D01*
X231050Y477876D01*
X237550D01*
X238698Y478352D01*
X239174Y479500D01*
Y495350D01*
X242200D01*
Y500000D01*
X244200D01*
Y495350D01*
X246657D01*
X247900Y495350D01*
X249042Y493823D01*
X249756Y492756D01*
X251244Y491761D01*
X253000Y491412D01*
X254756Y491761D01*
X256244Y492756D01*
X257239Y494244D01*
X257588Y496000D01*
X257239Y497756D01*
X256742Y498500D01*
X257215Y499938D01*
X257691Y500500D01*
X266500D01*
Y508850D01*
X266650D01*
Y511596D01*
X266802Y511698D01*
X269451Y514346D01*
X271329Y513568D01*
X271393Y511670D01*
X270756Y511244D01*
X269761Y509756D01*
X269412Y508000D01*
X269761Y506244D01*
X270756Y504756D01*
X272244Y503761D01*
X274000Y503412D01*
X275756Y503761D01*
X276168Y504036D01*
X277948Y503141D01*
X278009Y501413D01*
X277756Y501244D01*
X276761Y499756D01*
X276412Y498000D01*
X276761Y496244D01*
X277756Y494756D01*
X279244Y493761D01*
X281000Y493412D01*
X282756Y493761D01*
X284244Y494756D01*
X285239Y496244D01*
X285588Y498000D01*
X285239Y499756D01*
X284244Y501244D01*
X283549Y501709D01*
Y513500D01*
X283355Y514476D01*
X282802Y515302D01*
X282105Y516000D01*
X282891Y518000D01*
X292000D01*
Y524201D01*
X331041D01*
X331506Y523506D01*
X332994Y522511D01*
X334750Y522162D01*
X336506Y522511D01*
X337994Y523506D01*
X338989Y524994D01*
X339338Y526750D01*
X338989Y528506D01*
X337994Y529994D01*
X336506Y530989D01*
X334750Y531338D01*
X332994Y530989D01*
X331506Y529994D01*
X331041Y529299D01*
X292000D01*
Y535500D01*
X289145D01*
X288076Y537500D01*
X288239Y537744D01*
X288588Y539500D01*
X288239Y541256D01*
X287244Y542744D01*
X285756Y543739D01*
X284000Y544088D01*
X282244Y543739D01*
X280756Y542744D01*
X279761Y541256D01*
X279412Y539500D01*
X279761Y537744D01*
X279924Y537500D01*
X278855Y535500D01*
X271140D01*
X268338Y538302D01*
X268231Y538374D01*
X267363Y539242D01*
X267440Y541198D01*
X269035Y542504D01*
X269500Y542412D01*
X271256Y542761D01*
X272744Y543756D01*
X273739Y545244D01*
X274088Y547000D01*
X273739Y548756D01*
X272744Y550244D01*
X271256Y551239D01*
X269500Y551588D01*
D02*
G37*
G36*
X332150Y663000D02*
X328450D01*
Y659350D01*
X332150D01*
Y663000D01*
D02*
G37*
G36*
X168000Y535500D02*
X166000D01*
Y527750D01*
X168000D01*
Y535500D01*
D02*
G37*
G36*
X465000Y659900D02*
X457150D01*
Y653650D01*
X465000D01*
Y659900D01*
D02*
G37*
G36*
X486000D02*
Y653650D01*
X493850D01*
Y659900D01*
X486000D01*
D02*
G37*
G36*
X584400Y530000D02*
X578400D01*
Y524000D01*
X584400D01*
Y530000D01*
D02*
G37*
G36*
X432750Y667250D02*
X431250D01*
Y665750D01*
X432750D01*
Y667250D01*
D02*
G37*
G36*
X424750D02*
X423250D01*
Y665750D01*
X424750D01*
Y667250D01*
D02*
G37*
G36*
X491150Y559750D02*
X484900D01*
Y551900D01*
X491150D01*
Y559750D01*
D02*
G37*
G36*
X465000Y651650D02*
X457150D01*
Y645400D01*
X465000D01*
Y651650D01*
D02*
G37*
G36*
X474850Y659900D02*
X474150Y659900D01*
X467000D01*
Y652650D01*
Y645400D01*
X474150D01*
X476150Y645400D01*
X476850Y645400D01*
X484000D01*
Y652650D01*
Y659900D01*
X476850D01*
X474850Y659900D01*
D02*
G37*
G36*
X584400Y546000D02*
X578400D01*
Y540000D01*
X584400D01*
Y546000D01*
D02*
G37*
G36*
X390850Y652050D02*
X390150Y652050D01*
X383000D01*
Y645000D01*
Y637950D01*
X390150D01*
X392150Y637950D01*
X392850Y637950D01*
X400000D01*
Y645000D01*
Y652050D01*
X392850D01*
X390850Y652050D01*
D02*
G37*
G36*
X562000Y662000D02*
X551833D01*
X553201Y659439D01*
X556013Y656013D01*
X559439Y653201D01*
X562000Y651833D01*
Y662000D01*
D02*
G37*
G36*
X568400Y546000D02*
X562400D01*
Y540000D01*
X568400D01*
Y546000D01*
D02*
G37*
G36*
X493850Y651650D02*
X486000D01*
Y645400D01*
X490666D01*
X492500Y645000D01*
X492500Y643959D01*
Y641550D01*
X496000D01*
Y645000D01*
X495684D01*
X493850Y645400D01*
X493850Y646441D01*
Y651650D01*
D02*
G37*
%LPD*%
G36*
X275000Y391250D02*
Y367000D01*
X257000D01*
X257000Y439500D01*
X234500Y439500D01*
X234500Y429500D01*
X225000Y429500D01*
Y456250D01*
X275000D01*
Y391250D01*
D02*
G37*
G36*
X241750Y405250D02*
X225250D01*
Y420750D01*
X241750D01*
Y405250D01*
D02*
G37*
G36*
X137500Y366250D02*
X111250D01*
Y391250D01*
X117750D01*
X118035Y439500D01*
X112500D01*
Y430500D01*
X103500D01*
Y456250D01*
X137500D01*
Y366250D01*
D02*
G37*
G36*
X112750Y406250D02*
X96250D01*
Y421750D01*
X112750D01*
Y406250D01*
D02*
G37*
G36*
X508750Y704000D02*
X502500D01*
Y723000D01*
X508750D01*
Y704000D01*
D02*
G37*
G36*
X488750Y734000D02*
X494490Y728260D01*
Y727990D01*
X494760D01*
X495250Y727500D01*
X495250Y716750D01*
X488624Y716750D01*
Y720250D01*
X488624Y720250D01*
X488624Y720250D01*
X488500Y720548D01*
X488500Y721650D01*
X487400Y722750D01*
X486250Y722750D01*
X478000Y731000D01*
Y747500D01*
X488750D01*
X488750Y734000D01*
D02*
G37*
G36*
X458000Y738900D02*
X465850D01*
Y740400D01*
X486000Y720250D01*
X486516D01*
X487000Y720250D01*
Y716333D01*
X487000Y713132D01*
Y709209D01*
X486852Y709148D01*
X486584Y708500D01*
X486584Y708500D01*
X486376Y708000D01*
Y686500D01*
X486852Y685352D01*
X487000Y685291D01*
Y681291D01*
X492500Y676250D01*
Y664500D01*
X446000D01*
Y670750D01*
X445750D01*
Y671250D01*
X438250D01*
Y674750D01*
X455500D01*
X455500Y691750D01*
X472000Y691750D01*
X472000Y708500D01*
X466250D01*
X466250Y727250D01*
X438000Y727250D01*
X438000Y733250D01*
X437950D01*
Y733900D01*
X431250D01*
X431250Y737500D01*
X448750D01*
Y738750D01*
Y738900D01*
X456000D01*
Y746150D01*
X458000D01*
Y738900D01*
D02*
G37*
G36*
X494000Y686500D02*
X488000D01*
Y708000D01*
X494000D01*
X494000Y686500D01*
D02*
G37*
G36*
X526000Y815000D02*
X543000Y798000D01*
Y744650D01*
X531500D01*
Y735000D01*
Y725350D01*
X543000D01*
Y667500D01*
X529500Y654000D01*
X513000Y654000D01*
X511634Y655366D01*
X523384Y667116D01*
X524268Y668439D01*
X524578Y670000D01*
X524268Y671561D01*
X523384Y672884D01*
X522061Y673768D01*
X520500Y674078D01*
X518939Y673768D01*
X517616Y672884D01*
X505866Y661134D01*
X503500Y663500D01*
X503500Y681000D01*
X511500Y689000D01*
X511500Y715498D01*
X513550D01*
Y719998D01*
Y724498D01*
X511500D01*
Y725350D01*
X521500D01*
Y735000D01*
Y744650D01*
X511500D01*
Y748000D01*
X495500Y748000D01*
Y757750D01*
X506250D01*
X506250Y786750D01*
X502500Y790500D01*
X502500Y805550D01*
X511950Y815000D01*
X526000Y815000D01*
D02*
G37*
G36*
X444250Y662500D02*
X452500D01*
Y620000D01*
X438250D01*
Y669626D01*
X444250D01*
Y662500D01*
D02*
G37*
%LPC*%
G36*
X519000Y718998D02*
X515550D01*
Y715498D01*
X519000D01*
Y718998D01*
D02*
G37*
G36*
Y724498D02*
X515550D01*
Y720998D01*
X519000D01*
Y724498D01*
D02*
G37*
%LPD*%
G36*
X220500Y819500D02*
X220500Y808500D01*
X198000Y808500D01*
Y819500D01*
X220500Y819500D01*
D02*
G37*
G36*
X170000Y870500D02*
X193750Y870500D01*
X193750Y842250D01*
X208750D01*
Y825000D01*
X176250D01*
Y846250D01*
X149250D01*
Y879750D01*
X110750D01*
Y881250D01*
Y907250D01*
X170000D01*
X170000Y870500D01*
D02*
G37*
%LPC*%
G36*
X122500Y890500D02*
X114500D01*
Y882500D01*
X122500D01*
Y890500D01*
D02*
G37*
G36*
X135500Y903500D02*
X127500D01*
Y895500D01*
X135500D01*
Y903500D01*
D02*
G37*
G36*
X122500D02*
X114500D01*
Y895500D01*
X122500D01*
Y903500D01*
D02*
G37*
G36*
X135500Y890500D02*
X127500D01*
Y882500D01*
X135500D01*
Y890500D01*
D02*
G37*
%LPD*%
G36*
X558750Y496250D02*
X537500D01*
X537500Y543000D01*
X527250Y553250D01*
X517100Y553250D01*
Y559750D01*
X509850D01*
Y560750D01*
X508850D01*
Y569600D01*
X505850D01*
X508600Y572350D01*
X520500D01*
Y582000D01*
Y591650D01*
X514150D01*
X537000Y614500D01*
X537000Y633500D01*
Y641250D01*
X558750D01*
Y496250D01*
D02*
G37*
%LPC*%
G36*
X543100Y577000D02*
X530500D01*
Y572350D01*
X543100D01*
Y577000D01*
D02*
G37*
G36*
Y591650D02*
X530500D01*
Y587000D01*
X543100D01*
Y591650D01*
D02*
G37*
G36*
X517100Y569600D02*
X510850D01*
Y561750D01*
X517100D01*
Y569600D01*
D02*
G37*
%LPD*%
G36*
X355500Y588500D02*
X344500D01*
Y583500D01*
X329000D01*
X324000Y588500D01*
X320000D01*
X316000Y592500D01*
X312500Y592500D01*
X299000D01*
Y595500D01*
X355500D01*
Y588500D01*
D02*
G37*
G36*
X189000Y500000D02*
X190161D01*
X191104Y498236D01*
X190946Y498000D01*
X180650D01*
Y500000D01*
X187000D01*
Y507500D01*
X189000D01*
Y500000D01*
D02*
G37*
G36*
X248350Y515860D02*
X247650Y514150D01*
X243950D01*
Y509500D01*
X241950D01*
Y514150D01*
X239657D01*
X239007Y516081D01*
X239959Y518000D01*
X248350D01*
Y515860D01*
D02*
G37*
G36*
X235550Y517500D02*
X237550Y515500D01*
Y479500D01*
X231050D01*
Y516000D01*
X232550Y517500D01*
Y534000D01*
X235550D01*
Y517500D01*
D02*
G37*
D10*
X580200Y319500D02*
D03*
Y305000D02*
D03*
X368000Y628500D02*
D03*
Y643000D02*
D03*
X580450Y190500D02*
D03*
Y205000D02*
D03*
X346250Y839750D02*
D03*
Y854250D02*
D03*
D11*
X378000Y203550D02*
D03*
Y194450D02*
D03*
X505000Y640650D02*
D03*
Y631550D02*
D03*
X497000Y640550D02*
D03*
Y631450D02*
D03*
X449050Y679550D02*
D03*
Y670450D02*
D03*
Y695550D02*
D03*
Y686450D02*
D03*
X444000Y742550D02*
D03*
Y733450D02*
D03*
Y759550D02*
D03*
Y750450D02*
D03*
X369000Y660550D02*
D03*
Y651450D02*
D03*
X507000Y614550D02*
D03*
Y605450D02*
D03*
X414750Y203550D02*
D03*
Y194450D02*
D03*
X406000Y203550D02*
D03*
Y194450D02*
D03*
X369500Y203550D02*
D03*
Y194450D02*
D03*
X452000Y225050D02*
D03*
Y215950D02*
D03*
X193000Y704550D02*
D03*
Y695450D02*
D03*
X201000Y704550D02*
D03*
Y695450D02*
D03*
X85000Y424550D02*
D03*
Y415450D02*
D03*
X210000Y423550D02*
D03*
Y414450D02*
D03*
X154000Y812550D02*
D03*
Y803450D02*
D03*
X77000Y424550D02*
D03*
Y415450D02*
D03*
X345000Y872550D02*
D03*
Y863450D02*
D03*
X205500Y768550D02*
D03*
Y759450D02*
D03*
X195750Y768550D02*
D03*
Y759450D02*
D03*
X154000Y829550D02*
D03*
Y820450D02*
D03*
D12*
X514550Y719998D02*
D03*
X505450D02*
D03*
X412550Y788000D02*
D03*
X403450D02*
D03*
X506050Y535000D02*
D03*
X496950D02*
D03*
X511750Y242750D02*
D03*
X502650D02*
D03*
X511750Y250750D02*
D03*
X502650D02*
D03*
X442550Y317450D02*
D03*
X433450D02*
D03*
X463550Y368500D02*
D03*
X454450D02*
D03*
X442550Y326500D02*
D03*
X433450D02*
D03*
X570050Y305000D02*
D03*
X560950D02*
D03*
X570050Y205000D02*
D03*
X560950D02*
D03*
X262050Y505000D02*
D03*
X252950D02*
D03*
X424550Y335000D02*
D03*
X415450D02*
D03*
X424550Y326500D02*
D03*
X415450D02*
D03*
X202300Y423000D02*
D03*
X193200D02*
D03*
X276050Y813000D02*
D03*
X266950D02*
D03*
X258550D02*
D03*
X249450D02*
D03*
D13*
X530700Y253450D02*
D03*
X525700D02*
D03*
X530700Y238750D02*
D03*
X520700Y253450D02*
D03*
Y238750D02*
D03*
D14*
X579500Y735000D02*
D03*
X526500D02*
D03*
X578500Y582000D02*
D03*
X525500D02*
D03*
X174500Y448000D02*
D03*
X121500D02*
D03*
X296950D02*
D03*
X243950D02*
D03*
D15*
X486350Y631550D02*
D03*
X471650D02*
D03*
X89350Y435250D02*
D03*
X74650D02*
D03*
X212350Y434200D02*
D03*
X197650D02*
D03*
D16*
X466000Y670350D02*
D03*
Y652650D02*
D03*
X485000Y670350D02*
D03*
Y652650D02*
D03*
X457000Y763850D02*
D03*
Y746150D02*
D03*
X463000Y700850D02*
D03*
Y683150D02*
D03*
X457000Y732850D02*
D03*
Y715150D02*
D03*
X221000Y109850D02*
D03*
Y92150D02*
D03*
X108500Y613350D02*
D03*
Y595650D02*
D03*
X155000Y511850D02*
D03*
Y494150D02*
D03*
X337000Y606850D02*
D03*
Y589150D02*
D03*
X330500Y333350D02*
D03*
Y315650D02*
D03*
X96000Y147850D02*
D03*
Y130150D02*
D03*
D17*
X423950Y700000D02*
D03*
X415050D02*
D03*
X529650Y217750D02*
D03*
X520750D02*
D03*
X502400Y234500D02*
D03*
X493500D02*
D03*
X505000Y259000D02*
D03*
X496100D02*
D03*
X395950Y194450D02*
D03*
X387050D02*
D03*
X395950Y203550D02*
D03*
X387050D02*
D03*
X424450Y318000D02*
D03*
X415550D02*
D03*
X366450Y327000D02*
D03*
X357550D02*
D03*
X261950Y513500D02*
D03*
X253050D02*
D03*
X293450Y694500D02*
D03*
X284550D02*
D03*
X387450Y327000D02*
D03*
X378550D02*
D03*
X387450Y318000D02*
D03*
X378550D02*
D03*
X243200Y500000D02*
D03*
X234300D02*
D03*
X327450Y664000D02*
D03*
X318550D02*
D03*
X242950Y509500D02*
D03*
X234050D02*
D03*
X327450Y673000D02*
D03*
X318550D02*
D03*
X130450Y752000D02*
D03*
X121550D02*
D03*
X155700Y717000D02*
D03*
X146800D02*
D03*
X130450Y761000D02*
D03*
X121550D02*
D03*
X366400Y318000D02*
D03*
X357500D02*
D03*
D18*
X430850Y771000D02*
D03*
X403150D02*
D03*
D19*
X401000Y663000D02*
D03*
Y645000D02*
D03*
X382000Y694000D02*
D03*
Y676000D02*
D03*
X401000Y694000D02*
D03*
Y676000D02*
D03*
X382000Y663000D02*
D03*
Y645000D02*
D03*
D20*
X509850Y560750D02*
D03*
X492150D02*
D03*
X500550Y220750D02*
D03*
X482850D02*
D03*
X328850Y687000D02*
D03*
X311150D02*
D03*
X316100Y928000D02*
D03*
X298400D02*
D03*
D21*
X580200Y265750D02*
D03*
Y244250D02*
D03*
D22*
X556200Y278200D02*
D03*
Y231800D02*
D03*
D23*
X550200Y268000D02*
D03*
Y261500D02*
D03*
Y255000D02*
D03*
Y248500D02*
D03*
Y242000D02*
D03*
D24*
X487200Y595500D02*
D03*
Y614500D02*
D03*
X467300Y605000D02*
D03*
D25*
X491000Y718750D02*
D03*
Y705750D02*
D03*
D26*
X480500Y712250D02*
D03*
D27*
X436000Y788000D02*
D03*
X421500D02*
D03*
D28*
X539000Y282000D02*
D03*
Y272000D02*
D03*
D29*
X530700Y227250D02*
D03*
X520700D02*
D03*
D30*
X422000Y638000D02*
D03*
X445700D02*
D03*
D31*
X383000Y749350D02*
D03*
Y716350D02*
D03*
D32*
X500850Y733500D02*
D03*
Y752500D02*
D03*
X483150Y743000D02*
D03*
D33*
X461000Y319950D02*
D03*
Y311050D02*
D03*
X451500Y316950D02*
D03*
Y308050D02*
D03*
X347000Y326950D02*
D03*
Y318050D02*
D03*
X396500Y326950D02*
D03*
Y318050D02*
D03*
X222000Y493450D02*
D03*
Y484550D02*
D03*
X176000Y496450D02*
D03*
Y487550D02*
D03*
X176000Y513950D02*
D03*
Y505050D02*
D03*
X123000Y608450D02*
D03*
Y599550D02*
D03*
X223500Y512450D02*
D03*
Y503550D02*
D03*
X132500Y608450D02*
D03*
Y599550D02*
D03*
X323000Y600950D02*
D03*
Y592050D02*
D03*
X117500Y738450D02*
D03*
Y729550D02*
D03*
D34*
X459000Y233500D02*
D03*
X450000D02*
D03*
D35*
X464000Y355550D02*
D03*
X445000D02*
D03*
X454500Y330450D02*
D03*
D36*
X352000Y592050D02*
D03*
Y582950D02*
D03*
D37*
X210000Y507500D02*
D03*
Y490500D02*
D03*
X188000Y507500D02*
D03*
Y490500D02*
D03*
D38*
X185000Y897500D02*
D03*
Y844500D02*
D03*
D39*
X165000Y812350D02*
D03*
Y797650D02*
D03*
D40*
X203000Y830200D02*
D03*
Y813800D02*
D03*
X108000Y434200D02*
D03*
Y417800D02*
D03*
X229901Y433200D02*
D03*
Y416800D02*
D03*
D41*
X74750Y811900D02*
D03*
Y786500D02*
D03*
Y837300D02*
D03*
Y735700D02*
D03*
Y761100D02*
D03*
Y710300D02*
D03*
Y659500D02*
D03*
Y608700D02*
D03*
Y684900D02*
D03*
Y634100D02*
D03*
X18750Y837300D02*
D03*
Y786500D02*
D03*
Y761100D02*
D03*
Y811900D02*
D03*
Y710300D02*
D03*
Y735700D02*
D03*
Y684900D02*
D03*
Y608700D02*
D03*
Y634100D02*
D03*
Y659500D02*
D03*
D42*
X461000Y277000D02*
D03*
Y262000D02*
D03*
Y247000D02*
D03*
D43*
X428000Y678000D02*
D03*
D44*
X414750Y688000D02*
D03*
Y683000D02*
D03*
Y678000D02*
D03*
Y673000D02*
D03*
Y668000D02*
D03*
X441250Y688000D02*
D03*
Y683000D02*
D03*
Y678000D02*
D03*
Y673000D02*
D03*
Y668000D02*
D03*
D45*
X433950Y731000D02*
D03*
Y736000D02*
D03*
Y741000D02*
D03*
Y746000D02*
D03*
X414950D02*
D03*
Y741000D02*
D03*
Y736000D02*
D03*
Y731000D02*
D03*
D46*
X424450Y738500D02*
D03*
D47*
X118000Y148000D02*
D03*
X143400D02*
D03*
X168800D02*
D03*
X194200D02*
D03*
X118000Y92000D02*
D03*
X143400D02*
D03*
X168800D02*
D03*
X194200D02*
D03*
D48*
X422500Y391000D02*
D03*
X358500D02*
D03*
X422500Y351000D02*
D03*
X358500D02*
D03*
D49*
X156000Y742000D02*
D03*
D50*
X171800Y752000D02*
D03*
Y748000D02*
D03*
Y744000D02*
D03*
Y740000D02*
D03*
Y736000D02*
D03*
Y732000D02*
D03*
X140200D02*
D03*
Y736000D02*
D03*
Y740000D02*
D03*
Y744000D02*
D03*
Y748000D02*
D03*
Y752000D02*
D03*
D51*
X166000Y726200D02*
D03*
X162000D02*
D03*
X158000D02*
D03*
X154000D02*
D03*
X150000D02*
D03*
X146000D02*
D03*
Y757800D02*
D03*
X150000D02*
D03*
X154000D02*
D03*
X158000D02*
D03*
X162000D02*
D03*
X166000D02*
D03*
D52*
X289000Y526750D02*
D03*
X284000D02*
D03*
X279000D02*
D03*
X274000D02*
D03*
X269000D02*
D03*
X264000D02*
D03*
X259000D02*
D03*
X254000D02*
D03*
X249000D02*
D03*
X244000D02*
D03*
X239000D02*
D03*
X234000D02*
D03*
X229000D02*
D03*
X224000D02*
D03*
X219000D02*
D03*
X214000D02*
D03*
X209000D02*
D03*
X204000D02*
D03*
X199000D02*
D03*
X194000D02*
D03*
X189000D02*
D03*
X184000D02*
D03*
X179000D02*
D03*
X174000D02*
D03*
X169000D02*
D03*
Y681250D02*
D03*
X174000D02*
D03*
X179000D02*
D03*
X184000D02*
D03*
X189000D02*
D03*
X194000D02*
D03*
X199000D02*
D03*
X204000D02*
D03*
X209000D02*
D03*
X214000D02*
D03*
X219000D02*
D03*
X224000D02*
D03*
X229000D02*
D03*
X234000D02*
D03*
X239000D02*
D03*
X244000D02*
D03*
X249000D02*
D03*
X254000D02*
D03*
X259000D02*
D03*
X264000D02*
D03*
X269000D02*
D03*
X274000D02*
D03*
X279000D02*
D03*
X284000D02*
D03*
X289000D02*
D03*
D53*
X151750Y544000D02*
D03*
Y549000D02*
D03*
Y554000D02*
D03*
Y559000D02*
D03*
Y564000D02*
D03*
Y569000D02*
D03*
Y574000D02*
D03*
Y579000D02*
D03*
Y584000D02*
D03*
Y589000D02*
D03*
Y594000D02*
D03*
Y599000D02*
D03*
Y604000D02*
D03*
Y609000D02*
D03*
Y614000D02*
D03*
Y619000D02*
D03*
Y624000D02*
D03*
Y629000D02*
D03*
Y634000D02*
D03*
Y639000D02*
D03*
Y644000D02*
D03*
Y649000D02*
D03*
Y654000D02*
D03*
Y659000D02*
D03*
Y664000D02*
D03*
X306250D02*
D03*
Y659000D02*
D03*
Y654000D02*
D03*
Y649000D02*
D03*
Y644000D02*
D03*
Y639000D02*
D03*
Y634000D02*
D03*
Y629000D02*
D03*
Y624000D02*
D03*
Y619000D02*
D03*
Y614000D02*
D03*
Y609000D02*
D03*
Y604000D02*
D03*
Y599000D02*
D03*
Y594000D02*
D03*
Y589000D02*
D03*
Y584000D02*
D03*
Y579000D02*
D03*
Y574000D02*
D03*
Y569000D02*
D03*
Y564000D02*
D03*
Y559000D02*
D03*
Y554000D02*
D03*
Y549000D02*
D03*
Y544000D02*
D03*
D54*
X393750Y260750D02*
D03*
D55*
X438500Y298250D02*
D03*
Y293250D02*
D03*
Y288250D02*
D03*
Y283250D02*
D03*
Y278250D02*
D03*
Y273250D02*
D03*
Y268250D02*
D03*
Y263250D02*
D03*
Y258250D02*
D03*
Y253250D02*
D03*
Y248250D02*
D03*
Y243250D02*
D03*
Y238250D02*
D03*
Y233250D02*
D03*
Y228250D02*
D03*
Y223250D02*
D03*
X349000D02*
D03*
Y228250D02*
D03*
Y233250D02*
D03*
Y238250D02*
D03*
Y243250D02*
D03*
Y248250D02*
D03*
Y253250D02*
D03*
Y258250D02*
D03*
Y263250D02*
D03*
Y268250D02*
D03*
Y273250D02*
D03*
Y278250D02*
D03*
Y283250D02*
D03*
Y288250D02*
D03*
Y293250D02*
D03*
Y298250D02*
D03*
D56*
X431250Y216000D02*
D03*
X426250D02*
D03*
X421250D02*
D03*
X416250D02*
D03*
X411250D02*
D03*
X406250D02*
D03*
X401250D02*
D03*
X396250D02*
D03*
X391250D02*
D03*
X386250D02*
D03*
X381250D02*
D03*
X376250D02*
D03*
X371250D02*
D03*
X366250D02*
D03*
X361250D02*
D03*
X356250D02*
D03*
Y305500D02*
D03*
X361250D02*
D03*
X366250D02*
D03*
X371250D02*
D03*
X376250D02*
D03*
X381250D02*
D03*
X386250D02*
D03*
X391250D02*
D03*
X396250D02*
D03*
X401250D02*
D03*
X406250D02*
D03*
X411250D02*
D03*
X416250D02*
D03*
X421250D02*
D03*
X426250D02*
D03*
X431250D02*
D03*
D57*
X143250Y89000D02*
Y110100D01*
X143400Y110250D01*
X135500Y512000D02*
X135650Y511850D01*
X155000D01*
X18750Y659000D02*
X19500Y659750D01*
X70750Y375500D02*
Y391250D01*
X85000Y405500D01*
Y415450D01*
X210000Y401000D02*
Y414450D01*
X216250Y376250D02*
Y394750D01*
X210000Y401000D02*
X216250Y394750D01*
X165000Y812350D02*
X171650D01*
X182500Y798000D02*
Y801500D01*
X171650Y812350D02*
X182500Y801500D01*
X89500Y438250D02*
Y452750D01*
X212350Y434200D02*
Y450900D01*
X212000Y451250D02*
X212350Y450900D01*
X501000Y732500D02*
X505450Y728050D01*
Y719998D02*
Y728050D01*
X316150Y893250D02*
Y928000D01*
X316100D02*
X316150D01*
X330000D01*
X570500Y190500D02*
X580450D01*
X570000Y319500D02*
X580200D01*
X382500Y694000D02*
X382500Y694000D01*
X505000Y640650D02*
Y654500D01*
X520500Y670000D01*
X143250Y148400D02*
Y167000D01*
Y148400D02*
X143400Y148250D01*
X168750Y149250D02*
Y167000D01*
X168500Y149000D02*
X168750Y149250D01*
X18500Y749500D02*
Y757000D01*
X19500Y758000D01*
X18500Y757750D02*
X22250Y761500D01*
X22750Y761000D01*
X18500Y801000D02*
Y807000D01*
X18000Y807500D02*
X18500Y807000D01*
X58000Y837000D02*
X69000D01*
X73000Y801000D02*
Y810000D01*
X74000Y811000D01*
X75000Y749000D02*
Y759750D01*
X74750Y760000D02*
X75000Y759750D01*
X358500Y391000D02*
X422000D01*
X422500Y391500D01*
X337000Y391000D02*
X357050D01*
X357550Y391500D01*
X56500Y634000D02*
X75000D01*
X74650Y610000D02*
X75000Y609650D01*
Y595500D02*
Y609650D01*
X19000Y633500D02*
X19500Y634000D01*
X19000Y621500D02*
Y633500D01*
X28200Y608500D02*
X37000D01*
X28000Y608700D02*
X28200Y608500D01*
X168800Y95200D02*
Y110250D01*
Y95200D02*
X169000Y95000D01*
X194200Y156000D02*
Y167000D01*
X193200Y155000D02*
X194200Y156000D01*
X507000Y614550D02*
X522600Y630150D01*
Y631000D01*
X506050Y535000D02*
X522500D01*
X195750Y768550D02*
Y775500D01*
X330500Y333350D02*
Y345500D01*
X347050Y578000D02*
X352000Y582950D01*
X342500Y578000D02*
X347050D01*
X194200Y92000D02*
X220000D01*
X220500Y91500D01*
X242350Y92150D02*
X242500Y92000D01*
X221000Y92150D02*
X242350D01*
D58*
X143651Y614000D02*
X151750D01*
X136051Y621600D02*
X143651Y614000D01*
X93550Y621600D02*
X136051D01*
X143451Y619150D02*
X151600D01*
X137501Y625100D02*
X143451Y619150D01*
X143550Y624000D02*
X151750D01*
X138950Y628600D02*
X143550Y624000D01*
X143500Y629000D02*
X151750D01*
X140400Y632100D02*
X143500Y629000D01*
X92100Y625100D02*
X137501D01*
X107450Y628600D02*
X138950D01*
X108900Y632100D02*
X140400D01*
X176000Y699000D02*
Y710000D01*
X242950Y500050D02*
X243000Y500000D01*
X242950Y500050D02*
Y509500D01*
X245000Y511500D02*
X252500D01*
X243000Y509500D02*
X245000Y511500D01*
X242950Y509500D02*
X243000D01*
X241500Y515500D02*
X242000D01*
X239000Y518000D02*
X241500Y515500D01*
X239000Y518000D02*
Y526750D01*
X184550Y505050D02*
X185000Y505500D01*
X176000Y505050D02*
X184550D01*
X462500Y535500D02*
X463000Y535000D01*
X496950D01*
X447000D02*
X462000D01*
X366250Y317750D02*
X366500Y318000D01*
X366250Y305500D02*
Y317750D01*
X387000Y194450D02*
X387050Y194500D01*
Y203550D01*
X386250Y205250D02*
X386500Y205000D01*
X386250Y205250D02*
Y216000D01*
X387450Y319050D02*
X388000Y318500D01*
X387450Y319050D02*
Y327000D01*
X470000Y309500D02*
Y314115D01*
X456500Y296000D02*
X470000Y309500D01*
X447222Y296000D02*
X456500D01*
X444972Y298250D02*
X447222Y296000D01*
X438500Y298250D02*
X444972D01*
X224500Y485500D02*
X228250Y489250D01*
Y498800D01*
X223500Y503550D02*
X228250Y498800D01*
X178000Y516000D02*
X178500Y516500D01*
X192500D01*
X182500Y744000D02*
X186000Y740500D01*
X171800Y744000D02*
X182500D01*
X140200Y471800D02*
X141500Y470500D01*
X145000Y474000D02*
X146500Y475500D01*
X148500Y472500D02*
X151000Y475000D01*
X260500Y757000D02*
X277500Y774000D01*
X260500Y723000D02*
Y757000D01*
X234000Y696500D02*
X260500Y723000D01*
X234000Y681250D02*
Y696500D01*
X460000Y614500D02*
X487200D01*
X452000Y606500D02*
X460000Y614500D01*
X334750Y526750D02*
Y526750D01*
X496950Y535000D02*
X497500D01*
X289000Y526750D02*
X334750D01*
X194000Y681250D02*
Y694500D01*
X199000Y693500D02*
X200000Y694500D01*
X199000Y681250D02*
Y693500D01*
X191500Y669000D02*
X194000Y671500D01*
Y681250D01*
X199000Y671500D02*
X201500Y669000D01*
X199000Y671500D02*
Y681250D01*
X74500Y762000D02*
X75000Y761500D01*
X96500Y644500D02*
X108900Y632100D01*
X214000Y681250D02*
Y783500D01*
X232000Y801500D02*
Y884500D01*
X214000Y783500D02*
X232000Y801500D01*
Y884500D02*
X240000Y892500D01*
X255500D01*
X40500Y630450D02*
Y662500D01*
X18750Y674750D02*
X21000Y672500D01*
X18750Y674750D02*
Y684900D01*
X30500Y672500D02*
X40500Y662500D01*
X21000Y672500D02*
X30500D01*
X151600Y619150D02*
X151750Y619000D01*
X21500Y647000D02*
X31500D01*
X18750Y649750D02*
X21500Y647000D01*
X37000Y629000D02*
Y641500D01*
X31500Y647000D02*
X37000Y641500D01*
X18750Y649750D02*
Y659000D01*
Y659500D01*
X96500Y644500D02*
X96500D01*
X229000Y681250D02*
Y707500D01*
X246500Y725000D01*
X246000Y777000D02*
X246500Y776500D01*
Y725000D02*
Y776500D01*
X412550Y788000D02*
X421500D01*
X412550D02*
Y788250D01*
X217500Y694500D02*
X219000Y693000D01*
X217500Y694500D02*
Y782050D01*
X235500Y800050D01*
X219000Y681250D02*
Y693000D01*
X235500Y800050D02*
Y824000D01*
X255000Y843500D01*
X25500Y736500D02*
X26300Y735700D01*
X288278Y654000D02*
X288278Y654000D01*
X306250D01*
X306250Y654000D01*
X283778D02*
X288278D01*
X286000Y660000D02*
X287000Y659000D01*
X306250D01*
X277500Y774000D02*
X280500D01*
X118000Y740000D02*
X140200D01*
X154000Y812550D02*
Y820450D01*
Y812550D02*
X164800D01*
X165000Y812350D01*
X505500Y720000D02*
Y724200D01*
X516115Y249700D02*
X518164Y247650D01*
X524650D01*
X525700Y248700D01*
X511750Y250500D02*
X512550Y249700D01*
X516115D01*
X525700Y248700D02*
Y253450D01*
Y258000D01*
X526950Y259250D02*
X533500D01*
X525700Y258000D02*
X526950Y259250D01*
X537750Y255000D02*
X550200D01*
X533500Y259250D02*
X537750Y255000D01*
X414750Y688000D02*
Y700000D01*
X403150Y771000D02*
Y788250D01*
X403450D01*
X412000Y741000D02*
X414950D01*
X409000Y759000D02*
Y765150D01*
X403150Y771000D02*
X409000Y765150D01*
X409950Y743050D02*
X412000Y741000D01*
X409000Y759000D02*
X409950Y758050D01*
Y743050D02*
Y758050D01*
X441250Y678000D02*
X448750D01*
X449050Y679550D02*
Y686450D01*
Y679250D02*
Y679550D01*
X433950Y741000D02*
X442750D01*
X444000Y742250D01*
Y742550D02*
Y750450D01*
Y742250D02*
Y742500D01*
X284000Y681250D02*
Y694500D01*
X511750Y242750D02*
X513500Y241000D01*
X520500D01*
X520700D02*
X524000D01*
X530650Y247650D01*
X550200D01*
Y248500D01*
X570050Y205000D02*
X580200D01*
X570050Y305000D02*
X579450D01*
X553000D02*
X560950D01*
X176000Y487550D02*
X186050D01*
X186500Y488000D01*
X189000Y490500D02*
X199000Y500500D01*
Y514000D01*
X201000Y516000D02*
X207000D01*
X199000Y514000D02*
X201000Y516000D01*
X207000D02*
X209000Y518000D01*
Y526750D01*
X214000Y509500D02*
Y526750D01*
X224000D02*
Y536000D01*
X234000Y529500D02*
Y536000D01*
X219000Y517500D02*
Y526750D01*
Y517500D02*
X221500Y515000D01*
X139500Y584000D02*
X151750D01*
X18500Y757000D02*
X19000Y757500D01*
X224000Y669500D02*
Y681250D01*
X217000Y662500D02*
X224000Y669500D01*
X57200Y645500D02*
X90550D01*
X107450Y628600D01*
X92000Y649000D02*
X96500Y644500D01*
X58650Y649000D02*
X92000D01*
X552000Y205000D02*
X560950D01*
X350500Y283300D02*
X360000D01*
X406250Y206250D02*
X407500Y205000D01*
X406250Y206250D02*
Y216200D01*
X350500Y278450D02*
X350750Y278200D01*
X356800D01*
X359500Y275500D01*
X438500Y263250D02*
X443250D01*
X445500Y261000D01*
X414750Y204500D02*
Y204750D01*
X411250Y208250D02*
X414750Y204750D01*
X411250Y208250D02*
Y216000D01*
Y216750D01*
X377000Y205500D02*
X380000D01*
X381250Y206750D01*
Y216200D01*
X445500Y254750D02*
Y261000D01*
Y254750D02*
X450500Y249750D01*
X429500Y273250D02*
X438500D01*
X442550Y317450D02*
X448550D01*
X449050Y316950D01*
X459050Y313000D02*
X461000Y311050D01*
X458064Y313000D02*
X459050D01*
X456064Y315000D02*
X458064Y313000D01*
X452500Y315000D02*
X456064D01*
X451500Y316950D02*
X452550D01*
X442550Y326500D02*
X452550D01*
X453000Y326950D01*
X461000Y319950D02*
Y320500D01*
X455500Y326000D02*
X461000Y320500D01*
X463550Y358968D02*
Y368500D01*
Y358968D02*
X464500Y358018D01*
X463550Y368500D02*
X479500D01*
X442000Y315500D02*
X442500Y315000D01*
Y310000D02*
Y315000D01*
X461000Y311050D02*
X461986D01*
X470000Y314115D02*
X495385Y339500D01*
X535500D01*
X554500Y358500D01*
X554500D01*
X461986Y311050D02*
X493936Y343000D01*
X513650D01*
X529650Y359000D01*
X496100Y250750D02*
Y259000D01*
Y250750D02*
X502650D01*
X502400Y234500D02*
Y241900D01*
X502500Y242000D01*
X486450Y242750D02*
X502650D01*
X477200Y233500D02*
X486450Y242750D01*
X459000Y233500D02*
X477200D01*
X438500Y233250D02*
X449750D01*
X450000Y233000D01*
X438500Y238250D02*
X446214D01*
X446964Y239000D01*
X453036D01*
X455965D02*
X462035D01*
X453036D02*
X453036Y239000D01*
X455965D01*
X455965Y239000D01*
X462035D02*
X462035Y239000D01*
X438500Y228250D02*
X445750D01*
X447000Y227000D01*
X450500D01*
X452000Y225050D02*
X458950Y232000D01*
X459000D01*
X462035Y239000D02*
X476000D01*
X487750Y250750D01*
X496100D01*
X426250Y305500D02*
Y316750D01*
X425500Y317500D02*
X426250Y316750D01*
X424550Y318100D02*
Y326500D01*
X424450Y318000D02*
X424550Y318100D01*
Y327450D02*
Y335000D01*
Y327450D02*
X425000Y327000D01*
X369500Y186000D02*
Y194450D01*
X261950Y513500D02*
X265000D01*
X269000Y517500D01*
Y522500D01*
X406000Y186000D02*
Y194450D01*
X414750Y186000D02*
Y194450D01*
X261950Y505050D02*
Y513500D01*
Y505050D02*
X262500Y504500D01*
X336000Y391000D02*
X336500Y391500D01*
X297000Y391000D02*
X336000D01*
X336500Y391500D02*
X337000Y391000D01*
X284000Y529000D02*
Y539500D01*
X378000Y186000D02*
Y194450D01*
X244000Y526750D02*
Y536500D01*
X254500Y547000D01*
X266500Y536500D02*
X266535D01*
X262500Y540500D02*
Y540500D01*
Y540500D02*
X266500Y536500D01*
X269000Y526750D02*
X269500Y527250D01*
Y533535D01*
X266535Y536500D02*
X269500Y533535D01*
X391250Y305500D02*
Y311250D01*
X396500Y316500D01*
X349000Y298250D02*
Y316500D01*
X347500Y318000D02*
X349000Y316500D01*
X274000Y508000D02*
Y526750D01*
X368500Y203500D02*
X370000Y205000D01*
Y205035D01*
X376250Y211285D01*
Y216200D01*
X194000Y518000D02*
Y526750D01*
X192500Y516500D02*
X194000Y518000D01*
X224000Y536000D02*
X225500Y537500D01*
X232500D01*
X234000Y536000D01*
X149500Y700000D02*
X166500D01*
X174000Y692500D01*
Y686000D02*
Y692500D01*
X296500Y624000D02*
X306250D01*
X292500Y620000D02*
X296500Y624000D01*
X292500Y608000D02*
Y620000D01*
X296000Y629000D02*
X306250D01*
X286499Y619499D02*
X296000Y629000D01*
X286499Y612999D02*
Y619499D01*
X189000Y681250D02*
Y689500D01*
X182500Y696000D02*
X189000Y689500D01*
X193000Y704550D02*
X201500D01*
X193000D02*
Y712500D01*
X254500Y547000D02*
X269500D01*
X306250Y544000D02*
X320500D01*
X321000D01*
X281500Y484500D02*
X316100D01*
X176000Y699000D02*
X179000Y696000D01*
X182500D01*
X274500Y663000D02*
X274778D01*
X171800Y748000D02*
X187500D01*
X189500Y746000D01*
X171800Y752000D02*
X195500D01*
X195500Y752000D01*
X262950Y659000D02*
X266950Y663000D01*
X274500D01*
X79000Y685000D02*
X92050D01*
X103200Y673850D01*
X159135D01*
X74750Y659500D02*
X92500D01*
X103350Y670350D01*
X157685D01*
X283000Y649000D02*
X306250D01*
X289000Y634000D02*
X306250D01*
X287000Y639000D02*
X306250D01*
X285000Y644000D02*
X306250D01*
X274778Y663000D02*
X283778Y654000D01*
X40500Y630450D02*
X47950Y623000D01*
X37000Y629000D02*
X46500Y619500D01*
X205499Y571499D02*
X283000Y649000D01*
X207500Y559500D02*
X287000Y639000D01*
X211500Y556500D02*
X289000Y634000D01*
X165350Y571499D02*
X205499D01*
X206500Y565500D02*
X285000Y644000D01*
X206499Y565499D02*
X206500Y565500D01*
X170000Y565499D02*
X206499D01*
X165350Y559500D02*
X207500D01*
X208999Y553999D02*
X211500Y556500D01*
X171000Y553999D02*
X208999D01*
X155500Y619000D02*
X196500D01*
X207000Y629500D01*
Y642500D01*
X151750Y579000D02*
X168000D01*
X140000Y594000D02*
X151750D01*
X139000Y593000D02*
X140000Y594000D01*
X151750Y589000D02*
X164000D01*
X151750Y609000D02*
X160500D01*
X163500Y606000D01*
Y596500D02*
Y606000D01*
X151750Y639000D02*
X162999D01*
X170000Y631999D01*
X130450Y707485D02*
X170435Y667500D01*
X159135Y673850D02*
X168985Y664000D01*
X169228D01*
X174228Y659000D01*
X170435Y667500D02*
X170678D01*
X175678Y662500D01*
X217000D01*
X174228Y659000D02*
X262950D01*
X172535Y655500D02*
X275000D01*
X175500Y626499D02*
Y634277D01*
X165777Y644000D02*
X175500Y634277D01*
X151750Y644000D02*
X165777D01*
X151750Y649000D02*
X165726D01*
X181000Y633726D01*
Y631999D02*
Y633726D01*
X157685Y670350D02*
X172535Y655500D01*
X151750Y634000D02*
X160000D01*
X164000Y626499D02*
X164000Y626499D01*
X164000Y626499D02*
Y630000D01*
X160000Y634000D02*
X164000Y630000D01*
X151750Y654000D02*
X166777D01*
X186500Y634277D01*
Y626500D02*
Y634277D01*
X136000Y544000D02*
X151000D01*
X151000Y475500D02*
X153000Y477499D01*
X151000Y475000D02*
Y475500D01*
X146500D02*
Y481999D01*
X159500Y475949D02*
Y481999D01*
X155700Y467199D02*
X166000Y477499D01*
X152200Y468649D02*
X159500Y475949D01*
X140200Y471800D02*
Y477500D01*
X141500Y470500D02*
X141500Y470500D01*
X141500Y354999D02*
Y470500D01*
X155700Y378800D02*
Y467199D01*
Y378800D02*
X164500Y370000D01*
Y355000D02*
Y370000D01*
X152200Y377000D02*
Y468649D01*
Y377000D02*
X158500Y370700D01*
Y360000D02*
Y370700D01*
X148500Y375000D02*
Y472500D01*
Y375000D02*
X152500Y371000D01*
Y355000D02*
Y371000D01*
X145000Y372800D02*
Y474000D01*
Y372800D02*
X147000Y370800D01*
Y360500D02*
Y370800D01*
X195750Y752000D02*
Y752250D01*
Y759200D01*
Y752250D02*
X196000Y752000D01*
X195750Y759200D02*
X196000Y759450D01*
X204000Y746150D02*
Y758000D01*
X203500Y758500D02*
X204000Y758000D01*
X189500Y746000D02*
X204500D01*
X47950Y623000D02*
X90000D01*
X92100Y625100D01*
X46500Y619500D02*
X91450D01*
X93550Y621600D01*
X461500Y570000D02*
X479500D01*
X507000Y597500D01*
Y605000D01*
X383999Y580999D02*
X401001D01*
X447000Y535000D01*
X390000Y586500D02*
X403950D01*
X420950Y569500D01*
X462000D01*
X279000Y515500D02*
Y523000D01*
Y515500D02*
X281000Y513500D01*
Y498000D02*
Y513500D01*
X166000Y757800D02*
Y766000D01*
X166000Y766000D02*
X166000Y766000D01*
X130450Y707485D02*
Y726450D01*
X136000Y732000D01*
X139500D01*
X433450Y317450D02*
Y326000D01*
Y326500D02*
Y334000D01*
X408000Y335000D02*
X415450D01*
X210000Y507035D02*
Y507500D01*
Y507035D02*
X220000Y497036D01*
Y492000D02*
Y497036D01*
X438500Y268250D02*
X443750D01*
X450500Y275000D01*
Y276500D01*
X68500Y735500D02*
X72000D01*
X58650Y649000D02*
X59500Y649850D01*
Y726500D01*
X68500Y735500D01*
X55150Y647550D02*
X57200Y645500D01*
X55150Y647550D02*
Y650450D01*
X56000Y651300D01*
Y724500D01*
X26300Y735700D02*
X44800D01*
X56000Y724500D01*
D59*
X114000Y617000D02*
X119950D01*
X110350Y613350D02*
X114000Y617000D01*
X108500Y613350D02*
X110350D01*
X112000Y610000D02*
X121450D01*
X123000Y608450D01*
X458775Y703775D02*
X461700Y700850D01*
X450500Y704500D02*
X459500D01*
X461700Y700850D02*
X463000D01*
X252950Y496050D02*
X253000Y496000D01*
X252950Y496050D02*
Y505000D01*
X156050Y513950D02*
X176000D01*
X258550Y813000D02*
Y821000D01*
X280550Y843000D01*
X316000D01*
X369000Y642250D02*
Y651450D01*
X486350Y631550D02*
X496750D01*
X486350Y615400D02*
Y631550D01*
X497000Y631450D02*
X497100Y631550D01*
X505000D01*
X345000Y854500D02*
Y863450D01*
X267000Y813000D02*
Y818500D01*
X279000Y830500D01*
X322500D01*
X331500Y839750D02*
X331750D01*
X322500Y830500D02*
X331750Y839750D01*
X331500D02*
Y852500D01*
X316000Y868000D02*
X331500Y852500D01*
X331750Y839750D02*
X346000D01*
X331750D02*
X332000Y840000D01*
X344000D02*
X345750D01*
X131750Y843000D02*
X145250Y829500D01*
X125000Y843000D02*
X131750D01*
X145250Y829500D02*
X153750D01*
X153800Y829550D01*
X85000Y415450D02*
Y415750D01*
X216000Y376000D02*
Y376250D01*
X77050Y424550D02*
X85000D01*
X85050D01*
X88000Y427500D01*
Y432000D01*
X202300Y423000D02*
X209750D01*
X210250Y423500D01*
Y431150D02*
X212350Y433250D01*
X210250Y423500D02*
Y431150D01*
X276050Y806500D02*
Y813000D01*
X276000Y806500D02*
X276050D01*
X315750Y893250D02*
X316000Y893000D01*
X336450Y872550D02*
X345000D01*
X316000Y893000D02*
X336450Y872550D01*
X414750Y683000D02*
X423950D01*
X423950Y683000D01*
X432000D02*
X441250D01*
X460351Y703500D02*
X463000Y700850D01*
X246500Y777500D02*
Y790000D01*
X258550Y802050D01*
Y813000D01*
X281000Y777500D02*
Y789000D01*
X523000Y534750D02*
Y535000D01*
X276000Y802000D02*
Y806500D01*
X273515Y796000D02*
X274000D01*
X281000Y789000D01*
X266950Y802565D02*
X273515Y796000D01*
X266950Y802565D02*
Y813000D01*
X249450Y802050D02*
X249500Y802000D01*
X249450Y802050D02*
Y813000D01*
X196000Y768550D02*
X205500D01*
D60*
X81500Y147850D02*
Y148000D01*
Y147850D02*
X118000D01*
Y148000D01*
D61*
X310000Y968000D02*
G03*
X330000Y948000I20000J0D01*
G01*
X310000Y988000D02*
G03*
X290000Y1008000I-20000J0D01*
G01*
X25000Y1007999D02*
G03*
X0Y988000I-2500J-22499D01*
G01*
X23000Y911000D02*
G03*
X-0Y929000I-20500J-2500D01*
G01*
Y865000D02*
G03*
X23000Y883000I2500J20500D01*
G01*
X23000Y464000D02*
G03*
X-0Y480000I-19500J-3500D01*
G01*
X0Y416000D02*
G03*
X23000Y436000I1500J21500D01*
G01*
X121000Y1008000D02*
G03*
X156000Y973000I35000J0D01*
G01*
D02*
G03*
X191000Y1008000I0J35000D01*
G01*
X-1Y36000D02*
G03*
X69600Y23000I36035J109D01*
G01*
X242399Y22999D02*
G03*
X312000Y36000I33587J12998D01*
G01*
X591213Y182213D02*
G03*
X600000Y203426I-21213J21213D01*
G01*
X438574Y42000D02*
G03*
X459787Y50787I0J30000D01*
G01*
X600000Y928000D02*
G03*
X580000Y948000I-20000J0D01*
G01*
X50000Y883000D02*
G03*
X50000Y911000I0J14000D01*
G01*
Y436000D02*
G03*
X50000Y464000I0J14000D01*
G01*
X310000Y968000D02*
Y988000D01*
X191000Y1008000D02*
X290000D01*
X0Y929000D02*
Y988000D01*
X25000Y1008000D02*
X121000D01*
X23000Y911000D02*
X50000D01*
X23000Y883000D02*
X50000D01*
X0Y480000D02*
Y865000D01*
X23000Y436000D02*
X50000D01*
X23000Y464000D02*
X50000D01*
X69600Y23000D02*
X242400D01*
X0Y36000D02*
Y416000D01*
X312000Y36000D02*
Y42000D01*
X600000Y203426D02*
Y928000D01*
X459787Y50787D02*
X591213Y182213D01*
X330000Y948000D02*
X580000D01*
X312000Y42000D02*
X438574D01*
D62*
X580200Y290750D02*
D03*
Y219250D02*
D03*
D63*
X573400Y631000D02*
D03*
Y507000D02*
D03*
Y535000D02*
D03*
D64*
X548000Y631000D02*
D03*
X522600D02*
D03*
Y507000D02*
D03*
X548000D02*
D03*
X522600Y535000D02*
D03*
X548000D02*
D03*
D65*
X580300Y359500D02*
D03*
D66*
X554900D02*
D03*
X504100D02*
D03*
X529500D02*
D03*
D67*
X55750Y240000D02*
D03*
X257750D02*
D03*
X36750Y973000D02*
D03*
X276750D02*
D03*
X504750Y296000D02*
D03*
Y180000D02*
D03*
D68*
X276750Y36000D02*
D03*
X36750D02*
D03*
X33750Y180000D02*
D03*
Y296000D02*
D03*
D69*
X446750Y895000D02*
D03*
X427750Y450000D02*
D03*
D70*
X522000Y797000D02*
D03*
X572000D02*
D03*
X522000Y672000D02*
D03*
X572000D02*
D03*
D71*
X125000Y893000D02*
D03*
X316000D02*
D03*
X255000D02*
D03*
D72*
X125000Y868000D02*
D03*
Y843000D02*
D03*
Y818000D02*
D03*
X316000Y868000D02*
D03*
Y843000D02*
D03*
Y818000D02*
D03*
X255000Y868000D02*
D03*
Y843000D02*
D03*
X96000Y376000D02*
D03*
X71000D02*
D03*
X46000D02*
D03*
X241000D02*
D03*
X216000D02*
D03*
X191000D02*
D03*
D73*
X121000D02*
D03*
X266000D02*
D03*
D74*
X253000Y496000D02*
D03*
X485000Y270000D02*
D03*
X478500Y250500D02*
D03*
X451500Y301500D02*
D03*
X396000Y179500D02*
D03*
X379000Y335000D02*
D03*
X357500D02*
D03*
X95000Y605000D02*
D03*
X333500Y699000D02*
D03*
X323000Y653000D02*
D03*
X527000Y140500D02*
D03*
X234300Y482500D02*
D03*
Y487550D02*
D03*
X455000Y344500D02*
D03*
X449000Y289500D02*
D03*
X457500Y254500D02*
D03*
X465000Y224000D02*
D03*
X135500Y512000D02*
D03*
X172000Y470500D02*
D03*
X199500Y723000D02*
D03*
X186000Y740500D02*
D03*
X309500Y800500D02*
D03*
X300000Y940000D02*
D03*
X287000Y927500D02*
D03*
X388500Y351000D02*
D03*
X406500Y317500D02*
D03*
X361500Y295000D02*
D03*
X528000Y330000D02*
D03*
X190500Y649000D02*
D03*
X173000Y725500D02*
D03*
X223500Y700500D02*
D03*
X231000Y732500D02*
D03*
X231500Y764500D02*
D03*
X350000Y772000D02*
D03*
X355500D02*
D03*
X350000Y777000D02*
D03*
X355500D02*
D03*
X48000Y639500D02*
D03*
X38500Y674500D02*
D03*
Y725000D02*
D03*
X39500Y745000D02*
D03*
X35000Y776000D02*
D03*
X35500Y789000D02*
D03*
Y799000D02*
D03*
X47000Y763000D02*
D03*
X46500Y787000D02*
D03*
X45500Y818000D02*
D03*
X471500Y204000D02*
D03*
X150000Y531500D02*
D03*
X141000Y781000D02*
D03*
X308000Y699500D02*
D03*
X314000D02*
D03*
X112500Y586000D02*
D03*
X105500D02*
D03*
X95000Y613000D02*
D03*
X333000Y538000D02*
D03*
X309000Y507500D02*
D03*
X309500Y535500D02*
D03*
X175500Y578000D02*
D03*
X175500Y594000D02*
D03*
X324000Y362000D02*
D03*
X337500Y284000D02*
D03*
X328000Y300500D02*
D03*
X283000Y289500D02*
D03*
X349500Y372500D02*
D03*
X391000Y371500D02*
D03*
X431000D02*
D03*
X459500Y388500D02*
D03*
X118000Y300500D02*
D03*
X104000Y354000D02*
D03*
X29000Y395000D02*
D03*
X60500Y358000D02*
D03*
X58500Y399000D02*
D03*
X103000Y397000D02*
D03*
X171500Y384500D02*
D03*
X188000Y471000D02*
D03*
X200500Y475500D02*
D03*
X215500Y469500D02*
D03*
X246000Y491500D02*
D03*
X254500Y468500D02*
D03*
X271500Y487000D02*
D03*
X275000Y464000D02*
D03*
X282500Y472500D02*
D03*
X328000Y474500D02*
D03*
X328500Y414000D02*
D03*
X322500Y447000D02*
D03*
X287000Y424000D02*
D03*
X288000Y434000D02*
D03*
X399000Y805500D02*
D03*
X341000Y907000D02*
D03*
X361000Y938000D02*
D03*
X285000Y895000D02*
D03*
X259500Y920500D02*
D03*
X206500Y871000D02*
D03*
X188000Y815500D02*
D03*
X165000Y828500D02*
D03*
X175000Y783000D02*
D03*
X211500Y799500D02*
D03*
X59000Y930500D02*
D03*
X82000Y994500D02*
D03*
X137500Y949500D02*
D03*
X296950Y708500D02*
D03*
X267000Y707000D02*
D03*
X287000Y737000D02*
D03*
X333500Y731000D02*
D03*
X315000Y757000D02*
D03*
X333500Y774500D02*
D03*
X167500Y542500D02*
D03*
X223000Y547500D02*
D03*
X243500Y558000D02*
D03*
X254000Y577500D02*
D03*
X273500Y558500D02*
D03*
X275500Y586000D02*
D03*
X291500Y571500D02*
D03*
X277500Y606500D02*
D03*
X203500Y584000D02*
D03*
X216500Y599000D02*
D03*
X202000Y614500D02*
D03*
X250000Y630000D02*
D03*
X230500Y612000D02*
D03*
X217000Y631450D02*
D03*
X224500Y649000D02*
D03*
X243950Y649500D02*
D03*
X239000Y667000D02*
D03*
X435500Y512000D02*
D03*
X360000Y511500D02*
D03*
X335500Y492000D02*
D03*
X393500Y519000D02*
D03*
X412000Y544000D02*
D03*
X446500Y555000D02*
D03*
X445000Y583000D02*
D03*
X464500Y592050D02*
D03*
X359500Y548000D02*
D03*
X324500Y569000D02*
D03*
X353000Y645500D02*
D03*
X334750Y623500D02*
D03*
X321000Y614000D02*
D03*
Y629500D02*
D03*
X365500Y588000D02*
D03*
X407500Y602000D02*
D03*
X552500Y390500D02*
D03*
X591000Y340500D02*
D03*
X564000Y341000D02*
D03*
X561500Y425000D02*
D03*
X514000Y391000D02*
D03*
X451500Y192000D02*
D03*
X358000Y225500D02*
D03*
X363500Y258000D02*
D03*
X393500Y229000D02*
D03*
X424450Y234500D02*
D03*
X424550Y259000D02*
D03*
X383000Y291500D02*
D03*
X410500D02*
D03*
X71000Y164000D02*
D03*
X115500Y227500D02*
D03*
X105500Y190500D02*
D03*
X198500Y243500D02*
D03*
X223500Y193500D02*
D03*
X306500Y186000D02*
D03*
X314500Y255500D02*
D03*
X257500Y313000D02*
D03*
X201500Y287500D02*
D03*
X287500Y336500D02*
D03*
X226000Y334500D02*
D03*
X184500Y334000D02*
D03*
X118000Y260500D02*
D03*
X83500Y285000D02*
D03*
X120500Y333350D02*
D03*
X75000Y335500D02*
D03*
X11500Y379000D02*
D03*
X26500Y337000D02*
D03*
X104000Y476000D02*
D03*
X126450Y494000D02*
D03*
X111500Y534500D02*
D03*
X76000Y494500D02*
D03*
X21000Y502000D02*
D03*
X63000Y537500D02*
D03*
X20500Y552500D02*
D03*
X28000Y584000D02*
D03*
X124500Y580000D02*
D03*
X130450Y641000D02*
D03*
X115000Y657000D02*
D03*
X91500Y672500D02*
D03*
X118000Y692500D02*
D03*
X104000Y718750D02*
D03*
X101500Y745000D02*
D03*
X104000Y768550D02*
D03*
X114500Y792000D02*
D03*
X136500Y801500D02*
D03*
X452000Y606500D02*
D03*
X460450Y631500D02*
D03*
X460500Y622000D02*
D03*
Y640650D02*
D03*
X334750Y526750D02*
D03*
X383999Y580999D02*
D03*
X390000Y586500D02*
D03*
X73000Y801000D02*
D03*
X75000Y749000D02*
D03*
X542000Y521000D02*
D03*
X541000Y558000D02*
D03*
X545500Y564500D02*
D03*
X546500Y551000D02*
D03*
Y577000D02*
D03*
X555000Y521000D02*
D03*
X554500Y580500D02*
D03*
X547000Y585000D02*
D03*
X554000Y595000D02*
D03*
X286000Y660000D02*
D03*
X505600Y707000D02*
D03*
Y713250D02*
D03*
X516500Y611500D02*
D03*
X81500Y148000D02*
D03*
X109750Y409250D02*
D03*
X104500D02*
D03*
X228250Y408250D02*
D03*
X233500Y408300D02*
D03*
X238750Y417800D02*
D03*
Y412500D02*
D03*
X35000Y834000D02*
D03*
Y840500D02*
D03*
X360000Y669000D02*
D03*
X365000D02*
D03*
X360000Y674000D02*
D03*
X365000D02*
D03*
X370000Y669000D02*
D03*
Y674000D02*
D03*
X360000Y679000D02*
D03*
X365000D02*
D03*
X370000D02*
D03*
X330000Y928000D02*
D03*
X491000Y700500D02*
D03*
Y690000D02*
D03*
Y695000D02*
D03*
X510000Y223500D02*
D03*
X514500Y226500D02*
D03*
X510000Y229000D02*
D03*
X510500Y235000D02*
D03*
X514500Y231500D02*
D03*
X73000Y99000D02*
D03*
X25000Y113000D02*
D03*
X81500Y66000D02*
D03*
X125500Y120500D02*
D03*
X145000Y56000D02*
D03*
X177000Y173000D02*
D03*
X191000Y121500D02*
D03*
X35000Y414000D02*
D03*
X59000Y419500D02*
D03*
X165500Y423000D02*
D03*
X183500Y400500D02*
D03*
X180500Y419000D02*
D03*
X170500Y433000D02*
D03*
X182000Y432500D02*
D03*
X214200Y52000D02*
D03*
X247000Y150500D02*
D03*
X266950Y111500D02*
D03*
X344500Y73000D02*
D03*
X327000Y132500D02*
D03*
X199500Y393000D02*
D03*
X233000Y394000D02*
D03*
X247000Y430000D02*
D03*
X103000Y836000D02*
D03*
X33000Y863000D02*
D03*
X75500Y857500D02*
D03*
X57500Y867500D02*
D03*
X94500Y916500D02*
D03*
X85000Y945500D02*
D03*
X101500Y809500D02*
D03*
X110000Y979500D02*
D03*
X149500Y922000D02*
D03*
X346500Y811900D02*
D03*
X364500Y700850D02*
D03*
X201000Y911000D02*
D03*
X220500Y856500D02*
D03*
X201500Y896500D02*
D03*
X183500Y921000D02*
D03*
X190000Y958000D02*
D03*
X196500Y922000D02*
D03*
X219500Y997000D02*
D03*
X227500Y937500D02*
D03*
X228250Y896500D02*
D03*
X281500Y861000D02*
D03*
X380000Y160000D02*
D03*
X442000Y94412D02*
D03*
X400500Y109000D02*
D03*
X424500Y152000D02*
D03*
X477259Y121500D02*
D03*
X415000Y611500D02*
D03*
X430000Y607500D02*
D03*
X433000Y623000D02*
D03*
X538500Y201000D02*
D03*
X513500Y262000D02*
D03*
X529000Y265000D02*
D03*
X538500Y262500D02*
D03*
X534000Y265750D02*
D03*
X536500Y451500D02*
D03*
X570500Y190500D02*
D03*
X539000Y267500D02*
D03*
X570000Y319500D02*
D03*
X591000Y394000D02*
D03*
X591500Y434500D02*
D03*
X546500Y473000D02*
D03*
X500500Y515000D02*
D03*
X496500Y576500D02*
D03*
X502500Y573000D02*
D03*
X591500Y476000D02*
D03*
X590500Y558000D02*
D03*
X569500Y564500D02*
D03*
X568500Y608000D02*
D03*
X588500Y605000D02*
D03*
X399500Y625500D02*
D03*
X402000Y614500D02*
D03*
X404000Y633500D02*
D03*
X393500D02*
D03*
X369000Y694000D02*
D03*
X433000Y645500D02*
D03*
X433500Y635000D02*
D03*
X433000Y654000D02*
D03*
X440450Y700500D02*
D03*
X417500Y719000D02*
D03*
X421000Y709000D02*
D03*
X421500Y752500D02*
D03*
X426500Y725000D02*
D03*
X367000Y795000D02*
D03*
X375000Y834000D02*
D03*
X416500Y763850D02*
D03*
X417000Y775500D02*
D03*
X418150Y826500D02*
D03*
X429000Y715000D02*
D03*
X435450Y708500D02*
D03*
X437500Y719500D02*
D03*
X433000Y754000D02*
D03*
X444500Y710500D02*
D03*
X470000Y641500D02*
D03*
X556500Y700850D02*
D03*
X574000Y700500D02*
D03*
X590500Y700000D02*
D03*
X554500Y736500D02*
D03*
X555000Y717000D02*
D03*
X573000Y716500D02*
D03*
X587000Y717500D02*
D03*
X495000Y742550D02*
D03*
X472000Y758500D02*
D03*
X481500Y769500D02*
D03*
X444000Y773000D02*
D03*
X454139Y779500D02*
D03*
X461500Y774500D02*
D03*
X459000Y821000D02*
D03*
X468500Y779500D02*
D03*
X560000Y762500D02*
D03*
X561500Y751000D02*
D03*
X579450Y750450D02*
D03*
X580500Y763450D02*
D03*
X526000Y838000D02*
D03*
X559500Y923500D02*
D03*
X563500Y847000D02*
D03*
X568000Y882000D02*
D03*
X513000Y768500D02*
D03*
X517000Y708500D02*
D03*
X526700Y717500D02*
D03*
X536700Y698000D02*
D03*
X528000Y707500D02*
D03*
X538000Y717500D02*
D03*
X515500Y753000D02*
D03*
X526000Y768500D02*
D03*
X528500Y752500D02*
D03*
X538500Y768500D02*
D03*
X539000Y753500D02*
D03*
X44000Y707000D02*
D03*
Y713500D02*
D03*
X140000Y726000D02*
D03*
X166000Y766000D02*
D03*
X552500Y205000D02*
D03*
Y305000D02*
D03*
X143250Y167000D02*
D03*
X143400Y110250D02*
D03*
X168750Y167000D02*
D03*
X139500Y584000D02*
D03*
X18500Y749500D02*
D03*
Y801000D02*
D03*
X58000Y837000D02*
D03*
X41000Y840500D02*
D03*
Y834000D02*
D03*
X191500Y669000D02*
D03*
X201500D02*
D03*
X359500Y275500D02*
D03*
X360000Y283300D02*
D03*
X429500Y273250D02*
D03*
X479500Y368500D02*
D03*
X442500Y310000D02*
D03*
X369500Y186000D02*
D03*
X406000D02*
D03*
X414750D02*
D03*
X337000Y391000D02*
D03*
X297000D02*
D03*
X284000Y539500D02*
D03*
X378000Y186000D02*
D03*
X262500Y540500D02*
D03*
X281500Y484500D02*
D03*
X281000Y498000D02*
D03*
X149500Y700000D02*
D03*
X211000Y811500D02*
D03*
X217500Y816500D02*
D03*
X211000D02*
D03*
X217500Y811500D02*
D03*
X292500Y608000D02*
D03*
X286499Y612999D02*
D03*
X193000Y712500D02*
D03*
X269500Y547000D02*
D03*
X274000Y508000D02*
D03*
X99250Y413500D02*
D03*
Y418750D02*
D03*
X320500Y544000D02*
D03*
X316100Y484500D02*
D03*
X274500Y663000D02*
D03*
X195750Y752000D02*
D03*
X204000Y746150D02*
D03*
X274499Y655499D02*
D03*
X56500Y634000D02*
D03*
X75000Y595500D02*
D03*
X19000Y621500D02*
D03*
X37000Y608500D02*
D03*
X165350Y571499D02*
D03*
X170000Y565499D02*
D03*
X165350Y559500D02*
D03*
X171000Y553999D02*
D03*
X207000Y642500D02*
D03*
X168000Y579000D02*
D03*
X139000Y593000D02*
D03*
X164000Y589000D02*
D03*
X163500Y596500D02*
D03*
X164000Y626499D02*
D03*
X170000Y631999D02*
D03*
X175500Y626499D02*
D03*
X181000Y631999D02*
D03*
X186500Y626500D02*
D03*
X136000Y544000D02*
D03*
X153000Y477499D02*
D03*
X159500Y481999D02*
D03*
X166000Y477499D02*
D03*
X146500Y481999D02*
D03*
X140200Y477500D02*
D03*
X152500Y354999D02*
D03*
X141500D02*
D03*
X147000Y360500D02*
D03*
X158499Y359999D02*
D03*
X164500Y355000D02*
D03*
X168800Y110250D02*
D03*
X194200Y167000D02*
D03*
X495500Y547000D02*
D03*
X195750Y775500D02*
D03*
X433450Y334000D02*
D03*
X408000Y335000D02*
D03*
X361000Y777000D02*
D03*
X366450D02*
D03*
X361000Y772000D02*
D03*
X366400D02*
D03*
X361000Y767000D02*
D03*
X366450D02*
D03*
X361000Y762000D02*
D03*
X366450D02*
D03*
X261950Y795000D02*
D03*
X263500Y781000D02*
D03*
X253500Y761100D02*
D03*
Y744000D02*
D03*
Y724500D02*
D03*
X130500Y767500D02*
D03*
X130450Y772500D02*
D03*
X330500Y345500D02*
D03*
X50500Y713500D02*
D03*
Y707000D02*
D03*
X342500Y578000D02*
D03*
X289500Y810000D02*
D03*
X295500D02*
D03*
X301500D02*
D03*
Y816000D02*
D03*
X295500D02*
D03*
X289500D02*
D03*
X276000Y802000D02*
D03*
X249500D02*
D03*
X216500Y127000D02*
D03*
X236500Y119500D02*
D03*
X242500Y92000D02*
D03*
D75*
X462000Y535500D02*
D03*
Y569500D02*
D03*
X246500Y777500D02*
D03*
X281000D02*
D03*
X182500Y798000D02*
D03*
X89500Y452750D02*
D03*
X212500Y451250D02*
D03*
X346500Y674000D02*
D03*
X381500Y771000D02*
D03*
X176000Y710000D02*
D03*
M02*
