M48
;Layer_Color=9474304
;FILE_FORMAT=4:4
METRIC,LZ
;TYPE=PLATED
T1F00S00C0.2500
T3F00S00C0.9000
T4F00S00C1.0000
T5F00S00C1.1000
T6F00S00C2.3000
T7F00S00C2.6000
T8F00S00C2.7000
T9F00S00C5.0000
%
T01
X003445Y00073
X00327Y001325
X003065Y00186
X003695
X00378
X00396Y001795
X00406Y00186
X0041475
X004245Y00152
X0038Y0016
X004005Y00109
X00442Y00094412
X00477259Y001215
X00527Y001405
X0026695Y001115
X002365Y001195
X002165Y00127
X00191Y001215
X001688Y0011025
X001434
X001255Y001205
X0014325Y00167
X0016875
X00177Y00173
X001942Y00167
X00247Y001505
X002425Y00092
X002142Y00052
X00145Y00056
X000815Y00066
X00073Y00099
X000815Y00148
X00071Y00164
X00025Y00113
X001055Y001905
X001155Y002275
X00118Y002605
Y003005
X001205Y0033335
X00104Y00354
X001415Y00354999
X001525
X00158499Y00359999
X001645Y00355
X00147Y003605
X001715Y003845
X001835Y004005
X001805Y00419
X00182Y004325
X001705Y00433
X001655Y00423
X00172Y004705
X00166Y00477499
X001595Y00481999
X00153Y00477499
X001465Y00481999
X001402Y004775
X0012645Y00494
X001355Y00512
X00136Y00544
X0015Y005315
X001675Y005425
X00171Y00553999
X0016535Y005595
X0017Y00565499
X0016535Y00571499
X00168Y00579
X001755Y00578
X002035Y00584
X00223Y005475
X002435Y00558
X00254Y005775
X002755Y00586
X002735Y005585
X002695Y00547
X002625Y005405
X00284Y005395
X002915Y005715
X00274Y00508
X00281Y00498
X002815Y004845
X002715Y00487
X002825Y004725
X00275Y00464
X002545Y004685
X00253Y00496
X00246Y004915
X002343Y0048755
Y004825
X002155Y004695
X002005Y004755
X00188Y00471
X00104Y00476
X00076Y004945
X00063Y005375
X001115Y005345
X001125Y00586
X001055
X001245Y0058
X001395Y00584
X00028
X000205Y005525
X00021Y00502
X00035Y00414
X00029Y00395
X000115Y00379
X000265Y00337
X00075Y003355
X000605Y00358
X000585Y00399
X00059Y004195
X0009925Y0041875
Y004135
X001045Y0040925
X0010975
X00103Y00397
X001995Y00393
X00233Y00394
X002335Y004083
X0022825Y0040825
X0023875Y004125
Y004178
X00247Y0043
X00288Y00434
X00287Y00424
X00297Y00391
X002875Y003365
X00283Y002895
X002575Y00313
X00226Y003345
X001845Y00334
X002015Y002875
X001985Y002435
X002235Y001935
X000835Y00285
X003375Y00284
X0036Y002833
X003595Y002755
X003615Y00295
X00383Y002915
X004105
X004065Y003175
X00408Y00335
X0043345Y00334
X00455Y003445
X004515Y003015
X00449Y002895
X004425Y0031
X004295Y0027325
X0042455Y00259
X0042445Y002345
X003935Y00229
X00358Y002255
X003635Y00258
X003145Y002555
X00328Y003005
X003305Y003455
X00324Y00362
X003495Y003725
X00337Y00391
X003285Y00414
X003225Y00447
X00328Y004745
X003161Y004845
X003355Y00492
X0033475Y0052675
X00333Y00538
X003205Y00544
X003095Y005355
X00309Y005075
X0036Y005115
X003595Y00548
X003425Y00578
X003245Y00569
X00383999Y00580999
X0039Y005865
X00445Y00583
X004465Y00555
X00412Y00544
X003935Y00519
X004355Y00512
X005005Y00515
X004955Y00547
X004965Y005765
X005025Y00573
X005465Y00577
X00547Y00585
X005545Y005805
X005455Y005645
X00541Y00558
X005465Y00551
X00542Y00521
X00555
X005465Y00473
X005365Y004515
X005615Y00425
X005915Y004345
X00591Y00394
X005525Y003905
X00514Y00391
X004595Y003885
X004795Y003685
X00431Y003715
X00391
X003885Y00351
X00379Y00335
X003575
X00528Y0033
X00564Y00341
X00591Y003405
X0057Y003195
X005525Y00305
X00539Y002675
X005385Y002625
X00534Y0026575
X00529Y00265
X005135Y00262
X005105Y00235
X0051Y00229
Y002235
X005145Y002265
Y002315
X005385Y00201
X005525Y00205
X005705Y001905
X004715Y00204
X00465Y00224
X004575Y002545
X004785Y002505
X00485Y0027
X004515Y00192
X005915Y00476
X005905Y00558
X005695Y005645
X005685Y00608
X005885Y00605
X00554Y00595
X005165Y006115
X004605Y00622
X0046045Y006315
X004605Y0064065
X0047Y006415
X00433Y006455
Y00654
X004335Y00635
X00433Y00623
X0043Y006075
X00415Y006115
X00402Y006145
X003995Y006255
X00404Y006335
X003935
X004075Y00602
X00452Y006065
X004645Y0059205
X003655Y00588
X0033475Y006235
X00321Y006295
Y00614
X00323Y00653
X00353Y006455
X0036Y00669
Y00674
Y00679
X00365
Y00674
Y00669
X0037
Y00674
Y00679
X00369Y00694
X003645Y0070085
X003335Y00699
X00314Y006995
X00308
X003335Y00731
Y007745
X0035Y00772
Y00777
X003555
Y00772
X00361
Y00777
X0036645
X003664Y00772
X0036645Y00767
Y00762
X00361
Y00767
X00367Y00795
X003465Y008119
X003095Y008005
X00315Y00757
X004165Y0076385
X00417Y007755
X004215Y007525
X00433Y00754
X00444Y00773
X00454139Y007795
X004615Y007745
X004685Y007795
X004815Y007695
X00472Y007585
X00495Y0074255
X005155Y00753
X005285Y007525
X00539Y007535
X005385Y007685
X00526
X00513
X0056Y007625
X005615Y00751
X0057945Y0075045
X005805Y0076345
X00587Y007175
X00573Y007165
X00574Y007005
X005905Y007
X005565Y0070085
X00555Y00717
X00538Y007175
X005267
X00528Y007075
X00517Y007085
X005056Y00707
Y0071325
X00491Y007005
Y00695
Y0069
X005367Y00698
X005545Y007365
X005635Y00847
X00568Y00882
X005595Y009235
X00526Y00838
X00459Y00821
X0041815Y008265
X00399Y008055
X00375Y00834
X00341Y00907
X0033Y00928
X00361Y00938
X004175Y00719
X00421Y00709
X00429Y00715
X004265Y00725
X004375Y007195
X0043545Y007085
X004445Y007105
X0044045Y007005
X0029695Y007085
X00267Y00707
X002535Y007245
Y00744
Y007611
X002315Y007645
X00231Y007325
X002235Y007005
X00193Y007125
X001995Y00723
X00204Y0074615
X0019575Y00752
X00186Y007405
X00173Y007255
X0014Y00726
X001495Y007
X00118Y006925
X00115Y00657
X0013045Y00641
X00164Y00626499
X0017Y00631999
X001755Y00626499
X00181Y00631999
X001865Y006265
X001905Y00649
X001915Y00669
X002015
X00207Y006425
X00217Y0063145
X002245Y00649
X0024395Y006495
X00239Y00667
X002745Y00663
X00274499Y00655499
X00286Y0066
X00286499Y00612999
X002925Y00608
X002775Y006065
X0025Y0063
X002305Y00612
X002165Y00599
X00202Y006145
X001755Y00594
X001635Y005965
X00164Y00589
X00139Y00593
X00095Y00605
Y00613
X00075Y005955
X00037Y006085
X00019Y006215
X00048Y006395
X000565Y00634
X000385Y006745
X00044Y00707
Y007135
X000505
Y00707
X000385Y00725
X000395Y00745
X00047Y00763
X000465Y00787
X000355Y00789
Y00799
X000185Y00801
X00035Y00776
X000185Y007495
X00075Y00749
X001015Y00745
X00104Y0076855
X001305Y007675
X0013045Y007725
X00141Y00781
X001365Y008015
X001145Y00792
X001015Y008095
X00103Y00836
X00058Y00837
X00041Y00834
X00035
Y008405
X00041
X000455Y00818
X00073Y00801
X000755Y008575
X000575Y008675
X00033Y00863
X00059Y009305
X00085Y009455
X000945Y009165
X001495Y00922
X001835Y00921
X001965Y00922
X00201Y00911
X002015Y008965
X0022825
X002275Y009375
X002595Y009205
X00287Y009275
X003Y0094
X00285Y00895
X002815Y00861
X002895Y00816
Y0081
X002955
Y00816
X003015
Y0081
X00276Y00802
X0026195Y00795
X002635Y00781
X002495Y00802
X002115Y007995
X00211Y008115
Y008165
X002175
Y008115
X00188Y008155
X00165Y008285
X00175Y00783
X00166Y00766
X0019575Y007755
X002205Y008565
X002065Y00871
X0019Y00958
X001375Y009495
X0011Y009795
X00104Y0071875
X000915Y006725
X00287Y00737
X002195Y00997
X00082Y009945
T03
X00046Y00376
X00071
X00096
X00121
X00191
X00216
X00241
X00266
X00316Y00818
Y00843
Y00868
Y00893
X00255
Y00868
Y00843
X00125
Y00868
Y00893
Y00818
T04
X000895Y0045275
X002125Y0045125
X00462Y005355
Y005695
X005041Y003595
X005295
X005549
X005803
X003465Y00674
X003815Y00771
X00281Y007775
X002465
X001825Y00798
X00176Y0071
T05
X005226Y00507
X00548
X005734
Y00535
X00548
X005226
Y00631
X00548
X005734
T06
X0003675Y00036
X0003375Y0018
X0027675Y00036
X0003375Y00296
T07
X00522Y00672
X00572
Y00797
X00522
T08
X0050475Y0018
X0025775Y0024
X0005575
X0050475Y00296
X0027675Y00973
X0003675
T09
X0042775Y0045
X0044675Y00895
M30
