G04 Layer_Color=8388736*
%FSLAX44Y44*%
%MOMM*%
G71*
G01*
G75*
%ADD10R,0.8000X0.6000*%
%ADD11R,0.6000X0.5900*%
%ADD12R,0.5900X0.6000*%
%ADD13R,0.3000X0.6600*%
%ADD14R,3.2200X1.6300*%
%ADD15R,1.0500X1.0200*%
%ADD16R,1.4700X1.1500*%
%ADD17R,0.6400X0.6300*%
%ADD18R,1.3500X1.8200*%
%ADD19R,1.4700X1.1100*%
%ADD20R,1.1500X1.4700*%
%ADD21R,1.9000X1.7500*%
%ADD22R,1.8000X1.1500*%
%ADD23R,1.4000X0.4000*%
%ADD24R,1.2600X0.6100*%
%ADD25R,0.5000X0.4000*%
%ADD26R,1.1000X1.6000*%
%ADD27R,0.6000X0.8000*%
%ADD28R,0.6000X0.5000*%
%ADD29R,0.5000X0.6000*%
%ADD30R,0.9800X3.4000*%
%ADD31C,0.7200*%
%ADD32R,0.9720X0.8020*%
%ADD33R,0.6300X0.6400*%
%ADD34R,0.4000X0.6000*%
%ADD35R,0.6000X1.2100*%
G04:AMPARAMS|DCode=36|XSize=0.59mm|YSize=0.6mm|CornerRadius=0.1475mm|HoleSize=0mm|Usage=FLASHONLY|Rotation=90.000|XOffset=0mm|YOffset=0mm|HoleType=Round|Shape=RoundedRectangle|*
%AMROUNDEDRECTD36*
21,1,0.5900,0.3050,0,0,90.0*
21,1,0.2950,0.6000,0,0,90.0*
1,1,0.2950,0.1525,0.1475*
1,1,0.2950,0.1525,-0.1475*
1,1,0.2950,-0.1525,-0.1475*
1,1,0.2950,-0.1525,0.1475*
%
%ADD36ROUNDEDRECTD36*%
%ADD37R,1.4000X1.2000*%
%ADD38R,1.6300X3.2200*%
%ADD39R,1.0200X1.0500*%
%ADD40R,0.9300X0.7900*%
%ADD41R,2.5000X1.3000*%
%ADD42R,2.6000X0.4000*%
%ADD43R,1.7000X2.1500*%
%ADD44R,0.6000X0.3500*%
%ADD45R,0.5000X0.2800*%
%ADD46R,0.7000X1.3000*%
%ADD47R,1.3000X2.5000*%
%ADD48R,2.8000X1.2000*%
%ADD49R,0.5000X0.5000*%
%ADD50R,0.7000X0.2200*%
%ADD51R,0.2200X0.7000*%
%ADD52R,0.3000X1.4500*%
%ADD53R,1.4500X0.3000*%
%ADD54R,1.7000X1.7000*%
%ADD55R,0.8500X0.2800*%
%ADD56R,0.2800X0.8500*%
%ADD61C,0.1000*%
%ADD62O,1.9000X1.0500*%
%ADD63R,1.9000X1.9000*%
%ADD64C,1.9000*%
%ADD65R,1.6500X1.6500*%
%ADD66C,1.6500*%
%ADD67C,5.5000*%
%ADD68C,5.0000*%
%ADD69O,18.0000X8.5000*%
%ADD70C,4.2000*%
%ADD71R,1.8000X1.8000*%
%ADD72C,1.8000*%
%ADD73R,1.8000X1.8000*%
%ADD75C,1.6000*%
G36*
X404832Y757589D02*
X406239Y756182D01*
X407000Y754345D01*
Y753350D01*
Y740350D01*
X359000D01*
Y753350D01*
Y754345D01*
X359761Y756182D01*
X361168Y757589D01*
X363005Y758350D01*
X402994D01*
X404832Y757589D01*
D02*
G37*
G36*
X164750Y746950D02*
Y735550D01*
Y735252D01*
X164522Y734700D01*
X164100Y734278D01*
X163548Y734050D01*
X148452D01*
X147900Y734278D01*
X147478Y734700D01*
X147250Y735252D01*
Y735550D01*
Y748450D01*
Y748748D01*
X147478Y749300D01*
X147900Y749722D01*
X148452Y749950D01*
X161750D01*
X164750Y746950D01*
D02*
G37*
G36*
X476000Y710250D02*
X473000D01*
Y714250D01*
X476000D01*
Y710250D01*
D02*
G37*
G36*
X407000Y712350D02*
Y711355D01*
X406239Y709518D01*
X404832Y708111D01*
X402994Y707350D01*
X363005D01*
X361168Y708111D01*
X359761Y709518D01*
X359000Y711355D01*
Y712350D01*
Y725350D01*
X407000D01*
Y712350D01*
D02*
G37*
G36*
X435250Y688750D02*
X436500D01*
Y667250D01*
X435250D01*
Y660250D01*
X432750D01*
Y667250D01*
X431250D01*
Y660250D01*
X428750D01*
Y667250D01*
X427250D01*
Y660250D01*
X424750D01*
Y667250D01*
X423250D01*
Y660250D01*
X420750D01*
Y667250D01*
X419500D01*
Y688750D01*
X420750D01*
Y695750D01*
X423250D01*
Y688750D01*
X424750D01*
Y695750D01*
X427250D01*
Y688750D01*
X428750D01*
Y695750D01*
X431250D01*
Y688750D01*
X432750D01*
Y695750D01*
X435250D01*
Y688750D01*
D02*
G37*
G36*
X474000Y273000D02*
X469000D01*
Y275000D01*
X453000D01*
Y273000D01*
X448000D01*
Y281000D01*
X453000D01*
Y279000D01*
X469000D01*
Y281000D01*
X474000D01*
Y273000D01*
D02*
G37*
G36*
Y258000D02*
X469000D01*
Y260000D01*
X453000D01*
Y258000D01*
X448000D01*
Y266000D01*
X453000D01*
Y264000D01*
X469000D01*
Y266000D01*
X474000D01*
Y258000D01*
D02*
G37*
G36*
Y243000D02*
X469000D01*
Y245000D01*
X453000D01*
Y243000D01*
X448000D01*
Y251000D01*
X453000D01*
Y249000D01*
X469000D01*
Y251000D01*
X474000D01*
Y243000D01*
D02*
G37*
G36*
X415000Y279000D02*
Y239500D01*
X372500D01*
Y282000D01*
X412000D01*
X415000Y279000D01*
D02*
G37*
D10*
X580200Y319500D02*
D03*
Y305000D02*
D03*
X368000Y628500D02*
D03*
Y643000D02*
D03*
X580450Y190500D02*
D03*
Y205000D02*
D03*
X346250Y839750D02*
D03*
Y854250D02*
D03*
D11*
X378000Y203550D02*
D03*
Y194450D02*
D03*
X505000Y640650D02*
D03*
Y631550D02*
D03*
X497000Y640550D02*
D03*
Y631450D02*
D03*
X449050Y679550D02*
D03*
Y670450D02*
D03*
Y695550D02*
D03*
Y686450D02*
D03*
X444000Y742550D02*
D03*
Y733450D02*
D03*
Y759550D02*
D03*
Y750450D02*
D03*
X369000Y660550D02*
D03*
Y651450D02*
D03*
X507000Y614550D02*
D03*
Y605450D02*
D03*
X414750Y203550D02*
D03*
Y194450D02*
D03*
X406000Y203550D02*
D03*
Y194450D02*
D03*
X369500Y203550D02*
D03*
Y194450D02*
D03*
X452000Y225050D02*
D03*
Y215950D02*
D03*
X193000Y704550D02*
D03*
Y695450D02*
D03*
X201000Y704550D02*
D03*
Y695450D02*
D03*
X85000Y424550D02*
D03*
Y415450D02*
D03*
X210000Y423550D02*
D03*
Y414450D02*
D03*
X154000Y812550D02*
D03*
Y803450D02*
D03*
X77000Y424550D02*
D03*
Y415450D02*
D03*
X345000Y872550D02*
D03*
Y863450D02*
D03*
X205500Y768550D02*
D03*
Y759450D02*
D03*
X195750Y768550D02*
D03*
Y759450D02*
D03*
X154000Y829550D02*
D03*
Y820450D02*
D03*
D12*
X514550Y719998D02*
D03*
X505450D02*
D03*
X412550Y788000D02*
D03*
X403450D02*
D03*
X506050Y535000D02*
D03*
X496950D02*
D03*
X511750Y242750D02*
D03*
X502650D02*
D03*
X511750Y250750D02*
D03*
X502650D02*
D03*
X442550Y317450D02*
D03*
X433450D02*
D03*
X463550Y368500D02*
D03*
X454450D02*
D03*
X442550Y326500D02*
D03*
X433450D02*
D03*
X570050Y305000D02*
D03*
X560950D02*
D03*
X570050Y205000D02*
D03*
X560950D02*
D03*
X262050Y505000D02*
D03*
X252950D02*
D03*
X424550Y335000D02*
D03*
X415450D02*
D03*
X424550Y326500D02*
D03*
X415450D02*
D03*
X202300Y423000D02*
D03*
X193200D02*
D03*
X276050Y813000D02*
D03*
X266950D02*
D03*
X258550D02*
D03*
X249450D02*
D03*
D13*
X530700Y253450D02*
D03*
X525700D02*
D03*
X530700Y238750D02*
D03*
X520700Y253450D02*
D03*
Y238750D02*
D03*
D14*
X579500Y735000D02*
D03*
X526500D02*
D03*
X578500Y582000D02*
D03*
X525500D02*
D03*
X174500Y448000D02*
D03*
X121500D02*
D03*
X296950D02*
D03*
X243950D02*
D03*
D15*
X486350Y631550D02*
D03*
X471650D02*
D03*
X89350Y435250D02*
D03*
X74650D02*
D03*
X212350Y434200D02*
D03*
X197650D02*
D03*
D16*
X466000Y670350D02*
D03*
Y652650D02*
D03*
X485000Y670350D02*
D03*
Y652650D02*
D03*
X457000Y763850D02*
D03*
Y746150D02*
D03*
X463000Y700850D02*
D03*
Y683150D02*
D03*
X457000Y732850D02*
D03*
Y715150D02*
D03*
X221000Y109850D02*
D03*
Y92150D02*
D03*
X108500Y613350D02*
D03*
Y595650D02*
D03*
X155000Y511850D02*
D03*
Y494150D02*
D03*
X337000Y606850D02*
D03*
Y589150D02*
D03*
X330500Y333350D02*
D03*
Y315650D02*
D03*
X96000Y147850D02*
D03*
Y130150D02*
D03*
D17*
X423950Y700000D02*
D03*
X415050D02*
D03*
X529650Y217750D02*
D03*
X520750D02*
D03*
X502400Y234500D02*
D03*
X493500D02*
D03*
X505000Y259000D02*
D03*
X496100D02*
D03*
X395950Y194450D02*
D03*
X387050D02*
D03*
X395950Y203550D02*
D03*
X387050D02*
D03*
X424450Y318000D02*
D03*
X415550D02*
D03*
X366450Y327000D02*
D03*
X357550D02*
D03*
X261950Y513500D02*
D03*
X253050D02*
D03*
X293450Y694500D02*
D03*
X284550D02*
D03*
X387450Y327000D02*
D03*
X378550D02*
D03*
X387450Y318000D02*
D03*
X378550D02*
D03*
X243200Y500000D02*
D03*
X234300D02*
D03*
X327450Y664000D02*
D03*
X318550D02*
D03*
X242950Y509500D02*
D03*
X234050D02*
D03*
X327450Y673000D02*
D03*
X318550D02*
D03*
X130450Y752000D02*
D03*
X121550D02*
D03*
X155700Y717000D02*
D03*
X146800D02*
D03*
X130450Y761000D02*
D03*
X121550D02*
D03*
X366400Y318000D02*
D03*
X357500D02*
D03*
D18*
X430850Y771000D02*
D03*
X403150D02*
D03*
D19*
X401000Y663000D02*
D03*
Y645000D02*
D03*
X382000Y694000D02*
D03*
Y676000D02*
D03*
X401000Y694000D02*
D03*
Y676000D02*
D03*
X382000Y663000D02*
D03*
Y645000D02*
D03*
D20*
X509850Y560750D02*
D03*
X492150D02*
D03*
X500550Y220750D02*
D03*
X482850D02*
D03*
X328850Y687000D02*
D03*
X311150D02*
D03*
X316100Y928000D02*
D03*
X298400D02*
D03*
D21*
X580200Y265750D02*
D03*
Y244250D02*
D03*
D22*
X556200Y278200D02*
D03*
Y231800D02*
D03*
D23*
X550200Y268000D02*
D03*
Y261500D02*
D03*
Y255000D02*
D03*
Y248500D02*
D03*
Y242000D02*
D03*
D24*
X487200Y595500D02*
D03*
Y614500D02*
D03*
X467300Y605000D02*
D03*
D25*
X491000Y718750D02*
D03*
Y705750D02*
D03*
D26*
X480500Y712250D02*
D03*
D27*
X436000Y788000D02*
D03*
X421500D02*
D03*
D28*
X539000Y282000D02*
D03*
Y272000D02*
D03*
D29*
X530700Y227250D02*
D03*
X520700D02*
D03*
D30*
X422000Y638000D02*
D03*
X445700D02*
D03*
D31*
X383000Y749350D02*
D03*
Y716350D02*
D03*
D32*
X500850Y733500D02*
D03*
Y752500D02*
D03*
X483150Y743000D02*
D03*
D33*
X461000Y319950D02*
D03*
Y311050D02*
D03*
X451500Y316950D02*
D03*
Y308050D02*
D03*
X347000Y326950D02*
D03*
Y318050D02*
D03*
X396500Y326950D02*
D03*
Y318050D02*
D03*
X222000Y493450D02*
D03*
Y484550D02*
D03*
X176000Y496450D02*
D03*
Y487550D02*
D03*
X176000Y513950D02*
D03*
Y505050D02*
D03*
X123000Y608450D02*
D03*
Y599550D02*
D03*
X223500Y512450D02*
D03*
Y503550D02*
D03*
X132500Y608450D02*
D03*
Y599550D02*
D03*
X323000Y600950D02*
D03*
Y592050D02*
D03*
X117500Y738450D02*
D03*
Y729550D02*
D03*
D34*
X459000Y233500D02*
D03*
X450000D02*
D03*
D35*
X464000Y355550D02*
D03*
X445000D02*
D03*
X454500Y330450D02*
D03*
D36*
X352000Y592050D02*
D03*
Y582950D02*
D03*
D37*
X210000Y507500D02*
D03*
Y490500D02*
D03*
X188000Y507500D02*
D03*
Y490500D02*
D03*
D38*
X185000Y897500D02*
D03*
Y844500D02*
D03*
D39*
X165000Y812350D02*
D03*
Y797650D02*
D03*
D40*
X203000Y830200D02*
D03*
Y813800D02*
D03*
X108000Y434200D02*
D03*
Y417800D02*
D03*
X229901Y433200D02*
D03*
Y416800D02*
D03*
D41*
X74750Y811900D02*
D03*
Y786500D02*
D03*
Y837300D02*
D03*
Y735700D02*
D03*
Y761100D02*
D03*
Y710300D02*
D03*
Y659500D02*
D03*
Y608700D02*
D03*
Y684900D02*
D03*
Y634100D02*
D03*
X18750Y837300D02*
D03*
Y786500D02*
D03*
Y761100D02*
D03*
Y811900D02*
D03*
Y710300D02*
D03*
Y735700D02*
D03*
Y684900D02*
D03*
Y608700D02*
D03*
Y634100D02*
D03*
Y659500D02*
D03*
D42*
X461000Y277000D02*
D03*
Y262000D02*
D03*
Y247000D02*
D03*
D43*
X428000Y678000D02*
D03*
D44*
X414750Y688000D02*
D03*
Y683000D02*
D03*
Y678000D02*
D03*
Y673000D02*
D03*
Y668000D02*
D03*
X441250Y688000D02*
D03*
Y683000D02*
D03*
Y678000D02*
D03*
Y673000D02*
D03*
Y668000D02*
D03*
D45*
X433950Y731000D02*
D03*
Y736000D02*
D03*
Y741000D02*
D03*
Y746000D02*
D03*
X414950D02*
D03*
Y741000D02*
D03*
Y736000D02*
D03*
Y731000D02*
D03*
D46*
X424450Y738500D02*
D03*
D47*
X118000Y148000D02*
D03*
X143400D02*
D03*
X168800D02*
D03*
X194200D02*
D03*
X118000Y92000D02*
D03*
X143400D02*
D03*
X168800D02*
D03*
X194200D02*
D03*
D48*
X422500Y391000D02*
D03*
X358500D02*
D03*
X422500Y351000D02*
D03*
X358500D02*
D03*
D49*
X156000Y742000D02*
D03*
D50*
X171800Y752000D02*
D03*
Y748000D02*
D03*
Y744000D02*
D03*
Y740000D02*
D03*
Y736000D02*
D03*
Y732000D02*
D03*
X140200D02*
D03*
Y736000D02*
D03*
Y740000D02*
D03*
Y744000D02*
D03*
Y748000D02*
D03*
Y752000D02*
D03*
D51*
X166000Y726200D02*
D03*
X162000D02*
D03*
X158000D02*
D03*
X154000D02*
D03*
X150000D02*
D03*
X146000D02*
D03*
Y757800D02*
D03*
X150000D02*
D03*
X154000D02*
D03*
X158000D02*
D03*
X162000D02*
D03*
X166000D02*
D03*
D52*
X289000Y526750D02*
D03*
X284000D02*
D03*
X279000D02*
D03*
X274000D02*
D03*
X269000D02*
D03*
X264000D02*
D03*
X259000D02*
D03*
X254000D02*
D03*
X249000D02*
D03*
X244000D02*
D03*
X239000D02*
D03*
X234000D02*
D03*
X229000D02*
D03*
X224000D02*
D03*
X219000D02*
D03*
X214000D02*
D03*
X209000D02*
D03*
X204000D02*
D03*
X199000D02*
D03*
X194000D02*
D03*
X189000D02*
D03*
X184000D02*
D03*
X179000D02*
D03*
X174000D02*
D03*
X169000D02*
D03*
Y681250D02*
D03*
X174000D02*
D03*
X179000D02*
D03*
X184000D02*
D03*
X189000D02*
D03*
X194000D02*
D03*
X199000D02*
D03*
X204000D02*
D03*
X209000D02*
D03*
X214000D02*
D03*
X219000D02*
D03*
X224000D02*
D03*
X229000D02*
D03*
X234000D02*
D03*
X239000D02*
D03*
X244000D02*
D03*
X249000D02*
D03*
X254000D02*
D03*
X259000D02*
D03*
X264000D02*
D03*
X269000D02*
D03*
X274000D02*
D03*
X279000D02*
D03*
X284000D02*
D03*
X289000D02*
D03*
D53*
X151750Y544000D02*
D03*
Y549000D02*
D03*
Y554000D02*
D03*
Y559000D02*
D03*
Y564000D02*
D03*
Y569000D02*
D03*
Y574000D02*
D03*
Y579000D02*
D03*
Y584000D02*
D03*
Y589000D02*
D03*
Y594000D02*
D03*
Y599000D02*
D03*
Y604000D02*
D03*
Y609000D02*
D03*
Y614000D02*
D03*
Y619000D02*
D03*
Y624000D02*
D03*
Y629000D02*
D03*
Y634000D02*
D03*
Y639000D02*
D03*
Y644000D02*
D03*
Y649000D02*
D03*
Y654000D02*
D03*
Y659000D02*
D03*
Y664000D02*
D03*
X306250D02*
D03*
Y659000D02*
D03*
Y654000D02*
D03*
Y649000D02*
D03*
Y644000D02*
D03*
Y639000D02*
D03*
Y634000D02*
D03*
Y629000D02*
D03*
Y624000D02*
D03*
Y619000D02*
D03*
Y614000D02*
D03*
Y609000D02*
D03*
Y604000D02*
D03*
Y599000D02*
D03*
Y594000D02*
D03*
Y589000D02*
D03*
Y584000D02*
D03*
Y579000D02*
D03*
Y574000D02*
D03*
Y569000D02*
D03*
Y564000D02*
D03*
Y559000D02*
D03*
Y554000D02*
D03*
Y549000D02*
D03*
Y544000D02*
D03*
D54*
X393750Y260750D02*
D03*
D55*
X438500Y298250D02*
D03*
Y293250D02*
D03*
Y288250D02*
D03*
Y283250D02*
D03*
Y278250D02*
D03*
Y273250D02*
D03*
Y268250D02*
D03*
Y263250D02*
D03*
Y258250D02*
D03*
Y253250D02*
D03*
Y248250D02*
D03*
Y243250D02*
D03*
Y238250D02*
D03*
Y233250D02*
D03*
Y228250D02*
D03*
Y223250D02*
D03*
X349000D02*
D03*
Y228250D02*
D03*
Y233250D02*
D03*
Y238250D02*
D03*
Y243250D02*
D03*
Y248250D02*
D03*
Y253250D02*
D03*
Y258250D02*
D03*
Y263250D02*
D03*
Y268250D02*
D03*
Y273250D02*
D03*
Y278250D02*
D03*
Y283250D02*
D03*
Y288250D02*
D03*
Y293250D02*
D03*
Y298250D02*
D03*
D56*
X431250Y216000D02*
D03*
X426250D02*
D03*
X421250D02*
D03*
X416250D02*
D03*
X411250D02*
D03*
X406250D02*
D03*
X401250D02*
D03*
X396250D02*
D03*
X391250D02*
D03*
X386250D02*
D03*
X381250D02*
D03*
X376250D02*
D03*
X371250D02*
D03*
X366250D02*
D03*
X361250D02*
D03*
X356250D02*
D03*
Y305500D02*
D03*
X361250D02*
D03*
X366250D02*
D03*
X371250D02*
D03*
X376250D02*
D03*
X381250D02*
D03*
X386250D02*
D03*
X391250D02*
D03*
X396250D02*
D03*
X401250D02*
D03*
X406250D02*
D03*
X411250D02*
D03*
X416250D02*
D03*
X421250D02*
D03*
X426250D02*
D03*
X431250D02*
D03*
D61*
X310000Y968000D02*
G03*
X330000Y948000I20000J0D01*
G01*
X310000Y988000D02*
G03*
X290000Y1008000I-20000J0D01*
G01*
X25000Y1007999D02*
G03*
X0Y988000I-2500J-22499D01*
G01*
X23000Y911000D02*
G03*
X-0Y929000I-20500J-2500D01*
G01*
Y865000D02*
G03*
X23000Y883000I2500J20500D01*
G01*
X23000Y464000D02*
G03*
X-0Y480000I-19500J-3500D01*
G01*
X0Y416000D02*
G03*
X23000Y436000I1500J21500D01*
G01*
X121000Y1008000D02*
G03*
X156000Y973000I35000J0D01*
G01*
D02*
G03*
X191000Y1008000I0J35000D01*
G01*
X-1Y36000D02*
G03*
X69600Y23000I36035J109D01*
G01*
X242399Y22999D02*
G03*
X312000Y36000I33587J12998D01*
G01*
X591213Y182213D02*
G03*
X600000Y203426I-21213J21213D01*
G01*
X438574Y42000D02*
G03*
X459787Y50787I0J30000D01*
G01*
X600000Y928000D02*
G03*
X580000Y948000I-20000J0D01*
G01*
X50000Y883000D02*
G03*
X50000Y911000I0J14000D01*
G01*
Y436000D02*
G03*
X50000Y464000I0J14000D01*
G01*
X310000Y968000D02*
Y988000D01*
X191000Y1008000D02*
X290000D01*
X0Y929000D02*
Y988000D01*
X25000Y1008000D02*
X121000D01*
X23000Y911000D02*
X50000D01*
X23000Y883000D02*
X50000D01*
X0Y480000D02*
Y865000D01*
X23000Y436000D02*
X50000D01*
X23000Y464000D02*
X50000D01*
X69600Y23000D02*
X242400D01*
X0Y36000D02*
Y416000D01*
X312000Y36000D02*
Y42000D01*
X600000Y203426D02*
Y928000D01*
X459787Y50787D02*
X591213Y182213D01*
X330000Y948000D02*
X580000D01*
X312000Y42000D02*
X438574D01*
D62*
X580200Y290750D02*
D03*
Y219250D02*
D03*
D63*
X573400Y631000D02*
D03*
Y507000D02*
D03*
Y535000D02*
D03*
D64*
X548000Y631000D02*
D03*
X522600D02*
D03*
Y507000D02*
D03*
X548000D02*
D03*
X522600Y535000D02*
D03*
X548000D02*
D03*
D65*
X580300Y359500D02*
D03*
D66*
X554900D02*
D03*
X504100D02*
D03*
X529500D02*
D03*
D67*
X55750Y240000D02*
D03*
X257750D02*
D03*
X36750Y973000D02*
D03*
X276750D02*
D03*
X504750Y296000D02*
D03*
Y180000D02*
D03*
D68*
X276750Y36000D02*
D03*
X36750D02*
D03*
X33750Y180000D02*
D03*
Y296000D02*
D03*
D69*
X446750Y895000D02*
D03*
X427750Y450000D02*
D03*
D70*
X522000Y797000D02*
D03*
X572000D02*
D03*
X522000Y672000D02*
D03*
X572000D02*
D03*
D71*
X125000Y893000D02*
D03*
X316000D02*
D03*
X255000D02*
D03*
D72*
X125000Y868000D02*
D03*
Y843000D02*
D03*
Y818000D02*
D03*
X316000Y868000D02*
D03*
Y843000D02*
D03*
Y818000D02*
D03*
X255000Y868000D02*
D03*
Y843000D02*
D03*
X96000Y376000D02*
D03*
X71000D02*
D03*
X46000D02*
D03*
X241000D02*
D03*
X216000D02*
D03*
X191000D02*
D03*
D73*
X121000D02*
D03*
X266000D02*
D03*
D75*
X462000Y535500D02*
D03*
Y569500D02*
D03*
X246500Y777500D02*
D03*
X281000D02*
D03*
X182500Y798000D02*
D03*
X89500Y452750D02*
D03*
X212500Y451250D02*
D03*
X346500Y674000D02*
D03*
X381500Y771000D02*
D03*
X176000Y710000D02*
D03*
M02*
