M48
;Layer_Color=9474304
;FILE_FORMAT=4:4
METRIC,LZ
;TYPE=PLATED
T1F00S00C0.2500
T3F00S00C1.0000
T4F00S00C1.1000
T5F00S00C2.5000
T6F00S00C2.6000
T7F00S00C2.9000
T8F00S00C5.0000
%
T01
X003445Y00073
X00327Y001325
X003065Y00186
X0038625Y00176
X00395
X0040405
X00413
X004225
X0043085
X004365Y001465
X003885Y00146
X00404Y0012
X0043395Y00078
X00479Y00134
X00527Y001405
X00570499Y00189
X00465Y00182
X00252Y00145
X002395Y0013425
X002365Y001195
X002095Y0011775
X001942Y00115
X00169
X001435
X001255Y001205
X000995Y001405
X00102Y001615
X00126Y001695
X0014325Y00167
X0016875
X00177Y00173
X00071Y00164
Y00105
X00072Y0009215
X000815Y00066
X00145Y00056
X002142Y00052
X0026695Y001115
X00025Y00113
X001055Y001905
X001155Y002275
X00118Y002605
Y003005
X001205Y0033335
X00104Y00354999
X001415
X001525
X00158499Y00359999
X001645Y00355
X001805Y00361
X00192Y00359
X00203Y00364
X001995Y00393
X001835Y004005
X001805Y00419
X00182Y004325
X001705Y00433
X001655Y00423
X001715Y003845
X001745Y003725
X00147Y003605
X001845Y00334
X001718Y002965
X002015Y002875
X001985Y002435
X001735Y00207
X001665Y0019
X002235Y001935
X00226Y00322
X002575Y00313
X002965Y00317
X002875Y003365
X00299Y00362
X0029695Y003815
X00287Y00424
X00288Y00434
X00275Y00464
X002825Y004725
X002815Y004845
X002715Y00487
X00281Y00498
X00274Y00508
X00253Y00496
X00246Y004915
X002343Y0048755
Y004825
X002265Y00497
X00221Y004675
X002005Y004755
X00188Y00471
X00172Y004705
X001725Y004815
X00166Y00477499
X001595Y00481999
X00153Y00477499
X001465Y00481999
X001402Y004775
X00127Y005005
X001355Y00512
X00136Y00544
X0015Y005315
X001675Y005425
X00171Y00553999
X0016535Y005595
X0017Y00565499
X0016535Y00571499
X00168Y00579
X001755Y00578
X002035Y00584
X002025Y00544
X00223Y005475
X002435Y00558
X00254Y005775
X002755Y00586
X002735Y005585
X002695Y00547
X002625Y005405
X00284Y005395
X002915Y005715
X002545Y004685
X00247Y0043
X0023875Y004178
Y004125
X002335Y004083
X0022825Y0040825
X00233Y00394
X00103Y00397
X00104Y004095
X00109
X0009925Y00412
Y00417
X00059Y004195
X000585Y00399
X000455Y00393
X000335Y003865
X0003Y003735
X000375Y0036
X000605Y00358
X00065Y00324
X000265Y00337
X000115Y00379
X00035Y00414
X00021Y00502
X000205Y005525
X00008Y00583
X00067Y0056
X00063Y005375
X0009075Y005475
X001115Y005345
X00113Y00577
X001125Y00586
X001055
X001245Y0058
X00134Y005775
X001395Y00584
X00104Y00476
X00076Y004945
X000835Y00285
X00283Y002895
X00328Y003005
X003375Y00284
X003515Y002705
X00378Y002675
X00384Y00273
X003865Y002835
X00406Y00284
X004355Y002815
X00444Y00267
X00445Y00253
X004465Y002445
X004475Y00233
X00441Y002245
Y001965
X00467Y002045
X00487Y002225
X004945Y0022055
X00496Y00234714
X005125Y002295
X0051Y00225
X00515Y002235
X0051145Y002195
X005135Y00262
X00529Y00265
X005335Y00268
X005385Y002675
Y002625
X00495Y00259
X00475Y002425
X00476Y00279
X004525Y003305
X00445Y003295
X004505Y00353
X004645Y003465
X00471Y00356
X00466Y003775
X004805Y003875
X00514Y00391
X005205Y00361
X00496Y003595
X00432Y0036
X00412Y003685
X004055Y003495
X004145Y003285
X00417Y0031645
X00417Y0030655
X0039995Y00325
X00373
X003475Y003125
X003665Y00363
X00387
X00324Y00362
X003265Y003895
X00337Y003815
X003285Y00414
X003185Y004405
Y0045
Y0046
X00328Y004745
X003161Y004845
X003355Y00492
X0033475Y0052675
X00333Y00538
X003205Y00544
X003095Y005355
X00309Y005075
X0036Y005115
X003595Y00548
X003425Y00578
X003245Y00569
X00389999Y00578999
X0039Y005865
X00447Y005805
X004465Y00555
X00412Y00544
X003935Y00519
X004355Y00512
X005005Y00515
X00542Y00521
X00555
X005465Y00551
X00541Y00558
X005455Y005645
X005465Y00577
X00547Y00585
X005545Y005805
X005695Y005645
X005905Y00558
X005925Y005355
Y005065
X005915Y00476
Y004345
X005615Y00425
X005505Y003945
X005625Y003755
X005805Y003685
X00591Y00394
X005705Y00321
X0056095Y003125
X00533Y00323
X005367Y001995
X00539Y00191
X0056095Y001975
X00412Y002215
X0040405Y00216
X00366Y001965
X00343Y00226
X0033475Y002435
X003145Y002555
X003135Y0022055
X00379Y0025
X005365Y004515
X005465Y00473
X005065Y00576
X00501Y00609
X004595Y00622
Y0063145
Y0064055
X0047Y006415
X00433Y00644
Y006341
Y00623
X004255Y006075
X00415Y006115
X004075Y00602
X00406Y00626
X004065Y00631999
X004015Y006295
X0040125Y00624
X00378Y006295
X003585Y00646
X003705Y006605
X003685Y00688
Y00694
X0037Y007
X003635Y00701
X003335Y00699
X00314Y006995
X00308
X00342Y00677
Y00672
Y00667
X00347
Y00672
Y00677
X00352
X00342Y00662
X00323Y00653
X00321Y006295
Y00614
X0033475Y006235
X003655Y00588
X004535Y005985
X004645Y0059
X00433Y00654
X0044045Y007005
X0043545Y007085
X004445Y007105
X004375Y007195
X00429Y00715
X004265Y00725
X004175Y00719
X00421Y00709
X00417Y00754
X004255
X00433
X004165Y0076385
X00417Y007755
X00444Y00773
X00454139Y007795
X00462Y007745
X004705Y0078
X00472Y0076
X004815Y007695
X00515Y007685
X00513Y00776
X0052585
X00526Y007685
X005385
X00539Y00749
X0052615
X00515
X00495Y0074255
X005Y00713
X00491Y006995
Y006945
Y006895
X005155Y00703
X005255
X00537Y007025
Y0072
X005257
X00555Y00717
X005565Y0070085
X00574Y007005
X005905Y007
X00587Y007175
X00573Y007165
X005545Y007365
X005615Y00751
X0056Y007625
X00571Y007565
X0057945Y0075045
X005805Y0076345
X00593Y00756
X00589Y00648
X005925Y006295
X005885Y00605
X005775Y00598
X005685Y00608
X005635Y00847
X00568Y00882
X005595Y009235
X00526Y00838
X00459Y00821
X0041815Y008265
X00399Y008055
X00386Y007775
X00381
X00376
Y00772
X00381
X00386
Y00767
X00381
X00376
X0035Y007725
Y007775
X003335Y007745
X00315Y00757
X00326Y007385
X003095Y008005
X00332Y00815
X003465Y008119
X00367Y00795
X00375Y00834
X00341Y00907
X0033Y00928
X00361Y00938
X003Y0094
X00287Y009275
X00285Y00895
X002815Y00861
X002705Y00868
X002805Y008195
X002895Y00816
Y0081
X002955
Y00816
X003015
Y0081
X00281Y00794
X002726Y007985
X002489
X0024135
X00241Y0079
X002174Y007985
X002015Y008015
X001942Y00811
X00189
Y008165
X001942
X00174Y0082
X00166Y00829
X00175Y00783
X00166Y00766
X0013045Y00769
X001305Y00774
X00141Y00781
X001365Y008015
X001145Y00792
X000945Y007875
X0009075Y007745
X00074Y00774
X00075Y00749
X000735Y00724
X00073Y0069755
X00091Y007075
Y00713
X00104Y0071875
X001015Y00745
X00104Y0076855
X001015Y008095
X00103Y00836
X00068Y00853
X00067Y00877
X000255Y008695
X000135Y008505
X000405Y008503
X00047Y008405
X000525
Y00834
X00047
X000485Y0082
X00048Y00812
X00049Y00794
X000485Y007825
X00047Y00763
X000465Y007455
X000305Y00749
X000185Y007495
X00019Y00774
X00014Y00799
X000355Y007995
X000335Y008245
X00022Y00826
X0001Y00825
X000695Y007995
X00083Y00799
X000455Y007185
Y00713
Y007075
Y00702
X000445Y006875
X00028Y007245
X00019Y006215
X00041Y006085
X00051Y00634
X00075Y005955
X00095Y00605
Y00613
X00113Y006445
X00118Y006585
X0013045Y00641
X00164Y00626499
X0017Y00631999
X001755Y00626499
X00181Y00631999
X001865Y006265
X001905Y00649
X001915Y00669
X002015
X00207Y006425
X00217Y0063145
X002245Y00649
X0024395Y006495
X00239Y00667
X002745Y00663
X00274499Y00655499
X00286Y0066
X003015Y00672
X00298Y00684
X0029695Y007085
X00267Y00707
X002535Y007245
Y00744
X0026Y00769
X00263Y00775
X002295Y007645
X00231Y007325
X002235Y007005
X00204Y007145
X00193Y007125
Y007345
X00186Y007405
X0019575Y00752
X00204Y0074615
X0019575Y007755
X00173Y007255
X0014Y00726
X001375Y00709
X001495Y007
X00118Y006925
X000915Y006725
X00139Y00593
X001635Y005965
X00164Y00589
X001755Y00594
X002165Y00599
X002305Y00612
X00202Y006145
X0025Y0063
X002775Y006065
X00286499Y00612999
X002925Y00608
X00287Y00737
X002185Y008565
X002065Y00871
X002015Y008965
X00201Y00911
X001965Y00922
X001835Y00921
X001495Y00922
X001375Y009495
X00085Y009455
X000945Y009165
X00059Y009305
X0011Y009795
X0019Y00958
X002275Y009375
X0022825Y008965
X002595Y009205
X002195Y00997
X00082Y009945
T03
X003664Y0018395
X0044905Y001835
X00266Y00376
X00241
X00216
X00191
X00121
X00096
X00071
X00046
X000895Y00456
X002125
X00461Y005275
Y00572
X005051Y003465
X005305
X005559
X005813
X003635Y00671
Y007725
X00316Y00818
Y00843
Y00868
Y00893
X00255
Y00868
Y00843
X002465Y007775
X00281
X00184Y00798
X00125Y00818
Y00843
Y00868
Y00893
X00176Y0071
T04
X005226Y00507
X00548
X005734
Y00535
X00548
X005226
Y00631
X00548
X005734
T05
X0050475Y0018
X0027675Y00036
X0003675
X0003375Y0018
Y00296
X0050475
T06
X00522Y00672
X00572
X00545Y008
X00495
T07
X0005575Y0024
X0025775
X0027675Y00973
X0003675
T08
X0042775Y0045
X0044675Y00895
M30
