G04 Layer_Color=65535*
%FSLAX44Y44*%
%MOMM*%
G71*
G01*
G75*
%ADD49C,0.2000*%
%ADD52C,0.1000*%
%ADD65C,0.2500*%
%ADD66C,0.4000*%
%ADD67C,0.6000*%
%ADD68C,0.1200*%
%ADD69C,0.1700*%
G36*
X490414Y110239D02*
X492475D01*
Y109896D01*
X493162D01*
Y109552D01*
X493506D01*
Y109209D01*
X493849D01*
Y108865D01*
X494193D01*
Y108522D01*
Y108179D01*
Y107835D01*
Y107492D01*
Y107148D01*
Y106805D01*
Y106461D01*
Y106118D01*
Y105774D01*
X493849D01*
Y105431D01*
X493506D01*
Y105087D01*
Y104744D01*
X492819D01*
Y104400D01*
X492475D01*
Y104057D01*
X492132D01*
Y103713D01*
X491445D01*
Y103370D01*
X490758D01*
Y103026D01*
X490071D01*
Y102683D01*
Y102339D01*
X490758D01*
Y101996D01*
X491101D01*
Y101652D01*
X491445D01*
Y101309D01*
X492132D01*
Y100966D01*
X492475D01*
Y100622D01*
X492819D01*
Y100279D01*
X493162D01*
Y99935D01*
X493849D01*
Y99592D01*
X494193D01*
Y99248D01*
X494880D01*
Y98905D01*
X495223D01*
Y98561D01*
X495566D01*
Y98218D01*
Y97874D01*
Y97531D01*
X495223D01*
Y97187D01*
X494536D01*
Y97531D01*
X493849D01*
Y97874D01*
X493162D01*
Y98218D01*
X492819D01*
Y98561D01*
X492132D01*
Y98905D01*
Y99248D01*
X491445D01*
Y99592D01*
X491101D01*
Y99935D01*
X490758D01*
Y100279D01*
X490414D01*
Y100622D01*
X489727D01*
Y100966D01*
X489384D01*
Y101309D01*
X489040D01*
Y101652D01*
X488697D01*
Y101996D01*
X488010D01*
Y102339D01*
X487323D01*
Y102683D01*
X486980D01*
Y103026D01*
Y103370D01*
X487323D01*
Y103713D01*
X489384D01*
Y104057D01*
X490071D01*
Y104400D01*
X490758D01*
Y104744D01*
X491101D01*
Y105087D01*
X491788D01*
Y105431D01*
X492132D01*
Y105774D01*
X492475D01*
Y106118D01*
Y106461D01*
X492819D01*
Y106805D01*
Y107148D01*
Y107492D01*
Y107835D01*
Y108179D01*
X492475D01*
Y108522D01*
X491788D01*
Y108865D01*
X491101D01*
Y109209D01*
X488010D01*
Y108865D01*
X486980D01*
Y108522D01*
Y108179D01*
X486636D01*
Y107835D01*
Y107492D01*
Y107148D01*
Y106805D01*
Y106461D01*
Y106118D01*
X486293D01*
Y105774D01*
Y105431D01*
Y105087D01*
Y104744D01*
Y104400D01*
X485949D01*
Y104057D01*
Y103713D01*
Y103370D01*
Y103026D01*
Y102683D01*
Y102339D01*
Y101996D01*
X485606D01*
Y101652D01*
Y101309D01*
Y100966D01*
Y100622D01*
Y100279D01*
Y99935D01*
Y99592D01*
Y99248D01*
Y98905D01*
Y98561D01*
Y98218D01*
X485949D01*
Y97874D01*
Y97531D01*
X485606D01*
Y97187D01*
X484232D01*
Y97531D01*
X483888D01*
Y97874D01*
Y98218D01*
Y98561D01*
Y98905D01*
Y99248D01*
Y99592D01*
Y99935D01*
Y100279D01*
Y100622D01*
Y100966D01*
X484232D01*
Y101309D01*
Y101652D01*
Y101996D01*
Y102339D01*
Y102683D01*
Y103026D01*
Y103370D01*
X484575D01*
Y103713D01*
Y104057D01*
X484232D01*
Y104400D01*
X484575D01*
Y104744D01*
Y105087D01*
Y105431D01*
Y105774D01*
Y106118D01*
X484919D01*
Y106461D01*
Y106805D01*
Y107148D01*
Y107492D01*
X485262D01*
Y107835D01*
Y108179D01*
Y108522D01*
Y108865D01*
X484919D01*
Y109209D01*
Y109552D01*
Y109896D01*
X485606D01*
Y110239D01*
X486293D01*
Y109896D01*
X486636D01*
Y110239D01*
X490071D01*
Y110583D01*
X490414D01*
Y110239D01*
D02*
G37*
G36*
X410385Y105087D02*
X410728D01*
Y104744D01*
Y104400D01*
Y104057D01*
Y103713D01*
X410385D01*
Y103370D01*
X409698D01*
Y103026D01*
X409354D01*
Y102683D01*
X409011D01*
Y102339D01*
X408667D01*
Y101996D01*
X408324D01*
Y101652D01*
X407980D01*
Y101309D01*
Y100966D01*
X407637D01*
Y100622D01*
X407294D01*
Y100279D01*
X406950D01*
Y99935D01*
X406606D01*
Y99592D01*
X406263D01*
Y99248D01*
X405920D01*
Y98905D01*
X405576D01*
Y98561D01*
Y98218D01*
X405233D01*
Y97874D01*
X404889D01*
Y97531D01*
X404546D01*
Y97187D01*
X404202D01*
Y96844D01*
X403859D01*
Y96500D01*
X403515D01*
Y96157D01*
X403172D01*
Y95813D01*
X402828D01*
Y95470D01*
X402485D01*
Y95126D01*
X402141D01*
Y94783D01*
X401798D01*
Y94440D01*
X401454D01*
Y94096D01*
X401111D01*
Y93753D01*
X400767D01*
Y93409D01*
X400424D01*
Y93066D01*
X400080D01*
Y92722D01*
X399737D01*
Y92379D01*
X399394D01*
Y92035D01*
X399050D01*
Y91692D01*
X398707D01*
Y91348D01*
X398363D01*
Y91005D01*
X398020D01*
Y90661D01*
X397676D01*
Y90318D01*
X397333D01*
Y89974D01*
X396989D01*
Y89631D01*
X396646D01*
Y89287D01*
Y88944D01*
X396989D01*
Y89287D01*
X400767D01*
Y89631D01*
X404889D01*
Y89974D01*
X406263D01*
Y89631D01*
X408667D01*
Y89287D01*
X409354D01*
Y88944D01*
Y88601D01*
X409698D01*
Y88257D01*
Y87914D01*
Y87570D01*
X409354D01*
Y87227D01*
X409011D01*
Y86883D01*
X407294D01*
Y87227D01*
X398020D01*
Y86883D01*
X394928D01*
Y86540D01*
X393554D01*
Y86196D01*
X391494D01*
Y86540D01*
X391150D01*
Y86883D01*
Y87227D01*
Y87570D01*
Y87914D01*
X391494D01*
Y88257D01*
Y88601D01*
X392181D01*
Y88944D01*
X392524D01*
Y89287D01*
X392868D01*
Y89631D01*
X393211D01*
Y89974D01*
X393898D01*
Y90318D01*
X394241D01*
Y90661D01*
X394585D01*
Y91005D01*
X394928D01*
Y91348D01*
X395272D01*
Y91692D01*
X395615D01*
Y92035D01*
X395959D01*
Y92379D01*
X396646D01*
Y92722D01*
X396989D01*
Y93066D01*
X397333D01*
Y93409D01*
X397676D01*
Y93753D01*
X398020D01*
Y94096D01*
X398363D01*
Y94440D01*
X398707D01*
Y94783D01*
Y95126D01*
X399394D01*
Y95470D01*
X399737D01*
Y95813D01*
Y96157D01*
X400424D01*
Y96500D01*
X400767D01*
Y96844D01*
Y97187D01*
X401454D01*
Y97531D01*
Y97874D01*
X401798D01*
Y98218D01*
X402485D01*
Y98561D01*
Y98905D01*
X402828D01*
Y99248D01*
X403172D01*
Y99592D01*
X403515D01*
Y99935D01*
X403859D01*
Y100279D01*
X404202D01*
Y100622D01*
X404889D01*
Y100966D01*
Y101309D01*
X405233D01*
Y101652D01*
X405576D01*
Y101996D01*
X405920D01*
Y102339D01*
X406263D01*
Y102683D01*
Y103026D01*
X404889D01*
Y102683D01*
X402141D01*
Y102339D01*
X396989D01*
Y101996D01*
X396302D01*
Y102339D01*
X394585D01*
Y102683D01*
X393898D01*
Y103026D01*
X393554D01*
Y103370D01*
Y103713D01*
Y104057D01*
X393898D01*
Y104400D01*
X394241D01*
Y104744D01*
X395959D01*
Y104400D01*
X400080D01*
Y104744D01*
X405576D01*
Y105087D01*
X407637D01*
Y105431D01*
X410385D01*
Y105087D01*
D02*
G37*
G36*
X424124Y137374D02*
X431337D01*
Y137030D01*
X434428D01*
Y136687D01*
X437176D01*
Y136343D01*
X439237D01*
Y136000D01*
X440954D01*
Y135656D01*
X441641D01*
Y135313D01*
X443015D01*
Y134970D01*
X443702D01*
Y134626D01*
X444732D01*
Y134283D01*
X445419D01*
Y133939D01*
X446106D01*
Y133596D01*
X446793D01*
Y133252D01*
X447823D01*
Y132909D01*
X448511D01*
Y132565D01*
X449197D01*
Y132222D01*
X449884D01*
Y131878D01*
X450571D01*
Y131535D01*
X450915D01*
Y131191D01*
X451602D01*
Y130848D01*
X452289D01*
Y130504D01*
X452976D01*
Y130161D01*
X453663D01*
Y129817D01*
X454006D01*
Y129474D01*
X454693D01*
Y129130D01*
X455380D01*
Y128787D01*
X456067D01*
Y128444D01*
X456754D01*
Y128100D01*
X457097D01*
Y127757D01*
X457784D01*
Y127413D01*
X458128D01*
Y127070D01*
X458815D01*
Y126726D01*
X459502D01*
Y126383D01*
X459845D01*
Y126039D01*
X460532D01*
Y125696D01*
X460876D01*
Y125352D01*
X461562D01*
Y125009D01*
X462249D01*
Y124665D01*
X462593D01*
Y124322D01*
X463280D01*
Y123978D01*
X463623D01*
Y123635D01*
X464310D01*
Y123291D01*
X464654D01*
Y122948D01*
X465341D01*
Y122605D01*
X466028D01*
Y122261D01*
X466371D01*
Y121917D01*
X467058D01*
Y121574D01*
X467402D01*
Y121231D01*
X475988D01*
Y120887D01*
X482514D01*
Y120544D01*
X487667D01*
Y120200D01*
X491101D01*
Y119857D01*
X492132D01*
Y119513D01*
X492819D01*
Y119170D01*
X493162D01*
Y118826D01*
X493506D01*
Y118483D01*
X493849D01*
Y118139D01*
X494193D01*
Y117796D01*
X494536D01*
Y117452D01*
Y117109D01*
X494880D01*
Y116765D01*
X495223D01*
Y116422D01*
X495566D01*
Y116079D01*
Y115735D01*
X495910D01*
Y115392D01*
Y115048D01*
X496254D01*
Y114705D01*
Y114361D01*
X494536D01*
Y114705D01*
Y115048D01*
X494193D01*
Y115392D01*
X493849D01*
Y115735D01*
Y116079D01*
X493506D01*
Y116422D01*
X493162D01*
Y116765D01*
Y117109D01*
X492819D01*
Y117452D01*
X492475D01*
Y117796D01*
X492132D01*
Y118139D01*
X491445D01*
Y118483D01*
X490414D01*
Y118826D01*
X488354D01*
Y119170D01*
X482171D01*
Y119513D01*
X475645D01*
Y119857D01*
X470149D01*
Y119513D01*
Y119170D01*
X471180D01*
Y118826D01*
X471523D01*
Y118483D01*
X472210D01*
Y118139D01*
X470836D01*
Y118483D01*
X470149D01*
Y118826D01*
X469119D01*
Y119170D01*
X468432D01*
Y119513D01*
X467402D01*
Y119857D01*
X466715D01*
Y120200D01*
X466028D01*
Y120544D01*
X465684D01*
Y120887D01*
X464997D01*
Y121231D01*
X464654D01*
Y121574D01*
X463967D01*
Y121917D01*
X463623D01*
Y122261D01*
X462936D01*
Y122605D01*
X462593D01*
Y122948D01*
X461906D01*
Y123291D01*
X461562D01*
Y123635D01*
X460876D01*
Y123978D01*
X460189D01*
Y124322D01*
X459845D01*
Y124665D01*
X459158D01*
Y125009D01*
X458815D01*
Y125352D01*
X458128D01*
Y125696D01*
X457441D01*
Y126039D01*
X457097D01*
Y126383D01*
X456410D01*
Y126726D01*
X456067D01*
Y127070D01*
X455380D01*
Y127413D01*
X454693D01*
Y127757D01*
X454006D01*
Y128100D01*
X453319D01*
Y128444D01*
X452976D01*
Y128787D01*
X452289D01*
Y129130D01*
X451602D01*
Y129474D01*
X450915D01*
Y129817D01*
X450228D01*
Y130161D01*
X449884D01*
Y130504D01*
X449197D01*
Y130848D01*
X448511D01*
Y131191D01*
X447823D01*
Y131535D01*
X447136D01*
Y131878D01*
X446450D01*
Y132222D01*
X445419D01*
Y132565D01*
X444732D01*
Y132909D01*
X444045D01*
Y133252D01*
X443015D01*
Y133596D01*
X442328D01*
Y133939D01*
X441297D01*
Y134283D01*
X440267D01*
Y134626D01*
X438893D01*
Y134970D01*
X437176D01*
Y135313D01*
X434085D01*
Y135656D01*
X430650D01*
Y136000D01*
X426185D01*
Y136343D01*
X404889D01*
Y136000D01*
X401111D01*
Y135656D01*
X398707D01*
Y135313D01*
X396302D01*
Y134970D01*
X394585D01*
Y134626D01*
X393211D01*
Y134283D01*
X391837D01*
Y133939D01*
X390807D01*
Y133596D01*
X389776D01*
Y133252D01*
X389089D01*
Y132909D01*
X388402D01*
Y132565D01*
X387372D01*
Y132222D01*
X386342D01*
Y131878D01*
X385655D01*
Y131535D01*
X384968D01*
Y131191D01*
X384281D01*
Y130848D01*
X383250D01*
Y130504D01*
X382563D01*
Y130161D01*
X381876D01*
Y129817D01*
X381189D01*
Y129474D01*
X380502D01*
Y129130D01*
X379815D01*
Y128787D01*
X379128D01*
Y128444D01*
X378442D01*
Y128100D01*
X377755D01*
Y127757D01*
X377068D01*
Y127413D01*
X376381D01*
Y127070D01*
X375694D01*
Y126726D01*
X375007D01*
Y126383D01*
X374320D01*
Y126039D01*
X373976D01*
Y125696D01*
X373289D01*
Y125352D01*
X372603D01*
Y125009D01*
X371916D01*
Y124665D01*
X371229D01*
Y124322D01*
X370542D01*
Y123978D01*
X369855D01*
Y123635D01*
X369511D01*
Y123291D01*
X368824D01*
Y122948D01*
X368137D01*
Y122605D01*
X367450D01*
Y122261D01*
X366763D01*
Y121917D01*
X366077D01*
Y121574D01*
X365733D01*
Y121231D01*
X365046D01*
Y120887D01*
X364359D01*
Y120544D01*
X363672D01*
Y120200D01*
X363329D01*
Y119857D01*
X362642D01*
Y119513D01*
X361955D01*
Y119170D01*
X361611D01*
Y118826D01*
X360924D01*
Y118483D01*
X360237D01*
Y118139D01*
X359550D01*
Y117796D01*
X359207D01*
Y117452D01*
X358520D01*
Y117109D01*
Y116765D01*
X358863D01*
Y116422D01*
X359207D01*
Y116079D01*
Y115735D01*
X359550D01*
Y115392D01*
Y115048D01*
X359894D01*
Y114705D01*
Y114361D01*
X360237D01*
Y114018D01*
Y113674D01*
X360581D01*
Y113331D01*
X359894D01*
Y113674D01*
X359550D01*
Y114018D01*
X359207D01*
Y114361D01*
X358863D01*
Y114705D01*
Y115048D01*
X358520D01*
Y115392D01*
X358177D01*
Y115735D01*
X357833D01*
Y116079D01*
X357490D01*
Y116422D01*
X357146D01*
Y116765D01*
X356803D01*
Y117109D01*
X354398D01*
Y117452D01*
X347185D01*
Y117109D01*
X339285D01*
Y116765D01*
X335507D01*
Y116422D01*
X331729D01*
Y116079D01*
X329325D01*
Y115735D01*
X327264D01*
Y115392D01*
X324860D01*
Y115048D01*
X323142D01*
Y114705D01*
X321768D01*
Y114361D01*
X320394D01*
Y114018D01*
X319364D01*
Y113674D01*
X318677D01*
Y113331D01*
X317647D01*
Y112987D01*
X317303D01*
Y112644D01*
X316616D01*
Y112300D01*
Y111957D01*
Y111613D01*
Y111270D01*
X315929D01*
Y110926D01*
X314899D01*
Y110583D01*
X313868D01*
Y110239D01*
X313181D01*
Y109896D01*
X311807D01*
Y109552D01*
X310777D01*
Y109209D01*
X309747D01*
Y108865D01*
X308373D01*
Y108522D01*
X307686D01*
Y108179D01*
X306312D01*
Y107835D01*
X305625D01*
Y107492D01*
X304594D01*
Y107148D01*
X303564D01*
Y106805D01*
X302877D01*
Y106461D01*
X302190D01*
Y106118D01*
X301847D01*
Y105774D01*
X301160D01*
Y105431D01*
X300816D01*
Y105087D01*
X300129D01*
Y104744D01*
X299786D01*
Y104400D01*
X299442D01*
Y104057D01*
Y103713D01*
X299099D01*
Y103370D01*
X298755D01*
Y103026D01*
X298412D01*
Y102683D01*
Y102339D01*
X298068D01*
Y101996D01*
Y101652D01*
Y101309D01*
Y100966D01*
Y100622D01*
X297725D01*
Y100279D01*
Y99935D01*
Y99592D01*
Y99248D01*
X298068D01*
Y98905D01*
X295321D01*
Y98561D01*
X294634D01*
Y98218D01*
X294290D01*
Y97874D01*
X293603D01*
Y97531D01*
Y97187D01*
X293260D01*
Y96844D01*
Y96500D01*
X292916D01*
Y96157D01*
Y95813D01*
X293260D01*
Y95470D01*
X292916D01*
Y95126D01*
Y94783D01*
Y94440D01*
X293260D01*
Y94096D01*
X292916D01*
Y93753D01*
Y93409D01*
Y93066D01*
X293260D01*
Y92722D01*
Y92379D01*
Y92035D01*
X293603D01*
Y91692D01*
Y91348D01*
Y91005D01*
X293947D01*
Y90661D01*
Y90318D01*
Y89974D01*
Y89631D01*
X294290D01*
Y89287D01*
Y88944D01*
Y88601D01*
X294634D01*
Y88257D01*
Y87914D01*
Y87570D01*
Y87227D01*
X294977D01*
Y86883D01*
Y86540D01*
Y86196D01*
Y85853D01*
Y85509D01*
X295321D01*
Y85166D01*
Y84822D01*
X295664D01*
Y84479D01*
X293947D01*
Y84822D01*
Y85166D01*
Y85509D01*
Y85853D01*
X293603D01*
Y86196D01*
Y86540D01*
Y86883D01*
X293260D01*
Y87227D01*
Y87570D01*
Y87914D01*
X292916D01*
Y88257D01*
Y88601D01*
Y88944D01*
Y89287D01*
Y89631D01*
X292573D01*
Y89974D01*
Y90318D01*
Y90661D01*
X292229D01*
Y91005D01*
Y91348D01*
Y91692D01*
X291886D01*
Y92035D01*
Y92379D01*
Y92722D01*
Y93066D01*
Y93409D01*
Y93753D01*
Y94096D01*
X291542D01*
Y94440D01*
Y94783D01*
Y95126D01*
Y95470D01*
X291886D01*
Y95813D01*
Y96157D01*
Y96500D01*
Y96844D01*
Y97187D01*
Y97531D01*
Y97874D01*
X292229D01*
Y98218D01*
Y98561D01*
X292573D01*
Y98905D01*
X292916D01*
Y99248D01*
X293260D01*
Y99592D01*
X293603D01*
Y99935D01*
X294634D01*
Y100279D01*
X296695D01*
Y100622D01*
Y100966D01*
Y101309D01*
Y101652D01*
Y101996D01*
Y102339D01*
X297038D01*
Y102683D01*
Y103026D01*
Y103370D01*
X297381D01*
Y103713D01*
Y104057D01*
X297725D01*
Y104400D01*
Y104744D01*
X298068D01*
Y105087D01*
X298412D01*
Y105431D01*
X298755D01*
Y105774D01*
X299099D01*
Y106118D01*
X299442D01*
Y106461D01*
X300129D01*
Y106805D01*
X300473D01*
Y107148D01*
X301160D01*
Y107492D01*
X301503D01*
Y107835D01*
X302190D01*
Y108179D01*
X303221D01*
Y108522D01*
X303908D01*
Y108865D01*
X304938D01*
Y109209D01*
X305625D01*
Y109552D01*
X306999D01*
Y109896D01*
X308029D01*
Y110239D01*
X309060D01*
Y110583D01*
X310434D01*
Y110926D01*
X311464D01*
Y111270D01*
X312494D01*
Y111613D01*
X313525D01*
Y111957D01*
X314555D01*
Y112300D01*
X315242D01*
Y112644D01*
Y112987D01*
Y113331D01*
X315586D01*
Y113674D01*
X315929D01*
Y114018D01*
X316616D01*
Y114361D01*
X316960D01*
Y114705D01*
X317990D01*
Y115048D01*
X318677D01*
Y115392D01*
X320051D01*
Y115735D01*
X321425D01*
Y116079D01*
X322799D01*
Y116422D01*
X324860D01*
Y116765D01*
X326920D01*
Y117109D01*
X328981D01*
Y117452D01*
X332072D01*
Y117796D01*
X335164D01*
Y118139D01*
X338942D01*
Y118483D01*
X346842D01*
Y118826D01*
X354742D01*
Y118483D01*
X357833D01*
Y118826D01*
X358520D01*
Y119170D01*
X358863D01*
Y119513D01*
X359550D01*
Y119857D01*
X360237D01*
Y120200D01*
X360581D01*
Y120544D01*
X361268D01*
Y120887D01*
X361955D01*
Y121231D01*
X362642D01*
Y121574D01*
X362985D01*
Y121917D01*
X363672D01*
Y122261D01*
X364359D01*
Y122605D01*
X365046D01*
Y122948D01*
X365390D01*
Y123291D01*
X366077D01*
Y123635D01*
X366763D01*
Y123978D01*
X367450D01*
Y124322D01*
X368137D01*
Y124665D01*
X368824D01*
Y125009D01*
X369168D01*
Y125352D01*
X369855D01*
Y125696D01*
X370542D01*
Y126039D01*
X371229D01*
Y126383D01*
X371916D01*
Y126726D01*
X372603D01*
Y127070D01*
X372946D01*
Y127413D01*
X373633D01*
Y127757D01*
X374320D01*
Y128100D01*
X375007D01*
Y128444D01*
X375694D01*
Y128787D01*
X376381D01*
Y129130D01*
X377068D01*
Y129474D01*
X377755D01*
Y129817D01*
X378442D01*
Y130161D01*
X379128D01*
Y130504D01*
X379815D01*
Y130848D01*
X380502D01*
Y131191D01*
X381189D01*
Y131535D01*
X381876D01*
Y131878D01*
X382563D01*
Y132222D01*
X383250D01*
Y132565D01*
X384281D01*
Y132909D01*
X384968D01*
Y133252D01*
X385998D01*
Y133596D01*
X387028D01*
Y133939D01*
X387715D01*
Y134283D01*
X388402D01*
Y134626D01*
X389433D01*
Y134970D01*
X390120D01*
Y135313D01*
X391494D01*
Y135656D01*
X392524D01*
Y136000D01*
X393898D01*
Y136343D01*
X396302D01*
Y136687D01*
X398020D01*
Y137030D01*
X400767D01*
Y137374D01*
X406263D01*
Y137717D01*
X424124D01*
Y137374D01*
D02*
G37*
G36*
X347684Y169694D02*
Y168925D01*
Y168155D01*
Y167386D01*
Y166616D01*
Y165847D01*
Y165078D01*
Y164308D01*
Y163539D01*
Y162769D01*
Y162000D01*
Y161231D01*
Y160461D01*
Y159692D01*
Y158922D01*
Y158153D01*
Y157383D01*
Y156614D01*
Y155845D01*
Y155075D01*
Y154306D01*
Y153536D01*
X346915D01*
Y152767D01*
Y151997D01*
X346146D01*
Y151228D01*
X344607D01*
Y150459D01*
X343068D01*
Y151228D01*
Y151997D01*
X344607D01*
Y152767D01*
X345376D01*
Y153536D01*
Y154306D01*
X346146D01*
Y155075D01*
Y155845D01*
Y156614D01*
Y157383D01*
Y158153D01*
Y158922D01*
Y159692D01*
Y160461D01*
Y161231D01*
Y162000D01*
Y162769D01*
Y163539D01*
Y164308D01*
Y165078D01*
Y165847D01*
Y166616D01*
Y167386D01*
Y168155D01*
Y168925D01*
Y169694D01*
X345376D01*
Y170464D01*
X347684D01*
Y169694D01*
D02*
G37*
G36*
X336143D02*
Y168925D01*
Y168155D01*
Y167386D01*
Y166616D01*
Y165847D01*
Y165078D01*
Y164308D01*
Y163539D01*
Y162769D01*
Y162000D01*
Y161231D01*
Y160461D01*
Y159692D01*
Y158922D01*
Y158153D01*
Y157383D01*
Y156614D01*
Y155845D01*
Y155075D01*
Y154306D01*
Y153536D01*
Y152767D01*
Y151997D01*
Y151228D01*
Y150459D01*
Y149689D01*
Y148920D01*
Y148150D01*
Y147381D01*
Y146612D01*
Y145842D01*
Y145073D01*
Y144303D01*
Y143534D01*
Y142765D01*
Y141995D01*
Y141226D01*
Y140456D01*
Y139687D01*
Y138917D01*
X333835D01*
Y139687D01*
Y140456D01*
Y141226D01*
Y141995D01*
Y142765D01*
Y143534D01*
Y144303D01*
Y145073D01*
Y145842D01*
Y146612D01*
Y147381D01*
Y148150D01*
Y148920D01*
Y149689D01*
Y150459D01*
Y151228D01*
Y151997D01*
Y152767D01*
Y153536D01*
Y154306D01*
Y155075D01*
Y155845D01*
Y156614D01*
Y157383D01*
Y158153D01*
Y158922D01*
Y159692D01*
Y160461D01*
Y161231D01*
Y162000D01*
Y162769D01*
Y163539D01*
Y164308D01*
Y165078D01*
Y165847D01*
Y166616D01*
Y167386D01*
Y168155D01*
Y168925D01*
Y169694D01*
Y170464D01*
X336143D01*
Y169694D01*
D02*
G37*
G36*
X335851Y111270D02*
X337225D01*
Y110926D01*
X338255D01*
Y110583D01*
X338942D01*
Y110239D01*
X339629D01*
Y109896D01*
X340316D01*
Y109552D01*
X341003D01*
Y109209D01*
X341346D01*
Y108865D01*
X341690D01*
Y108522D01*
X342377D01*
Y108179D01*
X342720D01*
Y107835D01*
X343064D01*
Y107492D01*
X343407D01*
Y107148D01*
Y106805D01*
X343751D01*
Y106461D01*
X344094D01*
Y106118D01*
X344438D01*
Y105774D01*
X344781D01*
Y105431D01*
Y105087D01*
Y104744D01*
X345125D01*
Y104400D01*
Y104057D01*
X345468D01*
Y103713D01*
Y103370D01*
Y103026D01*
Y102683D01*
Y102339D01*
Y101996D01*
Y101652D01*
Y101309D01*
Y100966D01*
X345125D01*
Y100622D01*
Y100279D01*
X344781D01*
Y99935D01*
X344094D01*
Y99592D01*
X342033D01*
Y99935D01*
X341346D01*
Y100279D01*
X341003D01*
Y100622D01*
Y100966D01*
X340659D01*
Y101309D01*
X340316D01*
Y101652D01*
Y101996D01*
Y102339D01*
X339972D01*
Y102683D01*
X339629D01*
Y103026D01*
X339285D01*
Y103370D01*
Y103713D01*
X338942D01*
Y104057D01*
X338599D01*
Y104400D01*
Y104744D01*
X338255D01*
Y105087D01*
X337911D01*
Y105431D01*
X337225D01*
Y105774D01*
X336881D01*
Y106118D01*
X336194D01*
Y106461D01*
X335507D01*
Y106805D01*
X334133D01*
Y107148D01*
X330699D01*
Y106805D01*
X329668D01*
Y106461D01*
X328638D01*
Y106118D01*
X328294D01*
Y105774D01*
X327607D01*
Y105431D01*
X327264D01*
Y105087D01*
X326920D01*
Y104744D01*
X326577D01*
Y104400D01*
X326233D01*
Y104057D01*
X325890D01*
Y103713D01*
X325546D01*
Y103370D01*
X325203D01*
Y103026D01*
Y102683D01*
X324860D01*
Y102339D01*
Y101996D01*
X324516D01*
Y101652D01*
Y101309D01*
X324173D01*
Y100966D01*
Y100622D01*
Y100279D01*
X323829D01*
Y99935D01*
Y99592D01*
Y99248D01*
Y98905D01*
X323486D01*
Y98561D01*
Y98218D01*
Y97874D01*
Y97531D01*
Y97187D01*
Y96844D01*
Y96500D01*
Y96157D01*
Y95813D01*
Y95470D01*
Y95126D01*
Y94783D01*
Y94440D01*
Y94096D01*
Y93753D01*
Y93409D01*
Y93066D01*
Y92722D01*
Y92379D01*
Y92035D01*
Y91692D01*
Y91348D01*
Y91005D01*
X323829D01*
Y90661D01*
Y90318D01*
Y89974D01*
Y89631D01*
X324173D01*
Y89287D01*
Y88944D01*
Y88601D01*
X324516D01*
Y88257D01*
Y87914D01*
Y87570D01*
X324860D01*
Y87227D01*
X325203D01*
Y86883D01*
Y86540D01*
X325546D01*
Y86196D01*
X325890D01*
Y85853D01*
X326233D01*
Y85509D01*
X326577D01*
Y85166D01*
X326920D01*
Y84822D01*
X327264D01*
Y84479D01*
X327951D01*
Y84135D01*
X328638D01*
Y83792D01*
X329668D01*
Y83448D01*
X335164D01*
Y83792D01*
X336194D01*
Y84135D01*
X336538D01*
Y84479D01*
X337225D01*
Y84822D01*
X337568D01*
Y85166D01*
X337911D01*
Y85509D01*
X338255D01*
Y85853D01*
X338942D01*
Y86196D01*
Y86540D01*
X339285D01*
Y86883D01*
Y87227D01*
X339629D01*
Y87570D01*
X339972D01*
Y87914D01*
Y88257D01*
Y88601D01*
X340316D01*
Y88944D01*
Y89287D01*
X340659D01*
Y89631D01*
Y89974D01*
X341003D01*
Y90318D01*
Y90661D01*
X341346D01*
Y91005D01*
X341690D01*
Y91348D01*
X342033D01*
Y91692D01*
X344094D01*
Y91348D01*
X344781D01*
Y91005D01*
X345125D01*
Y90661D01*
X345468D01*
Y90318D01*
Y89974D01*
Y89631D01*
X345811D01*
Y89287D01*
Y88944D01*
Y88601D01*
X345468D01*
Y88257D01*
Y87914D01*
Y87570D01*
Y87227D01*
Y86883D01*
X345125D01*
Y86540D01*
Y86196D01*
X344781D01*
Y85853D01*
Y85509D01*
Y85166D01*
X344438D01*
Y84822D01*
Y84479D01*
X344094D01*
Y84135D01*
X343751D01*
Y83792D01*
Y83448D01*
X343407D01*
Y83105D01*
X343064D01*
Y82761D01*
X342720D01*
Y82418D01*
X342377D01*
Y82074D01*
X342033D01*
Y81731D01*
X341690D01*
Y81388D01*
X341346D01*
Y81044D01*
X340659D01*
Y80701D01*
X340316D01*
Y80357D01*
X339629D01*
Y80014D01*
X338942D01*
Y79670D01*
X338255D01*
Y79327D01*
X337225D01*
Y78983D01*
X335851D01*
Y78640D01*
X328981D01*
Y78983D01*
X327607D01*
Y79327D01*
X326577D01*
Y79670D01*
X325546D01*
Y80014D01*
X324860D01*
Y80357D01*
X324173D01*
Y80701D01*
X323829D01*
Y81044D01*
X323142D01*
Y81388D01*
X322799D01*
Y81731D01*
X322455D01*
Y82074D01*
X322112D01*
Y82418D01*
X321768D01*
Y82761D01*
X321425D01*
Y83105D01*
X321081D01*
Y83448D01*
X320738D01*
Y83792D01*
Y84135D01*
X320394D01*
Y84479D01*
X320051D01*
Y84822D01*
Y85166D01*
X319707D01*
Y85509D01*
Y85853D01*
X319364D01*
Y86196D01*
X319020D01*
Y86540D01*
Y86883D01*
Y87227D01*
X318677D01*
Y87570D01*
Y87914D01*
X318333D01*
Y88257D01*
Y88601D01*
X317990D01*
Y88944D01*
Y89287D01*
Y89631D01*
Y89974D01*
Y90318D01*
X317647D01*
Y90661D01*
Y91005D01*
Y91348D01*
Y91692D01*
X317303D01*
Y92035D01*
Y92379D01*
Y92722D01*
Y93066D01*
Y93409D01*
Y93753D01*
Y94096D01*
Y94440D01*
Y94783D01*
Y95126D01*
Y95470D01*
Y95813D01*
Y96157D01*
Y96500D01*
Y96844D01*
Y97187D01*
Y97531D01*
Y97874D01*
Y98218D01*
Y98561D01*
X317647D01*
Y98905D01*
Y99248D01*
Y99592D01*
Y99935D01*
Y100279D01*
X317990D01*
Y100622D01*
Y100966D01*
Y101309D01*
Y101652D01*
X318333D01*
Y101996D01*
Y102339D01*
X318677D01*
Y102683D01*
Y103026D01*
Y103370D01*
X319020D01*
Y103713D01*
Y104057D01*
X319364D01*
Y104400D01*
Y104744D01*
X319707D01*
Y105087D01*
X320051D01*
Y105431D01*
Y105774D01*
X320394D01*
Y106118D01*
X320738D01*
Y106461D01*
Y106805D01*
X321081D01*
Y107148D01*
X321425D01*
Y107492D01*
X321768D01*
Y107835D01*
X322112D01*
Y108179D01*
X322455D01*
Y108522D01*
X323142D01*
Y108865D01*
X323486D01*
Y109209D01*
X324173D01*
Y109552D01*
X324516D01*
Y109896D01*
X325203D01*
Y110239D01*
X325890D01*
Y110583D01*
X326577D01*
Y110926D01*
X327607D01*
Y111270D01*
X329325D01*
Y111613D01*
X335851D01*
Y111270D01*
D02*
G37*
G36*
X360237Y105431D02*
X362985D01*
Y105087D01*
X363672D01*
Y104744D01*
X364359D01*
Y104400D01*
X364703D01*
Y104057D01*
X365046D01*
Y103713D01*
X365390D01*
Y103370D01*
Y103026D01*
X365733D01*
Y102683D01*
X366077D01*
Y102339D01*
Y101996D01*
Y101652D01*
Y101309D01*
Y100966D01*
Y100622D01*
Y100279D01*
Y99935D01*
Y99592D01*
Y99248D01*
X365733D01*
Y98905D01*
Y98561D01*
X365390D01*
Y98218D01*
X365046D01*
Y97874D01*
Y97531D01*
X364703D01*
Y97187D01*
X364359D01*
Y96844D01*
X363672D01*
Y96500D01*
X363329D01*
Y96157D01*
X362985D01*
Y95813D01*
X362642D01*
Y95470D01*
X361955D01*
Y95126D01*
X361268D01*
Y94783D01*
X360581D01*
Y94440D01*
X360237D01*
Y94096D01*
Y93753D01*
X360581D01*
Y93409D01*
X360924D01*
Y93066D01*
X361611D01*
Y92722D01*
X361955D01*
Y92379D01*
X362298D01*
Y92035D01*
X362642D01*
Y91692D01*
X363329D01*
Y91348D01*
X363672D01*
Y91005D01*
X364016D01*
Y90661D01*
X364359D01*
Y90318D01*
X365046D01*
Y89974D01*
X365390D01*
Y89631D01*
X366077D01*
Y89287D01*
X366420D01*
Y88944D01*
X367107D01*
Y88601D01*
X367450D01*
Y88257D01*
X367794D01*
Y87914D01*
Y87570D01*
Y87227D01*
Y86883D01*
Y86540D01*
X367107D01*
Y86196D01*
X365733D01*
Y86540D01*
X365046D01*
Y86883D01*
X364703D01*
Y87227D01*
X364359D01*
Y87570D01*
X363672D01*
Y87914D01*
X363329D01*
Y88257D01*
X362985D01*
Y88601D01*
X362298D01*
Y88944D01*
X361955D01*
Y89287D01*
X361611D01*
Y89631D01*
X361268D01*
Y89974D01*
X360924D01*
Y90318D01*
X360237D01*
Y90661D01*
X359894D01*
Y91005D01*
X359550D01*
Y91348D01*
X359207D01*
Y91692D01*
X358863D01*
Y92035D01*
X358520D01*
Y92379D01*
X357833D01*
Y92722D01*
X357490D01*
Y93066D01*
X357146D01*
Y93409D01*
X356459D01*
Y93753D01*
X355429D01*
Y94096D01*
Y94440D01*
Y94783D01*
Y95126D01*
Y95470D01*
X355772D01*
Y95813D01*
X358520D01*
Y96157D01*
X359550D01*
Y96500D01*
X360237D01*
Y96844D01*
X360581D01*
Y97187D01*
X361268D01*
Y97531D01*
X361611D01*
Y97874D01*
X361955D01*
Y98218D01*
X362298D01*
Y98561D01*
X362985D01*
Y98905D01*
Y99248D01*
X363329D01*
Y99592D01*
Y99935D01*
X363672D01*
Y100279D01*
Y100622D01*
Y100966D01*
Y101309D01*
Y101652D01*
Y101996D01*
X363329D01*
Y102339D01*
X362985D01*
Y102683D01*
X362642D01*
Y103026D01*
X361955D01*
Y103370D01*
X356116D01*
Y103026D01*
X355429D01*
Y102683D01*
Y102339D01*
Y101996D01*
X355085D01*
Y101652D01*
Y101309D01*
Y100966D01*
Y100622D01*
Y100279D01*
X354742D01*
Y99935D01*
Y99592D01*
Y99248D01*
Y98905D01*
X354398D01*
Y98561D01*
Y98218D01*
Y97874D01*
Y97531D01*
Y97187D01*
Y96844D01*
Y96500D01*
Y96157D01*
Y95813D01*
X354055D01*
Y95470D01*
Y95126D01*
Y94783D01*
Y94440D01*
Y94096D01*
Y93753D01*
X353711D01*
Y93409D01*
Y93066D01*
Y92722D01*
Y92379D01*
Y92035D01*
Y91692D01*
Y91348D01*
Y91005D01*
Y90661D01*
Y90318D01*
Y89974D01*
Y89631D01*
Y89287D01*
Y88944D01*
Y88601D01*
Y88257D01*
Y87914D01*
Y87570D01*
Y87227D01*
Y86883D01*
Y86540D01*
X353368D01*
Y86196D01*
X353024D01*
Y85853D01*
X351307D01*
Y86196D01*
X350964D01*
Y86540D01*
Y86883D01*
Y87227D01*
X350620D01*
Y87570D01*
Y87914D01*
Y88257D01*
Y88601D01*
Y88944D01*
Y89287D01*
Y89631D01*
Y89974D01*
Y90318D01*
Y90661D01*
X350964D01*
Y91005D01*
Y91348D01*
Y91692D01*
Y92035D01*
Y92379D01*
Y92722D01*
Y93066D01*
Y93409D01*
Y93753D01*
X351307D01*
Y94096D01*
Y94440D01*
X350964D01*
Y94783D01*
X351307D01*
Y95126D01*
Y95470D01*
Y95813D01*
Y96157D01*
Y96500D01*
Y96844D01*
X351651D01*
Y97187D01*
Y97531D01*
Y97874D01*
Y98218D01*
Y98561D01*
X351994D01*
Y98905D01*
Y99248D01*
Y99592D01*
Y99935D01*
X352337D01*
Y100279D01*
X351994D01*
Y100622D01*
X352337D01*
Y100966D01*
Y101309D01*
Y101652D01*
Y101996D01*
Y102339D01*
Y102683D01*
Y103026D01*
X351994D01*
Y103370D01*
Y103713D01*
Y104057D01*
Y104400D01*
X352337D01*
Y104744D01*
X353024D01*
Y105087D01*
X356116D01*
Y105431D01*
X359894D01*
Y105774D01*
X360237D01*
Y105431D01*
D02*
G37*
G36*
X381189D02*
X381533D01*
Y105087D01*
X381876D01*
Y104744D01*
Y104400D01*
Y104057D01*
X381533D01*
Y103713D01*
Y103370D01*
X381876D01*
Y103026D01*
Y102683D01*
Y102339D01*
X382220D01*
Y101996D01*
Y101652D01*
X382563D01*
Y101309D01*
Y100966D01*
Y100622D01*
Y100279D01*
X382907D01*
Y99935D01*
Y99592D01*
X383250D01*
Y99248D01*
Y98905D01*
Y98561D01*
X383594D01*
Y98218D01*
Y97874D01*
Y97531D01*
X383937D01*
Y97187D01*
Y96844D01*
Y96500D01*
X384281D01*
Y96157D01*
Y95813D01*
X384624D01*
Y95470D01*
Y95126D01*
Y94783D01*
Y94440D01*
X384968D01*
Y94096D01*
Y93753D01*
X385311D01*
Y93409D01*
Y93066D01*
X385655D01*
Y92722D01*
Y92379D01*
X385998D01*
Y92035D01*
Y91692D01*
X386342D01*
Y91348D01*
Y91005D01*
X386685D01*
Y90661D01*
Y90318D01*
X387028D01*
Y89974D01*
X387372D01*
Y89631D01*
X387715D01*
Y89287D01*
Y88944D01*
X388059D01*
Y88601D01*
X388402D01*
Y88257D01*
X388746D01*
Y87914D01*
X389089D01*
Y87570D01*
X389433D01*
Y87227D01*
Y86883D01*
Y86540D01*
X389089D01*
Y86196D01*
X388746D01*
Y85853D01*
X388402D01*
Y85509D01*
X387372D01*
Y85853D01*
X386685D01*
Y86196D01*
X386342D01*
Y86540D01*
X385998D01*
Y86883D01*
X385655D01*
Y87227D01*
X385311D01*
Y87570D01*
X384968D01*
Y87914D01*
Y88257D01*
X384624D01*
Y88601D01*
Y88944D01*
X384281D01*
Y89287D01*
Y89631D01*
X383937D01*
Y89974D01*
Y90318D01*
X383594D01*
Y90661D01*
Y91005D01*
X383250D01*
Y91348D01*
Y91692D01*
Y92035D01*
Y92379D01*
X380846D01*
Y92035D01*
X379472D01*
Y91692D01*
X378098D01*
Y91348D01*
X376381D01*
Y91005D01*
X375350D01*
Y90661D01*
X374320D01*
Y91005D01*
X373633D01*
Y90661D01*
Y90318D01*
X373289D01*
Y89974D01*
Y89631D01*
X372946D01*
Y89287D01*
X372603D01*
Y88944D01*
Y88601D01*
X372259D01*
Y88257D01*
Y87914D01*
X371916D01*
Y87570D01*
X371572D01*
Y87227D01*
Y86883D01*
X371229D01*
Y86540D01*
X370885D01*
Y86196D01*
X369511D01*
Y86540D01*
X368824D01*
Y86883D01*
Y87227D01*
Y87570D01*
Y87914D01*
Y88257D01*
X369168D01*
Y88601D01*
Y88944D01*
X369511D01*
Y89287D01*
Y89631D01*
X369855D01*
Y89974D01*
X370198D01*
Y90318D01*
Y90661D01*
X370542D01*
Y91005D01*
X370885D01*
Y91348D01*
Y91692D01*
X371229D01*
Y92035D01*
Y92379D01*
X371572D01*
Y92722D01*
X371916D01*
Y93066D01*
X372259D01*
Y93409D01*
Y93753D01*
X372603D01*
Y94096D01*
Y94440D01*
X372946D01*
Y94783D01*
X373289D01*
Y95126D01*
Y95470D01*
X373633D01*
Y95813D01*
X373976D01*
Y96157D01*
Y96500D01*
X374320D01*
Y96844D01*
Y97187D01*
X374663D01*
Y97531D01*
Y97874D01*
X375007D01*
Y98218D01*
X375350D01*
Y98561D01*
Y98905D01*
X375694D01*
Y99248D01*
Y99592D01*
X376037D01*
Y99935D01*
Y100279D01*
X376381D01*
Y100622D01*
X376724D01*
Y100966D01*
Y101309D01*
X377068D01*
Y101652D01*
Y101996D01*
X377411D01*
Y102339D01*
Y102683D01*
X377755D01*
Y103026D01*
X378098D01*
Y103370D01*
Y103713D01*
X378442D01*
Y104057D01*
Y104400D01*
X378785D01*
Y104744D01*
Y105087D01*
X379128D01*
Y105431D01*
X379815D01*
Y105774D01*
X381189D01*
Y105431D01*
D02*
G37*
G36*
X476675Y109896D02*
Y109552D01*
Y109209D01*
Y108865D01*
Y108522D01*
X477019D01*
Y108179D01*
Y107835D01*
Y107492D01*
Y107148D01*
X477362D01*
Y106805D01*
Y106461D01*
X477706D01*
Y106118D01*
Y105774D01*
Y105431D01*
X478049D01*
Y105087D01*
Y104744D01*
Y104400D01*
X478393D01*
Y104057D01*
Y103713D01*
Y103370D01*
X478736D01*
Y103026D01*
Y102683D01*
X479080D01*
Y102339D01*
Y101996D01*
X479423D01*
Y101652D01*
Y101309D01*
X479767D01*
Y100966D01*
Y100622D01*
X480110D01*
Y100279D01*
Y99935D01*
X480454D01*
Y99592D01*
X480797D01*
Y99248D01*
Y98905D01*
X481141D01*
Y98561D01*
X481484D01*
Y98218D01*
X481828D01*
Y97874D01*
Y97531D01*
Y97187D01*
X481484D01*
Y96844D01*
X480454D01*
Y97187D01*
X480110D01*
Y97531D01*
X479767D01*
Y97874D01*
X479423D01*
Y98218D01*
X479080D01*
Y98561D01*
Y98905D01*
X478736D01*
Y99248D01*
X478393D01*
Y99592D01*
Y99935D01*
Y100279D01*
X478049D01*
Y100622D01*
Y100966D01*
X477706D01*
Y101309D01*
Y101652D01*
X477019D01*
Y101309D01*
X474614D01*
Y100966D01*
X473584D01*
Y100622D01*
X472210D01*
Y100279D01*
X471867D01*
Y100622D01*
X471180D01*
Y100279D01*
X470836D01*
Y99935D01*
Y99592D01*
X470493D01*
Y99248D01*
Y98905D01*
X470149D01*
Y98561D01*
Y98218D01*
X469806D01*
Y97874D01*
X469462D01*
Y97531D01*
X469119D01*
Y97187D01*
X468775D01*
Y97531D01*
X468088D01*
Y97874D01*
X467745D01*
Y98218D01*
X468088D01*
Y98561D01*
Y98905D01*
X468432D01*
Y99248D01*
X468775D01*
Y99592D01*
Y99935D01*
X469119D01*
Y100279D01*
Y100622D01*
X469462D01*
Y100966D01*
X469806D01*
Y101309D01*
Y101652D01*
X470149D01*
Y101996D01*
X470493D01*
Y102339D01*
Y102683D01*
X470836D01*
Y103026D01*
X471180D01*
Y103370D01*
Y103713D01*
X471523D01*
Y104057D01*
Y104400D01*
X471867D01*
Y104744D01*
X472210D01*
Y105087D01*
Y105431D01*
X472554D01*
Y105774D01*
Y106118D01*
X472897D01*
Y106461D01*
Y106805D01*
X473241D01*
Y107148D01*
Y107492D01*
X473584D01*
Y107835D01*
X473928D01*
Y108179D01*
Y108522D01*
X474271D01*
Y108865D01*
Y109209D01*
X474614D01*
Y109552D01*
Y109896D01*
X474958D01*
Y110239D01*
X476675D01*
Y109896D01*
D02*
G37*
G36*
X454693Y111270D02*
X456754D01*
Y110926D01*
X457784D01*
Y110583D01*
X458471D01*
Y110239D01*
X459158D01*
Y109896D01*
X459845D01*
Y109552D01*
X460532D01*
Y109209D01*
X460876D01*
Y108865D01*
X461562D01*
Y108522D01*
X461906D01*
Y108179D01*
X462249D01*
Y107835D01*
X462593D01*
Y107492D01*
X462936D01*
Y107148D01*
X463280D01*
Y106805D01*
X463623D01*
Y106461D01*
X463967D01*
Y106118D01*
Y105774D01*
X464310D01*
Y105431D01*
X464654D01*
Y105087D01*
Y104744D01*
X464997D01*
Y104400D01*
Y104057D01*
Y103713D01*
X465341D01*
Y103370D01*
Y103026D01*
Y102683D01*
Y102339D01*
Y101996D01*
Y101652D01*
Y101309D01*
Y100966D01*
X464997D01*
Y100622D01*
Y100279D01*
X464654D01*
Y99935D01*
X463967D01*
Y99592D01*
X463280D01*
Y99248D01*
X462593D01*
Y99592D01*
X461562D01*
Y99935D01*
X461219D01*
Y100279D01*
X460876D01*
Y100622D01*
X460532D01*
Y100966D01*
Y101309D01*
X460189D01*
Y101652D01*
Y101996D01*
X459845D01*
Y102339D01*
X459502D01*
Y102683D01*
Y103026D01*
X459158D01*
Y103370D01*
X458815D01*
Y103713D01*
Y104057D01*
X458471D01*
Y104400D01*
X458128D01*
Y104744D01*
X457784D01*
Y105087D01*
X457441D01*
Y105431D01*
X457097D01*
Y105774D01*
X456410D01*
Y106118D01*
X455723D01*
Y106461D01*
X454693D01*
Y106805D01*
X449884D01*
Y106461D01*
X448854D01*
Y106118D01*
X448167D01*
Y105774D01*
X447480D01*
Y105431D01*
X447136D01*
Y105087D01*
X446793D01*
Y104744D01*
X446450D01*
Y104400D01*
X446106D01*
Y104057D01*
X445763D01*
Y103713D01*
X445419D01*
Y103370D01*
X445076D01*
Y103026D01*
Y102683D01*
X444732D01*
Y102339D01*
Y101996D01*
X444389D01*
Y101652D01*
Y101309D01*
X444045D01*
Y100966D01*
Y100622D01*
Y100279D01*
X443702D01*
Y99935D01*
Y99592D01*
Y99248D01*
Y98905D01*
Y98561D01*
X443358D01*
Y98218D01*
Y97874D01*
Y97531D01*
Y97187D01*
Y96844D01*
Y96500D01*
Y96157D01*
Y95813D01*
Y95470D01*
Y95126D01*
Y94783D01*
Y94440D01*
Y94096D01*
Y93753D01*
Y93409D01*
Y93066D01*
Y92722D01*
Y92379D01*
Y92035D01*
Y91692D01*
Y91348D01*
Y91005D01*
X443702D01*
Y90661D01*
Y90318D01*
Y89974D01*
Y89631D01*
Y89287D01*
X444045D01*
Y88944D01*
Y88601D01*
Y88257D01*
X444389D01*
Y87914D01*
Y87570D01*
X444732D01*
Y87227D01*
X445076D01*
Y86883D01*
Y86540D01*
X445419D01*
Y86196D01*
Y85853D01*
X445763D01*
Y85509D01*
X446106D01*
Y85166D01*
X446450D01*
Y84822D01*
X447136D01*
Y84479D01*
X447480D01*
Y84135D01*
X448167D01*
Y83792D01*
X448854D01*
Y83448D01*
X450228D01*
Y83105D01*
X454006D01*
Y83448D01*
X455380D01*
Y83792D01*
X456067D01*
Y84135D01*
X456754D01*
Y84479D01*
X457097D01*
Y84822D01*
X457784D01*
Y85166D01*
X458128D01*
Y85509D01*
X458471D01*
Y85853D01*
X458815D01*
Y86196D01*
Y86540D01*
X459158D01*
Y86883D01*
X459502D01*
Y87227D01*
Y87570D01*
X459845D01*
Y87914D01*
Y88257D01*
X460189D01*
Y88601D01*
Y88944D01*
Y89287D01*
X460532D01*
Y89631D01*
Y89974D01*
X460876D01*
Y90318D01*
Y90661D01*
X461219D01*
Y91005D01*
X461562D01*
Y91348D01*
X462593D01*
Y91692D01*
X463280D01*
Y91348D01*
X464310D01*
Y91005D01*
X464654D01*
Y90661D01*
X464997D01*
Y90318D01*
X465341D01*
Y89974D01*
Y89631D01*
Y89287D01*
X465684D01*
Y88944D01*
Y88601D01*
X465341D01*
Y88257D01*
Y87914D01*
Y87570D01*
Y87227D01*
Y86883D01*
Y86540D01*
X464997D01*
Y86196D01*
Y85853D01*
X464654D01*
Y85509D01*
Y85166D01*
Y84822D01*
X464310D01*
Y84479D01*
X463967D01*
Y84135D01*
Y83792D01*
X463623D01*
Y83448D01*
X463280D01*
Y83105D01*
Y82761D01*
X462936D01*
Y82418D01*
X462593D01*
Y82074D01*
X462249D01*
Y81731D01*
X461906D01*
Y81388D01*
X461219D01*
Y81044D01*
X460876D01*
Y80701D01*
X460532D01*
Y80357D01*
X459845D01*
Y80014D01*
X459158D01*
Y79670D01*
X458471D01*
Y79327D01*
X457441D01*
Y78983D01*
X456410D01*
Y78640D01*
X454693D01*
Y78296D01*
X450228D01*
Y78640D01*
X448167D01*
Y78983D01*
X446793D01*
Y79327D01*
X445763D01*
Y79670D01*
X445076D01*
Y80014D01*
X444389D01*
Y80357D01*
X444045D01*
Y80701D01*
X443358D01*
Y81044D01*
X443015D01*
Y81388D01*
X442328D01*
Y81731D01*
X441984D01*
Y82074D01*
X441641D01*
Y82418D01*
X441297D01*
Y82761D01*
X440954D01*
Y83105D01*
Y83448D01*
X440611D01*
Y83792D01*
X440267D01*
Y84135D01*
Y84479D01*
X439924D01*
Y84822D01*
X439580D01*
Y85166D01*
Y85509D01*
X439237D01*
Y85853D01*
X438893D01*
Y86196D01*
Y86540D01*
X438550D01*
Y86883D01*
Y87227D01*
Y87570D01*
X438206D01*
Y87914D01*
Y88257D01*
Y88601D01*
X437863D01*
Y88944D01*
Y89287D01*
Y89631D01*
Y89974D01*
X437519D01*
Y90318D01*
Y90661D01*
Y91005D01*
Y91348D01*
X437176D01*
Y91692D01*
Y92035D01*
Y92379D01*
Y92722D01*
Y93066D01*
Y93409D01*
Y93753D01*
Y94096D01*
Y94440D01*
Y94783D01*
Y95126D01*
Y95470D01*
Y95813D01*
Y96157D01*
Y96500D01*
Y96844D01*
Y97187D01*
Y97531D01*
Y97874D01*
Y98218D01*
Y98561D01*
X437519D01*
Y98905D01*
Y99248D01*
Y99592D01*
Y99935D01*
Y100279D01*
X437863D01*
Y100622D01*
Y100966D01*
Y101309D01*
X438206D01*
Y101652D01*
Y101996D01*
Y102339D01*
X438550D01*
Y102683D01*
Y103026D01*
Y103370D01*
X438893D01*
Y103713D01*
Y104057D01*
X439237D01*
Y104400D01*
X439580D01*
Y104744D01*
Y105087D01*
X439924D01*
Y105431D01*
X440267D01*
Y105774D01*
Y106118D01*
X440611D01*
Y106461D01*
X440954D01*
Y106805D01*
X441297D01*
Y107148D01*
X441641D01*
Y107492D01*
X441984D01*
Y107835D01*
X442328D01*
Y108179D01*
X442671D01*
Y108522D01*
X443015D01*
Y108865D01*
X443702D01*
Y109209D01*
X444045D01*
Y109552D01*
X444732D01*
Y109896D01*
X445419D01*
Y110239D01*
X446106D01*
Y110583D01*
X447136D01*
Y110926D01*
X448167D01*
Y111270D01*
X449884D01*
Y111613D01*
X454693D01*
Y111270D01*
D02*
G37*
G36*
X431680Y106118D02*
Y105774D01*
X432024D01*
Y105431D01*
Y105087D01*
X431680D01*
Y104744D01*
X431337D01*
Y104400D01*
Y104057D01*
X430993D01*
Y103713D01*
X430650D01*
Y103370D01*
X430306D01*
Y103026D01*
X429963D01*
Y102683D01*
X429619D01*
Y102339D01*
X429276D01*
Y101996D01*
Y101652D01*
X428589D01*
Y101309D01*
Y100966D01*
X428245D01*
Y100622D01*
X427902D01*
Y100279D01*
X427559D01*
Y99935D01*
X427215D01*
Y99592D01*
X426871D01*
Y99248D01*
X426528D01*
Y98905D01*
X426185D01*
Y98561D01*
X425841D01*
Y98218D01*
X425498D01*
Y97874D01*
X425154D01*
Y97531D01*
X424811D01*
Y97187D01*
X424467D01*
Y96844D01*
Y96500D01*
X424124D01*
Y96157D01*
X423780D01*
Y95813D01*
X423437D01*
Y95470D01*
Y95126D01*
Y94783D01*
X423093D01*
Y94440D01*
Y94096D01*
Y93753D01*
Y93409D01*
Y93066D01*
Y92722D01*
X422750D01*
Y92379D01*
Y92035D01*
Y91692D01*
Y91348D01*
Y91005D01*
Y90661D01*
Y90318D01*
Y89974D01*
X422406D01*
Y89631D01*
Y89287D01*
Y88944D01*
Y88601D01*
Y88257D01*
Y87914D01*
Y87570D01*
Y87227D01*
Y86883D01*
Y86540D01*
X422063D01*
Y86196D01*
X421032D01*
Y85853D01*
X420345D01*
Y86196D01*
X419659D01*
Y86540D01*
Y86883D01*
Y87227D01*
Y87570D01*
Y87914D01*
Y88257D01*
Y88601D01*
Y88944D01*
Y89287D01*
Y89631D01*
Y89974D01*
X420002D01*
Y90318D01*
Y90661D01*
Y91005D01*
Y91348D01*
Y91692D01*
X420345D01*
Y92035D01*
Y92379D01*
X420002D01*
Y92722D01*
X420345D01*
Y93066D01*
Y93409D01*
Y93753D01*
Y94096D01*
Y94440D01*
Y94783D01*
Y95126D01*
Y95470D01*
Y95813D01*
X420002D01*
Y96157D01*
X419659D01*
Y96500D01*
Y96844D01*
X418972D01*
Y97187D01*
Y97531D01*
X418628D01*
Y97874D01*
X418285D01*
Y98218D01*
X417941D01*
Y98561D01*
Y98905D01*
X417598D01*
Y99248D01*
X417254D01*
Y99592D01*
X416911D01*
Y99935D01*
Y100279D01*
X416567D01*
Y100622D01*
X416224D01*
Y100966D01*
X415880D01*
Y101309D01*
Y101652D01*
X415537D01*
Y101996D01*
X415193D01*
Y102339D01*
X414506D01*
Y102683D01*
X414163D01*
Y103026D01*
X413820D01*
Y103370D01*
X413476D01*
Y103713D01*
X413133D01*
Y104057D01*
X412789D01*
Y104400D01*
X412446D01*
Y104744D01*
Y105087D01*
X412789D01*
Y105431D01*
X413133D01*
Y105774D01*
X414850D01*
Y105431D01*
X415537D01*
Y105087D01*
X415880D01*
Y104744D01*
X416224D01*
Y104400D01*
X416567D01*
Y104057D01*
X416911D01*
Y103713D01*
X417254D01*
Y103370D01*
X417598D01*
Y103026D01*
X417941D01*
Y102683D01*
X418285D01*
Y102339D01*
X418628D01*
Y101996D01*
Y101652D01*
X418972D01*
Y101309D01*
X419315D01*
Y100966D01*
X419659D01*
Y100622D01*
Y100279D01*
X420002D01*
Y99935D01*
X420345D01*
Y99592D01*
X420689D01*
Y99248D01*
Y98905D01*
X421032D01*
Y98561D01*
X421376D01*
Y98218D01*
X421719D01*
Y97874D01*
X422406D01*
Y98218D01*
X422750D01*
Y98561D01*
X423093D01*
Y98905D01*
X423437D01*
Y99248D01*
X423780D01*
Y99592D01*
X424124D01*
Y99935D01*
X424467D01*
Y100279D01*
Y100622D01*
X424811D01*
Y100966D01*
X425154D01*
Y101309D01*
X425498D01*
Y101652D01*
X425841D01*
Y101996D01*
X426185D01*
Y102339D01*
X426528D01*
Y102683D01*
X426871D01*
Y103026D01*
X427215D01*
Y103370D01*
X427559D01*
Y103713D01*
Y104057D01*
X427902D01*
Y104400D01*
X428245D01*
Y104744D01*
X428589D01*
Y105087D01*
X428932D01*
Y105431D01*
Y105774D01*
X429276D01*
Y106118D01*
X429963D01*
Y106461D01*
X431680D01*
Y106118D01*
D02*
G37*
G36*
X399235Y169694D02*
Y168925D01*
Y168155D01*
Y167386D01*
Y166616D01*
Y165847D01*
Y165078D01*
Y164308D01*
Y163539D01*
Y162769D01*
Y162000D01*
Y161231D01*
Y160461D01*
Y159692D01*
Y158922D01*
Y158153D01*
Y157383D01*
Y156614D01*
Y155845D01*
Y155075D01*
Y154306D01*
Y153536D01*
Y152767D01*
X396158D01*
Y153536D01*
X395388D01*
Y154306D01*
Y155075D01*
X394619D01*
Y155845D01*
Y156614D01*
X393850D01*
Y157383D01*
Y158153D01*
X393080D01*
Y158922D01*
Y159692D01*
X392311D01*
Y160461D01*
Y161231D01*
Y162000D01*
X391541D01*
Y162769D01*
X390772D01*
Y163539D01*
Y164308D01*
X390003D01*
Y165078D01*
Y165847D01*
Y166616D01*
X389233D01*
Y167386D01*
Y168155D01*
X388464D01*
Y167386D01*
X387694D01*
Y166616D01*
X388464D01*
Y165847D01*
Y165078D01*
Y164308D01*
Y163539D01*
Y162769D01*
Y162000D01*
Y161231D01*
Y160461D01*
Y159692D01*
Y158922D01*
Y158153D01*
Y157383D01*
Y156614D01*
Y155845D01*
Y155075D01*
Y154306D01*
Y153536D01*
Y152767D01*
X386155D01*
Y153536D01*
Y154306D01*
Y155075D01*
Y155845D01*
Y156614D01*
Y157383D01*
Y158153D01*
Y158922D01*
Y159692D01*
Y160461D01*
Y161231D01*
Y162000D01*
Y162769D01*
Y163539D01*
Y164308D01*
Y165078D01*
Y165847D01*
Y166616D01*
Y167386D01*
Y168155D01*
Y168925D01*
Y169694D01*
Y170464D01*
X390003D01*
Y169694D01*
Y168925D01*
X390772D01*
Y168155D01*
Y167386D01*
X391541D01*
Y166616D01*
Y165847D01*
X392311D01*
Y165078D01*
Y164308D01*
X393080D01*
Y163539D01*
Y162769D01*
X393850D01*
Y162000D01*
Y161231D01*
X394619D01*
Y160461D01*
Y159692D01*
Y158922D01*
X395388D01*
Y158153D01*
Y157383D01*
X396158D01*
Y156614D01*
Y155845D01*
Y155075D01*
X397697D01*
Y155845D01*
Y156614D01*
Y157383D01*
Y158153D01*
X396927D01*
Y158922D01*
Y159692D01*
Y160461D01*
Y161231D01*
Y162000D01*
Y162769D01*
Y163539D01*
Y164308D01*
Y165078D01*
Y165847D01*
Y166616D01*
Y167386D01*
Y168155D01*
Y168925D01*
Y169694D01*
Y170464D01*
X399235D01*
Y169694D01*
D02*
G37*
G36*
X449248D02*
X448479D01*
Y168925D01*
Y168155D01*
Y167386D01*
Y166616D01*
Y165847D01*
Y165078D01*
Y164308D01*
Y163539D01*
Y162769D01*
Y162000D01*
Y161231D01*
Y160461D01*
Y159692D01*
Y158922D01*
Y158153D01*
Y157383D01*
Y156614D01*
Y155845D01*
Y155075D01*
Y154306D01*
Y153536D01*
X449248D01*
Y152767D01*
X447709D01*
Y153536D01*
X444631D01*
Y152767D01*
X442323D01*
Y151997D01*
X440784D01*
Y152767D01*
X438476D01*
Y153536D01*
X437707D01*
Y154306D01*
X436937D01*
Y155075D01*
Y155845D01*
Y156614D01*
Y157383D01*
Y158153D01*
Y158922D01*
Y159692D01*
Y160461D01*
Y161231D01*
Y162000D01*
Y162769D01*
Y163539D01*
Y164308D01*
Y165078D01*
Y165847D01*
Y166616D01*
Y167386D01*
Y168155D01*
Y168925D01*
Y169694D01*
Y170464D01*
X438476D01*
Y169694D01*
Y168925D01*
Y168155D01*
Y167386D01*
Y166616D01*
Y165847D01*
Y165078D01*
Y164308D01*
Y163539D01*
Y162769D01*
Y162000D01*
Y161231D01*
Y160461D01*
Y159692D01*
Y158922D01*
Y158153D01*
Y157383D01*
Y156614D01*
Y155845D01*
X439245D01*
Y155075D01*
Y154306D01*
X445401D01*
Y155075D01*
X446940D01*
Y155845D01*
Y156614D01*
Y157383D01*
Y158153D01*
Y158922D01*
Y159692D01*
Y160461D01*
Y161231D01*
Y162000D01*
Y162769D01*
Y163539D01*
Y164308D01*
Y165078D01*
Y165847D01*
Y166616D01*
Y167386D01*
Y168155D01*
Y168925D01*
Y169694D01*
Y170464D01*
X449248D01*
Y169694D01*
D02*
G37*
G36*
X470792D02*
Y168925D01*
Y168155D01*
Y167386D01*
X471561D01*
Y166616D01*
Y165847D01*
Y165078D01*
Y164308D01*
Y163539D01*
Y162769D01*
Y162000D01*
Y161231D01*
Y160461D01*
Y159692D01*
Y158922D01*
X472331D01*
Y158153D01*
Y157383D01*
Y156614D01*
Y155845D01*
Y155075D01*
Y154306D01*
Y153536D01*
Y152767D01*
X470022D01*
Y153536D01*
Y154306D01*
Y155075D01*
Y155845D01*
Y156614D01*
Y157383D01*
Y158153D01*
Y158922D01*
Y159692D01*
Y160461D01*
Y161231D01*
Y162000D01*
Y162769D01*
Y163539D01*
X469253D01*
Y164308D01*
Y165078D01*
Y165847D01*
Y166616D01*
Y167386D01*
Y168155D01*
X468483D01*
Y167386D01*
X467714D01*
Y166616D01*
Y165847D01*
Y165078D01*
Y164308D01*
Y163539D01*
X466945D01*
Y162769D01*
Y162000D01*
Y161231D01*
Y160461D01*
X466175D01*
Y159692D01*
Y158922D01*
Y158153D01*
X465406D01*
Y157383D01*
Y156614D01*
Y155845D01*
Y155075D01*
X464636D01*
Y154306D01*
Y153536D01*
Y152767D01*
X461559D01*
Y153536D01*
Y154306D01*
Y155075D01*
Y155845D01*
X460789D01*
Y156614D01*
Y157383D01*
Y158153D01*
X460020D01*
Y158922D01*
Y159692D01*
Y160461D01*
X459250D01*
Y161231D01*
Y162000D01*
Y162769D01*
Y163539D01*
X458481D01*
Y164308D01*
Y165078D01*
Y165847D01*
Y166616D01*
Y167386D01*
X456942D01*
Y166616D01*
Y165847D01*
Y165078D01*
Y164308D01*
Y163539D01*
Y162769D01*
X456173D01*
Y162000D01*
Y161231D01*
Y160461D01*
Y159692D01*
Y158922D01*
Y158153D01*
Y157383D01*
Y156614D01*
Y155845D01*
Y155075D01*
Y154306D01*
Y153536D01*
Y152767D01*
X453864D01*
Y153536D01*
Y154306D01*
Y155075D01*
Y155845D01*
Y156614D01*
Y157383D01*
Y158153D01*
X454634D01*
Y158922D01*
Y159692D01*
Y160461D01*
Y161231D01*
Y162000D01*
Y162769D01*
Y163539D01*
Y164308D01*
Y165078D01*
Y165847D01*
Y166616D01*
Y167386D01*
X455403D01*
Y168155D01*
Y168925D01*
Y169694D01*
Y170464D01*
X458481D01*
Y169694D01*
X459250D01*
Y168925D01*
Y168155D01*
Y167386D01*
Y166616D01*
X460020D01*
Y165847D01*
Y165078D01*
Y164308D01*
X460789D01*
Y163539D01*
Y162769D01*
Y162000D01*
Y161231D01*
X461559D01*
Y160461D01*
Y159692D01*
Y158922D01*
Y158153D01*
X462328D01*
Y157383D01*
Y156614D01*
Y155845D01*
Y155075D01*
X463867D01*
Y155845D01*
Y156614D01*
Y157383D01*
X464636D01*
Y158153D01*
Y158922D01*
Y159692D01*
Y160461D01*
Y161231D01*
X465406D01*
Y162000D01*
Y162769D01*
Y163539D01*
X466175D01*
Y164308D01*
Y165078D01*
Y165847D01*
X466945D01*
Y166616D01*
Y167386D01*
Y168155D01*
Y168925D01*
X467714D01*
Y169694D01*
Y170464D01*
X470792D01*
Y169694D01*
D02*
G37*
G36*
X323832D02*
Y168925D01*
Y168155D01*
Y167386D01*
Y166616D01*
Y165847D01*
Y165078D01*
Y164308D01*
Y163539D01*
Y162769D01*
Y162000D01*
Y161231D01*
Y160461D01*
Y159692D01*
Y158922D01*
Y158153D01*
Y157383D01*
Y156614D01*
Y155845D01*
Y155075D01*
Y154306D01*
Y153536D01*
Y152767D01*
X322293D01*
Y153536D01*
Y154306D01*
Y155075D01*
Y155845D01*
Y156614D01*
Y157383D01*
Y158153D01*
Y158922D01*
Y159692D01*
Y160461D01*
Y161231D01*
X314599D01*
Y160461D01*
Y159692D01*
Y158922D01*
Y158153D01*
Y157383D01*
Y156614D01*
Y155845D01*
Y155075D01*
Y154306D01*
Y153536D01*
Y152767D01*
X312291D01*
Y153536D01*
Y154306D01*
Y155075D01*
Y155845D01*
Y156614D01*
Y157383D01*
Y158153D01*
Y158922D01*
Y159692D01*
Y160461D01*
Y161231D01*
Y162000D01*
Y162769D01*
Y163539D01*
Y164308D01*
Y165078D01*
Y165847D01*
Y166616D01*
Y167386D01*
Y168155D01*
Y168925D01*
Y169694D01*
Y170464D01*
X314599D01*
Y169694D01*
Y168925D01*
Y168155D01*
Y167386D01*
Y166616D01*
Y165847D01*
Y165078D01*
Y164308D01*
Y163539D01*
Y162769D01*
X322293D01*
Y163539D01*
Y164308D01*
Y165078D01*
Y165847D01*
Y166616D01*
Y167386D01*
Y168155D01*
Y168925D01*
Y169694D01*
Y170464D01*
X323832D01*
Y169694D01*
D02*
G37*
G36*
X416932D02*
Y168925D01*
Y168155D01*
Y167386D01*
Y166616D01*
Y165847D01*
Y165078D01*
Y164308D01*
Y163539D01*
Y162769D01*
Y162000D01*
Y161231D01*
Y160461D01*
Y159692D01*
Y158922D01*
Y158153D01*
Y157383D01*
Y156614D01*
Y155845D01*
Y155075D01*
Y154306D01*
Y153536D01*
Y152767D01*
X413854D01*
Y153536D01*
Y154306D01*
X413085D01*
Y155075D01*
Y155845D01*
X412316D01*
Y156614D01*
Y157383D01*
X411546D01*
Y158153D01*
Y158922D01*
X410777D01*
Y159692D01*
Y160461D01*
X410007D01*
Y161231D01*
Y162000D01*
X409238D01*
Y162769D01*
Y163539D01*
X408469D01*
Y164308D01*
Y165078D01*
Y165847D01*
X407699D01*
Y166616D01*
Y167386D01*
X406930D01*
Y168155D01*
X406160D01*
Y167386D01*
Y166616D01*
Y165847D01*
Y165078D01*
Y164308D01*
Y163539D01*
Y162769D01*
Y162000D01*
Y161231D01*
Y160461D01*
Y159692D01*
Y158922D01*
Y158153D01*
Y157383D01*
Y156614D01*
Y155845D01*
Y155075D01*
Y154306D01*
Y153536D01*
Y152767D01*
X404622D01*
Y153536D01*
Y154306D01*
Y155075D01*
Y155845D01*
Y156614D01*
Y157383D01*
Y158153D01*
Y158922D01*
Y159692D01*
Y160461D01*
Y161231D01*
Y162000D01*
Y162769D01*
Y163539D01*
Y164308D01*
Y165078D01*
Y165847D01*
Y166616D01*
Y167386D01*
Y168155D01*
Y168925D01*
Y169694D01*
Y170464D01*
X407699D01*
Y169694D01*
X408469D01*
Y168925D01*
Y168155D01*
X409238D01*
Y167386D01*
Y166616D01*
X410007D01*
Y165847D01*
Y165078D01*
X410777D01*
Y164308D01*
Y163539D01*
X411546D01*
Y162769D01*
Y162000D01*
Y161231D01*
X412316D01*
Y160461D01*
Y159692D01*
X413085D01*
Y158922D01*
Y158153D01*
X413854D01*
Y157383D01*
Y156614D01*
Y155845D01*
X415393D01*
Y156614D01*
Y157383D01*
Y158153D01*
Y158922D01*
Y159692D01*
Y160461D01*
Y161231D01*
Y162000D01*
Y162769D01*
Y163539D01*
Y164308D01*
Y165078D01*
Y165847D01*
Y166616D01*
Y167386D01*
Y168155D01*
Y168925D01*
Y169694D01*
Y170464D01*
X416932D01*
Y169694D01*
D02*
G37*
G36*
X377692D02*
Y168925D01*
Y168155D01*
Y167386D01*
X378461D01*
Y166616D01*
Y165847D01*
Y165078D01*
X379231D01*
Y164308D01*
Y163539D01*
Y162769D01*
X380000D01*
Y162000D01*
Y161231D01*
Y160461D01*
X380769D01*
Y159692D01*
Y158922D01*
Y158153D01*
X381539D01*
Y157383D01*
Y156614D01*
Y155845D01*
X382308D01*
Y155075D01*
Y154306D01*
Y153536D01*
X383078D01*
Y152767D01*
X380769D01*
Y153536D01*
Y154306D01*
X380000D01*
Y155075D01*
Y155845D01*
Y156614D01*
X379231D01*
Y157383D01*
X372306D01*
Y156614D01*
X371536D01*
Y155845D01*
Y155075D01*
Y154306D01*
Y153536D01*
X370767D01*
Y152767D01*
X369228D01*
Y153536D01*
Y154306D01*
X369997D01*
Y155075D01*
Y155845D01*
Y156614D01*
X370767D01*
Y157383D01*
Y158153D01*
Y158922D01*
X371536D01*
Y159692D01*
Y160461D01*
Y161231D01*
Y162000D01*
X372306D01*
Y162769D01*
Y163539D01*
Y164308D01*
X373075D01*
Y165078D01*
Y165847D01*
Y166616D01*
X373845D01*
Y167386D01*
Y168155D01*
X374614D01*
Y168925D01*
Y169694D01*
Y170464D01*
X377692D01*
Y169694D01*
D02*
G37*
G36*
X307674D02*
Y168925D01*
X300750D01*
Y168155D01*
Y167386D01*
Y166616D01*
Y165847D01*
Y165078D01*
Y164308D01*
Y163539D01*
Y162769D01*
Y162000D01*
X306905D01*
Y161231D01*
Y160461D01*
X300750D01*
Y159692D01*
Y158922D01*
Y158153D01*
Y157383D01*
Y156614D01*
Y155845D01*
Y155075D01*
Y154306D01*
Y153536D01*
Y152767D01*
X298441D01*
Y153536D01*
Y154306D01*
Y155075D01*
Y155845D01*
Y156614D01*
Y157383D01*
Y158153D01*
Y158922D01*
Y159692D01*
Y160461D01*
Y161231D01*
Y162000D01*
Y162769D01*
Y163539D01*
Y164308D01*
Y165078D01*
Y165847D01*
Y166616D01*
Y167386D01*
Y168155D01*
Y168925D01*
Y169694D01*
Y170464D01*
X307674D01*
Y169694D01*
D02*
G37*
G36*
X363073D02*
X363842D01*
Y168925D01*
X364612D01*
Y168155D01*
X365381D01*
Y167386D01*
Y166616D01*
X366150D01*
Y165847D01*
Y165078D01*
Y164308D01*
Y163539D01*
Y162769D01*
Y162000D01*
Y161231D01*
Y160461D01*
Y159692D01*
Y158922D01*
Y158153D01*
Y157383D01*
Y156614D01*
X365381D01*
Y155845D01*
Y155075D01*
Y154306D01*
X364612D01*
Y153536D01*
X363073D01*
Y152767D01*
X360765D01*
Y151997D01*
X359226D01*
Y152767D01*
X356148D01*
Y153536D01*
X354609D01*
Y154306D01*
X353840D01*
Y155075D01*
Y155845D01*
Y156614D01*
X353070D01*
Y157383D01*
Y158153D01*
Y158922D01*
Y159692D01*
Y160461D01*
Y161231D01*
Y162000D01*
Y162769D01*
Y163539D01*
Y164308D01*
Y165078D01*
Y165847D01*
Y166616D01*
X353840D01*
Y167386D01*
Y168155D01*
X354609D01*
Y168925D01*
X355378D01*
Y169694D01*
X356148D01*
Y170464D01*
X363073D01*
Y169694D01*
D02*
G37*
G36*
X432321D02*
Y168925D01*
X424626D01*
Y168155D01*
Y167386D01*
Y166616D01*
Y165847D01*
Y165078D01*
Y164308D01*
Y163539D01*
Y162769D01*
X431551D01*
Y162000D01*
Y161231D01*
X424626D01*
Y160461D01*
Y159692D01*
Y158922D01*
Y158153D01*
Y157383D01*
Y156614D01*
Y155845D01*
Y155075D01*
Y154306D01*
X432321D01*
Y153536D01*
Y152767D01*
X422318D01*
Y153536D01*
Y154306D01*
Y155075D01*
Y155845D01*
Y156614D01*
Y157383D01*
Y158153D01*
Y158922D01*
Y159692D01*
Y160461D01*
Y161231D01*
Y162000D01*
Y162769D01*
Y163539D01*
Y164308D01*
Y165078D01*
Y165847D01*
Y166616D01*
Y167386D01*
Y168155D01*
Y168925D01*
Y169694D01*
Y170464D01*
X432321D01*
Y169694D01*
D02*
G37*
%LPC*%
G36*
X380159Y100966D02*
X379128D01*
Y100622D01*
Y100279D01*
X378785D01*
Y99935D01*
Y99592D01*
X378442D01*
Y99248D01*
Y98905D01*
X378098D01*
Y98561D01*
X377755D01*
Y98218D01*
Y97874D01*
X377411D01*
Y97531D01*
Y97187D01*
X377068D01*
Y96844D01*
Y96500D01*
X376724D01*
Y96157D01*
Y95813D01*
X376381D01*
Y95470D01*
Y95126D01*
X376037D01*
Y94783D01*
Y94440D01*
X375694D01*
Y94096D01*
Y93753D01*
Y93409D01*
X377068D01*
Y93753D01*
X379128D01*
Y94096D01*
X380502D01*
Y94440D01*
X381876D01*
Y94783D01*
Y95126D01*
Y95470D01*
Y95813D01*
X381533D01*
Y96157D01*
Y96500D01*
X381189D01*
Y96844D01*
Y97187D01*
Y97531D01*
Y97874D01*
X380846D01*
Y98218D01*
Y98561D01*
Y98905D01*
X380502D01*
Y99248D01*
Y99592D01*
X380159D01*
Y99935D01*
Y100279D01*
Y100622D01*
Y100966D01*
D02*
G37*
G36*
X475645Y107492D02*
X474958D01*
Y107148D01*
X474614D01*
Y106805D01*
Y106461D01*
X474271D01*
Y106118D01*
Y105774D01*
X473928D01*
Y105431D01*
Y105087D01*
X473584D01*
Y104744D01*
Y104400D01*
X473241D01*
Y104057D01*
Y103713D01*
X472897D01*
Y103370D01*
Y103026D01*
X472554D01*
Y102683D01*
Y102339D01*
Y101996D01*
X473241D01*
Y102339D01*
X475645D01*
Y102683D01*
X477019D01*
Y103026D01*
Y103370D01*
Y103713D01*
X476675D01*
Y104057D01*
Y104400D01*
Y104744D01*
Y105087D01*
X476332D01*
Y105431D01*
Y105774D01*
X475988D01*
Y106118D01*
Y106461D01*
Y106805D01*
X475645D01*
Y107148D01*
Y107492D01*
D02*
G37*
G36*
X376153Y168155D02*
X375383D01*
Y167386D01*
Y166616D01*
Y165847D01*
X374614D01*
Y165078D01*
Y164308D01*
Y163539D01*
X373845D01*
Y162769D01*
Y162000D01*
Y161231D01*
X373075D01*
Y160461D01*
Y159692D01*
Y158922D01*
X378461D01*
Y159692D01*
Y160461D01*
Y161231D01*
X377692D01*
Y162000D01*
Y162769D01*
Y163539D01*
Y164308D01*
X376922D01*
Y165078D01*
Y165847D01*
Y166616D01*
Y167386D01*
X376153D01*
Y168155D01*
D02*
G37*
G36*
X359995Y169694D02*
X359226D01*
Y168925D01*
X356917D01*
Y168155D01*
X356148D01*
Y167386D01*
Y166616D01*
X355378D01*
Y165847D01*
Y165078D01*
Y164308D01*
Y163539D01*
Y162769D01*
Y162000D01*
Y161231D01*
Y160461D01*
Y159692D01*
Y158922D01*
Y158153D01*
Y157383D01*
Y156614D01*
Y155845D01*
X356148D01*
Y155075D01*
X356917D01*
Y154306D01*
X358456D01*
Y153536D01*
X360765D01*
Y154306D01*
X362303D01*
Y155075D01*
X363073D01*
Y155845D01*
X363842D01*
Y156614D01*
Y157383D01*
Y158153D01*
X364612D01*
Y158922D01*
Y159692D01*
Y160461D01*
Y161231D01*
Y162000D01*
Y162769D01*
Y163539D01*
Y164308D01*
X363842D01*
Y165078D01*
Y165847D01*
Y166616D01*
Y167386D01*
X363073D01*
Y168155D01*
X362303D01*
Y168925D01*
X359995D01*
Y169694D01*
D02*
G37*
%LPD*%
D49*
X538700Y253000D02*
G03*
X538700Y253000I-1000J0D01*
G01*
X5000Y846500D02*
Y848250D01*
Y597750D02*
Y599000D01*
X364250Y293250D02*
Y297750D01*
X368750D01*
X364250Y203250D02*
Y207750D01*
Y203250D02*
X368750D01*
X454250D02*
X458750D01*
Y207750D01*
Y293250D02*
Y297750D01*
X454250D02*
X458750D01*
X139000Y757000D02*
Y759000D01*
X141000D01*
X139000Y725000D02*
Y727000D01*
Y725000D02*
X141000D01*
X171000D02*
X173000D01*
Y727000D01*
X295000Y538000D02*
Y670000D01*
X163000Y538000D02*
Y670000D01*
Y538000D02*
X295000D01*
X163000Y670000D02*
X295000D01*
X432450Y726500D02*
X436500D01*
X415500D02*
X419550D01*
X432450Y750500D02*
X436500D01*
X415500D02*
X419550D01*
X445250Y660750D02*
Y662250D01*
Y693750D02*
Y695250D01*
X410750Y660750D02*
Y662250D01*
Y693750D02*
Y695250D01*
X438900Y660750D02*
X445250D01*
X410750D02*
X417100D01*
X438900Y695250D02*
X445250D01*
X410750D02*
X417100D01*
X489000Y346000D02*
Y356000D01*
X481000Y346000D02*
X489000D01*
X459000D02*
Y356000D01*
Y346000D02*
X467000D01*
X478000Y594500D02*
Y604500D01*
X486000D01*
X508000Y594500D02*
Y604500D01*
X500000D02*
X508000D01*
X481000Y728000D02*
X491000D01*
X481000D02*
Y736000D01*
Y758000D02*
X491000D01*
X481000Y750000D02*
Y758000D01*
X392000Y330500D02*
X426000D01*
X392000Y392500D02*
X426000D01*
X359000Y728850D02*
Y736850D01*
X407000Y728850D02*
Y736850D01*
X425350Y618000D02*
X439350D01*
X425350Y658000D02*
X439350D01*
X354500Y844000D02*
Y849000D01*
X345500Y844000D02*
Y849000D01*
X583950Y310500D02*
Y315500D01*
X574950Y310500D02*
Y315500D01*
X583950Y194500D02*
Y199500D01*
X574950Y194500D02*
Y199500D01*
X531200Y245500D02*
Y246500D01*
X520200Y245500D02*
Y246500D01*
X531200D01*
X520200Y245500D02*
X531200D01*
X354500Y735600D02*
Y740600D01*
X345500Y735600D02*
Y740600D01*
X354500Y634000D02*
Y639000D01*
X345500Y634000D02*
Y639000D01*
X458000Y583000D02*
Y591500D01*
X446000Y583000D02*
X458000D01*
Y605500D02*
Y614000D01*
X446000D02*
X458000D01*
X544200Y294000D02*
X567700D01*
X544200Y286085D02*
Y294000D01*
Y216085D02*
Y224000D01*
Y216085D02*
X567700D01*
X5000Y851000D02*
X89750D01*
Y847000D02*
Y851000D01*
X5000Y848250D02*
Y851000D01*
X89750Y595000D02*
Y599000D01*
X5000Y595000D02*
Y597750D01*
Y595000D02*
X89750D01*
X208000Y77000D02*
Y163000D01*
X204000Y77000D02*
X208000D01*
X204000Y163000D02*
X208000D01*
X104000Y77000D02*
Y163000D01*
X108000D01*
X104000Y77000D02*
X108000D01*
X117750Y69000D02*
X123750Y61000D01*
X111750D02*
X123750D01*
X111750D02*
X117750Y69000D01*
X507900Y645700D02*
X588100D01*
X507900Y616300D02*
Y645700D01*
Y616300D02*
X588100D01*
Y645700D01*
X519500Y745000D02*
Y755250D01*
X532750Y768500D01*
X519500Y714750D02*
X532750Y701500D01*
X519500Y714750D02*
Y725000D01*
X532750Y768500D02*
X586500D01*
Y745000D02*
Y768500D01*
Y701500D02*
Y725000D01*
X532750Y701500D02*
X586500D01*
X217100Y125000D02*
Y127000D01*
X228600Y125000D02*
Y127000D01*
X96750Y100000D02*
Y102000D01*
X85250Y100000D02*
Y102000D01*
X306250Y933750D02*
X308250D01*
X306250Y922250D02*
X308250D01*
X237000Y460000D02*
Y470250D01*
X250250Y483500D01*
X237000Y429750D02*
X250250Y416500D01*
X237000Y429750D02*
Y440000D01*
X250250Y483500D02*
X304000D01*
Y460000D02*
Y483500D01*
Y416500D02*
Y440000D01*
X250250Y416500D02*
X304000D01*
X114500Y460000D02*
Y470250D01*
X127750Y483500D01*
X114500Y429750D02*
X127750Y416500D01*
X114500Y429750D02*
Y440000D01*
X127750Y483500D02*
X181500D01*
Y460000D02*
Y483500D01*
Y416500D02*
Y440000D01*
X127750Y416500D02*
X181500D01*
X164750Y841500D02*
X175000D01*
X151500Y854750D02*
X164750Y841500D01*
X205250D02*
X218500Y854750D01*
X195000Y841500D02*
X205250D01*
X151500Y854750D02*
Y908500D01*
X175000D01*
X195000D02*
X218500D01*
Y854750D02*
Y908500D01*
X349250Y332000D02*
Y334000D01*
X337750Y332000D02*
Y334000D01*
X534000Y206250D02*
X536000D01*
X534000Y217750D02*
X536000D01*
X518500Y592000D02*
Y602250D01*
X531750Y615500D01*
X518500Y561750D02*
X531750Y548500D01*
X518500Y561750D02*
Y572000D01*
X531750Y615500D02*
X585500D01*
Y592000D02*
Y615500D01*
Y548500D02*
Y572000D01*
X531750Y548500D02*
X585500D01*
X499000Y557000D02*
Y559000D01*
X510500Y557000D02*
Y559000D01*
X342750Y597000D02*
Y599000D01*
X331250Y597000D02*
Y599000D01*
X114250Y603500D02*
Y605500D01*
X102750Y603500D02*
Y605500D01*
X149250Y502000D02*
Y504000D01*
X160750Y502000D02*
Y504000D01*
X319000Y681250D02*
X321000D01*
X319000Y692750D02*
X321000D01*
X376250Y650000D02*
Y652000D01*
X387750Y650000D02*
Y652000D01*
X406750Y684000D02*
Y686000D01*
X395250Y684000D02*
Y686000D01*
X387750Y684000D02*
Y686000D01*
X376250Y684000D02*
Y686000D01*
X395250Y650000D02*
Y652000D01*
X406750Y650000D02*
Y652000D01*
X413500Y778500D02*
X420500D01*
X413500Y763500D02*
X420500D01*
X451250Y723000D02*
Y725000D01*
X462750Y723000D02*
Y725000D01*
X467750Y691000D02*
Y693000D01*
X456250Y691000D02*
Y693000D01*
X462750Y754000D02*
Y756000D01*
X451250Y754000D02*
Y756000D01*
X479250Y660500D02*
Y662500D01*
X490750Y660500D02*
Y662500D01*
X460250Y660500D02*
Y662500D01*
X471750Y660500D02*
Y662500D01*
X266000Y347500D02*
X273500Y340000D01*
X258500D02*
X273500D01*
X258500D02*
X266000Y347500D01*
X121000Y348000D02*
X128500Y340500D01*
X113500D02*
X128500D01*
X113500D02*
X121000Y348000D01*
X117500Y930500D02*
X125000Y923000D01*
X117500Y930500D02*
X132500D01*
X125000Y923000D02*
X132500Y930500D01*
X247500D02*
X255000Y923000D01*
X247500Y930500D02*
X262500D01*
X255000Y923000D02*
X262500Y930500D01*
X344500Y893000D02*
X352000Y900500D01*
Y885500D02*
Y900500D01*
X344500Y893000D02*
X352000Y885500D01*
X165000Y351000D02*
Y411000D01*
X292000D01*
Y351000D02*
Y411000D01*
X272000Y351000D02*
X292000D01*
X201000D02*
X255000D01*
X165000D02*
X185000D01*
X220000Y817000D02*
X280000D01*
X220000D02*
Y919000D01*
X280000D01*
Y899000D02*
Y919000D01*
Y853000D02*
Y882000D01*
Y817000D02*
Y837000D01*
X281000Y792000D02*
X341000D01*
X281000D02*
Y919000D01*
X341000D01*
Y899000D02*
Y919000D01*
Y828000D02*
Y882000D01*
Y792000D02*
Y812000D01*
X90000Y792000D02*
X150000D01*
X90000D02*
Y919000D01*
X150000D01*
Y899000D02*
Y919000D01*
Y828000D02*
Y882000D01*
Y792000D02*
Y812000D01*
X573000Y787000D02*
Y813000D01*
X559000Y773000D02*
X573000Y787000D01*
X467000Y773000D02*
X559000D01*
X467000Y827000D02*
X559000D01*
X573000Y813000D01*
X467000Y773000D02*
Y827000D01*
X22000Y855000D02*
X29500Y862500D01*
X14500D02*
X29500D01*
X14500D02*
X22000Y855000D01*
X20000Y351000D02*
Y411000D01*
X147000D01*
Y351000D02*
Y411000D01*
X127000Y351000D02*
X147000D01*
X56000D02*
X110000D01*
X20000D02*
X40000D01*
D52*
X441000Y726500D02*
G03*
X441000Y726500I-500J0D01*
G01*
X449750Y660750D02*
G03*
X449750Y660750I-500J0D01*
G01*
X311000Y968000D02*
G03*
X331000Y948000I20000J0D01*
G01*
X311000Y988000D02*
G03*
X291000Y1008000I-20000J0D01*
G01*
X25000Y1007999D02*
G03*
X0Y988000I-2500J-22499D01*
G01*
X23000Y911000D02*
G03*
X-0Y929000I-20500J-2500D01*
G01*
Y865000D02*
G03*
X23000Y883000I2500J20500D01*
G01*
X23000Y464000D02*
G03*
X-0Y480000I-19500J-3500D01*
G01*
X0Y416000D02*
G03*
X23000Y436000I1500J21500D01*
G01*
X121000Y1008000D02*
G03*
X156000Y973000I35000J0D01*
G01*
D02*
G03*
X191000Y1008000I0J35000D01*
G01*
X-1Y36000D02*
G03*
X69600Y23000I36035J109D01*
G01*
X242399Y22999D02*
G03*
X312000Y36000I33587J12998D01*
G01*
X591213Y182213D02*
G03*
X600000Y203426I-21213J21213D01*
G01*
X438574Y42000D02*
G03*
X459787Y50787I0J30000D01*
G01*
X600000Y928000D02*
G03*
X580000Y948000I-20000J0D01*
G01*
X50000Y883000D02*
G03*
X50000Y911000I0J14000D01*
G01*
Y436000D02*
G03*
X50000Y464000I0J14000D01*
G01*
X311000Y968000D02*
Y988000D01*
X191000Y1008000D02*
X291000D01*
X0Y929000D02*
Y988000D01*
X25000Y1008000D02*
X121000D01*
X23000Y911000D02*
X50000D01*
X23000Y883000D02*
X50000D01*
X0Y480000D02*
Y865000D01*
X23000Y436000D02*
X50000D01*
X23000Y464000D02*
X50000D01*
X69600Y23000D02*
X242400D01*
X0Y36000D02*
Y416000D01*
X312000Y36000D02*
Y42000D01*
X600000Y203426D02*
Y928000D01*
X459787Y50787D02*
X591213Y182213D01*
X331000Y948000D02*
X580000D01*
X312000Y42000D02*
X438574D01*
D65*
X458500Y304250D02*
G03*
X458500Y304250I-1250J0D01*
G01*
X172750Y757500D02*
G03*
X172750Y757500I-1250J0D01*
G01*
X307500Y537000D02*
G03*
X307500Y537000I-1250J0D01*
G01*
X493250Y364500D02*
G03*
X493250Y364500I-1250J0D01*
G01*
X476250Y586000D02*
G03*
X476250Y586000I-1250J0D01*
G01*
X501250Y725000D02*
G03*
X501250Y725000I-1250J0D01*
G01*
X438500Y616500D02*
G03*
X438500Y616500I-1250J0D01*
G01*
D66*
X189500Y479000D02*
G03*
X189500Y479000I-1000J0D01*
G01*
D67*
X288000Y548000D02*
G03*
X288000Y548000I-3000J0D01*
G01*
D68*
X492400Y333800D02*
Y350733D01*
X594000Y333800D02*
Y359200D01*
X500867D02*
X594000D01*
D69*
X186665Y728831D02*
X184998Y730497D01*
X181666D01*
X180000Y728831D01*
Y727165D01*
X181666Y725498D01*
X184998D01*
X186665Y723832D01*
Y722166D01*
X184998Y720500D01*
X181666D01*
X180000Y722166D01*
X189997Y720500D02*
Y730497D01*
X193329Y727165D01*
X196661Y730497D01*
Y720500D01*
X206658Y728831D02*
X204992Y730497D01*
X201660D01*
X199994Y728831D01*
Y722166D01*
X201660Y720500D01*
X204992D01*
X206658Y722166D01*
X209990Y730497D02*
Y720500D01*
X216655D01*
X219987Y730497D02*
Y720500D01*
Y723832D01*
X226652Y730497D01*
X221653Y725498D01*
X226652Y720500D01*
X343000Y203497D02*
X349664D01*
X346332D01*
Y193500D01*
X352997Y200165D02*
X359661Y193500D01*
X356329Y196832D01*
X359661Y200165D01*
X352997Y193500D01*
X426000Y576997D02*
X432664D01*
X429332D01*
Y567000D01*
X435997Y576997D02*
Y567000D01*
Y571998D01*
X442661D01*
Y576997D01*
Y567000D01*
X435664Y531331D02*
X433998Y532997D01*
X430666D01*
X429000Y531331D01*
Y529664D01*
X430666Y527998D01*
X433998D01*
X435664Y526332D01*
Y524666D01*
X433998Y523000D01*
X430666D01*
X429000Y524666D01*
X438997Y532997D02*
X445661D01*
X442329D01*
Y523000D01*
X458500Y189000D02*
Y198997D01*
X463498D01*
X465164Y197331D01*
Y193998D01*
X463498Y192332D01*
X458500D01*
X461832D02*
X465164Y189000D01*
X468497Y195665D02*
X475161Y189000D01*
X471829Y192332D01*
X475161Y195665D01*
X468497Y189000D01*
X86500Y466500D02*
Y476497D01*
X91498D01*
X93165Y474831D01*
Y471498D01*
X91498Y469832D01*
X86500D01*
X89832D02*
X93165Y466500D01*
X269500Y754500D02*
Y764497D01*
X274498D01*
X276164Y762831D01*
Y759498D01*
X274498Y757832D01*
X269500D01*
X272832D02*
X276164Y754500D01*
X279497D02*
Y764497D01*
X284495D01*
X286161Y762831D01*
Y759498D01*
X284495Y757832D01*
X279497D01*
X289494Y754500D02*
Y764497D01*
X292826Y761164D01*
X296158Y764497D01*
Y754500D01*
X209000Y477497D02*
Y467500D01*
X215665D01*
X189165Y785497D02*
X182500D01*
Y780498D01*
X185832D01*
X182500D01*
Y775500D01*
X234500Y764497D02*
Y754500D01*
X239498D01*
X241164Y756166D01*
Y762831D01*
X239498Y764497D01*
X234500D01*
X244497D02*
X247829D01*
X246163D01*
Y754500D01*
X244497D01*
X247829D01*
X252827D02*
Y764497D01*
X257826D01*
X259492Y762831D01*
Y759498D01*
X257826Y757832D01*
X252827D01*
X256160D02*
X259492Y754500D01*
X331503Y635664D02*
Y629000D01*
X336502D01*
X334836Y632332D01*
Y633998D01*
X336502Y635664D01*
X339834D01*
X341500Y633998D01*
Y630666D01*
X339834Y629000D01*
X331503Y638997D02*
X338168D01*
X341500Y642329D01*
X338168Y645661D01*
X331503D01*
X333169Y721500D02*
X331503Y723166D01*
Y726498D01*
X333169Y728165D01*
X334836D01*
X336502Y726498D01*
Y724832D01*
Y726498D01*
X338168Y728165D01*
X339834D01*
X341500Y726498D01*
Y723166D01*
X339834Y721500D01*
X341500Y731497D02*
X339834D01*
Y733163D01*
X341500D01*
Y731497D01*
X333169Y739827D02*
X331503Y741494D01*
Y744826D01*
X333169Y746492D01*
X334836D01*
X336502Y744826D01*
Y743160D01*
Y744826D01*
X338168Y746492D01*
X339834D01*
X341500Y744826D01*
Y741494D01*
X339834Y739827D01*
X331503Y749824D02*
X338168D01*
X341500Y753157D01*
X338168Y756489D01*
X331503D01*
X305165Y407331D02*
X303498Y408997D01*
X300166D01*
X298500Y407331D01*
Y400666D01*
X300166Y399000D01*
X303498D01*
X305165Y400666D01*
X313495Y408997D02*
X310163D01*
X308497Y407331D01*
Y400666D01*
X310163Y399000D01*
X313495D01*
X315161Y400666D01*
Y407331D01*
X313495Y408997D01*
X318494Y407331D02*
X320160Y408997D01*
X323492D01*
X325158Y407331D01*
Y405664D01*
X323492Y403998D01*
X325158Y402332D01*
Y400666D01*
X323492Y399000D01*
X320160D01*
X318494Y400666D01*
Y402332D01*
X320160Y403998D01*
X318494Y405664D01*
Y407331D01*
X320160Y403998D02*
X323492D01*
X36165Y427831D02*
X34498Y429497D01*
X31166D01*
X29500Y427831D01*
Y421166D01*
X31166Y419500D01*
X34498D01*
X36165Y421166D01*
X44495Y429497D02*
X41163D01*
X39497Y427831D01*
Y421166D01*
X41163Y419500D01*
X44495D01*
X46161Y421166D01*
Y427831D01*
X44495Y429497D01*
X49494D02*
X56158D01*
Y427831D01*
X49494Y421166D01*
Y419500D01*
X225665Y931331D02*
X223998Y932997D01*
X220666D01*
X219000Y931331D01*
Y924666D01*
X220666Y923000D01*
X223998D01*
X225665Y924666D01*
X233995Y932997D02*
X230663D01*
X228997Y931331D01*
Y924666D01*
X230663Y923000D01*
X233995D01*
X235661Y924666D01*
Y931331D01*
X233995Y932997D01*
X238994Y923000D02*
X242326D01*
X240660D01*
Y932997D01*
X238994Y931331D01*
X140500Y774497D02*
Y766166D01*
X142166Y764500D01*
X145498D01*
X147164Y766166D01*
Y774497D01*
X157161D02*
X150497D01*
Y769498D01*
X153829Y771164D01*
X155495D01*
X157161Y769498D01*
Y766166D01*
X155495Y764500D01*
X152163D01*
X150497Y766166D01*
X348003Y246000D02*
X356334D01*
X358000Y247666D01*
Y250998D01*
X356334Y252665D01*
X348003D01*
X358000Y260995D02*
X348003D01*
X353002Y255997D01*
Y262661D01*
X379504Y756050D02*
X387834D01*
X389500Y757716D01*
Y761048D01*
X387834Y762714D01*
X379504D01*
X389500Y772711D02*
Y766047D01*
X382836Y772711D01*
X381170D01*
X379504Y771045D01*
Y767713D01*
X381170Y766047D01*
X336500Y357500D02*
Y367497D01*
X339832Y364165D01*
X343164Y367497D01*
Y357500D01*
X346497D02*
Y367497D01*
X351495D01*
X353161Y365831D01*
Y362498D01*
X351495Y360832D01*
X346497D01*
X356493Y357500D02*
X359826D01*
X358160D01*
Y367497D01*
X356493Y365831D01*
X218664Y157331D02*
X216998Y158997D01*
X213666D01*
X212000Y157331D01*
Y150666D01*
X213666Y149000D01*
X216998D01*
X218664Y150666D01*
X226995Y158997D02*
X223663D01*
X221997Y157331D01*
Y150666D01*
X223663Y149000D01*
X226995D01*
X228661Y150666D01*
Y157331D01*
X226995Y158997D01*
X231994Y149000D02*
X235326D01*
X233660D01*
Y158997D01*
X231994Y157331D01*
X240324D02*
X241990Y158997D01*
X245323D01*
X246989Y157331D01*
Y150666D01*
X245323Y149000D01*
X241990D01*
X240324Y150666D01*
Y157331D01*
X352164Y826331D02*
X350498Y827997D01*
X347166D01*
X345500Y826331D01*
Y819666D01*
X347166Y818000D01*
X350498D01*
X352164Y819666D01*
X360495Y827997D02*
X357163D01*
X355497Y826331D01*
Y819666D01*
X357163Y818000D01*
X360495D01*
X362161Y819666D01*
Y826331D01*
X360495Y827997D01*
X365494Y819666D02*
X367160Y818000D01*
X370492D01*
X372158Y819666D01*
Y826331D01*
X370492Y827997D01*
X367160D01*
X365494Y826331D01*
Y824665D01*
X367160Y822998D01*
X372158D01*
X93165Y932331D02*
X91498Y933997D01*
X88166D01*
X86500Y932331D01*
Y925666D01*
X88166Y924000D01*
X91498D01*
X93165Y925666D01*
X101495Y933997D02*
X98163D01*
X96497Y932331D01*
Y925666D01*
X98163Y924000D01*
X101495D01*
X103161Y925666D01*
Y932331D01*
X101495Y933997D01*
X113158D02*
X109826Y932331D01*
X106494Y928998D01*
Y925666D01*
X108160Y924000D01*
X111492D01*
X113158Y925666D01*
Y927332D01*
X111492Y928998D01*
X106494D01*
X486165Y839331D02*
X484498Y840997D01*
X481166D01*
X479500Y839331D01*
Y832666D01*
X481166Y831000D01*
X484498D01*
X486165Y832666D01*
X494495Y840997D02*
X491163D01*
X489497Y839331D01*
Y832666D01*
X491163Y831000D01*
X494495D01*
X496161Y832666D01*
Y839331D01*
X494495Y840997D01*
X499494Y831000D02*
X502826D01*
X501160D01*
Y840997D01*
X499494Y839331D01*
X507824D02*
X509490Y840997D01*
X512823D01*
X514489Y839331D01*
Y837664D01*
X512823Y835998D01*
X511157D01*
X512823D01*
X514489Y834332D01*
Y832666D01*
X512823Y831000D01*
X509490D01*
X507824Y832666D01*
X294664Y499331D02*
X292998Y500997D01*
X289666D01*
X288000Y499331D01*
Y492666D01*
X289666Y491000D01*
X292998D01*
X294664Y492666D01*
X304661Y500997D02*
X297997D01*
Y495998D01*
X301329Y497664D01*
X302995D01*
X304661Y495998D01*
Y492666D01*
X302995Y491000D01*
X299663D01*
X297997Y492666D01*
X307994Y499331D02*
X309660Y500997D01*
X312992D01*
X314658Y499331D01*
Y492666D01*
X312992Y491000D01*
X309660D01*
X307994Y492666D01*
Y499331D01*
X124164Y495831D02*
X122498Y497497D01*
X119166D01*
X117500Y495831D01*
Y489166D01*
X119166Y487500D01*
X122498D01*
X124164Y489166D01*
X132495Y487500D02*
Y497497D01*
X127497Y492498D01*
X134161D01*
X137494Y489166D02*
X139160Y487500D01*
X142492D01*
X144158Y489166D01*
Y495831D01*
X142492Y497497D01*
X139160D01*
X137494Y495831D01*
Y494165D01*
X139160Y492498D01*
X144158D01*
X163165Y934831D02*
X161498Y936497D01*
X158166D01*
X156500Y934831D01*
Y928166D01*
X158166Y926500D01*
X161498D01*
X163165Y928166D01*
X171495Y926500D02*
Y936497D01*
X166497Y931498D01*
X173161D01*
X176494Y934831D02*
X178160Y936497D01*
X181492D01*
X183158Y934831D01*
Y933165D01*
X181492Y931498D01*
X183158Y929832D01*
Y928166D01*
X181492Y926500D01*
X178160D01*
X176494Y928166D01*
Y929832D01*
X178160Y931498D01*
X176494Y933165D01*
Y934831D01*
X178160Y931498D02*
X181492D01*
X142000Y683497D02*
Y675166D01*
X143666Y673500D01*
X146998D01*
X148665Y675166D01*
Y683497D01*
X151997Y681831D02*
X153663Y683497D01*
X156995D01*
X158661Y681831D01*
Y680164D01*
X156995Y678498D01*
X155329D01*
X156995D01*
X158661Y676832D01*
Y675166D01*
X156995Y673500D01*
X153663D01*
X151997Y675166D01*
X46164Y868831D02*
X44498Y870497D01*
X41166D01*
X39500Y868831D01*
Y862166D01*
X41166Y860500D01*
X44498D01*
X46164Y862166D01*
X54495Y870497D02*
X51163D01*
X49497Y868831D01*
Y862166D01*
X51163Y860500D01*
X54495D01*
X56161Y862166D01*
Y868831D01*
X54495Y870497D01*
X59494Y860500D02*
X62826D01*
X61160D01*
Y870497D01*
X59494Y868831D01*
X67824Y860500D02*
X71156D01*
X69490D01*
Y870497D01*
X67824Y868831D01*
X479000Y510997D02*
X485664D01*
X482332D01*
Y501000D01*
X488997D02*
Y510997D01*
X493995D01*
X495661Y509331D01*
Y505998D01*
X493995Y504332D01*
X488997D01*
X555500Y298000D02*
X545503D01*
X548835Y301332D01*
X545503Y304664D01*
X555500D01*
Y309663D02*
Y312995D01*
X553834Y314661D01*
X550502D01*
X548835Y312995D01*
Y309663D01*
X550502Y307997D01*
X553834D01*
X555500Y309663D01*
X545503Y324658D02*
X555500D01*
Y319660D01*
X553834Y317994D01*
X550502D01*
X548835Y319660D01*
Y324658D01*
X555500Y332989D02*
Y329656D01*
X553834Y327990D01*
X550502D01*
X548835Y329656D01*
Y332989D01*
X550502Y334655D01*
X552168D01*
Y327990D01*
X555000Y157500D02*
X545003D01*
Y162498D01*
X546669Y164165D01*
X550002D01*
X551668Y162498D01*
Y157500D01*
X555000Y169163D02*
Y172495D01*
X553334Y174161D01*
X550002D01*
X548335Y172495D01*
Y169163D01*
X550002Y167497D01*
X553334D01*
X555000Y169163D01*
X548335Y177493D02*
X553334D01*
X555000Y179160D01*
X553334Y180826D01*
X555000Y182492D01*
X553334Y184158D01*
X548335D01*
X555000Y192489D02*
Y189156D01*
X553334Y187490D01*
X550002D01*
X548335Y189156D01*
Y192489D01*
X550002Y194155D01*
X551668D01*
Y187490D01*
X548335Y197487D02*
X555000D01*
X551668D01*
X550002Y199153D01*
X548335Y200819D01*
Y202486D01*
X431500Y394500D02*
Y404497D01*
X436498D01*
X438164Y402831D01*
Y399498D01*
X436498Y397832D01*
X431500D01*
X434832D02*
X438164Y394500D01*
X446495D02*
X443163D01*
X441497Y396166D01*
Y399498D01*
X443163Y401165D01*
X446495D01*
X448161Y399498D01*
Y397832D01*
X441497D01*
X451494Y394500D02*
X456492D01*
X458158Y396166D01*
X456492Y397832D01*
X453160D01*
X451494Y399498D01*
X453160Y401165D01*
X458158D01*
X466489Y394500D02*
X463157D01*
X461490Y396166D01*
Y399498D01*
X463157Y401165D01*
X466489D01*
X468155Y399498D01*
Y397832D01*
X461490D01*
X473153Y402831D02*
Y401165D01*
X471487D01*
X474819D01*
X473153D01*
Y396166D01*
X474819Y394500D01*
X40000Y329000D02*
Y343995D01*
X47498D01*
X49997Y341496D01*
Y336498D01*
X47498Y333998D01*
X40000D01*
X44998D02*
X49997Y329000D01*
X54995D02*
X59994D01*
X57494D01*
Y338997D01*
X54995D01*
X72490Y324002D02*
X74989D01*
X77488Y326501D01*
Y338997D01*
X69990D01*
X67491Y336498D01*
Y331499D01*
X69990Y329000D01*
X77488D01*
X82486Y343995D02*
Y329000D01*
Y336498D01*
X84985Y338997D01*
X89984D01*
X92483Y336498D01*
Y329000D01*
X99981Y341496D02*
Y338997D01*
X97481D01*
X102480D01*
X99981D01*
Y331499D01*
X102480Y329000D01*
X194000Y343495D02*
Y328500D01*
X203997D01*
X216493D02*
X211494D01*
X208995Y330999D01*
Y335998D01*
X211494Y338497D01*
X216493D01*
X218992Y335998D01*
Y333498D01*
X208995D01*
X226490Y328500D02*
Y340996D01*
Y335998D01*
X223990D01*
X228989D01*
X226490D01*
Y340996D01*
X228989Y343495D01*
X238985Y340996D02*
Y338497D01*
X236486D01*
X241485D01*
X238985D01*
Y330999D01*
X241485Y328500D01*
X29500Y587995D02*
Y573000D01*
X39497D01*
X54492Y585496D02*
X51993Y587995D01*
X46994D01*
X44495Y585496D01*
Y575499D01*
X46994Y573000D01*
X51993D01*
X54492Y575499D01*
X59490Y587995D02*
Y573000D01*
X66988D01*
X69487Y575499D01*
Y585496D01*
X66988Y587995D01*
X59490D01*
X357164Y57997D02*
X350500D01*
Y52998D01*
X353832D01*
X350500D01*
Y48000D01*
X360497Y57997D02*
Y48000D01*
Y52998D01*
X367161D01*
Y57997D01*
Y48000D01*
X377158Y57997D02*
X373826D01*
X375492D01*
Y49666D01*
X373826Y48000D01*
X372160D01*
X370494Y49666D01*
X390487Y57997D02*
Y51332D01*
X393819Y48000D01*
X397152Y51332D01*
Y57997D01*
X407148D02*
X400484D01*
Y52998D01*
X403816Y54665D01*
X405482D01*
X407148Y52998D01*
Y49666D01*
X405482Y48000D01*
X402150D01*
X400484Y49666D01*
X410481Y48000D02*
Y49666D01*
X412147D01*
Y48000D01*
X410481D01*
X418811Y56331D02*
X420477Y57997D01*
X423810D01*
X425476Y56331D01*
Y49666D01*
X423810Y48000D01*
X420477D01*
X418811Y49666D01*
Y56331D01*
X350664Y144497D02*
X344000D01*
Y134500D01*
X350664D01*
X344000Y139498D02*
X347332D01*
X360661Y142831D02*
X358995Y144497D01*
X355663D01*
X353997Y142831D01*
Y136166D01*
X355663Y134500D01*
X358995D01*
X360661Y136166D01*
X370658Y144497D02*
X363994D01*
Y134500D01*
X370658D01*
X363994Y139498D02*
X367326D01*
M02*
