G04 Layer_Physical_Order=3*
G04 Layer_Color=16440176*
%FSLAX44Y44*%
%MOMM*%
G71*
G01*
G75*
%ADD49C,0.2000*%
%ADD51C,0.3000*%
%ADD52C,0.1000*%
%ADD53C,4.2000*%
%ADD54O,1.9000X1.0500*%
%ADD56C,1.6500*%
%ADD57C,1.9000*%
%ADD58R,1.9000X1.9000*%
%ADD59C,1.6000*%
%ADD60R,1.9000X1.9000*%
%ADD61C,6.0000*%
%ADD62C,5.5000*%
%ADD64C,0.6000*%
G36*
X264260Y1001922D02*
X262405Y1001153D01*
X258178Y998563D01*
X254407Y995343D01*
X251187Y991572D01*
X248596Y987345D01*
X246699Y982764D01*
X245542Y977943D01*
X245153Y973000D01*
X245542Y968057D01*
X246699Y963236D01*
X248596Y958655D01*
X251187Y954427D01*
X254407Y950657D01*
X258178Y947437D01*
X262405Y944846D01*
X266986Y942949D01*
X271807Y941792D01*
X276750Y941403D01*
X281693Y941792D01*
X286514Y942949D01*
X291095Y944846D01*
X295322Y947437D01*
X299093Y950657D01*
X302313Y954427D01*
X304904Y958655D01*
X305893Y961043D01*
X306821Y961211D01*
X308015Y961028D01*
X308093Y960634D01*
X309594Y957011D01*
X309817Y956677D01*
X309971Y956306D01*
X312149Y953046D01*
X312433Y952762D01*
X312656Y952428D01*
X315428Y949656D01*
X315762Y949433D01*
X316046Y949149D01*
X319306Y946971D01*
X319677Y946817D01*
X320011Y946594D01*
X323634Y945093D01*
X324027Y945015D01*
X324399Y944861D01*
X328244Y944096D01*
X328546D01*
X328840Y944023D01*
X330800Y943927D01*
X330900Y943942D01*
X331000Y943922D01*
X580000D01*
X581568Y943922D01*
X584644Y943310D01*
X587542Y942110D01*
X590149Y940367D01*
X592367Y938150D01*
X594110Y935542D01*
X595310Y932644D01*
X595922Y929568D01*
X595922Y928000D01*
X595922Y677541D01*
X593922Y677244D01*
X592888Y680652D01*
X590799Y684561D01*
X587987Y687987D01*
X584561Y690799D01*
X582000Y692167D01*
Y672000D01*
Y651833D01*
X584561Y653201D01*
X587987Y656013D01*
X590799Y659439D01*
X592888Y663348D01*
X593922Y666756D01*
X595922Y666459D01*
X595922Y203426D01*
Y202153D01*
X595672Y199618D01*
X595175Y197120D01*
X594436Y194683D01*
X593461Y192330D01*
X592260Y190084D01*
X590845Y187966D01*
X589230Y185997D01*
X588329Y185097D01*
X456903Y53671D01*
X456903Y53670D01*
X456003Y52770D01*
X454034Y51154D01*
X451917Y49739D01*
X449670Y48539D01*
X447318Y47564D01*
X444880Y46825D01*
X442382Y46328D01*
X439847Y46078D01*
X312000D01*
X310439Y45768D01*
X309116Y44884D01*
X308232Y43561D01*
X307922Y42000D01*
X307922Y36000D01*
X307922Y35999D01*
X307922Y35999D01*
X307922Y33782D01*
X307310Y29391D01*
X306096Y25126D01*
X304305Y21070D01*
X301971Y17300D01*
X299138Y13888D01*
X295861Y10901D01*
X292203Y8396D01*
X288233Y6420D01*
X284029Y5011D01*
X279670Y4197D01*
X275241Y3993D01*
X270826Y4403D01*
X266510Y5419D01*
X262375Y7022D01*
X258502Y9180D01*
X254965Y11853D01*
X251830Y14990D01*
X249159Y18529D01*
X247003Y22403D01*
X246204Y24470D01*
X246178Y24512D01*
X246168Y24561D01*
X245752Y25183D01*
X245352Y25814D01*
X245311Y25842D01*
X245284Y25884D01*
X244662Y26299D01*
X244050Y26730D01*
X244002Y26740D01*
X243961Y26768D01*
X243227Y26914D01*
X242497Y27077D01*
X242448Y27069D01*
X242400Y27078D01*
X69600Y27078D01*
X69559Y27070D01*
X69517Y27077D01*
X68779Y26915D01*
X68039Y26768D01*
X68004Y26744D01*
X67963Y26735D01*
X67344Y26303D01*
X66716Y25884D01*
X66693Y25849D01*
X66658Y25824D01*
X66252Y25188D01*
X65832Y24561D01*
X65824Y24519D01*
X65801Y24483D01*
X64996Y22422D01*
X62832Y18559D01*
X60157Y15032D01*
X57021Y11908D01*
X53484Y9245D01*
X49613Y7096D01*
X45483Y5501D01*
X41173Y4491D01*
X36765Y4084D01*
X32342Y4289D01*
X27991Y5102D01*
X23792Y6507D01*
X19828Y8477D01*
X16173Y10976D01*
X12898Y13954D01*
X10064Y17355D01*
X7727Y21115D01*
X5930Y25161D01*
X4708Y29416D01*
X4084Y33798D01*
X4078Y36001D01*
Y170798D01*
X6078Y171035D01*
X6084Y171011D01*
X7831Y166794D01*
X10216Y162901D01*
X13181Y159431D01*
X16652Y156466D01*
X20544Y154081D01*
X24761Y152334D01*
X29199Y151269D01*
X33750Y150910D01*
X38301Y151269D01*
X42739Y152334D01*
X46956Y154081D01*
X50848Y156466D01*
X54320Y159431D01*
X57284Y162901D01*
X59669Y166794D01*
X61416Y171011D01*
X62481Y175449D01*
X62840Y180000D01*
X62481Y184551D01*
X61416Y188989D01*
X59669Y193206D01*
X57284Y197099D01*
X54320Y200569D01*
X50848Y203534D01*
X46956Y205919D01*
X42739Y207666D01*
X38301Y208731D01*
X33750Y209090D01*
X29199Y208731D01*
X24761Y207666D01*
X20544Y205919D01*
X16652Y203534D01*
X13181Y200569D01*
X10216Y197099D01*
X7831Y193206D01*
X6084Y188989D01*
X6078Y188965D01*
X4078Y189202D01*
Y286798D01*
X6078Y287035D01*
X6084Y287011D01*
X7831Y282794D01*
X10216Y278902D01*
X13181Y275431D01*
X16652Y272466D01*
X20544Y270081D01*
X24761Y268334D01*
X29199Y267269D01*
X33750Y266910D01*
X38301Y267269D01*
X42739Y268334D01*
X46956Y270081D01*
X50848Y272466D01*
X54320Y275431D01*
X57284Y278902D01*
X59669Y282794D01*
X61416Y287011D01*
X62481Y291449D01*
X62840Y296000D01*
X62481Y300551D01*
X61416Y304989D01*
X59669Y309206D01*
X57284Y313099D01*
X54320Y316569D01*
X50848Y319534D01*
X46956Y321919D01*
X42739Y323666D01*
X38301Y324731D01*
X33750Y325090D01*
X29199Y324731D01*
X24761Y323666D01*
X20544Y321919D01*
X16652Y319534D01*
X13181Y316569D01*
X10216Y313099D01*
X7831Y309206D01*
X6084Y304989D01*
X6078Y304965D01*
X4078Y305201D01*
Y412096D01*
X6821Y412445D01*
X7202Y412573D01*
X7600Y412623D01*
X11607Y413965D01*
X11955Y414164D01*
X12336Y414291D01*
X16004Y416389D01*
X16307Y416652D01*
X16656Y416851D01*
X19844Y419624D01*
X20090Y419941D01*
X20393Y420205D01*
X22979Y423546D01*
X23158Y423905D01*
X23404Y424223D01*
X25289Y428004D01*
X25394Y428392D01*
X25573Y428751D01*
X26437Y431922D01*
X50000D01*
X50133Y431948D01*
X50267Y431931D01*
X52094Y432050D01*
X52482Y432154D01*
X52883Y432180D01*
X56413Y433126D01*
X56891Y433362D01*
X57397Y433534D01*
X60562Y435361D01*
X60963Y435713D01*
X61406Y436009D01*
X63991Y438594D01*
X64287Y439037D01*
X64639Y439438D01*
X66466Y442603D01*
X66638Y443108D01*
X66874Y443587D01*
X67819Y447117D01*
X67854Y447649D01*
X67958Y448173D01*
Y451827D01*
X67854Y452351D01*
X67819Y452883D01*
X66874Y456413D01*
X66638Y456892D01*
X66466Y457397D01*
X64639Y460562D01*
X64287Y460963D01*
X63991Y461406D01*
X61406Y463991D01*
X60963Y464287D01*
X60562Y464639D01*
X57397Y466466D01*
X56892Y466637D01*
X56413Y466874D01*
X52883Y467820D01*
X52482Y467846D01*
X52094Y467950D01*
X50267Y468069D01*
X50133Y468052D01*
X50000Y468078D01*
X26088Y468078D01*
X24941Y471000D01*
X24724Y471338D01*
X24578Y471712D01*
X22481Y474981D01*
X22202Y475270D01*
X21985Y475608D01*
X19291Y478406D01*
X18961Y478635D01*
X18683Y478924D01*
X15494Y481142D01*
X15126Y481303D01*
X14796Y481532D01*
X11237Y483086D01*
X10844Y483171D01*
X10476Y483332D01*
X6682Y484161D01*
X6280Y484169D01*
X5888Y484254D01*
X4078Y484288D01*
X4078Y860918D01*
X6364Y861090D01*
X6751Y861198D01*
X7152Y861228D01*
X11052Y862313D01*
X11410Y862494D01*
X11797Y862602D01*
X15411Y864427D01*
X15727Y864674D01*
X16086Y864855D01*
X19274Y867351D01*
X19536Y867655D01*
X19852Y867903D01*
X22493Y870972D01*
X22690Y871322D01*
X22952Y871626D01*
X24943Y875151D01*
X25068Y875533D01*
X25266Y875883D01*
X26265Y878922D01*
X50000D01*
X50133Y878948D01*
X50267Y878931D01*
X52094Y879050D01*
X52482Y879154D01*
X52883Y879181D01*
X56413Y880126D01*
X56891Y880362D01*
X57397Y880534D01*
X60562Y882361D01*
X60963Y882713D01*
X61406Y883009D01*
X63991Y885594D01*
X64287Y886037D01*
X64639Y886438D01*
X66466Y889603D01*
X66638Y890108D01*
X66874Y890587D01*
X67819Y894117D01*
X67854Y894649D01*
X67958Y895173D01*
Y898827D01*
X67854Y899351D01*
X67819Y899883D01*
X66874Y903413D01*
X66638Y903892D01*
X66466Y904397D01*
X64639Y907562D01*
X64287Y907963D01*
X63991Y908406D01*
X61406Y910991D01*
X60963Y911287D01*
X60562Y911639D01*
X57397Y913466D01*
X56892Y913637D01*
X56413Y913874D01*
X52883Y914819D01*
X52482Y914846D01*
X52094Y914950D01*
X50267Y915070D01*
X50133Y915052D01*
X50000Y915078D01*
X26265Y915078D01*
X25266Y918117D01*
X25068Y918467D01*
X24943Y918848D01*
X22952Y922374D01*
X22690Y922678D01*
X22493Y923028D01*
X19852Y926097D01*
X19536Y926345D01*
X19274Y926649D01*
X16086Y929144D01*
X15727Y929325D01*
X15411Y929573D01*
X11797Y931398D01*
X11410Y931506D01*
X11052Y931687D01*
X7152Y932772D01*
X6751Y932802D01*
X6364Y932910D01*
X4078Y933082D01*
X4078Y965584D01*
X6079Y965821D01*
X6699Y963236D01*
X8597Y958655D01*
X11187Y954427D01*
X14407Y950657D01*
X18177Y947437D01*
X22405Y944846D01*
X26986Y942949D01*
X31807Y941792D01*
X36750Y941403D01*
X41693Y941792D01*
X46514Y942949D01*
X51095Y944846D01*
X55322Y947437D01*
X59093Y950657D01*
X62313Y954427D01*
X64903Y958655D01*
X66801Y963236D01*
X67958Y968057D01*
X68347Y973000D01*
X67958Y977943D01*
X66801Y982764D01*
X64903Y987345D01*
X62313Y991572D01*
X59093Y995343D01*
X55322Y998563D01*
X51095Y1001153D01*
X49240Y1001922D01*
X49638Y1003922D01*
X117197D01*
X117629Y1000639D01*
X117716Y1000385D01*
X117733Y1000116D01*
X118918Y995694D01*
X119037Y995453D01*
X119090Y995189D01*
X120842Y990959D01*
X120991Y990735D01*
X121078Y990481D01*
X123367Y986516D01*
X123544Y986314D01*
X123663Y986072D01*
X126450Y982440D01*
X126652Y982263D01*
X126802Y982039D01*
X130039Y978802D01*
X130263Y978652D01*
X130440Y978450D01*
X134072Y975663D01*
X134314Y975544D01*
X134516Y975367D01*
X138481Y973078D01*
X138736Y972991D01*
X138959Y972842D01*
X143189Y971090D01*
X143453Y971037D01*
X143694Y970918D01*
X148116Y969733D01*
X148385Y969716D01*
X148639Y969629D01*
X153179Y969032D01*
X153380Y969045D01*
X153577Y968999D01*
X155867Y968924D01*
X156000Y968946D01*
X156133Y968924D01*
X158422Y968999D01*
X158620Y969045D01*
X158821Y969032D01*
X163361Y969629D01*
X163615Y969716D01*
X163884Y969733D01*
X168306Y970918D01*
X168547Y971037D01*
X168811Y971090D01*
X173041Y972842D01*
X173265Y972991D01*
X173519Y973078D01*
X177484Y975367D01*
X177686Y975544D01*
X177928Y975663D01*
X181560Y978450D01*
X181737Y978652D01*
X181961Y978802D01*
X185198Y982039D01*
X185348Y982263D01*
X185550Y982440D01*
X188337Y986072D01*
X188456Y986314D01*
X188633Y986516D01*
X190922Y990481D01*
X191009Y990735D01*
X191158Y990959D01*
X192910Y995189D01*
X192963Y995453D01*
X193082Y995694D01*
X194267Y1000116D01*
X194284Y1000385D01*
X194371Y1000639D01*
X194803Y1003922D01*
X263862D01*
X264260Y1001922D01*
D02*
G37*
%LPC*%
G36*
X281500Y489088D02*
X279744Y488739D01*
X278256Y487744D01*
X277261Y486256D01*
X276912Y484500D01*
X277075Y483680D01*
X253198Y459802D01*
X252645Y458975D01*
X252451Y458000D01*
Y390056D01*
X247371Y384976D01*
X246548Y385608D01*
X243872Y386717D01*
X241000Y387095D01*
X238128Y386717D01*
X235452Y385608D01*
X233155Y383845D01*
X231392Y381548D01*
X230283Y378872D01*
X229905Y376000D01*
X230283Y373128D01*
X231392Y370452D01*
X233155Y368155D01*
X235452Y366391D01*
X238128Y365283D01*
X241000Y364905D01*
X243872Y365283D01*
X246548Y366391D01*
X248845Y368155D01*
X250609Y370452D01*
X251717Y373128D01*
X252095Y376000D01*
X251717Y378872D01*
X250768Y381163D01*
X253152Y383548D01*
X255000Y382782D01*
Y365000D01*
X277000D01*
Y387000D01*
X259035D01*
X258794Y387147D01*
X257549Y389000D01*
Y456944D01*
X280680Y480075D01*
X281500Y479912D01*
X283256Y480261D01*
X284744Y481256D01*
X285739Y482744D01*
X286088Y484500D01*
X285739Y486256D01*
X284744Y487744D01*
X283256Y488739D01*
X281500Y489088D01*
D02*
G37*
G36*
X234300Y492138D02*
X232544Y491789D01*
X231056Y490794D01*
X230061Y489306D01*
X229712Y487550D01*
X230061Y485794D01*
X230575Y485025D01*
X230061Y484256D01*
X229712Y482500D01*
X230061Y480744D01*
X231056Y479256D01*
X232544Y478261D01*
X234300Y477912D01*
X236056Y478261D01*
X237544Y479256D01*
X238539Y480744D01*
X238888Y482500D01*
X238539Y484256D01*
X238025Y485025D01*
X238539Y485794D01*
X238888Y487550D01*
X238539Y489306D01*
X237544Y490794D01*
X236056Y491789D01*
X234300Y492138D01*
D02*
G37*
G36*
X427750Y481597D02*
X422807Y481208D01*
X417986Y480051D01*
X413405Y478153D01*
X409178Y475563D01*
X405407Y472343D01*
X402187Y468573D01*
X399596Y464345D01*
X397699Y459764D01*
X396542Y454943D01*
X396153Y450000D01*
X396542Y445057D01*
X397699Y440236D01*
X399596Y435655D01*
X402187Y431427D01*
X405407Y427657D01*
X409178Y424437D01*
X413405Y421847D01*
X417986Y419949D01*
X422807Y418792D01*
X427750Y418403D01*
X432693Y418792D01*
X437514Y419949D01*
X442095Y421847D01*
X446323Y424437D01*
X450093Y427657D01*
X453313Y431427D01*
X455904Y435655D01*
X457801Y440236D01*
X458958Y445057D01*
X459347Y450000D01*
X458958Y454943D01*
X457801Y459764D01*
X455904Y464345D01*
X453313Y468573D01*
X450093Y472343D01*
X446323Y475563D01*
X442095Y478153D01*
X437514Y480051D01*
X432693Y481208D01*
X427750Y481597D01*
D02*
G37*
G36*
X559000Y643124D02*
X537500D01*
X536352Y642648D01*
X535876Y641500D01*
Y496000D01*
X536352Y494852D01*
X537500Y494376D01*
X559000D01*
X560148Y494852D01*
X560512Y495730D01*
X562400Y496000D01*
X562624Y496000D01*
X568400D01*
Y507000D01*
Y518000D01*
X562624D01*
X562400Y518000D01*
X560624Y518540D01*
Y523460D01*
X562400Y524000D01*
X562624Y524000D01*
X568400D01*
Y535000D01*
Y546000D01*
X562624D01*
X562400Y546000D01*
X560624Y546540D01*
Y619460D01*
X562400Y620000D01*
X562624Y620000D01*
X568400D01*
Y631000D01*
Y642000D01*
X562471D01*
X562400Y642000D01*
X560408Y642020D01*
X560148Y642648D01*
X559000Y643124D01*
D02*
G37*
G36*
X281000Y502588D02*
X279244Y502239D01*
X277756Y501244D01*
X277291Y500549D01*
X269500D01*
X268524Y500355D01*
X267698Y499802D01*
X226944Y459049D01*
X221520D01*
X220798Y460791D01*
X219275Y462775D01*
X217291Y464298D01*
X214980Y465256D01*
X212500Y465582D01*
X210020Y465256D01*
X207709Y464298D01*
X205725Y462775D01*
X204202Y460791D01*
X203245Y458480D01*
X202918Y456000D01*
X203245Y453520D01*
X204202Y451209D01*
X205725Y449225D01*
X207709Y447702D01*
X210020Y446744D01*
X212500Y446418D01*
X214980Y446744D01*
X217291Y447702D01*
X219275Y449225D01*
X220798Y451209D01*
X221756Y453520D01*
X221812Y453951D01*
X228000D01*
X228976Y454145D01*
X229802Y454698D01*
X270556Y495451D01*
X277291D01*
X277756Y494756D01*
X279244Y493761D01*
X281000Y493412D01*
X282756Y493761D01*
X284244Y494756D01*
X285239Y496244D01*
X285588Y498000D01*
X285239Y499756D01*
X284244Y501244D01*
X282756Y502239D01*
X281000Y502588D01*
D02*
G37*
G36*
X253000Y500588D02*
X251244Y500239D01*
X249756Y499244D01*
X248761Y497756D01*
X248412Y496000D01*
X248761Y494244D01*
X249756Y492756D01*
X251244Y491761D01*
X253000Y491412D01*
X254756Y491761D01*
X256244Y492756D01*
X257239Y494244D01*
X257588Y496000D01*
X257239Y497756D01*
X256244Y499244D01*
X254756Y500239D01*
X253000Y500588D01*
D02*
G37*
G36*
X238750Y422388D02*
X236994Y422039D01*
X235506Y421044D01*
X234511Y419556D01*
X234162Y417800D01*
X234511Y416044D01*
X235109Y415150D01*
X234511Y414256D01*
X234211Y412747D01*
X233500Y412888D01*
X231744Y412539D01*
X230838Y411933D01*
X230006Y412489D01*
X228250Y412838D01*
X226494Y412489D01*
X225006Y411494D01*
X224011Y410006D01*
X223662Y408250D01*
X224011Y406494D01*
X225006Y405006D01*
X226494Y404011D01*
X228250Y403662D01*
X230006Y404011D01*
X230912Y404617D01*
X231744Y404061D01*
X233500Y403712D01*
X235256Y404061D01*
X236744Y405056D01*
X237739Y406544D01*
X238039Y408053D01*
X238750Y407912D01*
X240506Y408261D01*
X241994Y409256D01*
X242989Y410744D01*
X243338Y412500D01*
X242989Y414256D01*
X242391Y415150D01*
X242989Y416044D01*
X243338Y417800D01*
X242989Y419556D01*
X241994Y421044D01*
X240506Y422039D01*
X238750Y422388D01*
D02*
G37*
G36*
X43500Y386766D02*
X43128Y386717D01*
X40453Y385608D01*
X38155Y383845D01*
X36391Y381548D01*
X35283Y378872D01*
X35234Y378500D01*
X43500D01*
Y386766D01*
D02*
G37*
G36*
X188500D02*
X188128Y386717D01*
X185452Y385608D01*
X183155Y383845D01*
X181392Y381548D01*
X180283Y378872D01*
X180234Y378500D01*
X188500D01*
Y386766D01*
D02*
G37*
G36*
X201766Y373500D02*
X193500D01*
Y365234D01*
X193872Y365283D01*
X196548Y366391D01*
X198845Y368155D01*
X200609Y370452D01*
X201717Y373128D01*
X201766Y373500D01*
D02*
G37*
G36*
X99250Y421588D02*
X97494Y421239D01*
X96006Y420244D01*
X95011Y418756D01*
X94662Y417000D01*
X95011Y415244D01*
X95508Y414500D01*
X95011Y413756D01*
X94662Y412000D01*
X95011Y410244D01*
X96006Y408756D01*
X97494Y407761D01*
X99250Y407412D01*
X99897Y407541D01*
X100756Y406256D01*
X102244Y405261D01*
X104000Y404912D01*
X105756Y405261D01*
X106500Y405758D01*
X107244Y405261D01*
X109000Y404912D01*
X110756Y405261D01*
X112244Y406256D01*
X113239Y407744D01*
X113588Y409500D01*
X113239Y411256D01*
X112244Y412744D01*
X110756Y413739D01*
X109000Y414088D01*
X107244Y413739D01*
X106500Y413242D01*
X105756Y413739D01*
X104990Y413891D01*
X103850Y414919D01*
X103648Y416042D01*
X103838Y417000D01*
X103489Y418756D01*
X102494Y420244D01*
X101006Y421239D01*
X99250Y421588D01*
D02*
G37*
G36*
X193500Y386766D02*
Y378500D01*
X201766D01*
X201717Y378872D01*
X200609Y381548D01*
X198845Y383845D01*
X196548Y385608D01*
X193872Y386717D01*
X193500Y386766D01*
D02*
G37*
G36*
X48500Y386766D02*
Y378500D01*
X56766D01*
X56717Y378872D01*
X55609Y381548D01*
X53845Y383845D01*
X51547Y385608D01*
X48872Y386717D01*
X48500Y386766D01*
D02*
G37*
G36*
X584400Y502000D02*
X578400D01*
Y496000D01*
X584400D01*
Y502000D01*
D02*
G37*
G36*
X522600Y546095D02*
X519728Y545717D01*
X517052Y544608D01*
X514755Y542845D01*
X512991Y540547D01*
X511883Y537872D01*
X511505Y535000D01*
X511883Y532128D01*
X512991Y529453D01*
X514755Y527155D01*
X517052Y525392D01*
X519728Y524283D01*
X522600Y523905D01*
X525472Y524283D01*
X528148Y525392D01*
X530445Y527155D01*
X532209Y529453D01*
X533317Y532128D01*
X533695Y535000D01*
X533317Y537872D01*
X532209Y540547D01*
X530445Y542845D01*
X528148Y544608D01*
X525472Y545717D01*
X522600Y546095D01*
D02*
G37*
G36*
X286499Y617587D02*
X284744Y617238D01*
X283255Y616243D01*
X282260Y614755D01*
X281911Y612999D01*
X282260Y611243D01*
X283255Y609754D01*
X284744Y608760D01*
X285975Y608515D01*
X287912Y608000D01*
X288261Y606244D01*
X289256Y604756D01*
X290744Y603761D01*
X292500Y603412D01*
X293737Y603658D01*
X295951Y601444D01*
Y522249D01*
X295951Y522249D01*
Y518717D01*
X294103Y517951D01*
X272049Y540005D01*
Y543291D01*
X272744Y543756D01*
X273739Y545244D01*
X274088Y547000D01*
X273739Y548756D01*
X272744Y550244D01*
X271256Y551239D01*
X269500Y551588D01*
X267744Y551239D01*
X266256Y550244D01*
X265261Y548756D01*
X264912Y547000D01*
X265017Y546471D01*
X264999Y546430D01*
X263284Y544932D01*
X262500Y545088D01*
X260744Y544739D01*
X259256Y543744D01*
X258261Y542256D01*
X257912Y540500D01*
X258261Y538744D01*
X259256Y537256D01*
X260744Y536261D01*
X262500Y535912D01*
X263320Y536075D01*
X288951Y510444D01*
Y468101D01*
X289145Y467125D01*
X289698Y466298D01*
X294401Y461595D01*
Y385209D01*
X293706Y384744D01*
X292711Y383256D01*
X292362Y381500D01*
X292711Y379744D01*
X293706Y378256D01*
X295194Y377261D01*
X296950Y376912D01*
X298706Y377261D01*
X300194Y378256D01*
X301189Y379744D01*
X301200Y379799D01*
X303333Y380269D01*
X303451Y380125D01*
Y286550D01*
X303645Y285575D01*
X304198Y284748D01*
X375951Y212994D01*
Y190394D01*
X373951Y189715D01*
X373176Y190725D01*
X371191Y192248D01*
X368880Y193206D01*
X366400Y193532D01*
X363920Y193206D01*
X361609Y192248D01*
X359625Y190725D01*
X358102Y188741D01*
X357145Y186430D01*
X356818Y183950D01*
X357145Y181470D01*
X358102Y179159D01*
X359625Y177175D01*
X361609Y175652D01*
X363920Y174694D01*
X366400Y174368D01*
X368880Y174694D01*
X371191Y175652D01*
X373176Y177175D01*
X373951Y178185D01*
X375951Y177506D01*
Y175972D01*
X376145Y174996D01*
X376698Y174170D01*
X382169Y168698D01*
X382996Y168145D01*
X383972Y167951D01*
X426850D01*
X427826Y168145D01*
X428652Y168698D01*
X431495Y171540D01*
X432606Y171761D01*
X434094Y172756D01*
X435089Y174244D01*
X435438Y176000D01*
X435089Y177756D01*
X434094Y179244D01*
X432606Y180239D01*
X430850Y180588D01*
X429094Y180239D01*
X427982Y179496D01*
X426911Y179375D01*
X425049Y180971D01*
Y184900D01*
X424855Y185875D01*
X424302Y186702D01*
X319049Y291955D01*
Y369444D01*
X328556Y378951D01*
X333291D01*
X333756Y378256D01*
X335244Y377261D01*
X337000Y376912D01*
X338756Y377261D01*
X340244Y378256D01*
X341239Y379744D01*
X341588Y381500D01*
X341239Y383256D01*
X340244Y384744D01*
X338756Y385739D01*
X337000Y386088D01*
X335244Y385739D01*
X333756Y384744D01*
X333291Y384049D01*
X327500D01*
X326525Y383855D01*
X325698Y383302D01*
X317397Y375001D01*
X315549Y375767D01*
Y461450D01*
X315355Y462425D01*
X314802Y463252D01*
X304549Y473506D01*
Y520799D01*
X304549Y520799D01*
Y607500D01*
X304355Y608475D01*
X303802Y609302D01*
X297802Y615302D01*
X296975Y615855D01*
X296000Y616049D01*
X289874D01*
X289744Y616243D01*
X288255Y617238D01*
X286499Y617587D01*
D02*
G37*
G36*
X461000Y537082D02*
X458520Y536755D01*
X456209Y535798D01*
X454225Y534276D01*
X452702Y532291D01*
X451744Y529980D01*
X451418Y527500D01*
X451744Y525020D01*
X452702Y522709D01*
X454225Y520725D01*
X456209Y519202D01*
X458520Y518245D01*
X461000Y517918D01*
X463480Y518245D01*
X465791Y519202D01*
X467775Y520725D01*
X469298Y522709D01*
X470255Y525020D01*
X470582Y527500D01*
X470255Y529980D01*
X469298Y532291D01*
X467775Y534276D01*
X465791Y535798D01*
X463480Y536755D01*
X461000Y537082D01*
D02*
G37*
G36*
X578400Y546000D02*
Y540000D01*
X584400D01*
Y546000D01*
X578400D01*
D02*
G37*
G36*
X320500Y548588D02*
X318744Y548239D01*
X317256Y547244D01*
X316261Y545756D01*
X315912Y544000D01*
X316075Y543180D01*
X314298Y541402D01*
X313745Y540575D01*
X313551Y539600D01*
Y488209D01*
X312856Y487744D01*
X311861Y486256D01*
X311512Y484500D01*
X311861Y482744D01*
X312856Y481256D01*
X314344Y480261D01*
X316100Y479912D01*
X317856Y480261D01*
X319344Y481256D01*
X320339Y482744D01*
X320688Y484500D01*
X320339Y486256D01*
X319344Y487744D01*
X318649Y488209D01*
Y538041D01*
X320271Y539457D01*
X320500Y539412D01*
X322256Y539761D01*
X323744Y540756D01*
X324739Y542244D01*
X325088Y544000D01*
X324739Y545756D01*
X323744Y547244D01*
X322256Y548239D01*
X320500Y548588D01*
D02*
G37*
G36*
X584400Y530000D02*
X578400D01*
Y524000D01*
X584400D01*
Y530000D01*
D02*
G37*
G36*
X578400Y518000D02*
Y512000D01*
X584400D01*
Y518000D01*
X578400D01*
D02*
G37*
G36*
X274000Y512588D02*
X272244Y512239D01*
X270756Y511244D01*
X270291Y510549D01*
X224500D01*
X223524Y510355D01*
X222698Y509802D01*
X211198Y498302D01*
X210645Y497476D01*
X210451Y496500D01*
Y479056D01*
X197944Y466549D01*
X97000D01*
X96025Y466355D01*
X95198Y465802D01*
X93868Y464473D01*
X91980Y465256D01*
X89500Y465582D01*
X87020Y465256D01*
X84709Y464298D01*
X82725Y462775D01*
X81202Y460791D01*
X80245Y458480D01*
X79918Y456000D01*
X80245Y453520D01*
X81202Y451209D01*
X82725Y449225D01*
X84709Y447702D01*
X87020Y446744D01*
X89500Y446418D01*
X91980Y446744D01*
X94291Y447702D01*
X96275Y449225D01*
X97798Y451209D01*
X98756Y453520D01*
X99082Y456000D01*
X98756Y458480D01*
X98353Y459451D01*
X99690Y461451D01*
X199000D01*
X199975Y461645D01*
X200802Y462198D01*
X214802Y476198D01*
X215355Y477025D01*
X215549Y478000D01*
Y495444D01*
X225556Y505451D01*
X270291D01*
X270756Y504756D01*
X272244Y503761D01*
X274000Y503412D01*
X275756Y503761D01*
X277244Y504756D01*
X278239Y506244D01*
X278588Y508000D01*
X278239Y509756D01*
X277244Y511244D01*
X275756Y512239D01*
X274000Y512588D01*
D02*
G37*
G36*
X532435Y502000D02*
X527600D01*
Y497165D01*
X528148Y497392D01*
X530445Y499155D01*
X532209Y501452D01*
X532435Y502000D01*
D02*
G37*
G36*
X517600D02*
X512765D01*
X512991Y501452D01*
X514755Y499155D01*
X517052Y497392D01*
X517600Y497165D01*
Y502000D01*
D02*
G37*
G36*
X527600Y516835D02*
Y512000D01*
X532435D01*
X532209Y512547D01*
X530445Y514845D01*
X528148Y516609D01*
X527600Y516835D01*
D02*
G37*
G36*
X517600Y516835D02*
X517052Y516609D01*
X514755Y514845D01*
X512991Y512547D01*
X512765Y512000D01*
X517600D01*
Y516835D01*
D02*
G37*
G36*
X135500Y516588D02*
X133744Y516239D01*
X132256Y515244D01*
X131261Y513756D01*
X130912Y512000D01*
X131261Y510244D01*
X132256Y508756D01*
X133744Y507761D01*
X135500Y507412D01*
X137256Y507761D01*
X138744Y508756D01*
X139739Y510244D01*
X140088Y512000D01*
X139739Y513756D01*
X138744Y515244D01*
X137256Y516239D01*
X135500Y516588D01*
D02*
G37*
G36*
X43500Y373500D02*
X35234D01*
X35283Y373128D01*
X36391Y370452D01*
X38155Y368155D01*
X40453Y366391D01*
X43128Y365283D01*
X43500Y365234D01*
Y373500D01*
D02*
G37*
G36*
X347500Y317088D02*
X345744Y316739D01*
X344256Y315744D01*
X343261Y314256D01*
X342912Y312500D01*
X343261Y310744D01*
X344256Y309256D01*
X345744Y308261D01*
X347500Y307912D01*
X349256Y308261D01*
X350744Y309256D01*
X351739Y310744D01*
X352088Y312500D01*
X351739Y314256D01*
X350744Y315744D01*
X349256Y316739D01*
X347500Y317088D01*
D02*
G37*
G36*
X584450Y297558D02*
X575950D01*
X574188Y297326D01*
X572546Y296646D01*
X571136Y295564D01*
X570054Y294154D01*
X569374Y292512D01*
X569142Y290750D01*
X569374Y288988D01*
X570054Y287346D01*
X571136Y285936D01*
X572546Y284854D01*
X574188Y284174D01*
X575950Y283942D01*
X584450D01*
X586212Y284174D01*
X587854Y284854D01*
X589264Y285936D01*
X590346Y287346D01*
X591026Y288988D01*
X591258Y290750D01*
X591026Y292512D01*
X590346Y294154D01*
X589264Y295564D01*
X587854Y296646D01*
X586212Y297326D01*
X584450Y297558D01*
D02*
G37*
G36*
X504750Y325090D02*
X500199Y324731D01*
X495761Y323666D01*
X491544Y321919D01*
X487651Y319534D01*
X484180Y316569D01*
X481216Y313099D01*
X478831Y309206D01*
X477084Y304989D01*
X476018Y300551D01*
X475660Y296000D01*
X476018Y291449D01*
X477084Y287011D01*
X478831Y282794D01*
X481216Y278902D01*
X484180Y275431D01*
X487651Y272466D01*
X491544Y270081D01*
X495761Y268334D01*
X500199Y267269D01*
X504750Y266910D01*
X509301Y267269D01*
X513739Y268334D01*
X517956Y270081D01*
X521848Y272466D01*
X525320Y275431D01*
X528284Y278902D01*
X530669Y282794D01*
X532416Y287011D01*
X533481Y291449D01*
X533840Y296000D01*
X533481Y300551D01*
X532416Y304989D01*
X530669Y309206D01*
X528284Y313099D01*
X525320Y316569D01*
X521848Y319534D01*
X517956Y321919D01*
X513739Y323666D01*
X509301Y324731D01*
X504750Y325090D01*
D02*
G37*
G36*
X414500Y333088D02*
X412744Y332739D01*
X411256Y331744D01*
X410261Y330256D01*
X409912Y328500D01*
X410261Y326744D01*
X411256Y325256D01*
X412744Y324261D01*
X414500Y323912D01*
X416256Y324261D01*
X417744Y325256D01*
X418739Y326744D01*
X419088Y328500D01*
X418739Y330256D01*
X417744Y331744D01*
X416256Y332739D01*
X414500Y333088D01*
D02*
G37*
G36*
X399950Y329588D02*
X398194Y329239D01*
X396706Y328244D01*
X395711Y326756D01*
X395362Y325000D01*
X395711Y323244D01*
X396706Y321756D01*
X398194Y320761D01*
X399950Y320412D01*
X401706Y320761D01*
X403194Y321756D01*
X404189Y323244D01*
X404538Y325000D01*
X404189Y326756D01*
X403194Y328244D01*
X401706Y329239D01*
X399950Y329588D01*
D02*
G37*
G36*
X373000D02*
X371244Y329239D01*
X369756Y328244D01*
X368761Y326756D01*
X368412Y325000D01*
X368761Y323244D01*
X369756Y321756D01*
X371244Y320761D01*
X373000Y320412D01*
X374756Y320761D01*
X376244Y321756D01*
X377239Y323244D01*
X377588Y325000D01*
X377239Y326756D01*
X376244Y328244D01*
X374756Y329239D01*
X373000Y329588D01*
D02*
G37*
G36*
X584450Y226058D02*
X575950D01*
X574188Y225826D01*
X572546Y225146D01*
X571136Y224064D01*
X570054Y222654D01*
X569374Y221012D01*
X569142Y219250D01*
X569374Y217488D01*
X570054Y215846D01*
X571136Y214436D01*
X572546Y213354D01*
X574188Y212674D01*
X575950Y212442D01*
X584450D01*
X586212Y212674D01*
X587854Y213354D01*
X589264Y214436D01*
X590346Y215846D01*
X591026Y217488D01*
X591258Y219250D01*
X591026Y221012D01*
X590346Y222654D01*
X589264Y224064D01*
X587854Y225146D01*
X586212Y225826D01*
X584450Y226058D01*
D02*
G37*
G36*
X72000Y96738D02*
X70244Y96389D01*
X68756Y95394D01*
X67761Y93906D01*
X67412Y92150D01*
X67761Y90394D01*
X68756Y88906D01*
X70244Y87911D01*
X72000Y87562D01*
X73756Y87911D01*
X75244Y88906D01*
X76239Y90394D01*
X76588Y92150D01*
X76239Y93906D01*
X75244Y95394D01*
X73756Y96389D01*
X72000Y96738D01*
D02*
G37*
G36*
X276750Y65090D02*
X272199Y64731D01*
X267761Y63666D01*
X263544Y61919D01*
X259652Y59534D01*
X256180Y56569D01*
X253216Y53098D01*
X250831Y49206D01*
X249084Y44989D01*
X248018Y40551D01*
X247660Y36000D01*
X248018Y31449D01*
X249084Y27011D01*
X250831Y22794D01*
X253216Y18901D01*
X256180Y15431D01*
X259652Y12466D01*
X263544Y10081D01*
X267761Y8334D01*
X272199Y7268D01*
X276750Y6910D01*
X281301Y7268D01*
X285739Y8334D01*
X289956Y10081D01*
X293848Y12466D01*
X297320Y15431D01*
X300284Y18901D01*
X302669Y22794D01*
X304416Y27011D01*
X305481Y31449D01*
X305840Y36000D01*
X305481Y40551D01*
X304416Y44989D01*
X302669Y49206D01*
X300284Y53098D01*
X297320Y56569D01*
X293848Y59534D01*
X289956Y61919D01*
X285739Y63666D01*
X281301Y64731D01*
X276750Y65090D01*
D02*
G37*
G36*
X36750D02*
X32199Y64731D01*
X27761Y63666D01*
X23544Y61919D01*
X19651Y59534D01*
X16180Y56569D01*
X13216Y53098D01*
X10831Y49206D01*
X9084Y44989D01*
X8019Y40551D01*
X7660Y36000D01*
X8019Y31449D01*
X9084Y27011D01*
X10831Y22794D01*
X13216Y18901D01*
X16180Y15431D01*
X19651Y12466D01*
X23544Y10081D01*
X27761Y8334D01*
X32199Y7268D01*
X36750Y6910D01*
X41301Y7268D01*
X45739Y8334D01*
X49956Y10081D01*
X53849Y12466D01*
X57319Y15431D01*
X60284Y18901D01*
X62669Y22794D01*
X64416Y27011D01*
X65482Y31449D01*
X65840Y36000D01*
X65482Y40551D01*
X64416Y44989D01*
X62669Y49206D01*
X60284Y53098D01*
X57319Y56569D01*
X53849Y59534D01*
X49956Y61919D01*
X45739Y63666D01*
X41301Y64731D01*
X36750Y65090D01*
D02*
G37*
G36*
X449050Y193082D02*
X446570Y192755D01*
X444259Y191798D01*
X442275Y190275D01*
X440752Y188291D01*
X439795Y185980D01*
X439468Y183500D01*
X439795Y181020D01*
X440752Y178709D01*
X442275Y176724D01*
X444259Y175202D01*
X446570Y174244D01*
X449050Y173918D01*
X451530Y174244D01*
X453841Y175202D01*
X455826Y176724D01*
X457348Y178709D01*
X458306Y181020D01*
X458632Y183500D01*
X458306Y185980D01*
X457348Y188291D01*
X455826Y190275D01*
X453841Y191798D01*
X451530Y192755D01*
X449050Y193082D01*
D02*
G37*
G36*
X239500Y138838D02*
X237744Y138489D01*
X236256Y137494D01*
X235261Y136006D01*
X234912Y134250D01*
X235261Y132494D01*
X236256Y131006D01*
X237744Y130011D01*
X239500Y129662D01*
X241256Y130011D01*
X242744Y131006D01*
X243739Y132494D01*
X244088Y134250D01*
X243739Y136006D01*
X242744Y137494D01*
X241256Y138489D01*
X239500Y138838D01*
D02*
G37*
G36*
X147000Y365088D02*
X145244Y364739D01*
X143756Y363744D01*
X142761Y362256D01*
X142593Y361409D01*
X141842Y360158D01*
X140590Y359407D01*
X139744Y359238D01*
X138255Y358244D01*
X137261Y356755D01*
X136912Y354999D01*
X137261Y353243D01*
X138255Y351755D01*
X138951Y351290D01*
Y176500D01*
X139145Y175525D01*
X139697Y174698D01*
X140651Y173744D01*
Y170676D01*
X140006Y170244D01*
X139011Y168756D01*
X138662Y167000D01*
X139011Y165244D01*
X140006Y163756D01*
X141494Y162761D01*
X143250Y162412D01*
X144451Y162651D01*
X146451Y161504D01*
Y127556D01*
X141698Y122802D01*
X141145Y121975D01*
X140951Y121000D01*
Y118709D01*
X140256Y118244D01*
X139261Y116756D01*
X138912Y115000D01*
X139261Y113244D01*
X140256Y111756D01*
X141744Y110761D01*
X143500Y110412D01*
X145256Y110761D01*
X146744Y111756D01*
X147739Y113244D01*
X148088Y115000D01*
X147739Y116756D01*
X146744Y118244D01*
X146590Y120485D01*
X150451Y124346D01*
X151709Y124160D01*
X152525Y123676D01*
X152645Y123075D01*
X153197Y122248D01*
X162409Y113036D01*
X163236Y112483D01*
X164212Y112289D01*
X165399D01*
X165756Y111756D01*
X167244Y110761D01*
X169000Y110412D01*
X170756Y110761D01*
X172244Y111756D01*
X173239Y113244D01*
X173588Y115000D01*
X173239Y116756D01*
X172244Y118244D01*
X170756Y119239D01*
X169000Y119588D01*
X167244Y119239D01*
X165756Y118244D01*
X164531Y118124D01*
X157549Y125106D01*
Y176518D01*
X159549Y177347D01*
X165608Y171287D01*
X165506Y170244D01*
X164511Y168756D01*
X164162Y167000D01*
X164511Y165244D01*
X165506Y163756D01*
X166994Y162761D01*
X168750Y162412D01*
X170506Y162761D01*
X171994Y163756D01*
X172989Y165244D01*
X173338Y167000D01*
X172989Y168756D01*
X171994Y170244D01*
X171299Y170709D01*
Y171750D01*
X171105Y172725D01*
X170552Y173552D01*
X161049Y183056D01*
Y201077D01*
X161682Y201507D01*
X163049Y201847D01*
X180451Y184444D01*
Y126200D01*
X180645Y125225D01*
X181198Y124398D01*
X189775Y115820D01*
X189612Y115000D01*
X189961Y113244D01*
X190956Y111756D01*
X192444Y110761D01*
X194200Y110412D01*
X195956Y110761D01*
X197444Y111756D01*
X198439Y113244D01*
X198788Y115000D01*
X198439Y116756D01*
X197444Y118244D01*
X195956Y119239D01*
X194200Y119588D01*
X193380Y119425D01*
X185549Y127256D01*
Y185500D01*
X185355Y186476D01*
X184802Y187302D01*
X167049Y205056D01*
Y346500D01*
X167049Y346502D01*
Y351291D01*
X167744Y351756D01*
X168739Y353244D01*
X169088Y355000D01*
X168739Y356756D01*
X167744Y358244D01*
X166255Y359239D01*
X165024Y359484D01*
X163087Y359999D01*
X162738Y361755D01*
X161744Y363244D01*
X160255Y364238D01*
X158499Y364587D01*
X156743Y364238D01*
X155255Y363244D01*
X154260Y361755D01*
X154169Y361295D01*
X153644Y360758D01*
X151658Y360992D01*
X151407Y361409D01*
X151239Y362256D01*
X150244Y363744D01*
X148756Y364739D01*
X147000Y365088D01*
D02*
G37*
G36*
X445000Y334088D02*
X443244Y333739D01*
X441756Y332744D01*
X440761Y331256D01*
X440412Y329500D01*
X440761Y327744D01*
X441756Y326256D01*
X443244Y325261D01*
X445000Y324912D01*
X446756Y325261D01*
X448244Y326256D01*
X449239Y327744D01*
X449588Y329500D01*
X449239Y331256D01*
X448244Y332744D01*
X446756Y333739D01*
X445000Y334088D01*
D02*
G37*
G36*
X216000Y387095D02*
X213128Y386717D01*
X210452Y385608D01*
X208155Y383845D01*
X206392Y381548D01*
X205283Y378872D01*
X204905Y376000D01*
X205283Y373128D01*
X206392Y370452D01*
X208155Y368155D01*
X210452Y366391D01*
X213128Y365283D01*
X216000Y364905D01*
X218872Y365283D01*
X221548Y366391D01*
X223845Y368155D01*
X225609Y370452D01*
X226717Y373128D01*
X227095Y376000D01*
X226717Y378872D01*
X225609Y381548D01*
X223845Y383845D01*
X221548Y385608D01*
X218872Y386717D01*
X216000Y387095D01*
D02*
G37*
G36*
X136000Y548588D02*
X134244Y548239D01*
X132756Y547244D01*
X131761Y545756D01*
X131412Y544000D01*
X131761Y542244D01*
X132756Y540756D01*
X132951Y540625D01*
Y527056D01*
X71698Y465802D01*
X71145Y464976D01*
X70951Y464000D01*
Y444000D01*
X71145Y443024D01*
X71698Y442198D01*
X83951Y429944D01*
Y386000D01*
X84145Y385025D01*
X84698Y384198D01*
X86807Y382089D01*
X86391Y381548D01*
X85283Y378872D01*
X84905Y376000D01*
X85283Y373128D01*
X86391Y370452D01*
X88155Y368155D01*
X90453Y366391D01*
X93128Y365283D01*
X96000Y364905D01*
X98872Y365283D01*
X101547Y366391D01*
X103845Y368155D01*
X105609Y370452D01*
X106717Y373128D01*
X107095Y376000D01*
X106717Y378872D01*
X105609Y381548D01*
X103845Y383845D01*
X101547Y385608D01*
X98872Y386717D01*
X96000Y387095D01*
X93128Y386717D01*
X90484Y385621D01*
X89049Y387056D01*
Y431000D01*
X88855Y431976D01*
X88302Y432802D01*
X76049Y445056D01*
Y462944D01*
X137302Y524198D01*
X137855Y525025D01*
X138049Y526000D01*
Y539957D01*
X139244Y540756D01*
X140239Y542244D01*
X140588Y544000D01*
X140239Y545756D01*
X139244Y547244D01*
X137756Y548239D01*
X136000Y548588D01*
D02*
G37*
G36*
X71000Y387095D02*
X68128Y386717D01*
X65453Y385608D01*
X63155Y383845D01*
X61392Y381548D01*
X60283Y378872D01*
X59905Y376000D01*
X60283Y373128D01*
X61392Y370452D01*
X63155Y368155D01*
X65453Y366391D01*
X68128Y365283D01*
X71000Y364905D01*
X73872Y365283D01*
X76547Y366391D01*
X78845Y368155D01*
X80609Y370452D01*
X81717Y373128D01*
X82095Y376000D01*
X81717Y378872D01*
X80609Y381548D01*
X78845Y383845D01*
X76547Y385608D01*
X73872Y386717D01*
X71000Y387095D01*
D02*
G37*
G36*
X56766Y373500D02*
X48500D01*
Y365234D01*
X48872Y365283D01*
X51547Y366391D01*
X53845Y368155D01*
X55609Y370452D01*
X56717Y373128D01*
X56766Y373500D01*
D02*
G37*
G36*
X188500D02*
X180234D01*
X180283Y373128D01*
X181392Y370452D01*
X183155Y368155D01*
X185452Y366391D01*
X188128Y365283D01*
X188500Y365234D01*
Y373500D01*
D02*
G37*
G36*
X132000Y387000D02*
X110000D01*
Y365000D01*
X132000D01*
Y387000D01*
D02*
G37*
G36*
X583800Y356005D02*
Y349000D01*
X590805D01*
X590799Y349045D01*
X589817Y351417D01*
X588254Y353454D01*
X586217Y355017D01*
X583845Y355999D01*
X583800Y356005D01*
D02*
G37*
G36*
X555900Y356334D02*
X553355Y355999D01*
X550983Y355017D01*
X548946Y353454D01*
X547383Y351417D01*
X546401Y349045D01*
X546066Y346500D01*
X546401Y343955D01*
X547383Y341583D01*
X548946Y339546D01*
X550983Y337983D01*
X553355Y337001D01*
X555900Y336666D01*
X558445Y337001D01*
X560817Y337983D01*
X562854Y339546D01*
X564417Y341583D01*
X565399Y343955D01*
X565734Y346500D01*
X565399Y349045D01*
X564417Y351417D01*
X562854Y353454D01*
X560817Y355017D01*
X558445Y355999D01*
X555900Y356334D01*
D02*
G37*
G36*
X530500D02*
X527955Y355999D01*
X525583Y355017D01*
X523546Y353454D01*
X521983Y351417D01*
X521001Y349045D01*
X520666Y346500D01*
X521001Y343955D01*
X521983Y341583D01*
X523546Y339546D01*
X525583Y337983D01*
X527955Y337001D01*
X530500Y336666D01*
X533045Y337001D01*
X535417Y337983D01*
X537454Y339546D01*
X539017Y341583D01*
X539999Y343955D01*
X540334Y346500D01*
X539999Y349045D01*
X539017Y351417D01*
X537454Y353454D01*
X535417Y355017D01*
X533045Y355999D01*
X530500Y356334D01*
D02*
G37*
G36*
X505100D02*
X502555Y355999D01*
X500183Y355017D01*
X498146Y353454D01*
X496583Y351417D01*
X495601Y349045D01*
X495266Y346500D01*
X495601Y343955D01*
X496583Y341583D01*
X498146Y339546D01*
X500183Y337983D01*
X502555Y337001D01*
X505100Y336666D01*
X507645Y337001D01*
X510017Y337983D01*
X512054Y339546D01*
X513617Y341583D01*
X514599Y343955D01*
X514934Y346500D01*
X514599Y349045D01*
X513617Y351417D01*
X512054Y353454D01*
X510017Y355017D01*
X507645Y355999D01*
X505100Y356334D01*
D02*
G37*
G36*
X578800Y356005D02*
X578755Y355999D01*
X576383Y355017D01*
X574346Y353454D01*
X572783Y351417D01*
X571801Y349045D01*
X571795Y349000D01*
X578800D01*
Y356005D01*
D02*
G37*
G36*
X590805Y344000D02*
X583800D01*
Y336995D01*
X583845Y337001D01*
X586217Y337983D01*
X588254Y339546D01*
X589817Y341583D01*
X590799Y343955D01*
X590805Y344000D01*
D02*
G37*
G36*
X578800D02*
X571795D01*
X571801Y343955D01*
X572783Y341583D01*
X574346Y339546D01*
X576383Y337983D01*
X578755Y337001D01*
X578800Y336995D01*
Y344000D01*
D02*
G37*
G36*
X194200Y821088D02*
X192444Y820739D01*
X191600Y820175D01*
X190756Y820739D01*
X189000Y821088D01*
X187244Y820739D01*
X185756Y819744D01*
X184761Y818256D01*
X184412Y816500D01*
X184761Y814744D01*
X185425Y813750D01*
X184761Y812756D01*
X184412Y811000D01*
X184709Y809506D01*
X184459Y808827D01*
X183510Y807517D01*
X181520Y807255D01*
X179209Y806298D01*
X177225Y804775D01*
X175702Y802791D01*
X174744Y800480D01*
X174418Y798000D01*
X174744Y795520D01*
X175702Y793209D01*
X177225Y791225D01*
X179209Y789702D01*
X179951Y789395D01*
Y767556D01*
X159198Y746802D01*
X158645Y745975D01*
X158451Y745000D01*
Y693000D01*
X158645Y692025D01*
X159198Y691198D01*
X172451Y677944D01*
Y654500D01*
X172645Y653524D01*
X173198Y652698D01*
X233198Y592698D01*
X234025Y592145D01*
X235000Y591951D01*
X252944D01*
X281451Y563444D01*
Y543209D01*
X280756Y542744D01*
X279761Y541256D01*
X279412Y539500D01*
X279761Y537744D01*
X280756Y536256D01*
X282244Y535261D01*
X284000Y534912D01*
X285756Y535261D01*
X287244Y536256D01*
X288239Y537744D01*
X288588Y539500D01*
X288239Y541256D01*
X287244Y542744D01*
X286549Y543209D01*
Y564500D01*
X286355Y565475D01*
X285802Y566302D01*
X255802Y596302D01*
X254975Y596855D01*
X254000Y597049D01*
X236056D01*
X177549Y655556D01*
Y679000D01*
X177355Y679975D01*
X176802Y680802D01*
X163549Y694056D01*
Y743944D01*
X184302Y764698D01*
X184855Y765525D01*
X185049Y766500D01*
Y788556D01*
X186480Y788745D01*
X188791Y789702D01*
X190775Y791225D01*
X192298Y793209D01*
X193255Y795520D01*
X193582Y798000D01*
X193255Y800480D01*
X192298Y802791D01*
X190775Y804775D01*
X190770Y805333D01*
X190797Y805456D01*
X192444Y806761D01*
X194200Y806412D01*
X195956Y806761D01*
X197444Y807756D01*
X198439Y809244D01*
X198788Y811000D01*
X198439Y812756D01*
X197775Y813750D01*
X198439Y814744D01*
X198788Y816500D01*
X198439Y818256D01*
X197444Y819744D01*
X195956Y820739D01*
X194200Y821088D01*
D02*
G37*
G36*
X555000Y820167D02*
Y810000D01*
X565167D01*
X563799Y812561D01*
X560987Y815987D01*
X557561Y818799D01*
X555000Y820167D01*
D02*
G37*
G36*
X122500Y815500D02*
X114234D01*
X114283Y815128D01*
X115392Y812453D01*
X117155Y810155D01*
X119452Y808391D01*
X122128Y807283D01*
X122500Y807234D01*
Y815500D01*
D02*
G37*
G36*
X313500Y828766D02*
X313128Y828717D01*
X310452Y827608D01*
X308155Y825845D01*
X306392Y823548D01*
X305419Y821199D01*
X304193Y820531D01*
X303273Y820244D01*
X303185Y820253D01*
X301500Y820588D01*
X299744Y820239D01*
X298500Y819408D01*
X297256Y820239D01*
X295500Y820588D01*
X293744Y820239D01*
X292500Y819408D01*
X291256Y820239D01*
X289500Y820588D01*
X287744Y820239D01*
X286256Y819244D01*
X285261Y817756D01*
X284912Y816000D01*
X285261Y814244D01*
X286092Y813000D01*
X285261Y811756D01*
X284912Y810000D01*
X285261Y808244D01*
X286256Y806756D01*
X287744Y805761D01*
X289500Y805412D01*
X291256Y805761D01*
X292500Y806592D01*
X293744Y805761D01*
X295500Y805412D01*
X297256Y805761D01*
X298500Y806592D01*
X299744Y805761D01*
X301500Y805412D01*
X303256Y805761D01*
X304744Y806756D01*
X305739Y808244D01*
X306019Y809653D01*
X307088Y810160D01*
X308034Y810312D01*
X308155Y810155D01*
X310452Y808391D01*
X313128Y807283D01*
X313500Y807234D01*
Y818000D01*
Y828766D01*
D02*
G37*
G36*
X127500Y828766D02*
Y820500D01*
X135766D01*
X135717Y820872D01*
X134608Y823547D01*
X132845Y825845D01*
X130548Y827608D01*
X127872Y828717D01*
X127500Y828766D01*
D02*
G37*
G36*
X122500D02*
X122128Y828717D01*
X119452Y827608D01*
X117155Y825845D01*
X115392Y823547D01*
X114283Y820872D01*
X114234Y820500D01*
X122500D01*
Y828766D01*
D02*
G37*
G36*
X318500Y828766D02*
Y820500D01*
X326766D01*
X326717Y820872D01*
X325608Y823548D01*
X323845Y825845D01*
X321548Y827608D01*
X318872Y828717D01*
X318500Y828766D01*
D02*
G37*
G36*
X217400Y803088D02*
X215644Y802739D01*
X214156Y801744D01*
X213161Y800256D01*
X212812Y798500D01*
X213161Y796744D01*
X214156Y795256D01*
X215644Y794261D01*
X217400Y793912D01*
X219156Y794261D01*
X220644Y795256D01*
X221639Y796744D01*
X221988Y798500D01*
X221639Y800256D01*
X220644Y801744D01*
X219156Y802739D01*
X217400Y803088D01*
D02*
G37*
G36*
X386000Y782088D02*
X384244Y781739D01*
X383500Y781242D01*
X382756Y781739D01*
X381000Y782088D01*
X379244Y781739D01*
X378500Y781242D01*
X377756Y781739D01*
X376000Y782088D01*
X374244Y781739D01*
X372756Y780744D01*
X372250Y779987D01*
X371494Y779715D01*
X370182Y779566D01*
X369799Y779641D01*
X368291Y780798D01*
X365980Y781756D01*
X363500Y782082D01*
X361020Y781756D01*
X358709Y780798D01*
X356725Y779276D01*
X356367Y778809D01*
X354239Y779256D01*
X353244Y780744D01*
X351756Y781739D01*
X350000Y782088D01*
X348244Y781739D01*
X346756Y780744D01*
X345761Y779256D01*
X345412Y777500D01*
X345761Y775744D01*
X346258Y775000D01*
X345761Y774256D01*
X345412Y772500D01*
X345761Y770744D01*
X346756Y769256D01*
X348244Y768261D01*
X350000Y767912D01*
X351756Y768261D01*
X352580Y768812D01*
X354595Y768472D01*
X354978Y768250D01*
X355202Y767709D01*
X356725Y765725D01*
X358709Y764202D01*
X361020Y763244D01*
X363500Y762918D01*
X365980Y763244D01*
X368291Y764202D01*
X369712Y765292D01*
X370410Y765276D01*
X371615Y765020D01*
X372071Y764780D01*
X372756Y763756D01*
X374244Y762761D01*
X376000Y762412D01*
X377756Y762761D01*
X378500Y763258D01*
X379244Y762761D01*
X381000Y762412D01*
X382756Y762761D01*
X383500Y763258D01*
X384244Y762761D01*
X386000Y762412D01*
X387756Y762761D01*
X389244Y763756D01*
X390239Y765244D01*
X390588Y767000D01*
X390239Y768756D01*
X389742Y769500D01*
X390239Y770244D01*
X390588Y772000D01*
X390239Y773756D01*
X389575Y774750D01*
X390239Y775744D01*
X390588Y777500D01*
X390239Y779256D01*
X389244Y780744D01*
X387756Y781739D01*
X386000Y782088D01*
D02*
G37*
G36*
X505513Y823611D02*
X484487Y823611D01*
X483339Y823135D01*
X472339Y812135D01*
X471863Y810987D01*
X471864Y789488D01*
X472339Y788340D01*
X509863Y750814D01*
X509864Y691025D01*
X509439Y690799D01*
X506013Y687987D01*
X504828Y686543D01*
X502964Y687424D01*
X503059Y687900D01*
Y709632D01*
X503244Y709756D01*
X504239Y711244D01*
X504588Y713000D01*
X504239Y714756D01*
X503244Y716244D01*
X501756Y717239D01*
X500000Y717588D01*
X498244Y717239D01*
X496756Y716244D01*
X495761Y714756D01*
X495412Y713000D01*
X495761Y711244D01*
X496756Y709756D01*
X496941Y709632D01*
Y704192D01*
X496565Y703974D01*
X494941Y703578D01*
X493871Y704648D01*
X492723Y705124D01*
X486998Y705124D01*
X485850Y704648D01*
X485850Y704648D01*
X485375Y703500D01*
X485375Y701171D01*
X474852Y690648D01*
X474376Y689500D01*
X474376Y348173D01*
X470736Y344532D01*
X468893Y345517D01*
X469088Y346500D01*
X468739Y348256D01*
X467744Y349744D01*
X466256Y350739D01*
X464500Y351088D01*
X462744Y350739D01*
X461256Y349744D01*
X460261Y348256D01*
X459912Y346500D01*
X460261Y344744D01*
X461256Y343256D01*
X462744Y342261D01*
X464500Y341912D01*
X465483Y342107D01*
X466468Y340264D01*
X452852Y326648D01*
X452376Y325500D01*
X452377Y271500D01*
X452852Y270352D01*
X473302Y249902D01*
X472688Y247687D01*
X471672Y247433D01*
X464302Y254802D01*
X463475Y255355D01*
X462500Y255549D01*
X448709D01*
X448244Y256244D01*
X446756Y257239D01*
X445000Y257588D01*
X443244Y257239D01*
X441756Y256244D01*
X440761Y254756D01*
X440412Y253000D01*
X440761Y251244D01*
X441756Y249756D01*
X443244Y248761D01*
X445000Y248412D01*
X446756Y248761D01*
X448244Y249756D01*
X448709Y250451D01*
X461444D01*
X470664Y241231D01*
X470761Y240744D01*
X471756Y239256D01*
X473244Y238261D01*
X475000Y237912D01*
X476756Y238261D01*
X478244Y239256D01*
X479239Y240744D01*
X479304Y241071D01*
X481474Y241730D01*
X484300Y238904D01*
X480944Y235549D01*
X451209D01*
X450744Y236244D01*
X449256Y237239D01*
X447500Y237588D01*
X445744Y237239D01*
X444256Y236244D01*
X443261Y234756D01*
X442912Y233000D01*
X443261Y231244D01*
X444256Y229756D01*
X445744Y228761D01*
X447500Y228412D01*
X449256Y228761D01*
X450744Y229756D01*
X451209Y230451D01*
X482000D01*
X482975Y230645D01*
X483802Y231198D01*
X486858Y234253D01*
X488795Y234487D01*
X489216Y234431D01*
X489607Y234269D01*
X490747Y233877D01*
X491654Y233313D01*
X491719Y233169D01*
X491761Y232958D01*
X491925Y232714D01*
X492448Y231553D01*
X487820Y226925D01*
X487000Y227088D01*
X485244Y226739D01*
X483756Y225744D01*
X482761Y224256D01*
X482412Y222500D01*
X482761Y220744D01*
X483756Y219256D01*
X485244Y218261D01*
X485790Y218153D01*
X486311Y218049D01*
X486123Y216140D01*
X485877Y216049D01*
X438506D01*
X387048Y267506D01*
X387209Y269732D01*
X387244Y269756D01*
X388239Y271244D01*
X388588Y273000D01*
X388239Y274756D01*
X387244Y276244D01*
X385756Y277239D01*
X384000Y277588D01*
X382244Y277239D01*
X380756Y276244D01*
X379761Y274756D01*
X379574Y273814D01*
X378000Y272088D01*
X376244Y271739D01*
X374756Y270744D01*
X373761Y269256D01*
X373412Y267500D01*
X373761Y265744D01*
X374756Y264256D01*
X376244Y263261D01*
X378000Y262912D01*
X379237Y263158D01*
X434198Y208198D01*
X435024Y207645D01*
X436000Y207451D01*
X490216D01*
X490780Y205451D01*
X487651Y203534D01*
X484180Y200569D01*
X481216Y197099D01*
X478831Y193206D01*
X477084Y188989D01*
X476018Y184551D01*
X475660Y180000D01*
X476018Y175449D01*
X477084Y171011D01*
X478831Y166794D01*
X481216Y162901D01*
X484180Y159431D01*
X487651Y156466D01*
X491544Y154081D01*
X495761Y152334D01*
X500199Y151269D01*
X504750Y150910D01*
X509301Y151269D01*
X513739Y152334D01*
X517956Y154081D01*
X521848Y156466D01*
X525320Y159431D01*
X528284Y162901D01*
X530669Y166794D01*
X532416Y171011D01*
X533481Y175449D01*
X533840Y180000D01*
X533481Y184551D01*
X532416Y188989D01*
X530669Y193206D01*
X528284Y197099D01*
X525320Y200569D01*
X521848Y203534D01*
X518720Y205451D01*
X519284Y207451D01*
X541444D01*
X553198Y195698D01*
X554025Y195145D01*
X555000Y194951D01*
X557241D01*
X557706Y194256D01*
X559194Y193261D01*
X560950Y192912D01*
X562706Y193261D01*
X564194Y194256D01*
X565189Y195744D01*
X565538Y197500D01*
X565189Y199256D01*
X564194Y200744D01*
X562706Y201739D01*
X560950Y202088D01*
X559194Y201739D01*
X557706Y200744D01*
X555473Y200632D01*
X544302Y211802D01*
X543475Y212355D01*
X542500Y212549D01*
X540267D01*
X539501Y214397D01*
X562752Y237648D01*
X563305Y238475D01*
X563499Y239450D01*
Y308791D01*
X564194Y309256D01*
X565189Y310744D01*
X565538Y312500D01*
X565189Y314256D01*
X564194Y315744D01*
X562706Y316739D01*
X560950Y317088D01*
X559194Y316739D01*
X557706Y315744D01*
X556711Y314256D01*
X556362Y312500D01*
X556711Y310744D01*
X557706Y309256D01*
X558401Y308791D01*
Y240506D01*
X533944Y216049D01*
X522937D01*
X521124Y218049D01*
X521124Y238500D01*
X520648Y239648D01*
X502327Y257969D01*
X501902Y258145D01*
X501524Y258407D01*
X501192Y258480D01*
X500856Y258420D01*
X500521Y258484D01*
X498388Y258048D01*
X497878Y257703D01*
X497364Y257360D01*
X497074Y256926D01*
X496122Y256290D01*
X495000Y256067D01*
X493878Y256290D01*
X492926Y256926D01*
X492290Y257878D01*
X492104Y258817D01*
X491841Y259210D01*
X491659Y259648D01*
X491506Y259711D01*
X491413Y259850D01*
X490949Y259942D01*
X490786Y260009D01*
X473124Y277672D01*
Y278557D01*
X473060Y278711D01*
X473092Y278874D01*
X473067Y279000D01*
X473092Y279126D01*
X473060Y279289D01*
X473124Y279443D01*
X473124Y321327D01*
X492148Y340352D01*
X492624Y341500D01*
X492624Y628301D01*
X493479Y628818D01*
X494624Y629050D01*
X494837Y628837D01*
X494837Y628837D01*
X497941Y625733D01*
Y612368D01*
X497756Y612244D01*
X496761Y610756D01*
X496412Y609000D01*
X496761Y607244D01*
X497756Y605756D01*
X499244Y604761D01*
X501000Y604412D01*
X502756Y604761D01*
X504244Y605756D01*
X505239Y607244D01*
X505588Y609000D01*
X505239Y610756D01*
X504244Y612244D01*
X504059Y612368D01*
Y627000D01*
X503826Y628171D01*
X503163Y629163D01*
X503163Y629163D01*
X499559Y632767D01*
Y662011D01*
X501559Y662512D01*
X503201Y659439D01*
X506013Y656013D01*
X509439Y653201D01*
X513348Y651112D01*
X517589Y649826D01*
X522000Y649391D01*
X526411Y649826D01*
X530652Y651112D01*
X534561Y653201D01*
X537987Y656013D01*
X540799Y659439D01*
X542888Y663348D01*
X543887Y666640D01*
X544135Y666889D01*
X544611Y668037D01*
X544610Y768987D01*
X544135Y770135D01*
X537640Y776630D01*
X538700Y778399D01*
X540589Y777826D01*
X545000Y777391D01*
X549411Y777826D01*
X553652Y779112D01*
X557561Y781201D01*
X560987Y784013D01*
X563799Y787439D01*
X565167Y790000D01*
X545000D01*
Y800000D01*
X535000D01*
Y820167D01*
X532439Y818799D01*
X529013Y815987D01*
X526201Y812561D01*
X524112Y808652D01*
X524080Y808545D01*
X521818Y807979D01*
X506661Y823136D01*
X505513Y823611D01*
D02*
G37*
G36*
X272600Y803088D02*
X270844Y802739D01*
X269356Y801744D01*
X268361Y800256D01*
X268012Y798500D01*
X268361Y796744D01*
X269356Y795256D01*
X270844Y794261D01*
X272600Y793912D01*
X274356Y794261D01*
X275844Y795256D01*
X276839Y796744D01*
X277188Y798500D01*
X276839Y800256D01*
X275844Y801744D01*
X274356Y802739D01*
X272600Y803088D01*
D02*
G37*
G36*
X135766Y815500D02*
X127500D01*
Y807234D01*
X127872Y807283D01*
X130548Y808391D01*
X132845Y810155D01*
X134608Y812453D01*
X135717Y815128D01*
X135766Y815500D01*
D02*
G37*
G36*
X326766Y815500D02*
X318500D01*
Y807234D01*
X318872Y807283D01*
X321548Y808391D01*
X323845Y810155D01*
X325608Y812452D01*
X326717Y815128D01*
X326766Y815500D01*
D02*
G37*
G36*
X248900Y803088D02*
X247144Y802739D01*
X245656Y801744D01*
X244594D01*
X243106Y802739D01*
X241350Y803088D01*
X239594Y802739D01*
X238106Y801744D01*
X237111Y800256D01*
X236762Y798500D01*
X237111Y796744D01*
X238106Y795256D01*
X239594Y794261D01*
X241350Y793912D01*
X243106Y794261D01*
X244594Y795256D01*
X245656D01*
X247144Y794261D01*
X248900Y793912D01*
X250656Y794261D01*
X252144Y795256D01*
X253139Y796744D01*
X253488Y798500D01*
X253139Y800256D01*
X252144Y801744D01*
X250656Y802739D01*
X248900Y803088D01*
D02*
G37*
G36*
X257500Y878766D02*
Y870500D01*
X265766D01*
X265717Y870872D01*
X264608Y873547D01*
X262845Y875845D01*
X260548Y877608D01*
X257872Y878717D01*
X257500Y878766D01*
D02*
G37*
G36*
X252500D02*
X252128Y878717D01*
X249452Y877608D01*
X247155Y875845D01*
X245392Y873547D01*
X244283Y870872D01*
X244234Y870500D01*
X252500D01*
Y878766D01*
D02*
G37*
G36*
X446750Y926597D02*
X441807Y926208D01*
X436986Y925051D01*
X432405Y923154D01*
X428177Y920563D01*
X424407Y917343D01*
X421187Y913572D01*
X418596Y909345D01*
X416699Y904764D01*
X415542Y899943D01*
X415153Y895000D01*
X415542Y890057D01*
X416699Y885236D01*
X418596Y880655D01*
X421187Y876428D01*
X424407Y872657D01*
X428177Y869437D01*
X432405Y866846D01*
X436986Y864949D01*
X441807Y863792D01*
X446750Y863403D01*
X451693Y863792D01*
X456514Y864949D01*
X461095Y866846D01*
X465322Y869437D01*
X469093Y872657D01*
X472313Y876428D01*
X474903Y880655D01*
X476801Y885236D01*
X477958Y890057D01*
X478347Y895000D01*
X477958Y899943D01*
X476801Y904764D01*
X474903Y909345D01*
X472313Y913572D01*
X469093Y917343D01*
X465322Y920563D01*
X461095Y923154D01*
X456514Y925051D01*
X451693Y926208D01*
X446750Y926597D01*
D02*
G37*
G36*
X136000Y904000D02*
X114000D01*
Y882000D01*
X136000D01*
Y904000D01*
D02*
G37*
G36*
X330000Y932588D02*
X328244Y932239D01*
X326756Y931244D01*
X325761Y929756D01*
X325412Y928000D01*
X325761Y926244D01*
X326756Y924756D01*
X328244Y923761D01*
X330000Y923412D01*
X331756Y923761D01*
X333244Y924756D01*
X334239Y926244D01*
X334588Y928000D01*
X334239Y929756D01*
X333244Y931244D01*
X331756Y932239D01*
X330000Y932588D01*
D02*
G37*
G36*
X327000Y904000D02*
X305000D01*
Y882000D01*
X327000D01*
Y904000D01*
D02*
G37*
G36*
X266000D02*
X244000D01*
Y882000D01*
X266000D01*
Y904000D01*
D02*
G37*
G36*
X316000Y854095D02*
X313128Y853717D01*
X310452Y852608D01*
X308155Y850845D01*
X306392Y848548D01*
X305283Y845872D01*
X304905Y843000D01*
X305283Y840128D01*
X306392Y837452D01*
X308155Y835155D01*
X310452Y833391D01*
X313128Y832283D01*
X316000Y831905D01*
X318872Y832283D01*
X321548Y833391D01*
X323845Y835155D01*
X325608Y837452D01*
X326717Y840128D01*
X327095Y843000D01*
X326717Y845872D01*
X325608Y848548D01*
X323845Y850845D01*
X321548Y852608D01*
X318872Y853717D01*
X316000Y854095D01*
D02*
G37*
G36*
X255000D02*
X252128Y853717D01*
X249452Y852608D01*
X247155Y850845D01*
X245392Y848547D01*
X244283Y845872D01*
X243905Y843000D01*
X244283Y840128D01*
X245392Y837453D01*
X247155Y835155D01*
X249452Y833391D01*
X252128Y832283D01*
X255000Y831905D01*
X257872Y832283D01*
X260548Y833391D01*
X262845Y835155D01*
X264608Y837453D01*
X265717Y840128D01*
X266095Y843000D01*
X265717Y845872D01*
X264608Y848547D01*
X262845Y850845D01*
X260548Y852608D01*
X257872Y853717D01*
X255000Y854095D01*
D02*
G37*
G36*
X125000D02*
X122128Y853717D01*
X119452Y852608D01*
X117155Y850845D01*
X115392Y848547D01*
X114283Y845872D01*
X113905Y843000D01*
X114283Y840128D01*
X115392Y837453D01*
X117155Y835155D01*
X119452Y833391D01*
X122128Y832283D01*
X125000Y831905D01*
X127872Y832283D01*
X130548Y833391D01*
X132845Y835155D01*
X134608Y837453D01*
X135717Y840128D01*
X136095Y843000D01*
X135717Y845872D01*
X134608Y848547D01*
X132845Y850845D01*
X130548Y852608D01*
X127872Y853717D01*
X125000Y854095D01*
D02*
G37*
G36*
X52500Y845088D02*
X50744Y844739D01*
X49750Y844075D01*
X48756Y844739D01*
X47000Y845088D01*
X45244Y844739D01*
X43756Y843744D01*
X42761Y842256D01*
X42412Y840500D01*
X42761Y838744D01*
X43756Y837256D01*
Y837244D01*
X42761Y835756D01*
X42412Y834000D01*
X42761Y832244D01*
X43756Y830756D01*
X45244Y829761D01*
X47000Y829412D01*
X48756Y829761D01*
X49750Y830425D01*
X50744Y829761D01*
X52500Y829412D01*
X54256Y829761D01*
X55744Y830756D01*
X56739Y832244D01*
X57088Y834000D01*
X56739Y835756D01*
X55744Y837244D01*
Y837256D01*
X56739Y838744D01*
X57088Y840500D01*
X56739Y842256D01*
X55744Y843744D01*
X54256Y844739D01*
X52500Y845088D01*
D02*
G37*
G36*
X265766Y865500D02*
X257500D01*
Y857234D01*
X257872Y857283D01*
X260548Y858391D01*
X262845Y860155D01*
X264608Y862453D01*
X265717Y865128D01*
X265766Y865500D01*
D02*
G37*
G36*
X252500D02*
X244234D01*
X244283Y865128D01*
X245392Y862453D01*
X247155Y860155D01*
X249452Y858391D01*
X252128Y857283D01*
X252500Y857234D01*
Y865500D01*
D02*
G37*
G36*
X316000Y879095D02*
X313128Y878717D01*
X310452Y877608D01*
X308155Y875845D01*
X306392Y873548D01*
X305283Y870872D01*
X304905Y868000D01*
X305283Y865128D01*
X306392Y862452D01*
X308155Y860155D01*
X310452Y858391D01*
X313128Y857283D01*
X316000Y856905D01*
X318872Y857283D01*
X321548Y858391D01*
X323845Y860155D01*
X325608Y862452D01*
X326717Y865128D01*
X327095Y868000D01*
X326717Y870872D01*
X325608Y873548D01*
X323845Y875845D01*
X321548Y877608D01*
X318872Y878717D01*
X316000Y879095D01*
D02*
G37*
G36*
X562000Y662000D02*
X551833D01*
X553201Y659439D01*
X556013Y656013D01*
X559439Y653201D01*
X562000Y651833D01*
Y662000D01*
D02*
G37*
G36*
X578400Y642000D02*
Y636000D01*
X584400D01*
Y642000D01*
X578400D01*
D02*
G37*
G36*
X181000Y636587D02*
X179244Y636238D01*
X177756Y635243D01*
X176761Y633755D01*
X176593Y632909D01*
X176472Y632706D01*
X174528Y632706D01*
X174407Y632909D01*
X174239Y633755D01*
X173244Y635243D01*
X171756Y636238D01*
X170000Y636587D01*
X168244Y636238D01*
X166755Y635243D01*
X165761Y633755D01*
X165574Y632813D01*
X164000Y631087D01*
X162244Y630738D01*
X160755Y629743D01*
X159761Y628255D01*
X159411Y626499D01*
X159761Y624743D01*
X160755Y623254D01*
X161451Y622790D01*
Y615000D01*
X161645Y614025D01*
X162197Y613198D01*
X178951Y596444D01*
Y546056D01*
X138398Y505502D01*
X137845Y504675D01*
X137651Y503700D01*
Y481209D01*
X136956Y480744D01*
X135961Y479256D01*
X135612Y477500D01*
X135961Y475744D01*
X136956Y474256D01*
X138444Y473261D01*
X140200Y472912D01*
X141956Y473261D01*
X143444Y474256D01*
X144439Y475744D01*
X144788Y477500D01*
X146500Y477411D01*
X146543Y477420D01*
X148324Y477495D01*
X148716Y475968D01*
X148761Y475743D01*
X149755Y474255D01*
X151244Y473260D01*
X153000Y472911D01*
X154755Y473260D01*
X156244Y474255D01*
X157239Y475743D01*
X157283Y475968D01*
X157676Y477495D01*
X159456Y477420D01*
X159500Y477411D01*
X159543Y477420D01*
X161324Y477495D01*
X161716Y475968D01*
X161761Y475743D01*
X162755Y474255D01*
X164244Y473260D01*
X166000Y472911D01*
X167756Y473260D01*
X169244Y474255D01*
X170239Y475743D01*
X170588Y477499D01*
X170239Y479255D01*
X169244Y480743D01*
X169049Y480874D01*
Y508944D01*
X197302Y537198D01*
X197855Y538024D01*
X198049Y539000D01*
Y603299D01*
X197855Y604274D01*
X197302Y605101D01*
X189049Y613355D01*
Y622791D01*
X189744Y623256D01*
X190739Y624744D01*
X191088Y626500D01*
X190739Y628256D01*
X189744Y629744D01*
X188256Y630739D01*
X187410Y630907D01*
X185588Y631999D01*
X185239Y633755D01*
X184244Y635243D01*
X182756Y636238D01*
X181000Y636587D01*
D02*
G37*
G36*
X352000Y681588D02*
X350244Y681239D01*
X349500Y680742D01*
X348756Y681239D01*
X347000Y681588D01*
X345244Y681239D01*
X344500Y680742D01*
X343756Y681239D01*
X342000Y681588D01*
X340244Y681239D01*
X338756Y680244D01*
X337761Y678756D01*
X337412Y677000D01*
X337761Y675244D01*
X338258Y674500D01*
X337761Y673756D01*
X337412Y672000D01*
X337761Y670244D01*
X338258Y669500D01*
X337761Y668756D01*
X337412Y667000D01*
X337761Y665244D01*
X338258Y664500D01*
X337761Y663756D01*
X337412Y662000D01*
X337761Y660244D01*
X338756Y658756D01*
X340244Y657761D01*
X342000Y657412D01*
X343756Y657761D01*
X345244Y658756D01*
X346239Y660244D01*
X346588Y662000D01*
X348487Y662708D01*
X348756Y662761D01*
X350244Y663756D01*
X351239Y665244D01*
X351588Y667000D01*
X351239Y668756D01*
X352082Y670769D01*
X354124Y669432D01*
X354245Y668520D01*
X355202Y666209D01*
X356725Y664225D01*
X358709Y662702D01*
X361020Y661745D01*
X363500Y661418D01*
X364070Y661493D01*
X365912Y660500D01*
X366261Y658744D01*
X367256Y657256D01*
X368744Y656261D01*
X370500Y655912D01*
X372256Y656261D01*
X373744Y657256D01*
X374739Y658744D01*
X375088Y660500D01*
X374739Y662256D01*
X373744Y663744D01*
X372874Y664326D01*
X372176Y665548D01*
X372051Y666819D01*
X372756Y668520D01*
X373082Y671000D01*
X372756Y673480D01*
X371798Y675791D01*
X370275Y677775D01*
X368291Y679298D01*
X365980Y680256D01*
X363500Y680582D01*
X361020Y680256D01*
X358709Y679298D01*
X358242Y678940D01*
X357869Y678905D01*
X355723Y679528D01*
X355244Y680244D01*
X353756Y681239D01*
X352000Y681588D01*
D02*
G37*
G36*
X22000Y830588D02*
X20244Y830239D01*
X18756Y829244D01*
X17761Y827756D01*
X17412Y826000D01*
X17761Y824244D01*
X18756Y822756D01*
X20244Y821761D01*
X22000Y821412D01*
X22820Y821575D01*
X32976Y811420D01*
X33803Y810867D01*
X34778Y810673D01*
X37944D01*
X48157Y800460D01*
X47499Y798290D01*
X47244Y798239D01*
X45756Y797244D01*
X44761Y795756D01*
X44412Y794000D01*
X44761Y792244D01*
X45756Y790756D01*
X47244Y789761D01*
X49000Y789412D01*
X49820Y789575D01*
X53451Y785944D01*
Y676482D01*
X52289Y675771D01*
X51490Y675614D01*
X21049Y706056D01*
Y745791D01*
X21744Y746256D01*
X22739Y747744D01*
X23088Y749500D01*
X22739Y751256D01*
X21744Y752744D01*
X20256Y753739D01*
X18500Y754088D01*
X16744Y753739D01*
X15256Y752744D01*
X14261Y751256D01*
X13912Y749500D01*
X14261Y747744D01*
X15256Y746256D01*
X15951Y745791D01*
Y705000D01*
X16145Y704025D01*
X16698Y703198D01*
X135075Y584820D01*
X134912Y584000D01*
X135261Y582244D01*
X136256Y580756D01*
X137744Y579761D01*
X139500Y579412D01*
X141256Y579761D01*
X142744Y580756D01*
X143739Y582244D01*
X144088Y584000D01*
X143739Y585756D01*
X142744Y587244D01*
X142415Y587464D01*
X142244Y589755D01*
X142265Y589787D01*
X142783Y590562D01*
X145091Y591083D01*
X148976Y587198D01*
X149803Y586645D01*
X150778Y586451D01*
X160291D01*
X160756Y585756D01*
X162244Y584761D01*
X164000Y584412D01*
X164909Y583345D01*
X164756Y582244D01*
X163761Y580756D01*
X163412Y579000D01*
X163761Y577244D01*
X162743Y575169D01*
X162106Y574743D01*
X161641Y574048D01*
X110057D01*
X104542Y579563D01*
X105500Y581412D01*
X107256Y581761D01*
X108744Y582756D01*
X109256D01*
X110744Y581761D01*
X112500Y581412D01*
X114256Y581761D01*
X115744Y582756D01*
X116739Y584244D01*
X117088Y586000D01*
X116739Y587756D01*
X115744Y589244D01*
X114256Y590239D01*
X112500Y590588D01*
X110744Y590239D01*
X110565Y590119D01*
X109000Y589367D01*
X107435Y590119D01*
X107256Y590239D01*
X105500Y590588D01*
X103744Y590239D01*
X102256Y589244D01*
X101261Y587756D01*
X100912Y586000D01*
X99063Y585042D01*
X54164Y629941D01*
X54244Y630756D01*
X55239Y632244D01*
X55588Y634000D01*
X55239Y635756D01*
X54244Y637244D01*
X52756Y638239D01*
X51000Y638588D01*
X49244Y638239D01*
X47756Y637244D01*
X46761Y635756D01*
X46412Y634000D01*
X46761Y632244D01*
X47756Y630756D01*
X48451Y630291D01*
Y629500D01*
X48645Y628525D01*
X49198Y627698D01*
X74904Y601991D01*
X74148Y599919D01*
X73244Y599739D01*
X71756Y598744D01*
X70761Y597256D01*
X70747Y597186D01*
X68577Y596528D01*
X41802Y623302D01*
X40975Y623855D01*
X40000Y624049D01*
X22709D01*
X22244Y624744D01*
X20756Y625739D01*
X19000Y626088D01*
X17244Y625739D01*
X15756Y624744D01*
X14761Y623256D01*
X14412Y621500D01*
X14761Y619744D01*
X15756Y618256D01*
X17244Y617261D01*
X19000Y616912D01*
X20756Y617261D01*
X22244Y618256D01*
X22709Y618951D01*
X38944D01*
X43293Y614602D01*
X42222Y612845D01*
X41000Y613088D01*
X39244Y612739D01*
X37756Y611744D01*
X36761Y610256D01*
X36412Y608500D01*
X36761Y606744D01*
X37756Y605256D01*
X39244Y604261D01*
X41000Y603912D01*
X41820Y604075D01*
X93698Y552198D01*
X94524Y551645D01*
X95500Y551451D01*
X144000D01*
X144000Y551451D01*
X146995D01*
X147001Y551450D01*
X167291D01*
X167755Y550755D01*
X169244Y549760D01*
X171000Y549411D01*
X172756Y549760D01*
X174244Y550755D01*
X175239Y552243D01*
X175588Y553999D01*
X175239Y555755D01*
X174244Y557243D01*
X172756Y558238D01*
X171705Y558447D01*
X171293Y559419D01*
X171756Y561260D01*
X173244Y562255D01*
X174239Y563743D01*
X174588Y565499D01*
X174239Y567255D01*
X173244Y568743D01*
X171756Y569738D01*
X170000Y570087D01*
X169898Y571295D01*
X169938Y571499D01*
X169589Y573255D01*
X170607Y575330D01*
X171244Y575756D01*
X172239Y577244D01*
X172588Y579000D01*
X172239Y580756D01*
X171244Y582244D01*
X171507Y584402D01*
X171801Y584697D01*
X171802Y584698D01*
X172355Y585525D01*
X172549Y586500D01*
Y597778D01*
X172355Y598754D01*
X171802Y599580D01*
X171801Y599581D01*
X167580Y603802D01*
X166753Y604355D01*
X165778Y604549D01*
X148733D01*
X145480Y607802D01*
X144653Y608355D01*
X143678Y608549D01*
X141905D01*
X69049Y681405D01*
Y739444D01*
X74180Y744575D01*
X75000Y744412D01*
X76756Y744761D01*
X78244Y745756D01*
X79239Y747244D01*
X79588Y749000D01*
X79239Y750756D01*
X78244Y752244D01*
X76756Y753239D01*
X75000Y753588D01*
X73244Y753239D01*
X71756Y752244D01*
X70761Y750756D01*
X70412Y749000D01*
X70575Y748180D01*
X67397Y745002D01*
X65549Y745767D01*
Y798000D01*
X65355Y798975D01*
X64802Y799802D01*
X52584Y812021D01*
X52239Y813756D01*
X51244Y815244D01*
X49756Y816239D01*
X48000Y816588D01*
X46244Y816239D01*
X44756Y815244D01*
X44217Y814438D01*
X41909Y813917D01*
X40802Y815024D01*
X39976Y815577D01*
X39000Y815771D01*
X35834D01*
X26425Y825180D01*
X26588Y826000D01*
X26239Y827756D01*
X25244Y829244D01*
X23756Y830239D01*
X22000Y830588D01*
D02*
G37*
G36*
X195750Y756588D02*
X193994Y756239D01*
X192506Y755244D01*
X191511Y753756D01*
X191162Y752000D01*
X191511Y750244D01*
X192506Y748756D01*
X193201Y748291D01*
Y741750D01*
X193395Y740775D01*
X193948Y739948D01*
X270075Y663820D01*
X269912Y663000D01*
X270261Y661244D01*
X271256Y659756D01*
X270612Y657780D01*
X270261Y657254D01*
X269911Y655499D01*
X270261Y653743D01*
X271255Y652254D01*
X272744Y651260D01*
X274499Y650910D01*
X276255Y651260D01*
X277744Y652254D01*
X278208Y652950D01*
X281999D01*
X282974Y653144D01*
X283801Y653696D01*
X285597Y655492D01*
X286000Y655412D01*
X287756Y655761D01*
X289244Y656756D01*
X290239Y658244D01*
X290588Y660000D01*
X290239Y661756D01*
X289244Y663244D01*
X287756Y664239D01*
X286000Y664588D01*
X285180Y664425D01*
X279302Y670302D01*
X278475Y670855D01*
X277500Y671049D01*
X275005D01*
X206549Y739505D01*
Y742441D01*
X207244Y742906D01*
X208239Y744394D01*
X208588Y746150D01*
X208239Y747906D01*
X207244Y749394D01*
X205756Y750389D01*
X204000Y750738D01*
X202244Y750389D01*
X202028Y750245D01*
X200228Y751447D01*
X200338Y752000D01*
X199989Y753756D01*
X198994Y755244D01*
X197506Y756239D01*
X195750Y756588D01*
D02*
G37*
G36*
X584400Y626000D02*
X578400D01*
Y620000D01*
X584400D01*
Y626000D01*
D02*
G37*
G36*
X342500Y582588D02*
X340744Y582239D01*
X339256Y581244D01*
X338261Y579756D01*
X337912Y578000D01*
X338261Y576244D01*
X339256Y574756D01*
X340744Y573761D01*
X342500Y573412D01*
X344256Y573761D01*
X345744Y574756D01*
X346739Y576244D01*
X347088Y578000D01*
X346739Y579756D01*
X345744Y581244D01*
X344256Y582239D01*
X342500Y582588D01*
D02*
G37*
G36*
X461000Y581582D02*
X458520Y581255D01*
X456209Y580298D01*
X454225Y578775D01*
X452702Y576791D01*
X451744Y574480D01*
X451418Y572000D01*
X451744Y569520D01*
X452702Y567209D01*
X454225Y565224D01*
X456209Y563702D01*
X458520Y562744D01*
X461000Y562418D01*
X463480Y562744D01*
X465791Y563702D01*
X467775Y565224D01*
X469298Y567209D01*
X470255Y569520D01*
X470582Y572000D01*
X470255Y574480D01*
X469298Y576791D01*
X467775Y578775D01*
X465791Y580298D01*
X463480Y581255D01*
X461000Y581582D01*
D02*
G37*
G36*
X67000Y564588D02*
X65244Y564239D01*
X63756Y563244D01*
X62761Y561756D01*
X62412Y560000D01*
X62761Y558244D01*
X63756Y556756D01*
X65244Y555761D01*
X67000Y555412D01*
X68756Y555761D01*
X70244Y556756D01*
X71239Y558244D01*
X71588Y560000D01*
X71239Y561756D01*
X70244Y563244D01*
X68756Y564239D01*
X67000Y564588D01*
D02*
G37*
G36*
X522600Y642095D02*
X519728Y641717D01*
X517052Y640608D01*
X514755Y638845D01*
X512991Y636547D01*
X511883Y633872D01*
X511505Y631000D01*
X511883Y628128D01*
X512991Y625452D01*
X514755Y623155D01*
X517052Y621391D01*
X519728Y620283D01*
X522600Y619905D01*
X525472Y620283D01*
X528148Y621391D01*
X530445Y623155D01*
X532209Y625452D01*
X533317Y628128D01*
X533695Y631000D01*
X533317Y633872D01*
X532209Y636547D01*
X530445Y638845D01*
X528148Y640608D01*
X525472Y641717D01*
X522600Y642095D01*
D02*
G37*
G36*
X453500Y603088D02*
X451744Y602739D01*
X450256Y601744D01*
X449261Y600256D01*
X448912Y598500D01*
X449075Y597680D01*
X380694Y529299D01*
X338459D01*
X337994Y529994D01*
X336506Y530989D01*
X334750Y531338D01*
X332994Y530989D01*
X331506Y529994D01*
X330511Y528506D01*
X330162Y526750D01*
X330511Y524994D01*
X331506Y523506D01*
X332994Y522511D01*
X334750Y522162D01*
X336506Y522511D01*
X337994Y523506D01*
X338459Y524201D01*
X381750D01*
X382725Y524395D01*
X383552Y524948D01*
X452680Y594075D01*
X453500Y593912D01*
X455256Y594261D01*
X456744Y595256D01*
X457739Y596744D01*
X458088Y598500D01*
X457739Y600256D01*
X456744Y601744D01*
X455256Y602739D01*
X453500Y603088D01*
D02*
G37*
G36*
X193000Y717088D02*
X191244Y716739D01*
X189756Y715744D01*
X188761Y714256D01*
X188412Y712500D01*
X188761Y710744D01*
X189756Y709256D01*
X190451Y708791D01*
Y681556D01*
X182698Y673802D01*
X182145Y672975D01*
X181951Y672000D01*
Y665000D01*
X182145Y664025D01*
X182698Y663198D01*
X202575Y643320D01*
X202412Y642500D01*
X202761Y640744D01*
X203756Y639256D01*
X205244Y638261D01*
X207000Y637912D01*
X208756Y638261D01*
X210244Y639256D01*
X211239Y640744D01*
X211588Y642500D01*
X213437Y643459D01*
X218698Y638198D01*
X219525Y637645D01*
X220500Y637451D01*
X330494D01*
X378451Y589495D01*
Y587722D01*
X378645Y586746D01*
X379198Y585919D01*
X385528Y579589D01*
X385411Y578999D01*
X385760Y577243D01*
X386755Y575755D01*
X388243Y574760D01*
X389999Y574411D01*
X391755Y574760D01*
X393243Y575755D01*
X394238Y577243D01*
X394587Y578999D01*
X394238Y580755D01*
X393887Y581280D01*
X393409Y582750D01*
X393887Y584218D01*
X394239Y584744D01*
X394588Y586500D01*
X394239Y588256D01*
X393244Y589744D01*
X391756Y590739D01*
X390000Y591088D01*
X389180Y590925D01*
X334802Y645302D01*
X333975Y645855D01*
X333000Y646049D01*
X223006D01*
X205320Y663735D01*
X204744Y665756D01*
X205739Y667244D01*
X206088Y669000D01*
X205739Y670756D01*
X204744Y672244D01*
X203256Y673239D01*
X201500Y673588D01*
X199744Y673239D01*
X198256Y672244D01*
X197611Y671280D01*
X197230Y671173D01*
X195770D01*
X195389Y671280D01*
X194744Y672244D01*
X193256Y673239D01*
X192352Y673419D01*
X191596Y675491D01*
X194802Y678698D01*
X195355Y679525D01*
X195549Y680500D01*
Y708791D01*
X196244Y709256D01*
X197239Y710744D01*
X197588Y712500D01*
X197239Y714256D01*
X196244Y715744D01*
X194756Y716739D01*
X193000Y717088D01*
D02*
G37*
G36*
X130500Y778588D02*
X128744Y778239D01*
X127256Y777244D01*
X126261Y775756D01*
X125912Y774000D01*
X126261Y772244D01*
X126733Y771537D01*
X126211Y770756D01*
X125862Y769000D01*
X126211Y767244D01*
X127206Y765756D01*
X128694Y764761D01*
X130450Y764412D01*
X132206Y764761D01*
X133694Y765756D01*
X134689Y767244D01*
X135038Y769000D01*
X134689Y770756D01*
X134217Y771463D01*
X134739Y772244D01*
X135088Y774000D01*
X134739Y775756D01*
X133744Y777244D01*
X132256Y778239D01*
X130500Y778588D01*
D02*
G37*
G36*
X246500Y787082D02*
X244020Y786755D01*
X241709Y785798D01*
X239725Y784275D01*
X238202Y782291D01*
X237244Y779980D01*
X236918Y777500D01*
X237244Y775020D01*
X238202Y772709D01*
X239725Y770724D01*
X241709Y769202D01*
X244020Y768244D01*
X246500Y767918D01*
X248980Y768244D01*
X251291Y769202D01*
X253275Y770724D01*
X254798Y772709D01*
X255755Y775020D01*
X256082Y777500D01*
X255755Y779980D01*
X254798Y782291D01*
X253275Y784275D01*
X251291Y785798D01*
X248980Y786755D01*
X246500Y787082D01*
D02*
G37*
G36*
X91000Y717588D02*
X89244Y717239D01*
X87756Y716244D01*
X86761Y714756D01*
X86412Y713000D01*
X86761Y711244D01*
X87425Y710250D01*
X86761Y709256D01*
X86412Y707500D01*
X86761Y705744D01*
X87756Y704256D01*
X89244Y703261D01*
X91000Y702912D01*
X92756Y703261D01*
X94244Y704256D01*
X95239Y705744D01*
X95588Y707500D01*
X95239Y709256D01*
X94575Y710250D01*
X95239Y711244D01*
X95588Y713000D01*
X95239Y714756D01*
X94244Y716244D01*
X92756Y717239D01*
X91000Y717588D01*
D02*
G37*
G36*
X186000Y745088D02*
X184244Y744739D01*
X182756Y743744D01*
X181761Y742256D01*
X181412Y740500D01*
X181761Y738744D01*
X182756Y737256D01*
X184244Y736261D01*
X186000Y735912D01*
X187756Y736261D01*
X189244Y737256D01*
X190239Y738744D01*
X190588Y740500D01*
X190239Y742256D01*
X189244Y743744D01*
X187756Y744739D01*
X186000Y745088D01*
D02*
G37*
G36*
X166000Y770588D02*
X164244Y770239D01*
X162756Y769244D01*
X161761Y767756D01*
X161412Y766000D01*
X161761Y764244D01*
X162756Y762756D01*
X164244Y761761D01*
X166000Y761412D01*
X167756Y761761D01*
X169244Y762756D01*
X170239Y764244D01*
X170588Y766000D01*
X170239Y767756D01*
X169244Y769244D01*
X167756Y770239D01*
X166000Y770588D01*
D02*
G37*
G36*
X140000Y730588D02*
X138244Y730239D01*
X136756Y729244D01*
X135761Y727756D01*
X135412Y726000D01*
X135761Y724244D01*
X136756Y722756D01*
X138244Y721761D01*
X140000Y721412D01*
X141756Y721761D01*
X143244Y722756D01*
X144239Y724244D01*
X144588Y726000D01*
X144239Y727756D01*
X143244Y729244D01*
X141756Y730239D01*
X140000Y730588D01*
D02*
G37*
G36*
X314000Y704088D02*
X312244Y703739D01*
X311000Y702908D01*
X309756Y703739D01*
X308000Y704088D01*
X306244Y703739D01*
X304756Y702744D01*
X303761Y701256D01*
X303412Y699500D01*
X303761Y697744D01*
X304756Y696256D01*
X306244Y695261D01*
X308000Y694912D01*
X309756Y695261D01*
X311000Y696092D01*
X312244Y695261D01*
X314000Y694912D01*
X315756Y695261D01*
X317244Y696256D01*
X318239Y697744D01*
X318588Y699500D01*
X318239Y701256D01*
X317244Y702744D01*
X315756Y703739D01*
X314000Y704088D01*
D02*
G37*
G36*
X125000Y879095D02*
X122128Y878717D01*
X119452Y877608D01*
X117155Y875845D01*
X115392Y873547D01*
X114283Y870872D01*
X113905Y868000D01*
X114283Y865128D01*
X115392Y862453D01*
X117155Y860155D01*
X119452Y858391D01*
X122128Y857283D01*
X125000Y856905D01*
X127872Y857283D01*
X130548Y858391D01*
X130806Y858590D01*
X146951Y842444D01*
Y703709D01*
X146256Y703244D01*
X145261Y701756D01*
X144912Y700000D01*
X145261Y698244D01*
X146256Y696756D01*
X147744Y695761D01*
X149500Y695412D01*
X151256Y695761D01*
X152744Y696756D01*
X153739Y698244D01*
X154088Y700000D01*
X153739Y701756D01*
X152744Y703244D01*
X152049Y703709D01*
Y843500D01*
X151855Y844475D01*
X151302Y845302D01*
X134410Y862194D01*
X134608Y862453D01*
X135717Y865128D01*
X136095Y868000D01*
X135717Y870872D01*
X134608Y873547D01*
X132845Y875845D01*
X130548Y877608D01*
X127872Y878717D01*
X125000Y879095D01*
D02*
G37*
G36*
X562000Y692167D02*
X559439Y690799D01*
X556013Y687987D01*
X553201Y684561D01*
X551833Y682000D01*
X562000D01*
Y692167D01*
D02*
G37*
G36*
X195750Y780088D02*
X193994Y779739D01*
X192506Y778744D01*
X191511Y777256D01*
X191162Y775500D01*
X191511Y773744D01*
X192506Y772256D01*
X193994Y771261D01*
X195750Y770912D01*
X197506Y771261D01*
X198994Y772256D01*
X199989Y773744D01*
X200338Y775500D01*
X199989Y777256D01*
X198994Y778744D01*
X197506Y779739D01*
X195750Y780088D01*
D02*
G37*
G36*
X176000Y719582D02*
X173520Y719256D01*
X171209Y718298D01*
X169225Y716776D01*
X167702Y714791D01*
X166744Y712480D01*
X166418Y710000D01*
X166744Y707520D01*
X167702Y705209D01*
X169225Y703225D01*
X171209Y701702D01*
X173520Y700744D01*
X176000Y700418D01*
X178480Y700744D01*
X180791Y701702D01*
X182775Y703225D01*
X184298Y705209D01*
X185256Y707520D01*
X185582Y710000D01*
X185256Y712480D01*
X184298Y714791D01*
X182775Y716776D01*
X180791Y718298D01*
X178480Y719256D01*
X176000Y719582D01*
D02*
G37*
G36*
X281000Y787082D02*
X278520Y786755D01*
X276209Y785798D01*
X274224Y784275D01*
X272702Y782291D01*
X271744Y779980D01*
X271418Y777500D01*
X271744Y775020D01*
X272702Y772709D01*
X274224Y770724D01*
X276209Y769202D01*
X278520Y768244D01*
X281000Y767918D01*
X283480Y768244D01*
X285791Y769202D01*
X287775Y770724D01*
X289298Y772709D01*
X290256Y775020D01*
X290582Y777500D01*
X290256Y779980D01*
X289298Y782291D01*
X287775Y784275D01*
X285791Y785798D01*
X283480Y786755D01*
X281000Y787082D01*
D02*
G37*
G36*
X45500Y723088D02*
X43744Y722739D01*
X42256Y721744D01*
X41261Y720256D01*
X40912Y718500D01*
X41261Y716744D01*
X41925Y715750D01*
X41261Y714756D01*
X40912Y713000D01*
X41261Y711244D01*
X41925Y710250D01*
X41261Y709256D01*
X40912Y707500D01*
X41261Y705744D01*
X41925Y704750D01*
X41261Y703756D01*
X40912Y702000D01*
X41261Y700244D01*
X42256Y698756D01*
X43744Y697761D01*
X45500Y697412D01*
X47256Y697761D01*
X48744Y698756D01*
X49739Y700244D01*
X50088Y702000D01*
X49739Y703756D01*
X49075Y704750D01*
X49739Y705744D01*
X50088Y707500D01*
X49739Y709256D01*
X49075Y710250D01*
X49739Y711244D01*
X50088Y713000D01*
X49739Y714756D01*
X49075Y715750D01*
X49739Y716744D01*
X50088Y718500D01*
X49739Y720256D01*
X48744Y721744D01*
X47256Y722739D01*
X45500Y723088D01*
D02*
G37*
%LPD*%
G36*
X559000Y496000D02*
X537500D01*
Y641500D01*
X559000D01*
Y496000D01*
D02*
G37*
G36*
X419951Y183844D02*
Y179709D01*
X419256Y179244D01*
X418925Y178750D01*
X416575D01*
X416244Y179244D01*
X414756Y180239D01*
X413000Y180588D01*
X411244Y180239D01*
X409756Y179244D01*
X408761Y177756D01*
X408412Y176000D01*
X408601Y175049D01*
X407337Y173049D01*
X400663D01*
X399399Y175049D01*
X399588Y176000D01*
X399239Y177756D01*
X398244Y179244D01*
X397549Y179709D01*
Y203633D01*
X399397Y204398D01*
X419951Y183844D01*
D02*
G37*
G36*
X522000Y805500D02*
X522000Y789975D01*
X542987Y768987D01*
X542987Y668037D01*
X529487Y654537D01*
X512987Y654537D01*
X503487Y664037D01*
X503487Y681537D01*
X511487Y689537D01*
X511487Y751487D01*
X473487Y789488D01*
X473487Y810987D01*
X484487Y821987D01*
X505513Y821987D01*
X522000Y805500D01*
D02*
G37*
G36*
X494138Y702086D02*
X494138Y688638D01*
X491000Y685500D01*
X491000Y341500D01*
X471500Y322000D01*
X471500Y279443D01*
X471412Y279000D01*
X471500Y278557D01*
Y277000D01*
X490000Y258500D01*
X490511D01*
X490761Y257244D01*
X491756Y255756D01*
X493244Y254761D01*
X495000Y254412D01*
X496756Y254761D01*
X498244Y255756D01*
X498713Y256458D01*
X500846Y256894D01*
X501179Y256821D01*
X519500Y238500D01*
X519500Y216500D01*
X509000Y216500D01*
X496802Y228697D01*
X497802Y229698D01*
X498355Y230525D01*
X498435Y230929D01*
X499244Y231470D01*
X500239Y232958D01*
X500588Y234714D01*
X500239Y236470D01*
X499244Y237958D01*
X497756Y238953D01*
X496000Y239302D01*
X494244Y238953D01*
X492756Y237958D01*
X491800Y236528D01*
X491753Y236468D01*
X489607Y235893D01*
X454000Y271500D01*
X454000Y325500D01*
X476000Y347500D01*
X476000Y689500D01*
X486998Y700499D01*
X486998Y703500D01*
X492723Y703500D01*
X494138Y702086D01*
D02*
G37*
G36*
X496654Y226549D02*
X505307Y217897D01*
X504541Y216049D01*
X488123D01*
X487877Y216140D01*
X487689Y218049D01*
X488756Y218261D01*
X490244Y219256D01*
X491239Y220744D01*
X491588Y222500D01*
X491425Y223320D01*
X494654Y226549D01*
X496654D01*
D02*
G37*
D49*
X183000Y126200D02*
X194200Y115000D01*
X168838Y114838D02*
X169000Y115000D01*
X164212Y114838D02*
X168838D01*
X155000Y124050D02*
X164212Y114838D01*
X143500Y115000D02*
Y121000D01*
X149000Y126500D01*
X22000Y826000D02*
X34778Y813222D01*
X39000D01*
X95500Y554000D02*
X144000D01*
X41000Y608500D02*
X95500Y554000D01*
X51000Y629500D02*
X109001Y571499D01*
X51000Y629500D02*
Y634000D01*
X224500Y508000D02*
X274000D01*
X213000Y496500D02*
X224500Y508000D01*
X213000Y478000D02*
Y496500D01*
X199000Y464000D02*
X213000Y478000D01*
X97000Y464000D02*
X199000D01*
X228000Y456500D02*
X269500Y498000D01*
X217750Y456500D02*
X228000D01*
X212500Y451250D02*
X217750Y456500D01*
X89500D02*
X97000Y464000D01*
X89500Y452750D02*
Y456500D01*
X182500Y766500D02*
Y798000D01*
X388450Y579000D02*
X389999Y580550D01*
X378000Y268000D02*
X436000Y210000D01*
X166500Y477000D02*
Y510000D01*
X138001Y593999D02*
X139000Y594998D01*
X138001Y593999D02*
X138001Y593999D01*
X331550Y640000D02*
X381000Y590550D01*
Y587722D02*
Y590550D01*
Y587722D02*
X388450Y580272D01*
Y579000D02*
Y580272D01*
X220500Y640000D02*
X331550D01*
X389999Y578999D02*
Y580550D01*
X161000Y745000D02*
X182500Y766500D01*
X161000Y693000D02*
Y745000D01*
X109001Y571499D02*
X165350D01*
X334750Y526750D02*
X381750D01*
X333000Y643500D02*
X390000Y586500D01*
X221950Y643500D02*
X333000D01*
X286000Y659500D02*
Y660000D01*
X241500Y375500D02*
X255000Y389000D01*
X18500Y705000D02*
Y749500D01*
X191500Y669000D02*
X220500Y640000D01*
X309500Y288000D02*
Y460000D01*
X313000Y289450D02*
Y461450D01*
X306000Y286550D02*
Y458550D01*
X316500Y290899D02*
Y370500D01*
X291500Y468101D02*
X297000Y462601D01*
X295000Y469550D02*
X306000Y458550D01*
X298500Y471000D02*
X309500Y460000D01*
X302000Y472450D02*
X313000Y461450D01*
X302000Y472450D02*
Y520799D01*
X302000Y520799D01*
X298500Y471000D02*
Y522249D01*
X298500Y522249D01*
X295000Y469550D02*
Y513450D01*
X86500Y386000D02*
X96000Y376500D01*
Y376000D02*
X96250Y376250D01*
X125000Y868000D02*
X149500Y843500D01*
Y700000D02*
Y843500D01*
X201500Y663950D02*
Y669000D01*
Y663950D02*
X221950Y643500D01*
X286499Y612999D02*
X287001Y613500D01*
X296000D01*
X302000Y607500D01*
Y520799D02*
Y607500D01*
X292500Y608000D02*
X293000D01*
X298500Y602500D01*
Y522249D02*
Y602500D01*
X254000Y594500D02*
X284000Y564500D01*
Y539000D02*
Y539500D01*
Y564500D01*
X269500Y538950D02*
Y547000D01*
Y538950D02*
X295000Y513450D01*
X262500Y540500D02*
Y540500D01*
Y540500D02*
X291500Y511500D01*
Y468101D02*
Y511500D01*
X316100Y484500D02*
Y539600D01*
X320500Y544000D01*
X277500Y668500D02*
X286000Y660000D01*
X273950Y668500D02*
X277500D01*
X204000Y738450D02*
X273950Y668500D01*
X195750Y741750D02*
Y752000D01*
Y741750D02*
X274500Y663000D01*
X204000Y738450D02*
Y746150D01*
X274499Y655999D02*
X274500Y656000D01*
X274499Y655499D02*
Y655999D01*
Y655499D02*
X281999D01*
X286000Y659500D01*
X274500Y656000D02*
X274750Y655750D01*
X144000Y554000D02*
X144000Y554000D01*
X19000Y621500D02*
X40000D01*
X102000Y559500D01*
X105001Y565499D02*
X170000D01*
X75000Y595500D02*
X105001Y565499D01*
X102000Y559500D02*
X165350D01*
X147001Y553999D02*
X171000D01*
X144000Y554000D02*
X147000D01*
X147001Y553999D01*
X193000Y680500D02*
Y712500D01*
X18500Y705000D02*
X139500Y584000D01*
X139000Y593000D02*
Y594998D01*
X139488Y602412D02*
X142316D01*
X148228Y596500D02*
X163500D01*
X142316Y602412D02*
X148228Y596500D01*
X138038Y598912D02*
X140866D01*
X150778Y589000D01*
X164000D01*
X168000Y579000D02*
Y584500D01*
X170000Y586500D01*
X170000D02*
Y597778D01*
X140849Y606000D02*
X143678D01*
X147678Y602000D01*
X165778D01*
X170000Y597778D01*
X161000Y693000D02*
X175000Y679000D01*
X235000Y594500D02*
X254000D01*
X175000Y654500D02*
Y679000D01*
Y654500D02*
X235000Y594500D01*
X181000Y631998D02*
X181000Y631999D01*
X164000Y615000D02*
Y626499D01*
X170000Y613950D02*
Y631999D01*
X175500Y613400D02*
Y626499D01*
X181000Y612849D02*
Y631999D01*
Y612849D02*
X192000Y601849D01*
Y540550D02*
Y601849D01*
X186500Y612299D02*
Y626500D01*
Y612299D02*
X195500Y603299D01*
Y539000D02*
Y603299D01*
X86500Y386000D02*
Y431000D01*
X73500Y444000D02*
X86500Y431000D01*
X73500Y444000D02*
Y464000D01*
X135500Y526000D01*
Y544000D01*
X136000D01*
X155000Y508500D02*
X155000Y508500D01*
X164000Y615000D02*
X181500Y597500D01*
Y545000D02*
Y597500D01*
X170000Y613950D02*
X185000Y598950D01*
Y543500D02*
Y598950D01*
X175500Y613400D02*
X188500Y600400D01*
Y542000D02*
Y600400D01*
X155000Y508500D02*
X188500Y542000D01*
X166500Y510000D02*
X195500Y539000D01*
X140200Y503700D02*
X181500Y545000D01*
X166001Y477499D02*
X166500Y477000D01*
X166000Y477499D02*
X166001D01*
X166000D02*
Y477500D01*
X140200Y477500D02*
Y503700D01*
X159500Y481999D02*
Y508050D01*
X192000Y540550D01*
X153000Y506500D02*
X155000Y508500D01*
X153000Y477499D02*
Y506500D01*
X146500Y499000D02*
Y505000D01*
X146500Y481999D02*
Y499000D01*
X146500Y505000D02*
X185000Y543500D01*
X147000Y352721D02*
X147000Y352721D01*
X147000Y352721D02*
Y360500D01*
X147000Y360500D01*
X158499Y359999D02*
X158500D01*
X164500Y346500D02*
X164500Y346500D01*
X164500Y346500D02*
Y355000D01*
X164500Y204000D02*
Y346500D01*
X141500Y176500D02*
Y354999D01*
Y176500D02*
X143200Y174800D01*
Y167050D02*
Y174800D01*
X147000Y178500D02*
Y352721D01*
X152500Y180000D02*
Y354999D01*
Y180000D02*
X155000Y177500D01*
Y124050D02*
Y177500D01*
X158500Y182000D02*
Y359999D01*
X184500Y665000D02*
X207000Y642500D01*
X184500Y665000D02*
Y672000D01*
X193000Y680500D01*
X255000Y389000D02*
Y458000D01*
X281500Y484500D01*
X269500Y498000D02*
X281000D01*
X56000Y676000D02*
X138001Y593999D01*
X59500Y677450D02*
X138038Y598912D01*
X63000Y678899D02*
X139488Y602412D01*
X66500Y680349D02*
X140849Y606000D01*
X66500Y680349D02*
Y740500D01*
X75000Y749000D01*
X147000Y178500D02*
X149000Y176500D01*
Y126500D02*
Y176500D01*
X143200Y167050D02*
X143250Y167000D01*
X158500Y182000D02*
X168750Y171750D01*
Y167000D02*
Y171750D01*
X183000Y126200D02*
Y185500D01*
X164500Y204000D02*
X183000Y185500D01*
X48000Y812000D02*
X49000D01*
X63000Y798000D01*
Y678899D02*
Y798000D01*
X39000Y813222D02*
X59500Y792722D01*
Y677450D02*
Y792722D01*
X56000Y676000D02*
Y787000D01*
X49000Y794000D02*
X56000Y787000D01*
X542500Y210000D02*
X555000Y197500D01*
X560950D01*
X561000D01*
X436000Y210000D02*
X542500D01*
X437450Y213500D02*
X535000D01*
X316500Y290899D02*
X422500Y184900D01*
X309500Y288000D02*
X386250Y211250D01*
X306000Y286550D02*
X378500Y214050D01*
X560950Y239450D02*
Y312500D01*
X535000Y213500D02*
X560950Y239450D01*
X447500Y233000D02*
X447500Y233000D01*
X313000Y289450D02*
X395000Y207450D01*
X386000Y211000D02*
X386250Y211250D01*
X386000Y211000D02*
X386250Y210750D01*
X384000Y266950D02*
X437450Y213500D01*
X384000Y266950D02*
Y271000D01*
X383999Y270999D02*
X384000Y271000D01*
Y273000D01*
X378000Y267500D02*
Y268000D01*
X395000Y176000D02*
Y207450D01*
X426850Y170500D02*
X430850Y174500D01*
X386250Y176000D02*
Y210750D01*
X378500Y175972D02*
X383972Y170500D01*
X378500Y175972D02*
Y214050D01*
X383972Y170500D02*
X426850D01*
X422500Y176000D02*
Y184900D01*
X430850Y174500D02*
Y176000D01*
X316500Y370500D02*
X327500Y381500D01*
X337000D01*
X296950Y462551D02*
X297000Y462601D01*
X296950Y381500D02*
Y462551D01*
X447500Y233000D02*
X482000D01*
X489250Y240250D01*
X445000Y253000D02*
X462500D01*
X473000Y242500D02*
X475000D01*
X462500Y253000D02*
X473000Y242500D01*
X496000Y231500D02*
Y234714D01*
X487000Y222500D02*
X496000Y231500D01*
X381750Y526750D02*
X453500Y598500D01*
D51*
X496500Y631500D02*
X497000Y631000D01*
Y631000D02*
X501000Y627000D01*
Y609000D02*
Y627000D01*
X496500Y631500D02*
Y684500D01*
X498000Y685900D02*
X500000Y687900D01*
Y713000D01*
X496500Y684500D02*
X497950Y685950D01*
D52*
X311000Y968000D02*
G03*
X331000Y948000I20000J0D01*
G01*
X311000Y988000D02*
G03*
X291000Y1008000I-20000J0D01*
G01*
X25000Y1007999D02*
G03*
X0Y988000I-2500J-22499D01*
G01*
X23000Y911000D02*
G03*
X-0Y929000I-20500J-2500D01*
G01*
Y865000D02*
G03*
X23000Y883000I2500J20500D01*
G01*
X23000Y464000D02*
G03*
X-0Y480000I-19500J-3500D01*
G01*
X0Y416000D02*
G03*
X23000Y436000I1500J21500D01*
G01*
X121000Y1008000D02*
G03*
X156000Y973000I35000J0D01*
G01*
D02*
G03*
X191000Y1008000I0J35000D01*
G01*
X-1Y36000D02*
G03*
X69600Y23000I36035J109D01*
G01*
X242399Y22999D02*
G03*
X312000Y36000I33587J12998D01*
G01*
X591213Y182213D02*
G03*
X600000Y203426I-21213J21213D01*
G01*
X438574Y42000D02*
G03*
X459787Y50787I0J30000D01*
G01*
X600000Y928000D02*
G03*
X580000Y948000I-20000J0D01*
G01*
X50000Y883000D02*
G03*
X50000Y911000I0J14000D01*
G01*
Y436000D02*
G03*
X50000Y464000I0J14000D01*
G01*
X311000Y968000D02*
Y988000D01*
X191000Y1008000D02*
X291000D01*
X0Y929000D02*
Y988000D01*
X25000Y1008000D02*
X121000D01*
X23000Y911000D02*
X50000D01*
X23000Y883000D02*
X50000D01*
X0Y480000D02*
Y865000D01*
X23000Y436000D02*
X50000D01*
X23000Y464000D02*
X50000D01*
X69600Y23000D02*
X242400D01*
X0Y36000D02*
Y416000D01*
X312000Y36000D02*
Y42000D01*
X600000Y203426D02*
Y928000D01*
X459787Y50787D02*
X591213Y182213D01*
X331000Y948000D02*
X580000D01*
X312000Y42000D02*
X438574D01*
D53*
X522000Y672000D02*
D03*
X572000D02*
D03*
X545000Y800000D02*
D03*
X495000D02*
D03*
D54*
X580200Y290750D02*
D03*
Y219250D02*
D03*
D56*
X505100Y346500D02*
D03*
X530500D02*
D03*
X555900D02*
D03*
X581300D02*
D03*
D57*
X548000Y507000D02*
D03*
X522600D02*
D03*
X548000Y535000D02*
D03*
X522600D02*
D03*
X548000Y631000D02*
D03*
X522600D02*
D03*
X191000Y376000D02*
D03*
X216000D02*
D03*
X241000D02*
D03*
X255000Y843000D02*
D03*
Y868000D02*
D03*
X316000Y818000D02*
D03*
Y843000D02*
D03*
Y868000D02*
D03*
X125000Y818000D02*
D03*
Y843000D02*
D03*
Y868000D02*
D03*
X46000Y376000D02*
D03*
X71000D02*
D03*
X96000D02*
D03*
D58*
X573400Y507000D02*
D03*
Y535000D02*
D03*
Y631000D02*
D03*
X266000Y376000D02*
D03*
X121000D02*
D03*
D59*
X176000Y710000D02*
D03*
X461000Y527500D02*
D03*
Y572000D02*
D03*
X449050Y183500D02*
D03*
X366400Y183950D02*
D03*
X212500Y456000D02*
D03*
X89500D02*
D03*
X184000Y798000D02*
D03*
X363500Y671000D02*
D03*
Y772500D02*
D03*
X281000Y777500D02*
D03*
X246500D02*
D03*
D60*
X255000Y893000D02*
D03*
X316000D02*
D03*
X125000D02*
D03*
D61*
X55750Y240000D02*
D03*
X257750D02*
D03*
X36750Y973000D02*
D03*
X276750D02*
D03*
X446750Y895000D02*
D03*
X427750Y450000D02*
D03*
D62*
X504750Y296000D02*
D03*
Y180000D02*
D03*
X276750Y36000D02*
D03*
X36750D02*
D03*
X33750Y180000D02*
D03*
Y296000D02*
D03*
D64*
X172500Y481500D02*
D03*
X189000Y811000D02*
D03*
Y816500D02*
D03*
X130500Y774000D02*
D03*
X386000Y767000D02*
D03*
Y772000D02*
D03*
Y777500D02*
D03*
X194200Y115000D02*
D03*
X169000D02*
D03*
X143500D02*
D03*
X193000Y734500D02*
D03*
X52500Y834000D02*
D03*
Y840500D02*
D03*
X22000Y826000D02*
D03*
X41000Y608500D02*
D03*
X51000Y634000D02*
D03*
X91000Y707500D02*
D03*
Y713000D02*
D03*
X45500D02*
D03*
Y707500D02*
D03*
X381000Y767000D02*
D03*
Y777500D02*
D03*
Y772000D02*
D03*
X376000Y767000D02*
D03*
Y777500D02*
D03*
Y772000D02*
D03*
X350000Y772500D02*
D03*
Y777500D02*
D03*
X370500Y660500D02*
D03*
X342000Y662000D02*
D03*
Y677000D02*
D03*
Y672000D02*
D03*
Y667000D02*
D03*
X347000D02*
D03*
Y672000D02*
D03*
Y677000D02*
D03*
X352000D02*
D03*
X130450Y769000D02*
D03*
X241000Y790000D02*
D03*
X281000Y794000D02*
D03*
X248900Y798500D02*
D03*
X217400D02*
D03*
X272600D02*
D03*
X241350D02*
D03*
X194200Y811000D02*
D03*
Y816500D02*
D03*
X226500Y497000D02*
D03*
X109000Y409500D02*
D03*
X104000D02*
D03*
X99250Y412000D02*
D03*
Y417000D02*
D03*
X425500Y607500D02*
D03*
X501000Y609000D02*
D03*
X417000Y754000D02*
D03*
X126000Y169500D02*
D03*
X99500Y140500D02*
D03*
X102000Y161500D02*
D03*
X37500Y360000D02*
D03*
X30000Y373500D02*
D03*
X33500Y386500D02*
D03*
X45500Y393000D02*
D03*
X174500Y372500D02*
D03*
X180500Y361000D02*
D03*
X192000Y359000D02*
D03*
X203000Y364000D02*
D03*
X137500Y709000D02*
D03*
X414500Y328500D02*
D03*
X495000Y259000D02*
D03*
X318500Y440500D02*
D03*
Y460000D02*
D03*
X476000Y279000D02*
D03*
X471000Y356000D02*
D03*
X592500Y506500D02*
D03*
Y535500D02*
D03*
X577500Y598000D02*
D03*
X592500Y629500D02*
D03*
X589000Y648000D02*
D03*
X593000Y756000D02*
D03*
X571000Y756500D02*
D03*
X332000Y815000D02*
D03*
X270500Y868000D02*
D03*
X301500Y672000D02*
D03*
X298000Y684000D02*
D03*
X44500Y687500D02*
D03*
X389999Y578999D02*
D03*
X253000Y496000D02*
D03*
X413000Y176000D02*
D03*
X399950Y325000D02*
D03*
X95000Y605000D02*
D03*
X333500Y699000D02*
D03*
X323000Y653000D02*
D03*
X527000Y140500D02*
D03*
X234300Y482500D02*
D03*
Y487550D02*
D03*
X135500Y512000D02*
D03*
X172000Y470500D02*
D03*
X204000Y714500D02*
D03*
X186000Y740500D02*
D03*
X309500Y800500D02*
D03*
X300000Y940000D02*
D03*
X287000Y927500D02*
D03*
X386500Y283500D02*
D03*
X533000Y323000D02*
D03*
X190500Y649000D02*
D03*
X173000Y725500D02*
D03*
X223500Y700500D02*
D03*
X231000Y732500D02*
D03*
X229500Y764500D02*
D03*
X28000Y724500D02*
D03*
X46500Y745500D02*
D03*
X90750Y774500D02*
D03*
X69500Y799500D02*
D03*
X83000Y799000D02*
D03*
X47000Y763000D02*
D03*
X94500Y787500D02*
D03*
X150000Y531500D02*
D03*
X141000Y781000D02*
D03*
X308000Y699500D02*
D03*
X314000D02*
D03*
X112500Y586000D02*
D03*
X105500D02*
D03*
X95000Y613000D02*
D03*
X333000Y538000D02*
D03*
X309000Y507500D02*
D03*
X309500Y535500D02*
D03*
X175500Y578000D02*
D03*
X175500Y594000D02*
D03*
X324000Y362000D02*
D03*
X337500Y284000D02*
D03*
X328000Y300500D02*
D03*
X283000Y289500D02*
D03*
X118000Y300500D02*
D03*
X104000Y354999D02*
D03*
X60500Y358000D02*
D03*
X58500Y399000D02*
D03*
X103000Y397000D02*
D03*
X171500Y384500D02*
D03*
X188000Y471000D02*
D03*
X200500Y475500D02*
D03*
X221000Y467500D02*
D03*
X246000Y491500D02*
D03*
X254500Y468500D02*
D03*
X271500Y487000D02*
D03*
X275000Y464000D02*
D03*
X282500Y472500D02*
D03*
X328000Y474500D02*
D03*
X328500Y414000D02*
D03*
X318500Y450000D02*
D03*
X287000Y424000D02*
D03*
X288000Y434000D02*
D03*
X399000Y805500D02*
D03*
X341000Y907000D02*
D03*
X361000Y938000D02*
D03*
X285000Y895000D02*
D03*
X259500Y920500D02*
D03*
X206500Y871000D02*
D03*
X174000Y820000D02*
D03*
X166000Y829000D02*
D03*
X175000Y783000D02*
D03*
X201500Y801500D02*
D03*
X59000Y930500D02*
D03*
X82000Y994500D02*
D03*
X137500Y949500D02*
D03*
X296950Y708500D02*
D03*
X267000Y707000D02*
D03*
X287000Y737000D02*
D03*
X326000Y738500D02*
D03*
X315000Y757000D02*
D03*
X333500Y774500D02*
D03*
X167500Y542500D02*
D03*
X223000Y547500D02*
D03*
X243500Y558000D02*
D03*
X254000Y577500D02*
D03*
X273500Y558500D02*
D03*
X275500Y586000D02*
D03*
X291500Y571500D02*
D03*
X277500Y606500D02*
D03*
X203500Y584000D02*
D03*
X216500Y599000D02*
D03*
X202000Y614500D02*
D03*
X250000Y630000D02*
D03*
X230500Y612000D02*
D03*
X217000Y631450D02*
D03*
X224500Y649000D02*
D03*
X243950Y649500D02*
D03*
X239000Y667000D02*
D03*
X435500Y512000D02*
D03*
X360000Y511500D02*
D03*
X335500Y492000D02*
D03*
X393500Y519000D02*
D03*
X412000Y544000D02*
D03*
X446500Y555000D02*
D03*
X447000Y580500D02*
D03*
X464500Y590000D02*
D03*
X359500Y548000D02*
D03*
X324500Y569000D02*
D03*
X358500Y646000D02*
D03*
X334750Y623500D02*
D03*
X321000Y614000D02*
D03*
Y629500D02*
D03*
X365500Y588000D02*
D03*
X407500Y602000D02*
D03*
X550500Y394500D02*
D03*
X580500Y368500D02*
D03*
X562500Y375500D02*
D03*
X561500Y425000D02*
D03*
X514000Y391000D02*
D03*
X343000Y226000D02*
D03*
X379000Y250000D02*
D03*
X404050Y216000D02*
D03*
X406000Y284000D02*
D03*
X435500Y281500D02*
D03*
X71000Y164000D02*
D03*
X115500Y227500D02*
D03*
X105500Y190500D02*
D03*
X198500Y243500D02*
D03*
X223500Y193500D02*
D03*
X306500Y186000D02*
D03*
X314500Y255500D02*
D03*
X257500Y313000D02*
D03*
X201500Y287500D02*
D03*
X287500Y336500D02*
D03*
X226000Y322000D02*
D03*
X184500Y334000D02*
D03*
X118000Y260500D02*
D03*
X83500Y285000D02*
D03*
X120500Y333350D02*
D03*
X65000Y324000D02*
D03*
X11500Y379000D02*
D03*
X26500Y337000D02*
D03*
X104000Y476000D02*
D03*
X127000Y500500D02*
D03*
X111500Y534500D02*
D03*
X76000Y494500D02*
D03*
X21000Y502000D02*
D03*
X63000Y537500D02*
D03*
X20500Y552500D02*
D03*
X8000Y583000D02*
D03*
X124500Y580000D02*
D03*
X130450Y641000D02*
D03*
X118000Y658500D02*
D03*
X91500Y672500D02*
D03*
X118000Y692500D02*
D03*
X104000Y718750D02*
D03*
X101500Y745000D02*
D03*
X104000Y768550D02*
D03*
X114500Y792000D02*
D03*
X136500Y801500D02*
D03*
X459500Y631450D02*
D03*
Y622000D02*
D03*
Y640550D02*
D03*
X334750Y526750D02*
D03*
X390000Y586500D02*
D03*
X75000Y749000D02*
D03*
X542000Y521000D02*
D03*
X541000Y558000D02*
D03*
X545500Y564500D02*
D03*
X546500Y551000D02*
D03*
Y577000D02*
D03*
X555000Y521000D02*
D03*
X554500Y580500D02*
D03*
X547000Y585000D02*
D03*
X286000Y660000D02*
D03*
X228250Y408250D02*
D03*
X233500Y408300D02*
D03*
X238750Y417800D02*
D03*
Y412500D02*
D03*
X47000Y834000D02*
D03*
Y840500D02*
D03*
X330000Y928000D02*
D03*
X71000Y105000D02*
D03*
X25000Y113000D02*
D03*
X81500Y66000D02*
D03*
X125500Y120500D02*
D03*
X145000Y56000D02*
D03*
X35000Y414000D02*
D03*
X59000Y419500D02*
D03*
X165500Y423000D02*
D03*
X183500Y400500D02*
D03*
X180500Y419000D02*
D03*
X170500Y433000D02*
D03*
X182000Y432500D02*
D03*
X214200Y52000D02*
D03*
X252000Y145000D02*
D03*
X266950Y111500D02*
D03*
X344500Y73000D02*
D03*
X327000Y132500D02*
D03*
X199500Y393000D02*
D03*
X233000Y394000D02*
D03*
X247000Y430000D02*
D03*
X103000Y836000D02*
D03*
X25500Y869500D02*
D03*
X68000Y853000D02*
D03*
X67000Y877000D02*
D03*
X94500Y916500D02*
D03*
X85000Y945500D02*
D03*
X101500Y809500D02*
D03*
X110000Y979500D02*
D03*
X149500Y922000D02*
D03*
X346500Y811900D02*
D03*
X370000Y700000D02*
D03*
X201000Y911000D02*
D03*
X218500Y856500D02*
D03*
X201500Y896500D02*
D03*
X183500Y921000D02*
D03*
X190000Y958000D02*
D03*
X196500Y922000D02*
D03*
X219500Y997000D02*
D03*
X227500Y937500D02*
D03*
X228250Y896500D02*
D03*
X281500Y861000D02*
D03*
X388500Y146000D02*
D03*
X433950Y78000D02*
D03*
X404000Y120000D02*
D03*
X436500Y146500D02*
D03*
X479000Y134000D02*
D03*
X415000Y611500D02*
D03*
X433000Y623000D02*
D03*
X513500Y262000D02*
D03*
X536500Y451500D02*
D03*
X591000Y394000D02*
D03*
X591500Y434500D02*
D03*
X546500Y473000D02*
D03*
X500500Y515000D02*
D03*
X591500Y476000D02*
D03*
X590500Y558000D02*
D03*
X569500Y564500D02*
D03*
X568500Y608000D02*
D03*
X588500Y605000D02*
D03*
X406000Y626000D02*
D03*
X401250Y624000D02*
D03*
X401500Y629500D02*
D03*
X368500Y694000D02*
D03*
X433000Y644000D02*
D03*
Y634100D02*
D03*
Y654000D02*
D03*
X440450Y700500D02*
D03*
X417500Y719000D02*
D03*
X421000Y709000D02*
D03*
X425500Y754000D02*
D03*
X426500Y725000D02*
D03*
X367000Y795000D02*
D03*
X375000Y834000D02*
D03*
X416500Y763850D02*
D03*
X417000Y775500D02*
D03*
X418150Y826500D02*
D03*
X429000Y715000D02*
D03*
X435450Y708500D02*
D03*
X437500Y719500D02*
D03*
X433000Y754000D02*
D03*
X444500Y710500D02*
D03*
X470000Y641500D02*
D03*
X556500Y700850D02*
D03*
X574000Y700500D02*
D03*
X590500Y700000D02*
D03*
X554500Y736500D02*
D03*
X555000Y717000D02*
D03*
X573000Y716500D02*
D03*
X587000Y717500D02*
D03*
X495000Y742550D02*
D03*
X472000Y760000D02*
D03*
X481500Y769500D02*
D03*
X444000Y773000D02*
D03*
X454139Y779500D02*
D03*
X462000Y774500D02*
D03*
X459000Y821000D02*
D03*
X470500Y780000D02*
D03*
X560000Y762500D02*
D03*
X561500Y751000D02*
D03*
X579450Y750450D02*
D03*
X580500Y763450D02*
D03*
X526000Y838000D02*
D03*
X559500Y923500D02*
D03*
X563500Y847000D02*
D03*
X568000Y882000D02*
D03*
X515000Y768500D02*
D03*
X525700Y720000D02*
D03*
X537000D02*
D03*
X515000Y749000D02*
D03*
X526000Y768500D02*
D03*
X526150Y749000D02*
D03*
X538500Y768500D02*
D03*
X539000Y749000D02*
D03*
X140000Y726000D02*
D03*
X166000Y766000D02*
D03*
X139500Y584000D02*
D03*
X18500Y749500D02*
D03*
X191500Y669000D02*
D03*
X201500D02*
D03*
X284000Y539500D02*
D03*
X262500Y540500D02*
D03*
X281500Y484500D02*
D03*
X281000Y498000D02*
D03*
X149500Y700000D02*
D03*
X292500Y608000D02*
D03*
X286499Y612999D02*
D03*
X193000Y712500D02*
D03*
X269500Y547000D02*
D03*
X274000Y508000D02*
D03*
X320500Y544000D02*
D03*
X316100Y484500D02*
D03*
X274500Y663000D02*
D03*
X195750Y752000D02*
D03*
X204000Y746150D02*
D03*
X274499Y655499D02*
D03*
X75000Y595500D02*
D03*
X19000Y621500D02*
D03*
X165350Y571499D02*
D03*
X170000Y565499D02*
D03*
X165350Y559500D02*
D03*
X171000Y553999D02*
D03*
X207000Y642500D02*
D03*
X168000Y579000D02*
D03*
X139000Y593000D02*
D03*
X164000Y589000D02*
D03*
X163500Y596500D02*
D03*
X164000Y626499D02*
D03*
X170000Y631999D02*
D03*
X175500Y626499D02*
D03*
X181000Y631999D02*
D03*
X186500Y626500D02*
D03*
X136000Y544000D02*
D03*
X153000Y477499D02*
D03*
X159500Y481999D02*
D03*
X166000Y477499D02*
D03*
X146500Y481999D02*
D03*
X140200Y477500D02*
D03*
X152500Y354999D02*
D03*
X141500D02*
D03*
X147000Y360500D02*
D03*
X158499Y359999D02*
D03*
X164500Y355000D02*
D03*
X195750Y775500D02*
D03*
X280500Y819500D02*
D03*
X263000Y775000D02*
D03*
X260000Y769000D02*
D03*
X253500Y744000D02*
D03*
Y724500D02*
D03*
X347500Y312500D02*
D03*
X45500Y718500D02*
D03*
Y702000D02*
D03*
X342500Y578000D02*
D03*
X289500Y810000D02*
D03*
X295500D02*
D03*
X301500D02*
D03*
Y816000D02*
D03*
X295500D02*
D03*
X289500D02*
D03*
X236500Y119500D02*
D03*
X378000Y629500D02*
D03*
X72000Y92150D02*
D03*
X143250Y167000D02*
D03*
X168750D02*
D03*
X177000Y173000D02*
D03*
X48000Y812000D02*
D03*
X49000Y794000D02*
D03*
X406500Y631999D02*
D03*
X67000Y560000D02*
D03*
X529000Y265000D02*
D03*
X441000Y224500D02*
D03*
X560950Y197500D02*
D03*
X446500Y244500D02*
D03*
X412000Y221500D02*
D03*
X465000Y182000D02*
D03*
X441000Y196500D02*
D03*
X467000Y204500D02*
D03*
X560950Y312500D02*
D03*
X447500Y233000D02*
D03*
X384000Y273000D02*
D03*
X378000Y267500D02*
D03*
X395000Y176000D02*
D03*
X386250D02*
D03*
X422500D02*
D03*
X430850D02*
D03*
X417000Y306550D02*
D03*
X417000Y316450D02*
D03*
X337000Y381500D02*
D03*
X296950Y381500D02*
D03*
X445000Y329500D02*
D03*
X464500Y346500D02*
D03*
X444000Y267000D02*
D03*
X496000Y359500D02*
D03*
X520500Y361000D02*
D03*
X466000Y377500D02*
D03*
X450500Y353000D02*
D03*
X452500Y330500D02*
D03*
X412000Y368500D02*
D03*
X387000Y363000D02*
D03*
X366500D02*
D03*
X405500Y349500D02*
D03*
X432000Y360000D02*
D03*
X404050Y176000D02*
D03*
X366000Y196500D02*
D03*
X313500Y220550D02*
D03*
X113000Y644500D02*
D03*
X73000Y697550D02*
D03*
X73500Y724000D02*
D03*
X48500Y782500D02*
D03*
X74000Y774000D02*
D03*
X30500Y749000D02*
D03*
X19000Y774000D02*
D03*
X48500Y820000D02*
D03*
X90750Y547500D02*
D03*
X134000Y577500D02*
D03*
X113000Y577000D02*
D03*
X202500Y544000D02*
D03*
X296500Y317000D02*
D03*
X334750Y243500D02*
D03*
X351500Y270500D02*
D03*
X171800Y296500D02*
D03*
X173500Y207000D02*
D03*
X166500Y190000D02*
D03*
X373000Y325000D02*
D03*
X536700Y199500D02*
D03*
X539000Y191000D02*
D03*
X33500Y824500D02*
D03*
X10000Y825000D02*
D03*
X14000Y799000D02*
D03*
X35500Y799500D02*
D03*
X13500Y850500D02*
D03*
X40500Y850300D02*
D03*
X299000Y362000D02*
D03*
X326500Y389500D02*
D03*
X445000Y253000D02*
D03*
X475000Y242500D02*
D03*
X494500Y220550D02*
D03*
X487000Y222500D02*
D03*
X496000Y234714D02*
D03*
X511450Y219500D02*
D03*
X480500Y387500D02*
D03*
X363500Y701000D02*
D03*
X368500Y688000D02*
D03*
X525850Y776000D02*
D03*
X513000D02*
D03*
X515500Y703000D02*
D03*
X537000Y702500D02*
D03*
X525500Y703000D02*
D03*
X239500Y134250D02*
D03*
X209500Y117750D02*
D03*
X453500Y598500D02*
D03*
X506500Y576000D02*
D03*
X491000Y699500D02*
D03*
Y694500D02*
D03*
Y689500D02*
D03*
X500000Y713000D02*
D03*
X570500Y321000D02*
D03*
X570499Y189000D02*
D03*
X533500Y268000D02*
D03*
X538500Y267500D02*
D03*
Y262500D02*
D03*
X510000Y225000D02*
D03*
X512500Y229500D02*
D03*
X515000Y223500D02*
D03*
M02*
