G04 Layer_Physical_Order=1*
G04 Layer_Color=255*
%FSLAX44Y44*%
%MOMM*%
G71*
G01*
G75*
%ADD10R,4.2500X4.2500*%
%ADD11R,0.8500X0.2800*%
%ADD12R,0.2800X0.8500*%
%ADD13R,2.6000X0.4000*%
%ADD14R,1.4000X1.2000*%
G04:AMPARAMS|DCode=15|XSize=1.54mm|YSize=1.7mm|CornerRadius=0.154mm|HoleSize=0mm|Usage=FLASHONLY|Rotation=270.000|XOffset=0mm|YOffset=0mm|HoleType=Round|Shape=RoundedRectangle|*
%AMROUNDEDRECTD15*
21,1,1.5400,1.3920,0,0,270.0*
21,1,1.2320,1.7000,0,0,270.0*
1,1,0.3080,-0.6960,-0.6160*
1,1,0.3080,-0.6960,0.6160*
1,1,0.3080,0.6960,0.6160*
1,1,0.3080,0.6960,-0.6160*
%
%ADD15ROUNDEDRECTD15*%
%ADD16R,0.5000X0.2000*%
%ADD17R,0.2000X0.5000*%
%ADD18R,1.4500X0.3000*%
%ADD19R,0.3000X1.4500*%
%ADD20R,0.8000X0.2500*%
%ADD21R,0.6900X1.6000*%
%ADD22R,0.6000X0.3500*%
%ADD23R,1.5800X2.1500*%
G04:AMPARAMS|DCode=24|XSize=0.56mm|YSize=0.41mm|CornerRadius=0.1025mm|HoleSize=0mm|Usage=FLASHONLY|Rotation=90.000|XOffset=0mm|YOffset=0mm|HoleType=Round|Shape=RoundedRectangle|*
%AMROUNDEDRECTD24*
21,1,0.5600,0.2050,0,0,90.0*
21,1,0.3550,0.4100,0,0,90.0*
1,1,0.2050,0.1025,0.1775*
1,1,0.2050,0.1025,-0.1775*
1,1,0.2050,-0.1025,-0.1775*
1,1,0.2050,-0.1025,0.1775*
%
%ADD24ROUNDEDRECTD24*%
G04:AMPARAMS|DCode=25|XSize=0.56mm|YSize=0.41mm|CornerRadius=0.1025mm|HoleSize=0mm|Usage=FLASHONLY|Rotation=180.000|XOffset=0mm|YOffset=0mm|HoleType=Round|Shape=RoundedRectangle|*
%AMROUNDEDRECTD25*
21,1,0.5600,0.2050,0,0,180.0*
21,1,0.3550,0.4100,0,0,180.0*
1,1,0.2050,-0.1775,0.1025*
1,1,0.2050,0.1775,0.1025*
1,1,0.2050,0.1775,-0.1025*
1,1,0.2050,-0.1775,-0.1025*
%
%ADD25ROUNDEDRECTD25*%
%ADD26R,0.8500X0.6000*%
%ADD27R,0.6000X0.9000*%
%ADD28R,1.0000X0.6000*%
%ADD29R,2.0000X1.2000*%
%ADD30R,4.8000X1.8000*%
%ADD31R,0.9800X3.4000*%
%ADD32R,0.8000X0.5000*%
%ADD33R,0.3000X0.7500*%
%ADD34R,1.1000X1.6000*%
%ADD35R,0.5000X0.4000*%
%ADD36R,0.9500X0.6000*%
%ADD37R,1.9000X1.7500*%
%ADD38R,1.8000X1.1500*%
%ADD39R,1.4000X0.4000*%
%ADD40R,2.9000X1.2700*%
%ADD41R,1.2700X2.9000*%
%ADD42R,2.9500X1.4000*%
%ADD43R,1.3500X0.8500*%
%ADD44R,0.8500X1.3500*%
%ADD45R,0.7500X0.8500*%
%ADD46R,0.8500X0.7500*%
%ADD47R,1.4000X2.9500*%
%ADD48R,1.1000X1.7000*%
%ADD49C,0.2000*%
%ADD50C,0.5000*%
%ADD51C,0.3000*%
%ADD52C,0.1000*%
%ADD53C,4.2000*%
%ADD54O,1.9000X1.0500*%
%ADD55R,1.6500X1.6500*%
%ADD56C,1.6500*%
%ADD57C,1.9000*%
%ADD58R,1.9000X1.9000*%
%ADD59C,1.6000*%
%ADD60R,1.9000X1.9000*%
%ADD61C,6.0000*%
%ADD62C,5.5000*%
%ADD63O,18.0000X8.5000*%
%ADD64C,0.6000*%
G36*
X48451Y699000D02*
X41500D01*
Y704000D01*
X6500D01*
Y716500D01*
X41500Y716500D01*
X41500Y720086D01*
X42914Y721500D01*
X48451D01*
Y699000D01*
D02*
G37*
G36*
Y728444D02*
Y723123D01*
X42914D01*
X41766Y722648D01*
X40352Y721234D01*
X39876Y720086D01*
Y719538D01*
X38596Y718258D01*
X37876Y718150D01*
X6078D01*
X6000Y718150D01*
X5491Y718200D01*
X4078Y718987D01*
Y727661D01*
X6078Y727850D01*
X38000D01*
Y733151D01*
X43744D01*
X48451Y728444D01*
D02*
G37*
G36*
X143500Y728200D02*
X146000D01*
Y727200D01*
X147000D01*
Y723200D01*
X147000D01*
Y719998D01*
X150000D01*
Y714000D01*
X136000D01*
Y728395D01*
X137056Y729451D01*
X139500D01*
X139746Y729500D01*
X143500D01*
Y728200D01*
D02*
G37*
G36*
X94000Y716500D02*
X94000Y704000D01*
X57049Y704000D01*
Y716500D01*
X94000Y716500D01*
D02*
G37*
G36*
X420500Y734500D02*
X410750D01*
Y706250D01*
X358000D01*
Y737500D01*
X420500D01*
Y734500D01*
D02*
G37*
G36*
X410000Y760750D02*
X406750D01*
Y740000D01*
X358000D01*
X358000Y760500D01*
X356175Y760500D01*
X354350Y761575D01*
Y761600D01*
X350000D01*
Y762600D01*
X349000D01*
Y766199D01*
X348225D01*
X347000Y767995D01*
Y780500D01*
X410000D01*
Y760750D01*
D02*
G37*
G36*
X541876Y330943D02*
Y297624D01*
X533840D01*
X533705Y297706D01*
X533481Y300551D01*
X532416Y304989D01*
X530669Y309206D01*
X528284Y313099D01*
X525320Y316569D01*
X521848Y319534D01*
X517956Y321919D01*
X513739Y323666D01*
X509301Y324731D01*
X504750Y325090D01*
X500199Y324731D01*
X495761Y323666D01*
X491544Y321919D01*
X487651Y319534D01*
X484180Y316569D01*
X481216Y313099D01*
X478831Y309206D01*
X477084Y304989D01*
X476018Y300551D01*
X475660Y296000D01*
X476018Y291449D01*
X477084Y287011D01*
X478831Y282794D01*
X481216Y278902D01*
X484180Y275431D01*
X486363Y273567D01*
X486390Y273179D01*
X485866Y271361D01*
X485352Y271148D01*
X484876Y270000D01*
Y269624D01*
X472124D01*
Y270000D01*
X471648Y271148D01*
X470500Y271624D01*
X465549D01*
Y296444D01*
X472302Y303198D01*
X472855Y304025D01*
X473049Y305000D01*
Y310944D01*
X491556Y329451D01*
X536500D01*
X537476Y329645D01*
X538302Y330198D01*
X539876Y331772D01*
X541876Y330943D01*
D02*
G37*
G36*
X595922Y203426D02*
Y202153D01*
X595672Y199618D01*
X595175Y197120D01*
X594436Y194683D01*
X593461Y192330D01*
X592260Y190084D01*
X590845Y187966D01*
X589230Y185997D01*
X588329Y185097D01*
X545348Y142115D01*
X543500Y142880D01*
Y189500D01*
X551500D01*
Y226000D01*
X543500D01*
Y236254D01*
X545622Y238376D01*
X556950D01*
X557248Y238500D01*
X558700D01*
Y245000D01*
Y251500D01*
Y258000D01*
Y264500D01*
Y271500D01*
X543500D01*
Y277000D01*
X542648D01*
X542067Y277806D01*
X542095Y279955D01*
X542654Y280790D01*
X542850Y281775D01*
Y281800D01*
X534151D01*
Y281775D01*
X534347Y280790D01*
X534905Y279955D01*
X535456Y279586D01*
X535582Y278707D01*
X534500Y277000D01*
X532500Y275000D01*
X522500Y265000D01*
X522500Y251414D01*
X521086Y250000D01*
X519000D01*
X519000Y270720D01*
X521848Y272466D01*
X525320Y275431D01*
X528284Y278902D01*
X530669Y282794D01*
X532416Y287011D01*
X533481Y291449D01*
X533840Y296000D01*
X543500D01*
Y333000D01*
X595922D01*
X595922Y203426D01*
D02*
G37*
G36*
X238106Y795256D02*
X239594Y794261D01*
X241350Y793912D01*
X243106Y794261D01*
X244594Y795256D01*
X245656D01*
X247144Y794261D01*
X248900Y793912D01*
X250656Y794261D01*
X250941Y794452D01*
X252941Y793383D01*
Y787767D01*
X251066Y785891D01*
X248980Y786755D01*
X246500Y787082D01*
X244020Y786755D01*
X241709Y785798D01*
X239725Y784275D01*
X238202Y782291D01*
X237244Y779980D01*
X236918Y777500D01*
X237244Y775020D01*
X238202Y772709D01*
X239725Y770724D01*
X241709Y769202D01*
X243951Y768273D01*
Y726056D01*
X227198Y709302D01*
X226645Y708475D01*
X226451Y707500D01*
Y690000D01*
X221549D01*
Y693000D01*
X221355Y693975D01*
X220802Y694802D01*
X220049Y695556D01*
Y770444D01*
X234952Y785348D01*
X235505Y786175D01*
X235699Y787150D01*
Y795258D01*
X237699Y795864D01*
X238106Y795256D01*
D02*
G37*
G36*
X210752Y757501D02*
X211451Y757254D01*
Y690000D01*
X201549D01*
Y692300D01*
X202775D01*
X203760Y692496D01*
X204595Y693055D01*
X205154Y693890D01*
X205350Y694875D01*
Y696925D01*
X205154Y697910D01*
X204595Y698745D01*
X204381Y698889D01*
X204326Y699047D01*
Y700953D01*
X204381Y701111D01*
X204595Y701255D01*
X205154Y702090D01*
X205350Y703075D01*
Y705125D01*
X205154Y706110D01*
X204595Y706945D01*
X203760Y707504D01*
X202775Y707699D01*
X199225D01*
X198345Y707524D01*
X198206Y707519D01*
X197431Y707882D01*
X196900Y710237D01*
X197239Y710744D01*
X197588Y712500D01*
X197239Y714256D01*
X196244Y715744D01*
X194756Y716739D01*
X193000Y717088D01*
X191244Y716739D01*
X189756Y715744D01*
X188761Y714256D01*
X188412Y712500D01*
X188761Y710744D01*
X189688Y709357D01*
X189748Y709154D01*
X189601Y707076D01*
X189405Y706945D01*
X188846Y706110D01*
X188650Y705125D01*
Y703075D01*
X188846Y702090D01*
X189405Y701255D01*
X189619Y701111D01*
X189674Y700953D01*
Y699047D01*
X189619Y698889D01*
X189405Y698745D01*
X188846Y697910D01*
X188650Y696925D01*
Y696283D01*
X186651Y695454D01*
X184302Y697802D01*
X183475Y698355D01*
X182500Y698549D01*
X181472D01*
X180635Y699544D01*
X180718Y700699D01*
X181073Y701918D01*
X182775Y703225D01*
X184298Y705209D01*
X185256Y707520D01*
X185582Y710000D01*
X185256Y712480D01*
X184298Y714791D01*
X182775Y716776D01*
X180791Y718298D01*
X178480Y719256D01*
X176000Y719582D01*
X173520Y719256D01*
X171209Y718298D01*
X169225Y716776D01*
X167702Y714791D01*
X166744Y712480D01*
X166418Y710000D01*
X166744Y707520D01*
X167702Y705209D01*
X168647Y703978D01*
X167671Y702626D01*
X167352Y702380D01*
X166500Y702549D01*
X153209D01*
X152744Y703244D01*
X151256Y704239D01*
X149500Y704588D01*
X147744Y704239D01*
X146256Y703244D01*
X145261Y701756D01*
X144912Y700000D01*
X145047Y699321D01*
X143204Y698336D01*
X132999Y708541D01*
Y712099D01*
X134852Y712852D01*
X136000Y712376D01*
X150000D01*
X150761Y712692D01*
X151153Y712852D01*
X153317Y712862D01*
X153340Y712847D01*
X154325Y712651D01*
X154350D01*
Y717000D01*
X155350D01*
Y718000D01*
X158949D01*
Y718775D01*
X158753Y719760D01*
X158195Y720595D01*
X157360Y721153D01*
X157126Y721200D01*
X157323Y723200D01*
X165000D01*
Y727200D01*
X166000D01*
Y728200D01*
X168500D01*
Y729500D01*
X174800D01*
Y735000D01*
X170800D01*
Y737000D01*
X174800D01*
Y741451D01*
X179562D01*
X181412Y740500D01*
X181761Y738744D01*
X182756Y737256D01*
X184244Y736261D01*
X186000Y735912D01*
X187756Y736261D01*
X189244Y737256D01*
X190239Y738744D01*
X190588Y740500D01*
X190399Y741451D01*
X191500Y743194D01*
X191846Y743451D01*
X200391D01*
X200756Y742906D01*
X202244Y741911D01*
X204000Y741562D01*
X205756Y741911D01*
X207244Y742906D01*
X208239Y744394D01*
X208588Y746150D01*
X208239Y747906D01*
X207244Y749394D01*
X206549Y749859D01*
Y756301D01*
X207275D01*
X208260Y756497D01*
X209095Y757055D01*
X209451Y757587D01*
X210752Y757501D01*
D02*
G37*
G36*
X134000Y750500D02*
X135500Y749000D01*
X143500D01*
Y747000D01*
X129000D01*
X127000Y749000D01*
Y777000D01*
X134000D01*
Y750500D01*
D02*
G37*
G36*
X261341Y799070D02*
Y794100D01*
X261341Y794100D01*
X261574Y792930D01*
X262237Y791937D01*
X272462Y781712D01*
X271744Y779980D01*
X271418Y777500D01*
X271744Y775020D01*
X272673Y772778D01*
X258698Y758802D01*
X258145Y757975D01*
X257951Y757000D01*
Y724056D01*
X233549Y699654D01*
X231549Y700482D01*
Y706444D01*
X248302Y723198D01*
X248855Y724025D01*
X249049Y725000D01*
Y768273D01*
X251291Y769202D01*
X253275Y770724D01*
X254798Y772709D01*
X255755Y775020D01*
X256082Y777500D01*
X255755Y779980D01*
X255184Y781359D01*
X258163Y784337D01*
X258826Y785330D01*
X259059Y786500D01*
X259059Y786500D01*
Y799952D01*
X259341Y800140D01*
X261341Y799070D01*
D02*
G37*
G36*
X143000Y667000D02*
Y656000D01*
Y646000D01*
Y635775D01*
X142349Y635246D01*
X141000Y634530D01*
X140400Y634649D01*
X109956D01*
X98302Y646302D01*
X98302Y646302D01*
X93802Y650802D01*
X92976Y651355D01*
X92000Y651549D01*
X89458D01*
X87500Y651650D01*
Y656951D01*
X92500D01*
X93476Y657145D01*
X94302Y657698D01*
X104406Y667801D01*
X141332D01*
X143000Y667000D01*
D02*
G37*
G36*
X304905Y818000D02*
X305000Y817279D01*
X305000Y800943D01*
X304912Y800500D01*
X305000Y800057D01*
X305000Y752850D01*
X362500Y695350D01*
X362500Y682500D01*
X408500D01*
Y679750D01*
X417750D01*
Y671374D01*
X411750D01*
X411452Y671250D01*
X408750D01*
Y654500D01*
X373500D01*
Y657250D01*
X355870D01*
X355779Y657295D01*
X354350Y659075D01*
Y659100D01*
X350000D01*
X345650D01*
Y659075D01*
X344221Y657295D01*
X344130Y657250D01*
X338500D01*
X338500Y700500D01*
X291000Y748000D01*
X291000Y781500D01*
X286500Y786000D01*
X286500Y819293D01*
X287000Y819500D01*
X303316D01*
X304905Y818000D01*
D02*
G37*
G36*
X417750Y660750D02*
X417750Y654750D01*
X426500Y654750D01*
X426500Y621000D01*
X411750Y621000D01*
X411750Y669750D01*
X417750D01*
Y660750D01*
D02*
G37*
G36*
X138000Y600500D02*
X159000D01*
Y597550D01*
X139193Y597550D01*
X139000Y597588D01*
X138807Y597550D01*
X137050Y597550D01*
X129500Y590000D01*
X116000Y590000D01*
Y582950D01*
X101000Y582950D01*
X101000Y603000D01*
X135500Y603000D01*
X138000Y600500D01*
D02*
G37*
G36*
X271255Y652254D02*
X272744Y651260D01*
X274499Y650910D01*
X276255Y651260D01*
X277744Y652254D01*
X280074Y652596D01*
X280429Y652312D01*
X280414Y650019D01*
X204443Y574048D01*
X172288D01*
X171771Y574894D01*
X171439Y576048D01*
X172239Y577244D01*
X172588Y579000D01*
X172239Y580756D01*
X171244Y582244D01*
X169756Y583239D01*
X168000Y583588D01*
X167431Y583475D01*
X166651Y585359D01*
X167244Y585756D01*
X168239Y587244D01*
X168588Y589000D01*
X168239Y590756D01*
X167734Y591511D01*
X167258Y592349D01*
X167543Y594450D01*
X167739Y594744D01*
X168088Y596500D01*
X167739Y598256D01*
X166744Y599744D01*
X166049Y600209D01*
Y606000D01*
X165855Y606976D01*
X165302Y607802D01*
X162302Y610802D01*
X161476Y611355D01*
X160500Y611549D01*
Y616451D01*
X196500D01*
X197475Y616645D01*
X198302Y617198D01*
X208802Y627698D01*
X209355Y628525D01*
X209549Y629500D01*
Y638791D01*
X210244Y639256D01*
X211239Y640744D01*
X211588Y642500D01*
X211239Y644256D01*
X210244Y645744D01*
X208756Y646739D01*
X207000Y647088D01*
X205244Y646739D01*
X203756Y645744D01*
X202761Y644256D01*
X202412Y642500D01*
X202761Y640744D01*
X203756Y639256D01*
X204451Y638791D01*
Y630556D01*
X195444Y621549D01*
X190790D01*
X190273Y622393D01*
X189940Y623549D01*
X190739Y624744D01*
X191088Y626500D01*
X190739Y628256D01*
X189744Y629744D01*
X189049Y630209D01*
Y634277D01*
X188855Y635252D01*
X188302Y636079D01*
X173431Y650951D01*
X174259Y652951D01*
X270790D01*
X271255Y652254D01*
D02*
G37*
G36*
X317000Y681000D02*
X322000Y676000D01*
Y661920D01*
X320580Y660511D01*
X315500Y660550D01*
X315000Y661050D01*
Y663000D01*
X306250D01*
Y665000D01*
X315000D01*
Y667000D01*
X314500D01*
Y670500D01*
X305000Y680000D01*
X305000Y702500D01*
X317000D01*
X317000Y681000D01*
D02*
G37*
G36*
X412198Y703061D02*
X411996Y702760D01*
X411801Y701775D01*
Y698225D01*
X411996Y697240D01*
X412201Y696934D01*
Y692664D01*
X411912Y692375D01*
X410433Y692282D01*
X409250Y693279D01*
Y699000D01*
X403500D01*
Y693250D01*
Y687500D01*
X407938D01*
X409313Y686273D01*
X409663Y685671D01*
X409661Y685634D01*
X408500Y684124D01*
X364124D01*
X364123Y695350D01*
X363648Y696498D01*
X357367Y702779D01*
X357670Y703664D01*
X358348Y704626D01*
X410750D01*
X410872Y704677D01*
X412198Y703061D01*
D02*
G37*
G36*
X405400Y179151D02*
X405425D01*
X405877Y179240D01*
X407423Y178361D01*
X407877Y177921D01*
X407877Y174463D01*
X406462Y173049D01*
X401056D01*
X399342Y174763D01*
X399588Y176000D01*
X399239Y177756D01*
X398431Y178965D01*
X398820Y181026D01*
X398894Y181059D01*
X400997Y180740D01*
X401555Y179905D01*
X402390Y179347D01*
X403375Y179151D01*
X403400D01*
Y183500D01*
X405400D01*
Y179151D01*
D02*
G37*
G36*
X410500Y207519D02*
X410500Y200000D01*
X412000Y198500D01*
X416500Y198500D01*
X416500Y197500D01*
X416500Y173049D01*
X409500D01*
X409500Y195500D01*
X407500Y197500D01*
X407500Y208500D01*
X408833Y208891D01*
X410500Y207519D01*
D02*
G37*
G36*
X101398Y672048D02*
X101402Y672006D01*
X91444Y662049D01*
X87500D01*
Y667350D01*
X57049D01*
Y677050D01*
X87500D01*
Y682451D01*
X90994D01*
X101398Y672048D01*
D02*
G37*
G36*
X6500Y702376D02*
X39876D01*
Y699000D01*
X40352Y697852D01*
X41500Y697376D01*
X48451D01*
Y672923D01*
X47819Y672494D01*
X46451Y672154D01*
X38000Y680605D01*
Y692750D01*
X6078D01*
X6000Y692750D01*
X4078Y692939D01*
Y701513D01*
X5696Y702414D01*
X6078Y702450D01*
X6322D01*
X6500Y702376D01*
D02*
G37*
G36*
X16922Y829192D02*
X17700Y827450D01*
X17412Y826000D01*
X17761Y824244D01*
X18756Y822756D01*
X20244Y821761D01*
X20300Y821750D01*
X20103Y819750D01*
X6078D01*
X6000Y819750D01*
X4078Y819939D01*
Y829261D01*
X6078Y829450D01*
X16772D01*
X16922Y829192D01*
D02*
G37*
G36*
X556950Y244000D02*
Y240000D01*
X544950D01*
X540950Y236000D01*
Y224000D01*
X528000D01*
X528000Y241500D01*
X530451Y243951D01*
X537000D01*
X537247Y244000D01*
X556950Y244000D01*
D02*
G37*
G36*
X307845Y825441D02*
X306392Y823548D01*
X305806Y822133D01*
X305346Y821648D01*
X303515Y821098D01*
X303316Y821124D01*
X287000D01*
X286702Y821000D01*
X286379D01*
X285879Y820793D01*
X285650Y820565D01*
X285352Y820441D01*
X285228Y820143D01*
X285000Y819914D01*
Y819591D01*
X284876Y819293D01*
X284876Y788083D01*
X282876Y786835D01*
X281000Y787082D01*
X278520Y786755D01*
X276788Y786038D01*
X270544Y792282D01*
X271529Y794125D01*
X272600Y793912D01*
X274356Y794261D01*
X275844Y795256D01*
X276839Y796744D01*
X277188Y798500D01*
X276839Y800256D01*
X275844Y801744D01*
X276003Y803240D01*
X276199Y804225D01*
Y807775D01*
X276003Y808760D01*
X275445Y809595D01*
X274610Y810154D01*
X273625Y810350D01*
X271575D01*
X270590Y810154D01*
X269755Y809595D01*
X267985Y810546D01*
X267459Y811005D01*
Y813233D01*
X281667Y827441D01*
X307223D01*
X307845Y825441D01*
D02*
G37*
G36*
X491500Y262000D02*
X486500D01*
Y264000D01*
X470500D01*
Y262000D01*
X465500D01*
Y270000D01*
X470500D01*
Y268000D01*
X486500D01*
Y270000D01*
X491500D01*
Y262000D01*
D02*
G37*
G36*
Y232000D02*
X486500D01*
Y234000D01*
X470500D01*
Y232000D01*
X465500D01*
Y240000D01*
X470500D01*
Y238000D01*
X486500D01*
Y240000D01*
X491500D01*
Y232000D01*
D02*
G37*
G36*
X524000Y219500D02*
X532000D01*
Y204500D01*
X520272D01*
X517956Y205919D01*
X513739Y207666D01*
X509301Y208731D01*
X504750Y209090D01*
X503969Y209028D01*
X502500Y210386D01*
Y217301D01*
X505225D01*
X506210Y217496D01*
X506215Y217500D01*
X507000D01*
Y218024D01*
X507045Y218055D01*
X507603Y218890D01*
X507799Y219875D01*
Y221925D01*
X507603Y222910D01*
X507045Y223745D01*
X507000Y223776D01*
X507000Y226224D01*
X507045Y226255D01*
X507603Y227090D01*
X507799Y228075D01*
Y230125D01*
X507725Y230500D01*
X508672Y232116D01*
X509080Y232500D01*
X524000D01*
Y219500D01*
D02*
G37*
G36*
X376500Y306500D02*
X380500Y302500D01*
X380500Y291000D01*
X377500Y291000D01*
X377500Y300500D01*
X373500Y304500D01*
X369500Y304500D01*
Y328000D01*
X376500D01*
X376500Y306500D01*
D02*
G37*
G36*
X264260Y1001922D02*
X262405Y1001153D01*
X258178Y998563D01*
X254407Y995343D01*
X251187Y991572D01*
X248596Y987345D01*
X246699Y982764D01*
X245542Y977943D01*
X245153Y973000D01*
X245542Y968057D01*
X246699Y963236D01*
X248596Y958655D01*
X251187Y954427D01*
X254407Y950657D01*
X258178Y947437D01*
X262405Y944846D01*
X266986Y942949D01*
X271807Y941792D01*
X276750Y941403D01*
X281693Y941792D01*
X286514Y942949D01*
X291095Y944846D01*
X295322Y947437D01*
X299093Y950657D01*
X302313Y954427D01*
X304904Y958655D01*
X305893Y961043D01*
X306821Y961211D01*
X308015Y961028D01*
X308093Y960634D01*
X309594Y957011D01*
X309817Y956677D01*
X309971Y956306D01*
X312149Y953046D01*
X312433Y952762D01*
X312656Y952428D01*
X315428Y949656D01*
X315762Y949433D01*
X316046Y949149D01*
X319306Y946971D01*
X319677Y946817D01*
X320011Y946594D01*
X323634Y945093D01*
X324027Y945015D01*
X324399Y944861D01*
X328244Y944096D01*
X328546D01*
X328840Y944023D01*
X330800Y943927D01*
X330900Y943942D01*
X331000Y943922D01*
X580000D01*
X581568Y943922D01*
X584644Y943310D01*
X587542Y942110D01*
X590149Y940367D01*
X592367Y938150D01*
X594110Y935542D01*
X595310Y932644D01*
X595922Y929568D01*
X595922Y928000D01*
X595922Y745222D01*
X595250Y743500D01*
X593922Y743500D01*
X584000D01*
Y735000D01*
Y726500D01*
X593922D01*
X595922Y724778D01*
X595922Y677541D01*
X593922Y677244D01*
X592888Y680652D01*
X590799Y684561D01*
X587987Y687987D01*
X584561Y690799D01*
X582000Y692167D01*
Y672000D01*
Y651833D01*
X584561Y653201D01*
X587987Y656013D01*
X590799Y659439D01*
X592888Y663348D01*
X593922Y666756D01*
X595922Y666459D01*
X595922Y591293D01*
X594250Y590500D01*
X593922Y590500D01*
X583000D01*
Y582000D01*
Y573500D01*
X593922D01*
X595922Y572707D01*
X595922Y336624D01*
X595922Y334624D01*
X545557D01*
X544728Y336624D01*
X547731Y339626D01*
X548946Y339546D01*
X550983Y337983D01*
X553355Y337001D01*
X555900Y336666D01*
X558445Y337001D01*
X560817Y337983D01*
X562854Y339546D01*
X564417Y341583D01*
X565399Y343955D01*
X565734Y346500D01*
X565399Y349045D01*
X564417Y351417D01*
X562854Y353454D01*
X560817Y355017D01*
X558445Y355999D01*
X555900Y356334D01*
X553355Y355999D01*
X550983Y355017D01*
X548946Y353454D01*
X547383Y351417D01*
X546401Y349045D01*
X546066Y346500D01*
X546221Y345325D01*
X535444Y334549D01*
X525267D01*
X524501Y336397D01*
X525302Y337197D01*
X525302Y337198D01*
X525940Y337835D01*
X527955Y337001D01*
X530500Y336666D01*
X533045Y337001D01*
X535417Y337983D01*
X537454Y339546D01*
X539017Y341583D01*
X539999Y343955D01*
X540334Y346500D01*
X539999Y349045D01*
X539017Y351417D01*
X537454Y353454D01*
X535417Y355017D01*
X533045Y355999D01*
X530500Y356334D01*
X527955Y355999D01*
X525583Y355017D01*
X523546Y353454D01*
X521983Y351417D01*
X521001Y349045D01*
X520666Y346500D01*
X521001Y343955D01*
X521983Y341583D01*
X521698Y340802D01*
X518944Y338049D01*
X514850D01*
Y356250D01*
X495350D01*
Y338049D01*
X488900D01*
X487924Y337855D01*
X487098Y337302D01*
X470849Y321054D01*
X469430Y321459D01*
X468807Y321840D01*
X468653Y322610D01*
X468095Y323445D01*
X467559Y323804D01*
Y326378D01*
X467601Y326441D01*
X470000D01*
X470000Y326441D01*
X471171Y326674D01*
X472163Y327337D01*
X476163Y331337D01*
X476163Y331337D01*
X476826Y332329D01*
X477059Y333500D01*
Y335500D01*
X478500D01*
Y347500D01*
X470456D01*
X468938Y348168D01*
X468253Y348983D01*
X467744Y349744D01*
X466256Y350739D01*
X464500Y351088D01*
X462744Y350739D01*
X461256Y349744D01*
X460261Y348256D01*
X459912Y346500D01*
X460261Y344744D01*
X461256Y343256D01*
X461376Y343175D01*
X461376Y341261D01*
X460905Y340945D01*
X460346Y340110D01*
X460150Y339125D01*
Y337075D01*
X460346Y336090D01*
X460905Y335255D01*
X461119Y335111D01*
X461174Y334953D01*
Y333047D01*
X461119Y332889D01*
X460905Y332745D01*
X460346Y331910D01*
X460150Y330925D01*
Y328875D01*
X460346Y327890D01*
X460905Y327055D01*
X461057Y326953D01*
X461441Y326378D01*
Y323804D01*
X460905Y323445D01*
X460346Y322610D01*
X460150Y321625D01*
Y319575D01*
X460346Y318590D01*
X460905Y317755D01*
X460704Y315810D01*
X460264Y315341D01*
X458095Y315245D01*
X457260Y315804D01*
X456275Y316000D01*
X452725D01*
X451740Y315804D01*
X450905Y315245D01*
X450847Y315159D01*
X448653D01*
X448595Y315245D01*
X448381Y315389D01*
X448326Y315547D01*
Y317453D01*
X448381Y317611D01*
X448595Y317755D01*
X449154Y318590D01*
X449350Y319575D01*
Y321625D01*
X449154Y322610D01*
X448595Y323445D01*
X448059Y323804D01*
Y326132D01*
X448244Y326256D01*
X449239Y327744D01*
X449588Y329500D01*
X449239Y331256D01*
X448742Y332000D01*
X449691Y334000D01*
X451500D01*
Y339000D01*
X440000D01*
X428500D01*
Y334000D01*
X440309D01*
X441258Y332000D01*
X440761Y331256D01*
X440412Y329500D01*
X440761Y327744D01*
X441756Y326256D01*
X441941Y326132D01*
Y323804D01*
X441405Y323445D01*
X440846Y322610D01*
X440650Y321625D01*
Y319575D01*
X440846Y318590D01*
X441405Y317755D01*
X441619Y317611D01*
X441674Y317453D01*
Y315547D01*
X441619Y315389D01*
X441405Y315245D01*
X440846Y314410D01*
X440650Y313425D01*
Y311375D01*
X440846Y310390D01*
X441405Y309555D01*
X442240Y308997D01*
X443225Y308801D01*
X446775D01*
X447760Y308997D01*
X448366Y309401D01*
X451134D01*
X451740Y308997D01*
X452725Y308801D01*
X453701D01*
Y301480D01*
X451900Y301000D01*
Y301000D01*
X445961D01*
X445802Y301238D01*
X439238Y307802D01*
X438411Y308355D01*
X437435Y308549D01*
X436699D01*
Y309325D01*
X436503Y310310D01*
X436099Y310916D01*
Y313084D01*
X436503Y313690D01*
X436699Y314675D01*
Y318225D01*
X436503Y319210D01*
X436099Y319816D01*
Y322134D01*
X436503Y322740D01*
X436699Y323725D01*
Y327275D01*
X436503Y328260D01*
X435945Y329095D01*
X435110Y329654D01*
X434125Y329850D01*
X432075D01*
X431090Y329654D01*
X430255Y329095D01*
X430111Y328881D01*
X429953Y328826D01*
X428047D01*
X427889Y328881D01*
X427745Y329095D01*
X426910Y329654D01*
X425925Y329850D01*
X423875D01*
X422890Y329654D01*
X422055Y329095D01*
X421696Y328559D01*
X419076D01*
X418739Y330256D01*
X417744Y331744D01*
X416256Y332739D01*
X414500Y333088D01*
X412744Y332739D01*
X411256Y331744D01*
X410261Y330256D01*
X409912Y328500D01*
X410261Y326744D01*
X411256Y325256D01*
X412744Y324261D01*
X414500Y323912D01*
X414719Y323955D01*
X415337Y323337D01*
X415337Y323337D01*
X416329Y322674D01*
X417500Y322441D01*
X417500Y322441D01*
X420282D01*
X422055Y320590D01*
Y320057D01*
X421809Y319678D01*
X421497Y319210D01*
X421301Y318225D01*
Y317450D01*
X424900D01*
Y315450D01*
X421301D01*
Y314675D01*
X421497Y313690D01*
X421920Y313056D01*
X421994Y312000D01*
Y312000D01*
X421920Y310944D01*
X421497Y310310D01*
X421301Y309325D01*
Y308550D01*
X424900D01*
Y307550D01*
X425900D01*
Y303200D01*
X425925D01*
X426910Y303396D01*
X427745Y303955D01*
X427889Y304169D01*
X428047Y304224D01*
X429953D01*
X430111Y304169D01*
X430255Y303955D01*
X431090Y303396D01*
X432075Y303200D01*
X434125D01*
X435040Y303382D01*
X435365Y303169D01*
X435468Y303000D01*
X434348Y301000D01*
X411975D01*
X411760Y302997D01*
X412595Y303555D01*
X413153Y304390D01*
X413349Y305375D01*
Y307425D01*
X413153Y308410D01*
X412595Y309245D01*
X412381Y309389D01*
X412326Y309547D01*
Y311453D01*
X412381Y311611D01*
X412595Y311755D01*
X413153Y312590D01*
X413349Y313575D01*
Y313600D01*
X409000D01*
Y314600D01*
X408000D01*
Y318199D01*
X407225D01*
X407124Y318179D01*
X405342Y319338D01*
X405124Y319663D01*
Y328000D01*
X404648Y329148D01*
X403500Y329624D01*
X396500D01*
X395352Y329148D01*
X394876Y328000D01*
Y322579D01*
X394423Y322139D01*
X392876Y321260D01*
X392425Y321349D01*
X392400D01*
Y317000D01*
X391400D01*
Y316000D01*
X387800D01*
Y315225D01*
X387996Y314240D01*
X388364Y313690D01*
X388555Y313404D01*
Y311596D01*
X388364Y311310D01*
X387996Y310760D01*
X387800Y309775D01*
Y309000D01*
X391400D01*
Y308000D01*
X392400D01*
Y303154D01*
X393291Y302387D01*
X393570Y301981D01*
X393486Y301284D01*
X393373Y301093D01*
X393029Y301000D01*
X383538D01*
X383495Y301043D01*
X383464Y303714D01*
X383610Y303846D01*
X384445Y304405D01*
X385004Y305240D01*
X385200Y306225D01*
Y307000D01*
X381600D01*
Y309000D01*
X385200D01*
Y309775D01*
X385004Y310760D01*
X384636Y311310D01*
X384445Y311596D01*
Y313404D01*
X384636Y313690D01*
X385004Y314240D01*
X385200Y315225D01*
Y316000D01*
X381600D01*
Y317000D01*
X380600D01*
Y321349D01*
X380575D01*
X380124Y321260D01*
X378577Y322139D01*
X378124Y322579D01*
X378124Y328000D01*
X377648Y329148D01*
X376500Y329624D01*
X369500D01*
X368352Y329148D01*
X367876Y328000D01*
Y320354D01*
X365876Y319426D01*
X365760Y319503D01*
X364775Y319699D01*
X364000D01*
Y316100D01*
X363000D01*
Y315100D01*
X358651D01*
Y315075D01*
X358847Y314090D01*
X359405Y313255D01*
X359619Y313111D01*
X359674Y312953D01*
Y311047D01*
X359619Y310889D01*
X359405Y310745D01*
X358847Y309910D01*
X358651Y308925D01*
Y306875D01*
X358847Y305890D01*
X359405Y305055D01*
X360240Y304496D01*
X360451Y304454D01*
Y299000D01*
X360645Y298025D01*
X361198Y297198D01*
X364201Y294194D01*
Y290900D01*
X361000D01*
Y280100D01*
Y270100D01*
Y260100D01*
Y250100D01*
Y240100D01*
Y230100D01*
Y220100D01*
Y210100D01*
X371100D01*
Y200000D01*
X386247D01*
X387012Y198152D01*
X385059Y196199D01*
X384475D01*
X383490Y196003D01*
X382655Y195445D01*
X382096Y194610D01*
X381900Y193625D01*
Y191575D01*
X382096Y190590D01*
X382655Y189755D01*
X382559Y187789D01*
X381358Y186499D01*
X375627D01*
X374698Y188741D01*
X373176Y190725D01*
X371191Y192248D01*
X368880Y193206D01*
X366400Y193532D01*
X363920Y193206D01*
X361609Y192248D01*
X359625Y190725D01*
X358102Y188741D01*
X357145Y186430D01*
X356818Y183950D01*
X357145Y181470D01*
X358102Y179159D01*
X359625Y177175D01*
X361609Y175652D01*
X363920Y174694D01*
X366400Y174368D01*
X368880Y174694D01*
X371191Y175652D01*
X373176Y177175D01*
X374698Y179159D01*
X375627Y181401D01*
X382884D01*
X383000Y179350D01*
X382938Y179143D01*
X382011Y177756D01*
X381662Y176000D01*
X382011Y174244D01*
X383006Y172756D01*
X384494Y171761D01*
X386250Y171412D01*
X388006Y171761D01*
X389494Y172756D01*
X391756D01*
X393244Y171761D01*
X395000Y171412D01*
X395403Y171492D01*
X398198Y168698D01*
X399025Y168145D01*
X400000Y167951D01*
X436500D01*
X437476Y168145D01*
X438302Y168698D01*
X444646Y175041D01*
X446570Y174244D01*
X449050Y173918D01*
X451530Y174244D01*
X453841Y175202D01*
X455826Y176724D01*
X457348Y178709D01*
X458306Y181020D01*
X458632Y183500D01*
X458306Y185980D01*
X457348Y188291D01*
X455826Y190275D01*
X453841Y191798D01*
X451530Y192755D01*
X449050Y193082D01*
X446570Y192755D01*
X444259Y191798D01*
X442275Y190275D01*
X440752Y188291D01*
X439795Y185980D01*
X439468Y183500D01*
X439795Y181020D01*
X440752Y178709D01*
X440905Y178510D01*
X437249Y174854D01*
X435406Y175839D01*
X435438Y176000D01*
X435089Y177756D01*
X434162Y179143D01*
X434102Y179346D01*
X434250Y181424D01*
X434445Y181555D01*
X435004Y182390D01*
X435200Y183375D01*
Y185425D01*
X435004Y186410D01*
X434445Y187245D01*
X434231Y187389D01*
X434176Y187547D01*
Y189453D01*
X434231Y189611D01*
X434445Y189755D01*
X435004Y190590D01*
X435200Y191575D01*
Y193625D01*
X435004Y194610D01*
X434445Y195445D01*
X433610Y196003D01*
X432625Y196199D01*
X431705D01*
X431549Y196433D01*
Y200000D01*
X451900D01*
Y210100D01*
X455250D01*
Y212000D01*
X450500D01*
Y211500D01*
X405000D01*
Y205750D01*
X403000D01*
Y211500D01*
X372500D01*
Y215100D01*
Y225100D01*
Y235100D01*
Y245100D01*
Y255100D01*
Y264032D01*
X374500Y264638D01*
X374756Y264256D01*
X376244Y263261D01*
X378000Y262912D01*
X379756Y263261D01*
X381244Y264256D01*
X382239Y265744D01*
X382426Y266686D01*
X384000Y268412D01*
X385756Y268761D01*
X387244Y269756D01*
X388239Y271244D01*
X388588Y273000D01*
X388239Y274756D01*
X387244Y276244D01*
X385756Y277239D01*
X384000Y277588D01*
X382244Y277239D01*
X380756Y276244D01*
X380291Y275549D01*
X372500D01*
Y280100D01*
Y289500D01*
X373000D01*
Y295250D01*
X375000D01*
Y289500D01*
X377202D01*
X377500Y289376D01*
X380500Y289376D01*
X380798Y289500D01*
X383000D01*
Y295250D01*
X385000D01*
Y289500D01*
X397202D01*
X397500Y289376D01*
X400500D01*
X400798Y289500D01*
X450500D01*
Y285100D01*
Y275100D01*
Y265100D01*
Y256016D01*
X448500Y255862D01*
X448244Y256244D01*
X446756Y257239D01*
X445000Y257588D01*
X443244Y257239D01*
X441756Y256244D01*
X440761Y254756D01*
X440412Y253000D01*
X440761Y251244D01*
X441756Y249756D01*
X443244Y248761D01*
X445000Y248412D01*
X446756Y248761D01*
X448244Y249756D01*
X448500Y250138D01*
X449233Y250124D01*
X450500Y249984D01*
Y249000D01*
X456250D01*
X462000D01*
Y253010D01*
X463466Y252000D01*
X465500D01*
Y254500D01*
X465362D01*
X464861Y255303D01*
X464605Y256500D01*
X468481Y260376D01*
X470500D01*
X471648Y260852D01*
X472124Y262000D01*
Y262376D01*
X484876D01*
Y262000D01*
X485352Y260852D01*
X486500Y260376D01*
X491500D01*
X492648Y260852D01*
X493124Y262000D01*
Y267626D01*
X494786Y268738D01*
X495761Y268334D01*
X498055Y267783D01*
X498379Y267082D01*
X498661Y265581D01*
X498346Y265110D01*
X498150Y264125D01*
Y264100D01*
X506850D01*
Y264125D01*
X506665Y265055D01*
X506657Y265117D01*
X507637Y267138D01*
X509301Y267269D01*
X513739Y268334D01*
X515713Y269152D01*
X517376Y268041D01*
X517376Y250436D01*
X515746Y249108D01*
X514132Y249317D01*
X513945Y249595D01*
X513110Y250154D01*
X512125Y250350D01*
X510075D01*
X509090Y250154D01*
X508255Y249595D01*
X506597Y250290D01*
X506095Y252055D01*
X506654Y252890D01*
X506850Y253875D01*
Y255925D01*
X506654Y256910D01*
X506095Y257745D01*
X505881Y257889D01*
X505826Y258047D01*
Y259953D01*
X505881Y260111D01*
X506095Y260255D01*
X506654Y261090D01*
X506850Y262075D01*
Y262100D01*
X498150D01*
Y262075D01*
X498346Y261090D01*
X498905Y260255D01*
X499119Y260111D01*
X499174Y259953D01*
Y258047D01*
X499119Y257889D01*
X498905Y257745D01*
X498346Y256910D01*
X498150Y255925D01*
Y253875D01*
X498346Y252890D01*
X498905Y252055D01*
X499740Y251497D01*
X499951Y251455D01*
Y249440D01*
X499496Y248760D01*
X499454Y248549D01*
X498500D01*
X497525Y248355D01*
X496698Y247802D01*
X494198Y245302D01*
X493645Y244475D01*
X493451Y243500D01*
Y242958D01*
X491500Y241624D01*
X486500D01*
X485352Y241148D01*
X484876Y240000D01*
Y239624D01*
X480712D01*
X479414Y241624D01*
X479588Y242500D01*
X479239Y244256D01*
X478408Y245500D01*
X478686Y246543D01*
X479217Y247500D01*
X486500D01*
Y249000D01*
X470500D01*
Y247500D01*
X470783D01*
X471314Y246543D01*
X471592Y245500D01*
X470761Y244256D01*
X470412Y242500D01*
X468547Y241624D01*
X465500D01*
X464352Y241148D01*
X463876Y240000D01*
X462000Y240298D01*
Y247000D01*
X456250D01*
X450500D01*
Y238630D01*
X448500Y237389D01*
X447500Y237588D01*
X445744Y237239D01*
X444256Y236244D01*
X443261Y234756D01*
X442912Y233000D01*
X443261Y231244D01*
X444256Y229756D01*
X445744Y228761D01*
X447500Y228412D01*
X448500Y228611D01*
X450500Y227370D01*
Y220100D01*
Y214000D01*
X456250D01*
X462925D01*
X464000Y214445D01*
X465698Y212748D01*
X466525Y212195D01*
X467500Y212001D01*
X470406D01*
X470905Y211255D01*
X471119Y211111D01*
X471174Y210953D01*
Y209047D01*
X471119Y208889D01*
X470905Y208745D01*
X470346Y207910D01*
X470150Y206925D01*
Y206900D01*
X474500D01*
X478849D01*
Y206925D01*
X478653Y207910D01*
X478095Y208745D01*
X477881Y208889D01*
X477826Y209047D01*
Y210953D01*
X477881Y211111D01*
X478095Y211255D01*
X478653Y212090D01*
X478849Y213075D01*
Y215125D01*
X478700Y215875D01*
X480163Y217337D01*
X480163Y217337D01*
X480826Y218330D01*
X481059Y219500D01*
X482980Y219951D01*
X483291D01*
X483756Y219256D01*
X485244Y218261D01*
X487000Y217912D01*
X488756Y218261D01*
X490244Y219256D01*
X491239Y220744D01*
X491588Y222500D01*
X491399Y223451D01*
X492663Y225451D01*
X498807D01*
X499324Y224610D01*
X499658Y223451D01*
X499296Y222910D01*
X499100Y221925D01*
Y221900D01*
X503450D01*
Y219900D01*
X499100D01*
Y219875D01*
X499296Y218890D01*
X499431Y218689D01*
X498569Y217113D01*
X498400Y216925D01*
Y212500D01*
X497400D01*
Y211500D01*
X493801D01*
Y210725D01*
X493997Y209740D01*
X494331Y209239D01*
X494177Y207684D01*
X493938Y206911D01*
X491544Y205919D01*
X487651Y203534D01*
X484180Y200569D01*
X481216Y197099D01*
X478831Y193206D01*
X477084Y188989D01*
X476018Y184551D01*
X475660Y180000D01*
X476018Y175449D01*
X477084Y171011D01*
X478831Y166794D01*
X481216Y162901D01*
X484180Y159431D01*
X487651Y156466D01*
X491544Y154081D01*
X495761Y152334D01*
X500199Y151269D01*
X504750Y150910D01*
X509301Y151269D01*
X513739Y152334D01*
X517956Y154081D01*
X521848Y156466D01*
X525320Y159431D01*
X528284Y162901D01*
X530669Y166794D01*
X532416Y171011D01*
X533481Y175449D01*
X533840Y180000D01*
X533481Y184551D01*
X532416Y188989D01*
X530669Y193206D01*
X528284Y197099D01*
X525320Y200569D01*
X524815Y201000D01*
X525508Y202876D01*
X532000D01*
X533148Y203352D01*
X533624Y204500D01*
Y219500D01*
X533261Y220376D01*
X534033Y222376D01*
X540950D01*
X542098Y222852D01*
X542574Y224000D01*
X543276Y224469D01*
X543500Y224376D01*
X549876D01*
Y221887D01*
X549000Y220250D01*
X547876Y220250D01*
X544250D01*
Y212000D01*
Y203750D01*
X547876D01*
X549000Y203750D01*
X549876Y202113D01*
Y191124D01*
X543500D01*
X542352Y190648D01*
X541876Y189500D01*
Y142880D01*
X542000Y142582D01*
Y142259D01*
X542228Y142031D01*
X542352Y141732D01*
X542994Y139761D01*
X456903Y53671D01*
X456903Y53670D01*
X456003Y52770D01*
X454034Y51154D01*
X451917Y49739D01*
X449670Y48539D01*
X447318Y47564D01*
X444880Y46825D01*
X442382Y46328D01*
X439847Y46078D01*
X312000D01*
X310439Y45768D01*
X309116Y44884D01*
X308232Y43561D01*
X307922Y42000D01*
X307922Y36000D01*
X307922Y35999D01*
X307922Y35999D01*
X307922Y33782D01*
X307310Y29391D01*
X306096Y25126D01*
X304305Y21070D01*
X301971Y17300D01*
X299138Y13888D01*
X295861Y10901D01*
X292203Y8396D01*
X288233Y6420D01*
X284029Y5011D01*
X279670Y4197D01*
X275241Y3993D01*
X270826Y4403D01*
X266510Y5419D01*
X262375Y7022D01*
X258502Y9180D01*
X254965Y11853D01*
X251830Y14990D01*
X249159Y18529D01*
X247003Y22403D01*
X246204Y24470D01*
X246178Y24512D01*
X246168Y24561D01*
X245752Y25183D01*
X245352Y25814D01*
X245311Y25842D01*
X245284Y25884D01*
X244662Y26299D01*
X244050Y26730D01*
X244002Y26740D01*
X243961Y26768D01*
X243227Y26914D01*
X242497Y27077D01*
X242448Y27069D01*
X242400Y27078D01*
X69600Y27078D01*
X69559Y27070D01*
X69517Y27077D01*
X68779Y26915D01*
X68039Y26768D01*
X68004Y26744D01*
X67963Y26735D01*
X67344Y26303D01*
X66716Y25884D01*
X66693Y25849D01*
X66658Y25824D01*
X66252Y25188D01*
X65832Y24561D01*
X65824Y24519D01*
X65801Y24483D01*
X64996Y22422D01*
X62832Y18559D01*
X60157Y15032D01*
X57021Y11908D01*
X53484Y9245D01*
X49613Y7096D01*
X45483Y5501D01*
X41173Y4491D01*
X36765Y4084D01*
X32342Y4289D01*
X27991Y5102D01*
X23792Y6507D01*
X19828Y8477D01*
X16173Y10976D01*
X12898Y13954D01*
X10064Y17355D01*
X7727Y21115D01*
X5930Y25161D01*
X4708Y29416D01*
X4084Y33798D01*
X4078Y36001D01*
Y170798D01*
X6078Y171035D01*
X6084Y171011D01*
X7831Y166794D01*
X10216Y162901D01*
X13181Y159431D01*
X16652Y156466D01*
X20544Y154081D01*
X24761Y152334D01*
X29199Y151269D01*
X33750Y150910D01*
X38301Y151269D01*
X42739Y152334D01*
X46956Y154081D01*
X50848Y156466D01*
X54320Y159431D01*
X57284Y162901D01*
X59669Y166794D01*
X61416Y171011D01*
X62481Y175449D01*
X62840Y180000D01*
X62481Y184551D01*
X61416Y188989D01*
X59669Y193206D01*
X57284Y197099D01*
X54320Y200569D01*
X50848Y203534D01*
X46956Y205919D01*
X42739Y207666D01*
X38301Y208731D01*
X33750Y209090D01*
X29199Y208731D01*
X24761Y207666D01*
X20544Y205919D01*
X16652Y203534D01*
X13181Y200569D01*
X10216Y197099D01*
X7831Y193206D01*
X6084Y188989D01*
X6078Y188965D01*
X4078Y189202D01*
Y286798D01*
X6078Y287035D01*
X6084Y287011D01*
X7831Y282794D01*
X10216Y278902D01*
X13181Y275431D01*
X16652Y272466D01*
X20544Y270081D01*
X24761Y268334D01*
X29199Y267269D01*
X33750Y266910D01*
X38301Y267269D01*
X42739Y268334D01*
X46956Y270081D01*
X50848Y272466D01*
X54320Y275431D01*
X57284Y278902D01*
X59669Y282794D01*
X61416Y287011D01*
X62481Y291449D01*
X62840Y296000D01*
X62481Y300551D01*
X61416Y304989D01*
X59669Y309206D01*
X57284Y313099D01*
X54320Y316569D01*
X50848Y319534D01*
X46956Y321919D01*
X42739Y323666D01*
X38301Y324731D01*
X33750Y325090D01*
X29199Y324731D01*
X24761Y323666D01*
X20544Y321919D01*
X16652Y319534D01*
X13181Y316569D01*
X10216Y313099D01*
X7831Y309206D01*
X6084Y304989D01*
X6078Y304965D01*
X4078Y305201D01*
Y412096D01*
X6821Y412445D01*
X7202Y412573D01*
X7600Y412623D01*
X11607Y413965D01*
X11955Y414164D01*
X12336Y414291D01*
X16004Y416389D01*
X16307Y416652D01*
X16656Y416851D01*
X19844Y419624D01*
X20090Y419941D01*
X20393Y420205D01*
X22979Y423546D01*
X23158Y423905D01*
X23404Y424223D01*
X25289Y428004D01*
X25394Y428392D01*
X25573Y428751D01*
X26437Y431922D01*
X50000D01*
X50133Y431948D01*
X50267Y431931D01*
X52094Y432050D01*
X52482Y432154D01*
X52883Y432180D01*
X56413Y433126D01*
X56891Y433362D01*
X57397Y433534D01*
X60562Y435361D01*
X60963Y435713D01*
X61406Y436009D01*
X63991Y438594D01*
X64287Y439037D01*
X64639Y439438D01*
X66466Y442603D01*
X66638Y443108D01*
X66874Y443587D01*
X67819Y447117D01*
X67854Y447649D01*
X67958Y448173D01*
Y451827D01*
X67854Y452351D01*
X67819Y452883D01*
X66874Y456413D01*
X66638Y456892D01*
X66466Y457397D01*
X64639Y460562D01*
X64287Y460963D01*
X63991Y461406D01*
X61406Y463991D01*
X60963Y464287D01*
X60562Y464639D01*
X57397Y466466D01*
X56892Y466637D01*
X56413Y466874D01*
X52883Y467820D01*
X52482Y467846D01*
X52094Y467950D01*
X50267Y468069D01*
X50133Y468052D01*
X50000Y468078D01*
X26088Y468078D01*
X24941Y471000D01*
X24724Y471338D01*
X24578Y471712D01*
X22481Y474981D01*
X22202Y475270D01*
X21985Y475608D01*
X19291Y478406D01*
X18961Y478635D01*
X18683Y478924D01*
X15494Y481142D01*
X15126Y481303D01*
X14796Y481532D01*
X11237Y483086D01*
X10844Y483171D01*
X10476Y483332D01*
X6682Y484161D01*
X6280Y484169D01*
X5888Y484254D01*
X4078Y484288D01*
X4078Y600661D01*
X6078Y600850D01*
X38000D01*
Y602687D01*
X38284Y603046D01*
X40000Y604111D01*
X41000Y603912D01*
X42756Y604261D01*
X44244Y605256D01*
X45239Y606744D01*
X45588Y608500D01*
X45239Y610256D01*
X44244Y611744D01*
X42756Y612739D01*
X41000Y613088D01*
X40000Y612889D01*
X38284Y613954D01*
X38000Y614313D01*
Y616550D01*
X23291D01*
X22775Y617391D01*
X22441Y618550D01*
X23239Y619744D01*
X23588Y621500D01*
X23239Y623256D01*
X23078Y623496D01*
Y626250D01*
X37925D01*
X38000Y626250D01*
X38632Y626603D01*
X40000Y626895D01*
X49198Y617698D01*
X50024Y617145D01*
X51000Y616951D01*
X53666D01*
X55500Y616550D01*
X55500Y614951D01*
Y600850D01*
X70922D01*
Y597496D01*
X70761Y597256D01*
X70412Y595500D01*
X70761Y593744D01*
X71756Y592256D01*
X73244Y591261D01*
X75000Y590912D01*
X76756Y591261D01*
X78244Y592256D01*
X79239Y593744D01*
X79588Y595500D01*
X79239Y597256D01*
X79078Y597496D01*
Y600850D01*
X87500D01*
Y614951D01*
X87500Y616550D01*
X89334Y616951D01*
X91450D01*
X92425Y617145D01*
X93252Y617698D01*
X94606Y619051D01*
X98478D01*
X100250Y618500D01*
X100250Y617051D01*
Y613750D01*
X116750D01*
X116750Y618500D01*
X118522Y619051D01*
X134995D01*
X141848Y612198D01*
X142675Y611645D01*
X143000Y611581D01*
Y605000D01*
X151750D01*
Y603000D01*
X143000D01*
Y602124D01*
X138673D01*
X137205Y603591D01*
X136649Y604425D01*
X136653Y606090D01*
X136849Y607075D01*
Y607100D01*
X132500D01*
Y608100D01*
X131500D01*
Y611699D01*
X130725D01*
X129740Y611503D01*
X128905Y610945D01*
X128879Y610907D01*
X126621D01*
X126595Y610945D01*
X125760Y611503D01*
X124775Y611699D01*
X124000D01*
Y608100D01*
X122000D01*
Y611699D01*
X121225D01*
X120240Y611503D01*
X119405Y610945D01*
X118847Y610110D01*
X118750Y609625D01*
X116750Y609822D01*
Y611750D01*
X109500D01*
Y607000D01*
X116682D01*
X116837Y606849D01*
X116967Y606624D01*
X115813Y604624D01*
X101000Y604623D01*
X99852Y604148D01*
X99376Y603000D01*
X99376Y582950D01*
X99852Y581802D01*
X101000Y581326D01*
X116000Y581326D01*
X117148Y581802D01*
X117624Y582950D01*
Y588376D01*
X129500Y588376D01*
X130648Y588852D01*
X132904Y591108D01*
X135205Y590580D01*
X135756Y589756D01*
X136085Y589536D01*
X136256Y587245D01*
X136235Y587213D01*
X135261Y585756D01*
X134912Y584000D01*
X135261Y582244D01*
X136256Y580756D01*
X137744Y579761D01*
X139500Y579412D01*
X141000Y579710D01*
X141604Y579513D01*
X143000Y578521D01*
Y566000D01*
Y556000D01*
Y546549D01*
X139709D01*
X139244Y547244D01*
X137756Y548239D01*
X136000Y548588D01*
X134244Y548239D01*
X132756Y547244D01*
X131761Y545756D01*
X131412Y544000D01*
X131761Y542244D01*
X132756Y540756D01*
X134244Y539761D01*
X136000Y539412D01*
X137756Y539761D01*
X139244Y540756D01*
X139709Y541451D01*
X143000D01*
Y541000D01*
X160500D01*
Y546000D01*
Y555106D01*
X161087Y555526D01*
X162500Y555992D01*
X163594Y555261D01*
X165350Y554912D01*
X165474Y554936D01*
X166411Y553999D01*
X166761Y552243D01*
X167755Y550755D01*
X169244Y549760D01*
X171000Y549411D01*
X172756Y549760D01*
X174244Y550755D01*
X174709Y551450D01*
X208999D01*
X209974Y551644D01*
X210801Y552197D01*
X213302Y554698D01*
X213302Y554698D01*
X290056Y631451D01*
X292018D01*
X292846Y629451D01*
X284697Y621302D01*
X284144Y620475D01*
X283951Y619499D01*
Y616708D01*
X283255Y616243D01*
X282260Y614755D01*
X281911Y612999D01*
X282260Y611243D01*
X283255Y609754D01*
X284744Y608760D01*
X285975Y608515D01*
X287912Y608000D01*
X288261Y606244D01*
X289256Y604756D01*
X290744Y603761D01*
X292500Y603412D01*
X294256Y603761D01*
X295500Y604592D01*
X296543Y604314D01*
X297500Y603783D01*
Y600000D01*
X306250D01*
X315000D01*
Y606000D01*
Y613000D01*
X306250D01*
Y615000D01*
X315000D01*
Y616000D01*
Y626000D01*
Y636000D01*
Y646000D01*
Y657126D01*
X317000Y658915D01*
X320568Y658887D01*
X320571Y658889D01*
X320574Y658887D01*
X321145Y659121D01*
X321720Y659354D01*
X321721Y659357D01*
X321724Y659359D01*
X322220Y659850D01*
X324056Y660350D01*
X324940Y659947D01*
X325090Y659846D01*
X326075Y659650D01*
X326100D01*
Y664000D01*
X327100D01*
Y665000D01*
X330699D01*
Y665775D01*
X330504Y666760D01*
X330136Y667310D01*
X329945Y667596D01*
Y669404D01*
X330136Y669690D01*
X330504Y670240D01*
X330699Y671225D01*
Y672000D01*
X327100D01*
Y674000D01*
X330699D01*
Y674775D01*
X330504Y675760D01*
X329945Y676595D01*
X329714Y676750D01*
X330321Y678750D01*
X334000D01*
Y686000D01*
X328250D01*
X322500D01*
Y680625D01*
X320500Y679796D01*
X318624Y681673D01*
X318624Y702500D01*
X318148Y703648D01*
X317000Y704124D01*
X305000D01*
X303852Y703648D01*
X303376Y702500D01*
X303376Y680000D01*
X303852Y678852D01*
X312876Y669827D01*
Y667000D01*
X297500D01*
Y661549D01*
X290280D01*
X290239Y661756D01*
X289244Y663244D01*
X287756Y664239D01*
X286000Y664588D01*
X284244Y664239D01*
X282756Y663244D01*
X282411Y662729D01*
X280171Y662253D01*
X279213Y662914D01*
X279082Y663029D01*
X278739Y664756D01*
X277744Y666244D01*
X276256Y667239D01*
X274500Y667588D01*
X272744Y667239D01*
X271256Y666244D01*
X270791Y665549D01*
X269000D01*
X268025Y665355D01*
X267198Y664802D01*
X263944Y661549D01*
X222267D01*
X221502Y663397D01*
X225802Y667698D01*
X226355Y668525D01*
X226549Y669500D01*
Y672500D01*
X273000D01*
Y681250D01*
Y690000D01*
X236549D01*
Y695444D01*
X262302Y721198D01*
X262855Y722025D01*
X263049Y723000D01*
Y755944D01*
X276278Y769173D01*
X278520Y768244D01*
X281000Y767918D01*
X283480Y768244D01*
X285791Y769202D01*
X287376Y770418D01*
X288749Y769995D01*
X289376Y769526D01*
X289376Y748000D01*
X289852Y746852D01*
X336876Y699827D01*
X336876Y657250D01*
X337352Y656102D01*
X338500Y655626D01*
X344130D01*
X344318Y655704D01*
X344398Y655681D01*
X344568Y655774D01*
X344692Y655782D01*
X346084Y654450D01*
X346143Y654355D01*
X345846Y653910D01*
X345650Y652925D01*
Y650875D01*
X345725Y650500D01*
X345486Y650092D01*
X344500Y648500D01*
X344500Y648500D01*
X344500Y648500D01*
Y640500D01*
X355500D01*
Y648500D01*
X355500D01*
X354514Y650092D01*
X354275Y650500D01*
X354350Y650875D01*
Y652925D01*
X354154Y653910D01*
X353857Y654355D01*
X353916Y654450D01*
X355308Y655782D01*
X355432Y655774D01*
X355602Y655681D01*
X355682Y655704D01*
X355870Y655626D01*
X371876D01*
Y654500D01*
X372352Y653352D01*
X373500Y652876D01*
X408126D01*
X409755Y651712D01*
X410126Y651282D01*
Y650137D01*
X409250Y648500D01*
X408126Y648500D01*
X403500D01*
Y642750D01*
Y637000D01*
X408126D01*
X410126Y635363D01*
Y621000D01*
X410602Y619852D01*
X411750Y619376D01*
X425101Y619376D01*
X426500Y619376D01*
X427050Y619500D01*
X427156Y619648D01*
X427648Y619852D01*
X428124Y621000D01*
X428124Y621000D01*
X428124Y621055D01*
X428124Y654750D01*
X427648Y655898D01*
X427050Y656146D01*
Y656500D01*
X419374D01*
X419374Y664750D01*
X419600D01*
Y665750D01*
X420750D01*
Y667250D01*
X420000D01*
Y688750D01*
X420750D01*
Y690250D01*
X419600D01*
Y691250D01*
X417299D01*
Y695824D01*
X417410Y695846D01*
X418245Y696405D01*
X418389Y696619D01*
X418547Y696674D01*
X420453D01*
X420611Y696619D01*
X420755Y696405D01*
X421590Y695846D01*
X422575Y695650D01*
X422600D01*
Y700000D01*
Y704350D01*
X422575D01*
X421590Y704154D01*
X420755Y703595D01*
X420611Y703381D01*
X420453Y703326D01*
X418547D01*
X418389Y703381D01*
X418245Y703595D01*
X417410Y704154D01*
X416425Y704350D01*
X414375D01*
X413606Y704196D01*
X412904Y704780D01*
X412162Y705738D01*
X412374Y706250D01*
Y728250D01*
X422050D01*
Y729000D01*
X425000D01*
Y738500D01*
Y748000D01*
X422050D01*
Y748750D01*
X417550D01*
Y746000D01*
X415550D01*
Y748750D01*
X412499D01*
Y761050D01*
X412305Y762026D01*
X411752Y762852D01*
X411624Y762981D01*
Y780500D01*
X411148Y781648D01*
X410000Y782124D01*
X347000D01*
X345852Y781648D01*
X345376Y780500D01*
Y767995D01*
X345560Y767551D01*
X345659Y767080D01*
X346486Y765867D01*
X346405Y765445D01*
X345846Y764610D01*
X345650Y763625D01*
Y761575D01*
X345846Y760590D01*
X346405Y759755D01*
X346619Y759611D01*
X346674Y759453D01*
Y757547D01*
X346619Y757389D01*
X346405Y757245D01*
X345846Y756410D01*
X345650Y755425D01*
Y753375D01*
X345846Y752390D01*
X346040Y752100D01*
X345341Y750317D01*
X345154Y750100D01*
X344500D01*
Y742100D01*
X354376D01*
X355500Y742100D01*
X356376Y740463D01*
Y740000D01*
X356816Y738750D01*
X356376Y737500D01*
Y735737D01*
X355500Y734100D01*
X354376Y734100D01*
X351000D01*
Y730100D01*
Y726100D01*
X354376D01*
X355500Y726100D01*
X356376Y724463D01*
Y706598D01*
X355414Y705920D01*
X354529Y705617D01*
X306623Y753522D01*
X306623Y800057D01*
X306560Y800211D01*
X306592Y800374D01*
X306567Y800500D01*
X306592Y800626D01*
X306560Y800789D01*
X306623Y800943D01*
X306624Y809111D01*
X308624Y809795D01*
X310452Y808391D01*
X313128Y807283D01*
X313500Y807234D01*
Y818000D01*
X316000D01*
Y820500D01*
X326766D01*
X326717Y820872D01*
X325608Y823548D01*
X323962Y825693D01*
X323897Y826133D01*
X324246Y828059D01*
X324663Y828337D01*
X331767Y835441D01*
X344500D01*
Y834500D01*
X355500D01*
Y842500D01*
X344500D01*
Y841559D01*
X333559D01*
Y853500D01*
X333326Y854671D01*
X332663Y855663D01*
X332663Y855663D01*
X325686Y862640D01*
X326717Y865128D01*
X327095Y868000D01*
X326717Y870872D01*
X325608Y873548D01*
X323845Y875845D01*
X321548Y877608D01*
X318872Y878717D01*
X316000Y879095D01*
X313128Y878717D01*
X310452Y877608D01*
X308155Y875845D01*
X306392Y873548D01*
X305283Y870872D01*
X304905Y868000D01*
X305283Y865128D01*
X306392Y862452D01*
X308155Y860155D01*
X310452Y858391D01*
X313128Y857283D01*
X316000Y856905D01*
X318872Y857283D01*
X321360Y858314D01*
X327441Y852233D01*
Y849328D01*
X326192Y848796D01*
X325441Y848765D01*
X323845Y850845D01*
X321548Y852608D01*
X318872Y853717D01*
X316000Y854095D01*
X313128Y853717D01*
X310452Y852608D01*
X308155Y850845D01*
X306392Y848548D01*
X305361Y846059D01*
X280550D01*
X280550Y846059D01*
X279380Y845826D01*
X278387Y845163D01*
X278387Y845163D01*
X254937Y821713D01*
X254274Y820721D01*
X254041Y819550D01*
X254041Y819550D01*
Y811005D01*
X253515Y810546D01*
X251745Y809595D01*
X250910Y810154D01*
X249925Y810350D01*
X247875D01*
X246890Y810154D01*
X246306Y809763D01*
X246046Y809595D01*
X244204D01*
X243944Y809763D01*
X243360Y810154D01*
X242375Y810350D01*
X240325D01*
X239340Y810154D01*
X238505Y809595D01*
X236735Y810546D01*
X236209Y811005D01*
Y819883D01*
X249640Y833314D01*
X252128Y832283D01*
X255000Y831905D01*
X257872Y832283D01*
X260548Y833391D01*
X262845Y835155D01*
X264608Y837453D01*
X265717Y840128D01*
X266095Y843000D01*
X265717Y845872D01*
X264608Y848547D01*
X262845Y850845D01*
X260548Y852608D01*
X257872Y853717D01*
X255000Y854095D01*
X252128Y853717D01*
X249452Y852608D01*
X247155Y850845D01*
X245392Y848547D01*
X244283Y845872D01*
X243905Y843000D01*
X244283Y840128D01*
X245314Y837640D01*
X230987Y823313D01*
X230659Y822821D01*
X228659Y823420D01*
Y862333D01*
X248326Y882000D01*
X266000D01*
Y904000D01*
X244000D01*
Y886326D01*
X223437Y865763D01*
X222774Y864771D01*
X222541Y863600D01*
X222541Y863600D01*
Y811005D01*
X222015Y810546D01*
X220245Y809595D01*
X219410Y810154D01*
X218425Y810350D01*
X216375D01*
X215390Y810154D01*
X214555Y809595D01*
X213997Y808760D01*
X213801Y807775D01*
Y804225D01*
X213997Y803240D01*
X214156Y801744D01*
X213161Y800256D01*
X212812Y798500D01*
X213161Y796744D01*
X214156Y795256D01*
X215644Y794261D01*
X217400Y793912D01*
X219156Y794261D01*
X220644Y795256D01*
X221051Y795864D01*
X223051Y795258D01*
Y786156D01*
X212198Y775302D01*
X211645Y774475D01*
X211451Y773500D01*
Y770746D01*
X210752Y770499D01*
X209451Y770413D01*
X209095Y770945D01*
X208260Y771504D01*
X207275Y771699D01*
X203725D01*
X202740Y771504D01*
X202505Y771347D01*
X200679Y771659D01*
X199812Y773480D01*
X199989Y773744D01*
X200338Y775500D01*
X199989Y777256D01*
X198994Y778744D01*
X197506Y779739D01*
X195750Y780088D01*
X193994Y779739D01*
X192506Y778744D01*
X191511Y777256D01*
X191162Y775500D01*
X191511Y773744D01*
X192506Y772256D01*
X191806Y770424D01*
X191597Y770110D01*
X191401Y769125D01*
Y767075D01*
X191597Y766090D01*
X192155Y765255D01*
X192369Y765111D01*
X192424Y764953D01*
Y763047D01*
X192369Y762889D01*
X192155Y762745D01*
X191597Y761910D01*
X191401Y760925D01*
Y758875D01*
X191597Y757890D01*
X191988Y757304D01*
X192194Y756486D01*
X190784Y754549D01*
X171800D01*
X171554Y754500D01*
X168500D01*
Y757554D01*
X168549Y757800D01*
Y762291D01*
X169244Y762756D01*
X170239Y764244D01*
X170588Y766000D01*
X170239Y767756D01*
X169244Y769244D01*
X167756Y770239D01*
X166000Y770588D01*
X164244Y770239D01*
X162756Y769244D01*
X161761Y767756D01*
X161412Y766000D01*
X161761Y764244D01*
X162726Y762800D01*
X162674Y762519D01*
X162083Y760800D01*
X143500D01*
Y754500D01*
X137200D01*
X135624Y755523D01*
Y777000D01*
X135148Y778148D01*
X134000Y778624D01*
X127000D01*
X125852Y778148D01*
X125376Y777000D01*
Y767079D01*
X124923Y766639D01*
X123376Y765760D01*
X122925Y765850D01*
X122900D01*
Y761500D01*
X121900D01*
Y760500D01*
X118301D01*
Y759725D01*
X118497Y758740D01*
X119055Y757905D01*
X119093Y757879D01*
Y755621D01*
X119055Y755595D01*
X118497Y754760D01*
X118301Y753775D01*
Y753000D01*
X121900D01*
Y752000D01*
X122900D01*
Y747651D01*
X122925D01*
X123910Y747847D01*
X125575Y747851D01*
X126409Y747295D01*
X127852Y745852D01*
X129000Y745376D01*
X137200D01*
Y745000D01*
X141200D01*
Y743000D01*
X137200D01*
Y742549D01*
X118000D01*
X117025Y742355D01*
X116198Y741802D01*
X116129Y741700D01*
X115725D01*
X114740Y741504D01*
X113905Y740945D01*
X113347Y740110D01*
X113151Y739125D01*
Y737075D01*
X113347Y736090D01*
X113905Y735255D01*
X114119Y735111D01*
X114174Y734953D01*
Y733047D01*
X114119Y732889D01*
X113905Y732745D01*
X113347Y731910D01*
X113151Y730925D01*
Y730900D01*
X117500D01*
X121849D01*
Y730925D01*
X121653Y731910D01*
X121095Y732745D01*
X120881Y732889D01*
X120826Y733047D01*
Y734953D01*
X120881Y735111D01*
X121095Y735255D01*
X121653Y736090D01*
X121849Y737075D01*
Y737451D01*
X137200D01*
Y737000D01*
X141200D01*
Y735000D01*
X137200D01*
Y734549D01*
X136000D01*
X135025Y734355D01*
X134198Y733802D01*
X128648Y728252D01*
X128095Y727425D01*
X127901Y726450D01*
Y707485D01*
X128095Y706509D01*
X128648Y705683D01*
X156083Y678247D01*
X155318Y676399D01*
X104256D01*
X93852Y686802D01*
X93025Y687355D01*
X92050Y687549D01*
X87500D01*
Y692750D01*
X57049D01*
Y702376D01*
X94000Y702376D01*
X95148Y702852D01*
X95623Y704000D01*
X95624Y716500D01*
X95148Y717648D01*
X94000Y718123D01*
X87500Y718123D01*
Y718150D01*
X57049D01*
Y725944D01*
X58955Y727850D01*
X87500D01*
Y743550D01*
X78543D01*
X77937Y745550D01*
X78244Y745756D01*
X79239Y747244D01*
X79588Y749000D01*
X79239Y750756D01*
X79078Y750996D01*
Y753250D01*
X87500D01*
Y768950D01*
X55500D01*
Y753250D01*
X70922D01*
Y750996D01*
X70761Y750756D01*
X70412Y749000D01*
X70761Y747244D01*
X71756Y745756D01*
X72063Y745550D01*
X71457Y743550D01*
X55500D01*
Y733050D01*
X53641Y731265D01*
X52802Y731302D01*
X46602Y737502D01*
X45775Y738055D01*
X44800Y738249D01*
X38000D01*
Y743550D01*
X21125D01*
X20688Y745550D01*
X21744Y746256D01*
X22739Y747744D01*
X23088Y749500D01*
X22739Y751256D01*
X23279Y753250D01*
X38000D01*
Y768950D01*
X6078D01*
X6000Y768950D01*
X4078Y769139D01*
Y778461D01*
X6078Y778650D01*
X38000D01*
Y794350D01*
X6078D01*
X6000Y794350D01*
X4078Y794539D01*
Y803861D01*
X6078Y804050D01*
X38000D01*
Y807822D01*
X46154D01*
X46244Y807761D01*
X48000Y807412D01*
X49756Y807761D01*
X51244Y808756D01*
X52239Y810244D01*
X52588Y812000D01*
X52239Y813756D01*
X51244Y815244D01*
X49756Y816239D01*
X48000Y816588D01*
X46244Y816239D01*
X45854Y815978D01*
X38000D01*
Y819750D01*
X23897D01*
X23700Y821750D01*
X23756Y821761D01*
X25244Y822756D01*
X26239Y824244D01*
X26588Y826000D01*
X26300Y827450D01*
X27078Y829192D01*
X27228Y829450D01*
X38000D01*
Y845150D01*
X6078D01*
X6000Y845150D01*
X4078Y845339D01*
Y860918D01*
X6364Y861090D01*
X6751Y861198D01*
X7152Y861228D01*
X11052Y862313D01*
X11410Y862494D01*
X11797Y862602D01*
X15411Y864427D01*
X15727Y864674D01*
X16086Y864855D01*
X19274Y867351D01*
X19536Y867655D01*
X19852Y867903D01*
X22493Y870972D01*
X22690Y871322D01*
X22952Y871626D01*
X24943Y875151D01*
X25068Y875533D01*
X25266Y875883D01*
X26265Y878922D01*
X50000D01*
X50133Y878948D01*
X50267Y878931D01*
X52094Y879050D01*
X52482Y879154D01*
X52883Y879181D01*
X56413Y880126D01*
X56891Y880362D01*
X57397Y880534D01*
X60562Y882361D01*
X60963Y882713D01*
X61406Y883009D01*
X63991Y885594D01*
X64287Y886037D01*
X64639Y886438D01*
X66466Y889603D01*
X66638Y890108D01*
X66874Y890587D01*
X67819Y894117D01*
X67854Y894649D01*
X67958Y895173D01*
Y898827D01*
X67854Y899351D01*
X67819Y899883D01*
X66874Y903413D01*
X66638Y903892D01*
X66466Y904397D01*
X64639Y907562D01*
X64287Y907963D01*
X63991Y908406D01*
X61406Y910991D01*
X60963Y911287D01*
X60562Y911639D01*
X57397Y913466D01*
X56892Y913637D01*
X56413Y913874D01*
X52883Y914819D01*
X52482Y914846D01*
X52094Y914950D01*
X50267Y915070D01*
X50133Y915052D01*
X50000Y915078D01*
X26265Y915078D01*
X25266Y918117D01*
X25068Y918467D01*
X24943Y918848D01*
X22952Y922374D01*
X22690Y922678D01*
X22493Y923028D01*
X19852Y926097D01*
X19536Y926345D01*
X19274Y926649D01*
X16086Y929144D01*
X15727Y929325D01*
X15411Y929573D01*
X11797Y931398D01*
X11410Y931506D01*
X11052Y931687D01*
X7152Y932772D01*
X6751Y932802D01*
X6364Y932910D01*
X4078Y933082D01*
X4078Y965584D01*
X6079Y965821D01*
X6699Y963236D01*
X8597Y958655D01*
X11187Y954427D01*
X14407Y950657D01*
X18177Y947437D01*
X22405Y944846D01*
X26986Y942949D01*
X31807Y941792D01*
X36750Y941403D01*
X41693Y941792D01*
X46514Y942949D01*
X51095Y944846D01*
X55322Y947437D01*
X59093Y950657D01*
X62313Y954427D01*
X64903Y958655D01*
X66801Y963236D01*
X67958Y968057D01*
X68347Y973000D01*
X67958Y977943D01*
X66801Y982764D01*
X64903Y987345D01*
X62313Y991572D01*
X59093Y995343D01*
X55322Y998563D01*
X51095Y1001153D01*
X49240Y1001922D01*
X49638Y1003922D01*
X117197D01*
X117629Y1000639D01*
X117716Y1000385D01*
X117733Y1000116D01*
X118918Y995694D01*
X119037Y995453D01*
X119090Y995189D01*
X120842Y990959D01*
X120991Y990735D01*
X121078Y990481D01*
X123367Y986516D01*
X123544Y986314D01*
X123663Y986072D01*
X126450Y982440D01*
X126652Y982263D01*
X126802Y982039D01*
X130039Y978802D01*
X130263Y978652D01*
X130440Y978450D01*
X134072Y975663D01*
X134314Y975544D01*
X134516Y975367D01*
X138481Y973078D01*
X138736Y972991D01*
X138959Y972842D01*
X143189Y971090D01*
X143453Y971037D01*
X143694Y970918D01*
X148116Y969733D01*
X148385Y969716D01*
X148639Y969629D01*
X153179Y969032D01*
X153380Y969045D01*
X153577Y968999D01*
X155867Y968924D01*
X156000Y968946D01*
X156133Y968924D01*
X158422Y968999D01*
X158620Y969045D01*
X158821Y969032D01*
X163361Y969629D01*
X163615Y969716D01*
X163884Y969733D01*
X168306Y970918D01*
X168547Y971037D01*
X168811Y971090D01*
X173041Y972842D01*
X173265Y972991D01*
X173519Y973078D01*
X177484Y975367D01*
X177686Y975544D01*
X177928Y975663D01*
X181560Y978450D01*
X181737Y978652D01*
X181961Y978802D01*
X185198Y982039D01*
X185348Y982263D01*
X185550Y982440D01*
X188337Y986072D01*
X188456Y986314D01*
X188633Y986516D01*
X190922Y990481D01*
X191009Y990735D01*
X191158Y990959D01*
X192910Y995189D01*
X192963Y995453D01*
X193082Y995694D01*
X194267Y1000116D01*
X194284Y1000385D01*
X194371Y1000639D01*
X194803Y1003922D01*
X263862D01*
X264260Y1001922D01*
D02*
G37*
G36*
X540443Y277828D02*
X540632Y277354D01*
X540750Y276857D01*
X541330Y276051D01*
X541447Y275979D01*
X541499Y275852D01*
X541876Y275696D01*
Y271500D01*
X542352Y270352D01*
X543500Y269876D01*
X557076D01*
Y265000D01*
X541700D01*
Y257549D01*
X539278D01*
X535774Y261052D01*
X534947Y261605D01*
X533972Y261799D01*
X527100D01*
X526124Y261605D01*
X526123Y261604D01*
X524442Y262459D01*
X524260Y264464D01*
X533648Y273852D01*
X535648Y275852D01*
X535719Y276024D01*
X535871Y276131D01*
X536953Y277838D01*
X536993Y278068D01*
X538044Y278579D01*
X539079Y278773D01*
X540443Y277828D01*
D02*
G37*
G36*
X403500Y301000D02*
X400500D01*
Y291000D01*
X397500D01*
X397500Y300500D01*
X396500Y301500D01*
X396500Y328000D01*
X403500D01*
Y301000D01*
D02*
G37*
%LPC*%
G36*
X145000Y726200D02*
X143500D01*
Y723200D01*
X145000D01*
Y726200D01*
D02*
G37*
G36*
X351775Y766199D02*
X351000D01*
Y763600D01*
X354350D01*
Y763625D01*
X354154Y764610D01*
X353595Y765445D01*
X352760Y766003D01*
X351775Y766199D01*
D02*
G37*
G36*
X570625Y209349D02*
X568575D01*
X567590Y209153D01*
X566755Y208595D01*
X566611Y208381D01*
X566453Y208326D01*
X564547D01*
X564389Y208381D01*
X564245Y208595D01*
X563410Y209153D01*
X562425Y209349D01*
X560375D01*
X559390Y209153D01*
X558555Y208595D01*
X557996Y207760D01*
X557801Y206775D01*
Y203225D01*
X557996Y202240D01*
X557706Y200744D01*
X556711Y199256D01*
X556362Y197500D01*
X556711Y195744D01*
X557706Y194256D01*
X559194Y193261D01*
X560950Y192912D01*
X562706Y193261D01*
X564194Y194256D01*
X565189Y195744D01*
X565538Y197500D01*
X565189Y199256D01*
X564910Y199674D01*
X565202Y200220D01*
X565368Y200347D01*
X567590Y200847D01*
X568575Y200651D01*
X570625D01*
X571610Y200847D01*
X571950Y201073D01*
X573950Y201000D01*
X573950Y201000D01*
X584950D01*
Y209000D01*
X573950D01*
Y209000D01*
X571950Y208927D01*
X571610Y209153D01*
X570625Y209349D01*
D02*
G37*
G36*
X540275Y286399D02*
X539500D01*
Y283800D01*
X542850D01*
Y283825D01*
X542654Y284810D01*
X542095Y285645D01*
X541260Y286203D01*
X540275Y286399D01*
D02*
G37*
G36*
X537500D02*
X536725D01*
X535740Y286203D01*
X534905Y285645D01*
X534347Y284810D01*
X534151Y283825D01*
Y283800D01*
X537500D01*
Y286399D01*
D02*
G37*
G36*
X570500Y325588D02*
X568744Y325239D01*
X567256Y324244D01*
X566261Y322756D01*
X565912Y321000D01*
X566261Y319244D01*
X567256Y317756D01*
X568744Y316761D01*
X570500Y316412D01*
X572065Y316723D01*
X573950Y317000D01*
X573950Y317000D01*
X573950Y317000D01*
X584950D01*
Y325000D01*
X573950D01*
X573950Y325000D01*
X572065Y325277D01*
X570500Y325588D01*
D02*
G37*
G36*
X560950Y317088D02*
X559194Y316739D01*
X557706Y315744D01*
X556711Y314256D01*
X556362Y312500D01*
X556711Y310744D01*
X557706Y309256D01*
X557996Y307760D01*
X557801Y306775D01*
Y303225D01*
X557996Y302240D01*
X558555Y301405D01*
X559390Y300847D01*
X560375Y300651D01*
X562425D01*
X563410Y300847D01*
X564245Y301405D01*
X564389Y301619D01*
X564547Y301674D01*
X566453D01*
X566611Y301619D01*
X566755Y301405D01*
X567590Y300847D01*
X568575Y300651D01*
X570625D01*
X571610Y300847D01*
X571950Y301073D01*
X573950Y301000D01*
X573950Y301000D01*
X584950D01*
Y309000D01*
X573950D01*
Y309000D01*
X571950Y308927D01*
X571610Y309153D01*
X570625Y309349D01*
X568575D01*
X567590Y309153D01*
X565368Y309653D01*
X565202Y309780D01*
X564910Y310326D01*
X565189Y310744D01*
X565538Y312500D01*
X565189Y314256D01*
X564194Y315744D01*
X562706Y316739D01*
X560950Y317088D01*
D02*
G37*
G36*
X570499Y193588D02*
X568743Y193239D01*
X567254Y192244D01*
X566260Y190755D01*
X565911Y189000D01*
X566260Y187244D01*
X567254Y185755D01*
X568743Y184761D01*
X570499Y184412D01*
X572065Y184723D01*
X573950Y185000D01*
X573950Y185000D01*
X573950Y185000D01*
X584950D01*
Y193000D01*
X573950D01*
X573950Y193000D01*
X572065Y193276D01*
X570499Y193588D01*
D02*
G37*
%LPD*%
G36*
X571748Y323685D02*
X571791Y323693D01*
X571829Y323671D01*
X573714Y323394D01*
X573887Y322000D01*
X579450D01*
Y320000D01*
X573887D01*
X573714Y318606D01*
X571829Y318329D01*
X571791Y318307D01*
X571748Y318316D01*
X570500Y318067D01*
X569378Y318291D01*
X568426Y318926D01*
X567790Y319878D01*
X567567Y321000D01*
X567790Y322122D01*
X568426Y323074D01*
X569378Y323709D01*
X570500Y323933D01*
X571748Y323685D01*
D02*
G37*
G36*
X571748Y191684D02*
X571791Y191693D01*
X571829Y191670D01*
X573714Y191394D01*
X573887Y190000D01*
X579450D01*
Y188000D01*
X573887D01*
X573714Y186606D01*
X571829Y186329D01*
X571791Y186307D01*
X571748Y186315D01*
X570499Y186067D01*
X569376Y186290D01*
X568425Y186926D01*
X567789Y187877D01*
X567566Y189000D01*
X567789Y190122D01*
X568425Y191073D01*
X569376Y191709D01*
X570499Y191932D01*
X571748Y191684D01*
D02*
G37*
%LPC*%
G36*
X158949Y716000D02*
X156350D01*
Y712651D01*
X156375D01*
X157360Y712847D01*
X158195Y713405D01*
X158753Y714240D01*
X158949Y715225D01*
Y716000D01*
D02*
G37*
G36*
X168500Y726200D02*
X167000D01*
Y723200D01*
X168500D01*
Y726200D01*
D02*
G37*
G36*
X351775Y663699D02*
X351000D01*
Y661100D01*
X354350D01*
Y661125D01*
X354154Y662110D01*
X353595Y662945D01*
X352760Y663503D01*
X351775Y663699D01*
D02*
G37*
G36*
X349000D02*
X348225D01*
X347240Y663503D01*
X346405Y662945D01*
X345846Y662110D01*
X345650Y661125D01*
Y661100D01*
X349000D01*
Y663699D01*
D02*
G37*
G36*
X398500Y699000D02*
X392750D01*
Y695750D01*
X398500D01*
Y699000D01*
D02*
G37*
G36*
X379500Y690750D02*
X373750D01*
Y687500D01*
X379500D01*
Y690750D01*
D02*
G37*
G36*
X390250D02*
X384500D01*
Y687500D01*
X390250D01*
Y690750D01*
D02*
G37*
G36*
X398500D02*
X392750D01*
Y687500D01*
X398500D01*
Y690750D01*
D02*
G37*
G36*
X379500Y699000D02*
X373750D01*
Y695750D01*
X379500D01*
Y699000D01*
D02*
G37*
G36*
X390250D02*
X384500D01*
Y695750D01*
X390250D01*
Y699000D01*
D02*
G37*
G36*
X316100Y489088D02*
X314344Y488739D01*
X312856Y487744D01*
X312391Y487049D01*
X285209D01*
X284744Y487744D01*
X283256Y488739D01*
X281500Y489088D01*
X279744Y488739D01*
X278256Y487744D01*
X277261Y486256D01*
X276912Y484500D01*
X277261Y482744D01*
X278256Y481256D01*
X279744Y480261D01*
X281500Y479912D01*
X283256Y480261D01*
X284744Y481256D01*
X285209Y481951D01*
X312391D01*
X312856Y481256D01*
X314344Y480261D01*
X316100Y479912D01*
X317856Y480261D01*
X319344Y481256D01*
X320339Y482744D01*
X320688Y484500D01*
X320339Y486256D01*
X319344Y487744D01*
X317856Y488739D01*
X316100Y489088D01*
D02*
G37*
G36*
X202050Y160750D02*
X186350D01*
Y128750D01*
X202050D01*
Y130172D01*
X214600D01*
Y128500D01*
X231100D01*
Y130172D01*
X237504D01*
X237744Y130011D01*
X239500Y129662D01*
X241256Y130011D01*
X242744Y131006D01*
X243739Y132494D01*
X244088Y134250D01*
X243739Y136006D01*
X242744Y137494D01*
X241256Y138489D01*
X239500Y138838D01*
X237744Y138489D01*
X237504Y138328D01*
X231100D01*
Y140000D01*
X214600D01*
Y138328D01*
X202050D01*
Y160750D01*
D02*
G37*
G36*
X154000Y493750D02*
X146750D01*
Y489000D01*
X154000D01*
Y493750D01*
D02*
G37*
G36*
X163250D02*
X156000D01*
Y489000D01*
X163250D01*
Y493750D01*
D02*
G37*
G36*
X246449Y499000D02*
X243850D01*
Y495650D01*
X243875D01*
X244860Y495846D01*
X245695Y496405D01*
X246254Y497240D01*
X246449Y498225D01*
Y499000D01*
D02*
G37*
G36*
X568400Y502000D02*
X562400D01*
Y496000D01*
X568400D01*
Y502000D01*
D02*
G37*
G36*
X584400D02*
X578400D01*
Y496000D01*
X584400D01*
Y502000D01*
D02*
G37*
G36*
X168750Y171588D02*
X166994Y171239D01*
X165506Y170244D01*
X164511Y168756D01*
X164162Y167000D01*
X164511Y165244D01*
X164672Y165004D01*
Y160750D01*
X160950D01*
Y128750D01*
X176650D01*
Y160750D01*
X172828D01*
Y165004D01*
X172989Y165244D01*
X173338Y167000D01*
X172989Y168756D01*
X171994Y170244D01*
X170506Y171239D01*
X168750Y171588D01*
D02*
G37*
G36*
X175000Y499700D02*
X174225D01*
X173240Y499504D01*
X172405Y498945D01*
X171847Y498110D01*
X171651Y497125D01*
Y497100D01*
X175000D01*
Y499700D01*
D02*
G37*
G36*
X154000Y500500D02*
X146750D01*
Y495750D01*
X154000D01*
Y500500D01*
D02*
G37*
G36*
X163250D02*
X156000D01*
Y495750D01*
X163250D01*
Y500500D01*
D02*
G37*
G36*
X312750Y447500D02*
X299000D01*
Y441500D01*
X312750D01*
Y447500D01*
D02*
G37*
G36*
X294000Y458500D02*
X280250D01*
Y452500D01*
X294000D01*
Y458500D01*
D02*
G37*
G36*
X312750D02*
X299000D01*
Y452500D01*
X312750D01*
Y458500D01*
D02*
G37*
G36*
X542250Y220250D02*
X537500D01*
Y213000D01*
X542250D01*
Y220250D01*
D02*
G37*
G36*
X204000Y446250D02*
X199750D01*
Y441500D01*
X204000D01*
Y446250D01*
D02*
G37*
G36*
X190250Y447500D02*
X176500D01*
Y441500D01*
X190250D01*
Y447500D01*
D02*
G37*
G36*
X294000Y447500D02*
X280250D01*
Y441500D01*
X294000D01*
Y447500D01*
D02*
G37*
G36*
X115500Y160750D02*
X110150D01*
Y147250D01*
X115500D01*
Y160750D01*
D02*
G37*
G36*
X159500Y486587D02*
X157744Y486238D01*
X156255Y485243D01*
X155261Y483755D01*
X155216Y483530D01*
X154824Y482003D01*
X153043Y482079D01*
X153000Y482087D01*
X152956Y482079D01*
X151176Y482003D01*
X150783Y483530D01*
X150739Y483755D01*
X149744Y485243D01*
X148256Y486238D01*
X146500Y486587D01*
X144744Y486238D01*
X143255Y485243D01*
X142261Y483755D01*
X141911Y481999D01*
X140200Y482088D01*
X138444Y481739D01*
X136956Y480744D01*
X135961Y479256D01*
X135612Y477500D01*
X135961Y475744D01*
X136956Y474256D01*
X137651Y473791D01*
Y471800D01*
X137845Y470825D01*
X138398Y469998D01*
X138951Y469445D01*
Y461437D01*
X137500Y459874D01*
X102500D01*
X101352Y459398D01*
X100876Y458250D01*
Y457692D01*
X98876Y457561D01*
X98756Y458480D01*
X97798Y460791D01*
X96275Y462775D01*
X94291Y464298D01*
X91980Y465256D01*
X89500Y465582D01*
X87020Y465256D01*
X84709Y464298D01*
X82725Y462775D01*
X81202Y460791D01*
X80245Y458480D01*
X79918Y456000D01*
X80245Y453520D01*
X81202Y451209D01*
X82725Y449225D01*
X84646Y447750D01*
X84668Y447544D01*
X84195Y445750D01*
X84000D01*
Y439235D01*
X82000Y440122D01*
Y445750D01*
X77750D01*
Y440000D01*
X76750D01*
Y439000D01*
X71500D01*
Y434250D01*
X72525Y432250D01*
X72400Y431625D01*
Y429575D01*
X72597Y428590D01*
X73155Y427755D01*
X73369Y427611D01*
X73424Y427453D01*
Y425547D01*
X73369Y425389D01*
X73155Y425245D01*
X72597Y424410D01*
X72400Y423425D01*
Y423400D01*
X76750D01*
Y422400D01*
X77750D01*
Y418801D01*
X78525D01*
X78922Y418880D01*
X80519Y417951D01*
X80922Y417534D01*
Y407189D01*
X67866Y394134D01*
X66982Y392811D01*
X66672Y391250D01*
X66672Y391250D01*
Y386113D01*
X65453Y385608D01*
X63155Y383845D01*
X61392Y381548D01*
X60283Y378872D01*
X59905Y376000D01*
X60283Y373128D01*
X61392Y370452D01*
X63155Y368155D01*
X65453Y366391D01*
X68128Y365283D01*
X71000Y364905D01*
X73872Y365283D01*
X76547Y366391D01*
X78845Y368155D01*
X80609Y370452D01*
X81717Y373128D01*
X82095Y376000D01*
X81717Y378872D01*
X80609Y381548D01*
X78845Y383845D01*
X76547Y385608D01*
X74828Y386320D01*
Y389561D01*
X87884Y402616D01*
X87884Y402616D01*
X88768Y403939D01*
X89078Y405500D01*
X89078Y405500D01*
Y420277D01*
X89153Y420390D01*
X89349Y421375D01*
Y423425D01*
X89153Y424410D01*
X88595Y425245D01*
X88381Y425389D01*
X88326Y425547D01*
Y427453D01*
X88381Y427611D01*
X88595Y427755D01*
X89153Y428590D01*
X89349Y429575D01*
Y431625D01*
X89228Y432234D01*
X89302Y432761D01*
X90280Y434250D01*
X94500D01*
Y445750D01*
X94500D01*
X94320Y447428D01*
X94354Y447750D01*
X96275Y449225D01*
X97798Y451209D01*
X98756Y453520D01*
X98876Y454439D01*
X100876Y454308D01*
Y430500D01*
X101239Y429624D01*
X100467Y427624D01*
X96250D01*
X95102Y427148D01*
X94626Y426000D01*
Y406250D01*
X95102Y405102D01*
X96250Y404626D01*
X113000D01*
X114148Y405102D01*
X114209Y405249D01*
X116207Y404846D01*
X116136Y392874D01*
X111250D01*
X110102Y392398D01*
X109626Y391250D01*
Y366250D01*
X110000Y365348D01*
Y365000D01*
X110348D01*
X111250Y364626D01*
X137500D01*
X138951Y363063D01*
Y358708D01*
X138255Y358244D01*
X137261Y356755D01*
X136912Y354999D01*
X137261Y353243D01*
X138255Y351755D01*
X139744Y350760D01*
X141500Y350411D01*
X143256Y350760D01*
X144744Y351755D01*
X145739Y353243D01*
X145907Y354090D01*
X146028Y354292D01*
X147971Y354292D01*
X148092Y354090D01*
X148261Y353243D01*
X149255Y351755D01*
X150744Y350760D01*
X152500Y350411D01*
X154256Y350760D01*
X155744Y351755D01*
X156739Y353243D01*
X156793Y353516D01*
X158501Y354776D01*
X159810Y354419D01*
X160062Y354244D01*
X160261Y353244D01*
X161255Y351756D01*
X162744Y350761D01*
X164500Y350412D01*
X166255Y350761D01*
X167744Y351756D01*
X168739Y353244D01*
X169088Y355000D01*
X168739Y356756D01*
X167744Y358244D01*
X167049Y358709D01*
Y370000D01*
X166855Y370976D01*
X166302Y371803D01*
X158249Y379856D01*
Y441500D01*
X171500D01*
Y450000D01*
Y458500D01*
X158249D01*
Y466144D01*
X165179Y473074D01*
X166000Y472911D01*
X167756Y473260D01*
X169244Y474255D01*
X170239Y475743D01*
X170588Y477499D01*
X170239Y479255D01*
X169244Y480743D01*
X167756Y481738D01*
X166000Y482087D01*
X165956Y482079D01*
X164176Y482003D01*
X163783Y483530D01*
X163739Y483755D01*
X162744Y485243D01*
X161255Y486238D01*
X159500Y486587D01*
D02*
G37*
G36*
X210500Y489500D02*
X203000D01*
Y483000D01*
X210500D01*
Y489500D01*
D02*
G37*
G36*
X462000Y212000D02*
X457250D01*
Y210100D01*
X462000D01*
Y212000D01*
D02*
G37*
G36*
X190250Y458500D02*
X176500D01*
Y452500D01*
X190250D01*
Y458500D01*
D02*
G37*
G36*
X225500Y480900D02*
X222150D01*
Y480875D01*
X222346Y479890D01*
X222905Y479055D01*
X223740Y478497D01*
X224725Y478301D01*
X225500D01*
Y480900D01*
D02*
G37*
G36*
X517600Y502000D02*
X512765D01*
X512991Y501452D01*
X514755Y499155D01*
X517052Y497392D01*
X517600Y497165D01*
Y502000D01*
D02*
G37*
G36*
X503750Y555500D02*
X496500D01*
Y550750D01*
X503750D01*
Y555500D01*
D02*
G37*
G36*
X513000D02*
X505750D01*
Y550750D01*
X513000D01*
Y555500D01*
D02*
G37*
G36*
X67000Y564588D02*
X65244Y564239D01*
X63756Y563244D01*
X62761Y561756D01*
X62412Y560000D01*
X62761Y558244D01*
X63756Y556756D01*
X65244Y555761D01*
X67000Y555412D01*
X68756Y555761D01*
X70244Y556756D01*
X71239Y558244D01*
X71588Y560000D01*
X71239Y561756D01*
X70244Y563244D01*
X68756Y564239D01*
X67000Y564588D01*
D02*
G37*
G36*
X513000Y548750D02*
X505750D01*
Y544000D01*
X513000D01*
Y548750D01*
D02*
G37*
G36*
X568400Y546000D02*
X562400D01*
Y540000D01*
X568400D01*
Y546000D01*
D02*
G37*
G36*
X584400D02*
X578400D01*
Y540000D01*
X584400D01*
Y546000D01*
D02*
G37*
G36*
X503750Y548750D02*
X496500D01*
Y544000D01*
X503750D01*
Y548750D01*
D02*
G37*
G36*
X115500Y142250D02*
X110150D01*
Y128750D01*
X115500D01*
Y142250D01*
D02*
G37*
G36*
X443500Y593500D02*
X431000D01*
Y584500D01*
X443500D01*
Y593500D01*
D02*
G37*
G36*
X231100Y123500D02*
X223850D01*
Y118750D01*
X231100D01*
Y123500D01*
D02*
G37*
G36*
X473500Y204900D02*
X470150D01*
Y204875D01*
X470346Y203890D01*
X470905Y203055D01*
X471740Y202496D01*
X472725Y202301D01*
X473500D01*
Y204900D01*
D02*
G37*
G36*
X482450Y567400D02*
X479100D01*
Y567375D01*
X479296Y566390D01*
X479855Y565555D01*
X480690Y564996D01*
X481675Y564800D01*
X482450D01*
Y567400D01*
D02*
G37*
G36*
X487799D02*
X484450D01*
Y564800D01*
X485225D01*
X486210Y564996D01*
X487045Y565555D01*
X487603Y566390D01*
X487799Y567375D01*
Y567400D01*
D02*
G37*
G36*
X125850Y142250D02*
X120500D01*
Y128750D01*
X125850D01*
Y142250D01*
D02*
G37*
G36*
X168000Y535500D02*
X166000D01*
Y527750D01*
X168000D01*
Y535500D01*
D02*
G37*
G36*
X542250Y211000D02*
X537500D01*
Y203750D01*
X542250D01*
Y211000D01*
D02*
G37*
G36*
X568400Y518000D02*
X562400D01*
Y512000D01*
X568400D01*
Y518000D01*
D02*
G37*
G36*
X517600Y516835D02*
X517052Y516609D01*
X514755Y514845D01*
X512991Y512547D01*
X512765Y512000D01*
X517600D01*
Y516835D01*
D02*
G37*
G36*
X243625Y513849D02*
X243600D01*
Y510500D01*
X246199D01*
Y511275D01*
X246003Y512260D01*
X245445Y513095D01*
X244610Y513653D01*
X243625Y513849D01*
D02*
G37*
G36*
X532435Y502000D02*
X527600D01*
Y497165D01*
X528148Y497392D01*
X530445Y499155D01*
X532209Y501452D01*
X532435Y502000D01*
D02*
G37*
G36*
X143250Y171588D02*
X141494Y171239D01*
X140006Y170244D01*
X139011Y168756D01*
X138662Y167000D01*
X139011Y165244D01*
X139172Y165004D01*
Y160750D01*
X135550D01*
Y128750D01*
X151250D01*
Y160750D01*
X147328D01*
Y165004D01*
X147489Y165244D01*
X147838Y167000D01*
X147489Y168756D01*
X146494Y170244D01*
X145006Y171239D01*
X143250Y171588D01*
D02*
G37*
G36*
X175000Y504400D02*
X171651D01*
Y504375D01*
X171847Y503390D01*
X172405Y502555D01*
X173240Y501996D01*
X174225Y501800D01*
X175000D01*
Y504400D01*
D02*
G37*
G36*
X478849Y204900D02*
X475500D01*
Y202301D01*
X476275D01*
X477260Y202496D01*
X478095Y203055D01*
X478653Y203890D01*
X478849Y204875D01*
Y204900D01*
D02*
G37*
G36*
X584400Y530000D02*
X578400D01*
Y524000D01*
X584400D01*
Y530000D01*
D02*
G37*
G36*
X232550Y541124D02*
X225000D01*
X223852Y540648D01*
X221352Y538148D01*
X220877Y537000D01*
X220877Y535500D01*
X205000D01*
Y526750D01*
X203000D01*
Y535500D01*
X170000D01*
Y526750D01*
X169000D01*
Y525750D01*
X166000D01*
Y518000D01*
X165159Y517219D01*
X163250Y517000D01*
Y517000D01*
X146750D01*
Y515928D01*
X137720D01*
X137256Y516239D01*
X135500Y516588D01*
X133744Y516239D01*
X132256Y515244D01*
X131261Y513756D01*
X130912Y512000D01*
X131261Y510244D01*
X132256Y508756D01*
X133744Y507761D01*
X135500Y507412D01*
X137256Y507761D01*
X137272Y507772D01*
X146750D01*
Y505500D01*
X163250D01*
Y510541D01*
X170994D01*
X171454Y510015D01*
X172405Y508245D01*
X171847Y507410D01*
X171651Y506425D01*
Y506400D01*
X176000D01*
Y505400D01*
X177000D01*
Y501800D01*
X177775D01*
X178154Y501876D01*
X179669Y500869D01*
X179296Y500309D01*
X179190Y500226D01*
X178065Y499642D01*
X177775Y499700D01*
X177000D01*
Y496100D01*
X176000D01*
Y495100D01*
X171651D01*
Y495075D01*
X171847Y494090D01*
X172405Y493255D01*
X172619Y493111D01*
X172674Y492953D01*
Y491047D01*
X172619Y490889D01*
X172405Y490745D01*
X171847Y489910D01*
X171651Y488925D01*
Y486875D01*
X171847Y485890D01*
X172405Y485055D01*
X173240Y484496D01*
X174225Y484301D01*
X177775D01*
X178760Y484496D01*
X179000Y484657D01*
X181000Y483897D01*
Y483000D01*
X198000D01*
Y494395D01*
X200569Y496965D01*
X202416Y496809D01*
X202416D01*
X203000Y496567D01*
X203000Y496292D01*
Y491500D01*
X210500D01*
Y498000D01*
X206004D01*
X205092Y499618D01*
X205413Y500000D01*
X214346D01*
X214504Y499764D01*
X213561Y498000D01*
X212500D01*
Y490500D01*
Y483000D01*
X220000D01*
Y487481D01*
X222000Y488512D01*
X222306Y488294D01*
X222346Y488090D01*
X222905Y487255D01*
X223119Y487111D01*
X223174Y486953D01*
Y485047D01*
X223119Y484889D01*
X222905Y484745D01*
X222346Y483910D01*
X222150Y482925D01*
Y482900D01*
X226500D01*
Y481900D01*
X227500D01*
Y478301D01*
X228275D01*
X229260Y478497D01*
X229312Y478531D01*
X229902Y478352D01*
X231050Y477876D01*
X237550D01*
X238698Y478352D01*
X239174Y479500D01*
Y494554D01*
X239929Y495140D01*
X241174Y495780D01*
X241825Y495650D01*
X241850D01*
Y500000D01*
X242850D01*
Y501000D01*
X246449D01*
Y501775D01*
X246254Y502760D01*
X245695Y503595D01*
X245600Y503659D01*
X245448Y505861D01*
X245482Y505960D01*
X246003Y506740D01*
X246199Y507725D01*
Y508500D01*
X242600D01*
Y509500D01*
X241600D01*
Y513849D01*
X241575D01*
X240590Y513653D01*
X240390Y513520D01*
X239656Y513120D01*
X237690Y513606D01*
X237174Y514123D01*
Y518000D01*
X238000D01*
Y526750D01*
Y535979D01*
X237174Y536500D01*
X236698Y537648D01*
X233698Y540648D01*
X232550Y541124D01*
D02*
G37*
G36*
X568400Y530000D02*
X562400D01*
Y524000D01*
X568400D01*
Y530000D01*
D02*
G37*
G36*
X527600Y516835D02*
Y512000D01*
X532435D01*
X532209Y512547D01*
X530445Y514845D01*
X528148Y516609D01*
X527600Y516835D01*
D02*
G37*
G36*
X584400Y518000D02*
X578400D01*
Y512000D01*
X584400D01*
Y518000D01*
D02*
G37*
G36*
X269500Y551588D02*
X267744Y551239D01*
X266256Y550244D01*
X265791Y549549D01*
X254500D01*
X253525Y549355D01*
X252698Y548802D01*
X242198Y538302D01*
X241645Y537476D01*
X241451Y536500D01*
Y535500D01*
X240000D01*
Y526750D01*
Y518000D01*
X248754D01*
X249733Y516629D01*
X249945Y516000D01*
X249800Y515275D01*
Y514500D01*
X253400D01*
Y512500D01*
X249800D01*
Y511725D01*
X249996Y510740D01*
X250555Y509905D01*
Y508595D01*
X249996Y507760D01*
X249800Y506775D01*
Y503225D01*
X249891Y502769D01*
Y499335D01*
X249756Y499244D01*
X248761Y497756D01*
X248412Y496000D01*
X248761Y494244D01*
X249756Y492756D01*
X251244Y491761D01*
X253000Y491412D01*
X254756Y491761D01*
X256244Y492756D01*
X257239Y494244D01*
X257588Y496000D01*
X257239Y497756D01*
X256244Y499244D01*
X257083Y500779D01*
X258755Y501405D01*
X259590Y500846D01*
X260575Y500650D01*
X262625D01*
X263610Y500846D01*
X264445Y501405D01*
X265004Y502240D01*
X265199Y503225D01*
Y506775D01*
X265004Y507760D01*
X264499Y508515D01*
Y509985D01*
X265004Y510740D01*
X265047Y510961D01*
X265975Y511145D01*
X266802Y511698D01*
X269451Y514346D01*
X271329Y513568D01*
X271393Y511670D01*
X270756Y511244D01*
X269761Y509756D01*
X269412Y508000D01*
X269761Y506244D01*
X270756Y504756D01*
X272244Y503761D01*
X274000Y503412D01*
X275756Y503761D01*
X276168Y504036D01*
X277948Y503141D01*
X278009Y501413D01*
X277756Y501244D01*
X276761Y499756D01*
X276412Y498000D01*
X276761Y496244D01*
X277756Y494756D01*
X279244Y493761D01*
X281000Y493412D01*
X282756Y493761D01*
X284244Y494756D01*
X285239Y496244D01*
X285588Y498000D01*
X285239Y499756D01*
X284244Y501244D01*
X283549Y501709D01*
Y513500D01*
X283355Y514476D01*
X282802Y515302D01*
X282105Y516000D01*
X282891Y518000D01*
X292000D01*
Y524201D01*
X331041D01*
X331506Y523506D01*
X332994Y522511D01*
X334750Y522162D01*
X336506Y522511D01*
X337994Y523506D01*
X338989Y524994D01*
X339338Y526750D01*
X338989Y528506D01*
X337994Y529994D01*
X336506Y530989D01*
X334750Y531338D01*
X332994Y530989D01*
X331506Y529994D01*
X331041Y529299D01*
X292000D01*
Y535500D01*
X289145D01*
X288076Y537500D01*
X288239Y537744D01*
X288588Y539500D01*
X288239Y541256D01*
X287244Y542744D01*
X285756Y543739D01*
X284000Y544088D01*
X282244Y543739D01*
X280756Y542744D01*
X279761Y541256D01*
X279412Y539500D01*
X279761Y537744D01*
X279924Y537500D01*
X278855Y535500D01*
X271140D01*
X268338Y538302D01*
X268231Y538374D01*
X267363Y539242D01*
X267440Y541198D01*
X269035Y542504D01*
X269500Y542412D01*
X271256Y542761D01*
X272744Y543756D01*
X273739Y545244D01*
X274088Y547000D01*
X273739Y548756D01*
X272744Y550244D01*
X271256Y551239D01*
X269500Y551588D01*
D02*
G37*
G36*
X437500Y349000D02*
X428500D01*
Y344000D01*
X437500D01*
Y349000D01*
D02*
G37*
G36*
X389500D02*
X380500D01*
Y344000D01*
X389500D01*
Y349000D01*
D02*
G37*
G36*
X451500D02*
X442500D01*
Y344000D01*
X451500D01*
Y349000D01*
D02*
G37*
G36*
X375500D02*
X366500D01*
Y344000D01*
X375500D01*
Y349000D01*
D02*
G37*
G36*
X590805Y344000D02*
X583800D01*
Y336995D01*
X583845Y337001D01*
X586217Y337983D01*
X588254Y339546D01*
X589817Y341583D01*
X590799Y343955D01*
X590805Y344000D01*
D02*
G37*
G36*
X342500Y347000D02*
X335250D01*
Y342250D01*
X342500D01*
Y347000D01*
D02*
G37*
G36*
X351750D02*
X344500D01*
Y342250D01*
X351750D01*
Y347000D01*
D02*
G37*
G36*
X463500Y363500D02*
X460000D01*
Y358500D01*
X463500D01*
Y363500D01*
D02*
G37*
G36*
X469000D02*
X465500D01*
Y358500D01*
X469000D01*
Y363500D01*
D02*
G37*
G36*
X480500Y392088D02*
X478744Y391739D01*
X477256Y390744D01*
X476682Y389886D01*
X476525Y389855D01*
X475698Y389302D01*
X472648Y386252D01*
X472095Y385425D01*
X471901Y384450D01*
Y380866D01*
X471497Y380260D01*
X471301Y379275D01*
Y375725D01*
X471497Y374740D01*
X472055Y373905D01*
X472890Y373346D01*
X473875Y373150D01*
X475925D01*
X476910Y373346D01*
X477745Y373905D01*
X479711Y373809D01*
X481001Y372608D01*
Y370500D01*
X479000D01*
Y358500D01*
X488000D01*
Y364025D01*
X489996Y364240D01*
X490555Y363405D01*
X491390Y362846D01*
X492375Y362650D01*
X494425D01*
X495410Y362846D01*
X496245Y363405D01*
X496389Y363619D01*
X496547Y363674D01*
X498453D01*
X498611Y363619D01*
X498755Y363405D01*
X499590Y362846D01*
X500575Y362650D01*
X500600D01*
Y367000D01*
Y371349D01*
X500575D01*
X499590Y371153D01*
X498755Y370595D01*
X498611Y370381D01*
X498453Y370326D01*
X496547D01*
X496389Y370381D01*
X496245Y370595D01*
X495410Y371153D01*
X494425Y371349D01*
X492375D01*
X491390Y371153D01*
X490555Y370595D01*
X489996Y369760D01*
X488000Y369975D01*
Y370500D01*
X486099D01*
Y374134D01*
X486503Y374740D01*
X486699Y375725D01*
Y379275D01*
X486503Y380260D01*
X485945Y381095D01*
X485110Y381654D01*
X484125Y381850D01*
X483743D01*
X483136Y383849D01*
X483744Y384256D01*
X484739Y385744D01*
X485088Y387500D01*
X484739Y389256D01*
X483744Y390744D01*
X482256Y391739D01*
X480500Y392088D01*
D02*
G37*
G36*
X583800Y356005D02*
Y349000D01*
X590805D01*
X590799Y349045D01*
X589817Y351417D01*
X588254Y353454D01*
X586217Y355017D01*
X583845Y355999D01*
X583800Y356005D01*
D02*
G37*
G36*
X578800D02*
X578755Y355999D01*
X576383Y355017D01*
X574346Y353454D01*
X572783Y351417D01*
X571801Y349045D01*
X571795Y349000D01*
X578800D01*
Y356005D01*
D02*
G37*
G36*
X410775Y318199D02*
X410000D01*
Y315600D01*
X413349D01*
Y315625D01*
X413153Y316610D01*
X412595Y317445D01*
X411760Y318004D01*
X410775Y318199D01*
D02*
G37*
G36*
X362000Y319699D02*
X361225D01*
X360240Y319503D01*
X359405Y318945D01*
X358847Y318110D01*
X358651Y317125D01*
Y317100D01*
X362000D01*
Y319699D01*
D02*
G37*
G36*
X351750Y330500D02*
X335250D01*
Y319000D01*
X343422D01*
Y314496D01*
X343261Y314256D01*
X342912Y312500D01*
X343261Y310744D01*
X344256Y309256D01*
X345744Y308261D01*
X347500Y307912D01*
X349256Y308261D01*
X350744Y309256D01*
X351739Y310744D01*
X352088Y312500D01*
X351739Y314256D01*
X351578Y314496D01*
Y319000D01*
X351750D01*
Y330500D01*
D02*
G37*
G36*
X423900Y306550D02*
X421301D01*
Y305775D01*
X421497Y304790D01*
X422055Y303955D01*
X422890Y303396D01*
X423875Y303200D01*
X423900D01*
Y306550D01*
D02*
G37*
G36*
X390400Y307000D02*
X387800D01*
Y306225D01*
X387996Y305240D01*
X388555Y304405D01*
X389390Y303846D01*
X390375Y303650D01*
X390400D01*
Y307000D01*
D02*
G37*
G36*
X342500Y340250D02*
X335250D01*
Y335500D01*
X342500D01*
Y340250D01*
D02*
G37*
G36*
X351750D02*
X344500D01*
Y335500D01*
X351750D01*
Y340250D01*
D02*
G37*
G36*
X578800Y344000D02*
X571795D01*
X571801Y343955D01*
X572783Y341583D01*
X574346Y339546D01*
X576383Y337983D01*
X578755Y337001D01*
X578800Y336995D01*
Y344000D01*
D02*
G37*
G36*
X389500Y339000D02*
X380500D01*
Y334000D01*
X389500D01*
Y339000D01*
D02*
G37*
G36*
X382625Y321349D02*
X382600D01*
Y318000D01*
X385200D01*
Y318775D01*
X385004Y319760D01*
X384445Y320595D01*
X383610Y321153D01*
X382625Y321349D01*
D02*
G37*
G36*
X390400D02*
X390375D01*
X389390Y321153D01*
X388555Y320595D01*
X387996Y319760D01*
X387800Y318775D01*
Y318000D01*
X390400D01*
Y321349D01*
D02*
G37*
G36*
X375500Y339000D02*
X366500D01*
Y334000D01*
X375500D01*
Y339000D01*
D02*
G37*
G36*
X505199Y366000D02*
X502600D01*
Y362650D01*
X502625D01*
X503610Y362846D01*
X504445Y363405D01*
X505004Y364240D01*
X505199Y365225D01*
Y366000D01*
D02*
G37*
G36*
X48500Y386766D02*
Y378500D01*
X56766D01*
X56717Y378872D01*
X55609Y381548D01*
X53845Y383845D01*
X51547Y385608D01*
X48872Y386717D01*
X48500Y386766D01*
D02*
G37*
G36*
X193500Y386766D02*
Y378500D01*
X201766D01*
X201717Y378872D01*
X200609Y381548D01*
X198845Y383845D01*
X196548Y385608D01*
X193872Y386717D01*
X193500Y386766D01*
D02*
G37*
G36*
X451500Y389000D02*
X428500D01*
Y385578D01*
X389500D01*
Y389000D01*
X366500D01*
Y385578D01*
X338996D01*
X338756Y385739D01*
X337000Y386088D01*
X335244Y385739D01*
X333756Y384744D01*
X333291Y384049D01*
X300659D01*
X300194Y384744D01*
X298706Y385739D01*
X296950Y386088D01*
X295194Y385739D01*
X293706Y384744D01*
X292711Y383256D01*
X292362Y381500D01*
X292711Y379744D01*
X293706Y378256D01*
X295194Y377261D01*
X296950Y376912D01*
X298706Y377261D01*
X300194Y378256D01*
X300659Y378951D01*
X333291D01*
X333756Y378256D01*
X335244Y377261D01*
X337000Y376912D01*
X338756Y377261D01*
X338996Y377422D01*
X366500D01*
Y374000D01*
X389500D01*
Y377422D01*
X428500D01*
Y374000D01*
X451500D01*
Y389000D01*
D02*
G37*
G36*
X43500Y386766D02*
X43128Y386717D01*
X40453Y385608D01*
X38155Y383845D01*
X36391Y381548D01*
X35283Y378872D01*
X35234Y378500D01*
X43500D01*
Y386766D01*
D02*
G37*
G36*
X465500Y250000D02*
X464000D01*
Y247500D01*
X465500D01*
Y250000D01*
D02*
G37*
G36*
X502625Y371349D02*
X502600D01*
Y368000D01*
X505199D01*
Y368775D01*
X505004Y369760D01*
X504445Y370595D01*
X503610Y371153D01*
X502625Y371349D01*
D02*
G37*
G36*
X188500Y386766D02*
X188128Y386717D01*
X185452Y385608D01*
X183155Y383845D01*
X181392Y381548D01*
X180283Y378872D01*
X180234Y378500D01*
X188500D01*
Y386766D01*
D02*
G37*
G36*
X201000Y421400D02*
X197651D01*
Y421375D01*
X197847Y420390D01*
X198405Y419555D01*
X199240Y418997D01*
X200225Y418801D01*
X201000D01*
Y421400D01*
D02*
G37*
G36*
X75750Y445750D02*
X71500D01*
Y441000D01*
X75750D01*
Y445750D01*
D02*
G37*
G36*
X197750Y446250D02*
X193500D01*
Y441500D01*
X197750D01*
Y446250D01*
D02*
G37*
G36*
X75750Y421400D02*
X72400D01*
Y421375D01*
X72597Y420390D01*
X73155Y419555D01*
X73990Y418997D01*
X74975Y418801D01*
X75750D01*
Y421400D01*
D02*
G37*
G36*
X496400Y216849D02*
X496375D01*
X495390Y216653D01*
X494555Y216095D01*
X493997Y215260D01*
X493801Y214275D01*
Y213500D01*
X496400D01*
Y216849D01*
D02*
G37*
G36*
X475250Y494094D02*
X380250D01*
X374495Y493717D01*
X368838Y492592D01*
X363376Y490738D01*
X358203Y488187D01*
X353407Y484982D01*
X349071Y481179D01*
X345268Y476843D01*
X342063Y472047D01*
X339512Y466874D01*
X337658Y461413D01*
X336533Y455756D01*
X336156Y450000D01*
X336533Y444244D01*
X337658Y438587D01*
X339512Y433126D01*
X342063Y427953D01*
X345268Y423157D01*
X349071Y418820D01*
X353407Y415018D01*
X358203Y411813D01*
X363376Y409262D01*
X368838Y407408D01*
X374495Y406283D01*
X380250Y405906D01*
X475250D01*
X481006Y406283D01*
X486662Y407408D01*
X492124Y409262D01*
X497297Y411813D01*
X502093Y415018D01*
X506429Y418820D01*
X510232Y423157D01*
X513437Y427953D01*
X515988Y433126D01*
X517842Y438587D01*
X518967Y444244D01*
X519344Y450000D01*
X518967Y455756D01*
X517842Y461413D01*
X515988Y466874D01*
X513437Y472047D01*
X510232Y476843D01*
X506429Y481179D01*
X502093Y484982D01*
X497297Y488187D01*
X492124Y490738D01*
X486662Y492592D01*
X481006Y493717D01*
X475250Y494094D01*
D02*
G37*
G36*
X125850Y160750D02*
X120500D01*
Y147250D01*
X125850D01*
Y160750D01*
D02*
G37*
G36*
X486500Y254500D02*
X479500D01*
Y253000D01*
X486500D01*
Y254500D01*
D02*
G37*
G36*
X477500D02*
X470500D01*
Y253000D01*
X477500D01*
Y254500D01*
D02*
G37*
G36*
X56766Y373500D02*
X48500D01*
Y365234D01*
X48872Y365283D01*
X51547Y366391D01*
X53845Y368155D01*
X55609Y370452D01*
X56717Y373128D01*
X56766Y373500D01*
D02*
G37*
G36*
X188500D02*
X180234D01*
X180283Y373128D01*
X181392Y370452D01*
X183155Y368155D01*
X185452Y366391D01*
X188128Y365283D01*
X188500Y365234D01*
Y373500D01*
D02*
G37*
G36*
X96000Y387095D02*
X93128Y386717D01*
X90453Y385608D01*
X88155Y383845D01*
X86391Y381548D01*
X85283Y378872D01*
X84905Y376000D01*
X85283Y373128D01*
X86391Y370452D01*
X88155Y368155D01*
X90453Y366391D01*
X93128Y365283D01*
X96000Y364905D01*
X98872Y365283D01*
X101547Y366391D01*
X103845Y368155D01*
X105609Y370452D01*
X106717Y373128D01*
X107095Y376000D01*
X106717Y378872D01*
X105609Y381548D01*
X103845Y383845D01*
X101547Y385608D01*
X98872Y386717D01*
X96000Y387095D01*
D02*
G37*
G36*
X241000D02*
X238128Y386717D01*
X235452Y385608D01*
X233155Y383845D01*
X231392Y381548D01*
X230283Y378872D01*
X229905Y376000D01*
X230283Y373128D01*
X231392Y370452D01*
X233155Y368155D01*
X235452Y366391D01*
X238128Y365283D01*
X241000Y364905D01*
X243872Y365283D01*
X246548Y366391D01*
X248845Y368155D01*
X250609Y370452D01*
X251717Y373128D01*
X252095Y376000D01*
X251717Y378872D01*
X250609Y381548D01*
X248845Y383845D01*
X246548Y385608D01*
X243872Y386717D01*
X241000Y387095D01*
D02*
G37*
G36*
X212500Y465582D02*
X210020Y465256D01*
X207709Y464298D01*
X205725Y462775D01*
X204202Y460791D01*
X203245Y458480D01*
X202918Y456000D01*
X203245Y453520D01*
X204202Y451209D01*
X205725Y449225D01*
X206995Y448250D01*
X206989Y446250D01*
X206000D01*
Y437302D01*
X204981Y436841D01*
X204000Y437628D01*
Y439500D01*
X198750D01*
X193500D01*
Y434750D01*
X197031D01*
X197940Y432750D01*
X197847Y432610D01*
X197651Y431625D01*
Y429575D01*
X197847Y428590D01*
X198405Y427755D01*
X198619Y427611D01*
X198674Y427453D01*
Y425547D01*
X198619Y425389D01*
X198405Y425245D01*
X197847Y424410D01*
X197651Y423425D01*
Y423400D01*
X202000D01*
Y422400D01*
X203000D01*
Y418801D01*
X203775D01*
X203922Y418830D01*
X205682Y417704D01*
X205922Y417367D01*
Y401000D01*
X205922Y401000D01*
X206232Y399439D01*
X207116Y398116D01*
X212172Y393061D01*
Y386321D01*
X210452Y385608D01*
X208155Y383845D01*
X206392Y381548D01*
X205283Y378872D01*
X204905Y376000D01*
X205283Y373128D01*
X206392Y370452D01*
X208155Y368155D01*
X210452Y366391D01*
X213128Y365283D01*
X216000Y364905D01*
X218872Y365283D01*
X221548Y366391D01*
X223845Y368155D01*
X225609Y370452D01*
X226717Y373128D01*
X227095Y376000D01*
X226717Y378872D01*
X225609Y381548D01*
X223845Y383845D01*
X221548Y385608D01*
X220328Y386113D01*
Y394750D01*
X220328Y394750D01*
X220018Y396311D01*
X219134Y397634D01*
X219134Y397634D01*
X214078Y402689D01*
Y420277D01*
X214153Y420390D01*
X214349Y421375D01*
Y423425D01*
X214153Y424410D01*
X213595Y425245D01*
X213381Y425389D01*
X213326Y425547D01*
Y427453D01*
X213381Y427611D01*
X213595Y427755D01*
X214153Y428590D01*
X214349Y429575D01*
Y431625D01*
X214153Y432610D01*
X214060Y432750D01*
X214969Y434750D01*
X216500D01*
Y446250D01*
X217478Y447845D01*
X219275Y449225D01*
X220798Y451209D01*
X221376Y452605D01*
X223376Y452207D01*
X223376Y429500D01*
X223431Y429368D01*
X223750Y427500D01*
X223750Y426298D01*
X223726Y426240D01*
X223626Y426000D01*
Y405250D01*
X224102Y404102D01*
X225250Y403626D01*
X241750D01*
X242898Y404102D01*
X243374Y405250D01*
Y426000D01*
X242898Y427148D01*
X241750Y427624D01*
X236334D01*
X235506Y429624D01*
X235648Y429766D01*
X236124Y430914D01*
X236124Y436462D01*
X237538Y437876D01*
X255376Y437876D01*
X255376Y387000D01*
X255000D01*
Y365000D01*
X277000D01*
Y387000D01*
X276624D01*
Y391250D01*
X276624Y458250D01*
X276148Y459398D01*
X275000Y459874D01*
X225000Y459874D01*
X223852Y459398D01*
X223646Y458901D01*
X223320Y458828D01*
X221531Y459022D01*
X220798Y460791D01*
X219275Y462775D01*
X217291Y464298D01*
X214980Y465256D01*
X212500Y465582D01*
D02*
G37*
G36*
X493000Y250000D02*
X491500D01*
Y247500D01*
X493000D01*
Y250000D01*
D02*
G37*
G36*
X469000Y370500D02*
X465500D01*
Y365500D01*
X469000D01*
Y370500D01*
D02*
G37*
G36*
X463500D02*
X460000D01*
Y365500D01*
X463500D01*
Y370500D01*
D02*
G37*
G36*
X43500Y373500D02*
X35234D01*
X35283Y373128D01*
X36391Y370452D01*
X38155Y368155D01*
X40453Y366391D01*
X43128Y365283D01*
X43500Y365234D01*
Y373500D01*
D02*
G37*
G36*
X201766D02*
X193500D01*
Y365234D01*
X193872Y365283D01*
X196548Y366391D01*
X198845Y368155D01*
X200609Y370452D01*
X201717Y373128D01*
X201766Y373500D01*
D02*
G37*
G36*
X493000Y254500D02*
X491500D01*
Y252000D01*
X493000D01*
Y254500D01*
D02*
G37*
G36*
X169000Y119588D02*
X167244Y119239D01*
X165756Y118244D01*
X164761Y116756D01*
X164412Y115000D01*
X164761Y113244D01*
X164221Y111250D01*
X160950D01*
Y79250D01*
X176650D01*
Y111250D01*
X173779D01*
X173239Y113244D01*
X173588Y115000D01*
X173239Y116756D01*
X172244Y118244D01*
X170756Y119239D01*
X169000Y119588D01*
D02*
G37*
G36*
X427500Y768500D02*
X423000D01*
Y761000D01*
X427500D01*
Y768500D01*
D02*
G37*
G36*
X437000D02*
X432500D01*
Y761000D01*
X437000D01*
Y768500D01*
D02*
G37*
G36*
X465250Y760750D02*
X459500D01*
Y757500D01*
X465250D01*
Y760750D01*
D02*
G37*
G36*
X349000Y734100D02*
X344500D01*
Y731100D01*
X349000D01*
Y734100D01*
D02*
G37*
G36*
X574000Y743500D02*
X562750D01*
Y740000D01*
X574000D01*
Y743500D01*
D02*
G37*
G36*
X120900Y751000D02*
X118301D01*
Y750225D01*
X118497Y749240D01*
X119055Y748405D01*
X119890Y747847D01*
X120875Y747651D01*
X120900D01*
Y751000D01*
D02*
G37*
G36*
X443000Y763699D02*
X442225D01*
X441240Y763503D01*
X440405Y762945D01*
X439846Y762110D01*
X439650Y761125D01*
Y761100D01*
X443000D01*
Y763699D01*
D02*
G37*
G36*
X437000Y781000D02*
X432500D01*
Y773500D01*
X437000D01*
Y781000D01*
D02*
G37*
G36*
X505500Y823624D02*
X484500Y823623D01*
X483352Y823148D01*
X472352Y812148D01*
X472352Y812148D01*
X472039Y811394D01*
X471876Y811000D01*
X471877Y789000D01*
X472352Y787852D01*
X494852Y765352D01*
X496000Y764876D01*
X500376Y764876D01*
X500377Y760788D01*
X498962Y759373D01*
X495500Y759374D01*
X494352Y758898D01*
X493876Y757750D01*
Y757000D01*
X493500D01*
Y748000D01*
X493876D01*
X494352Y746852D01*
X495500Y746376D01*
X509876Y746376D01*
Y743500D01*
X510352Y742352D01*
X510750Y742187D01*
Y727813D01*
X510352Y727648D01*
X509876Y726500D01*
X508625Y724849D01*
X506575D01*
X504734Y726152D01*
X504624Y726345D01*
Y729000D01*
X506500D01*
Y738000D01*
X503399D01*
X503000Y738165D01*
X496650Y738165D01*
X496251Y738000D01*
X493500D01*
Y734386D01*
X491722Y733622D01*
X490374Y734729D01*
X490374Y747500D01*
X489898Y748648D01*
X488750Y749124D01*
X478000D01*
X476852Y748648D01*
X476376Y747500D01*
X469500D01*
Y742775D01*
X467500Y741797D01*
X466624Y742478D01*
Y752500D01*
X466148Y753648D01*
X465000Y754124D01*
X448750D01*
X447822Y755114D01*
X448170Y757288D01*
X448357Y757356D01*
X449430Y757500D01*
X449982Y757500D01*
X454500D01*
Y763250D01*
Y769000D01*
X448750D01*
Y764543D01*
X446760Y763503D01*
X445775Y763699D01*
X445000D01*
Y760100D01*
X444000D01*
Y759100D01*
X439650D01*
Y759075D01*
X439846Y758090D01*
X440405Y757255D01*
X440619Y757111D01*
X440674Y756953D01*
Y755047D01*
X440619Y754889D01*
X440405Y754745D01*
X439846Y753910D01*
X439650Y752925D01*
Y750875D01*
X439675Y750750D01*
X438534Y748980D01*
X438203Y748750D01*
X436450D01*
Y746000D01*
X434450D01*
Y748750D01*
X429950D01*
Y748000D01*
X427000D01*
Y738500D01*
Y729000D01*
X429950D01*
Y728250D01*
X434450D01*
Y731000D01*
X436450D01*
Y728250D01*
X437412D01*
X439357Y727936D01*
X439620Y727541D01*
X439802Y727102D01*
X439954Y727039D01*
X440045Y726902D01*
X441610Y725852D01*
X442076Y725758D01*
X442515Y725576D01*
X464541D01*
Y721500D01*
X459500D01*
Y715750D01*
Y710000D01*
X464541D01*
Y706000D01*
X463000D01*
Y700250D01*
X462000D01*
Y699250D01*
X453750D01*
Y698543D01*
X451760Y697504D01*
X450775Y697699D01*
X450000D01*
Y694100D01*
X449000D01*
Y693100D01*
X444650D01*
Y693075D01*
X443221Y691295D01*
X443130Y691250D01*
X436400D01*
Y690250D01*
X435250D01*
Y688750D01*
X436000D01*
Y667250D01*
X435250D01*
Y665750D01*
X436400D01*
Y664750D01*
X436626D01*
Y620000D01*
X437102Y618852D01*
X438250Y618376D01*
X452500D01*
X453648Y618852D01*
X454124Y620000D01*
Y662500D01*
X454375Y662876D01*
X492500D01*
X493648Y663352D01*
X494124Y664500D01*
Y676250D01*
X494109Y676285D01*
X494122Y676321D01*
X493873Y676854D01*
X493648Y677398D01*
X493613Y677413D01*
X493597Y677447D01*
X487786Y682773D01*
X487879Y684796D01*
X488000Y684876D01*
X494000D01*
X495148Y685352D01*
X495624Y686500D01*
X495624Y701302D01*
X497624Y702876D01*
X503000Y702876D01*
X504148Y703352D01*
X504624Y704500D01*
Y714655D01*
X504734Y714848D01*
X506571Y716147D01*
X506624Y716151D01*
X508625D01*
X509876Y714360D01*
X509876Y691032D01*
X509439Y690799D01*
X506013Y687987D01*
X503201Y684561D01*
X501112Y680652D01*
X499826Y676411D01*
X499391Y672000D01*
X499826Y667589D01*
X501112Y663348D01*
X503201Y659439D01*
X504063Y658389D01*
X496837Y651163D01*
X496174Y650171D01*
X495941Y649000D01*
X495941Y649000D01*
Y643283D01*
X494145Y642468D01*
X494088Y642451D01*
X493260Y643003D01*
X492275Y643199D01*
X491500D01*
Y639600D01*
X490500D01*
Y638600D01*
X486151D01*
Y638575D01*
X484365Y637300D01*
X476000D01*
Y631054D01*
X475764Y630896D01*
X474000Y631839D01*
Y637300D01*
X469750D01*
Y631550D01*
Y625800D01*
X470082D01*
X470847Y623952D01*
X464198Y617302D01*
X463645Y616475D01*
X463451Y615500D01*
Y603000D01*
X456500D01*
X456500Y603000D01*
X454500Y602889D01*
X453500Y603088D01*
X451744Y602739D01*
X450256Y601744D01*
X449261Y600256D01*
X448912Y598500D01*
X449261Y596744D01*
X450256Y595256D01*
X451744Y594261D01*
X453500Y593912D01*
X454500Y594111D01*
X456500Y594000D01*
X456500Y594000D01*
X456500Y594000D01*
X469000D01*
Y603000D01*
X468549D01*
Y614444D01*
X479905Y625800D01*
X485620D01*
X486232Y625116D01*
X486941Y623983D01*
X486801Y623275D01*
Y621505D01*
X474198Y608902D01*
X473645Y608075D01*
X473451Y607100D01*
Y588056D01*
X465722Y580327D01*
X463480Y581255D01*
X461000Y581582D01*
X458520Y581255D01*
X456209Y580298D01*
X454225Y578775D01*
X452702Y576791D01*
X451773Y574549D01*
X419506D01*
X405752Y588302D01*
X404925Y588855D01*
X403950Y589049D01*
X393709D01*
X393244Y589744D01*
X391756Y590739D01*
X390000Y591088D01*
X388244Y590739D01*
X386756Y589744D01*
X385761Y588256D01*
X385412Y586500D01*
X385761Y584744D01*
X386112Y584219D01*
X386590Y582749D01*
X386112Y581281D01*
X385760Y580755D01*
X385411Y578999D01*
X385760Y577243D01*
X386755Y575755D01*
X388243Y574760D01*
X389999Y574411D01*
X391755Y574760D01*
X393243Y575755D01*
X393708Y576450D01*
X396445D01*
X447198Y525698D01*
X448025Y525145D01*
X449000Y524951D01*
X451773D01*
X452702Y522709D01*
X454225Y520725D01*
X456209Y519202D01*
X458520Y518245D01*
X461000Y517918D01*
X463480Y518245D01*
X465791Y519202D01*
X467775Y520725D01*
X469298Y522709D01*
X470227Y524951D01*
X477954D01*
X477996Y524740D01*
X478555Y523905D01*
X479390Y523346D01*
X480375Y523150D01*
X482425D01*
X483410Y523346D01*
X484245Y523905D01*
X484389Y524119D01*
X484547Y524174D01*
X486453D01*
X486611Y524119D01*
X486755Y523905D01*
X487590Y523346D01*
X488575Y523150D01*
X490625D01*
X491610Y523346D01*
X492445Y523905D01*
X492804Y524441D01*
X499900D01*
X499900Y524441D01*
X501071Y524674D01*
X502063Y525337D01*
X508667Y531941D01*
X511961D01*
X512991Y529453D01*
X514755Y527155D01*
X517052Y525392D01*
X519728Y524283D01*
X522600Y523905D01*
X525472Y524283D01*
X528148Y525392D01*
X530445Y527155D01*
X532209Y529453D01*
X533317Y532128D01*
X533695Y535000D01*
X533317Y537872D01*
X532209Y540547D01*
X530445Y542845D01*
X528148Y544608D01*
X525472Y545717D01*
X522600Y546095D01*
X519728Y545717D01*
X517052Y544608D01*
X514755Y542845D01*
X512991Y540547D01*
X511961Y538059D01*
X507400D01*
X506229Y537826D01*
X505237Y537163D01*
X505237Y537163D01*
X498633Y530559D01*
X492804D01*
X492445Y531095D01*
X491610Y531654D01*
X490625Y531850D01*
X488575D01*
X487590Y531654D01*
X486755Y531095D01*
X486611Y530881D01*
X486453Y530826D01*
X484547D01*
X484389Y530881D01*
X484245Y531095D01*
X483410Y531654D01*
X482425Y531850D01*
X480375D01*
X479390Y531654D01*
X478555Y531095D01*
X477996Y530260D01*
X477954Y530049D01*
X470227D01*
X469298Y532291D01*
X467775Y534276D01*
X465791Y535798D01*
X463480Y536755D01*
X461000Y537082D01*
X458520Y536755D01*
X456209Y535798D01*
X454225Y534276D01*
X452702Y532291D01*
X451914Y530390D01*
X449925Y530179D01*
X399302Y580802D01*
X398475Y581355D01*
X397500Y581549D01*
X397494Y581548D01*
X395778D01*
X395086Y582749D01*
X395776Y583951D01*
X402894D01*
X416648Y570198D01*
X417475Y569645D01*
X418450Y569451D01*
X451773D01*
X452702Y567209D01*
X454225Y565224D01*
X456209Y563702D01*
X458520Y562744D01*
X461000Y562418D01*
X463480Y562744D01*
X465791Y563702D01*
X467775Y565224D01*
X469298Y567209D01*
X470255Y569520D01*
X470582Y572000D01*
X470255Y574480D01*
X469327Y576722D01*
X477000Y584395D01*
X479000Y583567D01*
Y580000D01*
X479000D01*
X479175Y578000D01*
X479100Y577625D01*
Y575575D01*
X479296Y574590D01*
X479855Y573755D01*
X480069Y573611D01*
X480124Y573453D01*
Y571547D01*
X480069Y571389D01*
X479855Y571245D01*
X479296Y570410D01*
X479100Y569425D01*
Y569400D01*
X483450D01*
X487799D01*
Y569425D01*
X487629Y570284D01*
X488341Y571215D01*
X489074Y571810D01*
X489875Y571651D01*
X491925D01*
X492910Y571847D01*
X493745Y572405D01*
X495515Y571454D01*
X496041Y570994D01*
Y570300D01*
X496041Y570300D01*
X496274Y569129D01*
X496500Y568791D01*
Y560500D01*
X512701D01*
X513000Y560376D01*
X517827Y560376D01*
X535876Y542327D01*
X535876Y496250D01*
X536352Y495102D01*
X537500Y494626D01*
X558750D01*
X559898Y495102D01*
X560374Y496250D01*
Y572070D01*
X561750Y573500D01*
X562374Y573500D01*
X573000D01*
Y582000D01*
Y590500D01*
X562374D01*
X561750Y590500D01*
X560374Y591930D01*
Y641250D01*
X559898Y642398D01*
X558750Y642874D01*
X537000D01*
X535852Y642398D01*
X535376Y641250D01*
Y633500D01*
X533376Y633419D01*
X533317Y633872D01*
X532209Y636547D01*
X530445Y638845D01*
X528148Y640608D01*
X525472Y641717D01*
X522600Y642095D01*
X519728Y641717D01*
X517052Y640608D01*
X514755Y638845D01*
X512991Y636547D01*
X511883Y633872D01*
X511505Y631000D01*
X511883Y628128D01*
X512699Y626159D01*
X511423Y624559D01*
X501804D01*
X501445Y625095D01*
X500610Y625653D01*
X499871Y625801D01*
X500068Y627800D01*
X500775D01*
X501760Y627996D01*
X502595Y628555D01*
X503153Y629390D01*
X503349Y630375D01*
Y632425D01*
X503153Y633410D01*
X502595Y634245D01*
X502381Y634389D01*
X502326Y634547D01*
Y636453D01*
X502381Y636611D01*
X502595Y636755D01*
X503153Y637590D01*
X503349Y638575D01*
Y640625D01*
X503153Y641610D01*
X502595Y642445D01*
X502059Y642804D01*
Y647733D01*
X508389Y654063D01*
X509439Y653201D01*
X513348Y651112D01*
X517589Y649826D01*
X522000Y649391D01*
X526411Y649826D01*
X530652Y651112D01*
X534561Y653201D01*
X537987Y656013D01*
X540799Y659439D01*
X542888Y663348D01*
X543647Y665851D01*
X544148Y666352D01*
X544623Y667500D01*
X544624Y726500D01*
X544148Y727648D01*
X543250Y728020D01*
Y741980D01*
X544148Y742352D01*
X544624Y743500D01*
X544624Y769000D01*
X544148Y770148D01*
X537677Y776619D01*
X538737Y778387D01*
X540589Y777826D01*
X545000Y777391D01*
X549411Y777826D01*
X553652Y779112D01*
X557561Y781201D01*
X560987Y784013D01*
X563799Y787439D01*
X565167Y790000D01*
X545000D01*
Y800000D01*
X535000D01*
Y820167D01*
X532439Y818799D01*
X529013Y815987D01*
X526201Y812561D01*
X524112Y808652D01*
X524080Y808545D01*
X521818Y807978D01*
X506648Y823148D01*
X505500Y823624D01*
D02*
G37*
G36*
X69000Y784000D02*
X55500D01*
Y778650D01*
X69000D01*
Y784000D01*
D02*
G37*
G36*
X427500Y781000D02*
X423000D01*
Y773500D01*
X427500D01*
Y781000D01*
D02*
G37*
G36*
X120900Y765850D02*
X120875D01*
X119890Y765654D01*
X119055Y765095D01*
X118497Y764260D01*
X118301Y763275D01*
Y762500D01*
X120900D01*
Y765850D01*
D02*
G37*
G36*
X465250Y769000D02*
X459500D01*
Y765750D01*
X465250D01*
Y769000D01*
D02*
G37*
G36*
X574000Y730000D02*
X562750D01*
Y726500D01*
X574000D01*
Y730000D01*
D02*
G37*
G36*
X90000Y108250D02*
X82750D01*
Y103500D01*
X90000D01*
Y108250D01*
D02*
G37*
G36*
X454500Y713250D02*
X448750D01*
Y710000D01*
X454500D01*
Y713250D01*
D02*
G37*
G36*
X125850Y111250D02*
X110150D01*
Y96078D01*
X99250D01*
Y98500D01*
X82750D01*
Y96228D01*
X73996D01*
X73756Y96389D01*
X72000Y96738D01*
X70244Y96389D01*
X68756Y95394D01*
X67761Y93906D01*
X67412Y92150D01*
X67761Y90394D01*
X68756Y88906D01*
X70244Y87911D01*
X72000Y87562D01*
X73756Y87911D01*
X73996Y88072D01*
X82750D01*
Y87000D01*
X99250D01*
Y87922D01*
X110150D01*
Y79250D01*
X125850D01*
Y111250D01*
D02*
G37*
G36*
X461000Y706000D02*
X453750D01*
Y701250D01*
X461000D01*
Y706000D01*
D02*
G37*
G36*
X292100Y698849D02*
X292075D01*
X291090Y698653D01*
X290255Y698095D01*
X290111Y697881D01*
X289953Y697826D01*
X288047D01*
X287889Y697881D01*
X287745Y698095D01*
X286910Y698653D01*
X285925Y698849D01*
X283875D01*
X282890Y698653D01*
X282055Y698095D01*
X281497Y697260D01*
X281301Y696275D01*
Y692725D01*
X281451Y691968D01*
Y690000D01*
X275000D01*
Y681250D01*
Y672500D01*
X288000D01*
Y681250D01*
X289000D01*
Y682250D01*
X292000D01*
Y688182D01*
X292069Y690005D01*
X293938Y690151D01*
X294125D01*
X295110Y690347D01*
X295945Y690905D01*
X296504Y691740D01*
X296700Y692725D01*
Y693500D01*
X293100D01*
Y694500D01*
X292100D01*
Y698849D01*
D02*
G37*
G36*
X424625Y704350D02*
X424600D01*
Y701000D01*
X427200D01*
Y701775D01*
X427004Y702760D01*
X426445Y703595D01*
X425610Y704154D01*
X424625Y704350D01*
D02*
G37*
G36*
X349000Y729100D02*
X344500D01*
Y726100D01*
X349000D01*
Y729100D01*
D02*
G37*
G36*
X116500Y728900D02*
X113151D01*
Y728875D01*
X113347Y727890D01*
X113905Y727055D01*
X114740Y726497D01*
X115725Y726301D01*
X116500D01*
Y728900D01*
D02*
G37*
G36*
X121849D02*
X118500D01*
Y726301D01*
X119275D01*
X120260Y726497D01*
X121095Y727055D01*
X121653Y727890D01*
X121849Y728875D01*
Y728900D01*
D02*
G37*
G36*
X194200Y119588D02*
X192444Y119239D01*
X190956Y118244D01*
X189961Y116756D01*
X189612Y115000D01*
X189961Y113244D01*
X189421Y111250D01*
X186350D01*
Y79250D01*
X202050D01*
Y111250D01*
X198979D01*
X198439Y113244D01*
X198788Y115000D01*
X198439Y116756D01*
X197444Y118244D01*
X195956Y119239D01*
X194200Y119588D01*
D02*
G37*
G36*
X454500Y721500D02*
X448750D01*
Y718250D01*
X454500D01*
Y721500D01*
D02*
G37*
G36*
X252500Y878766D02*
X252128Y878717D01*
X249452Y877608D01*
X247155Y875845D01*
X245392Y873547D01*
X244283Y870872D01*
X244234Y870500D01*
X252500D01*
Y878766D01*
D02*
G37*
G36*
X257500D02*
Y870500D01*
X265766D01*
X265717Y870872D01*
X264608Y873547D01*
X262845Y875845D01*
X260548Y877608D01*
X257872Y878717D01*
X257500Y878766D01*
D02*
G37*
G36*
X182500Y898500D02*
X176500D01*
Y884750D01*
X182500D01*
Y898500D01*
D02*
G37*
G36*
X265766Y865500D02*
X257500D01*
Y857234D01*
X257872Y857283D01*
X260548Y858391D01*
X262845Y860155D01*
X264608Y862453D01*
X265717Y865128D01*
X265766Y865500D01*
D02*
G37*
G36*
X494250Y939094D02*
X399250D01*
X393494Y938717D01*
X387837Y937592D01*
X382376Y935738D01*
X377203Y933187D01*
X372407Y929982D01*
X368070Y926179D01*
X364268Y921843D01*
X361063Y917047D01*
X358512Y911874D01*
X356658Y906413D01*
X355533Y900755D01*
X355156Y895000D01*
X355533Y889245D01*
X356658Y883587D01*
X358512Y878126D01*
X361063Y872953D01*
X364268Y868157D01*
X368070Y863820D01*
X372407Y860018D01*
X377203Y856813D01*
X382376Y854262D01*
X387837Y852408D01*
X393494Y851283D01*
X399250Y850906D01*
X494250D01*
X500005Y851283D01*
X505662Y852408D01*
X511124Y854262D01*
X516297Y856813D01*
X521093Y860018D01*
X525429Y863820D01*
X529232Y868157D01*
X532437Y872953D01*
X534988Y878126D01*
X536842Y883587D01*
X537967Y889245D01*
X538344Y895000D01*
X537967Y900755D01*
X536842Y906413D01*
X534988Y911874D01*
X532437Y917047D01*
X529232Y921843D01*
X525429Y926179D01*
X521093Y929982D01*
X516297Y933187D01*
X511124Y935738D01*
X505662Y937592D01*
X500005Y938717D01*
X494250Y939094D01*
D02*
G37*
G36*
X125000Y879095D02*
X122128Y878717D01*
X119452Y877608D01*
X117155Y875845D01*
X115392Y873547D01*
X114283Y870872D01*
X113905Y868000D01*
X114283Y865128D01*
X115392Y862453D01*
X117155Y860155D01*
X119452Y858391D01*
X122128Y857283D01*
X125000Y856905D01*
X127872Y857283D01*
X130548Y858391D01*
X132845Y860155D01*
X134608Y862453D01*
X135717Y865128D01*
X136095Y868000D01*
X135717Y870872D01*
X134608Y873547D01*
X132845Y875845D01*
X130548Y877608D01*
X127872Y878717D01*
X125000Y879095D01*
D02*
G37*
G36*
X252500Y865500D02*
X244234D01*
X244283Y865128D01*
X245392Y862453D01*
X247155Y860155D01*
X249452Y858391D01*
X252128Y857283D01*
X252500Y857234D01*
Y865500D01*
D02*
G37*
G36*
X193500Y898500D02*
X187500D01*
Y884750D01*
X193500D01*
Y898500D01*
D02*
G37*
G36*
X321250Y936250D02*
X309750D01*
Y919750D01*
X312072D01*
Y904000D01*
X305000D01*
Y882000D01*
X322674D01*
X334287Y870387D01*
X334287Y870387D01*
X335280Y869724D01*
X336450Y869491D01*
X336450Y869491D01*
X345968D01*
X346688Y867672D01*
X346683Y867573D01*
X346619Y867389D01*
X346405Y867245D01*
X345846Y866410D01*
X345650Y865425D01*
Y863375D01*
X345846Y862390D01*
X346405Y861555D01*
X346941Y861196D01*
Y858500D01*
X344500D01*
Y850500D01*
X355500D01*
Y858500D01*
X353059D01*
Y861196D01*
X353595Y861555D01*
X354154Y862390D01*
X354350Y863375D01*
Y865425D01*
X354154Y866410D01*
X353595Y867245D01*
X353381Y867389D01*
X353326Y867547D01*
Y869453D01*
X353381Y869611D01*
X353595Y869755D01*
X354154Y870590D01*
X354350Y871575D01*
Y873625D01*
X354154Y874610D01*
X353595Y875445D01*
X352760Y876003D01*
X351775Y876199D01*
X348225D01*
X347240Y876003D01*
X346649Y875609D01*
X337717D01*
X327000Y886326D01*
Y904000D01*
X320228D01*
Y919750D01*
X321250D01*
Y923922D01*
X328004D01*
X328244Y923761D01*
X330000Y923412D01*
X331756Y923761D01*
X333244Y924756D01*
X334239Y926244D01*
X334588Y928000D01*
X334239Y929756D01*
X333244Y931244D01*
X331756Y932239D01*
X330000Y932588D01*
X328244Y932239D01*
X328004Y932078D01*
X321250D01*
Y936250D01*
D02*
G37*
G36*
X298000D02*
X293250D01*
Y929000D01*
X298000D01*
Y936250D01*
D02*
G37*
G36*
X304750D02*
X300000D01*
Y929000D01*
X304750D01*
Y936250D01*
D02*
G37*
G36*
Y927000D02*
X300000D01*
Y919750D01*
X304750D01*
Y927000D01*
D02*
G37*
G36*
X182500Y917250D02*
X176500D01*
Y903500D01*
X182500D01*
Y917250D01*
D02*
G37*
G36*
X193500D02*
X187500D01*
Y903500D01*
X193500D01*
Y917250D01*
D02*
G37*
G36*
X298000Y927000D02*
X293250D01*
Y919750D01*
X298000D01*
Y927000D01*
D02*
G37*
G36*
X36750Y65090D02*
X32199Y64731D01*
X27761Y63666D01*
X23544Y61919D01*
X19651Y59534D01*
X16180Y56569D01*
X13216Y53098D01*
X10831Y49206D01*
X9084Y44989D01*
X8019Y40551D01*
X7660Y36000D01*
X8019Y31449D01*
X9084Y27011D01*
X10831Y22794D01*
X13216Y18901D01*
X16180Y15431D01*
X19651Y12466D01*
X23544Y10081D01*
X27761Y8334D01*
X32199Y7268D01*
X36750Y6910D01*
X41301Y7268D01*
X45739Y8334D01*
X49956Y10081D01*
X53849Y12466D01*
X57319Y15431D01*
X60284Y18901D01*
X62669Y22794D01*
X64416Y27011D01*
X65482Y31449D01*
X65840Y36000D01*
X65482Y40551D01*
X64416Y44989D01*
X62669Y49206D01*
X60284Y53098D01*
X57319Y56569D01*
X53849Y59534D01*
X49956Y61919D01*
X45739Y63666D01*
X41301Y64731D01*
X36750Y65090D01*
D02*
G37*
G36*
X125000Y854095D02*
X122128Y853717D01*
X119452Y852608D01*
X117155Y850845D01*
X115392Y848547D01*
X114283Y845872D01*
X113905Y843000D01*
X114283Y840128D01*
X115392Y837453D01*
X117155Y835155D01*
X119452Y833391D01*
X122128Y832283D01*
X125000Y831905D01*
X127872Y832283D01*
X130360Y833314D01*
X140337Y823337D01*
X140337Y823337D01*
X141329Y822674D01*
X142500Y822441D01*
X154591D01*
X155169Y820535D01*
X155119Y820389D01*
X154905Y820245D01*
X154347Y819410D01*
X154150Y818425D01*
Y816375D01*
X154347Y815390D01*
X154905Y814555D01*
X155740Y813997D01*
X155951Y813954D01*
Y810546D01*
X155740Y810503D01*
X154905Y809945D01*
X154347Y809110D01*
X154150Y808125D01*
Y806075D01*
X154347Y805090D01*
X154905Y804255D01*
X155119Y804111D01*
X155174Y803953D01*
Y802047D01*
X155119Y801889D01*
X154905Y801745D01*
X154347Y800910D01*
X154150Y799925D01*
Y799900D01*
X158500D01*
Y798900D01*
X159500D01*
Y795301D01*
X160275D01*
X160750Y795395D01*
X162273Y794538D01*
X162750Y794087D01*
Y789500D01*
X167500D01*
Y794750D01*
Y800000D01*
X164940D01*
X166131Y802000D01*
X171446D01*
X171916Y801000D01*
X171084Y800000D01*
X169500D01*
Y794750D01*
Y789500D01*
X174250D01*
Y791816D01*
X176250Y792495D01*
X177225Y791225D01*
X179209Y789702D01*
X181520Y788745D01*
X184000Y788418D01*
X186480Y788745D01*
X188791Y789702D01*
X190775Y791225D01*
X192298Y793209D01*
X193255Y795520D01*
X193582Y798000D01*
X193255Y800480D01*
X192298Y802791D01*
X191082Y804376D01*
X191505Y805749D01*
X191974Y806376D01*
X207500Y806376D01*
X208648Y806852D01*
X209123Y808000D01*
X209124Y819500D01*
X208648Y820648D01*
X207500Y821124D01*
X186000Y821124D01*
X184852Y820648D01*
X184376Y819500D01*
X184376Y809550D01*
X184060Y807895D01*
X182529Y807388D01*
X181520Y807255D01*
X179788Y806538D01*
X178163Y808163D01*
X177171Y808826D01*
X176000Y809059D01*
X174250Y809733D01*
Y812500D01*
X162750D01*
Y812500D01*
X162671Y812534D01*
X162436Y813359D01*
X162301Y814863D01*
X162654Y815390D01*
X162850Y816375D01*
Y818425D01*
X162654Y819410D01*
X162095Y820245D01*
X161881Y820389D01*
X161826Y820547D01*
Y822453D01*
X161881Y822611D01*
X162095Y822755D01*
X162654Y823590D01*
X162850Y824575D01*
Y826625D01*
X162654Y827610D01*
X162095Y828445D01*
X161260Y829004D01*
X160275Y829200D01*
X156725D01*
X155740Y829004D01*
X155074Y828559D01*
X143767D01*
X134686Y837640D01*
X135717Y840128D01*
X136095Y843000D01*
X135717Y845872D01*
X134608Y848547D01*
X132845Y850845D01*
X130548Y852608D01*
X127872Y853717D01*
X125000Y854095D01*
D02*
G37*
G36*
X326766Y815500D02*
X318500D01*
Y807234D01*
X318872Y807283D01*
X321548Y808391D01*
X323845Y810155D01*
X325608Y812452D01*
X326717Y815128D01*
X326766Y815500D01*
D02*
G37*
G36*
X135766Y815500D02*
X127500D01*
Y807234D01*
X127872Y807283D01*
X130548Y808391D01*
X132845Y810155D01*
X134608Y812453D01*
X135717Y815128D01*
X135766Y815500D01*
D02*
G37*
G36*
X157500Y797900D02*
X154150D01*
Y797875D01*
X154347Y796890D01*
X154905Y796055D01*
X155740Y795497D01*
X156725Y795301D01*
X157500D01*
Y797900D01*
D02*
G37*
G36*
X87500Y784000D02*
X74000D01*
Y778650D01*
X87500D01*
Y784000D01*
D02*
G37*
G36*
Y819750D02*
X55500D01*
Y805768D01*
X48152Y798419D01*
X47244Y798239D01*
X45756Y797244D01*
X44761Y795756D01*
X44412Y794000D01*
X44761Y792244D01*
X45756Y790756D01*
X47244Y789761D01*
X49000Y789412D01*
X50756Y789761D01*
X52244Y790756D01*
X52689Y791422D01*
X53652Y792384D01*
X55500Y791619D01*
Y789000D01*
X69000D01*
Y794350D01*
X58231D01*
X57465Y796198D01*
X65189Y803922D01*
X68000D01*
X68645Y804050D01*
X87500D01*
Y819750D01*
D02*
G37*
G36*
Y794350D02*
X74000D01*
Y789000D01*
X87500D01*
Y794350D01*
D02*
G37*
G36*
X122500Y815500D02*
X114234D01*
X114283Y815128D01*
X115392Y812453D01*
X117155Y810155D01*
X119452Y808391D01*
X122128Y807283D01*
X122500Y807234D01*
Y815500D01*
D02*
G37*
G36*
X136000Y904000D02*
X114000D01*
Y882000D01*
X136000D01*
Y882376D01*
X147626Y882376D01*
X147626Y846250D01*
X148102Y845102D01*
X149250Y844626D01*
X174626D01*
Y825000D01*
X175102Y823852D01*
X176250Y823376D01*
X208750D01*
X209898Y823852D01*
X210374Y825000D01*
Y842250D01*
X209898Y843398D01*
X208750Y843874D01*
X195374D01*
X195374Y869086D01*
X194898Y870234D01*
X193484Y871648D01*
X192336Y872124D01*
X171624Y872124D01*
Y902000D01*
X171148Y903148D01*
X170000Y903624D01*
X136000D01*
Y904000D01*
D02*
G37*
G36*
X276750Y65090D02*
X272199Y64731D01*
X267761Y63666D01*
X263544Y61919D01*
X259652Y59534D01*
X256180Y56569D01*
X253216Y53098D01*
X250831Y49206D01*
X249084Y44989D01*
X248018Y40551D01*
X247660Y36000D01*
X248018Y31449D01*
X249084Y27011D01*
X250831Y22794D01*
X253216Y18901D01*
X256180Y15431D01*
X259652Y12466D01*
X263544Y10081D01*
X267761Y8334D01*
X272199Y7268D01*
X276750Y6910D01*
X281301Y7268D01*
X285739Y8334D01*
X289956Y10081D01*
X293848Y12466D01*
X297320Y15431D01*
X300284Y18901D01*
X302669Y22794D01*
X304416Y27011D01*
X305481Y31449D01*
X305840Y36000D01*
X305481Y40551D01*
X304416Y44989D01*
X302669Y49206D01*
X300284Y53098D01*
X297320Y56569D01*
X293848Y59534D01*
X289956Y61919D01*
X285739Y63666D01*
X281301Y64731D01*
X276750Y65090D01*
D02*
G37*
G36*
X44000Y845174D02*
X42852Y844698D01*
X42376Y843550D01*
Y831050D01*
X42852Y829902D01*
X44000Y829426D01*
X46927D01*
X47000Y829412D01*
X47073Y829426D01*
X52427D01*
X52500Y829412D01*
X52573Y829426D01*
X85510Y829426D01*
X87000Y829426D01*
X87500Y829450D01*
Y829633D01*
X88148Y829902D01*
X88624Y831050D01*
Y843550D01*
X88148Y844698D01*
X87500Y844967D01*
Y845150D01*
X87057D01*
X87000Y845174D01*
X44000Y845174D01*
D02*
G37*
G36*
X127500Y828766D02*
Y820500D01*
X135766D01*
X135717Y820872D01*
X134608Y823547D01*
X132845Y825845D01*
X130548Y827608D01*
X127872Y828717D01*
X127500Y828766D01*
D02*
G37*
G36*
X143500Y119588D02*
X141744Y119239D01*
X140256Y118244D01*
X139261Y116756D01*
X138912Y115000D01*
X139261Y113244D01*
X138721Y111250D01*
X135550D01*
Y79250D01*
X151250D01*
Y111250D01*
X148279D01*
X147739Y113244D01*
X148088Y115000D01*
X147739Y116756D01*
X146744Y118244D01*
X145256Y119239D01*
X143500Y119588D01*
D02*
G37*
G36*
X555000Y820167D02*
Y810000D01*
X565167D01*
X563799Y812561D01*
X560987Y815987D01*
X557561Y818799D01*
X555000Y820167D01*
D02*
G37*
G36*
X122500Y828766D02*
X122128Y828717D01*
X119452Y827608D01*
X117155Y825845D01*
X115392Y823547D01*
X114283Y820872D01*
X114234Y820500D01*
X122500D01*
Y828766D01*
D02*
G37*
G36*
X349000Y632500D02*
X344500D01*
Y629500D01*
X349000D01*
Y632500D01*
D02*
G37*
G36*
X355500D02*
X351000D01*
Y629500D01*
X355500D01*
Y632500D01*
D02*
G37*
G36*
X467750Y637300D02*
X463500D01*
Y632550D01*
X467750D01*
Y637300D01*
D02*
G37*
G36*
Y630550D02*
X463500D01*
Y625800D01*
X467750D01*
Y630550D01*
D02*
G37*
G36*
X584400Y626000D02*
X578400D01*
Y620000D01*
X584400D01*
Y626000D01*
D02*
G37*
G36*
X349000Y627500D02*
X344500D01*
Y624500D01*
X349000D01*
Y627500D01*
D02*
G37*
G36*
X355500D02*
X351000D01*
Y624500D01*
X355500D01*
Y627500D01*
D02*
G37*
G36*
X568400Y642000D02*
X562400D01*
Y636000D01*
X568400D01*
Y642000D01*
D02*
G37*
G36*
X489500Y643199D02*
X488725D01*
X487740Y643003D01*
X486905Y642445D01*
X486347Y641610D01*
X486151Y640625D01*
Y640600D01*
X489500D01*
Y643199D01*
D02*
G37*
G36*
X398500Y648500D02*
X392750D01*
Y645250D01*
X398500D01*
Y648500D01*
D02*
G37*
G36*
X379500D02*
X373750D01*
Y645250D01*
X379500D01*
Y648500D01*
D02*
G37*
G36*
X398500Y640250D02*
X392750D01*
Y637000D01*
X398500D01*
Y640250D01*
D02*
G37*
G36*
X584400Y642000D02*
X578400D01*
Y636000D01*
X584400D01*
Y642000D01*
D02*
G37*
G36*
X379500Y640250D02*
X373750D01*
Y637000D01*
X379500D01*
Y640250D01*
D02*
G37*
G36*
X390250D02*
X384500D01*
Y637000D01*
X390250D01*
Y640250D01*
D02*
G37*
G36*
X568400Y626000D02*
X562400D01*
Y620000D01*
X568400D01*
Y626000D01*
D02*
G37*
G36*
X336000Y605250D02*
X328750D01*
Y603821D01*
X326750Y603214D01*
X326595Y603445D01*
X325760Y604003D01*
X324775Y604199D01*
X324000D01*
Y600600D01*
X323000D01*
Y599600D01*
X318650D01*
Y599575D01*
X318740Y599124D01*
X317861Y597577D01*
X317421Y597124D01*
X315000D01*
Y598000D01*
X306250D01*
X297500D01*
Y595798D01*
X297376Y595500D01*
Y592500D01*
X297500Y592202D01*
Y581000D01*
Y571000D01*
Y561000D01*
Y551000D01*
Y541000D01*
X315000D01*
Y541000D01*
X317000Y541138D01*
X317256Y540756D01*
X318744Y539761D01*
X320500Y539412D01*
X322256Y539761D01*
X323744Y540756D01*
X324739Y542244D01*
X325088Y544000D01*
X324739Y545756D01*
X323744Y547244D01*
X322256Y548239D01*
X320500Y548588D01*
X318744Y548239D01*
X317256Y547244D01*
X317000Y546862D01*
X315000Y547016D01*
Y556000D01*
Y566000D01*
Y576000D01*
Y588376D01*
X317000Y589204D01*
X318852Y587352D01*
X320000Y586876D01*
X323327D01*
X327852Y582352D01*
X329000Y581876D01*
X337273D01*
X338342Y579876D01*
X338261Y579756D01*
X337912Y578000D01*
X338261Y576244D01*
X339256Y574756D01*
X340744Y573761D01*
X342500Y573412D01*
X344256Y573761D01*
X344496Y573922D01*
X347050D01*
X347050Y573922D01*
X348611Y574232D01*
X349934Y575116D01*
X354578Y579760D01*
X354760Y579796D01*
X355595Y580355D01*
X356153Y581190D01*
X356349Y582175D01*
Y584225D01*
X356153Y585210D01*
X356648Y587352D01*
X356648D01*
X356648Y587352D01*
X357124Y588500D01*
X357124Y589155D01*
Y595500D01*
X356648Y596648D01*
X355500Y597124D01*
X329370D01*
X328139Y598941D01*
X328726Y600324D01*
X329049Y600500D01*
X329350Y600500D01*
X336000D01*
Y605250D01*
D02*
G37*
G36*
X436250Y607000D02*
X431000D01*
Y603500D01*
X436250D01*
Y607000D01*
D02*
G37*
G36*
X443500D02*
X438250D01*
Y603500D01*
X443500D01*
Y607000D01*
D02*
G37*
G36*
X322000Y604199D02*
X321225D01*
X320240Y604003D01*
X319405Y603445D01*
X318846Y602610D01*
X318650Y601625D01*
Y601600D01*
X322000D01*
Y604199D01*
D02*
G37*
G36*
X221850Y123500D02*
X214600D01*
Y118750D01*
X221850D01*
Y123500D01*
D02*
G37*
G36*
X231100Y116750D02*
X223850D01*
Y112000D01*
X231100D01*
Y116750D01*
D02*
G37*
G36*
X345250Y605250D02*
X338000D01*
Y600500D01*
X345250D01*
Y605250D01*
D02*
G37*
G36*
X107500Y611750D02*
X100250D01*
Y607000D01*
X107500D01*
Y611750D01*
D02*
G37*
G36*
X134275Y611699D02*
X133500D01*
Y609100D01*
X136849D01*
Y609125D01*
X136653Y610110D01*
X136095Y610945D01*
X135260Y611503D01*
X134275Y611699D01*
D02*
G37*
G36*
X221850Y116750D02*
X214600D01*
Y112000D01*
X221850D01*
Y116750D01*
D02*
G37*
G36*
X99250Y115000D02*
X92000D01*
Y110250D01*
X99250D01*
Y115000D01*
D02*
G37*
G36*
X443500Y612500D02*
X438250D01*
Y609000D01*
X443500D01*
Y612500D01*
D02*
G37*
G36*
X336000Y612000D02*
X328750D01*
Y607250D01*
X336000D01*
Y612000D01*
D02*
G37*
G36*
X345250D02*
X338000D01*
Y607250D01*
X345250D01*
Y612000D01*
D02*
G37*
G36*
X436250Y612500D02*
X431000D01*
Y609000D01*
X436250D01*
Y612500D01*
D02*
G37*
G36*
X390250Y648500D02*
X384500D01*
Y645250D01*
X390250D01*
Y648500D01*
D02*
G37*
G36*
X327250Y695250D02*
X322500D01*
Y688000D01*
X327250D01*
Y695250D01*
D02*
G37*
G36*
X292000Y680250D02*
X290000D01*
Y672500D01*
X292000D01*
Y680250D01*
D02*
G37*
G36*
X562000Y692167D02*
X559439Y690799D01*
X556013Y687987D01*
X553201Y684561D01*
X551833Y682000D01*
X562000D01*
Y692167D01*
D02*
G37*
G36*
X99250Y108250D02*
X92000D01*
Y103500D01*
X99250D01*
Y108250D01*
D02*
G37*
G36*
X334000Y695250D02*
X329250D01*
Y688000D01*
X334000D01*
Y695250D01*
D02*
G37*
G36*
X427200Y699000D02*
X424600D01*
Y695650D01*
X424625D01*
X425610Y695846D01*
X426445Y696405D01*
X427004Y697240D01*
X427200Y698225D01*
Y699000D01*
D02*
G37*
G36*
X294125Y698849D02*
X294100D01*
Y695500D01*
X296700D01*
Y696275D01*
X296504Y697260D01*
X295945Y698095D01*
X295110Y698653D01*
X294125Y698849D01*
D02*
G37*
G36*
X424750Y690250D02*
X423250D01*
Y688750D01*
X424750D01*
Y690250D01*
D02*
G37*
G36*
X432750D02*
X431250D01*
Y688750D01*
X432750D01*
Y690250D01*
D02*
G37*
G36*
X448000Y697699D02*
X447225D01*
X446240Y697504D01*
X445405Y696945D01*
X444846Y696110D01*
X444650Y695125D01*
Y695100D01*
X448000D01*
Y697699D01*
D02*
G37*
G36*
X432750Y667250D02*
X431250D01*
Y665750D01*
X432750D01*
Y667250D01*
D02*
G37*
G36*
X562000Y662000D02*
X551833D01*
X553201Y659439D01*
X556013Y656013D01*
X559439Y653201D01*
X562000Y651833D01*
Y662000D01*
D02*
G37*
G36*
X482500Y659000D02*
X476750D01*
Y655750D01*
X482500D01*
Y659000D01*
D02*
G37*
G36*
X463500D02*
X457750D01*
Y655750D01*
X463500D01*
Y659000D01*
D02*
G37*
G36*
X493250Y650750D02*
X487500D01*
Y647500D01*
X493250D01*
Y650750D01*
D02*
G37*
G36*
X463500D02*
X457750D01*
Y647500D01*
X463500D01*
Y650750D01*
D02*
G37*
G36*
X474250D02*
X468500D01*
Y647500D01*
X474250D01*
Y650750D01*
D02*
G37*
G36*
X482500D02*
X476750D01*
Y647500D01*
X482500D01*
Y650750D01*
D02*
G37*
G36*
X90000Y115000D02*
X82750D01*
Y110250D01*
X90000D01*
Y115000D01*
D02*
G37*
G36*
X424750Y667250D02*
X423250D01*
Y665750D01*
X424750D01*
Y667250D01*
D02*
G37*
G36*
X493250Y659000D02*
X487500D01*
Y655750D01*
X493250D01*
Y659000D01*
D02*
G37*
G36*
X474250D02*
X468500D01*
Y655750D01*
X474250D01*
Y659000D01*
D02*
G37*
G36*
X330699Y663000D02*
X328100D01*
Y659650D01*
X328125D01*
X329110Y659846D01*
X329945Y660405D01*
X330504Y661240D01*
X330699Y662225D01*
Y663000D01*
D02*
G37*
%LPD*%
G36*
X113000Y406250D02*
X96250D01*
Y426000D01*
X113000D01*
Y406250D01*
D02*
G37*
G36*
X137500Y366250D02*
X111250D01*
Y391250D01*
X117750D01*
X118035Y439500D01*
X111500Y439500D01*
Y430500D01*
X102500Y430500D01*
Y458250D01*
X137500D01*
Y366250D01*
D02*
G37*
G36*
X190500Y500000D02*
X191661D01*
X192604Y498236D01*
X192446Y498000D01*
X184018D01*
X182440Y499629D01*
X182494Y500000D01*
X182933D01*
X188500D01*
Y507500D01*
X190500D01*
Y500000D01*
D02*
G37*
G36*
X235550Y536500D02*
X235550Y513450D01*
X237550Y511450D01*
X237550Y479500D01*
X231050D01*
X231050Y496808D01*
X231088Y497000D01*
X231050Y497192D01*
X231050Y516550D01*
X232550Y518050D01*
X232550Y534435D01*
X232550Y534950D01*
X232000Y535500D01*
X232000Y535500D01*
X231500Y536000D01*
X230207Y536000D01*
X226500Y536000D01*
X225500Y535000D01*
X225500Y525000D01*
X224167Y524609D01*
X222500Y525981D01*
X222500Y537000D01*
X225000Y539500D01*
X232550D01*
X235550Y536500D01*
D02*
G37*
G36*
X227000Y500300D02*
X227775D01*
X229426Y498719D01*
Y497192D01*
X229460Y497110D01*
X229482Y497000D01*
X229460Y496890D01*
X229426Y496808D01*
Y495510D01*
X229072Y494953D01*
X227426Y493699D01*
X225627D01*
X223549Y495778D01*
Y498396D01*
X223804Y499114D01*
X225000Y500118D01*
Y503900D01*
X227000D01*
Y500300D01*
D02*
G37*
G36*
X241750Y405250D02*
X225250D01*
Y426000D01*
X241750D01*
Y405250D01*
D02*
G37*
G36*
X275000Y391250D02*
Y367000D01*
X257000D01*
X257000Y439500D01*
X234500Y439500D01*
X234500Y430914D01*
X233086Y429500D01*
X225000Y429500D01*
X225000Y458250D01*
X275000Y458250D01*
X275000Y391250D01*
D02*
G37*
G36*
X535376Y628450D02*
X535376Y615173D01*
X513852Y593648D01*
X513728Y593350D01*
X513500Y593121D01*
Y592798D01*
X513376Y592500D01*
X513046Y591661D01*
X512071Y590500D01*
X509750D01*
Y573500D01*
X508543Y572000D01*
X504081D01*
X503722Y572281D01*
X502655Y574000D01*
X502700Y574225D01*
Y577775D01*
X502655Y578000D01*
X503722Y579719D01*
X504081Y580000D01*
X507000D01*
Y585000D01*
X502500D01*
X498000D01*
Y580335D01*
X497090Y580154D01*
X496255Y579595D01*
X496111Y579381D01*
X495953Y579326D01*
X494047D01*
X493889Y579381D01*
X493745Y579595D01*
X492910Y580154D01*
X491925Y580350D01*
X489875D01*
X488069Y581729D01*
X488000Y581861D01*
Y592000D01*
X479000Y592000D01*
X478549Y593813D01*
Y606044D01*
X486500Y613995D01*
X488500Y613167D01*
Y603000D01*
X497500D01*
Y603521D01*
X498895Y604513D01*
X499500Y604710D01*
X501000Y604412D01*
X502756Y604761D01*
X504244Y605756D01*
X505239Y607244D01*
X505588Y609000D01*
X505239Y610756D01*
X504244Y612244D01*
X502756Y613239D01*
X501000Y613588D01*
X499500Y613290D01*
X498895Y613487D01*
X497500Y614479D01*
Y615000D01*
X492493D01*
X491338Y617000D01*
X491374Y617062D01*
X491593Y617184D01*
X492410Y617346D01*
X493245Y617905D01*
X493389Y618119D01*
X493547Y618174D01*
X495453D01*
X495611Y618119D01*
X495755Y617905D01*
X496590Y617346D01*
X497575Y617150D01*
X499625D01*
X500610Y617346D01*
X501445Y617905D01*
X501804Y618441D01*
X513000D01*
X513000Y618441D01*
X514170Y618674D01*
X515163Y619337D01*
X517169Y621343D01*
X519728Y620283D01*
X522600Y619905D01*
X525472Y620283D01*
X528148Y621391D01*
X530445Y623155D01*
X532209Y625452D01*
X533317Y628128D01*
X533376Y628581D01*
X535376Y628450D01*
D02*
G37*
G36*
X444250Y669607D02*
Y662500D01*
X452500D01*
Y620000D01*
X438250D01*
Y669626D01*
X444242D01*
X444250Y669607D01*
D02*
G37*
G36*
X522000Y805500D02*
Y790000D01*
X543000Y769000D01*
X543000Y743500D01*
X532000D01*
Y735000D01*
Y726500D01*
X543000D01*
X543000Y667500D01*
X529500Y654000D01*
X513000Y654000D01*
X510663Y656337D01*
X524163Y669837D01*
X524826Y670829D01*
X525059Y672000D01*
X524826Y673170D01*
X524163Y674163D01*
X523171Y674826D01*
X522000Y675059D01*
X520829Y674826D01*
X519837Y674163D01*
X507337Y661663D01*
X505337Y661663D01*
X503500Y663500D01*
X503500Y681000D01*
X511500Y689000D01*
X511500Y717500D01*
X511500Y717500D01*
X511500D01*
X511199Y719376D01*
Y719500D01*
X507600D01*
Y721500D01*
X511199D01*
Y721625D01*
X511500Y723500D01*
X511500D01*
X511500Y723500D01*
Y726500D01*
X522000D01*
Y735000D01*
Y743500D01*
X511500D01*
Y748000D01*
X495500Y748000D01*
Y757750D01*
X502000Y757750D01*
X502000Y766500D01*
X496000Y766500D01*
X473500Y789000D01*
X473500Y811000D01*
X484500Y822000D01*
X505500Y822000D01*
X522000Y805500D01*
D02*
G37*
G36*
X485000Y710500D02*
X473000D01*
Y714500D01*
X485000D01*
Y710500D01*
D02*
G37*
G36*
X488750Y734000D02*
X493500Y729250D01*
Y729000D01*
X493750D01*
X495250Y727500D01*
X495250Y716750D01*
X489914Y716750D01*
X488500Y718164D01*
X488500Y721650D01*
X487400Y722750D01*
X486250Y722750D01*
X478000Y731000D01*
Y747500D01*
X488750D01*
X488750Y734000D01*
D02*
G37*
G36*
X503000Y736542D02*
X503000Y704500D01*
X496650Y704500D01*
Y716210D01*
X496677Y716274D01*
X496874Y716750D01*
X496874Y727500D01*
Y727500D01*
D01*
X496677Y727976D01*
X496650Y728040D01*
Y736542D01*
X503000Y736542D01*
D02*
G37*
G36*
X465000Y741250D02*
X486000Y720250D01*
Y716792D01*
X485000Y716124D01*
X473000D01*
X471852Y715648D01*
X471376Y714500D01*
Y710500D01*
X471852Y709352D01*
X473000Y708876D01*
X484000D01*
X486000Y707291D01*
X486000Y682208D01*
X492500Y676250D01*
Y664500D01*
X446000D01*
Y670750D01*
X445400D01*
Y671250D01*
X438250D01*
Y674750D01*
X455500D01*
X455500Y694500D01*
X470250D01*
Y706000D01*
X466164D01*
X466164Y727200D01*
X442515D01*
X440950Y728250D01*
Y733750D01*
X440896D01*
Y734500D01*
X431375D01*
Y737375D01*
X448750D01*
Y752500D01*
X465000D01*
Y741250D01*
D02*
G37*
G36*
X494000Y686500D02*
X488000D01*
Y708000D01*
X494000D01*
X494000Y686500D01*
D02*
G37*
G36*
X558750Y496250D02*
X537500D01*
X537500Y543000D01*
X518499Y562000D01*
X513000Y562000D01*
Y565250D01*
X504750D01*
Y567250D01*
X513000D01*
Y572000D01*
X514207Y573500D01*
X521000D01*
Y582000D01*
Y590500D01*
X515828D01*
X515000Y592500D01*
X537000Y614500D01*
X537000Y633500D01*
Y641250D01*
X558750D01*
Y496250D01*
D02*
G37*
%LPC*%
G36*
X507000Y592000D02*
X503500D01*
Y587000D01*
X507000D01*
Y592000D01*
D02*
G37*
G36*
X501500D02*
X498000D01*
Y587000D01*
X501500D01*
Y592000D01*
D02*
G37*
G36*
X542250Y590500D02*
X531000D01*
Y587000D01*
X542250D01*
Y590500D01*
D02*
G37*
G36*
Y577000D02*
X531000D01*
Y573500D01*
X542250D01*
Y577000D01*
D02*
G37*
%LPD*%
G36*
X207500Y819500D02*
X207500Y808000D01*
X186000Y808000D01*
X186000Y819500D01*
X207500Y819500D01*
D02*
G37*
G36*
X170000Y870500D02*
X192336Y870500D01*
X193750Y869086D01*
X193750Y842250D01*
X208750D01*
Y825000D01*
X176250D01*
Y846250D01*
X149250D01*
X149250Y884000D01*
X116000Y884000D01*
X116000Y902000D01*
X170000D01*
Y870500D01*
D02*
G37*
G36*
X87000Y843550D02*
Y831050D01*
X44000Y831050D01*
Y843550D01*
X87000Y843550D01*
D02*
G37*
G36*
X355500Y588500D02*
X344500D01*
Y583500D01*
X329000D01*
X324000Y588500D01*
X320000D01*
X316000Y592500D01*
X312500Y592500D01*
X299000D01*
Y595500D01*
X355500D01*
Y588500D01*
D02*
G37*
D10*
X411500Y250500D02*
D03*
D11*
X456250Y288000D02*
D03*
Y283000D02*
D03*
Y278000D02*
D03*
Y273000D02*
D03*
Y268000D02*
D03*
Y263000D02*
D03*
Y258000D02*
D03*
Y253000D02*
D03*
Y248000D02*
D03*
Y243000D02*
D03*
Y238000D02*
D03*
Y233000D02*
D03*
Y228000D02*
D03*
Y223000D02*
D03*
Y218000D02*
D03*
Y213000D02*
D03*
X366750D02*
D03*
Y218000D02*
D03*
Y223000D02*
D03*
Y228000D02*
D03*
Y233000D02*
D03*
Y238000D02*
D03*
Y243000D02*
D03*
Y248000D02*
D03*
Y253000D02*
D03*
Y258000D02*
D03*
Y263000D02*
D03*
Y268000D02*
D03*
Y273000D02*
D03*
Y278000D02*
D03*
Y283000D02*
D03*
Y288000D02*
D03*
D12*
X449000Y205750D02*
D03*
X444000D02*
D03*
X439000D02*
D03*
X434000D02*
D03*
X429000D02*
D03*
X424000D02*
D03*
X419000D02*
D03*
X414000D02*
D03*
X409000D02*
D03*
X404000D02*
D03*
X399000D02*
D03*
X394000D02*
D03*
X389000D02*
D03*
X384000D02*
D03*
X379000D02*
D03*
X374000D02*
D03*
Y295250D02*
D03*
X379000D02*
D03*
X384000D02*
D03*
X389000D02*
D03*
X394000D02*
D03*
X399000D02*
D03*
X404000D02*
D03*
X409000D02*
D03*
X414000D02*
D03*
X419000D02*
D03*
X424000D02*
D03*
X429000D02*
D03*
X434000D02*
D03*
X439000D02*
D03*
X444000D02*
D03*
X449000D02*
D03*
D13*
X478500Y236000D02*
D03*
Y251000D02*
D03*
Y266000D02*
D03*
D14*
X189500Y490500D02*
D03*
Y507500D02*
D03*
X211500D02*
D03*
Y490500D02*
D03*
D15*
X156000Y742000D02*
D03*
D16*
X170800Y752000D02*
D03*
Y748000D02*
D03*
Y744000D02*
D03*
Y740000D02*
D03*
Y736000D02*
D03*
Y732000D02*
D03*
X141200D02*
D03*
Y736000D02*
D03*
Y740000D02*
D03*
Y744000D02*
D03*
Y748000D02*
D03*
Y752000D02*
D03*
D17*
X166000Y727200D02*
D03*
X162000D02*
D03*
X158000D02*
D03*
X154000D02*
D03*
X150000D02*
D03*
X146000D02*
D03*
Y756800D02*
D03*
X150000D02*
D03*
X154000D02*
D03*
X158000D02*
D03*
X162000D02*
D03*
X166000D02*
D03*
D18*
X306250Y544000D02*
D03*
Y549000D02*
D03*
Y554000D02*
D03*
Y559000D02*
D03*
Y564000D02*
D03*
Y569000D02*
D03*
Y574000D02*
D03*
Y579000D02*
D03*
Y584000D02*
D03*
Y589000D02*
D03*
Y594000D02*
D03*
Y599000D02*
D03*
Y604000D02*
D03*
Y609000D02*
D03*
Y614000D02*
D03*
Y619000D02*
D03*
Y624000D02*
D03*
Y629000D02*
D03*
Y634000D02*
D03*
Y639000D02*
D03*
Y644000D02*
D03*
Y649000D02*
D03*
Y654000D02*
D03*
Y659000D02*
D03*
Y664000D02*
D03*
X151750D02*
D03*
Y659000D02*
D03*
Y654000D02*
D03*
Y649000D02*
D03*
Y644000D02*
D03*
Y639000D02*
D03*
Y634000D02*
D03*
Y629000D02*
D03*
Y624000D02*
D03*
Y619000D02*
D03*
Y614000D02*
D03*
Y609000D02*
D03*
Y604000D02*
D03*
Y599000D02*
D03*
Y594000D02*
D03*
Y589000D02*
D03*
Y584000D02*
D03*
Y579000D02*
D03*
Y574000D02*
D03*
Y569000D02*
D03*
Y564000D02*
D03*
Y559000D02*
D03*
Y554000D02*
D03*
Y549000D02*
D03*
Y544000D02*
D03*
D19*
X289000Y681250D02*
D03*
X284000D02*
D03*
X279000D02*
D03*
X274000D02*
D03*
X269000D02*
D03*
X264000D02*
D03*
X259000D02*
D03*
X254000D02*
D03*
X249000D02*
D03*
X244000D02*
D03*
X239000D02*
D03*
X234000D02*
D03*
X229000D02*
D03*
X224000D02*
D03*
X219000D02*
D03*
X214000D02*
D03*
X209000D02*
D03*
X204000D02*
D03*
X199000D02*
D03*
X194000D02*
D03*
X189000D02*
D03*
X184000D02*
D03*
X179000D02*
D03*
X174000D02*
D03*
X169000D02*
D03*
Y526750D02*
D03*
X174000D02*
D03*
X179000D02*
D03*
X184000D02*
D03*
X189000D02*
D03*
X194000D02*
D03*
X199000D02*
D03*
X204000D02*
D03*
X209000D02*
D03*
X214000D02*
D03*
X219000D02*
D03*
X224000D02*
D03*
X229000D02*
D03*
X234000D02*
D03*
X239000D02*
D03*
X244000D02*
D03*
X249000D02*
D03*
X254000D02*
D03*
X259000D02*
D03*
X264000D02*
D03*
X269000D02*
D03*
X274000D02*
D03*
X279000D02*
D03*
X284000D02*
D03*
X289000D02*
D03*
D20*
X435450Y731000D02*
D03*
Y736000D02*
D03*
Y741000D02*
D03*
Y746000D02*
D03*
X416550Y731000D02*
D03*
Y736000D02*
D03*
Y741000D02*
D03*
Y746000D02*
D03*
D21*
X426000Y738500D02*
D03*
D22*
X440900Y668000D02*
D03*
Y673000D02*
D03*
Y678000D02*
D03*
Y683000D02*
D03*
Y688000D02*
D03*
X415100Y668000D02*
D03*
Y673000D02*
D03*
Y678000D02*
D03*
Y683000D02*
D03*
Y688000D02*
D03*
D23*
X428000Y678000D02*
D03*
D24*
X483100Y377500D02*
D03*
X474900D02*
D03*
X217400Y806000D02*
D03*
X225600D02*
D03*
X241350D02*
D03*
X233150D02*
D03*
X248900D02*
D03*
X257100D02*
D03*
X272600D02*
D03*
X264400D02*
D03*
X493400Y367000D02*
D03*
X501600D02*
D03*
X561400Y305000D02*
D03*
X569600D02*
D03*
X561400Y205000D02*
D03*
X569600D02*
D03*
X433100Y316450D02*
D03*
X424900D02*
D03*
Y325500D02*
D03*
X433100D02*
D03*
X469400Y222500D02*
D03*
X477600D02*
D03*
X503900Y237500D02*
D03*
X512100D02*
D03*
X502900Y246000D02*
D03*
X511100D02*
D03*
X489600Y527500D02*
D03*
X481400D02*
D03*
X498600Y621500D02*
D03*
X490400D02*
D03*
X253400Y505000D02*
D03*
X261600D02*
D03*
X499100Y576000D02*
D03*
X490900D02*
D03*
X507600Y720500D02*
D03*
X499400D02*
D03*
X521400Y227000D02*
D03*
X530000D02*
D03*
X121900Y752000D02*
D03*
X130100D02*
D03*
X155350Y717000D02*
D03*
X147150D02*
D03*
X121900Y761500D02*
D03*
X130100D02*
D03*
X404400Y193500D02*
D03*
X412600D02*
D03*
X424900Y307550D02*
D03*
X433100D02*
D03*
X391400Y308000D02*
D03*
X399600D02*
D03*
X381600D02*
D03*
X373400D02*
D03*
X404400Y183500D02*
D03*
X412600D02*
D03*
X391400Y317000D02*
D03*
X399600D02*
D03*
X381600D02*
D03*
X373400D02*
D03*
X497400Y212500D02*
D03*
X505600D02*
D03*
X253400Y513500D02*
D03*
X261600D02*
D03*
X293100Y694500D02*
D03*
X284900D02*
D03*
X327100Y664000D02*
D03*
X318900D02*
D03*
X242600Y509500D02*
D03*
X234400D02*
D03*
X327100Y673000D02*
D03*
X318900D02*
D03*
X242850Y500000D02*
D03*
X234650D02*
D03*
X423600Y700000D02*
D03*
X415400D02*
D03*
D25*
X195750Y768100D02*
D03*
Y759900D02*
D03*
X205500Y768100D02*
D03*
Y759900D02*
D03*
X350000Y872600D02*
D03*
Y864400D02*
D03*
X202000Y430600D02*
D03*
Y422400D02*
D03*
X76750Y430600D02*
D03*
Y422400D02*
D03*
X158500Y807100D02*
D03*
Y798900D02*
D03*
X210000Y430600D02*
D03*
Y422400D02*
D03*
X85000Y430600D02*
D03*
Y422400D02*
D03*
X158500Y817400D02*
D03*
Y825600D02*
D03*
X464500Y338100D02*
D03*
Y329900D02*
D03*
X430850Y184400D02*
D03*
Y192600D02*
D03*
X422500Y184400D02*
D03*
Y192600D02*
D03*
X395000Y184400D02*
D03*
Y192600D02*
D03*
X386250Y184400D02*
D03*
Y192600D02*
D03*
X445000Y320600D02*
D03*
Y312400D02*
D03*
X474500Y214100D02*
D03*
Y205900D02*
D03*
X201000Y695900D02*
D03*
Y704100D02*
D03*
X193000Y695900D02*
D03*
Y704100D02*
D03*
X350000Y762600D02*
D03*
Y754400D02*
D03*
Y660100D02*
D03*
Y651900D02*
D03*
X444000Y760100D02*
D03*
Y751900D02*
D03*
X444350Y733400D02*
D03*
Y741600D02*
D03*
X449000Y694100D02*
D03*
Y685900D02*
D03*
X449050Y670900D02*
D03*
Y679100D02*
D03*
X483450Y576600D02*
D03*
Y568400D02*
D03*
X490500Y631400D02*
D03*
Y639600D02*
D03*
X499000D02*
D03*
Y631400D02*
D03*
X538500Y274200D02*
D03*
Y282800D02*
D03*
X352000Y591800D02*
D03*
Y583200D02*
D03*
X117500Y729900D02*
D03*
Y738100D02*
D03*
X464500Y320600D02*
D03*
Y312400D02*
D03*
X454500Y320600D02*
D03*
Y312400D02*
D03*
X409000Y314600D02*
D03*
Y306400D02*
D03*
X363000Y316100D02*
D03*
Y307900D02*
D03*
X503450Y220900D02*
D03*
Y229100D02*
D03*
X502500Y263100D02*
D03*
Y254900D02*
D03*
X226000Y503900D02*
D03*
Y512100D02*
D03*
X323000Y600600D02*
D03*
Y592400D02*
D03*
X226500Y481900D02*
D03*
Y490100D02*
D03*
X176000Y496100D02*
D03*
Y487900D02*
D03*
X132500Y608100D02*
D03*
Y599900D02*
D03*
X123000Y608100D02*
D03*
Y599900D02*
D03*
X176000Y505400D02*
D03*
Y513600D02*
D03*
D26*
X229500Y437000D02*
D03*
Y423000D02*
D03*
X107000Y437000D02*
D03*
Y423000D02*
D03*
X203000Y829000D02*
D03*
Y815000D02*
D03*
D27*
X483500Y364500D02*
D03*
X464500D02*
D03*
X474000Y341500D02*
D03*
X483500Y586000D02*
D03*
X502500D02*
D03*
X493000Y609000D02*
D03*
D28*
X500000Y733500D02*
D03*
Y752500D02*
D03*
X476000Y743000D02*
D03*
D29*
X440000Y381500D02*
D03*
X378000D02*
D03*
X440000Y341500D02*
D03*
X378000D02*
D03*
D30*
X383000Y749350D02*
D03*
Y716350D02*
D03*
D31*
X444350Y638000D02*
D03*
X420650D02*
D03*
D32*
X350000Y838500D02*
D03*
Y854500D02*
D03*
X579450Y305000D02*
D03*
Y321000D02*
D03*
Y189000D02*
D03*
Y205000D02*
D03*
X350000Y730100D02*
D03*
Y746100D02*
D03*
Y628500D02*
D03*
Y644500D02*
D03*
D33*
X530700Y253000D02*
D03*
X525700D02*
D03*
X520700D02*
D03*
Y239000D02*
D03*
X530700D02*
D03*
D34*
X480500Y712500D02*
D03*
D35*
X491000Y706000D02*
D03*
Y719000D02*
D03*
D36*
X462750Y598500D02*
D03*
X437250Y589000D02*
D03*
Y608000D02*
D03*
D37*
X580200Y265750D02*
D03*
Y244250D02*
D03*
D38*
X556200Y278200D02*
D03*
Y231800D02*
D03*
D39*
X550200Y242000D02*
D03*
Y248500D02*
D03*
Y255000D02*
D03*
Y261500D02*
D03*
Y268000D02*
D03*
D40*
X22000Y659500D02*
D03*
Y684900D02*
D03*
X71500Y659500D02*
D03*
X22000Y710300D02*
D03*
X71500D02*
D03*
X22000Y735700D02*
D03*
X71500D02*
D03*
Y837300D02*
D03*
Y811900D02*
D03*
Y786500D02*
D03*
Y761100D02*
D03*
X22000Y837300D02*
D03*
Y811900D02*
D03*
Y786500D02*
D03*
Y761100D02*
D03*
X71500Y684900D02*
D03*
Y634100D02*
D03*
Y608700D02*
D03*
X22000Y634100D02*
D03*
Y608700D02*
D03*
D41*
X118000Y144750D02*
D03*
X143400D02*
D03*
X168800D02*
D03*
X194200D02*
D03*
X118000Y95250D02*
D03*
X143400D02*
D03*
X168800D02*
D03*
X194200D02*
D03*
D42*
X527000Y735000D02*
D03*
X579000D02*
D03*
X244500Y450000D02*
D03*
X296500D02*
D03*
X122000D02*
D03*
X174000D02*
D03*
X526000Y582000D02*
D03*
X578000D02*
D03*
D43*
X222850Y117750D02*
D03*
Y134250D02*
D03*
X91000Y109250D02*
D03*
Y92750D02*
D03*
X343500Y341250D02*
D03*
Y324750D02*
D03*
X504750Y549750D02*
D03*
Y566250D02*
D03*
X337000Y606250D02*
D03*
Y589750D02*
D03*
X108500Y612750D02*
D03*
Y596250D02*
D03*
X155000Y494750D02*
D03*
Y511250D02*
D03*
X382000Y642750D02*
D03*
Y659250D02*
D03*
X401000Y693250D02*
D03*
Y676750D02*
D03*
X382000Y693250D02*
D03*
Y676750D02*
D03*
X401000Y642750D02*
D03*
Y659250D02*
D03*
X457000Y715750D02*
D03*
Y732250D02*
D03*
X462000Y700250D02*
D03*
Y683750D02*
D03*
X457000Y763250D02*
D03*
Y746750D02*
D03*
X485000Y653250D02*
D03*
Y669750D02*
D03*
X466000Y653250D02*
D03*
Y669750D02*
D03*
D44*
X299000Y928000D02*
D03*
X315500D02*
D03*
X543250Y212000D02*
D03*
X526750D02*
D03*
X328250Y687000D02*
D03*
X311750D02*
D03*
D45*
X198750Y440500D02*
D03*
X211250D02*
D03*
X76750Y440000D02*
D03*
X89250D02*
D03*
X468750Y631550D02*
D03*
X481250D02*
D03*
D46*
X168500Y794750D02*
D03*
Y807250D02*
D03*
D47*
X185000Y849000D02*
D03*
Y901000D02*
D03*
D48*
X404000Y771000D02*
D03*
X430000D02*
D03*
D49*
X536500Y332000D02*
X551000Y346500D01*
X490500Y332000D02*
X536500D01*
X470500Y312000D02*
X490500Y332000D01*
X520000Y335500D02*
X523500Y339000D01*
X488900Y335500D02*
X520000D01*
X523500Y339000D02*
X530500Y346000D01*
X470150Y316750D02*
X488900Y335500D01*
X51000Y619500D02*
X91450D01*
X41500Y629000D02*
X51000Y619500D01*
X41500Y629000D02*
Y648000D01*
X45000Y630505D02*
Y670000D01*
Y630505D02*
X52505Y623000D01*
X90000D01*
X35000Y680000D02*
X45000Y670000D01*
X35000Y680000D02*
Y681500D01*
X30000Y659500D02*
X41500Y648000D01*
X22000Y659500D02*
X30000D01*
X418450Y572000D02*
X459500D01*
X403950Y586500D02*
X418450Y572000D01*
X461000Y527500D02*
X481400D01*
X389999Y578999D02*
X397501D01*
X449000Y527500D01*
X397500Y579000D02*
X397501Y578999D01*
X449000Y527500D02*
X461000D01*
X55450Y645500D02*
X90550D01*
X51000Y649950D02*
X55450Y645500D01*
X51000Y649950D02*
Y729500D01*
X54500Y727000D02*
X60000Y732500D01*
X54500Y651400D02*
Y727000D01*
Y651400D02*
X56900Y649000D01*
X44800Y735700D02*
X51000Y729500D01*
X158500Y807100D02*
X167900D01*
X158500Y808500D02*
Y817400D01*
X246000Y777000D02*
X246500Y776500D01*
X225600Y785100D02*
Y806000D01*
X214000Y773500D02*
X225600Y785100D01*
X217500Y771500D02*
X233150Y787150D01*
Y806000D01*
X217000Y798500D02*
X217400Y798900D01*
Y806000D01*
X272600Y798600D02*
Y806000D01*
X248900Y798000D02*
Y806000D01*
X241350Y798900D02*
Y806000D01*
X210400Y430600D02*
Y438100D01*
X176000Y513600D02*
X178900Y516500D01*
X192500D02*
X194000Y518000D01*
X178900Y516500D02*
X192500D01*
X200000Y513000D02*
X203000Y516000D01*
X200000Y500000D02*
Y513000D01*
X190000Y490000D02*
X200000Y500000D01*
X203000Y516000D02*
X207000D01*
X210000Y507035D02*
Y507500D01*
X212000Y507900D02*
Y508000D01*
Y507900D02*
X221000Y498900D01*
Y494750D02*
Y498900D01*
X221000Y494722D02*
X225622Y490100D01*
X226500D01*
X210000Y430600D02*
X210400D01*
X202000D02*
X210000D01*
X86500Y432200D02*
Y437500D01*
X84900Y430600D02*
X86500Y432200D01*
X76750Y430600D02*
X84900D01*
X395000Y193050D02*
X395550D01*
X396500D02*
Y196000D01*
X433550Y307500D02*
Y316450D01*
X433000Y307000D02*
Y307550D01*
Y307000D02*
X434000Y306000D01*
X437435D01*
X444000Y299436D01*
X414750Y688000D02*
Y700000D01*
X254500Y892500D02*
X255500D01*
X436500Y170500D02*
X449500Y183500D01*
X475000Y235000D02*
Y242500D01*
X463950Y312050D02*
X464500Y311500D01*
X195750Y759200D02*
X196000Y759450D01*
X195750Y752250D02*
X196000Y752000D01*
X189500Y746000D02*
X204500D01*
X172535Y655500D02*
X275000D01*
X261950Y505050D02*
X262500Y504500D01*
X193000Y704550D02*
X201500D01*
X269000Y663000D02*
X274500D01*
X265000Y659000D02*
X269000Y663000D01*
X174228Y659000D02*
X265000D01*
X143651Y614000D02*
X151750D01*
X136051Y621600D02*
X143651Y614000D01*
X93550Y621600D02*
X136051D01*
X143451Y619150D02*
X151600D01*
X137501Y625100D02*
X143451Y619150D01*
X143550Y624000D02*
X151750D01*
X138950Y628600D02*
X143550Y624000D01*
X143500Y629000D02*
X151750D01*
X140400Y632100D02*
X143500Y629000D01*
X92100Y625100D02*
X137501D01*
X107450Y628600D02*
X138950D01*
X108900Y632100D02*
X140400D01*
X176000Y699000D02*
Y710000D01*
X242950Y500050D02*
X243000Y500000D01*
X242950Y500050D02*
Y509500D01*
X243000D01*
X184550Y505050D02*
X185000Y505500D01*
X176000Y505050D02*
X184550D01*
X182500Y744000D02*
X186000Y740500D01*
X171800Y744000D02*
X182500D01*
X140200Y471800D02*
X141500Y470500D01*
X145000Y474000D02*
X146500Y475500D01*
X148500Y472500D02*
X151000Y475000D01*
X260500Y757000D02*
X277500Y774000D01*
X260500Y723000D02*
Y757000D01*
X234000Y696500D02*
X260500Y723000D01*
X234000Y681250D02*
Y696500D01*
X334750Y526750D02*
Y526750D01*
X289000D02*
X334750D01*
X194000Y681250D02*
Y694500D01*
X199000Y693500D02*
X200000Y694500D01*
X199000Y681250D02*
Y693500D01*
X191500Y669000D02*
X194000Y671500D01*
Y681250D01*
X199000Y671500D02*
X201500Y669000D01*
X199000Y671500D02*
Y681250D01*
X74500Y762000D02*
X75000Y761500D01*
X96500Y644500D02*
X108900Y632100D01*
X151600Y619150D02*
X151750Y619000D01*
X96500Y644500D02*
X96500D01*
X229000Y681250D02*
Y707500D01*
X246500Y725000D01*
Y776500D01*
X217500Y694500D02*
X219000Y693000D01*
Y681250D02*
Y693000D01*
X25500Y736500D02*
X26300Y735700D01*
X288278Y654000D02*
X288278Y654000D01*
X306250D01*
X306250Y654000D01*
X283778D02*
X288278D01*
X286000Y660000D02*
X287000Y659000D01*
X306250D01*
X277500Y774000D02*
X280500D01*
X118000Y740000D02*
X140200D01*
X412000Y741000D02*
X414950D01*
X409950Y743050D02*
X412000Y741000D01*
X441250Y678000D02*
X448750D01*
X449050Y679550D02*
Y686450D01*
Y679250D02*
Y679550D01*
X433950Y741000D02*
X442750D01*
X444000Y742250D01*
Y742550D02*
Y750450D01*
Y742250D02*
Y742500D01*
X284000Y681250D02*
Y694500D01*
X570050Y205000D02*
X580200D01*
X176000Y487550D02*
X186050D01*
X186500Y488000D01*
X207000Y516000D02*
X209000Y518000D01*
Y526750D01*
X214000Y509500D02*
Y526750D01*
X219000Y517500D02*
Y526750D01*
Y517500D02*
X224750Y511750D01*
X139500Y584000D02*
X151750D01*
X18500Y757000D02*
X19000Y757500D01*
X224000Y669500D02*
Y681250D01*
X217000Y662500D02*
X224000Y669500D01*
X90550Y645500D02*
X107450Y628600D01*
X92000Y649000D02*
X96500Y644500D01*
X261950Y513500D02*
X265000D01*
X269000Y517500D01*
Y522500D01*
X261950Y505050D02*
Y513500D01*
X284000Y529000D02*
Y539500D01*
X244000Y526750D02*
Y536500D01*
X254500Y547000D01*
X266500Y536500D02*
X266535D01*
X262500Y540500D02*
Y540500D01*
Y540500D02*
X266500Y536500D01*
X269000Y526750D02*
X269500Y527250D01*
Y533535D01*
X266535Y536500D02*
X269500Y533535D01*
X274000Y508000D02*
Y526750D01*
X194000Y518000D02*
Y526750D01*
X149500Y700000D02*
X166500D01*
X174000Y692500D01*
Y686000D02*
Y692500D01*
X296500Y624000D02*
X306250D01*
X292500Y620000D02*
X296500Y624000D01*
X292500Y608000D02*
Y620000D01*
X296000Y629000D02*
X306250D01*
X286499Y619499D02*
X296000Y629000D01*
X286499Y612999D02*
Y619499D01*
X189000Y681250D02*
Y689500D01*
X182500Y696000D02*
X189000Y689500D01*
X193000Y704550D02*
Y712500D01*
X254500Y547000D02*
X269500D01*
X306250Y544000D02*
X320500D01*
X321000D01*
X281500Y484500D02*
X316100D01*
X176000Y699000D02*
X179000Y696000D01*
X182500D01*
X274500Y663000D02*
X274778D01*
X171800Y748000D02*
X187500D01*
X189500Y746000D01*
X171800Y752000D02*
X195500D01*
X195500Y752000D01*
X79000Y685000D02*
X92050D01*
X103200Y673850D01*
X159135D01*
X74750Y659500D02*
X92500D01*
X103350Y670350D01*
X157685D01*
X283000Y649000D02*
X306250D01*
X289000Y634000D02*
X306250D01*
X287000Y639000D02*
X306250D01*
X285000Y644000D02*
X306250D01*
X274778Y663000D02*
X283778Y654000D01*
X205499Y571499D02*
X283000Y649000D01*
X207500Y559500D02*
X287000Y639000D01*
X211500Y556500D02*
X289000Y634000D01*
X165350Y571499D02*
X205499D01*
X206499Y565499D02*
X285000Y644000D01*
X170000Y565499D02*
X206499D01*
X165350Y559500D02*
X207500D01*
X208999Y553999D02*
X211500Y556500D01*
X171000Y553999D02*
X208999D01*
X155500Y619000D02*
X196500D01*
X207000Y629500D01*
Y642500D01*
X151750Y579000D02*
X168000D01*
X140000Y594000D02*
X151750D01*
X139000Y593000D02*
X140000Y594000D01*
X151750Y589000D02*
X164000D01*
X151750Y609000D02*
X160500D01*
X163500Y606000D01*
Y596500D02*
Y606000D01*
X151750Y639000D02*
X162999D01*
X170000Y631999D01*
X130450Y707485D02*
X170435Y667500D01*
X159135Y673850D02*
X168985Y664000D01*
X169228D01*
X174228Y659000D01*
X170435Y667500D02*
X170678D01*
X175678Y662500D01*
X217000D01*
X175500Y626499D02*
Y634277D01*
X165777Y644000D02*
X175500Y634277D01*
X151750Y644000D02*
X165777D01*
X151750Y649000D02*
X165726D01*
X181000Y633726D01*
Y631999D02*
Y633726D01*
X157685Y670350D02*
X172535Y655500D01*
X151750Y634000D02*
X160000D01*
X164000Y626499D02*
X164000Y626499D01*
X164000Y626499D02*
Y630000D01*
X160000Y634000D02*
X164000Y630000D01*
X151750Y654000D02*
X166777D01*
X186500Y634277D01*
Y626500D02*
Y634277D01*
X136000Y544000D02*
X151000D01*
X151000Y475500D02*
X153000Y477499D01*
X151000Y475000D02*
Y475500D01*
X146500D02*
Y481999D01*
X159500Y475949D02*
Y481999D01*
X155700Y467199D02*
X166000Y477499D01*
X152200Y468649D02*
X159500Y475949D01*
X140200Y471800D02*
Y477500D01*
X141500Y470500D02*
X141500Y470500D01*
X141500Y354999D02*
Y470500D01*
X155700Y378800D02*
Y467199D01*
Y378800D02*
X164500Y370000D01*
Y355000D02*
Y370000D01*
X152200Y377000D02*
Y468649D01*
Y377000D02*
X158500Y370700D01*
Y360000D02*
Y370700D01*
X148500Y375000D02*
Y472500D01*
Y375000D02*
X152500Y371000D01*
Y355000D02*
Y371000D01*
X145000Y372800D02*
Y474000D01*
Y372800D02*
X147000Y370800D01*
Y360500D02*
Y370800D01*
X195750Y752000D02*
Y752250D01*
Y759200D01*
X204000Y746150D02*
Y760000D01*
X90000Y623000D02*
X92100Y625100D01*
X91450Y619500D02*
X93550Y621600D01*
X390000Y586500D02*
X403950D01*
X279000Y515500D02*
Y523000D01*
Y515500D02*
X281000Y513500D01*
Y498000D02*
Y513500D01*
X166000Y757800D02*
Y766000D01*
X166000Y766000D02*
X166000Y766000D01*
X130450Y707485D02*
Y726450D01*
X136000Y732000D01*
X139500D01*
X68500Y735500D02*
X72000D01*
X26300Y735700D02*
X44800D01*
X56900Y649000D02*
X92000D01*
X560950Y197500D02*
Y205000D01*
X502500Y246000D02*
Y254550D01*
X502500Y246000D02*
X502500Y246000D01*
X467500Y214550D02*
X474500D01*
X512500Y238500D02*
X512750Y238750D01*
X511500Y246000D02*
X522486D01*
X560950Y305000D02*
Y312500D01*
X456250Y218000D02*
X464050D01*
X467500Y214550D01*
X456250Y223000D02*
X468500D01*
X447500Y233000D02*
X456250D01*
X447500Y233000D02*
X447500Y233000D01*
X366750Y268000D02*
X377000D01*
X366750Y273000D02*
X384000D01*
X384000Y273000D01*
X395000Y175500D02*
Y176000D01*
Y175500D02*
X400000Y170500D01*
X429000Y195500D02*
X429500Y195000D01*
X429000Y195500D02*
Y205750D01*
X423950Y194500D02*
X424000Y194550D01*
Y205750D01*
X422500Y176000D02*
Y183950D01*
X430850Y175500D02*
Y176000D01*
Y183950D01*
X367950D02*
X386250D01*
X367500Y183500D02*
X367950Y183950D01*
X386250Y176000D02*
Y183950D01*
X395000Y176000D02*
Y183950D01*
X386500Y194035D02*
X394000Y201535D01*
X386500Y194000D02*
Y194035D01*
X394000Y201535D02*
Y205750D01*
X399000Y198500D02*
Y205750D01*
X396500Y196000D02*
X399000Y198500D01*
X400000Y170500D02*
X436500D01*
X449050Y183500D02*
X449500D01*
X409000Y295250D02*
Y305500D01*
X391050Y308550D02*
Y317000D01*
X391000Y308500D02*
X391050Y308550D01*
X381950Y309450D02*
Y317000D01*
X381500Y309000D02*
X381950Y309450D01*
X366750Y288000D02*
Y295250D01*
X363000Y299000D02*
X366750Y295250D01*
X363000Y299000D02*
Y307500D01*
X433550Y317100D02*
Y325500D01*
X433450Y317000D02*
X433550Y317100D01*
X404000Y194050D02*
Y205750D01*
Y194050D02*
X404050Y194000D01*
Y186000D02*
Y194000D01*
X296950Y381500D02*
X336500D01*
X337000Y381500D02*
Y381500D01*
X217500Y694500D02*
Y771500D01*
X214000Y681250D02*
Y773500D01*
X456250Y248000D02*
X465500D01*
X445000Y253000D02*
X456250D01*
X445000Y311950D02*
X454400D01*
X454500Y312050D01*
X456250Y288000D02*
Y310500D01*
X551000Y346500D02*
X555900D01*
X464500Y312050D02*
X465486D01*
X470150Y316714D01*
Y316750D01*
X444000Y295250D02*
Y299436D01*
X570050Y305000D02*
X580000D01*
X456250Y263000D02*
X461500D01*
X463000Y264500D01*
X478000Y222500D02*
X487000D01*
X496000Y243500D02*
X498500Y246000D01*
X496000Y234714D02*
Y243500D01*
X498500Y246000D02*
X502450D01*
X456250Y258000D02*
X462500D01*
X468000Y263500D01*
X463000Y264500D02*
Y297500D01*
X470500Y305000D01*
Y312000D01*
X454500Y312050D02*
X463950D01*
X474450Y377500D02*
Y384450D01*
X477500Y387500D01*
X480500D01*
X484050Y367000D02*
X492950D01*
X483550Y366500D02*
X484050Y367000D01*
X483550Y366500D02*
Y377500D01*
X409950Y743050D02*
Y761050D01*
X407000Y764000D02*
X409950Y761050D01*
X476000Y607100D02*
X490400Y621500D01*
X476000Y587000D02*
Y607100D01*
X461000Y572000D02*
X476000Y587000D01*
X481250Y631500D02*
X481350Y631400D01*
X490500D01*
X499000D01*
X466000Y615500D02*
X481250Y630750D01*
Y631500D01*
Y631550D01*
X466000Y598500D02*
Y615500D01*
X453500Y598500D02*
X462750D01*
X570500Y321000D02*
X579450D01*
X570499Y189000D02*
X579450D01*
X570499Y189000D02*
X570499Y189000D01*
X538222Y255000D02*
X550200D01*
X533972Y259250D02*
X538222Y255000D01*
X527100Y259250D02*
X533972D01*
X525700Y257850D02*
X527100Y259250D01*
X525700Y254900D02*
Y257850D01*
X522486Y246000D02*
X525500Y249014D01*
Y253500D01*
X520700Y239000D02*
X521500D01*
X529000Y246500D01*
X537000D01*
X539000Y248500D01*
X550000D01*
X512750Y238750D02*
X520700D01*
X550200Y247650D02*
Y248500D01*
X503900Y229200D02*
Y237500D01*
X457000Y228000D02*
X503450D01*
D50*
X194200Y95250D02*
Y115000D01*
Y94700D02*
Y95250D01*
X169000Y98000D02*
Y115000D01*
X143500Y100750D02*
Y115000D01*
X222850Y134250D02*
X239500D01*
X195250D02*
X222850D01*
X22000Y826000D02*
Y837300D01*
X29500Y608500D02*
X41000D01*
X51000Y634000D02*
X65500D01*
X211250Y440500D02*
Y455750D01*
X89500Y438250D02*
Y452750D01*
X18500Y757750D02*
X22250Y761500D01*
X19000Y633500D02*
X19500Y634000D01*
X70750Y375500D02*
Y391250D01*
X75000Y595500D02*
Y609650D01*
X194200Y92950D02*
X195000Y92150D01*
X135500Y512000D02*
X135650Y511850D01*
X155000D01*
X70750Y391250D02*
X85000Y405500D01*
Y421500D01*
X210000Y401000D02*
Y421501D01*
X216250Y376250D02*
Y394750D01*
X210000Y401000D02*
X216250Y394750D01*
X316150Y893250D02*
Y928000D01*
X316100D02*
X316150D01*
X330000D01*
X382500Y694000D02*
X382500Y694000D01*
X18500Y749500D02*
Y757000D01*
X19500Y758000D01*
X22250Y761500D02*
X22750Y761000D01*
X75000Y749000D02*
Y759750D01*
X74750Y760000D02*
X75000Y759750D01*
X74650Y610000D02*
X75000Y609650D01*
X19000Y621500D02*
Y633500D01*
X347050Y578000D02*
X352000Y582950D01*
X342500Y578000D02*
X347050D01*
X90150Y92000D02*
X118000D01*
X90000Y92150D02*
X90150Y92000D01*
X72000Y92150D02*
X90000D01*
X143250Y150150D02*
X143400Y150000D01*
X143250Y150150D02*
Y167000D01*
X168750Y150250D02*
X169000Y150000D01*
X168750Y150250D02*
Y167000D01*
X143400Y91000D02*
Y92000D01*
X194200Y148000D02*
X194350Y147850D01*
X18750Y811900D02*
X47900D01*
X48000Y812000D01*
X49000Y794000D02*
X49500D01*
X63500Y808000D01*
X68000D01*
X337000Y381500D02*
X337000Y381500D01*
X377000D02*
X441000D01*
X376000Y382500D02*
X377000Y381500D01*
X337000D02*
X377000D01*
X464500Y329000D02*
X464500Y329000D01*
X347500Y312500D02*
Y324000D01*
X522600Y630150D02*
Y631000D01*
D51*
X523000Y534750D02*
Y535000D01*
X489600Y527500D02*
X499900D01*
X507400Y535000D01*
X522600D01*
X499100Y570300D02*
Y576000D01*
Y570300D02*
X501000Y568400D01*
X483500Y576500D02*
Y586000D01*
Y576500D02*
X490400D01*
X195750Y768100D02*
Y775500D01*
X205050Y768100D02*
X205500Y768550D01*
X195750Y768100D02*
X205050D01*
X168500Y807250D02*
X171250D01*
X171000Y806000D02*
X176000D01*
X184000Y798000D01*
X142500Y825500D02*
X158500D01*
X125000Y843000D02*
X142500Y825500D01*
X264400Y794100D02*
Y806000D01*
Y794100D02*
X281000Y777500D01*
X246500Y777000D02*
X256000Y786500D01*
Y804900D01*
X257100Y806000D01*
X225600D02*
Y863600D01*
X233150Y821150D02*
X255000Y843000D01*
X233150Y806000D02*
Y821150D01*
X257100Y806000D02*
Y819550D01*
X280550Y843000D01*
X264400Y806000D02*
Y814500D01*
X280400Y830500D01*
X322500D01*
X330500Y838500D01*
X350000Y854500D02*
Y864400D01*
X316000Y868000D02*
X330500Y853500D01*
Y838500D02*
Y853500D01*
Y838500D02*
X350000D01*
X156000Y513600D02*
X176000D01*
X493000Y609000D02*
X501000D01*
X464500Y329500D02*
X470000D01*
X417500Y325500D02*
X424450D01*
X414500Y328500D02*
X417500Y325500D01*
X254500Y892500D02*
X255000Y893000D01*
X225600Y863600D02*
X254500Y892500D01*
X108500Y613350D02*
X110350D01*
X461700Y700850D02*
X463000D01*
X252950Y496050D02*
X253000Y496000D01*
X252950Y496050D02*
Y505000D01*
X280550Y843000D02*
X316000D01*
X125000D02*
X131750D01*
X216000Y376000D02*
Y376250D01*
X315750Y893250D02*
X316000Y893000D01*
X336450Y872550D02*
X350500D01*
X316000Y893000D02*
X336450Y872550D01*
X414750Y683000D02*
X423950D01*
X423950Y683000D01*
X432000D02*
X441250D01*
X478000Y219500D02*
Y222500D01*
X474500Y216000D02*
X478000Y219500D01*
X445000Y320500D02*
Y329500D01*
X464500Y320950D02*
Y329000D01*
X464500Y329000D02*
X464500Y329000D01*
X474000Y333500D02*
Y340450D01*
X470000Y329500D02*
X474000Y333500D01*
X464500Y338550D02*
Y346500D01*
X350000Y644500D02*
Y651900D01*
Y747250D02*
Y754400D01*
X498600Y621500D02*
X513000D01*
X522500Y631000D01*
X499000Y639600D02*
Y649000D01*
X522000Y672000D01*
D52*
X311000Y968000D02*
G03*
X331000Y948000I20000J0D01*
G01*
X311000Y988000D02*
G03*
X291000Y1008000I-20000J0D01*
G01*
X25000Y1007999D02*
G03*
X0Y988000I-2500J-22499D01*
G01*
X23000Y911000D02*
G03*
X-0Y929000I-20500J-2500D01*
G01*
Y865000D02*
G03*
X23000Y883000I2500J20500D01*
G01*
X23000Y464000D02*
G03*
X-0Y480000I-19500J-3500D01*
G01*
X0Y416000D02*
G03*
X23000Y436000I1500J21500D01*
G01*
X121000Y1008000D02*
G03*
X156000Y973000I35000J0D01*
G01*
D02*
G03*
X191000Y1008000I0J35000D01*
G01*
X-1Y36000D02*
G03*
X69600Y23000I36035J109D01*
G01*
X242399Y22999D02*
G03*
X312000Y36000I33587J12998D01*
G01*
X591213Y182213D02*
G03*
X600000Y203426I-21213J21213D01*
G01*
X438574Y42000D02*
G03*
X459787Y50787I0J30000D01*
G01*
X600000Y928000D02*
G03*
X580000Y948000I-20000J0D01*
G01*
X50000Y883000D02*
G03*
X50000Y911000I0J14000D01*
G01*
Y436000D02*
G03*
X50000Y464000I0J14000D01*
G01*
X311000Y968000D02*
Y988000D01*
X191000Y1008000D02*
X291000D01*
X0Y929000D02*
Y988000D01*
X25000Y1008000D02*
X121000D01*
X23000Y911000D02*
X50000D01*
X23000Y883000D02*
X50000D01*
X0Y480000D02*
Y865000D01*
X23000Y436000D02*
X50000D01*
X23000Y464000D02*
X50000D01*
X69600Y23000D02*
X242400D01*
X0Y36000D02*
Y416000D01*
X312000Y36000D02*
Y42000D01*
X600000Y203426D02*
Y928000D01*
X459787Y50787D02*
X591213Y182213D01*
X331000Y948000D02*
X580000D01*
X312000Y42000D02*
X438574D01*
D53*
X522000Y672000D02*
D03*
X572000D02*
D03*
X545000Y800000D02*
D03*
X495000D02*
D03*
D54*
X580200Y290750D02*
D03*
Y219250D02*
D03*
D55*
X505100Y346500D02*
D03*
D56*
X530500D02*
D03*
X555900D02*
D03*
X581300D02*
D03*
D57*
X548000Y507000D02*
D03*
X522600D02*
D03*
X548000Y535000D02*
D03*
X522600D02*
D03*
X548000Y631000D02*
D03*
X522600D02*
D03*
X191000Y376000D02*
D03*
X216000D02*
D03*
X241000D02*
D03*
X255000Y843000D02*
D03*
Y868000D02*
D03*
X316000Y818000D02*
D03*
Y843000D02*
D03*
Y868000D02*
D03*
X125000Y818000D02*
D03*
Y843000D02*
D03*
Y868000D02*
D03*
X46000Y376000D02*
D03*
X71000D02*
D03*
X96000D02*
D03*
D58*
X573400Y507000D02*
D03*
Y535000D02*
D03*
Y631000D02*
D03*
X266000Y376000D02*
D03*
X121000D02*
D03*
D59*
X176000Y710000D02*
D03*
X461000Y527500D02*
D03*
Y572000D02*
D03*
X449050Y183500D02*
D03*
X366400Y183950D02*
D03*
X212500Y456000D02*
D03*
X89500D02*
D03*
X184000Y798000D02*
D03*
X363500Y671000D02*
D03*
Y772500D02*
D03*
X281000Y777500D02*
D03*
X246500D02*
D03*
D60*
X255000Y893000D02*
D03*
X316000D02*
D03*
X125000D02*
D03*
D61*
X55750Y240000D02*
D03*
X257750D02*
D03*
X36750Y973000D02*
D03*
X276750D02*
D03*
D62*
X504750Y296000D02*
D03*
Y180000D02*
D03*
X276750Y36000D02*
D03*
X36750D02*
D03*
X33750Y180000D02*
D03*
Y296000D02*
D03*
D63*
X446750Y895000D02*
D03*
X427750Y450000D02*
D03*
D64*
X172500Y481500D02*
D03*
X189000Y811000D02*
D03*
Y816500D02*
D03*
X130500Y774000D02*
D03*
X386000Y767000D02*
D03*
Y772000D02*
D03*
Y777500D02*
D03*
X194200Y115000D02*
D03*
X169000D02*
D03*
X143500D02*
D03*
X193000Y734500D02*
D03*
X52500Y834000D02*
D03*
Y840500D02*
D03*
X22000Y826000D02*
D03*
X41000Y608500D02*
D03*
X51000Y634000D02*
D03*
X91000Y707500D02*
D03*
Y713000D02*
D03*
X45500D02*
D03*
Y707500D02*
D03*
X381000Y767000D02*
D03*
Y777500D02*
D03*
Y772000D02*
D03*
X376000Y767000D02*
D03*
Y777500D02*
D03*
Y772000D02*
D03*
X350000Y772500D02*
D03*
Y777500D02*
D03*
X370500Y660500D02*
D03*
X342000Y662000D02*
D03*
Y677000D02*
D03*
Y672000D02*
D03*
Y667000D02*
D03*
X347000D02*
D03*
Y672000D02*
D03*
Y677000D02*
D03*
X352000D02*
D03*
X130450Y769000D02*
D03*
X241000Y790000D02*
D03*
X281000Y794000D02*
D03*
X248900Y798500D02*
D03*
X217400D02*
D03*
X272600D02*
D03*
X241350D02*
D03*
X194200Y811000D02*
D03*
Y816500D02*
D03*
X226500Y497000D02*
D03*
X109000Y409500D02*
D03*
X104000D02*
D03*
X99250Y412000D02*
D03*
Y417000D02*
D03*
X425500Y607500D02*
D03*
X501000Y609000D02*
D03*
X417000Y754000D02*
D03*
X126000Y169500D02*
D03*
X99500Y140500D02*
D03*
X102000Y161500D02*
D03*
X37500Y360000D02*
D03*
X30000Y373500D02*
D03*
X33500Y386500D02*
D03*
X45500Y393000D02*
D03*
X174500Y372500D02*
D03*
X180500Y361000D02*
D03*
X192000Y359000D02*
D03*
X203000Y364000D02*
D03*
X137500Y709000D02*
D03*
X414500Y328500D02*
D03*
X495000Y259000D02*
D03*
X318500Y440500D02*
D03*
Y460000D02*
D03*
X476000Y279000D02*
D03*
X471000Y356000D02*
D03*
X592500Y506500D02*
D03*
Y535500D02*
D03*
X577500Y598000D02*
D03*
X592500Y629500D02*
D03*
X589000Y648000D02*
D03*
X593000Y756000D02*
D03*
X571000Y756500D02*
D03*
X332000Y815000D02*
D03*
X270500Y868000D02*
D03*
X301500Y672000D02*
D03*
X298000Y684000D02*
D03*
X44500Y687500D02*
D03*
X389999Y578999D02*
D03*
X253000Y496000D02*
D03*
X413000Y176000D02*
D03*
X399950Y325000D02*
D03*
X95000Y605000D02*
D03*
X333500Y699000D02*
D03*
X323000Y653000D02*
D03*
X527000Y140500D02*
D03*
X234300Y482500D02*
D03*
Y487550D02*
D03*
X135500Y512000D02*
D03*
X172000Y470500D02*
D03*
X204000Y714500D02*
D03*
X186000Y740500D02*
D03*
X309500Y800500D02*
D03*
X300000Y940000D02*
D03*
X287000Y927500D02*
D03*
X386500Y283500D02*
D03*
X533000Y323000D02*
D03*
X190500Y649000D02*
D03*
X173000Y725500D02*
D03*
X223500Y700500D02*
D03*
X231000Y732500D02*
D03*
X229500Y764500D02*
D03*
X28000Y724500D02*
D03*
X46500Y745500D02*
D03*
X90750Y774500D02*
D03*
X69500Y799500D02*
D03*
X83000Y799000D02*
D03*
X47000Y763000D02*
D03*
X94500Y787500D02*
D03*
X150000Y531500D02*
D03*
X141000Y781000D02*
D03*
X308000Y699500D02*
D03*
X314000D02*
D03*
X112500Y586000D02*
D03*
X105500D02*
D03*
X95000Y613000D02*
D03*
X333000Y538000D02*
D03*
X309000Y507500D02*
D03*
X309500Y535500D02*
D03*
X175500Y578000D02*
D03*
X175500Y594000D02*
D03*
X324000Y362000D02*
D03*
X337500Y284000D02*
D03*
X328000Y300500D02*
D03*
X283000Y289500D02*
D03*
X118000Y300500D02*
D03*
X104000Y354999D02*
D03*
X60500Y358000D02*
D03*
X58500Y399000D02*
D03*
X103000Y397000D02*
D03*
X171500Y384500D02*
D03*
X188000Y471000D02*
D03*
X200500Y475500D02*
D03*
X221000Y467500D02*
D03*
X246000Y491500D02*
D03*
X254500Y468500D02*
D03*
X271500Y487000D02*
D03*
X275000Y464000D02*
D03*
X282500Y472500D02*
D03*
X328000Y474500D02*
D03*
X328500Y414000D02*
D03*
X318500Y450000D02*
D03*
X287000Y424000D02*
D03*
X288000Y434000D02*
D03*
X399000Y805500D02*
D03*
X341000Y907000D02*
D03*
X361000Y938000D02*
D03*
X285000Y895000D02*
D03*
X259500Y920500D02*
D03*
X206500Y871000D02*
D03*
X174000Y820000D02*
D03*
X166000Y829000D02*
D03*
X175000Y783000D02*
D03*
X201500Y801500D02*
D03*
X59000Y930500D02*
D03*
X82000Y994500D02*
D03*
X137500Y949500D02*
D03*
X296950Y708500D02*
D03*
X267000Y707000D02*
D03*
X287000Y737000D02*
D03*
X326000Y738500D02*
D03*
X315000Y757000D02*
D03*
X333500Y774500D02*
D03*
X167500Y542500D02*
D03*
X223000Y547500D02*
D03*
X243500Y558000D02*
D03*
X254000Y577500D02*
D03*
X273500Y558500D02*
D03*
X275500Y586000D02*
D03*
X291500Y571500D02*
D03*
X277500Y606500D02*
D03*
X203500Y584000D02*
D03*
X216500Y599000D02*
D03*
X202000Y614500D02*
D03*
X250000Y630000D02*
D03*
X230500Y612000D02*
D03*
X217000Y631450D02*
D03*
X224500Y649000D02*
D03*
X243950Y649500D02*
D03*
X239000Y667000D02*
D03*
X435500Y512000D02*
D03*
X360000Y511500D02*
D03*
X335500Y492000D02*
D03*
X393500Y519000D02*
D03*
X412000Y544000D02*
D03*
X446500Y555000D02*
D03*
X447000Y580500D02*
D03*
X464500Y590000D02*
D03*
X359500Y548000D02*
D03*
X324500Y569000D02*
D03*
X358500Y646000D02*
D03*
X334750Y623500D02*
D03*
X321000Y614000D02*
D03*
Y629500D02*
D03*
X365500Y588000D02*
D03*
X407500Y602000D02*
D03*
X550500Y394500D02*
D03*
X580500Y368500D02*
D03*
X562500Y375500D02*
D03*
X561500Y425000D02*
D03*
X514000Y391000D02*
D03*
X343000Y226000D02*
D03*
X379000Y250000D02*
D03*
X404050Y216000D02*
D03*
X406000Y284000D02*
D03*
X435500Y281500D02*
D03*
X71000Y164000D02*
D03*
X115500Y227500D02*
D03*
X105500Y190500D02*
D03*
X198500Y243500D02*
D03*
X223500Y193500D02*
D03*
X306500Y186000D02*
D03*
X314500Y255500D02*
D03*
X257500Y313000D02*
D03*
X201500Y287500D02*
D03*
X287500Y336500D02*
D03*
X226000Y322000D02*
D03*
X184500Y334000D02*
D03*
X118000Y260500D02*
D03*
X83500Y285000D02*
D03*
X120500Y333350D02*
D03*
X65000Y324000D02*
D03*
X11500Y379000D02*
D03*
X26500Y337000D02*
D03*
X104000Y476000D02*
D03*
X127000Y500500D02*
D03*
X111500Y534500D02*
D03*
X76000Y494500D02*
D03*
X21000Y502000D02*
D03*
X63000Y537500D02*
D03*
X20500Y552500D02*
D03*
X8000Y583000D02*
D03*
X124500Y580000D02*
D03*
X130450Y641000D02*
D03*
X118000Y658500D02*
D03*
X91500Y672500D02*
D03*
X118000Y692500D02*
D03*
X104000Y718750D02*
D03*
X101500Y745000D02*
D03*
X104000Y768550D02*
D03*
X114500Y792000D02*
D03*
X136500Y801500D02*
D03*
X459500Y631450D02*
D03*
Y622000D02*
D03*
Y640550D02*
D03*
X334750Y526750D02*
D03*
X390000Y586500D02*
D03*
X75000Y749000D02*
D03*
X542000Y521000D02*
D03*
X541000Y558000D02*
D03*
X545500Y564500D02*
D03*
X546500Y551000D02*
D03*
Y577000D02*
D03*
X555000Y521000D02*
D03*
X554500Y580500D02*
D03*
X547000Y585000D02*
D03*
X286000Y660000D02*
D03*
X228250Y408250D02*
D03*
X233500Y408300D02*
D03*
X238750Y417800D02*
D03*
Y412500D02*
D03*
X47000Y834000D02*
D03*
Y840500D02*
D03*
X330000Y928000D02*
D03*
X71000Y105000D02*
D03*
X25000Y113000D02*
D03*
X81500Y66000D02*
D03*
X125500Y120500D02*
D03*
X145000Y56000D02*
D03*
X35000Y414000D02*
D03*
X59000Y419500D02*
D03*
X165500Y423000D02*
D03*
X183500Y400500D02*
D03*
X180500Y419000D02*
D03*
X170500Y433000D02*
D03*
X182000Y432500D02*
D03*
X214200Y52000D02*
D03*
X252000Y145000D02*
D03*
X266950Y111500D02*
D03*
X344500Y73000D02*
D03*
X327000Y132500D02*
D03*
X199500Y393000D02*
D03*
X233000Y394000D02*
D03*
X247000Y430000D02*
D03*
X103000Y836000D02*
D03*
X25500Y869500D02*
D03*
X68000Y853000D02*
D03*
X67000Y877000D02*
D03*
X94500Y916500D02*
D03*
X85000Y945500D02*
D03*
X101500Y809500D02*
D03*
X110000Y979500D02*
D03*
X149500Y922000D02*
D03*
X346500Y811900D02*
D03*
X370000Y700000D02*
D03*
X201000Y911000D02*
D03*
X218500Y856500D02*
D03*
X201500Y896500D02*
D03*
X183500Y921000D02*
D03*
X190000Y958000D02*
D03*
X196500Y922000D02*
D03*
X219500Y997000D02*
D03*
X227500Y937500D02*
D03*
X228250Y896500D02*
D03*
X281500Y861000D02*
D03*
X388500Y146000D02*
D03*
X433950Y78000D02*
D03*
X404000Y120000D02*
D03*
X436500Y146500D02*
D03*
X479000Y134000D02*
D03*
X415000Y611500D02*
D03*
X433000Y623000D02*
D03*
X513500Y262000D02*
D03*
X536500Y451500D02*
D03*
X591000Y394000D02*
D03*
X591500Y434500D02*
D03*
X546500Y473000D02*
D03*
X500500Y515000D02*
D03*
X591500Y476000D02*
D03*
X590500Y558000D02*
D03*
X569500Y564500D02*
D03*
X568500Y608000D02*
D03*
X588500Y605000D02*
D03*
X406000Y626000D02*
D03*
X401250Y624000D02*
D03*
X401500Y629500D02*
D03*
X368500Y694000D02*
D03*
X433000Y644000D02*
D03*
Y634100D02*
D03*
Y654000D02*
D03*
X440450Y700500D02*
D03*
X417500Y719000D02*
D03*
X421000Y709000D02*
D03*
X425500Y754000D02*
D03*
X426500Y725000D02*
D03*
X367000Y795000D02*
D03*
X375000Y834000D02*
D03*
X416500Y763850D02*
D03*
X417000Y775500D02*
D03*
X418150Y826500D02*
D03*
X429000Y715000D02*
D03*
X435450Y708500D02*
D03*
X437500Y719500D02*
D03*
X433000Y754000D02*
D03*
X444500Y710500D02*
D03*
X470000Y641500D02*
D03*
X556500Y700850D02*
D03*
X574000Y700500D02*
D03*
X590500Y700000D02*
D03*
X554500Y736500D02*
D03*
X555000Y717000D02*
D03*
X573000Y716500D02*
D03*
X587000Y717500D02*
D03*
X495000Y742550D02*
D03*
X472000Y760000D02*
D03*
X481500Y769500D02*
D03*
X444000Y773000D02*
D03*
X454139Y779500D02*
D03*
X462000Y774500D02*
D03*
X459000Y821000D02*
D03*
X470500Y780000D02*
D03*
X560000Y762500D02*
D03*
X561500Y751000D02*
D03*
X579450Y750450D02*
D03*
X580500Y763450D02*
D03*
X526000Y838000D02*
D03*
X559500Y923500D02*
D03*
X563500Y847000D02*
D03*
X568000Y882000D02*
D03*
X515000Y768500D02*
D03*
X525700Y720000D02*
D03*
X537000D02*
D03*
X515000Y749000D02*
D03*
X526000Y768500D02*
D03*
X526150Y749000D02*
D03*
X538500Y768500D02*
D03*
X539000Y749000D02*
D03*
X140000Y726000D02*
D03*
X166000Y766000D02*
D03*
X139500Y584000D02*
D03*
X18500Y749500D02*
D03*
X191500Y669000D02*
D03*
X201500D02*
D03*
X284000Y539500D02*
D03*
X262500Y540500D02*
D03*
X281500Y484500D02*
D03*
X281000Y498000D02*
D03*
X149500Y700000D02*
D03*
X292500Y608000D02*
D03*
X286499Y612999D02*
D03*
X193000Y712500D02*
D03*
X269500Y547000D02*
D03*
X274000Y508000D02*
D03*
X320500Y544000D02*
D03*
X316100Y484500D02*
D03*
X274500Y663000D02*
D03*
X195750Y752000D02*
D03*
X204000Y746150D02*
D03*
X274499Y655499D02*
D03*
X75000Y595500D02*
D03*
X19000Y621500D02*
D03*
X165350Y571499D02*
D03*
X170000Y565499D02*
D03*
X165350Y559500D02*
D03*
X171000Y553999D02*
D03*
X207000Y642500D02*
D03*
X168000Y579000D02*
D03*
X139000Y593000D02*
D03*
X164000Y589000D02*
D03*
X163500Y596500D02*
D03*
X164000Y626499D02*
D03*
X170000Y631999D02*
D03*
X175500Y626499D02*
D03*
X181000Y631999D02*
D03*
X186500Y626500D02*
D03*
X136000Y544000D02*
D03*
X153000Y477499D02*
D03*
X159500Y481999D02*
D03*
X166000Y477499D02*
D03*
X146500Y481999D02*
D03*
X140200Y477500D02*
D03*
X152500Y354999D02*
D03*
X141500D02*
D03*
X147000Y360500D02*
D03*
X158499Y359999D02*
D03*
X164500Y355000D02*
D03*
X195750Y775500D02*
D03*
X280500Y819500D02*
D03*
X263000Y775000D02*
D03*
X260000Y769000D02*
D03*
X253500Y744000D02*
D03*
Y724500D02*
D03*
X347500Y312500D02*
D03*
X45500Y718500D02*
D03*
Y702000D02*
D03*
X342500Y578000D02*
D03*
X289500Y810000D02*
D03*
X295500D02*
D03*
X301500D02*
D03*
Y816000D02*
D03*
X295500D02*
D03*
X289500D02*
D03*
X236500Y119500D02*
D03*
X378000Y629500D02*
D03*
X72000Y92150D02*
D03*
X143250Y167000D02*
D03*
X168750D02*
D03*
X177000Y173000D02*
D03*
X48000Y812000D02*
D03*
X49000Y794000D02*
D03*
X406500Y631999D02*
D03*
X67000Y560000D02*
D03*
X529000Y265000D02*
D03*
X441000Y224500D02*
D03*
X560950Y197500D02*
D03*
X446500Y244500D02*
D03*
X412000Y221500D02*
D03*
X465000Y182000D02*
D03*
X441000Y196500D02*
D03*
X467000Y204500D02*
D03*
X560950Y312500D02*
D03*
X447500Y233000D02*
D03*
X384000Y273000D02*
D03*
X378000Y267500D02*
D03*
X395000Y176000D02*
D03*
X386250D02*
D03*
X422500D02*
D03*
X430850D02*
D03*
X417000Y306550D02*
D03*
X417000Y316450D02*
D03*
X337000Y381500D02*
D03*
X296950Y381500D02*
D03*
X445000Y329500D02*
D03*
X464500Y346500D02*
D03*
X444000Y267000D02*
D03*
X496000Y359500D02*
D03*
X520500Y361000D02*
D03*
X466000Y377500D02*
D03*
X450500Y353000D02*
D03*
X452500Y330500D02*
D03*
X412000Y368500D02*
D03*
X387000Y363000D02*
D03*
X366500D02*
D03*
X405500Y349500D02*
D03*
X432000Y360000D02*
D03*
X404050Y176000D02*
D03*
X366000Y196500D02*
D03*
X313500Y220550D02*
D03*
X113000Y644500D02*
D03*
X73000Y697550D02*
D03*
X73500Y724000D02*
D03*
X48500Y782500D02*
D03*
X74000Y774000D02*
D03*
X30500Y749000D02*
D03*
X19000Y774000D02*
D03*
X48500Y820000D02*
D03*
X90750Y547500D02*
D03*
X134000Y577500D02*
D03*
X113000Y577000D02*
D03*
X202500Y544000D02*
D03*
X296500Y317000D02*
D03*
X334750Y243500D02*
D03*
X351500Y270500D02*
D03*
X171800Y296500D02*
D03*
X173500Y207000D02*
D03*
X166500Y190000D02*
D03*
X373000Y325000D02*
D03*
X536700Y199500D02*
D03*
X539000Y191000D02*
D03*
X33500Y824500D02*
D03*
X10000Y825000D02*
D03*
X14000Y799000D02*
D03*
X35500Y799500D02*
D03*
X13500Y850500D02*
D03*
X40500Y850300D02*
D03*
X299000Y362000D02*
D03*
X326500Y389500D02*
D03*
X445000Y253000D02*
D03*
X475000Y242500D02*
D03*
X494500Y220550D02*
D03*
X487000Y222500D02*
D03*
X496000Y234714D02*
D03*
X511450Y219500D02*
D03*
X480500Y387500D02*
D03*
X363500Y701000D02*
D03*
X368500Y688000D02*
D03*
X525850Y776000D02*
D03*
X513000D02*
D03*
X515500Y703000D02*
D03*
X537000Y702500D02*
D03*
X525500Y703000D02*
D03*
X239500Y134250D02*
D03*
X209500Y117750D02*
D03*
X453500Y598500D02*
D03*
X506500Y576000D02*
D03*
X491000Y699500D02*
D03*
Y694500D02*
D03*
Y689500D02*
D03*
X500000Y713000D02*
D03*
X570500Y321000D02*
D03*
X570499Y189000D02*
D03*
X533500Y268000D02*
D03*
X538500Y267500D02*
D03*
Y262500D02*
D03*
X510000Y225000D02*
D03*
X512500Y229500D02*
D03*
X515000Y223500D02*
D03*
M02*
